ply
format ascii 1.0
comment VCGLIB generated
comment TextureFile barrel_A_d.png
element vertex 345
property float x
property float y
property float z
property float nx
property float ny
property float nz
property float texture_u
property float texture_v
element face 404
property list uchar int vertex_indices
end_header
0 77.79999 26.45227 0 1 0 0.6607651 0.128562
0 77.79999 -26.45227 0 1 0 0.8982394 0.1285624
-13.22614 77.79999 -22.90834 0 1 0 0.8823318 0.187931
-13.22614 77.79999 22.90834 0 1 0 0.676673 0.1879306
-22.90834 77.79999 -13.22614 0 1 0 0.8388711 0.2313917
-22.90834 77.79999 13.22614 0 1 0 0.7201341 0.2313915
-26.45227 77.79999 0 0 1 0 0.7795026 0.2472995
13.22614 77.79999 22.90834 0 1 0 0.6766726 0.06919336
13.22614 77.79999 -22.90834 0 1 0 0.8823313 0.06919336
22.90834 77.79999 13.22614 0 1 0 0.7201331 0.02573233
22.90834 77.79999 -13.22614 0 1 0 0.83887 0.02573207
26.45227 77.79999 0 0 1 0 0.7795012 0.009824247
22.90834 2.200007 -13.22614 0 -1 0 0.6223227 0.4017631
26.45227 2.200007 0 0 -1 0 0.5629538 0.4176712
22.90834 2.200007 13.22614 0 -1 0 0.5035853 0.4017635
13.22614 2.200007 -22.90834 0 -1 0 0.6657836 0.3583018
13.22614 2.200007 22.90834 0 -1 0 0.4601245 0.3583027
0 2.200007 26.45227 0 -1 0 0.4442171 0.2989342
0 2.200007 -26.45227 0 -1 0 0.6816916 0.2989329
-13.22614 2.200007 22.90834 0 -1 0 0.4601248 0.2395656
-13.22614 2.200007 -22.90834 0 -1 0 0.6657839 0.2395643
-22.90834 2.200007 13.22614 0 -1 0 0.5035858 0.1961048
-22.90834 2.200007 -13.22614 0 -1 0 0.622323 0.196104
-26.45227 2.200007 0 0 -1 0 0.5629543 0.1801966
21.8245 60 21.8245 0.7009882 0.1312678 0.7009882 0.1083092 0.6215075
26.84219 60 15.49734 0.8584815 0.1317055 0.4956444 0.1083254 0.6619898
23.83417 80 13.76066 0.5857926 0.7365206 0.3382077 0.0008838177 0.6620425
19.37878 80 19.37878 0.4737687 0.7423519 0.4737687 0.0008285642 0.6215317
15.49734 60 26.84219 0.4956443 0.1317055 0.8584815 0.108293 0.5810253
13.76066 80 23.83417 0.3382077 0.7365206 0.5857927 0.0007733107 0.581021
23.14068 40 23.14068 0.7071068 -1.267271e-08 0.7071068 0.2070836 0.6209933
28.46098 40 16.43195 0.8660254 2.428692e-09 0.5 0.2071058 0.6614525
16.43195 40 28.46098 0.5000001 -2.125105e-08 0.8660254 0.2070614 0.5805341
21.8245 20 21.8245 0.7009882 -0.1312678 0.7009882 0.3074704 0.6214935
26.84219 20 15.49734 0.8584815 -0.1317055 0.4956444 0.3074946 0.6619669
15.49734 20 26.84219 0.4956443 -0.1317055 0.8584814 0.3074462 0.5810202
19.37878 0 19.37878 0.4737687 -0.7423519 0.4737687 0.4176697 0.6215326
23.83417 0 13.76066 0.5857927 -0.7365206 0.3382077 0.4176145 0.6620435
13.76066 0 23.83417 0.3382077 -0.7365206 0.5857926 0.4177248 0.5810218
17.53086 0 17.53086 -0.4775772 -0.7374552 -0.4775772 0.53874 0.9504548
21.47657 0 12.3995 -0.5844463 -0.7379454 -0.3374303 0.5676537 0.9665402
12.3995 0 21.47657 -0.3374302 -0.7379454 -0.5844463 0.5085412 0.9316983
21.47657 80 12.3995 -0.5844463 0.7379454 -0.3374303 0.7246216 0.4069542
17.53086 80 17.53086 -0.4775772 0.7374551 -0.4775772 0.693478 0.4230536
12.3995 80 21.47657 -0.3374303 0.7379454 -0.5844463 0.6652389 0.4406473
17.53086 77.8 17.53086 -0.7071068 0 -0.7071068 0.9430154 0.1060254
12.3995 77.8 21.47657 -0.5000001 0 -0.8660254 0.9430739 0.07528982
21.47657 77.8 12.3995 -0.8660254 0 -0.5000001 0.9429569 0.1367609
17.53086 2.2 17.53086 -0.7071068 0 -0.7071068 0.9887647 0.660082
21.47657 2.2 12.3995 -0.8660254 0 -0.5000001 0.988849 0.6293457
12.3995 2.2 21.47657 -0.5000001 0 -0.8660254 0.9886804 0.6908184
29.81282 60 7.988319 0.9575678 0.1312677 0.2565792 0.1083273 0.7024738
30.99468 60 0 0.9912889 0.1317054 -1.444524e-08 0.1083292 0.7429578
27.52132 80 0 0.6764151 0.7365206 -3.239155e-09 0.0009942353 0.7430641
26.4719 80 7.093125 0.6471803 0.7423518 0.1734113 0.0009390265 0.7025533
31.61076 40 8.470078 0.9659259 -3.198351e-08 0.2588187 0.207157 0.7019005
32.8639 40 0 1 -1.457215e-08 4.857382e-09 0.2072082 0.7423485
29.81282 20 7.988319 0.9575678 -0.1312677 0.2565792 0.3075788 0.7024341
30.99468 20 0 0.9912889 -0.1317054 7.222621e-09 0.307663 0.7429013
26.4719 0 7.093125 0.6471804 -0.7423518 0.1734114 0.4175594 0.7025542
27.52132 0 0 0.6764151 -0.7365206 -9.717466e-09 0.4175043 0.743065
23.94761 0 6.416742 -0.6523825 -0.7374553 -0.1748053 0.6031855 0.9676873
24.799 0 0 -0.6748605 -0.7379453 3.229043e-09 0.6362683 0.9671633
24.799 80 0 -0.6748605 0.7379453 -3.229043e-09 0.792894 0.4074704
23.94761 80 6.416742 -0.6523824 0.7374552 -0.1748053 0.7578735 0.4058391
23.94761 77.8 6.416742 -0.9659259 0 -0.2588189 0.9429013 0.1675218
24.799 77.8 0 -1 0 4.784757e-09 0.9428457 0.1982827
23.94761 2.2 6.416742 -0.9659259 0 -0.258819 0.9888972 0.5985852
24.799 2.2 0 -1 0 -3.588567e-09 0.9889454 0.5678248
7.988319 60 29.81282 0.2565792 0.1312678 0.9575677 0.1082713 0.540539
7.093125 80 26.4719 0.1734114 0.7423518 0.6471803 0.0007180572 0.5405102
0 60 30.99468 7.222621e-09 0.1317054 0.9912889 0.1082497 0.5000528
0 80 27.52132 3.239155e-09 0.7365206 0.6764151 0.0006628036 0.4999994
8.470078 40 31.61076 0.2588187 1.508656e-08 0.9659259 0.207051 0.5400623
0 40 32.8639 3.035864e-09 -8.500419e-09 1 0.2070405 0.4995905
7.988319 20 29.81282 0.2565792 -0.1312677 0.9575678 0.3074492 0.540539
0 20 30.99468 -1.143582e-08 -0.1317054 0.9912889 0.3074523 0.5000578
7.093125 0 26.4719 0.1734113 -0.7423518 0.6471803 0.4177799 0.540511
0 0 27.52132 9.717466e-09 -0.7365206 0.6764151 0.4178351 0.5000001
6.416742 0 23.94761 -0.1748053 -0.7374552 -0.6523825 0.4915428 0.9033116
0 0 24.799 -3.229043e-09 -0.7379453 -0.6748605 0.4747663 0.871969
6.416742 80 23.94761 -0.1748053 0.7374552 -0.6523825 0.6463169 0.4701614
0 80 24.799 3.229043e-09 0.7379453 -0.6748605 0.6306573 0.4995174
6.416742 77.8 23.94761 -0.258819 0 -0.9659259 0.943131 0.04457995
0 77.8 24.799 -3.588568e-09 0 -1 0.9431882 0.01387009
6.416742 2.2 23.94761 -0.258819 0 -0.9659259 0.9885789 0.7215293
0 2.2 24.799 4.784757e-09 0 -1 0.9884775 0.7522402
-7.988319 60 29.81282 -0.2565792 0.1312677 0.9575678 0.1082251 0.4595618
-7.093125 80 26.4719 -0.1734113 0.7423518 0.6471803 0.0006075948 0.4594886
-15.49734 60 26.84219 -0.4956444 0.1317055 0.8584815 0.1082004 0.4190709
-13.76066 80 23.83417 -0.3382077 0.7365206 0.5857926 0.000552386 0.4189779
-8.470078 40 31.61076 -0.2588187 -3.198351e-08 0.9659259 0.2070367 0.4591093
-16.43195 40 28.46098 -0.5000001 2.428692e-09 0.8660254 0.2070329 0.4186282
-7.988319 20 29.81282 -0.2565792 -0.1312677 0.9575678 0.3074725 0.4595715
-15.49734 20 26.84219 -0.4956444 -0.1317056 0.8584814 0.3074926 0.4190852
-7.093125 0 26.4719 -0.1734114 -0.7423518 0.6471804 0.4178902 0.4594893
-13.76066 0 23.83417 -0.3382077 -0.7365206 0.5857926 0.4179453 0.4189784
-6.416742 0 23.94761 0.1748053 -0.7374553 -0.6523825 0.4742396 0.8388857
-12.3995 0 21.47657 0.3374303 -0.7379454 -0.5844463 0.4753828 0.8033525
-6.416742 80 23.94761 0.1748053 0.7374552 -0.6523824 0.6290258 0.5345382
-12.3995 80 21.47657 0.3374303 0.7379454 -0.5844463 0.6301407 0.5677906
-6.416742 77.8 23.94761 0.2588189 0 -0.9659259 0.9430841 0.7215936
-12.3995 77.8 21.47657 0.5000001 0 -0.8660254 0.9429798 0.6908832
-6.416742 2.2 23.94761 0.258819 0 -0.9659259 0.9885144 0.04458122
-12.3995 2.2 21.47657 0.5000001 0 -0.8660254 0.9885098 0.07529235
-21.8245 60 21.8245 -0.7009882 0.1312678 0.7009882 0.1081728 0.3785765
-19.37878 80 19.37878 -0.4737687 0.7423519 0.4737687 0.0004971176 0.3784671
-26.84219 60 15.49734 -0.8584815 0.1317055 0.4956443 0.1081452 0.3380822
-23.83417 80 13.76066 -0.5857927 0.7365206 0.3382077 0.0004418492 0.3379564
-23.14068 40 23.14068 -0.7071068 -1.508656e-08 0.7071068 0.2070392 0.3781416
-28.46098 40 16.43195 -0.8660254 -2.125105e-08 0.5000001 0.2070455 0.3376549
-21.8245 20 21.8245 -0.7009882 -0.1312678 0.7009882 0.3075362 0.3785977
-26.84219 20 15.49734 -0.8584815 -0.1317055 0.4956444 0.3075798 0.3381101
-19.37878 0 19.37878 -0.4737687 -0.7423519 0.4737687 0.4180005 0.3784676
-23.83417 0 13.76066 -0.5857926 -0.7365206 0.3382077 0.4180556 0.3379568
-17.53086 0 17.53086 0.4775772 -0.7374552 -0.4775772 0.4914696 0.7744387
-21.47657 0 12.3995 0.5844463 -0.7379454 -0.3374302 0.510228 0.7442384
-17.53086 80 17.53086 0.4775772 0.7374551 -0.4775772 0.6462384 0.5989351
-21.47657 80 12.3995 0.5844463 0.7379454 -0.3374303 0.6638306 0.6271754
-17.53086 77.8 17.53086 0.7071068 0 -0.7071068 0.9428765 0.6601463
-21.47657 77.8 12.3995 0.8660254 0 -0.5000001 0.9427731 0.6294094
-17.53086 2.2 17.53086 0.7071068 0 -0.7071068 0.9885142 0.1060284
-21.47657 2.2 12.3995 0.8660254 0 -0.5000001 0.9885187 0.1367644
-29.81282 60 7.988319 -0.9575677 0.1312678 0.2565792 0.1081077 0.2975842
-26.4719 80 7.093125 -0.6471803 0.7423518 0.1734114 0.0003866106 0.2974455
-30.99468 60 0 -0.9912889 0.1317054 7.222621e-09 0.1080702 0.2570863
-27.52132 80 0 -0.6764151 0.7365206 3.239155e-09 0.000331372 0.2569347
-31.61076 40 8.470078 -0.9659259 1.508656e-08 0.2588187 0.207077 0.2971653
-32.8639 40 0 -1 -1.33578e-08 -4.857382e-09 0.2071085 0.2566758
-29.81282 20 7.988319 -0.9575678 -0.1312677 0.2565792 0.3076786 0.2976243
-30.99468 20 0 -0.9912889 -0.1317054 -1.143582e-08 0.3077774 0.2571384
-26.4719 0 7.093125 -0.6471803 -0.7423518 0.1734113 0.4181107 0.2974459
-27.52132 0 0 -0.6764151 -0.7365206 9.717466e-09 0.4181658 0.2569351
-23.94761 0 6.416742 0.6523825 -0.7374552 -0.1748053 0.5386175 0.7272418
-24.799 0 0 0.6748605 -0.7379453 -3.229043e-09 0.5699636 0.7104668
-23.94761 80 6.416742 0.6523825 0.7374552 -0.1748053 0.6933429 0.6461002
-24.799 80 0 0.6748605 0.7379453 3.229043e-09 0.7226966 0.6617621
-23.94761 77.8 6.416742 0.9659259 0 -0.258819 0.9426883 0.598649
-24.799 77.8 0 1 0 -3.588568e-09 0.9426036 0.5678886
-23.94761 2.2 6.416742 0.9659259 0 -0.258819 0.9885321 0.1675242
-24.799 2.2 0 1 0 4.784757e-09 0.9885454 0.1982839
-29.81282 60 -7.988319 -0.9575678 0.1312677 -0.2565792 0.107987 0.2165809
-26.4719 80 -7.093125 -0.6471803 0.7423518 -0.1734113 0.0002761483 0.2164239
-26.84219 60 -15.49734 -0.8584815 0.1317055 -0.4956444 0.1079037 0.1760755
-23.83417 80 -13.76066 -0.5857926 0.7365206 -0.3382077 0.0002209246 0.1759132
-31.61076 40 -8.470078 -0.9659259 -3.198351e-08 -0.2588187 0.2072035 0.2161835
-28.46098 40 -16.43195 -0.8660254 2.428692e-09 -0.5000001 0.2072985 0.1756913
-29.81282 20 -7.988319 -0.9575678 -0.1312677 -0.2565792 0.3080259 0.2166523
-26.84219 20 -15.49734 -0.8584813 -0.1317055 -0.4956443 0.3082744 0.1761663
-26.4719 0 -7.093125 -0.6471804 -0.7423518 -0.1734114 0.418221 0.2164242
-23.83417 0 -13.76066 -0.5857926 -0.7365206 -0.3382077 0.4182761 0.1759134
-23.94761 0 -6.416742 0.6523825 -0.7374553 0.1748053 0.6030479 0.7099411
-21.47657 0 -12.3995 0.5844463 -0.7379454 0.3374303 0.6385815 0.711086
-23.94761 80 -6.416742 0.6523824 0.7374552 0.1748053 0.7577173 0.6633934
-21.47657 80 -12.3995 0.5844463 0.7379454 0.3374303 0.7909692 0.6622782
-23.94761 77.8 -6.416742 0.9659259 0 0.2588189 0.9425559 0.5371044
-21.47657 77.8 -12.3995 0.8660254 0 0.5000001 0.9425082 0.5063202
-23.94761 2.2 -6.416742 0.9659259 0 0.258819 0.9885697 0.2290655
-21.47657 2.2 -12.3995 0.8660254 0 0.5000001 0.9885941 0.2598471
-21.8245 60 -21.8245 -0.7009882 0.1312678 -0.7009882 0.1076276 0.1355512
-19.37878 80 -19.37878 -0.4737687 0.7423519 -0.4737687 0.000165686 0.1354024
-15.49734 60 -26.84219 -0.4956443 0.1317055 -0.8584815 0.1073515 0.09502685
-13.76066 80 -23.83417 -0.3382077 0.7365206 -0.5857927 0.0001104474 0.09489161
-23.14068 40 -23.14068 -0.7071068 -1.267271e-08 -0.7071068 0.207557 0.1351975
-16.43195 40 -28.46098 -0.5000001 -2.125105e-08 -0.8660254 0.2078155 0.09470376
-21.8245 20 -21.8245 -0.7009882 -0.1312678 -0.7009882 0.3089375 0.1356587
-15.49734 20 -26.84219 -0.4956443 -0.1317055 -0.8584814 0.3096006 0.09515122
-19.37878 0 -19.37878 -0.4737687 -0.7423519 -0.4737687 0.4183312 0.1354025
-13.76066 0 -23.83417 -0.3382077 -0.7365206 -0.5857926 0.4183863 0.09489167
-17.53086 0 -17.53086 0.4775772 -0.7374552 0.4775772 0.6674969 0.7271729
-12.3995 0 -21.47657 0.3374302 -0.7379454 0.5844463 0.697698 0.745931
-17.53086 80 -17.53086 0.4775772 0.7374551 0.4775772 0.8221128 0.6461786
-12.3995 80 -21.47657 0.3374303 0.7379454 0.5844463 0.850352 0.628585
-17.53086 77.8 -17.53086 0.7071068 0 0.7071068 0.9425049 0.4755134
-12.3995 77.8 -21.47657 0.5000001 0 0.8660254 0.9425017 0.4447066
-17.53086 2.2 -17.53086 0.7071068 0 0.7071068 0.9886323 0.2906455
-12.3995 2.2 -21.47657 0.5000001 0 0.8660254 0.9886705 0.3214439
-7.988319 60 -29.81282 -0.2565792 0.1312678 -0.9575677 0.1062337 0.05444847
-7.093125 80 -26.4719 -0.1734114 0.7423518 -0.6471803 5.52237e-05 0.05438085
0 60 -30.99468 -7.222621e-09 0.1317054 -0.9912889 0.1051158 0.01387009
0 80 -27.52132 -3.239155e-09 0.7365206 -0.6764151 0 0.01387009
-8.470078 40 -31.61076 -0.2588187 1.508656e-08 -0.9659259 0.2085319 0.05428693
0 40 -32.8639 -3.035864e-09 -8.500419e-09 -1 0.2092483 0.01387009
-7.988319 20 -29.81282 -0.2565792 -0.1312677 -0.9575678 0.3114907 0.05451065
0 20 -30.99468 1.143582e-08 -0.1317054 -0.9912889 0.3133807 0.01387009
-7.093125 0 -26.4719 -0.1734113 -0.7423518 -0.6471803 0.4184415 0.05438088
0 0 -27.52132 -9.717466e-09 -0.7365206 -0.6764151 0.4184967 0.01387009
-6.416742 0 -23.94761 0.1748053 -0.7374552 0.6523825 0.7146964 0.7743204
0 0 -24.799 3.229043e-09 -0.7379453 0.6748605 0.7314728 0.8056663
-6.416742 80 -23.94761 0.1748053 0.7374552 0.6523825 0.8692737 0.599071
0 80 -24.799 -3.229043e-09 0.7379453 0.6748605 0.8849331 0.5697148
-6.416742 77.8 -23.94761 0.258819 0 0.9659259 0.9425306 0.4138912
0 77.8 -24.799 3.588568e-09 0 1 0.9425595 0.3830757
-6.416742 2.2 -23.94761 0.258819 0 0.9659259 0.9887201 0.3522541
0 2.2 -24.799 -4.784757e-09 0 1 0.9887697 0.3830643
7.988319 60 -29.81282 0.2565792 0.1312677 -0.9575678 0.1067498 0.9455968
7.093125 80 -26.4719 0.1734113 0.7423518 -0.6471803 0.001270443 0.945618
15.49734 60 -26.84219 0.4956444 0.1317055 -0.8584815 0.1077234 0.9050645
13.76066 80 -23.83417 0.3382077 0.7365206 -0.5857926 0.001215219 0.9051073
8.470078 40 -31.61076 0.2588187 -3.198351e-08 -0.9659259 0.2086288 0.9452302
16.43195 40 -28.46098 0.5000001 2.428692e-09 -0.8660254 0.2080082 0.904331
7.988319 20 -29.81282 0.2565792 -0.1312677 -0.9575678 0.3110337 0.9455205
15.49734 20 -26.84219 0.4956444 -0.1317056 -0.8584814 0.3093445 0.9049113
7.093125 0 -26.4719 0.1734114 -0.7423518 -0.6471804 0.4172285 0.9456192
13.76066 0 -23.83417 0.3382077 -0.7365206 -0.5857926 0.4172837 0.9051085
6.416742 0 -23.94761 -0.1748053 -0.7374553 0.6523825 0.7319981 0.8387511
12.3995 0 -21.47657 -0.3374303 -0.7379454 0.5844463 0.7308529 0.8742858
6.416742 80 -23.94761 -0.1748053 0.7374552 0.6523824 0.8865641 0.5346943
12.3995 80 -21.47657 -0.3374303 0.7379454 0.5844463 0.8854484 0.5014417
6.416742 77.8 -23.94761 -0.2588189 0 0.9659259 0.942607 0.3522617
12.3995 77.8 -21.47657 -0.5000001 0 0.8660254 0.9426544 0.3214476
6.416742 2.2 -23.94761 -0.258819 0 0.9659259 0.9888244 0.4138716
12.3995 2.2 -21.47657 -0.5000001 0 0.8660254 0.988879 0.444679
21.8245 60 -21.8245 0.7009882 0.1312678 -0.7009882 0.1079769 0.8645144
19.37878 80 -19.37878 0.4737687 0.7423519 -0.4737687 0.001159981 0.8645964
26.84219 60 -15.49734 0.8584815 0.1317055 -0.4956443 0.1082304 0.8239642
23.83417 80 -13.76066 0.5857927 0.7365206 -0.3382077 0.001104742 0.8240856
23.14068 40 -23.14068 0.7071068 -1.508656e-08 -0.7071068 0.2077286 0.8637949
28.46098 40 -16.43195 0.8660254 -2.125105e-08 -0.5000001 0.2074491 0.8232589
21.8245 20 -21.8245 0.7009882 -0.1312678 -0.7009882 0.308733 0.8643821
26.84219 20 -15.49734 0.8584815 -0.1317055 -0.4956444 0.3081214 0.8238529
19.37878 0 -19.37878 0.4737687 -0.7423519 -0.4737687 0.4173388 0.8645976
23.83417 0 -13.76066 0.5857926 -0.7365206 -0.3382077 0.417394 0.8240867
17.53086 0 -17.53086 -0.4775772 -0.7374552 0.4775772 0.7147645 0.9031985
21.47657 0 -12.3995 -0.5844463 -0.7379454 0.3374302 0.6960038 0.9333973
17.53086 80 -17.53086 -0.4775772 0.7374551 0.4775772 0.8693521 0.4702963
21.47657 80 -12.3995 -0.5844463 0.7379454 0.3374303 0.8517615 0.4420559
17.53086 77.8 -17.53086 -0.7071068 0 0.7071068 0.9427018 0.2906482
21.47657 77.8 -12.3995 -0.8660254 0 0.5000001 0.9427493 0.2598489
17.53086 2.2 -17.53086 -0.7071068 0 0.7071068 0.9889157 0.4754734
21.47657 2.2 -12.3995 -0.8660254 0 0.5000001 0.9889523 0.5062679
29.81282 60 -7.988319 0.9575677 0.1312678 -0.2565792 0.1082798 0.783461
26.4719 80 -7.093125 0.6471803 0.7423518 -0.1734114 0.001049489 0.7835748
31.61076 40 -8.470078 0.9659259 1.508656e-08 -0.2588187 0.2073287 0.7828037
29.81282 20 -7.988319 0.9575678 -0.1312677 -0.2565792 0.3078922 0.7833771
26.4719 0 -7.093125 0.6471803 -0.7423518 -0.1734113 0.4174491 0.7835759
23.94761 0 -6.416742 -0.6523825 -0.7374552 0.1748053 0.6676145 0.9503916
23.94761 80 -6.416742 -0.6523825 0.7374552 0.1748053 0.8222485 0.4231319
23.94761 77.8 -6.416742 -0.9659259 0 0.258819 0.9427975 0.2290658
23.94761 2.2 -6.416742 -0.9659259 0 0.258819 0.9889488 0.5370463
23.83417 0 13.76066 0.5857927 -0.7365206 0.3382077 0.5650597 0.9808487
19.37878 0 19.37878 0.4737687 -0.7423519 0.4737687 0.5321007 0.961821
13.76066 0 23.83417 0.3382077 -0.7365206 0.5857926 0.4991416 0.9427934
23.83417 80 13.76066 0.5857926 0.7365206 0.3382077 0.719731 0.3925726
19.37878 80 19.37878 0.4737687 0.7423519 0.4737687 0.6867719 0.4116051
13.76066 80 23.83417 0.3382077 0.7365206 0.5857927 0.6538128 0.4306377
12.3995 80 21.47657 -0.3374303 0.7379454 -0.5844463 0.9541211 0.07531184
17.53086 80 17.53086 -0.4775772 0.7374551 -0.4775772 0.9540628 0.1060459
21.47657 80 12.3995 -0.5844463 0.7379454 -0.3374303 0.9540044 0.1367799
21.47657 0 12.3995 -0.5844463 -0.7379454 -0.3374303 0.9998968 0.6293687
17.53086 0 17.53086 -0.4775772 -0.7374552 -0.4775772 0.9998125 0.660111
12.3995 0 21.47657 -0.3374302 -0.7379454 -0.5844463 0.9997283 0.6908533
27.52132 0 0 0.6764151 -0.7365206 -9.717466e-09 0.6411757 0.9808524
26.4719 0 7.093125 0.6471804 -0.7423518 0.1734114 0.6031177 0.9808505
27.52132 80 0 0.6764151 0.7365206 -3.239155e-09 0.7958504 0.3925705
26.4719 80 7.093125 0.6471803 0.7423518 0.1734113 0.7577907 0.3925715
23.94761 80 6.416742 -0.6523824 0.7374552 -0.1748053 0.9539489 0.16754
24.799 80 0 -0.6748605 0.7379453 -3.229043e-09 0.9538934 0.1983001
24.799 0 0 -0.6748605 -0.7379453 3.229043e-09 0.999993 0.5678333
23.94761 0 6.416742 -0.6523825 -0.7374553 -0.1748053 0.9999449 0.598601
7.093125 0 26.4719 0.1734113 -0.7423518 0.6471803 0.48011 0.9098359
0 0 27.52132 9.717466e-09 -0.7365206 0.6764151 0.4610784 0.8768785
7.093125 80 26.4719 0.1734114 0.7423518 0.6471803 0.634785 0.4635995
0 80 27.52132 3.239155e-09 0.7365206 0.6764151 0.6157572 0.4965613
0 80 24.799 3.229043e-09 0.7379453 -0.6748605 0.954236 0.01388896
6.416742 80 23.94761 -0.1748053 0.7374552 -0.6523825 0.9541786 0.0446004
6.416742 0 23.94761 -0.1748053 -0.7374552 -0.6523825 0.9996269 0.7215643
0 0 24.799 -3.229043e-09 -0.7379453 -0.6748605 0.9995255 0.7522752
-7.093125 0 26.4719 -0.1734114 -0.7423518 0.6471804 0.461076 0.8388191
-13.76066 0 23.83417 -0.3382077 -0.7365206 0.5857926 0.4610736 0.8007597
-7.093125 80 26.4719 -0.1734113 0.7423518 0.6471803 0.615758 0.5346209
-13.76066 80 23.83417 -0.3382077 0.7365206 0.5857926 0.6157588 0.5726804
-12.3995 80 21.47657 0.3374303 0.7379454 -0.5844463 0.9540275 0.6908444
-6.416742 80 23.94761 0.1748053 0.7374552 -0.6523824 0.9541317 0.7215552
0 80 24.799 3.229043e-09 0.7379453 -0.6748605 0.954236 0.7522659
0 77.8 24.799 -3.588568e-09 0 -1 0.9431885 0.752304
0 0 24.799 -3.229043e-09 -0.7379453 -0.6748605 0.999567 0.01387009
-6.416742 0 23.94761 0.1748053 -0.7374553 -0.6523825 0.9995623 0.04458044
0 2.2 24.799 4.784757e-09 0 -1 0.988519 0.01387009
-12.3995 0 21.47657 0.3374303 -0.7379454 -0.5844463 0.9995575 0.0752908
-19.37878 0 19.37878 -0.4737687 -0.7423519 0.4737687 0.4801032 0.7677988
-23.83417 0 13.76066 -0.5857926 -0.7365206 0.3382077 0.4991327 0.7348379
-19.37878 80 19.37878 -0.4737687 0.7423519 0.4737687 0.6347893 0.6056405
-23.83417 80 13.76066 -0.5857927 0.7365206 0.3382077 0.6538199 0.6386006
-21.47657 80 12.3995 0.5844463 0.7379454 -0.3374303 0.9538201 0.6293771
-17.53086 80 17.53086 0.4775772 0.7374551 -0.4775772 0.9539238 0.6601108
-17.53086 0 17.53086 0.4775772 -0.7374552 -0.4775772 0.999562 0.1060253
-21.47657 0 12.3995 0.5844463 -0.7379454 -0.3374302 0.9995665 0.1367598
-26.4719 0 7.093125 -0.6471803 -0.7423518 0.1734113 0.5320939 0.7158079
-27.52132 0 0 -0.6764151 -0.7365206 9.717466e-09 0.565055 0.6967778
-26.4719 80 7.093125 -0.6471803 0.7423518 0.1734114 0.6867801 0.6576314
-27.52132 80 0 -0.6764151 0.7365206 3.239155e-09 0.7197403 0.6766621
-24.799 80 0 0.6748605 0.7379453 3.229043e-09 0.9536511 0.5678642
-23.94761 80 6.416742 0.6523825 0.7374552 -0.1748053 0.9537356 0.5986207
-23.94761 0 6.416742 0.6523825 -0.7374552 -0.1748053 0.99958 0.1675178
-24.799 0 0 0.6748605 -0.7379453 -3.229043e-09 0.9995935 0.1982759
-26.4719 0 -7.093125 -0.6471804 -0.7423518 -0.1734114 0.603115 0.6967773
-23.83417 0 -13.76066 -0.5857926 -0.7365206 -0.3382077 0.6411749 0.6967767
-26.4719 80 -7.093125 -0.6471803 0.7423518 -0.1734113 0.7578 0.676661
-23.83417 80 -13.76066 -0.5857926 0.7365206 -0.3382077 0.7958597 0.6766598
-21.47657 80 -12.3995 0.5844463 0.7379454 0.3374303 0.9535562 0.5063099
-23.94761 80 -6.416742 0.6523824 0.7374552 0.1748053 0.9536036 0.5370871
-23.94761 0 -6.416742 0.6523825 -0.7374553 0.1748053 0.9996176 0.2290554
-21.47657 0 -12.3995 0.5844463 -0.7379454 0.3374303 0.9996417 0.2598349
-19.37878 0 -19.37878 -0.4737687 -0.7423519 -0.4737687 0.6741368 0.715806
-13.76066 0 -23.83417 -0.3382077 -0.7365206 -0.5857926 0.7070985 0.7348353
-19.37878 80 -19.37878 -0.4737687 0.7423519 -0.4737687 0.828819 0.6576272
-13.76066 80 -23.83417 -0.3382077 0.7365206 -0.5857927 0.8617783 0.6385946
-12.3995 80 -21.47657 0.3374303 0.7379454 0.5844463 0.9535493 0.4447106
-17.53086 80 -17.53086 0.4775772 0.7374551 0.4775772 0.9535527 0.4755102
-17.53086 0 -17.53086 0.4775772 -0.7374552 0.4775772 0.9996799 0.2906319
-12.3995 0 -21.47657 0.3374302 -0.7379454 0.5844463 0.9997181 0.3214289
-7.093125 0 -26.4719 -0.1734113 -0.7423518 -0.6471803 0.7261303 0.7677963
0 0 -27.52132 -9.717466e-09 -0.7365206 -0.6764151 0.7451621 0.8007572
-7.093125 80 -26.4719 -0.1734114 0.7423518 -0.6471803 0.8808057 0.6056327
0 80 -27.52132 -3.239155e-09 0.7365206 -0.6764151 0.8998331 0.5726707
0 80 -24.799 -3.229043e-09 0.7379453 0.6748605 0.9536072 0.3830893
-6.416742 80 -23.94761 0.1748053 0.7374552 0.6523825 0.9535782 0.4138999
-6.416742 0 -23.94761 0.1748053 -0.7374552 0.6523825 0.9997677 0.3522373
0 0 -24.799 3.229043e-09 -0.7379453 0.6748605 0.9998172 0.3830456
0 60 -30.99468 -7.222621e-09 0.1317054 -0.9912889 0.1057763 0.9861292
0 80 -27.52132 -3.239155e-09 0.7365206 -0.6764151 0.001325667 0.9861287
0 40 -32.8639 -3.035864e-09 -8.500419e-09 -1 0.2092495 0.9861295
0 20 -30.99468 1.143582e-08 -0.1317054 -0.9912889 0.3127229 0.9861296
0 0 -27.52132 -9.717466e-09 -0.7365206 -0.6764151 0.4171734 0.9861299
7.093125 0 -26.4719 0.1734114 -0.7423518 -0.6471804 0.7451622 0.8388183
13.76066 0 -23.83417 0.3382077 -0.7365206 -0.5857926 0.7451625 0.8768795
7.093125 80 -26.4719 0.1734113 0.7423518 -0.6471803 0.8998318 0.5346115
13.76066 80 -23.83417 0.3382077 0.7365206 -0.5857926 0.8998305 0.4965522
12.3995 80 -21.47657 -0.3374303 0.7379454 0.5844463 0.9537015 0.321465
6.416742 80 -23.94761 -0.1748053 0.7374552 0.6523824 0.9536543 0.3522771
6.416742 0 -23.94761 -0.1748053 -0.7374553 0.6523825 0.999872 0.4138544
12.3995 0 -21.47657 -0.3374303 -0.7379454 0.5844463 0.9999267 0.4446632
19.37878 0 -19.37878 0.4737687 -0.7423519 -0.4737687 0.7261305 0.9098392
23.83417 0 -13.76066 0.5857926 -0.7365206 -0.3382077 0.7070985 0.9427989
19.37878 80 -19.37878 0.4737687 0.7423519 -0.4737687 0.8808012 0.4635913
23.83417 80 -13.76066 0.5857927 0.7365206 -0.3382077 0.861772 0.4306304
21.47657 80 -12.3995 -0.5844463 0.7379454 0.3374303 0.9537966 0.2598665
17.53086 80 -17.53086 -0.4775772 0.7374551 0.4775772 0.9537491 0.2906657
17.53086 0 -17.53086 -0.4775772 -0.7374552 0.4775772 0.9999633 0.4754631
21.47657 0 -12.3995 -0.5844463 -0.7379454 0.3374302 1 0.506263
26.4719 0 -7.093125 0.6471803 -0.7423518 -0.1734113 0.6741371 0.9618256
26.4719 80 -7.093125 0.6471803 0.7423518 -0.1734114 0.8288112 0.4116005
23.94761 80 -6.416742 -0.6523825 0.7374552 0.1748053 0.953845 0.2290833
23.94761 0 -6.416742 -0.6523825 -0.7374552 0.1748053 0.9999965 0.5370481
3 0 1 2 
3 0 2 3 
3 2 4 5 
3 2 5 3 
3 4 6 5 
3 0 7 8 
3 0 8 1 
3 7 9 10 
3 7 10 8 
3 9 11 10 
3 12 13 14 
3 15 12 14 
3 15 14 16 
3 17 18 15 
3 17 15 16 
3 17 19 20 
3 17 20 18 
3 19 21 22 
3 19 22 20 
3 21 23 22 
3 24 25 26 
3 24 26 27 
3 28 24 27 
3 28 27 29 
3 30 31 25 
3 30 25 24 
3 32 30 24 
3 32 24 28 
3 31 30 33 
3 31 33 34 
3 30 32 35 
3 30 35 33 
3 34 33 36 
3 34 36 37 
3 33 35 38 
3 33 38 36 
3 240 241 39 
3 240 39 40 
3 242 41 39 
3 242 39 241 
3 243 42 43 
3 243 43 244 
3 245 244 43 
3 245 43 44 
3 246 247 45 
3 246 45 46 
3 247 248 47 
3 247 47 45 
3 249 250 48 
3 249 48 49 
3 250 251 50 
3 250 50 48 
3 51 52 53 
3 51 53 54 
3 25 51 54 
3 25 54 26 
3 55 56 52 
3 55 52 51 
3 31 55 51 
3 31 51 25 
3 56 55 57 
3 56 57 58 
3 55 31 34 
3 55 34 57 
3 58 57 59 
3 58 59 60 
3 57 34 37 
3 57 37 59 
3 252 253 61 
3 252 61 62 
3 240 40 61 
3 240 61 253 
3 254 63 64 
3 254 64 255 
3 243 255 64 
3 243 64 42 
3 248 256 65 
3 248 65 47 
3 256 257 66 
3 256 66 65 
3 258 259 67 
3 258 67 68 
3 259 249 49 
3 259 49 67 
3 69 28 29 
3 69 29 70 
3 71 69 70 
3 71 70 72 
3 73 32 28 
3 73 28 69 
3 74 73 69 
3 74 69 71 
3 32 73 75 
3 32 75 35 
3 73 74 76 
3 73 76 75 
3 35 75 77 
3 35 77 38 
3 75 76 78 
3 75 78 77 
3 242 260 79 
3 242 79 41 
3 261 80 79 
3 261 79 260 
3 245 44 81 
3 245 81 262 
3 263 262 81 
3 263 81 82 
3 264 265 83 
3 264 83 84 
3 265 246 46 
3 265 46 83 
3 251 266 85 
3 251 85 50 
3 266 267 86 
3 266 86 85 
3 87 71 72 
3 87 72 88 
3 89 87 88 
3 89 88 90 
3 91 74 71 
3 91 71 87 
3 92 91 87 
3 92 87 89 
3 74 91 93 
3 74 93 76 
3 91 92 94 
3 91 94 93 
3 76 93 95 
3 76 95 78 
3 93 94 96 
3 93 96 95 
3 261 268 97 
3 261 97 80 
3 269 98 97 
3 269 97 268 
3 263 82 99 
3 263 99 270 
3 271 270 99 
3 271 99 100 
3 272 273 101 
3 272 101 102 
3 273 274 275 
3 273 275 101 
3 276 277 103 
3 276 103 278 
3 277 279 104 
3 277 104 103 
3 105 89 90 
3 105 90 106 
3 107 105 106 
3 107 106 108 
3 109 92 89 
3 109 89 105 
3 110 109 105 
3 110 105 107 
3 92 109 111 
3 92 111 94 
3 109 110 112 
3 109 112 111 
3 94 111 113 
3 94 113 96 
3 111 112 114 
3 111 114 113 
3 269 280 115 
3 269 115 98 
3 281 116 115 
3 281 115 280 
3 271 100 117 
3 271 117 282 
3 283 282 117 
3 283 117 118 
3 284 285 119 
3 284 119 120 
3 285 272 102 
3 285 102 119 
3 279 286 121 
3 279 121 104 
3 286 287 122 
3 286 122 121 
3 123 107 108 
3 123 108 124 
3 125 123 124 
3 125 124 126 
3 127 110 107 
3 127 107 123 
3 128 127 123 
3 128 123 125 
3 110 127 129 
3 110 129 112 
3 127 128 130 
3 127 130 129 
3 112 129 131 
3 112 131 114 
3 129 130 132 
3 129 132 131 
3 281 288 133 
3 281 133 116 
3 289 134 133 
3 289 133 288 
3 283 118 135 
3 283 135 290 
3 291 290 135 
3 291 135 136 
3 292 293 137 
3 292 137 138 
3 293 284 120 
3 293 120 137 
3 287 294 139 
3 287 139 122 
3 294 295 140 
3 294 140 139 
3 141 125 126 
3 141 126 142 
3 143 141 142 
3 143 142 144 
3 145 128 125 
3 145 125 141 
3 146 145 141 
3 146 141 143 
3 128 145 147 
3 128 147 130 
3 145 146 148 
3 145 148 147 
3 130 147 149 
3 130 149 132 
3 147 148 150 
3 147 150 149 
3 289 296 151 
3 289 151 134 
3 297 152 151 
3 297 151 296 
3 291 136 153 
3 291 153 298 
3 299 298 153 
3 299 153 154 
3 300 301 155 
3 300 155 156 
3 301 292 138 
3 301 138 155 
3 295 302 157 
3 295 157 140 
3 302 303 158 
3 302 158 157 
3 159 143 144 
3 159 144 160 
3 161 159 160 
3 161 160 162 
3 163 146 143 
3 163 143 159 
3 164 163 159 
3 164 159 161 
3 146 163 165 
3 146 165 148 
3 163 164 166 
3 163 166 165 
3 148 165 167 
3 148 167 150 
3 165 166 168 
3 165 168 167 
3 297 304 169 
3 297 169 152 
3 305 170 169 
3 305 169 304 
3 299 154 171 
3 299 171 306 
3 307 306 171 
3 307 171 172 
3 308 309 173 
3 308 173 174 
3 309 300 156 
3 309 156 173 
3 303 310 175 
3 303 175 158 
3 310 311 176 
3 310 176 175 
3 177 161 162 
3 177 162 178 
3 179 177 178 
3 179 178 180 
3 181 164 161 
3 181 161 177 
3 182 181 177 
3 182 177 179 
3 164 181 183 
3 164 183 166 
3 181 182 184 
3 181 184 183 
3 166 183 185 
3 166 185 168 
3 183 184 186 
3 183 186 185 
3 305 312 187 
3 305 187 170 
3 313 188 187 
3 313 187 312 
3 307 172 189 
3 307 189 314 
3 315 314 189 
3 315 189 190 
3 316 317 191 
3 316 191 192 
3 317 308 174 
3 317 174 191 
3 311 318 193 
3 311 193 176 
3 318 319 194 
3 318 194 193 
3 195 320 321 
3 195 321 196 
3 197 195 196 
3 197 196 198 
3 199 322 320 
3 199 320 195 
3 200 199 195 
3 200 195 197 
3 322 199 201 
3 322 201 323 
3 199 200 202 
3 199 202 201 
3 323 201 203 
3 323 203 324 
3 201 202 204 
3 201 204 203 
3 313 325 205 
3 313 205 188 
3 326 206 205 
3 326 205 325 
3 315 190 207 
3 315 207 327 
3 328 327 207 
3 328 207 208 
3 329 330 209 
3 329 209 210 
3 330 316 192 
3 330 192 209 
3 319 331 211 
3 319 211 194 
3 331 332 212 
3 331 212 211 
3 213 197 198 
3 213 198 214 
3 215 213 214 
3 215 214 216 
3 217 200 197 
3 217 197 213 
3 218 217 213 
3 218 213 215 
3 200 217 219 
3 200 219 202 
3 217 218 220 
3 217 220 219 
3 202 219 221 
3 202 221 204 
3 219 220 222 
3 219 222 221 
3 326 333 223 
3 326 223 206 
3 334 224 223 
3 334 223 333 
3 328 208 225 
3 328 225 335 
3 336 335 225 
3 336 225 226 
3 337 338 227 
3 337 227 228 
3 338 329 210 
3 338 210 227 
3 332 339 229 
3 332 229 212 
3 339 340 230 
3 339 230 229 
3 231 215 216 
3 231 216 232 
3 52 231 232 
3 52 232 53 
3 233 218 215 
3 233 215 231 
3 56 233 231 
3 56 231 52 
3 218 233 234 
3 218 234 220 
3 233 56 58 
3 233 58 234 
3 220 234 235 
3 220 235 222 
3 234 58 60 
3 234 60 235 
3 334 341 236 
3 334 236 224 
3 252 62 236 
3 252 236 341 
3 336 226 237 
3 336 237 342 
3 254 342 237 
3 254 237 63 
3 257 343 238 
3 257 238 66 
3 343 337 228 
3 343 228 238 
3 340 344 239 
3 340 239 230 
3 344 258 68 
3 344 68 239 
