ply
format ascii 1.0
comment VCGLIB generated
comment TextureFile chest_B_d.tga
element vertex 238
property float x
property float y
property float z
property float nx
property float ny
property float nz
property float texture_u
property float texture_v
element face 240
property list uchar int vertex_indices
property int texnumber
end_header
-12.5 13.35876 -13.46231 -0.5773503 4.381569e-08 -0.8164966 0.1383861 0.06111842
-12.5 27.50089 0.6798282 -0.5773503 0.8164966 1.752627e-07 0.3601446 0.06109625
12.5 27.50089 0.6798282 0.5773503 0.8164966 1.752627e-07 0.3602061 0.3389807
12.5 13.35876 -13.46231 0.5773503 4.381569e-08 -0.8164966 0.1384309 0.3390393
-12.5 9.823224 -9.926775 -0.5773503 -0.8164967 1.533549e-07 0.08293921 0.06107494
12.5 9.823224 -9.926775 0.5773504 -0.8164965 -3.067098e-07 0.08296397 0.3390841
12.5 23.96536 4.215362 0.5773501 -1.31447e-07 0.8164967 0.3601712 0.3945364
-12.5 23.96536 4.215362 -0.5773504 2.84802e-07 0.8164966 0.4155922 0.06101441
12 13.18198 -12.57842 -0.5773503 -3.560025e-08 0.8164967 0.7951586 0.6621491
12 26.61701 0.8566054 -0.5773503 -0.8164966 -1.31447e-07 0.6264036 0.6621491
-12 26.61701 0.8566054 0.5773503 -0.8164966 -9.58468e-08 0.6264037 0.4489846
-12 13.18198 -12.57842 0.5773503 -4.381569e-08 0.8164967 0.7951586 0.4489852
12 10.17678 -9.573221 -0.3015114 -0.4264015 0.8528029 0.07741222 0.3335248
-12 10.17678 -9.573221 0.3015114 -0.4264013 0.8528029 0.07738867 0.06663373
12 23.6118 3.861808 -0.3015114 -0.8528029 0.4264014 0.3546216 0.400095
-12 23.6118 3.861808 0.3015111 -0.8528029 0.4264016 0.4211423 0.06656942
7.08 7.599999 4.580001 0.07898904 0.9937412 0.07898925 0.3569552 0.8908533
7.08 7.600001 -4.579998 0.07898909 0.9937412 -0.07898892 0.2552138 0.8907609
-7.08 7.600001 -4.579998 -0.07898912 0.9937412 -0.07898889 0.2552791 0.7334117
-7.08 7.599999 4.580001 -0.07898906 0.9937412 0.07898923 0.3570581 0.7334806
12 6.549998 9.500001 0.1055127 0.9888044 0.1055129 0.4125734 0.9462527
12 6.550001 -9.499999 0.1055128 0.9888044 -0.1055126 0.1996876 0.9462527
-12 6.550001 -9.499999 -0.1055127 0.9888044 -0.1055126 0.1996482 0.6780358
-12 6.549998 9.500001 -0.1055127 0.9888044 0.1055129 0.4125915 0.6779847
-0.2466045 7.209209 0.8743687 -0.2545649 -0.898794 -0.3568839 0.04200001 0.772
-1.328495 8.657167 1.11715 -0.9635351 0.2292992 -0.1379201 0.004894602 0.7566305
-0.7175555 8.842698 0.2141173 -0.5423951 0.3571913 -0.7604091 0.02663042 0.7348947
-1.139759 8.209254 2.110573 -0.8334332 -0.07946136 0.5468776 0.004894631 0.7873697
-0.2619061 7.761339 2.612452 -0.2283013 -0.3882233 0.8928388 0.02663054 0.8091054
0.7908296 7.575806 2.328794 0.4973826 -0.5161174 0.6973044 0.05736961 0.8091054
1.401769 7.761337 1.425761 0.9185228 -0.388225 0.0748156 0.0791054 0.7873694
1.213033 8.20925 0.4323387 0.7884209 -0.07946414 -0.609982 0.0791054 0.7566304
0.3351801 8.657165 -0.06954066 0.1832889 0.2292971 -0.9559435 0.05736955 0.7348946
-0.4335524 9.054324 0.6122737 -0.03797873 0.9978589 -0.05324639 0.1039084 0.7818266
-0.8978667 8.913321 1.298578 -0.2477769 0.9341473 0.256857 0.1045272 0.762336
-0.7544271 8.572906 2.05358 -0.1829641 0.7803328 0.5980007 0.1188048 0.7485734
-0.08725872 8.232491 2.435008 0.1184928 0.6265177 0.7703473 0.1383735 0.748876
0.7128202 8.091486 2.219428 0.4800038 0.5628063 0.672938 0.1519351 0.7623213
1.177135 8.232489 1.533123 0.6898023 0.6265169 0.3628353 0.1510067 0.7815027
1.033695 8.572904 0.778122 0.6249898 0.7803315 0.02169168 0.1371234 0.7954145
0.3665267 8.913319 0.3966936 0.3235331 0.9341463 -0.1506554 0.1175205 0.7957811
-7.897626 7.565941 2.775004 -0.3918161 -0.4145679 0.8213487 0.08309449 0.9135553
-7.217966 7.337125 1.239809 0.1539583 -0.8915749 -0.4259003 0.1132727 0.8894086
-6.525779 8.189643 2.00031 0.9123102 0.04243355 0.4072955 0.1333669 0.9131734
-8.117324 8.189643 1.278353 -0.9077277 0.04303686 -0.4173467 0.01057412 0.8745452
-7.528776 8.914517 1.924987 -0.2024413 0.9116895 0.3575469 0.03195953 0.8905314
-6.903136 8.714191 0.5826636 0.3523834 0.4472329 -0.8220758 0.01057412 0.9178856
3.218173 9.06285 -2.986123 0.02593057 0.8677106 0.4963931 0.04594936 0.4793687
5.524921 9.007352 -4.716569 0.4958535 0.8564056 0.1438712 0.1132526 0.4792045
4.163011 9.174973 -6.537421 0.07996323 0.9075922 -0.4121678 0.1153758 0.5326315
1.856263 9.230471 -4.806975 -0.3899606 0.9188977 -0.05964754 0.04807252 0.5327955
1.470628 8.880275 -4.550776 -0.8786615 0.424237 0.2190367 0.0328869 0.5355023
1.432266 8.23714 -4.581288 -0.9239955 -0.3357838 0.1829797 0.01643022 0.5357859
2.794177 8.069518 -2.760436 -0.4686967 -0.3918211 0.7917068 0.01549838 0.4776893
2.832539 8.712653 -2.729924 -0.4233628 0.368199 0.8277642 0.03195503 0.4774054
3.411801 8.677423 -2.71565 0.3175009 0.2873236 0.9036804 0.04370036 0.4672485
3.373439 8.034288 -2.746162 0.2760905 -0.4069147 0.8707436 0.04342159 0.4512663
5.680187 7.978792 -4.476608 0.746015 -0.4182194 0.5182222 0.1149811 0.4499327
5.718549 8.621927 -4.446096 0.7874247 0.2760192 0.5511585 0.1152599 0.465915
5.867733 8.639631 -5.006827 0.9239954 0.3357841 -0.1829797 0.1284382 0.4764978
5.829371 7.996496 -5.037339 0.8786615 -0.4242365 -0.2190372 0.1448949 0.4762141
4.467461 8.164117 -6.858191 0.4233627 -0.3681994 -0.827764 0.1458268 0.5343109
4.505823 8.807252 -6.827679 0.4686968 0.3918214 -0.7917066 0.1293701 0.5345947
3.926561 8.842481 -6.841955 -0.27609 0.4069136 -0.8707443 0.1176248 0.5447516
3.888199 8.199347 -6.872466 -0.3175007 -0.2873244 -0.9036803 0.1179037 0.5607338
1.581451 8.254844 -5.14202 -0.7874248 -0.2760184 -0.5511588 0.04634384 0.5620682
1.619813 8.897978 -5.111508 -0.7460148 0.4182192 -0.5182227 0.04606504 0.5460859
4.081826 7.81392 -6.601992 -0.02593073 -0.8677107 -0.4963927 0.1146512 0.6181673
5.443737 7.646299 -4.78114 0.3899609 -0.9188976 0.05964702 0.1140672 0.6728497
3.136989 7.701797 -3.050694 -0.07996354 -0.9075922 0.4121678 0.04534866 0.6738328
1.775079 7.869418 -4.871547 -0.4958543 -0.856405 -0.1438716 0.04593267 0.6191503
7.845636 7.565941 5.172911 0.788123 -0.4145677 -0.4549681 0.08309449 0.9135553
6.415966 7.337124 6.053142 -0.368114 -0.8915749 0.2637922 0.1132727 0.8894086
6.276269 8.189642 5.034334 -0.5211641 0.04243362 -0.852401 0.1333669 0.9131734
7.178983 8.189642 6.530779 0.5116947 0.04303682 0.8580889 0.01057412 0.8745452
7.060202 8.914516 5.664513 0.3693535 0.9116896 -0.1800002 0.03195953 0.8905314
5.784295 8.71419 6.416391 -0.7560373 0.4472327 0.4779023 0.01057412 0.9178856
-2.878647 7.20921 -3.475418 0.4236309 -0.8987941 -0.1127213 0.04200001 0.772
-2.72525 8.657168 -4.573553 0.4681132 0.2292993 -0.8534002 0.004894602 0.7566305
-2.094912 8.842699 -3.683952 0.9026254 0.3571914 -0.2401702 0.02663042 0.7348947
-3.721558 8.209255 -4.746412 -0.2186735 -0.07946134 -0.9725574 0.004894631 0.7873697
-4.500213 7.76134 -4.101271 -0.7554246 -0.3882231 -0.5278414 0.02663054 0.8091054
-4.605088 7.575807 -3.016045 -0.8277186 -0.516117 0.220239 0.05736961 0.8091054
-3.97475 7.761337 -2.126445 -0.3932064 -0.3882251 0.8334686 0.0791054 0.7873694
-2.978442 8.20925 -1.953586 0.2935802 -0.07946444 0.9526259 0.0791054 0.7566304
-2.199788 8.657165 -2.598726 0.8303313 0.229297 0.5079103 0.05736955 0.7348946
-2.567534 9.054325 -3.558196 0.06320384 0.997859 -0.01681532 0.1039084 0.7818266
-3.046591 8.913321 -4.234293 -0.1532553 0.9341474 -0.3223065 0.1045272 0.762336
-3.803786 8.572907 -4.365665 -0.4953901 0.7803329 -0.3816665 0.1188048 0.7485734
-4.395563 8.232491 -3.875359 -0.7627815 0.626518 -0.1601238 0.1383735 0.748876
-4.475268 8.091487 -3.050587 -0.7987947 0.562807 0.2125447 0.1519351 0.7623213
-3.996211 8.232489 -2.37449 -0.5823365 0.6265166 0.5180358 0.1510067 0.7815027
-3.239017 8.572904 -2.243118 -0.240202 0.7803314 0.5773959 0.1371234 0.7954145
-2.64724 8.913319 -2.733425 0.02718987 0.9341462 0.3558534 0.1175205 0.7957811
-8.145072 9.149556 6.1002 0.003807716 0.9984556 0.05542599 0.04594936 0.4793687
-9.483447 8.44231 3.645172 -0.2688411 0.8543779 -0.4447054 0.1132526 0.4792045
-11.2261 7.587599 4.84142 -0.8010021 0.5933723 -0.07940381 0.1153758 0.5326315
-9.887729 8.294845 7.296448 -0.5283533 0.7374492 0.4207274 0.04807252 0.5327955
-9.515217 8.084655 7.688933 -0.07106674 0.4044164 0.9118097 0.0328869 0.5355023
-9.226419 7.507987 7.697618 0.2702184 -0.2770566 0.9220747 0.01643022 0.5357859
-7.483762 8.362699 6.50137 0.8528043 0.008682194 0.5221585 0.01549838 0.4776893
-7.772559 8.939365 6.492684 0.5115198 0.6901541 0.5118932 0.03195503 0.4774054
-7.708724 8.96265 5.916166 0.6608729 0.7170059 -0.221697 0.04370036 0.4672485
-7.419928 8.385983 5.924854 0.9726185 0.09451611 -0.2123203 0.04342159 0.4512663
-8.758303 7.678737 3.469825 0.6999678 -0.04956085 -0.7124527 0.1149811 0.4499327
-9.047101 8.255404 3.461139 0.3882227 0.5729278 -0.7218289 0.1152599 0.465915
-9.533581 8.00878 3.262383 -0.2702182 0.2770568 -0.9220747 0.1284382 0.4764978
-9.244782 7.432112 3.27107 0.07106636 -0.4044165 -0.9118097 0.1448949 0.4762141
-10.98744 6.5774 4.467319 -0.5115199 -0.6901545 -0.5118928 0.1458268 0.5343109
-11.27624 7.154068 4.458632 -0.8528044 -0.008681088 -0.5221584 0.1293701 0.5345947
-11.34007 7.130784 5.03515 -0.9726186 -0.09451584 0.2123199 0.1176248 0.5447516
-11.05127 6.554116 5.043836 -0.6608732 -0.7170056 0.2216975 0.1179037 0.5607338
-9.712898 7.261361 7.498864 -0.3882223 -0.572928 0.7218289 0.04634384 0.5620682
-10.0017 7.838029 7.490178 -0.6999683 0.04956113 0.7124522 0.04606504 0.5460859
-10.61493 6.367209 4.859803 -0.003808887 -0.9984556 -0.05542488 0.1146512 0.6181673
-8.87227 7.221921 3.663555 0.5283528 -0.7374492 -0.420728 0.1140672 0.6728497
-7.533895 7.929167 6.118584 0.8010031 -0.5933709 0.0794042 0.04534866 0.6738328
-9.276552 7.074456 7.314831 0.2688422 -0.8543773 0.4447058 0.04593267 0.6191503
10.27055 6.945941 2.414413 -0.2217404 -0.4145679 0.8825898 0.08309449 0.9135553
10.63335 6.717124 0.7751651 0.06673905 -0.8915748 -0.4479289 0.1132727 0.8894086
11.4622 7.569643 1.383847 0.9748163 0.04243366 0.2189351 0.1333669 0.9131734
9.759357 7.569643 0.9907142 -0.972311 0.04303714 -0.2296937 0.01057412 0.8745452
10.46411 8.294518 1.50826 -0.127775 0.9116896 0.390507 0.03195953 0.8905314
10.81208 8.094192 0.06875601 0.182942 0.447233 -0.8755084 0.01057412 0.9178856
12 5.049998 9.500001 0 1 1.505801e-07 0.4130903 0.6463713
12 5.050001 -9.499999 0 1 1.505801e-07 0.2441375 0.6463713
-12 5.050001 -9.499999 0 1 1.505801e-07 0.2441062 0.4335061
-12 5.049998 9.500001 0 1 1.505801e-07 0.4131048 0.4334656
-12.5 1.629207e-06 -10 -0.5773503 -0.5773501 -0.5773504 0.8107018 0.7224427
12.5 1.629207e-06 -10 0.5773503 -0.5773502 -0.5773504 0.8107018 1
12.5 -1.629207e-06 10 0.5773503 -0.5773504 0.5773502 0.5886558 1
-12.5 -1.629207e-06 10 -0.5773503 -0.5773504 0.5773502 0.5886558 0.7224427
-12.5 10 -9.999998 -0.5773504 0.5773501 -0.5773503 0.5551583 0
12.5 10 -9.999998 0.5773502 0.5773506 -0.5773501 0.5551835 0.2777241
12.5 9.999998 10 0.5773504 0.57735 0.5773505 0.5551727 0.499894
-12.5 9.999998 10 -0.5773502 0.5773504 0.5773503 0.5551901 0.7776132
12 0.6999986 9.5 -0.5773503 0.5773504 -0.5773501 0.8400105 0.2957676
12 0.7000017 -9.5 -0.5773503 0.5773501 0.5773504 0.6712567 0.2957675
-12 0.7000017 -9.5 0.5773503 0.5773501 0.5773504 0.6712568 0.08260077
-12 0.6999986 9.5 0.5773503 0.5773504 -0.5773502 0.8400106 0.08260193
-12 10 -9.499998 0.3015113 0.904534 0.3015114 0.5607083 0.005545795
12 10 -9.499998 -0.3015114 0.904534 0.3015115 0.5607315 0.2721685
-12 9.999998 9.500002 0.3015115 0.904534 -0.3015113 0.5607378 0.7831668
12 9.999998 9.500002 -0.3015114 0.9045341 -0.3015112 0.5607218 0.5054484
12.5 9.823224 -9.926775 0.5773504 -0.8164965 -3.067098e-07 0.1384961 0.3946231
12.5 23.96536 4.215362 0.5773501 -1.31447e-07 0.8164967 0.4156607 0.339014
-12.5 23.96536 4.215362 -0.5773504 2.84802e-07 0.8164966 0.3601146 0.005550444
-12.5 9.823224 -9.926775 -0.5773503 -0.8164967 1.533549e-07 0.1384235 0.005550951
12 10.17678 -9.573221 -0.3015114 -0.4264015 0.8528029 0.1440485 0.4001786
12 23.6118 3.861808 -0.3015114 -0.8528029 0.4264014 0.4212095 0.3334529
-12 10.17678 -9.573221 0.3015114 -0.4264013 0.8528029 0.1439704 0
-12 23.6118 3.861808 0.3015111 -0.8528029 0.4264016 0.3545699 0
12 10.17678 -9.573221 -0.3015114 -0.4264015 0.8528029 0.7951586 0.6998969
12 23.6118 3.861808 -0.3015114 -0.8528029 0.4264014 0.6264036 0.6998969
12 23.6118 3.861808 -0.3015114 -0.8528029 0.4264014 0.5886558 0.6621493
-12 23.6118 3.861808 0.3015111 -0.8528029 0.4264016 0.5886559 0.4489851
-12 23.6118 3.861808 0.3015111 -0.8528029 0.4264016 0.6264044 0.4112366
-12 10.17678 -9.573221 0.3015114 -0.4264013 0.8528029 0.7951586 0.4112374
-12 10.17678 -9.573221 0.3015114 -0.4264013 0.8528029 0.8329063 0.4489852
12 10.17678 -9.573221 -0.3015114 -0.4264015 0.8528029 0.8329063 0.6621493
-0.7175555 8.842698 0.2141173 -0.5423951 0.3571913 -0.7604091 0.09135128 0.7875534
-1.328495 8.657167 1.11715 -0.9635351 0.2292992 -0.1379201 0.09135128 0.7573382
-1.139759 8.209254 2.110573 -0.8334332 -0.07946136 0.5468776 0.1128873 0.7355722
-0.2619061 7.761339 2.612452 -0.2283013 -0.3882233 0.8928388 0.1439608 0.7354676
0.7908296 7.575806 2.328794 0.4973826 -0.5161174 0.6973044 0.1646487 0.7573645
1.401769 7.761337 1.425761 0.9185228 -0.388225 0.0748156 0.1641817 0.7873865
1.213033 8.20925 0.4323387 0.7884209 -0.07946414 -0.609982 0.1419436 0.8085324
0.3351801 8.657165 -0.06954066 0.1832889 0.2292971 -0.9559435 0.1123883 0.8081715
-8.117324 8.189643 1.278353 -0.9077277 0.04303686 -0.4173467 0.09557275 0.8664447
-7.897626 7.565941 2.775004 -0.3918161 -0.4145679 0.8213487 0.0547437 0.8605195
-6.525779 8.189643 2.00031 0.9123102 0.04243355 0.4072955 0.05453207 0.9088092
-6.903136 8.714191 0.5826636 0.3523834 0.4472329 -0.8220758 0.1409055 0.8664447
1.581451 8.254844 -5.14202 -0.7874248 -0.2760184 -0.5511588 0.0434856 0.6064065
3.888199 8.199347 -6.872466 -0.3175007 -0.2873244 -0.9036803 0.1165587 0.6049465
4.467461 8.164117 -6.858191 0.4233627 -0.3681994 -0.827764 0.1292632 0.6156417
5.829371 7.996496 -5.037339 0.8786615 -0.4242365 -0.2190372 0.1292631 0.6750153
5.680187 7.978792 -4.476608 0.746015 -0.4182194 0.5182222 0.1165143 0.6855934
3.373439 8.034288 -2.746162 0.2760905 -0.4069147 0.8707436 0.04344119 0.6870535
2.794177 8.069518 -2.760436 -0.4686967 -0.3918211 0.7917068 0.03073676 0.6763583
1.432266 8.23714 -4.581288 -0.9239955 -0.3357838 0.1829797 0.03073676 0.6169846
4.467461 8.164117 -6.858191 0.4233627 -0.3681994 -0.827764 0.1406537 0.5476141
3.888199 8.199347 -6.872466 -0.3175007 -0.2873244 -0.9036803 0.1289083 0.5577709
1.581451 8.254844 -5.14202 -0.7874248 -0.2760184 -0.5511588 0.03427219 0.560724
1.432266 8.23714 -4.581288 -0.9239955 -0.3357838 0.1829797 0.02109422 0.5501403
5.680187 7.978792 -4.476608 0.746015 -0.4182194 0.5182222 0.1270517 0.4512767
5.829371 7.996496 -5.037339 0.8786615 -0.4242365 -0.2190372 0.14023 0.4618596
3.373439 8.034288 -2.746162 0.2760905 -0.4069147 0.8707436 0.03241676 0.4542291
2.794177 8.069518 -2.760436 -0.4686967 -0.3918211 0.7917068 0.02067143 0.464386
7.178983 8.189642 6.530779 0.5116947 0.04303682 0.8580889 0.09557275 0.8664447
7.845636 7.565941 5.172911 0.788123 -0.4145677 -0.4549681 0.0547437 0.8605195
6.276269 8.189642 5.034334 -0.5211641 0.04243362 -0.852401 0.05453207 0.9088092
5.784295 8.71419 6.416391 -0.7560373 0.4472327 0.4779023 0.1409055 0.8664447
-2.094912 8.842699 -3.683952 0.9026254 0.3571914 -0.2401702 0.09135128 0.7875534
-2.72525 8.657168 -4.573553 0.4681132 0.2292993 -0.8534002 0.09135128 0.7573382
-3.721558 8.209255 -4.746412 -0.2186735 -0.07946134 -0.9725574 0.1128873 0.7355722
-4.500213 7.76134 -4.101271 -0.7554246 -0.3882231 -0.5278414 0.1439608 0.7354676
-4.605088 7.575807 -3.016045 -0.8277186 -0.516117 0.220239 0.1646487 0.7573645
-3.97475 7.761337 -2.126445 -0.3932064 -0.3882251 0.8334686 0.1641817 0.7873865
-2.978442 8.20925 -1.953586 0.2935802 -0.07946444 0.9526259 0.1419436 0.8085324
-2.199788 8.657165 -2.598726 0.8303313 0.229297 0.5079103 0.1123883 0.8081715
-9.712898 7.261361 7.498864 -0.3882223 -0.572928 0.7218289 0.0434856 0.6064065
-11.05127 6.554116 5.043836 -0.6608732 -0.7170056 0.2216975 0.1165587 0.6049465
-10.98744 6.5774 4.467319 -0.5115199 -0.6901545 -0.5118928 0.1292632 0.6156417
-9.244782 7.432112 3.27107 0.07106636 -0.4044165 -0.9118097 0.1292631 0.6750153
-8.758303 7.678737 3.469825 0.6999678 -0.04956085 -0.7124527 0.1165143 0.6855934
-7.419928 8.385983 5.924854 0.9726185 0.09451611 -0.2123203 0.04344119 0.6870535
-7.483762 8.362699 6.50137 0.8528043 0.008682194 0.5221585 0.03073676 0.6763583
-9.226419 7.507987 7.697618 0.2702184 -0.2770566 0.9220747 0.03073676 0.6169846
-10.98744 6.5774 4.467319 -0.5115199 -0.6901545 -0.5118928 0.1406537 0.5476141
-11.05127 6.554116 5.043836 -0.6608732 -0.7170056 0.2216975 0.1289083 0.5577709
-9.712898 7.261361 7.498864 -0.3882223 -0.572928 0.7218289 0.03427219 0.560724
-9.226419 7.507987 7.697618 0.2702184 -0.2770566 0.9220747 0.02109422 0.5501403
-8.758303 7.678737 3.469825 0.6999678 -0.04956085 -0.7124527 0.1270517 0.4512767
-9.244782 7.432112 3.27107 0.07106636 -0.4044165 -0.9118097 0.14023 0.4618596
-7.419928 8.385983 5.924854 0.9726185 0.09451611 -0.2123203 0.03241676 0.4542291
-7.483762 8.362699 6.50137 0.8528043 0.008682194 0.5221585 0.02067143 0.464386
9.759357 7.569643 0.9907142 -0.972311 0.04303714 -0.2296937 0.09557275 0.8664447
10.27055 6.945941 2.414413 -0.2217404 -0.4145679 0.8825898 0.0547437 0.8605195
11.4622 7.569643 1.383847 0.9748163 0.04243366 0.2189351 0.05453207 0.9088092
10.81208 8.094192 0.06875601 0.182942 0.447233 -0.8755084 0.1409055 0.8664447
-12.5 1.629207e-06 -10 -0.5773503 -0.5773501 -0.5773504 0.4441673 8.380413e-05
12.5 1.629207e-06 -10 0.5773503 -0.5773502 -0.5773504 0.444211 0.2777354
12.5 -1.629207e-06 10 0.5773503 -0.5773504 0.5773502 0.4441984 0.4998938
-12.5 -1.629207e-06 10 -0.5773503 -0.5773504 0.5773502 0.4442125 0.7775823
-12.5 10 -9.999998 -0.5773504 0.5773501 -0.5773503 0.5551468 0.9996849
-12.5 1.629207e-06 -10 -0.5773503 -0.5773501 -0.5773504 0.4441673 0.9996222
-12 10 -9.499998 0.3015113 0.904534 0.3015114 0.5606974 0.9941394
-12 9.999998 9.500002 0.3015115 0.904534 -0.3015113 0.5607386 0.7720587
12 10 -9.499998 -0.3015114 0.904534 0.3015115 0.560732 0.2832789
12 9.999998 9.500002 -0.3015114 0.9045341 -0.3015112 0.5607213 0.4943397
12 9.999998 9.500002 -0.3015114 0.9045341 -0.3015112 0.8400099 0.3783687
12 10 -9.499998 -0.3015114 0.904534 0.3015115 0.6712561 0.3783687
12 10 -9.499998 -0.3015114 0.904534 0.3015115 0.5886558 0.2957667
-12 10 -9.499998 0.3015113 0.904534 0.3015114 0.5886562 0.0826014
-12 10 -9.499998 0.3015113 0.904534 0.3015114 0.6712571 0
-12 9.999998 9.500002 0.3015115 0.904534 -0.3015113 0.8400111 1.072884e-06
-12 9.999998 9.500002 0.3015115 0.904534 -0.3015113 0.9226113 0.08260179
12 9.999998 9.500002 -0.3015114 0.9045341 -0.3015112 0.9226111 0.2957671
3 0 1 2 -1 
3 0 2 3 -1 
3 4 0 3 -1 
3 4 3 5 -1 
3 144 3 2 -1 
3 144 2 6 -1 
3 145 2 1 -1 
3 145 1 7 -1 
3 146 1 0 -1 
3 146 0 147 -1 
3 8 9 10 -1 
3 8 10 11 -1 
3 4 5 12 -1 
3 4 12 13 -1 
3 144 6 14 -1 
3 144 14 148 -1 
3 145 7 15 -1 
3 145 15 149 -1 
3 146 147 150 -1 
3 146 150 151 -1 
3 152 153 9 -1 
3 152 9 8 -1 
3 154 155 10 -1 
3 154 10 9 -1 
3 156 157 11 -1 
3 156 11 10 -1 
3 158 159 8 -1 
3 158 8 11 -1 
3 16 17 18 -1 
3 16 18 19 -1 
3 20 21 17 -1 
3 20 17 16 -1 
3 21 22 18 -1 
3 21 18 17 -1 
3 22 23 19 -1 
3 22 19 18 -1 
3 23 20 16 -1 
3 23 16 19 -1 
3 24 25 26 -1 
3 24 27 25 -1 
3 24 28 27 -1 
3 24 29 28 -1 
3 24 30 29 -1 
3 24 31 30 -1 
3 24 32 31 -1 
3 24 26 32 -1 
3 33 160 161 -1 
3 33 161 34 -1 
3 34 161 162 -1 
3 34 162 35 -1 
3 35 162 163 -1 
3 35 163 36 -1 
3 36 163 164 -1 
3 36 164 37 -1 
3 37 164 165 -1 
3 37 165 38 -1 
3 38 165 166 -1 
3 38 166 39 -1 
3 39 166 167 -1 
3 39 167 40 -1 
3 40 167 160 -1 
3 40 160 33 -1 
3 35 36 38 -1 
3 35 38 39 -1 
3 36 37 38 -1 
3 33 34 40 -1 
3 34 35 39 -1 
3 34 39 40 -1 
3 41 42 43 -1 
3 44 45 46 -1 
3 42 41 168 -1 
3 169 45 44 -1 
3 170 45 169 -1 
3 42 171 43 -1 
3 42 168 171 -1 
3 170 46 45 -1 
3 47 48 49 -1 
3 47 49 50 -1 
3 51 52 53 -1 
3 51 53 54 -1 
3 55 56 57 -1 
3 55 57 58 -1 
3 59 60 61 -1 
3 59 61 62 -1 
3 63 64 65 -1 
3 63 65 66 -1 
3 67 68 69 -1 
3 67 69 70 -1 
3 67 70 172 -1 
3 67 172 173 -1 
3 68 67 174 -1 
3 68 174 175 -1 
3 176 177 69 -1 
3 176 69 68 -1 
3 70 69 178 -1 
3 70 178 179 -1 
3 50 49 63 -1 
3 50 63 66 -1 
3 62 180 181 -1 
3 62 181 63 -1 
3 66 182 183 -1 
3 66 183 51 -1 
3 49 48 59 -1 
3 49 59 62 -1 
3 58 184 185 -1 
3 58 185 59 -1 
3 55 58 48 -1 
3 55 48 47 -1 
3 186 55 54 -1 
3 186 54 187 -1 
3 47 50 51 -1 
3 47 51 54 -1 
3 179 172 70 -1 
3 173 174 67 -1 
3 175 176 68 -1 
3 69 177 178 -1 
3 51 50 66 -1 
3 49 62 63 -1 
3 48 58 59 -1 
3 47 54 55 -1 
3 71 72 73 -1 
3 74 75 76 -1 
3 72 71 188 -1 
3 189 75 74 -1 
3 190 75 189 -1 
3 72 191 73 -1 
3 72 188 191 -1 
3 190 76 75 -1 
3 77 78 79 -1 
3 77 80 78 -1 
3 77 81 80 -1 
3 77 82 81 -1 
3 77 83 82 -1 
3 77 84 83 -1 
3 77 85 84 -1 
3 77 79 85 -1 
3 86 192 193 -1 
3 86 193 87 -1 
3 87 193 194 -1 
3 87 194 88 -1 
3 88 194 195 -1 
3 88 195 89 -1 
3 89 195 196 -1 
3 89 196 90 -1 
3 90 196 197 -1 
3 90 197 91 -1 
3 91 197 198 -1 
3 91 198 92 -1 
3 92 198 199 -1 
3 92 199 93 -1 
3 93 199 192 -1 
3 93 192 86 -1 
3 88 89 91 -1 
3 88 91 92 -1 
3 89 90 91 -1 
3 86 87 93 -1 
3 87 88 92 -1 
3 87 92 93 -1 
3 94 95 96 -1 
3 94 96 97 -1 
3 98 99 100 -1 
3 98 100 101 -1 
3 102 103 104 -1 
3 102 104 105 -1 
3 106 107 108 -1 
3 106 108 109 -1 
3 110 111 112 -1 
3 110 112 113 -1 
3 114 115 116 -1 
3 114 116 117 -1 
3 114 117 200 -1 
3 114 200 201 -1 
3 115 114 202 -1 
3 115 202 203 -1 
3 204 205 116 -1 
3 204 116 115 -1 
3 117 116 206 -1 
3 117 206 207 -1 
3 97 96 110 -1 
3 97 110 113 -1 
3 109 208 209 -1 
3 109 209 110 -1 
3 113 210 211 -1 
3 113 211 98 -1 
3 96 95 106 -1 
3 96 106 109 -1 
3 105 212 213 -1 
3 105 213 106 -1 
3 102 105 95 -1 
3 102 95 94 -1 
3 214 102 101 -1 
3 214 101 215 -1 
3 94 97 98 -1 
3 94 98 101 -1 
3 207 200 117 -1 
3 201 202 114 -1 
3 203 204 115 -1 
3 116 205 206 -1 
3 98 97 113 -1 
3 96 109 110 -1 
3 95 105 106 -1 
3 94 101 102 -1 
3 118 119 120 -1 
3 121 122 123 -1 
3 119 118 216 -1 
3 217 122 121 -1 
3 218 122 217 -1 
3 119 219 120 -1 
3 119 216 219 -1 
3 218 123 122 -1 
3 124 125 126 -1 
3 124 126 127 -1 
3 128 129 130 -1 
3 128 130 131 -1 
3 220 132 133 -1 
3 220 133 221 -1 
3 221 133 134 -1 
3 221 134 222 -1 
3 222 134 135 -1 
3 222 135 223 -1 
3 223 135 224 -1 
3 223 224 225 -1 
3 136 137 138 -1 
3 136 138 139 -1 
3 133 132 140 -1 
3 133 140 141 -1 
3 224 135 142 -1 
3 224 142 226 -1 
3 135 134 143 -1 
3 135 143 227 -1 
3 134 133 228 -1 
3 134 228 229 -1 
3 230 231 137 -1 
3 230 137 136 -1 
3 232 233 138 -1 
3 232 138 137 -1 
3 234 235 139 -1 
3 234 139 138 -1 
3 236 237 136 -1 
3 236 136 139 -1 
