ply
format ascii 1.0
comment VCGLIB generated
comment TextureFile chest_A_d.tga
element vertex 220
property float x
property float y
property float z
property float nx
property float ny
property float nz
property float texture_u
property float texture_v
element face 188
property list uchar int vertex_indices
end_header
-47.5 33.2 -32.5 0 1 1.173753e-07 0.926428 0.6886106
-47.5 33.19999 32.5 0 1 1.173753e-07 0.7314614 0.6886159
47.5 33.19999 32.5 0 1 1.173753e-07 0.7314614 0.4146707
47.5 33.2 -32.5 0 1 1.173753e-07 0.9264582 0.4146383
-31.1493 40.1 -15.09299 -0.09349038 0.9919106 -0.08586594 0.6959013 0.2287954
-31.1493 40.09999 15.09301 -0.09349024 0.9919106 0.08586621 0.6134124 0.229297
31.1493 40.09999 15.09301 0.09349032 0.9919106 0.08586617 0.6129336 0.05819297
31.1493 40.1 -15.09299 0.09349044 0.9919106 -0.08586589 0.6954327 0.05768678
47.5 36 -32.49999 0.1186562 0.9855741 -0.1206836 0.7528927 0.005139232
-47.5 36 -32.49999 -0.1186562 0.9855741 -0.1206836 0.7528623 0.2818291
47.5 36 32.50001 0.1186561 0.9855741 0.1206838 0.5559618 0.005171835
-47.5 36 32.50001 -0.1186561 0.9855741 0.1206838 0.5559618 0.2818345
-50 5.702223e-06 -35 -0.5773502 -0.5773502 -0.5773504 0.497462 0.7087563
50 5.702223e-06 -35 0.5773503 -0.5773501 -0.5773504 0.4974626 0.4146385
50 -5.702223e-06 35 0.5773503 -0.5773504 0.5773502 0.7033446 0.4146383
-50 -5.702223e-06 35 -0.5773503 -0.5773504 0.5773502 0.7033446 0.7087553
-50 45 -34.99999 -0.5773504 0.5773503 -0.5773503 0.01341888 1
50 45 -34.99999 0.5773504 0.5773501 -0.5773503 0.01341859 0.7058806
50 45 35.00001 0.5773503 0.5773501 0.5773504 0.01341614 0.4999987
-50 45 35.00001 -0.5773504 0.57735 0.5773505 0.0134185 0.2058814
-47.5 2.500004 -32.5 0.5773503 0.5773501 0.5773504 0.2698627 0.1000004
-47.5 2.499994 32.5 0.5773503 0.5773504 -0.5773502 0.422804 0.1
47.5 2.499994 32.5 -0.5773503 0.5773504 -0.5773501 0.4228041 0.3235295
47.5 2.500004 -32.5 -0.5773503 0.5773502 0.5773504 0.2698629 0.3235296
-47.5 45 -32.49999 0.3015114 0.904534 0.3015115 0.006065786 0.9926472
47.5 45 -32.49999 -0.3015113 0.904534 0.3015114 0.006065547 0.7132336
-47.5 45 32.50001 0.3015114 0.904534 -0.3015113 0.006065547 0.1985285
47.5 45 32.50001 -0.3015114 0.904534 -0.3015113 0.006063491 0.4926458
7.5 44.99999 37.50001 0.5773503 0.5773498 0.5773507 0.3010928 0.9451301
7.5 44.99999 34.50001 0.7071065 0.7071071 8.991343e-07 0.301093 0.9615662
-7.5 44.99999 34.50001 -0.7071065 0.7071071 8.991342e-07 0.2189082 0.9615688
-7.5 44.99999 37.50001 -0.5773503 0.5773498 0.5773507 0.2189071 0.9451328
7.5 35.99999 37.50001 0.6611831 -0.4509195 0.5995904 0.3010866 0.8958213
2.4 33.99999 37.5 0.1383178 -0.7315733 0.6675842 0.2731451 0.8848674
2.4 34 34.50001 0.1857778 -0.9825918 -1.241388e-06 0.2791432 0.8695651
7.5 36 34.50001 0.8261622 -0.5634325 -7.164424e-07 0.3070854 0.8805191
-2.500005 33.99999 37.5 -0.1409103 -0.7316883 0.6669158 0.2462991 0.884868
-2.500005 34 34.50001 -0.1891077 -0.9819564 -1.248624e-06 0.2462988 0.8684328
-7.5 35.99999 37.50001 -0.6624273 -0.4484855 0.6000424 0.2189066 0.8958243
-7.5 36 34.50001 -0.8280674 -0.5606285 -7.128774e-07 0.2128029 0.8805633
-23.7025 41.56251 -35.175 0.7071068 -0.7071068 0 0.6794947 0.3388612
-36.2975 41.56251 -35.175 -0.7071068 -0.7071068 0 0.7485063 0.3388579
-36.2975 41.56251 -36.21999 -0.5773503 -0.5773503 -0.5773503 0.7485063 0.3445829
-23.7025 41.56251 -36.21999 0.5773503 -0.5773503 -0.5773503 0.6794947 0.3445861
-36.2975 45.00001 -35.175 -0.7071068 0.7071068 0 0.7542309 0.3634138
-36.2975 45.00001 -36.21999 -0.5773503 0.5773503 -0.5773503 0.748506 0.3634132
-23.7025 45.00001 -36.21999 0.5773503 0.5773503 -0.5773503 0.6794941 0.3634171
-23.7025 45.00001 -35.175 0.7071068 0.7071068 0 0.6737691 0.3634168
-24.60712 44.06309 -35.76057 0.5773503 -0.5773503 0.5773503 0.9297327 0.809812
-24.60712 44.06309 -37.63441 0.5773503 -0.5773503 -0.5773503 0.9297327 0.7995456
-24.60712 45.93692 -37.63441 0.5773503 0.5773503 -0.5773503 0.9399993 0.799546
-24.60712 45.93692 -35.76057 0.5773503 0.5773503 0.5773504 0.9399993 0.809812
-35.39288 45.93692 -35.76057 -0.5773503 0.5773503 0.5773503 0.9400001 0.730188
-35.39288 45.93692 -37.63441 -0.5773503 0.5773503 -0.5773503 0.9400007 0.7404545
-35.39288 44.06309 -37.63441 -0.5773503 -0.5773503 -0.5773503 0.9297346 0.7404546
-35.39288 44.06309 -35.76057 -0.5773503 -0.5773503 0.5773504 0.929734 0.7301886
24.60712 44.06309 -35.76057 -0.5773503 -0.5773503 0.5773503 0.9297327 0.809812
24.60712 45.93692 -35.76057 -0.5773503 0.5773503 0.5773504 0.9399993 0.809812
24.60712 45.93692 -37.63441 -0.5773503 0.5773503 -0.5773503 0.9399993 0.799546
24.60712 44.06309 -37.63441 -0.5773503 -0.5773503 -0.5773503 0.9297327 0.7995456
35.39288 45.93692 -35.76057 0.5773503 0.5773503 0.5773503 0.9400001 0.730188
35.39288 44.06309 -35.76057 0.5773503 -0.5773503 0.5773504 0.929734 0.7301886
35.39288 44.06309 -37.63441 0.5773503 -0.5773503 -0.5773503 0.9297346 0.7404546
35.39288 45.93692 -37.63441 0.5773503 0.5773503 -0.5773503 0.9400007 0.7404545
-50 99.23508 10.46403 -0.6788748 0.5825229 0.4469857 0.4638806 0.7982944
50 99.23508 10.46403 0.6788746 0.582523 0.4469858 0.170011 0.7982793
50 108.2938 -5.226035 0.6532267 0.7313627 0.1959683 0.1699563 0.7449725
-50 108.2938 -5.226035 -0.6532267 0.7313626 0.1959683 0.4638976 0.7449616
50 108.2938 -23.34337 0.6532269 0.7313626 -0.1959679 0.1699145 0.691659
-50 108.2938 -23.34337 -0.6532268 0.7313626 -0.195968 0.4638932 0.6916333
50 99.23509 -39.03344 0.6532267 0.5353947 -0.5353945 0.1698857 0.6383435
-50 99.23509 -39.03344 -0.6532267 0.5353947 -0.5353945 0.4638748 0.6383093
50 83.54502 -48.09211 0.6532267 0.1959681 -0.7313627 0.169867 0.585023
-50 83.54502 -48.09211 -0.6532268 0.1959681 -0.7313627 0.4638442 0.5849896
50 65.42769 -48.09211 0.6532267 -0.195968 -0.7313627 0.1698627 0.5316981
-50 65.42769 -48.09211 -0.6532267 -0.195968 -0.7313627 0.463801 0.5316744
50 49.73762 -39.03345 0.6788746 -0.4469856 -0.5825231 0.1698801 0.4783682
-50 49.73762 -39.03345 -0.6788747 -0.4469856 -0.582523 0.4637423 0.4783646
47.47852 97.25178 8.942183 -0.6694142 -0.5863488 -0.4561576 0.917958 0.2274387
47.47852 51.25947 -37.05014 -0.6694147 0.4561565 0.5863491 0.917958 0.3804829
47.5 47.96985 -33.73015 -0.302388 -0.4270304 0.8521776 0.9069611 0.3804326
47.5 93.93178 12.23179 -0.3023887 -0.8521772 0.4270305 0.9069611 0.2274891
-47.5 47.96985 -33.73015 0.3023883 -0.4270307 0.8521773 0.7231442 0.9998564
-47.47852 51.25947 -37.05014 0.6694146 0.4561566 0.5863492 0.7230937 0.9888593
-47.47852 97.25178 8.942183 0.6694145 -0.5863487 -0.4561574 0.8659407 0.2274387
-47.5 93.93178 12.23179 0.3023888 -0.8521773 0.4270304 0.8769379 0.2274892
-48.41506 66.22015 -45.13458 0.6686558 0.2014306 0.7157689 0.7252975 0.9488466
48.41506 66.22015 -45.13458 -0.6686559 0.2014305 0.7157689 0.4974624 0.9488473
-48.41506 82.75256 -45.13458 0.6532267 -0.1959681 0.7313627 0.7252975 0.9099464
48.41506 82.75256 -45.13458 -0.6532267 -0.1959681 0.7313627 0.497462 0.9099481
-48.41506 97.07003 -36.86838 0.6532268 -0.5353948 0.5353945 0.7252976 0.8710468
48.41506 97.07003 -36.86838 -0.6532267 -0.5353947 0.5353945 0.4974624 0.871048
-48.41506 105.3362 -22.55091 0.6532267 -0.7313628 0.1959678 0.7252975 0.8321469
48.41506 105.3362 -22.55091 -0.6532268 -0.7313628 0.1959679 0.4974621 0.8321484
-48.41506 105.3362 -6.018501 0.6686558 -0.7157689 -0.2014306 0.7252976 0.793247
48.41506 105.3362 -6.018501 -0.6686559 -0.7157689 -0.2014306 0.497462 0.7932485
-50 95.69955 13.99956 -0.5773506 6.134198e-07 0.8164964 0.4638713 0.8130126
50 95.69955 13.99956 0.5773507 4.251494e-07 0.8164963 0.1700289 0.8129915
-50 46.20208 -35.49791 -0.5773503 -0.8164966 7.599282e-07 0.7622257 0.9481341
50 46.20208 -35.49791 0.5773505 -0.8164964 -3.279331e-07 0.1698898 0.4636509
-23.7025 48.50902 -38.05234 0.7071066 0.5000002 -0.5000002 0.5614961 0.3701414
-23.7025 47.77009 -38.79127 0.5773503 -2.190784e-08 -0.8164966 0.561496 0.3644166
-36.2975 47.77009 -38.79127 -0.5773503 4.381568e-08 -0.8164966 0.630504 0.3644158
-36.2975 48.50902 -38.05234 -0.7071066 0.5000001 -0.5000001 0.6305043 0.3701406
-36.2975 46.07834 -35.62166 -0.7071065 -0.5000016 0.499999 0.636229 0.3455836
-36.2975 45.33941 -36.36059 -0.5773504 -0.8164965 -1.051575e-06 0.6305041 0.3455836
-23.7025 45.33941 -36.36059 0.5773504 -0.8164965 -1.118668e-06 0.561496 0.345584
-23.7025 46.07834 -35.62166 0.7071064 -0.5000016 0.499999 0.5557709 0.3455843
7.5 95.34599 13.64602 0.7071067 -0.5000001 0.5000001 0.4201323 0.9510909
7.5 97.46731 15.76733 0.5773503 -2.355092e-07 0.8164966 0.4036959 0.9510909
-7.5 97.46731 15.76733 -0.5773503 -1.752627e-07 0.8164966 0.4036972 0.8689094
-7.5 95.34599 13.64602 -0.7071066 -0.5000001 0.5000001 0.4201332 0.8689098
7.5 98.88153 10.11048 0.7071069 0.4999999 -0.4999999 0.3763023 0.9675263
7.5 101.0028 12.2318 0.5773503 0.8164966 2.190785e-07 0.3763027 0.9510903
-7.5 101.0028 12.2318 -0.5773503 0.8164966 2.738481e-07 0.3763034 0.8689092
-7.5 98.88153 10.11048 -0.7071069 0.4999999 -0.4999999 0.3763034 0.8524733
23.7025 48.50902 -38.05234 -0.7071066 0.5000002 -0.5000002 0.5614961 0.3701414
36.2975 48.50902 -38.05234 0.7071066 0.5000001 -0.5000001 0.6305043 0.3701406
36.2975 47.77009 -38.79127 0.5773503 4.381568e-08 -0.8164966 0.630504 0.3644158
23.7025 47.77009 -38.79127 -0.5773503 -1.643088e-08 -0.8164966 0.561496 0.3644166
36.2975 46.07834 -35.62166 0.7071065 -0.5000016 0.499999 0.636229 0.3455836
36.2975 45.33941 -36.36059 0.5773504 -0.8164965 -1.051575e-06 0.6305041 0.3455836
23.7025 45.33941 -36.36059 -0.5773504 -0.8164964 -1.139206e-06 0.561496 0.345584
23.7025 46.07834 -35.62166 -0.7071064 -0.5000016 0.499999 0.5557709 0.3455843
50 5.702223e-06 -35 0.5773503 -0.5773501 -0.5773504 0.1457715 0.7058804
-50 5.702223e-06 -35 -0.5773502 -0.5773502 -0.5773504 0.1457717 0.9999993
50 -5.702223e-06 35 0.5773503 -0.5773504 0.5773502 0.1457692 0.499999
-50 -5.702223e-06 35 -0.5773503 -0.5773504 0.5773502 0.1457715 0.2058817
-50 45 -34.99999 -0.5773504 0.5773503 -0.5773503 0.01341894 2.086163e-07
-50 5.702223e-06 -35 -0.5773502 -0.5773502 -0.5773504 0.1457717 0
-47.5 45 -32.49999 0.3015114 0.904534 0.3015115 0.006065995 0.007353216
-47.5 45 32.50001 0.3015114 0.904534 -0.3015113 0.006065518 0.2132342
47.5 45 -32.49999 -0.3015113 0.904534 0.3015114 0.006065637 0.6985276
47.5 45 32.50001 -0.3015114 0.904534 -0.3015113 0.006063104 0.5073519
-47.5 45 -32.49999 0.3015114 0.904534 0.3015115 0.2698624 4.768372e-07
-47.5 45 32.50001 0.3015114 0.904534 -0.3015113 0.4228035 0
-47.5 45 32.50001 0.3015114 0.904534 -0.3015113 0.522804 0.09999993
47.5 45 32.50001 -0.3015114 0.904534 -0.3015113 0.522804 0.3235293
47.5 45 32.50001 -0.3015114 0.904534 -0.3015113 0.4228041 0.4235295
47.5 45 -32.49999 -0.3015113 0.904534 0.3015114 0.2698629 0.4235295
47.5 45 -32.49999 -0.3015113 0.904534 0.3015114 0.169863 0.3235298
-47.5 45 -32.49999 0.3015114 0.904534 0.3015115 0.1698627 0.1000006
2.4 34 34.50001 0.1857778 -0.9825918 -1.241388e-06 0.2731448 0.8684313
-2.500005 34 34.50001 -0.1891077 -0.9819564 -1.248624e-06 0.240196 0.8696072
7.5 36 34.50001 0.8261622 -0.5634325 -7.164424e-07 0.3175227 0.8958191
7.5 44.99999 34.50001 0.7071065 0.7071071 8.991343e-07 0.3175294 0.945127
-7.5 44.99999 34.50001 -0.7071065 0.7071071 8.991342e-07 0.2024707 0.9451322
-7.5 36 34.50001 -0.8280674 -0.5606285 -7.128774e-07 0.2024707 0.8958243
-36.2975 41.56251 -35.175 -0.7071068 -0.7071068 0 0.7542309 0.3445827
-23.7025 41.56251 -35.175 0.7071068 -0.7071068 0 0.6737697 0.3445854
-23.7025 45.00001 -35.175 0.7071068 0.7071068 0 0.6794946 0.3691421
-36.2975 45.00001 -35.175 -0.7071068 0.7071068 0 0.7485073 0.369139
-24.60712 44.06309 -35.76057 0.5773503 -0.5773503 0.5773503 0.9194666 0.7995456
-35.39288 44.06309 -35.76057 -0.5773503 -0.5773503 0.5773504 0.919468 0.7404545
-24.60712 45.93692 -35.76057 0.5773503 0.5773503 0.5773504 0.9502654 0.7995464
-35.39288 45.93692 -35.76057 -0.5773503 0.5773503 0.5773503 0.9502673 0.7404546
-35.39288 44.06309 -35.76057 -0.5773503 -0.5773503 0.5773504 0.9605334 0.7404549
-24.60712 44.06309 -35.76057 0.5773503 -0.5773503 0.5773503 0.9605318 0.7995465
35.39288 44.06309 -35.76057 0.5773503 -0.5773503 0.5773504 0.919468 0.7404545
24.60712 44.06309 -35.76057 -0.5773503 -0.5773503 0.5773503 0.9194666 0.7995456
24.60712 45.93692 -35.76057 -0.5773503 0.5773503 0.5773504 0.9502654 0.7995464
35.39288 45.93692 -35.76057 0.5773503 0.5773503 0.5773503 0.9502673 0.7404546
24.60712 44.06309 -35.76057 -0.5773503 -0.5773503 0.5773503 0.9605318 0.7995465
35.39288 44.06309 -35.76057 0.5773503 -0.5773503 0.5773504 0.9605334 0.7404549
47.5 47.96985 -33.73015 -0.302388 -0.4270304 0.8521776 0.4996157 0.9998564
47.47852 51.25947 -37.05014 -0.6694147 0.4561565 0.5863491 0.4996663 0.9888593
-47.47852 51.25947 -37.05014 0.6694146 0.4561566 0.5863492 0.8659407 0.3804844
-47.5 47.96985 -33.73015 0.3023883 -0.4270307 0.8521773 0.8769379 0.3804338
47.5 93.93178 12.23179 -0.3023887 -0.8521772 0.4270305 0.4996142 0.7422392
-47.5 93.93178 12.23179 0.3023888 -0.8521773 0.4270304 0.7231445 0.7422375
-47.47852 97.25178 8.942183 0.6694145 -0.5863487 -0.4561574 0.723094 0.7532346
47.47852 97.25178 8.942183 -0.6694142 -0.5863488 -0.4561576 0.4996649 0.7532363
-50 49.73762 -39.03345 -0.6788747 -0.4469856 -0.582523 0.7769315 0.9481307
-50 95.69955 13.99956 -0.5773506 6.134198e-07 0.8164964 0.7622136 0.7422375
-50 99.23508 10.46403 -0.6788748 0.5825229 0.4469857 0.7769184 0.7422375
-50 46.20208 -35.49791 -0.5773503 -0.8164966 7.599282e-07 0.4637225 0.4636515
50 99.23508 10.46403 0.6788746 0.582523 0.4469858 0.8003204 0.2110382
50 95.69955 13.99956 0.5773507 4.251494e-07 0.8164963 0.7856143 0.211042
50 46.20208 -35.49791 0.5773505 -0.8164964 -3.279331e-07 0.78562 0.005139232
50 49.73762 -39.03345 0.6788746 -0.4469856 -0.5825231 0.8003238 0.005139232
-47.5 93.93178 12.23179 0.3023888 -0.8521773 0.4270304 0.4565225 0.8203707
47.5 93.93178 12.23179 -0.3023887 -0.8521772 0.4270305 0.1773791 0.8203466
47.5 93.93178 12.23179 -0.3023887 -0.8521772 0.4270305 0.7782614 0.2036905
47.5 47.96985 -33.73015 -0.302388 -0.4270304 0.8521776 0.7782681 0.01249292
47.5 47.96985 -33.73015 -0.302388 -0.4270304 0.8521776 0.1772365 0.456299
-47.5 47.96985 -33.73015 0.3023883 -0.4270307 0.8521773 0.4563736 0.456299
-47.5 47.96985 -33.73015 0.3023883 -0.4270307 0.8521773 0.7548725 0.9407818
-47.5 93.93178 12.23179 0.3023888 -0.8521773 0.4270304 0.7548614 0.7495907
-36.2975 48.50902 -38.05234 -0.7071066 0.5000001 -0.5000001 0.636229 0.3644156
-23.7025 48.50902 -38.05234 0.7071066 0.5000002 -0.5000002 0.5557709 0.3644166
-23.7025 46.07834 -35.62166 0.7071064 -0.5000016 0.499999 0.5614955 0.3398592
-36.2975 46.07834 -35.62166 -0.7071065 -0.5000016 0.499999 0.6305038 0.3398586
7.5 95.34599 13.64602 0.7071067 -0.5000001 0.5000001 0.4036957 0.9675267
-7.5 95.34599 13.64602 -0.7071066 -0.5000001 0.5000001 0.4036968 0.8524733
7.5 98.88153 10.11048 0.7071069 0.4999999 -0.4999999 0.3598667 0.9510902
-7.5 98.88153 10.11048 -0.7071069 0.4999999 -0.4999999 0.3598673 0.8689091
-50 108.2938 -23.34337 -0.6532268 0.7313626 -0.195968 0.8660671 0.7937019
-50 99.23509 -39.03344 -0.6532267 0.5353947 -0.5353945 0.879862 0.8451709
-50 83.54502 -48.09211 -0.6532268 0.1959681 -0.7313627 0.8660753 0.8966439
-50 108.2938 -5.226035 -0.6532267 0.7313626 0.1959683 0.8283873 0.756026
-50 65.42769 -48.09211 -0.6532267 -0.195968 -0.7313627 0.8284 0.9343294
50 83.54502 -48.09211 0.6532267 0.1959681 -0.7313627 0.8894651 0.05659902
50 99.23509 -39.03344 0.6532267 0.5353947 -0.5353945 0.9032581 0.1080698
50 108.2938 -23.34337 0.6532269 0.7313626 -0.1959679 0.8894693 0.1595438
50 65.42769 -48.09211 0.6532267 -0.195968 -0.7313627 0.851788 0.0189271
50 108.2938 -5.226035 0.6532267 0.7313627 0.1959683 0.8517924 0.1972295
-48.41506 82.75256 -45.13458 0.6532267 -0.1959681 0.7313627 0.8000295 0.3415349
-48.41506 97.07003 -36.86838 0.6532268 -0.5353948 0.5353945 0.7899613 0.3039608
-48.41506 105.3362 -22.55091 0.6532267 -0.7313628 0.1959678 0.8000293 0.2663864
-48.41506 66.22015 -45.13458 0.6686558 0.2014306 0.7157689 0.827536 0.3690385
-48.41506 105.3362 -6.018501 0.6686558 -0.7157689 -0.2014306 0.8275354 0.2388797
48.41506 105.3362 -22.55091 -0.6532268 -0.7313628 0.1959679 0.983869 0.266386
48.41506 97.07003 -36.86838 -0.6532267 -0.5353947 0.5353945 0.9939369 0.3039603
48.41506 82.75256 -45.13458 -0.6532267 -0.1959681 0.7313627 0.9838691 0.3415347
48.41506 105.3362 -6.018501 -0.6686559 -0.7157689 -0.2014306 0.9563631 0.2388796
48.41506 66.22015 -45.13458 -0.6686559 0.2014305 0.7157689 0.9563631 0.3690416
36.2975 48.50902 -38.05234 0.7071066 0.5000001 -0.5000001 0.636229 0.3644156
23.7025 48.50902 -38.05234 -0.7071066 0.5000002 -0.5000002 0.5557709 0.3644166
36.2975 46.07834 -35.62166 0.7071065 -0.5000016 0.499999 0.6305038 0.3398586
23.7025 46.07834 -35.62166 -0.7071064 -0.5000016 0.499999 0.5614955 0.3398592
3 0 1 2 
3 0 2 3 
3 4 5 6 
3 4 6 7 
3 8 9 4 
3 8 4 7 
3 8 7 6 
3 8 6 10 
3 11 10 6 
3 11 6 5 
3 11 5 4 
3 11 4 9 
3 12 13 14 
3 12 14 15 
3 16 17 124 
3 16 124 125 
3 17 18 126 
3 17 126 124 
3 18 19 127 
3 18 127 126 
3 19 128 129 
3 19 129 127 
3 20 21 22 
3 20 22 23 
3 17 16 24 
3 17 24 25 
3 128 19 26 
3 128 26 130 
3 19 18 27 
3 19 27 131 
3 18 17 132 
3 18 132 133 
3 134 135 21 
3 134 21 20 
3 136 137 22 
3 136 22 21 
3 138 139 23 
3 138 23 22 
3 140 141 20 
3 140 20 23 
3 28 29 30 
3 28 30 31 
3 32 33 34 
3 32 34 35 
3 33 36 37 
3 33 37 142 
3 36 38 39 
3 36 39 143 
3 32 144 145 
3 32 145 28 
3 31 146 147 
3 31 147 38 
3 40 41 42 
3 40 42 43 
3 148 44 45 
3 148 45 42 
3 42 45 46 
3 42 46 43 
3 43 46 47 
3 43 47 149 
3 150 46 45 
3 150 45 151 
3 48 49 50 
3 48 50 51 
3 52 53 54 
3 52 54 55 
3 49 152 153 
3 49 153 54 
3 50 49 54 
3 50 54 53 
3 154 50 53 
3 154 53 155 
3 154 155 156 
3 154 156 157 
3 31 38 36 
3 28 33 32 
3 28 31 36 
3 28 36 33 
3 56 57 58 
3 56 58 59 
3 60 61 62 
3 60 62 63 
3 59 62 158 
3 59 158 159 
3 58 63 62 
3 58 62 59 
3 160 161 63 
3 160 63 58 
3 160 162 163 
3 160 163 161 
3 64 65 66 
3 64 66 67 
3 67 66 68 
3 67 68 69 
3 69 68 70 
3 69 70 71 
3 71 70 72 
3 71 72 73 
3 73 72 74 
3 73 74 75 
3 75 74 76 
3 75 76 77 
3 78 79 80 
3 78 80 81 
3 82 164 165 
3 82 165 83 
3 166 84 85 
3 166 85 167 
3 168 169 170 
3 168 170 171 
3 86 83 165 
3 86 165 87 
3 88 86 87 
3 88 87 89 
3 90 88 89 
3 90 89 91 
3 92 90 91 
3 92 91 93 
3 94 92 93 
3 94 93 95 
3 94 95 171 
3 94 171 170 
3 64 96 97 
3 64 97 65 
3 172 98 173 
3 172 173 174 
3 76 99 175 
3 76 175 77 
3 176 177 178 
3 176 178 179 
3 96 180 181 
3 96 181 97 
3 177 182 183 
3 177 183 178 
3 99 184 185 
3 99 185 175 
3 98 186 187 
3 98 187 173 
3 100 101 102 
3 100 102 103 
3 104 188 102 
3 104 102 105 
3 105 102 101 
3 105 101 106 
3 106 101 189 
3 106 189 107 
3 106 190 191 
3 106 191 105 
3 108 109 110 
3 108 110 111 
3 109 192 112 
3 109 112 113 
3 110 114 115 
3 110 115 193 
3 109 113 114 
3 109 114 110 
3 194 195 114 
3 194 114 113 
3 196 197 198 
3 172 174 199 
3 172 199 200 
3 199 196 198 
3 199 198 200 
3 201 202 203 
3 179 204 205 
3 179 205 176 
3 204 201 203 
3 204 203 205 
3 206 207 208 
3 166 209 210 
3 166 210 84 
3 209 206 208 
3 209 208 210 
3 211 212 213 
3 79 78 214 
3 79 214 215 
3 214 211 213 
3 214 213 215 
3 116 117 118 
3 116 118 119 
3 120 121 118 
3 120 118 216 
3 121 122 119 
3 121 119 118 
3 122 123 217 
3 122 217 119 
3 122 121 218 
3 122 218 219 
