ply
format ascii 1.0
comment VCGLIB generated
comment TextureFile chest_A_d.tga
element vertex 220
property float x
property float y
property float z
property float nx
property float ny
property float nz
property float texture_u
property float texture_v
element face 188
property list uchar int vertex_indices
end_header
-47.5 33.2 -32.5 0 1 0 0.926428 0.6886106
-47.5 33.2 32.5 0 1 0 0.7314614 0.6886159
47.5 33.2 32.5 0 1 0 0.7314614 0.4146707
47.5 33.2 -32.5 0 1 0 0.9264582 0.4146383
-31.1493 40.1 -15.093 -0.09349034 0.9919106 -0.08586606 0.6959013 0.2287954
-31.1493 40.1 15.093 -0.09349034 0.9919106 0.08586606 0.6134124 0.229297
31.1493 40.1 15.093 0.09349034 0.9919106 0.08586606 0.6129336 0.05819297
31.1493 40.1 -15.093 0.09349034 0.9919106 -0.08586606 0.6954327 0.05768678
47.5 36 -32.5 0.1186561 0.9855741 -0.1206837 0.7528927 0.005139232
-47.5 36 -32.5 -0.1186561 0.9855741 -0.1206837 0.7528623 0.2818291
47.5 36 32.5 0.1186561 0.9855741 0.1206837 0.5559618 0.005171835
-47.5 36 32.5 -0.1186561 0.9855741 0.1206837 0.5559618 0.2818345
-50 50 35 -0.6788746 0.09583945 0.7279726 0.4638806 0.7982944
50 50 35 0.6788744 0.09583941 0.7279727 0.170011 0.7982793
50 67.5 30.31089 0.6532267 0.3785812 0.6557219 0.1699563 0.7449725
-50 67.5 30.31089 -0.6532267 0.3785812 0.6557219 0.4638976 0.7449616
50 80.31089 17.5 0.6532268 0.6557218 0.3785812 0.1699145 0.691659
-50 80.31089 17.5 -0.6532268 0.6557218 0.3785811 0.4638932 0.6916333
50 85 0 0.6532267 0.7571624 1.487221e-08 0.1698857 0.6383435
-50 85 0 -0.6532267 0.7571624 0 0.4638748 0.6383093
50 80.31089 -17.5 0.6532267 0.6557218 -0.3785812 0.169867 0.585023
-50 80.31089 -17.5 -0.6532267 0.6557219 -0.3785812 0.4638442 0.5849896
50 67.5 -30.31089 0.6532267 0.3785811 -0.6557219 0.1698627 0.5316981
-50 67.5 -30.31089 -0.6532267 0.3785811 -0.6557219 0.463801 0.5316744
50 50 -35 0.6788746 0.09583941 -0.7279727 0.1698801 0.4783682
-50 50 -35 -0.6788744 0.09583937 -0.7279728 0.4637423 0.4783646
47.47852 49.67369 32.52148 -0.6694143 -0.09205958 -0.7371631 0.917958 0.2274387
47.47852 49.67369 -32.52148 -0.6694145 -0.09205964 0.7371629 0.917958 0.3804829
47.5 45 -32.5 -0.3023885 -0.9045365 0.3006244 0.9069611 0.3804326
47.5 45 32.5 -0.3023886 -0.9045365 -0.3006242 0.9069611 0.2274891
-47.5 45 -32.5 0.3023886 -0.9045365 0.3006242 0.7231442 0.9998564
-47.47852 49.67369 -32.52148 0.6694144 -0.09205958 0.7371631 0.7230937 0.9888593
-47.47852 49.67369 32.52148 0.6694146 -0.09205957 -0.7371629 0.8659407 0.2274387
-47.5 45 32.5 0.3023885 -0.9045365 -0.3006243 0.8769379 0.2274892
-48.41506 65.96906 -27.65924 0.6686559 -0.3636921 0.6485579 0.7252975 0.9488466
48.41506 65.96906 -27.65924 -0.6686559 -0.3636921 0.6485578 0.4974624 0.9488473
-48.41506 77.65924 -15.96907 0.6532268 -0.6557218 0.3785813 0.7252975 0.9099464
48.41506 77.65924 -15.96907 -0.6532268 -0.6557218 0.3785813 0.497462 0.9099481
-48.41506 81.93814 0 0.6532267 -0.7571623 0 0.7252976 0.8710468
48.41506 81.93814 0 -0.6532267 -0.7571623 0 0.4974624 0.871048
-48.41506 77.65924 15.96907 0.6532268 -0.6557218 -0.3785813 0.7252975 0.8321469
48.41506 77.65924 15.96907 -0.6532268 -0.6557218 -0.3785813 0.4974621 0.8321484
-48.41506 65.96906 27.65924 0.6686558 -0.3636921 -0.648558 0.7252976 0.793247
48.41506 65.96906 27.65924 -0.6686559 -0.3636921 -0.648558 0.497462 0.7932485
-50 45 35 -0.5773504 -0.57735 0.5773504 0.4638713 0.8130126
50 45 35 0.5773506 -0.5773504 0.57735 0.1700289 0.8129915
-50 45 -35 -0.5773505 -0.5773504 -0.5773499 0.7622257 0.9481341
50 45 -35 0.5773504 -0.57735 -0.5773504 0.1698898 0.4636509
-23.7025 48.4375 -35.175 0.7071068 0.7071068 0 0.5614961 0.3701414
-23.7025 48.4375 -36.22 0.5773503 0.5773503 -0.5773503 0.561496 0.3644166
-36.2975 48.4375 -36.22 -0.5773503 0.5773503 -0.5773503 0.630504 0.3644158
-36.2975 48.4375 -35.175 -0.7071068 0.7071068 0 0.6305043 0.3701406
-36.2975 45 -35.175 -1 0 0 0.636229 0.3455836
-36.2975 45 -36.22 -0.7071068 0 -0.7071068 0.6305041 0.3455836
-23.7025 45 -36.22 0.7071068 0 -0.7071068 0.561496 0.345584
-23.7025 45 -35.175 1 -7.11478e-09 0 0.5557709 0.3455843
7.5 45 34.5 0.7071068 -0.7071068 0 0.4201323 0.9510909
7.5 45 37.5 0.5773503 -0.5773503 0.5773503 0.4036959 0.9510909
-7.5 45 37.5 -0.5773503 -0.5773503 0.5773503 0.4036972 0.8689094
-7.5 45 34.5 -0.7071068 -0.7071068 0 0.4201332 0.8689098
7.5 50 34.5 0.7071068 0.7071068 0 0.3763023 0.9675263
7.5 50 37.5 0.5773503 0.5773503 0.5773503 0.3763027 0.9510903
-7.5 50 37.5 -0.5773503 0.5773503 0.5773503 0.3763034 0.8689092
-7.5 50 34.5 -0.7071068 0.7071068 0 0.3763034 0.8524733
23.7025 48.4375 -35.175 -0.7071068 0.7071068 0 0.5614961 0.3701414
36.2975 48.4375 -35.175 0.7071068 0.7071068 0 0.6305043 0.3701406
36.2975 48.4375 -36.22 0.5773503 0.5773503 -0.5773503 0.630504 0.3644158
23.7025 48.4375 -36.22 -0.5773503 0.5773503 -0.5773503 0.561496 0.3644166
36.2975 45 -35.175 0.7071068 -0.7071068 0 0.636229 0.3455836
36.2975 45 -36.22 0.5773503 -0.5773503 -0.5773503 0.6305041 0.3455836
23.7025 45 -36.22 -0.5773503 -0.5773503 -0.5773503 0.561496 0.345584
23.7025 45 -35.175 -0.7071068 -0.7071068 0 0.5557709 0.3455843
-50 0 -35 -0.5773503 -0.5773503 -0.5773503 0.497462 0.7087563
50 0 -35 0.5773503 -0.5773503 -0.5773503 0.4974626 0.4146385
50 0 35 0.5773503 -0.5773503 0.5773503 0.7033446 0.4146383
-50 0 35 -0.5773503 -0.5773503 0.5773503 0.7033446 0.7087553
-50 45 -35 -0.5773503 0.5773502 -0.5773503 0.01341888 1
50 45 -35 0.5773504 0.57735 -0.5773504 0.01341859 0.7058806
50 45 35 0.5773503 0.5773502 0.5773503 0.01341614 0.4999987
-50 45 35 -0.5773504 0.57735 0.5773504 0.0134185 0.2058814
-47.5 2.499999 -32.5 0.5773503 0.5773503 0.5773503 0.2698627 0.1000004
-47.5 2.499999 32.5 0.5773503 0.5773503 -0.5773503 0.422804 0.1
47.5 2.499999 32.5 -0.5773503 0.5773503 -0.5773503 0.4228041 0.3235295
47.5 2.499999 -32.5 -0.5773503 0.5773503 0.5773503 0.2698629 0.3235296
-47.5 45 -32.5 0.3015114 0.904534 0.3015114 0.006065786 0.9926472
47.5 45 -32.5 -0.3015114 0.904534 0.3015113 0.006065547 0.7132336
-47.5 45 32.5 0.3015114 0.904534 -0.3015113 0.006065547 0.1985285
47.5 45 32.5 -0.3015114 0.904534 -0.3015114 0.006063491 0.4926458
7.5 45 37.5 0.5773503 0.5773503 0.5773503 0.3010928 0.9451301
7.5 45 34.5 0.7071068 0.7071068 0 0.301093 0.9615662
-7.5 45 34.5 -0.7071068 0.7071068 0 0.2189082 0.9615688
-7.5 45 37.5 -0.5773503 0.5773503 0.5773503 0.2189071 0.9451328
7.5 36 37.5 0.6611833 -0.4509191 0.5995904 0.3010866 0.8958213
2.4 34 37.5 0.1383179 -0.7315727 0.6675848 0.2731451 0.8848674
2.4 34 34.5 0.1857778 -0.9825918 0 0.2791432 0.8695651
7.5 36 34.5 0.826162 -0.5634326 0 0.3070854 0.8805191
-2.500005 34 37.5 -0.1409103 -0.7316876 0.6669164 0.2462991 0.884868
-2.500005 34 34.5 -0.1891077 -0.9819564 0 0.2462988 0.8684328
-7.5 36 37.5 -0.6624275 -0.4484851 0.6000424 0.2189066 0.8958243
-7.5 36 34.5 -0.8280674 -0.5606287 0 0.2128029 0.8805633
-23.7025 41.5625 -35.175 0.7071068 -0.7071068 0 0.6794947 0.3388612
-36.2975 41.5625 -35.175 -0.7071068 -0.7071068 0 0.7485063 0.3388579
-36.2975 41.5625 -36.22 -0.5773503 -0.5773503 -0.5773503 0.7485063 0.3445829
-23.7025 41.5625 -36.22 0.5773503 -0.5773503 -0.5773503 0.6794947 0.3445861
-24.60712 44.06308 -35.76058 0.5773503 -0.5773503 0.5773503 0.9297327 0.809812
-24.60712 44.06308 -37.63442 0.5773503 -0.5773503 -0.5773503 0.9297327 0.7995456
-24.60712 45.93692 -37.63442 0.5773503 0.5773503 -0.5773503 0.9399993 0.799546
-24.60712 45.93692 -35.76058 0.5773503 0.5773503 0.5773504 0.9399993 0.809812
-35.39288 45.93692 -35.76058 -0.5773503 0.5773503 0.5773503 0.9400001 0.730188
-35.39288 45.93692 -37.63442 -0.5773503 0.5773503 -0.5773503 0.9400007 0.7404545
-35.39288 44.06308 -37.63442 -0.5773503 -0.5773503 -0.5773503 0.9297346 0.7404546
-35.39288 44.06308 -35.76058 -0.5773503 -0.5773503 0.5773504 0.929734 0.7301886
24.60712 44.06308 -35.76058 -0.5773503 -0.5773503 0.5773503 0.9297327 0.809812
24.60712 45.93692 -35.76058 -0.5773503 0.5773503 0.5773504 0.9399993 0.809812
24.60712 45.93692 -37.63442 -0.5773503 0.5773503 -0.5773503 0.9399993 0.799546
24.60712 44.06308 -37.63442 -0.5773503 -0.5773503 -0.5773503 0.9297327 0.7995456
35.39288 45.93692 -35.76058 0.5773503 0.5773503 0.5773503 0.9400001 0.730188
35.39288 44.06308 -35.76058 0.5773503 -0.5773503 0.5773504 0.929734 0.7301886
35.39288 44.06308 -37.63442 0.5773503 -0.5773503 -0.5773503 0.9297346 0.7404546
35.39288 45.93692 -37.63442 0.5773503 0.5773503 -0.5773503 0.9400007 0.7404545
47.5 45 -32.5 -0.3023885 -0.9045365 0.3006244 0.4996157 0.9998564
47.47852 49.67369 -32.52148 -0.6694145 -0.09205964 0.7371629 0.4996663 0.9888593
-47.47852 49.67369 -32.52148 0.6694144 -0.09205958 0.7371631 0.8659407 0.3804844
-47.5 45 -32.5 0.3023886 -0.9045365 0.3006242 0.8769379 0.3804338
47.5 45 32.5 -0.3023886 -0.9045365 -0.3006242 0.4996142 0.7422392
-47.5 45 32.5 0.3023885 -0.9045365 -0.3006243 0.7231445 0.7422375
-47.47852 49.67369 32.52148 0.6694146 -0.09205957 -0.7371629 0.723094 0.7532346
47.47852 49.67369 32.52148 -0.6694143 -0.09205958 -0.7371631 0.4996649 0.7532363
-50 50 -35 -0.6788744 0.09583937 -0.7279728 0.7769315 0.9481307
-50 45 35 -0.5773504 -0.57735 0.5773504 0.7622136 0.7422375
-50 50 35 -0.6788746 0.09583945 0.7279726 0.7769184 0.7422375
-50 45 -35 -0.5773505 -0.5773504 -0.5773499 0.4637225 0.4636515
50 50 35 0.6788744 0.09583941 0.7279727 0.8003204 0.2110382
50 45 35 0.5773506 -0.5773504 0.57735 0.7856143 0.211042
50 45 -35 0.5773504 -0.57735 -0.5773504 0.78562 0.005139232
50 50 -35 0.6788746 0.09583941 -0.7279727 0.8003238 0.005139232
-47.5 45 32.5 0.3023885 -0.9045365 -0.3006243 0.4565225 0.8203707
47.5 45 32.5 -0.3023886 -0.9045365 -0.3006242 0.1773791 0.8203466
47.5 45 32.5 -0.3023886 -0.9045365 -0.3006242 0.7782614 0.2036905
47.5 45 -32.5 -0.3023885 -0.9045365 0.3006244 0.7782681 0.01249292
47.5 45 -32.5 -0.3023885 -0.9045365 0.3006244 0.1772365 0.456299
-47.5 45 -32.5 0.3023886 -0.9045365 0.3006242 0.4563736 0.456299
-47.5 45 -32.5 0.3023886 -0.9045365 0.3006242 0.7548725 0.9407818
-47.5 45 32.5 0.3023885 -0.9045365 -0.3006243 0.7548614 0.7495907
-36.2975 48.4375 -35.175 -0.7071068 0.7071068 0 0.636229 0.3644156
-23.7025 48.4375 -35.175 0.7071068 0.7071068 0 0.5557709 0.3644166
-23.7025 45 -35.175 1 -7.11478e-09 0 0.5614955 0.3398592
-36.2975 45 -35.175 -1 0 0 0.6305038 0.3398586
7.5 45 34.5 0.7071068 -0.7071068 0 0.4036957 0.9675267
-7.5 45 34.5 -0.7071068 -0.7071068 0 0.4036968 0.8524733
7.5 50 34.5 0.7071068 0.7071068 0 0.3598667 0.9510902
-7.5 50 34.5 -0.7071068 0.7071068 0 0.3598673 0.8689091
-50 80.31089 17.5 -0.6532268 0.6557218 0.3785811 0.8660671 0.7937019
-50 85 0 -0.6532267 0.7571624 0 0.879862 0.8451709
-50 80.31089 -17.5 -0.6532267 0.6557219 -0.3785812 0.8660753 0.8966439
-50 67.5 30.31089 -0.6532267 0.3785812 0.6557219 0.8283873 0.756026
-50 67.5 -30.31089 -0.6532267 0.3785811 -0.6557219 0.8284 0.9343294
50 80.31089 -17.5 0.6532267 0.6557218 -0.3785812 0.8894651 0.05659902
50 85 0 0.6532267 0.7571624 1.487221e-08 0.9032581 0.1080698
50 80.31089 17.5 0.6532268 0.6557218 0.3785812 0.8894693 0.1595438
50 67.5 -30.31089 0.6532267 0.3785811 -0.6557219 0.851788 0.0189271
50 67.5 30.31089 0.6532267 0.3785812 0.6557219 0.8517924 0.1972295
-48.41506 77.65924 -15.96907 0.6532268 -0.6557218 0.3785813 0.8000295 0.3415349
-48.41506 81.93814 0 0.6532267 -0.7571623 0 0.7899613 0.3039608
-48.41506 77.65924 15.96907 0.6532268 -0.6557218 -0.3785813 0.8000293 0.2663864
-48.41506 65.96906 -27.65924 0.6686559 -0.3636921 0.6485579 0.827536 0.3690385
-48.41506 65.96906 27.65924 0.6686558 -0.3636921 -0.648558 0.8275354 0.2388797
48.41506 77.65924 15.96907 -0.6532268 -0.6557218 -0.3785813 0.983869 0.266386
48.41506 81.93814 0 -0.6532267 -0.7571623 0 0.9939369 0.3039603
48.41506 77.65924 -15.96907 -0.6532268 -0.6557218 0.3785813 0.9838691 0.3415347
48.41506 65.96906 27.65924 -0.6686559 -0.3636921 -0.648558 0.9563631 0.2388796
48.41506 65.96906 -27.65924 -0.6686559 -0.3636921 0.6485578 0.9563631 0.3690416
36.2975 48.4375 -35.175 0.7071068 0.7071068 0 0.636229 0.3644156
23.7025 48.4375 -35.175 -0.7071068 0.7071068 0 0.5557709 0.3644166
36.2975 45 -35.175 0.7071068 -0.7071068 0 0.6305038 0.3398586
23.7025 45 -35.175 -0.7071068 -0.7071068 0 0.5614955 0.3398592
50 0 -35 0.5773503 -0.5773503 -0.5773503 0.1457715 0.7058804
-50 0 -35 -0.5773503 -0.5773503 -0.5773503 0.1457717 0.9999993
50 0 35 0.5773503 -0.5773503 0.5773503 0.1457692 0.499999
-50 0 35 -0.5773503 -0.5773503 0.5773503 0.1457715 0.2058817
-50 45 -35 -0.5773503 0.5773502 -0.5773503 0.01341894 2.086163e-07
-50 0 -35 -0.5773503 -0.5773503 -0.5773503 0.1457717 0
-47.5 45 -32.5 0.3015114 0.904534 0.3015114 0.006065995 0.007353216
-47.5 45 32.5 0.3015114 0.904534 -0.3015113 0.006065518 0.2132342
47.5 45 -32.5 -0.3015114 0.904534 0.3015113 0.006065637 0.6985276
47.5 45 32.5 -0.3015114 0.904534 -0.3015114 0.006063104 0.5073519
-47.5 45 -32.5 0.3015114 0.904534 0.3015114 0.2698624 4.768372e-07
-47.5 45 32.5 0.3015114 0.904534 -0.3015113 0.4228035 0
-47.5 45 32.5 0.3015114 0.904534 -0.3015113 0.522804 0.09999993
47.5 45 32.5 -0.3015114 0.904534 -0.3015114 0.522804 0.3235293
47.5 45 32.5 -0.3015114 0.904534 -0.3015114 0.4228041 0.4235295
47.5 45 -32.5 -0.3015114 0.904534 0.3015113 0.2698629 0.4235295
47.5 45 -32.5 -0.3015114 0.904534 0.3015113 0.169863 0.3235298
-47.5 45 -32.5 0.3015114 0.904534 0.3015114 0.1698627 0.1000006
2.4 34 34.5 0.1857778 -0.9825918 0 0.2731448 0.8684313
-2.500005 34 34.5 -0.1891077 -0.9819564 0 0.240196 0.8696072
7.5 36 34.5 0.826162 -0.5634326 0 0.3175227 0.8958191
7.5 45 34.5 0.7071068 0.7071068 0 0.3175294 0.945127
-7.5 45 34.5 -0.7071068 0.7071068 0 0.2024707 0.9451322
-7.5 36 34.5 -0.8280674 -0.5606287 0 0.2024707 0.8958243
-36.2975 41.5625 -35.175 -0.7071068 -0.7071068 0 0.7542309 0.3445827
-36.2975 45 -35.175 -1 0 0 0.7542309 0.3634138
-36.2975 45 -36.22 -0.7071068 0 -0.7071068 0.748506 0.3634132
-23.7025 45 -36.22 0.7071068 0 -0.7071068 0.6794941 0.3634171
-23.7025 45 -35.175 1 -7.11478e-09 0 0.6737691 0.3634168
-23.7025 41.5625 -35.175 0.7071068 -0.7071068 0 0.6737697 0.3445854
-23.7025 45 -35.175 1 -7.11478e-09 0 0.6794946 0.3691421
-36.2975 45 -35.175 -1 0 0 0.7485073 0.369139
-24.60712 44.06308 -35.76058 0.5773503 -0.5773503 0.5773503 0.9194666 0.7995456
-35.39288 44.06308 -35.76058 -0.5773503 -0.5773503 0.5773504 0.919468 0.7404545
-24.60712 45.93692 -35.76058 0.5773503 0.5773503 0.5773504 0.9502654 0.7995464
-35.39288 45.93692 -35.76058 -0.5773503 0.5773503 0.5773503 0.9502673 0.7404546
-35.39288 44.06308 -35.76058 -0.5773503 -0.5773503 0.5773504 0.9605334 0.7404549
-24.60712 44.06308 -35.76058 0.5773503 -0.5773503 0.5773503 0.9605318 0.7995465
35.39288 44.06308 -35.76058 0.5773503 -0.5773503 0.5773504 0.919468 0.7404545
24.60712 44.06308 -35.76058 -0.5773503 -0.5773503 0.5773503 0.9194666 0.7995456
24.60712 45.93692 -35.76058 -0.5773503 0.5773503 0.5773504 0.9502654 0.7995464
35.39288 45.93692 -35.76058 0.5773503 0.5773503 0.5773503 0.9502673 0.7404546
24.60712 44.06308 -35.76058 -0.5773503 -0.5773503 0.5773503 0.9605318 0.7995465
35.39288 44.06308 -35.76058 0.5773503 -0.5773503 0.5773504 0.9605334 0.7404549
3 0 1 2 
3 0 2 3 
3 4 5 6 
3 4 6 7 
3 8 9 4 
3 8 4 7 
3 8 7 6 
3 8 6 10 
3 11 10 6 
3 11 6 5 
3 11 5 4 
3 11 4 9 
3 12 13 14 
3 12 14 15 
3 15 14 16 
3 15 16 17 
3 17 16 18 
3 17 18 19 
3 19 18 20 
3 19 20 21 
3 21 20 22 
3 21 22 23 
3 23 22 24 
3 23 24 25 
3 26 27 28 
3 26 28 29 
3 30 120 121 
3 30 121 31 
3 122 32 33 
3 122 33 123 
3 124 125 126 
3 124 126 127 
3 34 31 121 
3 34 121 35 
3 36 34 35 
3 36 35 37 
3 38 36 37 
3 38 37 39 
3 40 38 39 
3 40 39 41 
3 42 40 41 
3 42 41 43 
3 42 43 127 
3 42 127 126 
3 12 44 45 
3 12 45 13 
3 128 46 129 
3 128 129 130 
3 24 47 131 
3 24 131 25 
3 132 133 134 
3 132 134 135 
3 44 136 137 
3 44 137 45 
3 133 138 139 
3 133 139 134 
3 47 140 141 
3 47 141 131 
3 46 142 143 
3 46 143 129 
3 48 49 50 
3 48 50 51 
3 52 144 50 
3 52 50 53 
3 53 50 49 
3 53 49 54 
3 54 49 145 
3 54 145 55 
3 54 146 147 
3 54 147 53 
3 56 57 58 
3 56 58 59 
3 57 148 60 
3 57 60 61 
3 58 62 63 
3 58 63 149 
3 57 61 62 
3 57 62 58 
3 150 151 62 
3 150 62 61 
3 152 153 154 
3 128 130 155 
3 128 155 156 
3 155 152 154 
3 155 154 156 
3 157 158 159 
3 135 160 161 
3 135 161 132 
3 160 157 159 
3 160 159 161 
3 162 163 164 
3 122 165 166 
3 122 166 32 
3 165 162 164 
3 165 164 166 
3 167 168 169 
3 27 26 170 
3 27 170 171 
3 170 167 169 
3 170 169 171 
3 64 65 66 
3 64 66 67 
3 68 69 66 
3 68 66 172 
3 69 70 67 
3 69 67 66 
3 70 71 173 
3 70 173 67 
3 70 69 174 
3 70 174 175 
3 72 73 74 
3 72 74 75 
3 76 77 176 
3 76 176 177 
3 77 78 178 
3 77 178 176 
3 78 79 179 
3 78 179 178 
3 79 180 181 
3 79 181 179 
3 80 81 82 
3 80 82 83 
3 77 76 84 
3 77 84 85 
3 180 79 86 
3 180 86 182 
3 79 78 87 
3 79 87 183 
3 78 77 184 
3 78 184 185 
3 186 187 81 
3 186 81 80 
3 188 189 82 
3 188 82 81 
3 190 191 83 
3 190 83 82 
3 192 193 80 
3 192 80 83 
3 88 89 90 
3 88 90 91 
3 92 93 94 
3 92 94 95 
3 93 96 97 
3 93 97 194 
3 96 98 99 
3 96 99 195 
3 92 196 197 
3 92 197 88 
3 91 198 199 
3 91 199 98 
3 100 101 102 
3 100 102 103 
3 200 201 202 
3 200 202 102 
3 102 202 203 
3 102 203 103 
3 103 203 204 
3 103 204 205 
3 206 203 202 
3 206 202 207 
3 104 105 106 
3 104 106 107 
3 108 109 110 
3 108 110 111 
3 105 208 209 
3 105 209 110 
3 106 105 110 
3 106 110 109 
3 210 106 109 
3 210 109 211 
3 210 211 212 
3 210 212 213 
3 91 98 96 
3 88 93 92 
3 88 91 96 
3 88 96 93 
3 112 113 114 
3 112 114 115 
3 116 117 118 
3 116 118 119 
3 115 118 214 
3 115 214 215 
3 114 119 118 
3 114 118 115 
3 216 217 119 
3 216 119 114 
3 216 218 219 
3 216 219 217 
