ply
format ascii 1.0
comment VCGLIB generated
comment TextureFile chest_B_d.tga
element vertex 238
property float x
property float y
property float z
property float nx
property float ny
property float nz
property float texture_u
property float texture_v
element face 240
property list uchar int vertex_indices
property int texnumber
end_header
-12.5 15 -10 -0.5773503 0.5773503 -0.5773503 0.1383861 0.06111842
-12.5 15 10 -0.5773503 0.5773503 0.5773503 0.3601446 0.06109625
12.5 15 10 0.5773503 0.5773503 0.5773503 0.3602061 0.3389807
12.5 15 -10 0.5773503 0.5773503 -0.5773503 0.1384309 0.3390393
-12.5 10 -10 -0.7071068 -4.4272e-07 -0.7071068 0.08293921 0.06107494
12.5 10 -10 0.7071068 4.561358e-07 -0.7071068 0.08296397 0.3390841
12.5 10 10 0.5773502 -0.5773505 0.5773502 0.3601712 0.3945364
-12.5 10 10 -0.5773504 -0.57735 0.5773504 0.4155922 0.06101441
12 14.25 -9.5 -0.5773503 -0.5773503 0.5773503 0.7951586 0.6621491
12 14.25 9.5 -0.5773503 -0.5773503 -0.5773503 0.6264036 0.6621491
-12 14.25 9.5 0.5773503 -0.5773503 -0.5773503 0.6264037 0.4489846
-12 14.25 -9.5 0.5773503 -0.5773503 0.5773503 0.7951586 0.4489852
12 10 -9.5 -0.7071068 -4.791942e-07 0.7071068 0.07741222 0.3335248
-12 10 -9.5 0.7071068 5.366304e-07 0.7071068 0.07738867 0.06663373
12 10 9.5 -0.7071068 4.293043e-07 -0.7071068 0.3546216 0.400095
-12 10 9.5 0.7071068 -4.829674e-07 -0.7071068 0.4211423 0.06656942
7.08 7.6 4.58 0.07898908 0.9937412 0.07898909 0.3569552 0.8908533
7.08 7.6 -4.58 0.07898907 0.9937412 -0.07898907 0.2552138 0.8907609
-7.08 7.6 -4.58 -0.07898907 0.9937412 -0.07898908 0.2552791 0.7334117
-7.08 7.6 4.58 -0.07898907 0.9937412 0.07898907 0.3570581 0.7334806
12 6.55 9.5 0.1055127 0.9888044 0.1055127 0.4125734 0.9462527
12 6.55 -9.5 0.1055127 0.9888044 -0.1055127 0.1996876 0.9462527
-12 6.55 -9.5 -0.1055127 0.9888044 -0.1055127 0.1996482 0.6780358
-12 6.55 9.5 -0.1055127 0.9888044 0.1055127 0.4125915 0.6779847
-0.2466045 7.209209 0.8743675 -0.2545648 -0.8987941 -0.3568838 0.04200001 0.772
-1.328495 8.657167 1.117148 -0.9635352 0.2292992 -0.1379201 0.004894602 0.7566305
-0.7175555 8.842698 0.2141159 -0.5423951 0.3571912 -0.7604091 0.02663042 0.7348947
-1.139759 8.209254 2.110571 -0.8334332 -0.07946146 0.5468776 0.004894631 0.7873697
-0.2619061 7.76134 2.612451 -0.2283012 -0.388223 0.892839 0.02663054 0.8091054
0.7908296 7.575806 2.328793 0.4973827 -0.5161171 0.6973046 0.05736961 0.8091054
1.401769 7.761337 1.42576 0.9185227 -0.388225 0.07481567 0.0791054 0.7873694
1.213033 8.20925 0.4323374 0.7884209 -0.07946412 -0.609982 0.0791054 0.7566304
0.3351801 8.657165 -0.06954207 0.1832889 0.229297 -0.9559435 0.05736955 0.7348946
-0.4335524 9.054324 0.6122722 -0.03797878 0.9978589 -0.05324645 0.1039084 0.7818266
-0.8978667 8.913321 1.298577 -0.2477769 0.9341472 0.256857 0.1045272 0.762336
-0.7544271 8.572906 2.053578 -0.1829641 0.7803329 0.5980006 0.1188048 0.7485734
-0.08725872 8.232491 2.435007 0.118493 0.626518 0.7703472 0.1383735 0.748876
0.7128202 8.091486 2.219426 0.4800037 0.5628065 0.6729378 0.1519351 0.7623213
1.177135 8.232489 1.533122 0.6898023 0.6265169 0.3628353 0.1510067 0.7815027
1.033695 8.572904 0.7781206 0.6249899 0.7803314 0.02169165 0.1371234 0.7954145
0.3665267 8.913319 0.3966922 0.3235331 0.9341463 -0.1506554 0.1175205 0.7957811
-7.897626 7.565942 2.775003 -0.391816 -0.4145676 0.8213488 0.08309449 0.9135553
-7.217966 7.337125 1.239808 0.1539583 -0.891575 -0.4259001 0.1132727 0.8894086
-6.525779 8.189643 2.000309 0.9123102 0.04243352 0.4072953 0.1333669 0.9131734
-8.117324 8.189643 1.278352 -0.9077277 0.04303674 -0.4173467 0.01057412 0.8745452
-7.528776 8.914517 1.924986 -0.2024412 0.9116896 0.3575467 0.03195953 0.8905314
-6.903136 8.714191 0.5826622 0.3523833 0.4472328 -0.8220759 0.01057412 0.9178856
3.218173 9.062849 -2.986125 0.02593059 0.8677109 0.4963925 0.04594936 0.4793687
5.524921 9.007351 -4.716571 0.4958535 0.8564056 0.1438711 0.1132526 0.4792045
4.163011 9.174972 -6.537423 0.07996323 0.9075922 -0.4121678 0.1153758 0.5326315
1.856263 9.23047 -4.806977 -0.3899606 0.9188977 -0.05964754 0.04807252 0.5327955
1.470628 8.880274 -4.550778 -0.8786615 0.4242369 0.2190368 0.0328869 0.5355023
1.432266 8.237139 -4.58129 -0.9239955 -0.3357838 0.1829798 0.01643022 0.5357859
2.794177 8.069518 -2.760438 -0.468697 -0.3918208 0.7917069 0.01549838 0.4776893
2.832539 8.712653 -2.729926 -0.4233628 0.3681996 0.8277639 0.03195503 0.4774054
3.411801 8.677423 -2.715651 0.3175009 0.2873243 0.9036802 0.04370036 0.4672485
3.373439 8.034288 -2.746163 0.2760905 -0.4069142 0.8707439 0.04342159 0.4512663
5.680187 7.978791 -4.476609 0.746015 -0.4182194 0.5182222 0.1149811 0.4499327
5.718549 8.621926 -4.446097 0.7874247 0.2760192 0.5511585 0.1152599 0.465915
5.867733 8.63963 -5.006829 0.9239954 0.3357841 -0.1829797 0.1284382 0.4764978
5.829371 7.996495 -5.037341 0.8786615 -0.4242365 -0.2190372 0.1448949 0.4762141
4.467461 8.164116 -6.858192 0.4233627 -0.3681994 -0.827764 0.1458268 0.5343109
4.505823 8.807251 -6.827681 0.4686968 0.3918214 -0.7917066 0.1293701 0.5345947
3.926561 8.84248 -6.841956 -0.27609 0.4069136 -0.8707443 0.1176248 0.5447516
3.888199 8.199346 -6.872467 -0.3175007 -0.2873244 -0.9036803 0.1179037 0.5607338
1.581451 8.254843 -5.142021 -0.7874248 -0.2760184 -0.5511588 0.04634384 0.5620682
1.619813 8.897977 -5.111509 -0.7460148 0.4182192 -0.5182227 0.04606504 0.5460859
4.081826 7.81392 -6.601994 -0.02593074 -0.8677107 -0.4963927 0.1146512 0.6181673
5.443737 7.646298 -4.781142 0.3899609 -0.9188976 0.05964704 0.1140672 0.6728497
3.136989 7.701797 -3.050696 -0.07996366 -0.907592 0.4121683 0.04534866 0.6738328
1.775079 7.869417 -4.871548 -0.4958543 -0.856405 -0.1438715 0.04593267 0.6191503
7.845636 7.565942 5.172909 0.788123 -0.4145677 -0.4549681 0.08309449 0.9135553
6.415966 7.337125 6.05314 -0.368114 -0.8915749 0.2637922 0.1132727 0.8894086
6.276269 8.189643 5.034333 -0.5211641 0.04243362 -0.852401 0.1333669 0.9131734
7.178983 8.189643 6.530777 0.5116947 0.04303682 0.8580889 0.01057412 0.8745452
7.060202 8.914517 5.664512 0.3693535 0.9116896 -0.1800002 0.03195953 0.8905314
5.784295 8.714191 6.41639 -0.7560373 0.4472327 0.4779023 0.01057412 0.9178856
-2.878647 7.209209 -3.475419 0.4236308 -0.8987941 -0.112721 0.04200001 0.772
-2.72525 8.657167 -4.573554 0.4681132 0.2292993 -0.8534002 0.004894602 0.7566305
-2.094912 8.842698 -3.683953 0.9026254 0.3571912 -0.2401704 0.02663042 0.7348947
-3.721558 8.209254 -4.746413 -0.2186735 -0.07946146 -0.9725574 0.004894631 0.7873697
-4.500213 7.76134 -4.101272 -0.7554247 -0.388223 -0.5278413 0.02663054 0.8091054
-4.605088 7.575806 -3.016047 -0.8277187 -0.5161169 0.220239 0.05736961 0.8091054
-3.97475 7.761337 -2.126446 -0.3932064 -0.3882252 0.8334686 0.0791054 0.7873694
-2.978442 8.20925 -1.953587 0.2935802 -0.07946408 0.9526259 0.0791054 0.7566304
-2.199788 8.657165 -2.598728 0.8303313 0.2292972 0.5079101 0.05736955 0.7348946
-2.567534 9.054324 -3.558197 0.06320423 0.9978589 -0.01681599 0.1039084 0.7818266
-3.046591 8.913321 -4.234294 -0.1532552 0.9341474 -0.3223067 0.1045272 0.762336
-3.803786 8.572906 -4.365667 -0.4953899 0.7803329 -0.3816667 0.1188048 0.7485734
-4.395563 8.232491 -3.87536 -0.7627815 0.626518 -0.1601238 0.1383735 0.748876
-4.475268 8.091486 -3.050588 -0.7987951 0.5628065 0.2125445 0.1519351 0.7623213
-3.996211 8.232489 -2.374492 -0.5823367 0.6265167 0.5180355 0.1510067 0.7815027
-3.239017 8.572904 -2.243119 -0.240202 0.7803316 0.5773956 0.1371234 0.7954145
-2.64724 8.913319 -2.733426 0.02718986 0.9341463 0.3558529 0.1175205 0.7957811
-8.145072 9.149557 6.100199 0.003807716 0.9984556 0.05542599 0.04594936 0.4793687
-9.483447 8.442311 3.64517 -0.2688412 0.8543779 -0.4447055 0.1132526 0.4792045
-11.2261 7.5876 4.841419 -0.8010021 0.5933723 -0.07940409 0.1153758 0.5326315
-9.887729 8.294846 7.296447 -0.5283532 0.7374492 0.4207273 0.04807252 0.5327955
-9.515217 8.084656 7.688931 -0.07106672 0.4044164 0.9118097 0.0328869 0.5355023
-9.226419 7.507988 7.697617 0.2702185 -0.277056 0.9220748 0.01643022 0.5357859
-7.483762 8.3627 6.501369 0.8528044 0.00868218 0.5221584 0.01549838 0.4776893
-7.772559 8.939366 6.492682 0.5115198 0.6901541 0.5118932 0.03195503 0.4774054
-7.708724 8.962651 5.916165 0.6608729 0.7170059 -0.2216971 0.04370036 0.4672485
-7.419928 8.385983 5.924852 0.9726185 0.09451614 -0.2123203 0.04342159 0.4512663
-8.758303 7.678738 3.469824 0.6999679 -0.04956104 -0.7124526 0.1149811 0.4499327
-9.047101 8.255404 3.461137 0.3882228 0.5729276 -0.7218289 0.1152599 0.465915
-9.533581 8.00878 3.262382 -0.2702183 0.2770565 -0.9220747 0.1284382 0.4764978
-9.244782 7.432113 3.271069 0.07106619 -0.4044167 -0.9118096 0.1448949 0.4762141
-10.98744 6.577401 4.467318 -0.5115199 -0.6901544 -0.5118929 0.1458268 0.5343109
-11.27624 7.154068 4.458632 -0.8528044 -0.008681236 -0.5221584 0.1293701 0.5345947
-11.34007 7.130785 5.035149 -0.9726186 -0.09451576 0.21232 0.1176248 0.5447516
-11.05127 6.554117 5.043835 -0.6608731 -0.7170056 0.2216975 0.1179037 0.5607338
-9.712898 7.261363 7.498863 -0.3882223 -0.5729273 0.7218295 0.04634384 0.5620682
-10.0017 7.83803 7.490176 -0.6999683 0.04956159 0.7124521 0.04606504 0.5460859
-10.61493 6.36721 4.859802 -0.003808945 -0.9984556 -0.05542478 0.1146512 0.6181673
-8.87227 7.221921 3.663554 0.5283528 -0.7374493 -0.4207279 0.1140672 0.6728497
-7.533895 7.929168 6.118582 0.801003 -0.593371 0.07940426 0.04534866 0.6738328
-9.276552 7.074457 7.31483 0.268842 -0.8543772 0.4447063 0.04593267 0.6191503
10.27055 6.945941 2.414412 -0.2217404 -0.4145678 0.8825898 0.08309449 0.9135553
10.63335 6.717124 0.7751641 0.06673907 -0.891575 -0.4479286 0.1132727 0.8894086
11.4622 7.569643 1.383845 0.9748163 0.04243359 0.2189351 0.1333669 0.9131734
9.759357 7.569643 0.9907129 -0.972311 0.04303704 -0.2296938 0.01057412 0.8745452
10.46411 8.294518 1.508259 -0.127775 0.9116896 0.3905069 0.03195953 0.8905314
10.81208 8.094192 0.0687547 0.1829419 0.4472329 -0.8755084 0.01057412 0.9178856
12 5.049999 9.5 0 1 0 0.4130903 0.6463713
12 5.049999 -9.5 0 1 0 0.2441375 0.6463713
-12 5.049999 -9.5 0 1 0 0.2441062 0.4335061
-12 5.049999 9.5 0 1 0 0.4131048 0.4334656
-12.5 0 -10 -0.5773503 -0.5773503 -0.5773503 0.8107018 0.7224427
12.5 0 -10 0.5773503 -0.5773503 -0.5773503 0.8107018 1
12.5 0 10 0.5773503 -0.5773503 0.5773503 0.5886558 1
-12.5 0 10 -0.5773503 -0.5773503 0.5773503 0.5886558 0.7224427
12.5 10 10 0.5773504 0.57735 0.5773504 0.5551727 0.499894
-12.5 10 10 -0.5773502 0.5773505 0.5773502 0.5551901 0.7776132
12 0.7000002 9.5 -0.5773503 0.5773503 -0.5773503 0.8400105 0.2957676
12 0.7000002 -9.5 -0.5773503 0.5773503 0.5773503 0.6712567 0.2957675
-12 0.7000002 -9.5 0.5773503 0.5773503 0.5773503 0.6712568 0.08260077
-12 0.7000002 9.5 0.5773503 0.5773503 -0.5773503 0.8400106 0.08260193
12.5 10 -10 0.7071068 4.561358e-07 -0.7071068 0.1384961 0.3946231
12.5 10 10 0.5773502 -0.5773505 0.5773502 0.4156607 0.339014
-12.5 10 10 -0.5773504 -0.57735 0.5773504 0.3601146 0.005550444
-12.5 10 -10 -0.7071068 -4.4272e-07 -0.7071068 0.1384235 0.005550951
12 10 -9.5 -0.7071068 -4.791942e-07 0.7071068 0.1440485 0.4001786
12 10 9.5 -0.7071068 4.293043e-07 -0.7071068 0.4212095 0.3334529
-12 10 -9.5 0.7071068 5.366304e-07 0.7071068 0.1439704 0
-12 10 9.5 0.7071068 -4.829674e-07 -0.7071068 0.3545699 0
12 10 -9.5 -0.7071068 -4.791942e-07 0.7071068 0.7951586 0.6998969
12 10 9.5 -0.7071068 4.293043e-07 -0.7071068 0.6264036 0.6998969
12 10 9.5 -0.7071068 4.293043e-07 -0.7071068 0.5886558 0.6621493
-12 10 9.5 0.7071068 -4.829674e-07 -0.7071068 0.5886559 0.4489851
-12 10 9.5 0.7071068 -4.829674e-07 -0.7071068 0.6264044 0.4112366
-12 10 -9.5 0.7071068 5.366304e-07 0.7071068 0.7951586 0.4112374
-12 10 -9.5 0.7071068 5.366304e-07 0.7071068 0.8329063 0.4489852
12 10 -9.5 -0.7071068 -4.791942e-07 0.7071068 0.8329063 0.6621493
-0.7175555 8.842698 0.2141159 -0.5423951 0.3571912 -0.7604091 0.09135128 0.7875534
-1.328495 8.657167 1.117148 -0.9635352 0.2292992 -0.1379201 0.09135128 0.7573382
-1.139759 8.209254 2.110571 -0.8334332 -0.07946146 0.5468776 0.1128873 0.7355722
-0.2619061 7.76134 2.612451 -0.2283012 -0.388223 0.892839 0.1439608 0.7354676
0.7908296 7.575806 2.328793 0.4973827 -0.5161171 0.6973046 0.1646487 0.7573645
1.401769 7.761337 1.42576 0.9185227 -0.388225 0.07481567 0.1641817 0.7873865
1.213033 8.20925 0.4323374 0.7884209 -0.07946412 -0.609982 0.1419436 0.8085324
0.3351801 8.657165 -0.06954207 0.1832889 0.229297 -0.9559435 0.1123883 0.8081715
-8.117324 8.189643 1.278352 -0.9077277 0.04303674 -0.4173467 0.09557275 0.8664447
-7.897626 7.565942 2.775003 -0.391816 -0.4145676 0.8213488 0.0547437 0.8605195
-6.525779 8.189643 2.000309 0.9123102 0.04243352 0.4072953 0.05453207 0.9088092
-6.903136 8.714191 0.5826622 0.3523833 0.4472328 -0.8220759 0.1409055 0.8664447
1.581451 8.254843 -5.142021 -0.7874248 -0.2760184 -0.5511588 0.0434856 0.6064065
3.888199 8.199346 -6.872467 -0.3175007 -0.2873244 -0.9036803 0.1165587 0.6049465
4.467461 8.164116 -6.858192 0.4233627 -0.3681994 -0.827764 0.1292632 0.6156417
5.829371 7.996495 -5.037341 0.8786615 -0.4242365 -0.2190372 0.1292631 0.6750153
5.680187 7.978791 -4.476609 0.746015 -0.4182194 0.5182222 0.1165143 0.6855934
3.373439 8.034288 -2.746163 0.2760905 -0.4069142 0.8707439 0.04344119 0.6870535
2.794177 8.069518 -2.760438 -0.468697 -0.3918208 0.7917069 0.03073676 0.6763583
1.432266 8.237139 -4.58129 -0.9239955 -0.3357838 0.1829798 0.03073676 0.6169846
4.467461 8.164116 -6.858192 0.4233627 -0.3681994 -0.827764 0.1406537 0.5476141
3.888199 8.199346 -6.872467 -0.3175007 -0.2873244 -0.9036803 0.1289083 0.5577709
1.581451 8.254843 -5.142021 -0.7874248 -0.2760184 -0.5511588 0.03427219 0.560724
1.432266 8.237139 -4.58129 -0.9239955 -0.3357838 0.1829798 0.02109422 0.5501403
5.680187 7.978791 -4.476609 0.746015 -0.4182194 0.5182222 0.1270517 0.4512767
5.829371 7.996495 -5.037341 0.8786615 -0.4242365 -0.2190372 0.14023 0.4618596
3.373439 8.034288 -2.746163 0.2760905 -0.4069142 0.8707439 0.03241676 0.4542291
2.794177 8.069518 -2.760438 -0.468697 -0.3918208 0.7917069 0.02067143 0.464386
7.178983 8.189643 6.530777 0.5116947 0.04303682 0.8580889 0.09557275 0.8664447
7.845636 7.565942 5.172909 0.788123 -0.4145677 -0.4549681 0.0547437 0.8605195
6.276269 8.189643 5.034333 -0.5211641 0.04243362 -0.852401 0.05453207 0.9088092
5.784295 8.714191 6.41639 -0.7560373 0.4472327 0.4779023 0.1409055 0.8664447
-2.094912 8.842698 -3.683953 0.9026254 0.3571912 -0.2401704 0.09135128 0.7875534
-2.72525 8.657167 -4.573554 0.4681132 0.2292993 -0.8534002 0.09135128 0.7573382
-3.721558 8.209254 -4.746413 -0.2186735 -0.07946146 -0.9725574 0.1128873 0.7355722
-4.500213 7.76134 -4.101272 -0.7554247 -0.388223 -0.5278413 0.1439608 0.7354676
-4.605088 7.575806 -3.016047 -0.8277187 -0.5161169 0.220239 0.1646487 0.7573645
-3.97475 7.761337 -2.126446 -0.3932064 -0.3882252 0.8334686 0.1641817 0.7873865
-2.978442 8.20925 -1.953587 0.2935802 -0.07946408 0.9526259 0.1419436 0.8085324
-2.199788 8.657165 -2.598728 0.8303313 0.2292972 0.5079101 0.1123883 0.8081715
-9.712898 7.261363 7.498863 -0.3882223 -0.5729273 0.7218295 0.0434856 0.6064065
-11.05127 6.554117 5.043835 -0.6608731 -0.7170056 0.2216975 0.1165587 0.6049465
-10.98744 6.577401 4.467318 -0.5115199 -0.6901544 -0.5118929 0.1292632 0.6156417
-9.244782 7.432113 3.271069 0.07106619 -0.4044167 -0.9118096 0.1292631 0.6750153
-8.758303 7.678738 3.469824 0.6999679 -0.04956104 -0.7124526 0.1165143 0.6855934
-7.419928 8.385983 5.924852 0.9726185 0.09451614 -0.2123203 0.04344119 0.6870535
-7.483762 8.3627 6.501369 0.8528044 0.00868218 0.5221584 0.03073676 0.6763583
-9.226419 7.507988 7.697617 0.2702185 -0.277056 0.9220748 0.03073676 0.6169846
-10.98744 6.577401 4.467318 -0.5115199 -0.6901544 -0.5118929 0.1406537 0.5476141
-11.05127 6.554117 5.043835 -0.6608731 -0.7170056 0.2216975 0.1289083 0.5577709
-9.712898 7.261363 7.498863 -0.3882223 -0.5729273 0.7218295 0.03427219 0.560724
-9.226419 7.507988 7.697617 0.2702185 -0.277056 0.9220748 0.02109422 0.5501403
-8.758303 7.678738 3.469824 0.6999679 -0.04956104 -0.7124526 0.1270517 0.4512767
-9.244782 7.432113 3.271069 0.07106619 -0.4044167 -0.9118096 0.14023 0.4618596
-7.419928 8.385983 5.924852 0.9726185 0.09451614 -0.2123203 0.03241676 0.4542291
-7.483762 8.3627 6.501369 0.8528044 0.00868218 0.5221584 0.02067143 0.464386
9.759357 7.569643 0.9907129 -0.972311 0.04303704 -0.2296938 0.09557275 0.8664447
10.27055 6.945941 2.414412 -0.2217404 -0.4145678 0.8825898 0.0547437 0.8605195
11.4622 7.569643 1.383845 0.9748163 0.04243359 0.2189351 0.05453207 0.9088092
10.81208 8.094192 0.0687547 0.1829419 0.4472329 -0.8755084 0.1409055 0.8664447
-12.5 0 -10 -0.5773503 -0.5773503 -0.5773503 0.4441673 8.380413e-05
-12.5 10 -10 -0.7071068 -4.4272e-07 -0.7071068 0.5551583 0
12.5 10 -10 0.7071068 4.561358e-07 -0.7071068 0.5551835 0.2777241
12.5 0 -10 0.5773503 -0.5773503 -0.5773503 0.444211 0.2777354
12.5 0 10 0.5773503 -0.5773503 0.5773503 0.4441984 0.4998938
-12.5 0 10 -0.5773503 -0.5773503 0.5773503 0.4442125 0.7775823
-12.5 10 -10 -0.7071068 -4.4272e-07 -0.7071068 0.5551468 0.9996849
-12.5 0 -10 -0.5773503 -0.5773503 -0.5773503 0.4441673 0.9996222
-12 10 -9.5 0.7071068 5.366304e-07 0.7071068 0.5607083 0.005545795
12 10 -9.5 -0.7071068 -4.791942e-07 0.7071068 0.5607315 0.2721685
-12 10 9.5 0.7071068 -4.829674e-07 -0.7071068 0.5607378 0.7831668
-12 10 -9.5 0.7071068 5.366304e-07 0.7071068 0.5606974 0.9941394
12 10 9.5 -0.7071068 4.293043e-07 -0.7071068 0.5607218 0.5054484
-12 10 9.5 0.7071068 -4.829674e-07 -0.7071068 0.5607386 0.7720587
12 10 -9.5 -0.7071068 -4.791942e-07 0.7071068 0.560732 0.2832789
12 10 9.5 -0.7071068 4.293043e-07 -0.7071068 0.5607213 0.4943397
12 10 9.5 -0.7071068 4.293043e-07 -0.7071068 0.8400099 0.3783687
12 10 -9.5 -0.7071068 -4.791942e-07 0.7071068 0.6712561 0.3783687
12 10 -9.5 -0.7071068 -4.791942e-07 0.7071068 0.5886558 0.2957667
-12 10 -9.5 0.7071068 5.366304e-07 0.7071068 0.5886562 0.0826014
-12 10 -9.5 0.7071068 5.366304e-07 0.7071068 0.6712571 0
-12 10 9.5 0.7071068 -4.829674e-07 -0.7071068 0.8400111 1.072884e-06
-12 10 9.5 0.7071068 -4.829674e-07 -0.7071068 0.9226113 0.08260179
12 10 9.5 -0.7071068 4.293043e-07 -0.7071068 0.9226111 0.2957671
3 0 1 2 -1 
3 0 2 3 -1 
3 4 0 3 -1 
3 4 3 5 -1 
3 138 3 2 -1 
3 138 2 6 -1 
3 139 2 1 -1 
3 139 1 7 -1 
3 140 1 0 -1 
3 140 0 141 -1 
3 8 9 10 -1 
3 8 10 11 -1 
3 4 5 12 -1 
3 4 12 13 -1 
3 138 6 14 -1 
3 138 14 142 -1 
3 139 7 15 -1 
3 139 15 143 -1 
3 140 141 144 -1 
3 140 144 145 -1 
3 146 147 9 -1 
3 146 9 8 -1 
3 148 149 10 -1 
3 148 10 9 -1 
3 150 151 11 -1 
3 150 11 10 -1 
3 152 153 8 -1 
3 152 8 11 -1 
3 16 17 18 -1 
3 16 18 19 -1 
3 20 21 17 -1 
3 20 17 16 -1 
3 21 22 18 -1 
3 21 18 17 -1 
3 22 23 19 -1 
3 22 19 18 -1 
3 23 20 16 -1 
3 23 16 19 -1 
3 24 25 26 -1 
3 24 27 25 -1 
3 24 28 27 -1 
3 24 29 28 -1 
3 24 30 29 -1 
3 24 31 30 -1 
3 24 32 31 -1 
3 24 26 32 -1 
3 33 154 155 -1 
3 33 155 34 -1 
3 34 155 156 -1 
3 34 156 35 -1 
3 35 156 157 -1 
3 35 157 36 -1 
3 36 157 158 -1 
3 36 158 37 -1 
3 37 158 159 -1 
3 37 159 38 -1 
3 38 159 160 -1 
3 38 160 39 -1 
3 39 160 161 -1 
3 39 161 40 -1 
3 40 161 154 -1 
3 40 154 33 -1 
3 35 36 38 -1 
3 35 38 39 -1 
3 36 37 38 -1 
3 33 34 40 -1 
3 34 35 39 -1 
3 34 39 40 -1 
3 41 42 43 -1 
3 44 45 46 -1 
3 42 41 162 -1 
3 163 45 44 -1 
3 164 45 163 -1 
3 42 165 43 -1 
3 42 162 165 -1 
3 164 46 45 -1 
3 47 48 49 -1 
3 47 49 50 -1 
3 51 52 53 -1 
3 51 53 54 -1 
3 55 56 57 -1 
3 55 57 58 -1 
3 59 60 61 -1 
3 59 61 62 -1 
3 63 64 65 -1 
3 63 65 66 -1 
3 67 68 69 -1 
3 67 69 70 -1 
3 67 70 166 -1 
3 67 166 167 -1 
3 68 67 168 -1 
3 68 168 169 -1 
3 170 171 69 -1 
3 170 69 68 -1 
3 70 69 172 -1 
3 70 172 173 -1 
3 50 49 63 -1 
3 50 63 66 -1 
3 62 174 175 -1 
3 62 175 63 -1 
3 66 176 177 -1 
3 66 177 51 -1 
3 49 48 59 -1 
3 49 59 62 -1 
3 58 178 179 -1 
3 58 179 59 -1 
3 55 58 48 -1 
3 55 48 47 -1 
3 180 55 54 -1 
3 180 54 181 -1 
3 47 50 51 -1 
3 47 51 54 -1 
3 173 166 70 -1 
3 167 168 67 -1 
3 169 170 68 -1 
3 69 171 172 -1 
3 51 50 66 -1 
3 49 62 63 -1 
3 48 58 59 -1 
3 47 54 55 -1 
3 71 72 73 -1 
3 74 75 76 -1 
3 72 71 182 -1 
3 183 75 74 -1 
3 184 75 183 -1 
3 72 185 73 -1 
3 72 182 185 -1 
3 184 76 75 -1 
3 77 78 79 -1 
3 77 80 78 -1 
3 77 81 80 -1 
3 77 82 81 -1 
3 77 83 82 -1 
3 77 84 83 -1 
3 77 85 84 -1 
3 77 79 85 -1 
3 86 186 187 -1 
3 86 187 87 -1 
3 87 187 188 -1 
3 87 188 88 -1 
3 88 188 189 -1 
3 88 189 89 -1 
3 89 189 190 -1 
3 89 190 90 -1 
3 90 190 191 -1 
3 90 191 91 -1 
3 91 191 192 -1 
3 91 192 92 -1 
3 92 192 193 -1 
3 92 193 93 -1 
3 93 193 186 -1 
3 93 186 86 -1 
3 88 89 91 -1 
3 88 91 92 -1 
3 89 90 91 -1 
3 86 87 93 -1 
3 87 88 92 -1 
3 87 92 93 -1 
3 94 95 96 -1 
3 94 96 97 -1 
3 98 99 100 -1 
3 98 100 101 -1 
3 102 103 104 -1 
3 102 104 105 -1 
3 106 107 108 -1 
3 106 108 109 -1 
3 110 111 112 -1 
3 110 112 113 -1 
3 114 115 116 -1 
3 114 116 117 -1 
3 114 117 194 -1 
3 114 194 195 -1 
3 115 114 196 -1 
3 115 196 197 -1 
3 198 199 116 -1 
3 198 116 115 -1 
3 117 116 200 -1 
3 117 200 201 -1 
3 97 96 110 -1 
3 97 110 113 -1 
3 109 202 203 -1 
3 109 203 110 -1 
3 113 204 205 -1 
3 113 205 98 -1 
3 96 95 106 -1 
3 96 106 109 -1 
3 105 206 207 -1 
3 105 207 106 -1 
3 102 105 95 -1 
3 102 95 94 -1 
3 208 102 101 -1 
3 208 101 209 -1 
3 94 97 98 -1 
3 94 98 101 -1 
3 201 194 117 -1 
3 195 196 114 -1 
3 197 198 115 -1 
3 116 199 200 -1 
3 98 97 113 -1 
3 96 109 110 -1 
3 95 105 106 -1 
3 94 101 102 -1 
3 118 119 120 -1 
3 121 122 123 -1 
3 119 118 210 -1 
3 211 122 121 -1 
3 212 122 211 -1 
3 119 213 120 -1 
3 119 210 213 -1 
3 212 123 122 -1 
3 124 125 126 -1 
3 124 126 127 -1 
3 128 129 130 -1 
3 128 130 131 -1 
3 214 215 216 -1 
3 214 216 217 -1 
3 217 216 132 -1 
3 217 132 218 -1 
3 218 132 133 -1 
3 218 133 219 -1 
3 219 133 220 -1 
3 219 220 221 -1 
3 134 135 136 -1 
3 134 136 137 -1 
3 216 215 222 -1 
3 216 222 223 -1 
3 220 133 224 -1 
3 220 224 225 -1 
3 133 132 226 -1 
3 133 226 227 -1 
3 132 216 228 -1 
3 132 228 229 -1 
3 230 231 135 -1 
3 230 135 134 -1 
3 232 233 136 -1 
3 232 136 135 -1 
3 234 235 137 -1 
3 234 137 136 -1 
3 236 237 134 -1 
3 236 134 137 -1 
