ply
format ascii 1.0
comment VCGLIB generated
comment TextureFile cemetery_halloween_atlas.tga
element vertex 96
property float x
property float y
property float z
property float nx
property float ny
property float nz
property float texture_u
property float texture_v
element face 86
property list uchar int vertex_indices
end_header
-21.22877 94.64735 6.988876 -0.5369952 0.5254149 0.6599813 0.6829427 0.6074219
-9.340993 94.64735 6.988872 0.6349441 0.1564999 0.7565407 0.6972656 0.6074219
-9.552948 102.1365 6.988872 0.3889059 0.7360375 0.5540767 0.6969401 0.6165364
21.22877 94.64735 -6.988878 0.5369952 0.5254151 -0.6599811 0.7783203 0.6259766
9.552948 102.1365 -6.988874 -0.3918189 0.7346849 -0.5538197 0.7936198 0.6259766
9.552952 102.1365 6.988865 -0.3914985 0.7349365 0.5537122 0.7936198 0.6419271
21.22878 94.64735 6.988861 0.5369958 0.5254151 0.6599808 0.7783203 0.6419271
9.398726 94.64735 -6.988874 -0.6336941 0.1530749 -0.7582875 0.7799479 0.6074219
-9.552952 102.1365 -6.988868 0.3937769 0.7321873 -0.5557352 0.7063802 0.6432292
-21.22878 94.64735 -6.988863 -0.5369958 0.5254152 -0.6599806 0.7216797 0.6432292
31.0608 78.55753 6.988859 0.700214 0.2576633 0.6658153 0.7460938 0.5882161
-31.0608 78.55753 6.988878 -0.7002238 0.2576672 0.6658036 0.6712239 0.5882161
-33.34319 64.10979 6.98888 -0.7550713 -0.178127 0.6309818 0.6682943 0.570638
33.34319 64.10979 6.988857 0.7550715 -0.1781271 0.6309815 0.7486979 0.570638
31.0608 78.55753 -6.988881 0.7002239 0.2576672 -0.6658034 0.7578125 0.6259766
33.34319 64.10979 -6.988883 0.7550714 -0.1781271 -0.6309818 0.741862 0.6259766
-31.0608 78.55753 -6.988861 -0.7002246 0.2576671 -0.6658027 0.8287761 0.5878906
-33.34319 64.10979 -6.98886 -0.7550715 -0.1781271 -0.6309816 0.8317057 0.5703125
20.72595 10.67867 6.988863 0.4074227 0.8437083 0.3495185 0.7337239 0.5240886
-20.72594 10.67867 6.988876 -0.4074224 0.8437082 0.3495189 0.6835938 0.5240886
-32.08722 7.246624 21.79485 -0.5988762 0.5261561 0.6037442 0.6699219 0.5159505
32.08724 7.246624 21.79482 0.5988767 0.5261562 0.6037436 0.7473958 0.5159505
20.72594 10.67867 -6.988877 0.4074223 0.8437083 -0.3495189 0.6940104 0.6259766
32.08722 7.246624 -21.79486 0.5988762 0.5261561 -0.6037441 0.6809896 0.6191406
-20.72595 10.67867 -6.988863 -0.4074226 0.8437083 -0.3495185 0.8164062 0.523763
-32.08724 7.246624 -21.79483 -0.5988767 0.5261561 -0.6037437 0.8300781 0.515625
18.37002 30.04845 6.988863 0.668402 -0.02243692 0.7434617 0.7307943 0.5423177
-18.37002 30.04845 6.988875 -0.6684014 -0.02243693 0.7434623 0.6865234 0.5423177
18.37002 30.04845 -6.988876 0.6684014 -0.02243696 -0.7434623 0.710612 0.6259766
-18.37002 30.04845 -6.988864 -0.668402 -0.02243696 -0.7434617 0.8134766 0.5419922
-21.7684 47.89738 6.988876 -0.599014 -0.2561485 0.7586634 0.680013 0.5585938
21.76841 47.89738 6.988861 0.5990148 -0.2561485 0.7586629 0.7373047 0.5585938
21.7684 47.89738 -6.988878 0.599014 -0.2561485 -0.7586634 0.7265625 0.6259766
-21.76841 47.89738 -6.988863 -0.5990146 -0.2561486 -0.7586629 0.819987 0.5585938
-4.287107 84.47187 6.988863 0.2450528 0.4493955 0.8590651 0.7034505 0.5953776
-0.07079866 84.91994 6.988861 0.02938208 0.7339936 0.6785205 0.7086589 0.5957031
4.375978 84.64306 -6.988876 -0.2494777 0.4580066 -0.8532238 0.7861328 0.5950521
-4.416994 84.43623 -6.988875 0.2289541 0.4411861 -0.8677182 0.796875 0.5950521
-0.03174038 85.18248 -6.988876 -0.0114835 0.7464078 -0.6653898 0.7913411 0.5957031
-9.50155 94.64735 -6.988868 0.626451 0.1492124 -0.7650456 0.8030599 0.6074219
9.39004 94.72964 6.988865 -0.6381562 0.1477178 0.7556031 0.7200521 0.6077474
4.419436 84.01636 6.988861 -0.2129043 0.4263912 0.879126 0.7138672 0.5947266
-32.08722 0 21.79485 -0.7071064 4.423152e-08 0.7071072 0.6699219 0.5107422
32.08724 0 21.79483 0.7071071 2.170227e-07 0.7071066 0.7473958 0.5107422
32.08722 0 -21.79485 0.7071065 -2.037001e-07 -0.7071071 0.6764323 0.6191406
-32.08724 0 -21.79483 -0.7071069 -3.090861e-08 -0.7071066 0.8300781 0.5107422
21.22877 94.64735 -6.988878 0.5369952 0.5254151 -0.6599811 0.7659505 0.6074219
9.552948 102.1365 -6.988874 -0.3918189 0.7346849 -0.5538197 0.7799479 0.6162109
-21.22877 94.64735 6.988876 -0.5369952 0.5254149 0.6599813 0.7216797 0.6591797
-9.552948 102.1365 6.988872 0.3889059 0.7360375 0.5540767 0.7063802 0.6591797
31.0608 78.55753 6.988859 0.700214 0.2576633 0.6658153 0.7578125 0.6419271
33.34319 64.10979 6.988857 0.7550715 -0.1781271 0.6309815 0.741862 0.6419271
31.0608 78.55753 -6.988881 0.7002239 0.2576672 -0.6658034 0.7539062 0.5878906
33.34319 64.10979 -6.988883 0.7550714 -0.1781271 -0.6309818 0.7513021 0.5703125
-31.0608 78.55753 6.988878 -0.7002238 0.2576672 0.6658036 0.7421875 0.6591797
-31.0608 78.55753 -6.988861 -0.7002246 0.2576671 -0.6658027 0.7421875 0.6432292
-33.34319 64.10979 -6.98886 -0.7550715 -0.1781271 -0.6309816 0.7584636 0.6432292
-33.34319 64.10979 6.98888 -0.7550713 -0.178127 0.6309818 0.7584636 0.6591797
20.72595 10.67867 6.988863 0.4074227 0.8437083 0.3495185 0.6940104 0.6419271
32.08724 7.246624 21.79482 0.5988767 0.5261562 0.6037436 0.6809896 0.6484375
20.72594 10.67867 -6.988877 0.4074223 0.8437083 -0.3495189 0.7666016 0.523763
32.08722 7.246624 -21.79486 0.5988762 0.5261561 -0.6037441 0.7526042 0.515625
-20.72594 10.67867 6.988876 -0.4074224 0.8437082 0.3495189 0.8059896 0.6591797
-20.72595 10.67867 -6.988863 -0.4074226 0.8437083 -0.3495185 0.8059896 0.6432292
-32.08724 7.246624 -21.79483 -0.5988767 0.5261561 -0.6037437 0.8190104 0.6363932
-32.08722 7.246624 21.79485 -0.5988762 0.5261561 0.6037442 0.8190104 0.6656901
18.37002 30.04845 6.988863 0.668402 -0.02243692 0.7434617 0.710612 0.6419271
18.37002 30.04845 -6.988876 0.6684014 -0.02243696 -0.7434623 0.7692057 0.5419922
-18.37002 30.04845 6.988875 -0.6684014 -0.02243693 0.7434623 0.789388 0.6591797
-18.37002 30.04845 -6.988864 -0.668402 -0.02243696 -0.7434617 0.789388 0.6432292
21.76841 47.89738 6.988861 0.5990148 -0.2561485 0.7586629 0.7265625 0.6419271
21.7684 47.89738 -6.988878 0.599014 -0.2561485 -0.7586634 0.7626953 0.5585938
-21.76841 47.89738 -6.988863 -0.5990146 -0.2561486 -0.7586629 0.7734375 0.6432292
-21.7684 47.89738 6.988876 -0.599014 -0.2561485 0.7586634 0.7734375 0.6591797
-21.22878 94.64735 -6.988863 -0.5369958 0.5254152 -0.6599806 0.8170573 0.6074219
-9.552952 102.1365 -6.988868 0.3937769 0.7321873 -0.5557352 0.8030599 0.6162109
21.22878 94.64735 6.988861 0.5369958 0.5254151 0.6599808 0.7340495 0.6074219
9.552952 102.1365 6.988865 -0.3914985 0.7349365 0.5537122 0.7200521 0.6165364
-9.340993 94.64735 6.988872 0.6349441 0.1564999 0.7565407 0.7861328 0.6458333
-9.50155 94.64735 -6.988868 0.626451 0.1492124 -0.7650456 0.7861328 0.65625
-9.552952 102.1365 -6.988868 0.3937769 0.7321873 -0.5557352 0.7776693 0.65625
-9.552948 102.1365 6.988872 0.3889059 0.7360375 0.5540767 0.7776693 0.6458333
-0.07079866 84.91994 6.988861 0.02938208 0.7339936 0.6785205 0.8037109 0.6458333
-0.03174038 85.18248 -6.988876 -0.0114835 0.7464078 -0.6653898 0.8037109 0.65625
-4.416994 84.43623 -6.988875 0.2289541 0.4411861 -0.8677182 0.7988281 0.65625
-4.287107 84.47187 6.988863 0.2450528 0.4493955 0.8590651 0.7988281 0.6458333
4.419436 84.01636 6.988861 -0.2129043 0.4263912 0.879126 0.7988281 0.6458333
4.375978 84.64306 -6.988876 -0.2494777 0.4580066 -0.8532238 0.7988281 0.65625
9.39004 94.72964 6.988865 -0.6381562 0.1477178 0.7556031 0.7861328 0.6458333
9.398726 94.64735 -6.988874 -0.6336941 0.1530749 -0.7582875 0.7861328 0.65625
9.552952 102.1365 6.988865 -0.3914985 0.7349365 0.5537122 0.7776693 0.6458333
9.552948 102.1365 -6.988874 -0.3918189 0.7346849 -0.5538197 0.7776693 0.65625
32.08724 0 21.79483 0.7071071 2.170227e-07 0.7071066 0.6764323 0.6484375
32.08722 0 -21.79485 0.7071065 -2.037001e-07 -0.7071071 0.7526042 0.5107422
-32.08724 0 -21.79483 -0.7071069 -3.090861e-08 -0.7071066 0.8235677 0.6363932
-32.08722 0 21.79485 -0.7071064 4.423152e-08 0.7071072 0.8235677 0.6656901
3 0 1 2 
3 3 4 5 
3 5 6 3 
3 46 7 47 
3 48 49 8 
3 8 9 48 
3 10 11 12 
3 12 13 10 
3 14 50 51 
3 51 15 14 
3 16 52 53 
3 53 17 16 
3 54 55 56 
3 56 57 54 
3 18 19 20 
3 20 21 18 
3 22 58 59 
3 59 23 22 
3 24 60 61 
3 61 25 24 
3 62 63 64 
3 64 65 62 
3 26 27 19 
3 19 18 26 
3 28 66 58 
3 58 22 28 
3 29 67 60 
3 60 24 29 
3 68 69 63 
3 63 62 68 
3 13 12 30 
3 30 31 13 
3 15 51 70 
3 70 32 15 
3 17 53 71 
3 71 33 17 
3 57 56 72 
3 72 73 57 
3 34 11 10 
3 10 35 34 
3 6 50 14 
3 14 3 6 
3 46 52 36 
3 36 7 46 
3 9 55 54 
3 54 48 9 
3 26 31 30 
3 30 27 26 
3 28 32 70 
3 70 66 28 
3 29 33 71 
3 71 67 29 
3 68 73 72 
3 72 69 68 
3 36 52 16 
3 36 16 37 
3 38 36 37 
3 39 74 75 
3 16 74 39 
3 39 37 16 
3 76 40 41 
3 10 76 41 
3 35 10 41 
3 76 77 40 
3 34 1 0 
3 0 11 34 
3 78 79 80 
3 80 81 78 
3 82 83 84 
3 84 85 82 
3 86 87 83 
3 83 82 86 
3 86 88 89 
3 89 87 86 
3 90 91 89 
3 89 88 90 
3 85 84 79 
3 79 78 85 
3 21 20 42 
3 42 43 21 
3 23 59 92 
3 92 44 23 
3 25 61 93 
3 93 45 25 
3 65 64 94 
3 94 95 65 
