ply
format ascii 1.0
comment VCGLIB generated
comment TextureFile cemetery_halloween_atlas.tga
element vertex 140
property float x
property float y
property float z
property float nx
property float ny
property float nz
property float texture_u
property float texture_v
element face 116
property list uchar int vertex_indices
end_header
-0.6094112 0 -21.45173 0.4699191 -0.02776082 -0.8822729 0.708207 0.5013021
-0.4798946 7.765396 -21.45173 0.1711344 0.1603912 -0.9721048 0.7080506 0.510677
31.1035 12.13343 -21.45174 0.5988763 0.5261561 -0.6037441 0.6699219 0.5159505
31.1035 0 -21.45174 0.7071065 2.466918e-08 -0.7071071 0.6699219 0.5013021
-33.07095 0 22.13795 -0.7482787 0.0001986691 0.6633845 0.6676432 0.6191406
-33.07095 7.765396 22.13795 -0.7273045 0.02624041 0.6858132 0.6761849 0.6191406
-33.07096 7.765396 -21.45172 -0.7238654 0.02143668 -0.6896081 0.6761849 0.6484375
-33.07096 0 -21.45172 -0.7407958 0.0006933224 -0.67173 0.6676432 0.6484375
-13.47195 6.239624 24.50192 0.2861907 0.3773538 0.8807378 0.7762648 0.5085095
-13.55111 0 24.50192 0.3293078 -0.004177914 0.9442134 0.7761693 0.5009766
-11.24798 0 22.13795 0.3279932 -0.002887276 0.9446757 0.7789497 0.5009766
-11.47987 7.765396 22.13795 0.1104498 0.1578611 0.9812649 0.7786698 0.5103515
31.10352 12.13343 22.13794 0.5988766 0.5261562 0.6037438 0.8190104 0.6363932
31.10352 0 22.13794 0.7071069 3.090861e-08 0.7071066 0.8323568 0.6363932
-21.70967 15.56548 -6.645758 -0.4074225 0.8437083 -0.3495187 0.7337239 0.5240886
19.74222 15.56548 -6.645763 0.2288021 0.9609443 -0.1556782 0.6835938 0.5240886
-33.07096 12.13343 -21.45172 -0.5988765 0.5261562 -0.6037437 0.7473958 0.5159505
-21.70967 15.56548 7.331982 -0.4074224 0.8437083 0.3495187 0.6940104 0.6259766
-33.07095 12.13343 22.13795 -0.5988764 0.5261562 0.603744 0.6809896 0.6191406
19.74222 15.56548 7.331974 0.2288021 0.9609443 0.1556782 0.8164062 0.523763
-19.35376 34.93526 -6.645758 -0.392965 0.7281459 -0.5615889 0.7307943 0.5423177
-19.35374 34.93526 7.331982 -0.392964 0.7281461 0.5615892 0.710612 0.6259766
48.54897 0.9845505 -94.78564 -0.09411738 -0.7494834 -0.6552988 0.7783203 0.6419271
50.26527 14.74994 -96.50193 0.06720459 0.5587171 -0.8266309 0.7783203 0.6259766
74.75838 12.38544 -90.97301 0.6293955 0.4557661 -0.6293955 0.8059896 0.6259766
73.04207 -1.37994 -89.25671 0.4766096 -0.7373277 -0.4787392 0.8059896 0.6419271
71.4308 14.74994 -75.3364 0.5322627 0.7265039 0.4346131 0.8020833 0.6074219
77.52284 13.56769 -78.72646 0.8034515 0.5359125 0.2593524 0.804362 0.6155599
43.35066 4.060024 -77.5752 -0.5195596 -0.668519 0.5321091 0.7239583 0.5882161
58.83479 3.919273 -62.09108 0.3902133 -0.8974165 0.2058574 0.6975911 0.5882161
65.87192 6.287338 -34.93217 0.597705 -0.5973167 0.5347537 0.6682943 0.570638
30.3923 3.778519 -90.53355 -0.3948879 -0.702115 -0.5925354 0.7460938 0.5882161
18.71753 6.287338 -82.08654 -0.7354341 -0.5904647 -0.3323977 0.7486979 0.570638
32.1086 17.5439 -92.24984 -0.2339507 0.6109446 -0.7563159 0.7578125 0.6259766
20.43381 20.05273 -83.80284 -0.5804812 0.6523266 -0.4873517 0.741862 0.6259766
63.07686 17.5439 -61.28159 0.7527562 0.6582608 -0.007130221 0.8066406 0.5878906
67.58821 20.05272 -36.64846 0.7361618 0.5441861 0.402402 0.8317057 0.5703125
31.5652 12.20203 -21.80068 0.3657193 -0.7282709 0.5795437 0.789388 0.6591797
33.28149 25.96741 -23.51698 0.5482952 0.7360633 0.3969676 0.789388 0.6432292
21.45897 29.33094 -8.362671 -0.06537193 0.662511 0.7461942 0.8059896 0.6432292
19.74268 15.56555 -6.646374 -0.2011248 -0.4262837 0.8819473 0.8059896 0.6591797
46.39758 9.102592 -31.82703 0.1520403 -0.7026574 0.6950945 0.680013 0.5585938
15.6124 9.102592 -62.6122 -0.6950944 -0.7026577 -0.1520397 0.7373047 0.5585938
17.32869 22.86798 -64.32849 -0.5087852 0.7916172 -0.3383487 0.7265625 0.6259766
48.11388 22.86798 -33.54332 0.3383493 0.791617 0.5087852 0.819987 0.5585938
5.586061 12.20203 -47.77981 -0.848853 -0.5274388 -0.0354513 0.7307943 0.5423177
7.302355 25.96741 -49.49611 -0.6967679 0.6923472 -0.1875367 0.710612 0.6259766
75.80653 -0.1976967 -77.01017 0.6113442 -0.6313553 0.4771256 0.7080078 0.6591797
57.40549 1.266056 -85.92915 -0.1253597 -0.9826336 0.1368073 0.7190755 0.6074219
67.98824 1.125305 -75.34638 0.19041 -0.81374 0.5491551 0.7011719 0.6074219
89.35472 -3.245071 -60.95139 0.6614866 -0.7440358 0.09405395 0.6829427 0.6074219
78.77196 -3.104316 -71.53415 -0.5391083 -0.5807877 -0.6099573 0.7011719 0.6074219
86.59026 -4.42731 -73.19793 0.3378373 -0.6891766 -0.6410161 0.695638 0.6155599
88.30653 9.338078 -74.91422 0.3992522 0.4206712 -0.814637 0.7076823 0.6432292
91.071 10.52032 -62.66768 0.8266308 0.5587174 -0.06720451 0.7216797 0.6432292
85.10262 -0.4510994 -42.7947 0.5908304 -0.7025043 0.3967458 0.7421875 0.6591797
86.81891 13.31429 -44.511 0.7563159 0.6109447 0.2339505 0.7421875 0.6432292
78.37192 15.82311 -32.83622 -0.09017348 0.6679577 0.7387161 0.7584636 0.6432292
76.65562 2.057724 -31.11993 -0.2186905 -0.4221855 0.8797351 0.7584636 0.6591797
69.6185 -0.3103447 -58.27884 -0.8769938 -0.4659536 -0.1173416 0.6975911 0.5882161
73.86057 13.31429 -57.46935 -0.6031195 0.7730788 -0.1964587 0.8066406 0.5878906
82.21451 10.52032 -71.52417 -0.3728715 0.6817352 -0.6294473 0.8020833 0.6074219
6.659029 7.765396 22.13795 0.138949 0.1527634 0.978446 0.8005677 0.5103515
7.293909 0 22.13795 0.4311694 0.03525142 0.9015822 0.8013343 0.5009766
5.66186 0 24.34735 0.413127 0.03373486 0.9100484 0.799364 0.5009766
5.175394 6.048195 24.34735 0.312228 0.3453213 0.8850237 0.7987767 0.5082784
-2.294271 6.37299 -24.46201 0.3712233 0.4212022 -0.8275156 0.710241 0.508996
-2.805471 0 -24.46201 0.3866978 -0.03101815 -0.9216847 0.7108581 0.5013021
31.1035 0 -21.45174 0.7071065 2.466918e-08 -0.7071071 0.8323568 0.6656901
31.1035 12.13343 -21.45174 0.5988763 0.5261561 -0.6037441 0.8190104 0.6656901
-21.70967 15.56548 -6.645758 -0.4074225 0.8437083 -0.3495187 0.6940104 0.6419271
-33.07096 12.13343 -21.45172 -0.5988765 0.5261562 -0.6037437 0.6809896 0.6484375
-21.70967 15.56548 7.331982 -0.4074224 0.8437083 0.3495187 0.7666016 0.523763
-33.07095 12.13343 22.13795 -0.5988764 0.5261562 0.603744 0.7526042 0.515625
31.10352 12.13343 22.13794 0.5988766 0.5261562 0.6037438 0.8300781 0.515625
19.74222 15.56548 -6.645763 0.2288021 0.9609443 -0.1556782 0.8059896 0.6591797
19.74222 15.56548 7.331974 0.2288021 0.9609443 0.1556782 0.8059896 0.6432292
-19.35376 34.93526 -6.645758 -0.392965 0.7281459 -0.5615889 0.710612 0.6419271
-19.35374 34.93526 7.331982 -0.392964 0.7281461 0.5615892 0.7692057 0.5419922
-19.35376 34.93526 -6.645758 -0.392965 0.7281459 -0.5615889 0.7552083 0.5572917
-19.35374 34.93526 7.331982 -0.392964 0.7281461 0.5615892 0.7447917 0.5569661
19.74222 15.56548 7.331974 0.2288021 0.9609443 0.1556782 0.7464193 0.5240886
19.74222 15.56548 -6.645763 0.2288021 0.9609443 -0.1556782 0.7568359 0.5244141
74.75838 12.38544 -90.97301 0.6293955 0.4557661 -0.6293955 0.7913411 0.6236979
50.26527 14.74994 -96.50193 0.06720459 0.5587171 -0.8266309 0.7659505 0.6074219
30.3923 3.778519 -90.53355 -0.3948879 -0.702115 -0.5925354 0.7578125 0.6419271
18.71753 6.287338 -82.08654 -0.7354341 -0.5904647 -0.3323977 0.741862 0.6419271
32.1086 17.5439 -92.24984 -0.2339507 0.6109446 -0.7563159 0.7539062 0.5878906
20.43381 20.05273 -83.80284 -0.5804812 0.6523266 -0.4873517 0.7513021 0.5703125
15.6124 9.102592 -62.6122 -0.6950944 -0.7026577 -0.1520397 0.7265625 0.6419271
17.32869 22.86798 -64.32849 -0.5087852 0.7916172 -0.3383487 0.7626953 0.5585938
65.87192 6.287338 -34.93217 0.597705 -0.5973167 0.5347537 0.7584636 0.6591797
67.58821 20.05272 -36.64846 0.7361618 0.5441861 0.402402 0.7584636 0.6432292
48.11388 22.86798 -33.54332 0.3383493 0.791617 0.5087852 0.7734375 0.6432292
46.39758 9.102592 -31.82703 0.1520403 -0.7026574 0.6950945 0.7734375 0.6591797
31.5652 12.20203 -21.80068 0.3657193 -0.7282709 0.5795437 0.6865234 0.5423177
5.586061 12.20203 -47.77981 -0.848853 -0.5274388 -0.0354513 0.710612 0.6419271
33.28149 25.96741 -23.51698 0.5482952 0.7360633 0.3969676 0.8134766 0.5419922
7.302355 25.96741 -49.49611 -0.6967679 0.6923472 -0.1875367 0.7692057 0.5419922
19.74268 15.56555 -6.646374 -0.2011248 -0.4262837 0.8819473 0.6835938 0.5240886
21.45897 29.33094 -8.362671 -0.06537193 0.662511 0.7461942 0.8164062 0.523763
7.302355 25.96741 -49.49611 -0.6967679 0.6923472 -0.1875367 0.7464193 0.5260417
5.586061 12.20203 -47.77981 -0.848853 -0.5274388 -0.0354513 0.7568359 0.5266927
19.74268 15.56555 -6.646374 -0.2011248 -0.4262837 0.8819473 0.7552083 0.5595703
21.45897 29.33094 -8.362671 -0.06537193 0.662511 0.7461942 0.7447917 0.5589193
73.04207 -1.37994 -89.25671 0.4766096 -0.7373277 -0.4787392 0.6940104 0.6591797
74.75838 12.38544 -90.97301 0.6293955 0.4557661 -0.6293955 0.6940104 0.6432292
77.52284 13.56769 -78.72646 0.8034515 0.5359125 0.2593524 0.7076823 0.6432292
48.54897 0.9845505 -94.78564 -0.09411738 -0.7494834 -0.6552988 0.7340495 0.6074219
73.04207 -1.37994 -89.25671 0.4766096 -0.7373277 -0.4787392 0.7086589 0.6240234
75.80653 -0.1976967 -77.01017 0.6113442 -0.6313553 0.4771256 0.695638 0.6155599
65.87192 6.287338 -34.93217 0.597705 -0.5973167 0.5347537 0.7548828 0.5618489
58.83479 3.919273 -62.09108 0.3902133 -0.8974165 0.2058574 0.7571614 0.5406901
63.07686 17.5439 -61.28159 0.7527562 0.6582608 -0.007130221 0.7464193 0.5419922
67.58821 20.05272 -36.64846 0.7361618 0.5441861 0.402402 0.7444661 0.5608724
67.98824 1.125305 -75.34638 0.19041 -0.81374 0.5491551 0.7561849 0.5286458
71.4308 14.74994 -75.3364 0.5322627 0.7265039 0.4346131 0.7457682 0.5296224
75.80653 -0.1976967 -77.01017 0.6113442 -0.6313553 0.4771256 0.7552083 0.5224609
77.52284 13.56769 -78.72646 0.8034515 0.5359125 0.2593524 0.7447917 0.5244141
89.35472 -3.245071 -60.95139 0.6614866 -0.7440358 0.09405395 0.7216797 0.6591797
86.59026 -4.42731 -73.19793 0.3378373 -0.6891766 -0.6410161 0.7080078 0.6591797
85.10262 -0.4510994 -42.7947 0.5908304 -0.7025043 0.3967458 0.6712239 0.5882161
86.81891 13.31429 -44.511 0.7563159 0.6109447 0.2339505 0.8287761 0.5878906
91.071 10.52032 -62.66768 0.8266308 0.5587174 -0.06720451 0.8170573 0.6074219
88.30653 9.338078 -74.91422 0.3992522 0.4206712 -0.814637 0.804362 0.6155599
76.65562 2.057724 -31.11993 -0.2186905 -0.4221855 0.8797351 0.6682943 0.570638
78.37192 15.82311 -32.83622 -0.09017348 0.6679577 0.7387161 0.8317057 0.5703125
78.37192 15.82311 -32.83622 -0.09017348 0.6679577 0.7387161 0.7441406 0.5602214
73.86057 13.31429 -57.46935 -0.6031195 0.7730788 -0.1964587 0.7460938 0.5413411
69.6185 -0.3103447 -58.27884 -0.8769938 -0.4659536 -0.1173416 0.7565104 0.5403646
76.65562 2.057724 -31.11993 -0.2186905 -0.4221855 0.8797351 0.7545573 0.5611979
82.21451 10.52032 -71.52417 -0.3728715 0.6817352 -0.6294473 0.7454427 0.5289714
78.77196 -3.104316 -71.53415 -0.5391083 -0.5807877 -0.6099573 0.7558594 0.5279948
88.30653 9.338078 -74.91422 0.3992522 0.4206712 -0.814637 0.7444661 0.523763
86.59026 -4.42731 -73.19793 0.3378373 -0.6891766 -0.6410161 0.7548828 0.5218099
-33.07096 7.765396 -21.45172 -0.7238654 0.02143668 -0.6896081 0.7473958 0.510677
31.10352 0 22.13794 0.7071069 3.090861e-08 0.7071066 0.8300781 0.5009766
-33.07095 7.765396 22.13795 -0.7273045 0.02624041 0.6858132 0.7526042 0.5103515
-33.07095 0 22.13795 -0.7482787 0.0001986691 0.6633845 0.7526042 0.5009766
-33.07096 0 -21.45172 -0.7407958 0.0006933224 -0.67173 0.7473958 0.5013021
3 0 1 2 
3 2 3 0 
3 4 5 6 
3 6 7 4 
3 8 9 10 
3 10 11 8 
3 68 69 12 
3 12 13 68 
3 14 15 2 
3 2 16 14 
3 17 70 71 
3 71 18 17 
3 19 72 73 
3 73 74 19 
3 75 76 12 
3 12 69 75 
3 14 20 15 
3 21 77 70 
3 70 17 21 
3 19 78 72 
3 79 80 81 
3 81 82 79 
3 22 23 24 
3 24 25 22 
3 26 27 83 
3 83 84 26 
3 28 29 30 
3 31 28 30 
3 32 31 30 
3 33 85 86 
3 86 34 33 
3 35 87 88 
3 88 36 35 
3 37 38 39 
3 39 40 37 
3 32 30 41 
3 41 42 32 
3 34 86 89 
3 89 43 34 
3 36 88 90 
3 90 44 36 
3 91 92 93 
3 93 94 91 
3 22 85 33 
3 33 23 22 
3 84 87 35 
3 35 26 84 
3 45 42 41 
3 41 95 45 
3 46 43 89 
3 89 96 46 
3 97 44 90 
3 90 98 97 
3 37 94 93 
3 93 38 37 
3 45 95 99 
3 100 97 98 
3 101 102 103 
3 103 104 101 
3 105 106 107 
3 107 47 105 
3 29 28 31 
3 31 108 48 
3 29 31 48 
3 29 48 49 
3 48 108 109 
3 48 109 110 
3 49 48 110 
3 111 112 113 
3 113 114 111 
3 112 115 116 
3 116 113 112 
3 115 117 116 
3 117 118 116 
3 50 51 52 
3 119 120 53 
3 53 54 119 
3 55 56 57 
3 57 58 55 
3 50 121 59 
3 59 51 50 
3 54 56 55 
3 55 119 54 
3 60 122 123 
3 123 61 60 
3 61 123 124 
3 59 121 125 
3 126 122 60 
3 127 128 129 
3 129 130 127 
3 131 132 129 
3 129 128 131 
3 131 133 134 
3 131 134 132 
3 135 16 1 
3 18 71 6 
3 6 5 18 
3 74 62 63 
3 63 136 74 
3 10 64 65 
3 65 11 10 
3 11 137 8 
3 138 9 8 
3 8 137 138 
3 64 63 62 
3 62 65 64 
3 65 62 11 
3 73 11 62 
3 62 74 73 
3 73 137 11 
3 66 135 1 
3 0 67 66 
3 66 1 0 
3 66 67 139 
3 139 135 66 
3 1 16 2 
