ply
format ascii 1.0
comment VCGLIB generated
comment TextureFile cemetery_halloween_atlas.tga
element vertex 228
property float x
property float y
property float z
property float nx
property float ny
property float nz
property float texture_u
property float texture_v
element face 223
property list uchar int vertex_indices
end_header
21.72576 77.51418 13.57105 0.4942356 0.756473 0.4283454 0.7648923 0.8128111
-21.72577 77.51418 13.57105 -0.4942347 0.7564735 0.4283455 0.7181466 0.8130952
-24.05702 61.75394 13.57107 -0.5587206 0.7383801 0.3776586 0.7155355 0.7961551
24.05698 61.75394 13.57107 0.5587212 0.7383795 0.377659 0.7672972 0.7958406
-24.05702 61.75394 -13.57107 -0.3591425 0.900095 -0.2466693 0.9258912 0.7934378
24.05698 61.75394 -13.57107 0.359143 0.9000948 -0.2466694 0.6782269 0.7943114
76.00349 23.00974 -192.3956 0.6178449 0.3424478 -0.7078116 0.9670094 0.8744203
72.82847 -2.495529 -183.6722 0.4724284 -0.8256955 -0.3082829 0.9962096 0.8744205
50.82232 -2.495529 -191.6818 -0.1637409 -0.8256955 -0.5398295 0.9962096 0.8492272
53.99735 23.00974 -200.4051 -0.01832436 0.3424478 -0.9393582 0.9670097 0.8492272
24.05692 61.75385 -13.57099 0.3105554 -0.1437807 0.9396183 0.9174945 0.7955922
-21.15545 61.75385 -30.02695 -0.8418743 -0.1437806 0.5201681 0.8657323 0.7954109
4.758433 42.50272 -76.88162 -0.714883 -0.6976434 -0.04728724 0.874477 0.8559968
34.32332 42.50272 -66.12088 0.5780277 -0.6976434 0.4232939 0.908325 0.8561155
42.15976 26.76947 -193.7209 -0.5625413 0.518678 -0.6438326 0.7204673 0.9864017
34.80112 39.41601 -159.4233 -0.04418198 0.7914506 -0.6096342 0.7254074 0.9465911
64.366 39.41601 -148.6625 0.4257105 0.7914508 -0.438607 0.759254 0.9463858
80.7751 26.76947 -179.6661 0.8447792 0.5186781 -0.1316097 0.7646763 0.9861337
38.98474 1.264206 -184.9976 -0.7095862 -0.6625475 -0.2398297 0.9962096 0.8340536
31.6261 13.91074 -150.7 -0.2628097 -0.9648061 -0.008959115 0.9962096 0.793938
77.60007 1.264206 -170.9428 0.6977342 -0.6625473 0.2723932 0.9130521 0.985849
61.191 13.91074 -139.9392 0.2070828 -0.9648061 0.1620679 0.9080097 0.9460517
25.23248 49.59875 -133.1336 -0.2270685 0.9660879 -0.122939 0.725212 0.9145616
54.79737 49.59875 -122.3729 0.2529683 0.9660879 0.0517801 0.7590603 0.9143561
-23.9503 22.32662 -146.3217 -0.8454463 -0.4623507 0.2673061 0.8111265 0.8395908
-20.77528 47.83189 -155.045 -0.700563 0.7015084 -0.1307573 0.8413983 0.8395908
-14.52727 41.18288 -172.2113 -0.4758287 0.4623507 -0.7482104 0.8413983 0.8567708
-17.70229 15.67762 -163.488 -0.6207119 -0.7015083 -0.350147 0.8111265 0.8567708
51.62235 24.09349 -113.6496 0.03754774 -0.7644041 0.6436433 0.9081225 0.9140221
22.05746 24.09349 -124.4103 -0.442489 -0.7644042 0.468924 0.8742734 0.9139037
104.1258 47.83189 -109.5848 0.6207117 0.7015083 0.3501472 0.8044876 0.8401849
100.9507 22.32662 -100.8615 0.4758288 -0.4623508 0.7482103 0.7742168 0.8401843
107.1987 15.67762 -118.0277 0.7005629 -0.7015084 0.130758 0.7742165 0.8573631
110.3738 41.18288 -126.7511 0.8454462 0.462351 -0.2673055 0.8044874 0.8573636
-11.13242 51.41541 -141.0578 -0.3503296 0.8490773 0.3953947 0.8413983 0.8242465
-14.30744 25.91015 -132.3345 -0.4976779 -0.3345849 0.800231 0.8111264 0.8242465
-1.324596 12.09409 -168.0046 -0.01421375 -0.8490773 -0.5280774 0.8344665 0.9515144
1.850429 37.59935 -176.7279 0.1331345 0.3345847 -0.9329139 0.8413983 0.8721146
84.57304 25.91015 -96.34492 -0.1331348 -0.3345849 0.9329138 0.7742182 0.824841
87.74807 51.41541 -105.0682 0.01421331 0.8490773 0.5280774 0.8044893 0.8248426
100.7309 37.59935 -140.7383 0.4976785 0.3345849 -0.8002306 0.7989658 0.9518614
97.55589 12.09409 -132.015 0.35033 -0.8490773 -0.3953944 0.7742155 0.8727059
7.933459 68.00798 -85.60493 -0.5454996 0.6630277 -0.5126641 0.7248607 0.8566554
37.49835 68.00798 -74.84418 0.7474111 0.6630278 -0.04208296 0.7587081 0.8564498
-10.72454 81.8688 -51.86957 -0.6284524 0.7655245 -0.1379126 0.7181466 0.8130952
30.10654 81.8688 -37.00826 0.5700709 0.7655245 0.2983144 0.7648923 0.8128111
15.28898 17.57325 -77.85063 -0.1418316 0.6991245 -0.7007915 0.7156436 0.7091972
-0.6689909 -7.629395e-06 -77.85063 0.03179958 0.225358 -0.973757 0.7275878 0.6959667
-0.4954528 10.09086 -70.46446 0.1913446 0.6910493 -0.6970209 0.7280242 0.7091988
-65.54152 -1.907349e-05 42.11097 -0.7856879 -2.704087e-08 -0.618623 0.8890587 0.695912
-65.54152 17.57323 42.11097 -0.4448076 0.8641664 -0.2352928 0.8890587 0.7130904
-65.54152 17.57324 -42.11096 -0.3794335 0.875658 0.2987529 0.8202975 0.7130905
-65.54152 -1.144409e-05 -42.11096 -0.7856879 2.704087e-08 0.618623 0.8202975 0.695912
65.54145 -1.144409e-05 -42.11096 0.7856879 2.704087e-08 0.6186231 0.887439 0.6687872
65.54145 17.57324 -42.11096 0.3794335 0.875658 0.298753 0.887439 0.6858821
65.54145 17.57323 42.11097 0.3794335 0.875658 -0.2987528 0.8190005 0.685882
65.54145 -1.907349e-05 42.11097 0.7856879 -2.704087e-08 -0.618623 0.8190005 0.6687872
-1.456543 17.57324 -60.63629 0.02363422 0.7660384 -0.6423602 0.7281773 0.722047
-77.85065 17.57324 -45.08174 -0.6338863 0.5908365 0.4990997 0.8117958 0.7092534
-60.06958 17.57324 -60.06956 -0.3046696 0.9033995 -0.301738 0.804855 0.7205458
-77.85065 17.57325 -77.85063 -0.5773502 0.5773504 -0.5773503 0.785356 0.7092065
77.85058 17.57323 45.08175 0.6338862 0.5908365 -0.4990996 0.8105389 0.682066
60.06951 17.57323 60.06956 0.3015113 0.9045341 0.3015115 0.8037205 0.6933025
77.85058 17.57323 77.85065 0.5936112 0.5807614 0.5570836 0.7842231 0.6820034
60.06951 35.14648 -60.06955 0.5825662 0.576763 -0.5726789 0.670014 0.7377785
60.06951 17.57324 -60.06956 0.3045198 0.9034534 -0.3017279 0.670014 0.725817
18.96859 17.57324 -60.44814 -0.08235926 0.7789224 -0.6216887 0.697947 0.7258171
24.95516 35.14648 -61.46616 -0.2816179 0.6513675 -0.7045649 0.6939152 0.7377786
-60.06958 17.57323 60.06956 -0.3393788 0.8423569 0.4186369 0.8335641 0.7258173
-60.06958 35.14647 60.06957 -0.589341 0.5730133 0.5695024 0.8335641 0.7377788
-60.06958 35.14648 -60.06955 -0.5790028 0.5782035 -0.574836 0.7517889 0.7377787
16.60589 25.71901 55.57323 -0.4301763 0.4889152 0.7588875 0.8857554 0.7377787
18.65043 17.57323 60.06956 -0.1007916 0.7923678 0.6016597 0.8871471 0.7258171
22.44836 35.14647 60.06956 -0.3419697 0.6573938 0.6714836 0.8897322 0.7377786
60.06951 35.14647 60.06957 0.5773501 0.5773502 0.5773504 0.9153402 0.7377785
41.6841 35.14648 -44.01977 0.2037802 0.957206 -0.2055003 0.6825283 0.7487032
18.4987 35.14648 -44.01977 -0.09544784 0.7028598 -0.7048956 0.6983098 0.7487032
-41.68418 35.14647 44.01979 -0.290422 0.9031888 0.3160778 0.822639 0.7502933
-41.68418 35.14648 0.01829147 -0.712423 0.6863178 -0.1463602 0.7926887 0.7502931
-41.68418 35.14648 -44.01977 -0.2037801 0.957206 -0.2055002 0.7627135 0.7502931
15.92248 35.14647 44.01979 -0.07825615 0.6536589 0.7527324 0.8852904 0.7487033
41.6841 35.14648 0.330368 0.625504 0.7747711 -0.09205745 0.9560031 0.7502928
-15.36425 35.14648 -44.01977 0.09337448 0.6947615 -0.7131534 0.8762168 0.7512364
-35.73546 52.71973 -37.73775 -0.5201298 0.6701867 -0.5294477 0.9000301 0.7693655
35.7354 52.71973 -37.73775 0.5201301 0.6701866 -0.5294476 0.8246012 0.7693655
-38.70691 43.94168 -3.110166 -0.908234 0.4039407 -0.1092839 0.939887 0.7602965
-44.16309 41.32892 0.04622459 -0.8770612 0.2702964 -0.3971191 0.942625 0.7576099
41.6841 35.14647 44.01979 0.2078154 0.9507732 0.2298761 0.7449462 0.7512364
38.53536 44.4483 40.6946 0.6375617 0.441207 0.631547 0.7449462 0.7608325
-42.20676 42.1301 43.61838 -0.6575439 0.436927 0.613784 0.6695174 0.7584355
-21.301 35.14647 44.01979 0.08566213 0.6279767 0.7735033 0.6879594 0.7512163
-35.73546 52.71972 37.73776 -0.52013 0.6701866 0.5294475 0.9796852 0.7693388
35.7354 52.71972 37.73776 0.5201302 0.6701864 0.5294477 0.7449462 0.7693655
-77.85065 -2.288818e-05 77.85065 -0.7071066 3.090863e-08 0.7071069 0.9240003 0.695912
-77.85065 13.66753 77.85065 -0.5921515 0.534168 0.6033418 0.9240003 0.7092534
-77.85065 13.66753 45.08175 -0.7148197 0.4795627 -0.508972 0.8975602 0.7092534
-77.85065 -1.907349e-05 45.08175 -0.7856879 -2.704087e-08 -0.618623 0.8975602 0.695912
-77.85065 -7.629395e-06 -77.85063 -0.7071068 -3.090863e-08 -0.7071068 0.785356 0.6959589
-77.85065 -1.144409e-05 -45.08174 -0.7856879 2.704087e-08 0.6186231 0.8117958 0.695912
77.85058 -7.629395e-06 -77.85063 0.7071067 -3.090862e-08 -0.7071069 0.9222165 0.6688185
77.85058 17.57325 -77.85063 0.5773501 0.5773504 -0.5773503 0.9222165 0.6820347
77.85058 17.57324 -45.08174 0.6338863 0.5908365 0.4990997 0.8959006 0.682066
77.85058 -1.144409e-05 -45.08174 0.7856879 2.704087e-08 0.6186231 0.8959006 0.6687872
77.85058 -2.288818e-05 77.85065 0.7291666 -0.0001632925 0.6843363 0.7842231 0.6688498
77.85058 -1.907349e-05 45.08175 0.785688 -2.704087e-08 -0.618623 0.8105389 0.6687872
-7.416426 17.57325 -77.85063 0.3267142 0.6702989 -0.6663011 0.732638 0.7091994
-18.30088 17.57324 -60.47342 0.07460764 0.7793252 -0.6221623 0.7407848 0.7221686
17.55094 27.61184 -56.15778 -0.4284661 0.5617384 -0.7077194 0.698955 0.7377786
-16.27917 27.61184 -56.15777 0.4761369 0.4953313 -0.7265952 0.7219821 0.7377787
-21.33139 35.14648 -60.06955 0.345733 0.6637342 -0.663269 0.725421 0.7377787
3.819305 17.57323 82.55551 -0.3505706 0.6566762 0.66774 0.7317931 0.681975
2.298476 17.57323 60.06956 -0.06057019 0.8161179 0.5747025 0.7282122 0.6951243
3.370971 -2.098083e-05 82.55551 -0.33516 -0.01003307 0.9421078 0.7290073 0.6688797
-1.529968 -2.288818e-05 77.85065 -0.3837268 -0.02003162 0.9232294 0.725374 0.6688818
-2.113769 11.18328 77.85065 -0.47987 0.5008746 0.7203119 0.7249411 0.6819713
-20.68213 17.57323 60.06956 0.0557556 0.5595017 0.8269517 0.7111754 0.6951243
-27.00967 35.14647 64.22009 0.2449596 0.5863039 0.7721674 0.8560672 0.7377788
-19.9596 27.57728 60.06956 0.441009 0.3865988 0.8099706 0.8608661 0.7377788
38.39597 44.86006 2.529521 0.8682105 0.472007 -0.1530357 0.7850693 0.7612573
38.53418 44.45173 40.37666 0.9343907 0.3541035 0.03904779 0.7452804 0.760836
43.57526 43.89193 6.403296 0.8140566 0.5437884 -0.203976 0.7820853 0.7577778
-38.56122 44.37206 40.72186 -0.4008355 0.79187 0.4607309 0.9796852 0.7607525
-24.05702 61.75394 13.57107 -0.5587206 0.7383801 0.3776586 0.9528678 0.7934378
-21.72577 77.51418 13.57105 -0.4942347 0.7564735 0.4283455 0.9528679 0.8092726
21.72576 77.51418 13.57105 0.4942356 0.756473 0.4283454 0.7052029 0.8101459
24.05698 61.75394 13.57107 0.5587212 0.7383795 0.377659 0.7052031 0.7943115
-21.72577 77.51418 13.57105 -0.4942347 0.7564735 0.4283455 0.9951713 0.9959729
21.72576 77.51418 13.57105 0.4942356 0.756473 0.4283454 0.9397577 0.9959729
24.05698 61.75394 -13.57107 0.359143 0.9000948 -0.2466694 0.9397577 0.9568211
-24.05702 61.75394 -13.57107 -0.3591425 0.900095 -0.2466693 0.9951713 0.9568211
34.80112 39.41601 -159.4233 -0.04418198 0.7914506 -0.6096342 0.9670094 0.793938
42.15976 26.76947 -193.7209 -0.5625413 0.518678 -0.6438326 0.9670094 0.8340536
31.6261 13.91074 -150.7 -0.2628097 -0.9648061 -0.008959115 0.8741628 0.9459338
38.98474 1.264206 -184.9976 -0.7095862 -0.6625475 -0.2398297 0.8688427 0.9856949
80.7751 26.76947 -179.6661 0.8447792 0.5186781 -0.1316097 0.9670094 0.8895938
64.366 39.41601 -148.6625 0.4257105 0.7914508 -0.438607 0.9670094 0.9297094
61.191 13.91074 -139.9392 0.2070828 -0.9648061 0.1620679 0.9962096 0.9297094
77.60007 1.264206 -170.9428 0.6977342 -0.6625473 0.2723932 0.9962096 0.8895938
25.23248 49.59875 -133.1336 -0.2270685 0.9660879 -0.122939 0.841398 0.7913164
22.05746 24.09349 -124.4103 -0.442489 -0.7644042 0.468924 0.8111262 0.7913165
-14.30744 25.91015 -132.3345 -0.4976779 -0.3345849 0.800231 0.8346128 0.9080561
31.6261 13.91074 -150.7 -0.2628097 -0.9648061 -0.008959115 0.8111265 0.905044
-1.324596 12.09409 -168.0046 -0.01421375 -0.8490773 -0.5280774 0.8111265 0.8721146
34.80112 39.41601 -159.4233 -0.04418198 0.7914506 -0.6096342 0.8413983 0.9050441
1.850429 37.59935 -176.7279 0.1331345 0.3345847 -0.9329139 0.6857654 0.9525487
-11.13242 51.41541 -141.0578 -0.3503296 0.8490773 0.3953947 0.685498 0.909091
51.62235 24.09349 -113.6496 0.03754774 -0.7644041 0.6436433 0.774222 0.7919124
54.79737 49.59875 -122.3729 0.2529683 0.9660879 0.0517801 0.8044928 0.7919133
87.74807 51.41541 -105.0682 0.01421331 0.8490773 0.5280774 0.7987047 0.9084035
64.366 39.41601 -148.6625 0.4257105 0.7914508 -0.438607 0.8044835 0.9056365
100.7309 37.59935 -140.7383 0.4976785 0.3345849 -0.8002306 0.8044862 0.8727072
61.191 13.91074 -139.9392 0.2070828 -0.9648061 0.1620679 0.7742127 0.9056351
97.55589 12.09409 -132.015 0.35033 -0.8490773 -0.3953944 0.9476664 0.9519091
84.57304 25.91015 -96.34492 -0.1331348 -0.3345849 0.9329138 0.9478229 0.9084507
-23.9503 22.32662 -146.3217 -0.8454463 -0.4623507 0.2673061 0.8196796 0.9192783
-17.70229 15.67762 -163.488 -0.6207119 -0.7015083 -0.350147 0.8196096 0.9401926
-14.52727 41.18288 -172.2113 -0.4758287 0.4623507 -0.7482104 0.6708015 0.9413687
-20.77528 47.83189 -155.045 -0.700563 0.7015084 -0.1307573 0.6706724 0.9204546
104.1258 47.83189 -109.5848 0.6207117 0.7015083 0.3501472 0.8136674 0.9195859
110.3738 41.18288 -126.7511 0.8454462 0.462351 -0.2673055 0.8137929 0.9405001
107.1987 15.67762 -118.0277 0.7005629 -0.7015084 0.130758 0.9626021 0.940691
100.9507 22.32662 -100.8615 0.4758288 -0.4623508 0.7482103 0.9626775 0.9197766
76.00349 23.00974 -192.3956 0.6178449 0.3424478 -0.7078116 0.7552405 0.9980174
53.99735 23.00974 -200.4051 -0.01832436 0.3424478 -0.9393582 0.7300467 0.9981702
50.82232 -2.495529 -191.6818 -0.1637409 -0.8256955 -0.5398295 0.8783091 0.9975539
72.82847 -2.495529 -183.6722 0.4724284 -0.8256955 -0.3082829 0.9035032 0.9976417
22.05746 24.09349 -124.4103 -0.442489 -0.7644042 0.468924 0.9258913 0.9034877
4.758433 42.50272 -76.88162 -0.714883 -0.6976434 -0.04728724 0.9258912 0.8499905
7.933459 68.00798 -85.60493 -0.5454996 0.6630277 -0.5126641 0.9528679 0.8499905
25.23248 49.59875 -133.1336 -0.2270685 0.9660879 -0.122939 0.9528682 0.9034877
54.79737 49.59875 -122.3729 0.2529683 0.9660879 0.0517801 0.705202 0.9043592
37.49835 68.00798 -74.84418 0.7474111 0.6630278 -0.04208296 0.7052025 0.8508627
34.32332 42.50272 -66.12088 0.5780277 -0.6976434 0.4232939 0.6782264 0.8508627
51.62235 24.09349 -113.6496 0.03754774 -0.7644041 0.6436433 0.678226 0.9043582
-21.15545 61.75385 -30.02695 -0.8418743 -0.1437806 0.5201681 0.9258912 0.7934378
-10.72454 81.8688 -51.86957 -0.6284524 0.7655245 -0.1379126 0.9528679 0.8092726
30.10654 81.8688 -37.00826 0.5700709 0.7655245 0.2983144 0.7052029 0.8101459
24.05692 61.75385 -13.57099 0.3105554 -0.1437807 0.9396183 0.6782269 0.7943114
30.10654 81.8688 -37.00826 0.5700709 0.7655245 0.2983144 0.7842205 0.9554904
-10.72454 81.8688 -51.86957 -0.6284524 0.7655245 -0.1379126 0.8431922 0.9554904
-21.15545 61.75385 -30.02695 -0.8418743 -0.1437806 0.5201681 0.8431922 0.996848
24.05692 61.75385 -13.57099 0.3105554 -0.1437807 0.9396183 0.7842205 0.996848
-60.06958 17.57324 -60.06956 -0.3046696 0.9033995 -0.301738 0.7517889 0.7258173
60.06951 17.57323 60.06956 0.3015113 0.9045341 0.3015115 0.9153401 0.725817
60.06951 17.57324 -60.06956 0.3045198 0.9034534 -0.3017279 0.9971149 0.7258168
60.06951 35.14648 -60.06955 0.5825662 0.576763 -0.5726789 0.997115 0.7377783
-41.68418 35.14648 -44.01977 -0.2037801 0.957206 -0.2055002 0.9000301 0.7512364
18.4987 35.14648 -44.01977 -0.09544784 0.7028598 -0.7048956 0.8455787 0.7512364
41.6841 35.14648 -44.01977 0.2037802 0.957206 -0.2055003 0.8246012 0.7512364
-41.68418 35.14648 0.01829147 -0.712423 0.6863178 -0.1463602 0.9398742 0.7512498
15.92248 35.14647 44.01979 -0.07825615 0.6536589 0.7527324 0.721638 0.7512282
-41.68418 35.14647 44.01979 -0.290422 0.9031888 0.3160778 0.6695174 0.7512097
-24.05702 61.75394 -13.57107 -0.3591425 0.900095 -0.2466693 0.8857542 0.7891265
24.05698 61.75394 -13.57107 0.359143 0.9000948 -0.2466694 0.8388773 0.7891265
-24.05702 61.75394 13.57107 -0.5587206 0.7383801 0.3776586 0.9530796 0.7891265
-24.05702 61.75394 -13.57107 -0.3591425 0.900095 -0.2466693 0.9266357 0.7891265
-35.73546 52.71972 37.73776 -0.52013 0.6701866 0.5294475 0.6695174 0.7693922
24.05698 61.75394 13.57107 0.5587212 0.7383795 0.377659 0.7306702 0.7891265
-24.05702 61.75394 13.57107 -0.5587206 0.7383801 0.3776586 0.6837934 0.7891265
24.05698 61.75394 -13.57107 0.359143 0.9000948 -0.2466694 0.7979958 0.7891265
24.05698 61.75394 13.57107 0.5587212 0.7383795 0.377659 0.7715517 0.7891265
60.06951 17.57324 -60.06956 0.3045198 0.9034534 -0.3017279 0.9028089 0.6933024
-60.06958 17.57323 60.06956 -0.3393788 0.8423569 0.4186369 0.9044109 0.7205459
77.85058 17.57325 -77.85063 0.5773501 0.5773504 -0.5773503 0.6688182 0.7091908
77.85058 -7.629395e-06 -77.85063 0.7071067 -3.090862e-08 -0.7071069 0.6688182 0.6959746
18.96859 17.57324 -60.44814 -0.08235926 0.7789224 -0.6216887 0.7128897 0.7221874
-15.36425 35.14648 -44.01977 0.09337448 0.6947615 -0.7131534 0.7213593 0.7487032
-1.456543 17.57324 -60.63629 0.02363422 0.7660384 -0.6423602 0.7118284 0.7258171
-41.68418 35.14648 -44.01977 -0.2037801 0.957206 -0.2055002 0.7392744 0.7487032
-18.30088 17.57324 -60.47342 0.07460764 0.7793252 -0.6221623 0.7233124 0.7258171
60.06951 17.57324 -60.06956 0.3045198 0.9034534 -0.3017279 0.6821269 0.72247
-60.06958 17.57324 -60.06956 -0.3046696 0.9033995 -0.301738 0.7720474 0.72247
60.06951 17.57323 60.06956 0.3015113 0.9045341 0.3015115 0.7710411 0.6951243
18.65043 17.57323 60.06956 -0.1007916 0.7923678 0.6016597 0.7403349 0.6951243
-77.85065 -2.288818e-05 77.85065 -0.7071066 3.090863e-08 0.7071069 0.6687933 0.6689124
-77.85065 13.66753 77.85065 -0.5921515 0.534168 0.6033418 0.6687933 0.6819409
-60.06958 17.57323 60.06956 -0.3393788 0.8423569 0.4186369 0.6819753 0.6951243
-20.68213 17.57323 60.06956 0.0557556 0.5595017 0.8269517 0.8603742 0.7258172
-21.301 35.14647 44.01979 0.08566213 0.6279767 0.7735033 0.8599535 0.7487033
-41.68418 35.14647 44.01979 -0.290422 0.9031888 0.3160778 0.8460794 0.7487033
41.6841 35.14647 44.01979 0.2078154 0.9507732 0.2298761 0.9028255 0.7487033
2.298476 17.57323 60.06956 -0.06057019 0.8161179 0.5747025 0.8760166 0.7258171
41.6841 35.14648 0.330368 0.625504 0.7747711 -0.09205745 0.7844748 0.7512364
41.6841 35.14648 -44.01977 0.2037802 0.957206 -0.2055003 0.9861909 0.7502927
41.6841 35.14647 44.01979 0.2078154 0.9507732 0.2298761 0.9262651 0.750293
-42.20676 42.1301 43.61838 -0.6575439 0.436927 0.613784 0.9796852 0.7584465
-41.68418 35.14647 44.01979 -0.290422 0.9031888 0.3160778 0.9796852 0.7512631
-38.56122 44.37206 40.72186 -0.4008355 0.79187 0.4607309 0.6695174 0.7607552
3 0 1 2 
3 2 3 0 
3 122 123 4 
3 5 124 125 
3 126 127 128 
3 128 129 126 
3 6 7 8 
3 8 9 6 
3 10 11 12 
3 12 13 10 
3 14 15 16 
3 16 17 14 
3 18 19 130 
3 130 131 18 
3 20 21 132 
3 132 133 20 
3 134 135 136 
3 136 137 134 
3 22 23 16 
3 16 15 22 
3 24 25 26 
3 26 27 24 
3 28 29 132 
3 132 21 28 
3 30 31 32 
3 32 33 30 
3 138 34 35 
3 35 139 138 
3 29 140 36 
3 36 132 29 
3 141 142 37 
3 37 143 141 
3 15 144 145 
3 145 22 15 
3 146 38 39 
3 39 147 146 
3 23 148 40 
3 40 16 23 
3 149 150 41 
3 41 151 149 
3 21 152 153 
3 153 28 21 
3 34 25 24 
3 24 35 34 
3 140 154 155 
3 155 36 140 
3 142 27 26 
3 26 37 142 
3 144 156 157 
3 157 145 144 
3 38 31 30 
3 30 39 38 
3 148 158 159 
3 159 40 148 
3 150 33 32 
3 32 41 150 
3 152 160 161 
3 161 153 152 
3 17 162 163 
3 163 14 17 
3 131 9 8 
3 8 18 131 
3 133 164 165 
3 165 20 133 
3 137 7 6 
3 6 134 137 
3 22 42 43 
3 43 23 22 
3 166 167 168 
3 168 169 166 
3 28 13 12 
3 12 29 28 
3 170 171 172 
3 172 173 170 
3 43 42 44 
3 44 45 43 
3 168 167 174 
3 174 175 168 
3 172 171 176 
3 176 177 172 
3 178 179 180 
3 180 181 178 
3 46 47 48 
3 49 50 51 
3 51 52 49 
3 53 54 55 
3 55 56 53 
3 57 46 48 
3 58 51 59 
3 59 60 58 
3 61 55 62 
3 62 63 61 
3 64 65 66 
3 66 67 64 
3 182 68 69 
3 69 70 182 
3 71 72 73 
3 183 184 185 
3 185 74 183 
3 75 64 67 
3 67 76 75 
3 70 69 77 
3 70 77 78 
3 70 78 79 
3 80 71 73 
3 74 185 81 
3 82 186 83 
3 187 82 83 
3 188 187 83 
3 188 83 84 
3 85 189 86 
3 190 87 88 
3 190 88 89 
3 90 190 89 
3 191 90 89 
3 84 83 192 
3 192 193 84 
3 83 91 194 
3 194 195 83 
3 196 92 197 
3 197 198 196 
3 92 84 199 
3 199 200 92 
3 93 94 95 
3 95 96 93 
3 60 97 98 
3 98 58 60 
3 99 100 101 
3 101 102 99 
3 63 103 104 
3 104 61 63 
3 49 96 95 
3 95 50 49 
3 51 58 98 
3 98 52 51 
3 53 102 101 
3 101 54 53 
3 55 61 104 
3 104 56 55 
3 55 54 201 
3 201 62 55 
3 54 101 100 
3 100 201 54 
3 51 50 202 
3 202 59 51 
3 50 95 94 
3 94 202 50 
3 105 57 48 
3 48 47 105 
3 203 204 47 
3 47 46 203 
3 46 57 205 
3 57 105 106 
3 105 47 97 
3 97 60 105 
3 206 76 107 
3 107 108 206 
3 107 66 207 
3 208 206 109 
3 109 70 208 
3 70 109 209 
3 209 182 70 
3 209 109 108 
3 109 206 108 
3 76 67 107 
3 67 66 107 
3 46 205 210 
3 210 203 46 
3 211 106 105 
3 105 60 211 
3 108 207 209 
3 107 207 108 
3 63 212 213 
3 110 63 213 
3 111 110 213 
3 110 112 103 
3 103 63 110 
3 214 113 114 
3 114 215 214 
3 114 111 115 
3 114 115 216 
3 114 216 215 
3 69 68 217 
3 217 116 69 
3 116 218 219 
3 219 69 116 
3 80 218 117 
3 117 71 80 
3 117 217 71 
3 218 116 117 
3 116 217 117 
3 220 80 73 
3 73 74 220 
3 74 73 72 
3 72 183 74 
3 71 217 221 
3 112 110 114 
3 114 113 112 
3 110 111 114 
3 71 221 72 
3 118 84 92 
3 119 118 92 
3 88 119 92 
3 118 119 120 
3 87 120 119 
3 119 88 87 
3 120 222 118 
3 188 84 118 
3 118 222 188 
3 120 87 222 
3 81 185 223 
3 74 81 224 
3 189 85 83 
3 83 186 189 
3 225 86 189 
3 189 226 225 
3 121 85 86 
3 86 225 121 
3 91 83 85 
3 85 121 91 
3 196 227 88 
3 88 92 196 
3 89 88 227 
