ply
format ascii 1.0
comment VCGLIB generated
comment TextureFile cemetery_halloween_atlas.tga
element vertex 101
property float x
property float y
property float z
property float nx
property float ny
property float nz
property float texture_u
property float texture_v
element face 102
property list uchar int vertex_indices
end_header
-36.72114 0 18.2159 -0.6879158 0.0001584461 0.7257904 0.6699219 0.5013021
-0.4800529 0 16.28409 -0.4020415 -0.01914857 0.9154212 0.7081525 0.5013021
-0.7133636 4.898468 16.28409 -0.4241181 0.4240617 0.8001847 0.7079063 0.5084952
-36.72114 5.958122 18.2159 -0.5826799 0.5223477 0.6226051 0.6699219 0.5084952
36.72114 0 -18.2159 0.7071068 -3.090862e-08 -0.7071068 0.6676432 0.6191406
36.72114 5.958122 -18.2159 0.6020527 0.5209479 -0.6050999 0.674197 0.6191406
36.72114 5.958122 18.2159 0.6020527 0.5209479 0.6051 0.674197 0.6484375
36.72114 0 18.2159 0.7071066 5.485085e-08 0.7071069 0.6676432 0.6484375
13.71453 3.814697e-06 -18.2159 -0.4197312 -0.008740598 -0.9076064 0.7768737 0.5009766
13.59046 5.958122 -18.2159 -0.3150268 0.5306479 -0.7868742 0.7770047 0.5081697
-36.72114 5.958122 -18.2159 -0.5688269 0.5233928 -0.6344258 0.825803 0.6363932
-36.72114 0 -18.2159 -0.674554 -3.226886e-08 -0.7382255 0.8323568 0.6363932
-21.22878 84.68169 6.98887 -0.5369956 0.5254149 0.659981 0.6829427 0.6074219
21.22878 84.68169 6.98887 0.5369956 0.5254149 0.659981 0.7340495 0.6074219
0 98.29826 6.98887 -1.797435e-08 0.797434 0.6034062 0.7086589 0.6240234
21.22878 84.68169 -6.98887 0.5369956 0.5254149 -0.659981 0.7783203 0.6259766
0 98.29826 -6.98887 -1.797434e-08 0.797434 -0.6034062 0.8059896 0.6259766
-21.22878 84.68169 -6.98887 -0.5369956 0.5254149 -0.659981 0.8170573 0.6074219
31.0608 68.59187 6.98887 0.7002242 0.2576672 0.6658032 0.7460938 0.5882161
-31.0608 68.59187 6.98887 -0.7002241 0.2576672 0.6658032 0.6712239 0.5882161
-33.34319 54.14413 6.98887 -0.7488405 -0.2365493 0.619098 0.6682943 0.570638
33.34319 54.14413 6.98887 0.7488405 -0.2365493 0.6190981 0.7486979 0.570638
31.0608 68.59187 -6.98887 0.7002242 0.2576672 -0.6658032 0.7578125 0.6259766
33.34319 54.14413 -6.98887 0.7488405 -0.2365494 -0.619098 0.741862 0.6259766
-31.0608 68.59187 -6.98887 -0.7002241 0.2576672 -0.6658031 0.8287761 0.5878906
-33.34319 54.14413 -6.98887 -0.7488405 -0.2365494 -0.6190981 0.8317057 0.5703125
20.72594 15.56548 6.98887 0.3799267 0.7870507 0.4860112 0.7337239 0.5240886
-20.72594 15.56548 6.98887 -0.3799267 0.7870507 0.4860113 0.6835938 0.5240886
-32.08723 12.13343 12.825 -0.6200435 0.5009964 0.6037787 0.6699219 0.5159505
32.08723 12.13343 12.825 0.6200436 0.5009965 0.6037785 0.7473958 0.5159505
20.72594 15.56548 -6.98887 0.3799266 0.7870508 -0.4860112 0.6940104 0.6259766
32.08723 12.13343 -12.825 0.6200435 0.5009966 -0.6037785 0.6809896 0.6191406
-20.72594 15.56548 -6.98887 -0.3799266 0.7870508 -0.4860112 0.8164062 0.523763
-32.08723 12.13343 -12.825 -0.6200434 0.5009963 -0.6037789 0.8300781 0.515625
18.37002 30.57927 6.98887 0.6326925 -0.06987938 0.7712439 0.7307943 0.5423177
-18.37002 30.57927 6.98887 -0.6326925 -0.06987937 0.7712439 0.6865234 0.5423177
18.37002 30.57927 -6.98887 0.6326925 -0.06987936 -0.7712439 0.710612 0.6259766
-18.37002 30.57927 -6.98887 -0.6326925 -0.06987936 -0.7712439 0.8134766 0.5419922
-23.75168 44.22517 6.98887 -0.552458 -0.3557738 0.7538006 0.680013 0.5585938
23.75168 44.22517 6.98887 0.552458 -0.3557738 0.7538005 0.7373047 0.5585938
23.75168 44.22517 -6.98887 0.552458 -0.3557738 -0.7538006 0.7265625 0.6259766
-23.75168 44.22517 -6.98887 -0.552458 -0.3557738 -0.7538005 0.819987 0.5585938
32.08723 7.401394 12.825 0.417501 0.8189954 0.3936235 0.7473958 0.5102376
-0.6608886 7.401394 12.825 -0.06519002 0.5120189 0.856497 0.7078609 0.5102376
32.08723 7.401394 -12.825 0.417501 0.8189955 -0.3936234 0.6757845 0.6191406
-32.08723 7.401394 -12.825 -0.3906099 0.8116827 -0.4342754 0.8300781 0.5099121
-8.57658 7.401394 -12.825 -0.09964913 0.4857302 -0.8684102 0.8016951 0.5099121
-32.08723 7.401394 12.825 -0.401832 0.815189 0.4171306 0.8242155 0.6656901
11.06745 7.401394 -12.825 -0.03341394 0.5301716 -0.8472317 0.7779801 0.5099121
11.39315 5.104706 -16.22872 -0.3681672 0.4069761 -0.8359566 0.7793226 0.5081697
1.19458 0 18.2159 -0.4064269 -0.008201621 0.9136465 0.709919 0.5013021
1.438264 5.958122 18.2159 -0.3078811 0.5511294 0.7755422 0.7101761 0.5084952
12.06023 3.814697e-06 -16.22872 -0.3880283 -0.01542537 -0.9215184 0.7786188 0.5009766
-8.034744 0 -18.2159 -0.3905239 0.1014337 -0.9149876 0.799817 0.5009766
-7.172044 5.995022 -18.07807 -0.3037646 0.5556238 -0.7739569 0.7988639 0.5082142
-10.34588 0 -15.83369 -0.3051931 0.1409009 -0.9418089 0.8012964 0.5009766
-9.591034 4.750931 -15.33316 -0.416852 0.4735689 -0.7758653 0.8005002 0.5081697
36.72114 5.958122 -18.2159 0.6020527 0.5209479 -0.6050999 0.7526042 0.5081697
36.72114 0 -18.2159 0.7071068 -3.090862e-08 -0.7071068 0.7526042 0.5009766
-36.72114 0 18.2159 -0.6879158 0.0001584461 0.7257904 0.8323568 0.6656901
-36.72114 5.958122 18.2159 -0.5826799 0.5223477 0.6226051 0.825803 0.6656901
21.22878 84.68169 6.98887 0.5369956 0.5254149 0.659981 0.7783203 0.6419271
0 98.29826 6.98887 -1.797435e-08 0.797434 0.6034062 0.8059896 0.6419271
21.22878 84.68169 -6.98887 0.5369956 0.5254149 -0.659981 0.7659505 0.6074219
0 98.29826 -6.98887 -1.797434e-08 0.797434 -0.6034062 0.7913411 0.6236979
-21.22878 84.68169 -6.98887 -0.5369956 0.5254149 -0.659981 0.7216797 0.6432292
-21.22878 84.68169 6.98887 -0.5369956 0.5254149 0.659981 0.7216797 0.6591797
0 98.29826 6.98887 -1.797435e-08 0.797434 0.6034062 0.6940104 0.6591797
0 98.29826 -6.98887 -1.797434e-08 0.797434 -0.6034062 0.6940104 0.6432292
31.0608 68.59187 6.98887 0.7002242 0.2576672 0.6658032 0.7578125 0.6419271
33.34319 54.14413 6.98887 0.7488405 -0.2365493 0.6190981 0.741862 0.6419271
31.0608 68.59187 -6.98887 0.7002242 0.2576672 -0.6658032 0.7539062 0.5878906
33.34319 54.14413 -6.98887 0.7488405 -0.2365494 -0.619098 0.7513021 0.5703125
-31.0608 68.59187 6.98887 -0.7002241 0.2576672 0.6658032 0.7421875 0.6591797
-31.0608 68.59187 -6.98887 -0.7002241 0.2576672 -0.6658031 0.7421875 0.6432292
-33.34319 54.14413 -6.98887 -0.7488405 -0.2365494 -0.6190981 0.7584636 0.6432292
-33.34319 54.14413 6.98887 -0.7488405 -0.2365493 0.619098 0.7584636 0.6591797
20.72594 15.56548 6.98887 0.3799267 0.7870507 0.4860112 0.6940104 0.6419271
32.08723 12.13343 12.825 0.6200436 0.5009965 0.6037785 0.6809896 0.6484375
20.72594 15.56548 -6.98887 0.3799266 0.7870508 -0.4860112 0.7666016 0.523763
32.08723 12.13343 -12.825 0.6200435 0.5009966 -0.6037785 0.7526042 0.515625
-20.72594 15.56548 6.98887 -0.3799267 0.7870507 0.4860113 0.8059896 0.6591797
-20.72594 15.56548 -6.98887 -0.3799266 0.7870508 -0.4860112 0.8059896 0.6432292
-32.08723 12.13343 -12.825 -0.6200434 0.5009963 -0.6037789 0.8190104 0.6363932
-32.08723 12.13343 12.825 -0.6200435 0.5009964 0.6037787 0.8190104 0.6656901
18.37002 30.57927 6.98887 0.6326925 -0.06987938 0.7712439 0.710612 0.6419271
18.37002 30.57927 -6.98887 0.6326925 -0.06987936 -0.7712439 0.7692057 0.5419922
-18.37002 30.57927 6.98887 -0.6326925 -0.06987937 0.7712439 0.789388 0.6591797
-18.37002 30.57927 -6.98887 -0.6326925 -0.06987936 -0.7712439 0.789388 0.6432292
23.75168 44.22517 6.98887 0.552458 -0.3557738 0.7538005 0.7265625 0.6419271
23.75168 44.22517 -6.98887 0.552458 -0.3557738 -0.7538006 0.7626953 0.5585938
-23.75168 44.22517 -6.98887 -0.552458 -0.3557738 -0.7538005 0.7734375 0.6432292
-23.75168 44.22517 6.98887 -0.552458 -0.3557738 0.7538006 0.7734375 0.6591797
32.08723 7.401394 12.825 0.417501 0.8189954 0.3936235 0.6757845 0.6484375
-32.08723 7.401394 -12.825 -0.3906099 0.8116827 -0.4342754 0.8242155 0.6363932
-32.08723 7.401394 12.825 -0.401832 0.815189 0.4171306 0.6699219 0.5102376
-36.72114 0 -18.2159 -0.674554 -3.226886e-08 -0.7382255 0.8300781 0.5009766
-36.72114 5.958122 -18.2159 -0.5688269 0.5233928 -0.6344258 0.8300781 0.5081697
36.72114 0 18.2159 0.7071066 5.485085e-08 0.7071069 0.7473958 0.5013021
36.72114 5.958122 18.2159 0.6020527 0.5209479 0.6051 0.7473958 0.5084952
32.08723 7.401394 -12.825 0.417501 0.8189955 -0.3936234 0.7526042 0.5099121
3 0 1 2 
3 2 3 0 
3 4 5 6 
3 6 7 4 
3 8 9 57 
3 57 58 8 
3 59 60 10 
3 10 11 59 
3 12 13 14 
3 61 15 16 
3 16 62 61 
3 63 17 64 
3 65 66 67 
3 67 68 65 
3 18 19 20 
3 20 21 18 
3 22 69 70 
3 70 23 22 
3 24 71 72 
3 72 25 24 
3 73 74 75 
3 75 76 73 
3 26 27 28 
3 28 29 26 
3 30 77 78 
3 78 31 30 
3 32 79 80 
3 80 33 32 
3 81 82 83 
3 83 84 81 
3 34 35 27 
3 27 26 34 
3 36 85 77 
3 77 30 36 
3 37 86 79 
3 79 32 37 
3 87 88 82 
3 82 81 87 
3 21 20 38 
3 38 39 21 
3 23 70 89 
3 89 40 23 
3 25 72 90 
3 90 41 25 
3 76 75 91 
3 91 92 76 
3 12 19 18 
3 18 13 12 
3 61 69 22 
3 22 15 61 
3 63 71 24 
3 24 17 63 
3 65 74 73 
3 73 66 65 
3 34 39 38 
3 38 35 34 
3 36 40 89 
3 89 85 36 
3 37 41 90 
3 90 86 37 
3 87 92 91 
3 91 88 87 
3 42 29 43 
3 31 78 93 
3 93 44 31 
3 45 33 46 
3 84 83 94 
3 94 47 84 
3 95 3 2 
3 2 43 95 
3 44 93 6 
3 6 5 44 
3 48 9 49 
3 47 94 10 
3 10 60 47 
3 50 51 2 
3 2 1 50 
3 2 51 43 
3 52 53 54 
3 54 49 52 
3 54 46 48 
3 48 49 54 
3 55 96 97 
3 97 56 55 
3 56 97 45 
3 45 46 56 
3 98 99 51 
3 51 50 98 
3 52 49 9 
3 9 8 52 
3 53 55 56 
3 56 54 53 
3 54 56 46 
3 100 57 9 
3 9 48 100 
3 51 99 42 
3 42 43 51 
3 29 28 43 
3 28 95 43 
3 80 100 48 
3 33 80 48 
3 48 46 33 
