ply
format ascii 1.0
comment VCGLIB generated
comment TextureFile cemetery_halloween_atlas.tga
element vertex 96
property float x
property float y
property float z
property float nx
property float ny
property float nz
property float texture_u
property float texture_v
element face 94
property list uchar int vertex_indices
end_header
32.08723 0 -23.23279 0.7071069 -3.131602e-08 -0.7071066 0.6699219 0.5013021
0.6878776 0 -23.23278 0.357507 -0.0001107177 -0.9339105 0.7078284 0.5013021
0.5300747 4.548785 -23.23278 0.1461614 0.1298153 -0.9807063 0.708019 0.5101678
32.08723 7.515743 -23.23279 0.6199918 0.4645928 -0.6322687 0.6699219 0.5159505
-32.08723 0 -23.23278 -0.6742235 -0.1353345 -0.7260215 0.6676432 0.6484375
-33.02546 4.805483 22.29936 -0.7728974 0.07422017 0.6301753 0.6761767 0.6191406
-33.02547 4.642216 -23.23278 -0.7629325 0.05287371 -0.6443124 0.6758868 0.6484375
-32.08723 0 22.29936 -0.7047253 -0.1367272 0.6961809 0.7526042 0.5009766
-12.02048 0 24.94083 0.4607407 0.01957015 0.887319 0.7768296 0.5009766
-12.39856 3.646977 24.94083 0.3030358 0.4530905 0.8383785 0.7763731 0.5080847
32.08723 0 22.29935 0.7391171 -2.573161e-05 0.673577 0.8323568 0.6363932
32.08723 4.704108 22.29935 0.7230277 0.0204102 0.6905175 0.8240033 0.6363932
21.22878 100.4378 -6.988873 0.5797458 0.4414842 -0.6848259 0.6829427 0.6074219
-21.22878 100.4378 -6.988865 -0.5797461 0.4414843 -0.6848257 0.7340495 0.6074219
-1.05529e-06 123.0824 -6.98887 -4.542998e-08 0.818832 -0.5740332 0.7086589 0.6240234
-21.22878 100.4378 6.988874 -0.5797458 0.4414842 0.6848259 0.7783203 0.6259766
1.05529e-06 123.0824 6.98887 0 0.8188322 0.5740331 0.8059896 0.6259766
21.22878 100.4378 6.988867 0.5797461 0.4414843 0.6848257 0.8170573 0.6074219
-31.0608 84.34794 -6.988864 -0.7002243 0.2576671 -0.665803 0.7460938 0.5882161
31.0608 84.34794 -6.988874 0.700224 0.2576672 -0.6658034 0.6712239 0.5882161
33.34319 69.9002 -6.988874 0.752641 -0.2073492 -0.6249303 0.6682943 0.570638
-33.34319 69.9002 -6.988863 -0.7526411 -0.2073493 -0.6249301 0.7486979 0.570638
-31.0608 84.34794 6.988875 -0.700224 0.2576672 0.6658033 0.7578125 0.6259766
-33.34319 69.9002 6.988876 -0.752641 -0.2073492 0.6249303 0.741862 0.6259766
31.0608 84.34794 6.988865 0.7002243 0.2576672 0.665803 0.8287761 0.5878906
33.34319 69.9002 6.988865 0.7526411 -0.2073493 0.6249301 0.8317057 0.5703125
-20.72591 15.56548 -6.988866 -0.5446648 0.6260048 -0.5580844 0.7337239 0.5240886
20.7259 15.56548 -6.988873 0.5446646 0.6260049 -0.5580847 0.6835938 0.5240886
-32.08723 7.515743 -23.23278 -0.5282304 0.5477011 -0.6488423 0.7473958 0.5159505
-20.7259 15.56548 6.988873 -0.540971 0.6200836 0.5681959 0.6940104 0.6259766
-32.08723 7.515743 22.29936 -0.5257651 0.5480402 0.650556 0.6809896 0.6191406
20.72591 15.56548 6.988866 0.5409714 0.6200836 0.5681957 0.8164062 0.523763
32.08723 7.515743 22.29935 0.6223512 0.4605457 0.6329113 0.8300781 0.515625
-25.5669 26.88373 -6.988866 -0.7864617 0.1316264 -0.6034505 0.7320964 0.5332031
25.5669 26.88373 -6.988873 0.7864615 0.1316264 -0.6034508 0.6848958 0.5332031
-25.5669 26.88373 6.988873 -0.7864615 0.1316264 0.6034508 0.7021484 0.6259766
25.5669 26.88373 6.988867 0.7864617 0.1316264 0.6034505 0.8151042 0.5328776
21.32761 55.46966 -6.988873 0.5784945 -0.297121 -0.7596468 0.680013 0.5585938
-21.32761 55.46966 -6.988865 -0.5784947 -0.297121 -0.7596467 0.7373047 0.5585938
-21.32761 55.46966 6.988874 -0.5784945 -0.2971211 0.7596467 0.7265625 0.6259766
21.32761 55.46966 6.988866 0.5784947 -0.297121 0.7596466 0.819987 0.5585938
-16.49519 36.90258 -6.988866 -0.5400032 0.1324932 -0.8311691 0.7307943 0.5423177
16.49519 36.90258 -6.988872 0.5400031 0.1324931 -0.8311692 0.6865234 0.5423177
-16.49519 36.90258 6.988873 -0.5400031 0.132493 0.8311692 0.710612 0.6259766
16.49519 36.90258 6.988867 0.5400032 0.1324932 0.8311691 0.8134766 0.5419922
-10.66028 4.816191 22.29935 0.174413 0.169647 0.9699485 0.7784716 0.5103635
-10.5558 0 22.29935 0.502209 0.01089493 0.8646777 0.7785978 0.5009766
8.28777 0 22.29935 -0.5546124 -0.02352948 0.8317761 0.8013465 0.5009766
7.703429 4.587311 22.29935 -0.1655094 0.1331097 0.977184 0.8006411 0.5099174
9.199161 3.736846 24.4278 -0.3683506 0.435138 0.8215673 0.8024468 0.5082598
9.184151 0 24.4278 -0.5150443 0.002069264 0.8571611 0.8024287 0.5009766
-1.243104 3.662092 -25.0191 0.2691881 0.4370587 -0.858206 0.7101595 0.5084396
-1.330027 0 -25.0191 0.3219821 -0.007642535 -0.9467149 0.7102645 0.5013021
-33.02546 4.805483 22.29936 -0.7728974 0.07422017 0.6301753 0.7526042 0.5103426
32.08723 0 -23.23279 0.7071069 -3.131602e-08 -0.7071066 0.8323568 0.6656901
-21.22878 100.4378 -6.988865 -0.5797461 0.4414843 -0.6848257 0.7783203 0.6419271
-1.05529e-06 123.0824 -6.98887 -4.542998e-08 0.818832 -0.5740332 0.8059896 0.6419271
-21.22878 100.4378 6.988874 -0.5797458 0.4414842 0.6848259 0.7659505 0.6074219
1.05529e-06 123.0824 6.98887 0 0.8188322 0.5740331 0.7913411 0.6236979
21.22878 100.4378 6.988867 0.5797461 0.4414843 0.6848257 0.7216797 0.6432292
21.22878 100.4378 -6.988873 0.5797458 0.4414842 -0.6848259 0.7216797 0.6591797
-1.05529e-06 123.0824 -6.98887 -4.542998e-08 0.818832 -0.5740332 0.6940104 0.6591797
1.05529e-06 123.0824 6.98887 0 0.8188322 0.5740331 0.6940104 0.6432292
-31.0608 84.34794 -6.988864 -0.7002243 0.2576671 -0.665803 0.7578125 0.6419271
-33.34319 69.9002 -6.988863 -0.7526411 -0.2073493 -0.6249301 0.741862 0.6419271
-31.0608 84.34794 6.988875 -0.700224 0.2576672 0.6658033 0.7539062 0.5878906
-33.34319 69.9002 6.988876 -0.752641 -0.2073492 0.6249303 0.7513021 0.5703125
31.0608 84.34794 -6.988874 0.700224 0.2576672 -0.6658034 0.7421875 0.6591797
31.0608 84.34794 6.988865 0.7002243 0.2576672 0.665803 0.7421875 0.6432292
33.34319 69.9002 6.988865 0.7526411 -0.2073493 0.6249301 0.7584636 0.6432292
33.34319 69.9002 -6.988874 0.752641 -0.2073492 -0.6249303 0.7584636 0.6591797
-20.72591 15.56548 -6.988866 -0.5446648 0.6260048 -0.5580844 0.6940104 0.6419271
-32.08723 7.515743 -23.23278 -0.5282304 0.5477011 -0.6488423 0.6809896 0.6484375
-20.7259 15.56548 6.988873 -0.540971 0.6200836 0.5681959 0.7666016 0.523763
-32.08723 7.515743 22.29936 -0.5257651 0.5480402 0.650556 0.7526042 0.515625
20.7259 15.56548 -6.988873 0.5446646 0.6260049 -0.5580847 0.8059896 0.6591797
20.72591 15.56548 6.988866 0.5409714 0.6200836 0.5681957 0.8059896 0.6432292
32.08723 7.515743 22.29935 0.6223512 0.4605457 0.6329113 0.8190104 0.6363932
32.08723 7.515743 -23.23279 0.6199918 0.4645928 -0.6322687 0.8190104 0.6656901
-25.5669 26.88373 -6.988866 -0.7864617 0.1316264 -0.6034505 0.7021484 0.6419271
-25.5669 26.88373 6.988873 -0.7864615 0.1316264 0.6034508 0.7679036 0.5328776
25.5669 26.88373 -6.988873 0.7864615 0.1316264 -0.6034508 0.7978516 0.6591797
25.5669 26.88373 6.988867 0.7864617 0.1316264 0.6034505 0.7978516 0.6432292
-21.32761 55.46966 -6.988865 -0.5784947 -0.297121 -0.7596467 0.7265625 0.6419271
-21.32761 55.46966 6.988874 -0.5784945 -0.2971211 0.7596467 0.7626953 0.5585938
21.32761 55.46966 6.988866 0.5784947 -0.297121 0.7596466 0.7734375 0.6432292
21.32761 55.46966 -6.988873 0.5784945 -0.297121 -0.7596468 0.7734375 0.6591797
-16.49519 36.90258 -6.988866 -0.5400032 0.1324932 -0.8311691 0.710612 0.6419271
-16.49519 36.90258 6.988873 -0.5400031 0.132493 0.8311692 0.7692057 0.5419922
16.49519 36.90258 -6.988872 0.5400031 0.1324931 -0.8311692 0.789388 0.6591797
16.49519 36.90258 6.988867 0.5400032 0.1324932 0.8311691 0.789388 0.6432292
32.08723 4.704108 22.29935 0.7230277 0.0204102 0.6905175 0.8300781 0.510145
32.08723 0 22.29935 0.7391171 -2.573161e-05 0.673577 0.8300781 0.5009766
-32.08723 0 22.29936 -0.7047253 -0.1367272 0.6961809 0.6676432 0.6191406
-33.02547 4.642216 -23.23278 -0.7629325 0.05287371 -0.6443124 0.7473958 0.5103499
-32.08723 0 -23.23278 -0.6742235 -0.1353345 -0.7260215 0.7473958 0.5013021
3 0 1 2 
3 2 3 0 
3 4 5 6 
3 7 8 9 
3 9 53 7 
3 10 54 11 
3 12 13 14 
3 55 15 16 
3 16 56 55 
3 57 17 58 
3 59 60 61 
3 61 62 59 
3 18 19 20 
3 20 21 18 
3 22 63 64 
3 64 23 22 
3 24 65 66 
3 66 25 24 
3 67 68 69 
3 69 70 67 
3 26 27 3 
3 3 28 26 
3 29 71 72 
3 72 30 29 
3 31 73 74 
3 74 32 31 
3 75 76 77 
3 77 78 75 
3 33 34 27 
3 27 26 33 
3 35 79 71 
3 71 29 35 
3 36 80 73 
3 73 31 36 
3 81 82 76 
3 76 75 81 
3 21 20 37 
3 37 38 21 
3 23 64 83 
3 83 39 23 
3 25 66 84 
3 84 40 25 
3 70 69 85 
3 85 86 70 
3 12 19 18 
3 18 13 12 
3 55 63 22 
3 22 15 55 
3 57 65 24 
3 24 17 57 
3 59 68 67 
3 67 60 59 
3 41 38 37 
3 37 42 41 
3 43 39 83 
3 83 87 43 
3 44 40 84 
3 84 88 44 
3 89 86 85 
3 85 90 89 
3 41 42 34 
3 34 33 41 
3 43 87 79 
3 79 35 43 
3 44 88 80 
3 80 36 44 
3 89 90 82 
3 82 81 89 
3 45 74 53 
3 8 46 45 
3 45 9 8 
3 9 45 53 
3 46 47 48 
3 48 45 46 
3 91 32 48 
3 49 50 92 
3 92 91 49 
3 91 48 49 
3 47 50 49 
3 49 48 47 
3 45 32 74 
3 32 45 48 
3 54 78 77 
3 77 11 54 
3 4 93 5 
3 51 94 2 
3 51 2 1 
3 1 52 51 
3 2 28 3 
3 51 52 95 
3 95 94 51 
3 5 30 72 
3 72 6 5 
3 94 28 2 
