ply
format ascii 1.0
comment VCGLIB generated
comment TextureFile cemetery_halloween_atlas.tga
element vertex 103
property float x
property float y
property float z
property float nx
property float ny
property float nz
property float texture_u
property float texture_v
element face 104
property list uchar int vertex_indices
end_header
-1.415323 7.629395e-06 29.44787 0.4126966 0.03848597 0.9100552 0.9628849 0.5009766
0.6541328 7.629395e-06 26.98913 0.4000902 0.03836489 0.9156724 0.9645594 0.5009766
-0.2967796 9.916656 26.98913 0.6564589 0.4558011 0.6010882 0.9637899 0.5097656
-2.449507 13.91364 29.44787 0.3922307 0.6354411 0.6651088 0.9620481 0.5097656
37.21431 7.629395e-06 26.98913 0.7071067 3.090862e-08 0.7071068 0.8349609 0.6220703
37.21431 7.629395e-06 -0.05551529 0.9142587 -0.03011731 0.4040101 0.862361 0.6220703
37.21431 8.908686 1.382664 0.7444177 0.5549828 0.3712633 0.8609039 0.633138
37.21431 10.82302 26.98913 0.5901731 0.5588139 0.5826001 0.8349609 0.633138
37.21431 7.629395e-06 -26.98913 0.6620321 0.001020076 -0.7494748 0.8395182 0.5009766
2.120398 7.629395e-06 -26.98913 -0.43358 0.04522168 -0.8999797 0.8680667 0.5009766
3.33538 14.67785 -26.98913 -0.3747817 0.6515066 -0.6596043 0.8670783 0.5100911
37.21431 10.82302 -26.98913 0.5724855 0.5389304 -0.6179113 0.8395182 0.5100911
-37.2147 7.629395e-06 -26.98913 -0.746163 0.02206845 -0.6653975 0.8896484 0.5250651
-37.2147 7.629395e-06 0.675251 -0.9974559 0.03601006 -0.06152249 0.9175095 0.5250651
-35.8814 9.466929 -1.393993 -0.7468778 0.5461205 -0.3793759 0.9154255 0.5361328
-37.2147 10.82302 -26.98913 -0.6276584 0.5538022 -0.547127 0.8896484 0.5361328
24.02605 12.97897 11.81451 0.1036319 0.9925936 0.06339014 0.9838246 0.5221448
18.48735 13.88441 5.44159 0.3508029 0.8026563 0.4823693 0.9794922 0.5273438
0.5476493 11.84036 11.75559 0.1734256 0.9767911 0.1257091 0.9647054 0.5221929
23.91543 12.99705 -11.68722 0.1111205 0.9937793 -0.007413818 0.873929 0.6470081
18.48735 13.88441 -5.44159 0.3428728 0.8004517 -0.4916456 0.867513 0.6526693
23.97184 12.98783 0.2965002 0.1931597 0.9808762 0.02390201 0.8617738 0.6469492
-24.50696 12.90042 -12.36741 -0.1027157 0.9935048 -0.04896754 0.8896832 0.5220193
-18.48773 13.88441 -5.44159 -0.3417143 0.7997898 -0.4935257 0.8847656 0.5276693
-0.680437 11.32256 -12.03272 -0.1540169 0.9859082 -0.06529947 0.8703454 0.5222923
-24.2064 12.94955 -0.007014751 -0.1587849 0.9863864 -0.04276973 0.9168185 0.5492475
-18.48773 13.88441 5.44159 -0.3686303 0.8098412 0.456365 0.9492188 0.5273438
43.00941 73.52265 5.44159 0.7626323 0.2829123 0.5816809 0.9990234 0.5758464
-43.01001 73.52265 5.44159 -0.7626329 0.2829108 0.5816808 0.9290364 0.5758464
43.00941 73.52265 -5.44159 0.7626323 0.2829123 -0.581681 0.9322917 0.6334636
-43.01001 73.52265 -5.44159 -0.762633 0.2829107 -0.5816808 0.9046224 0.5761719
10.84332 127.7192 -5.44159 0.2573541 0.7248915 -0.6389845 0.9235026 0.6529948
-10.84399 127.7192 -5.44159 -0.2573543 0.7248915 -0.6389844 0.9453125 0.6529948
-10.84399 127.7192 5.44159 -0.2573543 0.7248915 0.6389844 0.9453125 0.6640625
10.84332 127.7192 5.44159 0.2573541 0.7248916 0.6389844 0.9235026 0.6640625
21.4536 84.47842 5.44159 0.4129081 0.1451437 0.8991331 0.9817708 0.5849609
-21.45425 84.47842 5.44159 -0.4129087 0.1451441 0.8991327 0.9469401 0.5849609
21.4536 84.47842 -5.44159 0.4129081 0.1451437 -0.8991331 0.9078776 0.6334636
-21.45425 84.47842 -5.44159 -0.4129087 0.1451441 -0.8991327 0.8873698 0.5849609
28.56294 100.2069 5.44159 0.7575009 -0.09393591 0.6460406 0.9876302 0.5973307
-28.56357 100.2069 5.44159 -0.7575005 -0.09393598 0.646041 0.9414062 0.5973307
28.56294 100.2069 -5.441589 0.7575008 -0.09393594 -0.6460407 0.8880208 0.6529948
-28.56357 100.2069 -5.441589 -0.7575006 -0.093936 -0.646041 0.8929036 0.5976562
25.80375 115.5646 5.44159 0.6642115 0.3919767 0.6365355 0.9853516 0.6100261
-25.80441 115.5646 5.44159 -0.664212 0.3919759 0.6365354 0.9430339 0.6100261
25.80375 115.5646 -5.44159 0.6642116 0.3919767 -0.6365355 0.9036458 0.6529948
-25.80441 115.5646 -5.44159 -0.6642121 0.3919759 -0.6365353 0.890625 0.6103516
-23.92187 12.99607 11.69419 -0.07386235 0.9963608 0.04253845 0.9447792 0.522243
-2.261215 15.70151 14.40525 0.3568905 0.892141 -0.2769724 0.9623783 0.5200313
2.701599 15.74175 -14.2408 -0.3436603 0.8699617 0.3536444 0.8676001 0.520491
-37.2147 10.82302 26.98913 -0.6127536 0.532299 0.5841155 0.9339193 0.5097656
-37.2147 7.629395e-06 26.98913 -0.7246416 -0.01204932 0.6890206 0.9339193 0.5009766
40.25054 10.57828 -2.44645 0.7661018 0.579068 0.2788698 0.8647832 0.6328877
40.25054 7.629394e-06 -2.948126 0.946223 -0.01532554 0.3231521 0.8652916 0.6220703
-4.170897 7.629395e-06 -29.44295 0.4348906 -0.03441534 -0.8998254 0.8731845 0.5009766
-3.331039 10.82302 -29.44295 0.3838314 0.5691843 -0.7271195 0.8725013 0.5100911
0.4984703 10.82302 -23.80092 -0.4567513 0.7174901 -0.5259147 0.8693861 0.5100911
-0.7008247 7.629394e-06 -23.80092 0.1340692 0.0009586334 -0.9909715 0.8703617 0.5009766
-37.91419 12.66513 2.118753 -0.6912057 0.6591336 -0.296273 0.9189633 0.5358253
-24.50696 12.90042 -12.36741 -0.1027157 0.9935048 -0.04896754 0.9044482 0.5489445
18.48735 13.88441 5.44159 0.3508029 0.8026563 0.4823693 0.9977214 0.6220703
18.48735 13.88441 -5.44159 0.3428728 0.8004517 -0.4916456 0.9977214 0.6334636
43.00941 73.52265 5.44159 0.7626323 0.2829123 0.5816809 0.9322917 0.6220703
18.48735 13.88441 -5.44159 0.3428728 0.8004517 -0.4916456 0.8548177 0.5276693
43.00941 73.52265 -5.44159 0.7626323 0.2829123 -0.581681 0.8349609 0.5761719
-18.48773 13.88441 -5.44159 -0.3417143 0.7997898 -0.4935257 0.9977214 0.6370443
-18.48773 13.88441 5.44159 -0.3686303 0.8098412 0.456365 0.9977214 0.648112
-43.01001 73.52265 5.44159 -0.7626329 0.2829108 0.5816808 0.9322917 0.648112
-43.01001 73.52265 -5.44159 -0.762633 0.2829107 -0.5816808 0.9322917 0.6370443
21.4536 84.47842 5.44159 0.4129081 0.1451437 0.8991331 0.9078776 0.6220703
21.4536 84.47842 -5.44159 0.4129081 0.1451437 -0.8991331 0.8525391 0.5849609
-21.45425 84.47842 5.44159 -0.4129087 0.1451441 0.8991327 0.9078776 0.648112
-21.45425 84.47842 -5.44159 -0.4129087 0.1451441 -0.8991327 0.9078776 0.6370443
21.4536 84.47842 5.44159 0.4129081 0.1451437 0.8991331 0.8704427 0.6640625
21.4536 84.47842 -5.44159 0.4129081 0.1451437 -0.8991331 0.8704427 0.6529948
28.56294 100.2069 5.44159 0.7575009 -0.09393591 0.6460406 0.8880208 0.6640625
28.56294 100.2069 -5.441589 0.7575008 -0.09393594 -0.6460407 0.8466797 0.5976562
-21.45425 84.47842 -5.44159 -0.4129087 0.1451441 -0.8991327 0.9980469 0.6529948
-21.45425 84.47842 5.44159 -0.4129087 0.1451441 0.8991327 0.9980469 0.6640625
-28.56357 100.2069 5.44159 -0.7575005 -0.09393598 0.646041 0.9804688 0.6640625
-28.56357 100.2069 -5.441589 -0.7575006 -0.093936 -0.646041 0.9804688 0.6529948
25.80375 115.5646 5.44159 0.6642115 0.3919767 0.6365355 0.9036458 0.6640625
25.80375 115.5646 -5.44159 0.6642116 0.3919767 -0.6365355 0.8489583 0.6103516
-25.80441 115.5646 5.44159 -0.664212 0.3919759 0.6365354 0.9648438 0.6640625
-25.80441 115.5646 -5.44159 -0.6642121 0.3919759 -0.6365353 0.9648438 0.6529948
10.84332 127.7192 5.44159 0.2573541 0.7248916 0.6389844 0.9729818 0.6197917
-10.84399 127.7192 5.44159 -0.2573543 0.7248915 0.6389844 0.9554036 0.6197917
-10.84399 127.7192 -5.44159 -0.2573543 0.7248915 -0.6389844 0.8782552 0.6201172
10.84332 127.7192 -5.44159 0.2573541 0.7248915 -0.6389845 0.8610026 0.6201172
24.02605 12.97897 11.81451 0.1036319 0.9925936 0.06339014 0.850091 0.6468927
23.91543 12.99705 -11.68722 0.1111205 0.9937793 -0.007413818 0.8503831 0.5225742
-23.92187 12.99607 11.69419 -0.07386235 0.9963608 0.04253845 0.9285293 0.5495344
-18.48773 13.88441 5.44159 -0.3686303 0.8098412 0.456365 0.9222005 0.555013
-18.48773 13.88441 -5.44159 -0.3417143 0.7997898 -0.4935257 0.9114583 0.555013
37.21431 7.629395e-06 26.98913 0.7071067 3.090862e-08 0.7071068 0.9941406 0.5009766
37.21431 10.82302 26.98913 0.5901731 0.5588139 0.5826001 0.9941406 0.5097656
37.21431 7.629395e-06 -26.98913 0.6620321 0.001020076 -0.7494748 0.8896484 0.6220703
37.21431 10.82302 -26.98913 0.5724855 0.5389304 -0.6179113 0.8896484 0.633138
18.48735 13.88441 5.44159 0.3508029 0.8026563 0.4823693 0.8564453 0.6526693
-37.2147 7.629395e-06 -26.98913 -0.746163 0.02206845 -0.6653975 0.9000651 0.5009766
-37.2147 10.82302 -26.98913 -0.6276584 0.5538022 -0.547127 0.9000651 0.5100911
-37.2147 7.629395e-06 26.98913 -0.7246416 -0.01204932 0.6890206 0.9440104 0.5250651
-37.2147 10.82302 26.98913 -0.6127536 0.532299 0.5841155 0.9440104 0.5361328
3 0 1 2 
3 2 3 0 
3 4 5 6 
3 6 7 4 
3 8 9 10 
3 10 11 8 
3 12 13 14 
3 14 15 12 
3 16 17 18 
3 19 20 21 
3 22 23 24 
3 59 15 14 
3 14 25 59 
3 26 17 27 
3 27 28 26 
3 60 61 29 
3 29 62 60 
3 63 23 30 
3 30 64 63 
3 65 66 67 
3 67 68 65 
3 31 32 33 
3 33 34 31 
3 28 27 35 
3 35 36 28 
3 62 29 37 
3 37 69 62 
3 64 30 38 
3 38 70 64 
3 68 67 71 
3 71 72 68 
3 36 35 39 
3 39 40 36 
3 73 74 41 
3 41 75 73 
3 70 38 42 
3 42 76 70 
3 77 78 79 
3 79 80 77 
3 39 43 44 
3 44 40 39 
3 75 41 45 
3 45 81 75 
3 42 46 82 
3 82 76 42 
3 80 79 83 
3 83 84 80 
3 34 81 45 
3 45 31 34 
3 32 84 83 
3 83 33 32 
3 85 86 44 
3 44 43 85 
3 87 88 82 
3 82 46 87 
3 47 48 18 
3 89 7 6 
3 6 21 89 
3 11 10 49 
3 90 11 49 
3 91 92 93 
3 93 25 91 
3 1 94 95 
3 95 2 1 
3 2 95 16 
3 16 18 2 
3 47 50 3 
3 3 48 47 
3 3 50 51 
3 51 0 3 
3 48 3 2 
3 2 18 48 
3 17 26 47 
3 47 18 17 
3 96 97 52 
3 52 53 96 
3 52 97 19 
3 19 21 52 
3 21 6 52 
3 52 6 5 
3 5 53 52 
3 98 89 21 
3 20 98 21 
3 54 99 100 
3 100 55 54 
3 55 100 22 
3 22 24 55 
3 24 56 55 
3 55 56 57 
3 57 54 55 
3 9 57 56 
3 56 10 9 
3 10 56 24 
3 24 49 10 
3 24 90 49 
3 23 63 24 
3 90 24 63 
3 101 102 58 
3 58 13 101 
3 58 102 91 
3 91 25 58 
3 25 14 58 
3 58 14 13 
3 93 59 25 
