ply
format ascii 1.0
comment VCGLIB generated
comment TextureFile cemetery_halloween_atlas.tga
element vertex 99
property float x
property float y
property float z
property float nx
property float ny
property float nz
property float texture_u
property float texture_v
element face 98
property list uchar int vertex_indices
end_header
-0.04392814 7.629395e-06 -31.99726 0.4394431 -0.005056457 -0.8982562 0.9640707 0.5009766
0.04741478 7.938438 -31.99726 0.5528362 0.5397281 -0.6348746 0.9639863 0.5097656
32.57807 7.938438 -31.99727 0.5698039 0.5256305 -0.6316931 0.9339193 0.5097656
32.57807 7.629394e-06 -31.99727 0.6758991 -3.221504e-08 -0.7369941 0.9339193 0.5009766
-32.57772 7.629395e-06 31.99727 -0.7071066 4.423099e-08 0.707107 0.8896484 0.6220703
-32.57772 7.938438 31.99727 -0.5973864 0.521307 0.6094002 0.8896484 0.633138
-32.57773 7.938438 -31.99726 -0.665697 0.4899224 -0.5628707 0.8349609 0.633138
-32.57773 7.629395e-06 -31.99726 -0.7542348 -0.001054136 -0.6566039 0.8349609 0.6220703
0.7334995 7.629395e-06 31.99726 -0.4479872 0.3434142 0.8254539 0.8704731 0.5009766
-4.269023 7.938438 31.99726 0.2728963 0.6189311 0.7365134 0.8658245 0.5100911
35.15584 7.629395e-06 -2.245967 0.8453627 -0.01273653 0.5340409 0.9187373 0.5250651
35.15584 7.938438 -2.059769 0.7437479 0.4806718 0.4645359 0.9185792 0.5361328
-22.37716 12.24296 -12.77258 -0.2808961 0.9597134 -0.006902964 0.9835361 0.5224911
-18.48735 13.88441 -5.441587 -0.4817777 0.7509483 -0.451627 0.9794922 0.5273438
-12.20012 12.2313 -12.82466 0.1217789 0.9895881 0.07671622 0.9747658 0.5224566
-23.07805 11.94719 14.09353 -0.1994935 0.9734644 0.1121136 0.8747248 0.6463059
-18.48735 13.88441 5.441593 -0.4817778 0.7509483 0.451627 0.867513 0.6526693
22.58711 12.15452 13.16757 0.2882748 0.9546449 0.07450311 0.8892168 0.5225551
18.48773 13.88441 5.441587 0.4817781 0.7509475 0.4516277 0.8847656 0.5276693
1.241628 12.0576 13.6004 -0.006544766 0.9740614 0.2261892 0.8708075 0.5222687
22.49938 12.19154 -13.00223 0.1749544 0.9772677 -0.1197445 0.92841 0.5496376
18.48773 13.88441 -5.441593 0.4817781 0.7509477 -0.4516276 0.9222005 0.555013
22.53949 12.17461 -1.035645 0.439464 0.8961207 0.06196013 0.917757 0.5495839
-43.00941 85.60582 -5.441583 -0.7514154 0.3049811 -0.5851167 0.9990234 0.5758464
43.01001 85.60582 -5.441597 0.7514157 0.3049797 -0.5851169 0.9290364 0.5758464
-43.00941 85.60582 5.441597 -0.7514152 0.3049811 0.5851169 0.9322917 0.6334636
43.01001 85.60582 5.441583 0.751416 0.3049797 0.5851166 0.9046224 0.5761719
-10.84332 145.0356 5.441591 -0.2741165 0.7220129 0.6352617 0.9235026 0.6529948
10.84399 145.0356 5.441588 0.2741171 0.7220129 0.6352617 0.9453125 0.6529948
10.84399 145.0356 -5.441591 0.2741168 0.7220129 -0.6352617 0.9453125 0.6640625
-10.84332 145.0356 -5.441588 -0.2741168 0.7220129 -0.6352617 0.9235026 0.6640625
-21.4536 96.56159 -5.441586 -0.4199272 0.158571 -0.8935975 0.9817708 0.5849609
21.45425 96.56159 -5.441593 0.4199276 0.1585713 -0.8935972 0.9469401 0.5849609
-21.4536 96.56159 5.441593 -0.419927 0.158571 0.8935975 0.9078776 0.6334636
21.45425 96.56159 5.441586 0.4199278 0.1585713 0.8935971 0.8873698 0.5849609
-28.56294 114.4417 -5.441586 -0.7535824 -0.08341223 -0.6520398 0.9876302 0.5973307
28.56357 114.4417 -5.441594 0.7535821 -0.08341232 -0.6520402 0.9414062 0.5973307
-28.56294 114.4417 5.441594 -0.7535824 -0.08341222 0.6520398 0.8880208 0.6529948
28.56357 114.4417 5.441585 0.7535822 -0.08341228 0.6520401 0.8929036 0.5976562
-25.80375 131.7629 -5.441586 -0.674792 0.3699872 -0.638565 0.9853516 0.6100261
25.80441 131.7629 -5.441594 0.6747925 0.3699865 -0.6385649 0.9430339 0.6100261
-25.80375 131.7629 5.441594 -0.6747919 0.3699873 0.638565 0.9036458 0.6529948
25.80441 131.7629 5.441586 0.6747925 0.3699865 0.6385649 0.890625 0.6103516
0.06462006 9.343002 -25.72425 0.2706105 0.9550707 -0.1208721 0.9640453 0.5139179
32.57808 7.629395e-06 31.99726 0.7740688 -0.001090995 0.6331005 0.9000651 0.5009766
32.57808 7.938438 31.99726 0.6550885 0.5242773 0.5440518 0.9000651 0.5100911
3.32563 7.938438 35.22054 -0.415276 0.5588604 0.717789 0.8728819 0.5100911
2.397048 7.629395e-06 35.22054 -0.5333922 0.1033914 0.8395255 0.8720191 0.5009766
0.3422699 4.200983 28.58774 -0.1396612 0.7736974 0.6179702 0.8701096 0.5100911
29.67183 6.013372 0.009062767 0.6982762 0.3754104 0.6094896 0.9168217 0.5361328
29.67183 7.629395e-06 -0.2905493 0.8371038 -0.01776182 0.5467557 0.9170762 0.5250651
-3.772825 11.7072 -36.02185 0.3147804 0.6349833 -0.7054853 0.9670215 0.5097656
-3.210031 7.629395e-06 -36.02185 0.3753642 0.001020511 -0.9268768 0.966997 0.5009766
-4.089592 12.91484 -26.60374 0.3657751 0.9306285 0.01179567 0.9671525 0.5133358
-12.86433 15.12778 -16.7204 0.1516652 0.9681264 0.1993212 0.9748302 0.5198779
-32.57772 7.629395e-06 31.99727 -0.7071066 4.423099e-08 0.707107 0.8395182 0.5009766
-32.57772 7.938438 31.99727 -0.5973864 0.521307 0.6094002 0.8395182 0.5100911
32.57807 7.629394e-06 -31.99727 0.6758991 -3.221504e-08 -0.7369941 0.9440104 0.5250651
32.57807 7.938438 -31.99727 0.5698039 0.5256305 -0.6316931 0.9440104 0.5361328
-18.48735 13.88441 -5.441587 -0.4817777 0.7509483 -0.451627 0.8564453 0.6526693
-22.37716 12.24296 -12.77258 -0.2808961 0.9597134 -0.006902964 0.8505143 0.6472774
18.48773 13.88441 -5.441593 0.4817781 0.7509477 -0.4516276 0.9492188 0.5273438
-18.48735 13.88441 -5.441587 -0.4817777 0.7509483 -0.451627 0.9977214 0.6220703
-18.48735 13.88441 5.441593 -0.4817778 0.7509483 0.451627 0.9977214 0.6334636
-43.00941 85.60582 -5.441583 -0.7514154 0.3049811 -0.5851167 0.9322917 0.6220703
-18.48735 13.88441 5.441593 -0.4817778 0.7509483 0.451627 0.8548177 0.5276693
-43.00941 85.60582 5.441597 -0.7514152 0.3049811 0.5851169 0.8349609 0.5761719
18.48773 13.88441 5.441587 0.4817781 0.7509475 0.4516277 0.9977214 0.6370443
18.48773 13.88441 -5.441593 0.4817781 0.7509477 -0.4516276 0.9977214 0.648112
43.01001 85.60582 -5.441597 0.7514157 0.3049797 -0.5851169 0.9322917 0.648112
43.01001 85.60582 5.441583 0.751416 0.3049797 0.5851166 0.9322917 0.6370443
-21.4536 96.56159 -5.441586 -0.4199272 0.158571 -0.8935975 0.9078776 0.6220703
-21.4536 96.56159 5.441593 -0.419927 0.158571 0.8935975 0.8525391 0.5849609
21.45425 96.56159 -5.441593 0.4199276 0.1585713 -0.8935972 0.9078776 0.648112
21.45425 96.56159 5.441586 0.4199278 0.1585713 0.8935971 0.9078776 0.6370443
-21.4536 96.56159 -5.441586 -0.4199272 0.158571 -0.8935975 0.8704427 0.6640625
-21.4536 96.56159 5.441593 -0.419927 0.158571 0.8935975 0.8704427 0.6529948
-28.56294 114.4417 -5.441586 -0.7535824 -0.08341223 -0.6520398 0.8880208 0.6640625
-28.56294 114.4417 5.441594 -0.7535824 -0.08341222 0.6520398 0.8466797 0.5976562
21.45425 96.56159 5.441586 0.4199278 0.1585713 0.8935971 0.9980469 0.6529948
21.45425 96.56159 -5.441593 0.4199276 0.1585713 -0.8935972 0.9980469 0.6640625
28.56357 114.4417 -5.441594 0.7535821 -0.08341232 -0.6520402 0.9804688 0.6640625
28.56357 114.4417 5.441585 0.7535822 -0.08341228 0.6520401 0.9804688 0.6529948
-25.80375 131.7629 -5.441586 -0.674792 0.3699872 -0.638565 0.9036458 0.6640625
-25.80375 131.7629 5.441594 -0.6747919 0.3699873 0.638565 0.8489583 0.6103516
25.80441 131.7629 -5.441594 0.6747925 0.3699865 -0.6385649 0.9648438 0.6640625
25.80441 131.7629 5.441586 0.6747925 0.3699865 0.6385649 0.9648438 0.6529948
-10.84332 145.0356 -5.441588 -0.2741168 0.7220129 -0.6352617 0.9729818 0.6197917
10.84399 145.0356 -5.441591 0.2741168 0.7220129 -0.6352617 0.9554036 0.6197917
10.84399 145.0356 5.441588 0.2741171 0.7220129 0.6352617 0.8782552 0.6201172
-10.84332 145.0356 5.441591 -0.2741165 0.7220129 0.6352617 0.8610026 0.6201172
-23.07805 11.94719 14.09353 -0.1994935 0.9734644 0.1121136 0.8498331 0.5219423
22.49938 12.19154 -13.00223 0.1749544 0.9772677 -0.1197445 0.9448628 0.5223391
22.58711 12.15452 13.16757 0.2882748 0.9546449 0.07450311 0.905113 0.5495201
32.57808 7.938438 31.99726 0.6550885 0.5242773 0.5440518 0.8896484 0.5361328
32.57808 7.629395e-06 31.99726 0.7740688 -0.001090995 0.6331005 0.8896484 0.5250651
18.48773 13.88441 5.441587 0.4817781 0.7509475 0.4516277 0.9114583 0.555013
-32.57773 7.629395e-06 -31.99726 -0.7542348 -0.001054136 -0.6566039 0.9941406 0.5009766
-32.57773 7.938438 -31.99726 -0.665697 0.4899224 -0.5628707 0.9941406 0.5097656
3 0 1 2 
3 2 3 0 
3 4 5 6 
3 6 7 4 
3 55 8 9 
3 9 56 55 
3 10 57 58 
3 58 11 10 
3 12 13 14 
3 15 16 59 
3 59 60 15 
3 17 18 19 
3 20 21 22 
3 61 13 23 
3 23 24 61 
3 62 63 25 
3 25 64 62 
3 65 18 26 
3 26 66 65 
3 67 68 69 
3 69 70 67 
3 27 28 29 
3 29 30 27 
3 24 23 31 
3 31 32 24 
3 64 25 33 
3 33 71 64 
3 66 26 34 
3 34 72 66 
3 70 69 73 
3 73 74 70 
3 32 31 35 
3 35 36 32 
3 75 76 37 
3 37 77 75 
3 72 34 38 
3 38 78 72 
3 79 80 81 
3 81 82 79 
3 35 39 40 
3 40 36 35 
3 77 37 41 
3 41 83 77 
3 38 42 84 
3 84 78 38 
3 82 81 85 
3 85 86 82 
3 30 83 41 
3 41 27 30 
3 28 86 85 
3 85 29 28 
3 87 88 40 
3 40 39 87 
3 89 90 84 
3 84 42 89 
3 91 56 9 
3 9 19 91 
3 11 58 20 
3 20 22 11 
3 92 43 14 
3 60 6 5 
3 5 15 60 
3 44 45 46 
3 46 47 44 
3 46 45 17 
3 17 19 46 
3 19 48 46 
3 48 8 47 
3 47 46 48 
3 8 48 9 
3 9 48 19 
3 65 91 19 
3 18 65 19 
3 93 94 49 
3 49 22 93 
3 49 94 95 
3 95 50 49 
3 22 49 11 
3 11 49 50 
3 50 10 11 
3 96 93 22 
3 21 96 22 
3 97 98 51 
3 51 52 97 
3 53 98 54 
3 54 12 14 
3 53 54 14 
3 14 43 53 
3 53 43 1 
3 1 51 53 
3 1 0 52 
3 52 51 1 
3 98 12 54 
3 53 51 98 
3 13 61 92 
3 92 14 13 
3 92 2 1 
3 1 43 92 
