ply
format ascii 1.0
comment VCGLIB generated
comment TextureFile cemetery_halloween_atlas.tga
element vertex 210
property float x
property float y
property float z
property float nx
property float ny
property float nz
property float texture_u
property float texture_v
element face 215
property list uchar int vertex_indices
end_header
11.70923 249.6066 13.57104 0.3384987 0.7064608 0.621556 0.9670094 0.8744203
11.70923 249.6066 -13.57109 0.3384986 0.7064607 -0.6215562 0.9962096 0.8744205
-11.70924 249.6066 -13.57109 -0.3384986 0.7064607 -0.6215562 0.9962096 0.8492272
-11.70924 249.6066 13.57104 -0.3384986 0.7064608 0.621556 0.9670097 0.8492272
15.28902 17.57326 77.85063 -0.1418315 0.6991245 0.7007916 0.7156436 0.7091972
-0.4954281 10.09088 70.46446 0.1913454 0.6910492 0.6970208 0.7280242 0.7091988
-0.6689567 6.805918e-06 77.85063 0.03179955 0.225358 0.973757 0.7275878 0.6959667
-65.5415 -3.681458e-06 -42.11097 -0.785688 2.704087e-08 0.618623 0.8890587 0.695912
-65.5415 3.681457e-06 42.11096 -0.785688 -2.704087e-08 -0.618623 0.8202975 0.695912
-65.5415 17.57326 42.11096 -0.3794336 0.875658 -0.2987529 0.8202975 0.7130905
-65.5415 17.57325 -42.11097 -0.4448075 0.8641664 0.2352928 0.8890587 0.7130904
65.54149 3.681457e-06 42.11096 0.785688 -2.704087e-08 -0.618623 0.887439 0.6687872
65.54149 -3.681458e-06 -42.11097 0.785688 2.704087e-08 0.618623 0.8190005 0.6687872
65.54149 17.57325 -42.11097 0.3794335 0.8756581 0.2987528 0.8190005 0.685882
65.54149 17.57326 42.11096 0.3794337 0.8756579 -0.298753 0.887439 0.6858821
-1.456506 17.57326 60.63629 0.02363417 0.7660384 0.6423602 0.7281773 0.722047
-77.85064 17.57326 45.08174 -0.6338863 0.5908364 -0.4990997 0.8117958 0.7092534
-77.85064 17.57326 77.85063 -0.5773503 0.5773503 0.5773503 0.785356 0.7092065
-60.06956 17.57326 60.06956 -0.3046696 0.9033995 0.301738 0.804855 0.7205458
77.85062 17.57325 -45.08175 0.6338863 0.5908365 0.4990996 0.8105389 0.682066
77.85062 17.57325 -77.85065 0.5936112 0.5807614 -0.5570835 0.7842231 0.6820034
60.06955 17.57324 -60.06956 0.3015113 0.904534 -0.3015114 0.8037205 0.6933025
60.06955 35.14649 60.06955 0.5825663 0.576763 0.5726789 0.670014 0.7377785
24.9552 35.14649 61.46616 -0.2816181 0.6513675 0.7045649 0.6939152 0.7377786
18.96863 17.57325 60.44814 -0.08235925 0.7789225 0.6216887 0.697947 0.7258171
60.06955 17.57326 60.06956 0.3045198 0.9034534 0.3017279 0.670014 0.725817
-60.06956 35.14649 60.06955 -0.5790029 0.5782033 0.5748361 0.7517889 0.7377787
-60.06956 35.14648 -60.06957 -0.5893412 0.5730133 -0.5695023 0.8335641 0.7377788
-60.06956 17.57324 -60.06956 -0.3393788 0.842357 -0.4186369 0.8335641 0.7258173
16.60593 25.71902 -55.57323 -0.4301766 0.4889151 -0.7588874 0.8857554 0.7377787
22.44839 35.14648 -60.06956 -0.3419699 0.6573936 -0.6714836 0.8897322 0.7377786
18.65047 17.57324 -60.06956 -0.1007916 0.7923678 -0.6016597 0.8871471 0.7258171
60.06955 35.14648 -60.06957 0.5773503 0.5773502 -0.5773503 0.9153402 0.7377785
41.68414 35.1465 44.01977 0.2037802 0.957206 0.2055003 0.6825283 0.7487032
18.49874 35.1465 44.01977 -0.09544785 0.7028598 0.7048956 0.6983098 0.7487032
-41.68415 35.1465 44.01977 -0.2037802 0.957206 0.2055003 0.7627135 0.7502931
-41.68415 35.14649 -0.01829147 -0.7124231 0.6863177 0.1463601 0.7926887 0.7502931
-41.68415 35.14649 -44.01979 -0.2904221 0.9031887 -0.3160778 0.822639 0.7502933
15.92252 35.14649 -44.01979 -0.07825617 0.6536592 -0.7527322 0.8852904 0.7487033
41.68414 35.14649 -0.330368 0.6255038 0.7747712 0.09205759 0.9560031 0.7502928
35.73544 52.71974 37.73775 0.52013 0.6701866 0.5294476 0.8246012 0.7693655
-35.73544 52.71974 37.73775 -0.5201299 0.6701865 0.5294477 0.9000301 0.7693655
-15.36423 35.1465 44.01977 0.09337448 0.6947615 0.7131533 0.8762168 0.7512364
-38.70689 43.94169 3.110166 -0.9082342 0.4039402 0.1092839 0.939887 0.7602965
-44.16306 41.32894 -0.04622459 -0.8770614 0.2702962 0.3971189 0.942625 0.7576099
38.53539 44.44831 -40.6946 0.6375486 0.4412078 -0.6315596 0.7449462 0.7608325
41.68414 35.14649 -44.01979 0.2078153 0.9507733 -0.2298759 0.7449462 0.7512364
-42.20673 42.13012 -43.61838 -0.6575441 0.4369269 -0.6137839 0.6695174 0.7584355
-21.30098 35.14649 -44.01979 0.08566219 0.6279765 -0.7735034 0.6879594 0.7512163
24.057 61.75394 13.57106 0.5587209 0.73838 0.3776587 0.8388773 0.7891265
-24.05701 61.75394 13.57106 -0.5587209 0.7383799 0.3776587 0.8857542 0.7891265
-24.05701 61.75394 -13.57108 -0.5587209 0.7383798 -0.3776589 0.9530796 0.7891265
-35.73544 52.71973 -37.73776 -0.52013 0.6701866 -0.5294476 0.9796852 0.7693388
24.057 61.75394 -13.57108 0.5587209 0.7383798 -0.3776589 0.7306702 0.7891265
35.73544 52.71973 -37.73776 0.5201298 0.6701866 -0.5294476 0.7449462 0.7693655
15.73115 118.0405 13.57105 0.6879435 0.05060472 0.723998 0.7587081 0.8564498
-15.73116 118.0405 13.57105 -0.6879434 0.05060473 0.723998 0.7248607 0.8566554
-15.73116 118.0405 -13.57108 -0.6879434 0.0506046 -0.723998 0.9258912 0.8499905
15.73115 118.0405 -13.57108 0.6879434 0.05060459 -0.723998 0.908325 0.8561155
-20.5468 238.6139 13.57104 -0.7488196 0.2103229 0.6285169 0.7204673 0.9864017
-15.73116 201.6379 13.57104 -0.2500246 0.2534287 0.9344847 0.7254074 0.9465911
15.73115 201.6379 13.57104 0.2500246 0.2534288 0.9344847 0.759254 0.9463858
20.54679 238.6139 13.57104 0.7488196 0.2103228 0.6285169 0.7646763 0.9861337
-20.5468 238.6139 -13.57109 -0.7488196 0.2103227 -0.6285169 0.9962096 0.8340536
-15.73116 201.6379 -13.57109 -0.2500246 0.2534286 -0.9344847 0.9962096 0.793938
20.54679 238.6139 -13.57109 0.7488196 0.2103228 -0.6285169 0.9130521 0.985849
15.73115 201.6379 -13.57109 0.2500247 0.2534286 -0.9344847 0.9080097 0.9460517
-15.73116 171.8655 13.57105 -0.2554223 -0.2948419 0.9207757 0.725212 0.9145616
15.73115 171.8655 13.57105 0.2554222 -0.2948419 0.9207757 0.7590603 0.9143561
-66.45847 177.0315 -13.57109 -0.7030356 -0.3496252 -0.6192764 0.8111265 0.8395908
-66.45847 177.0315 13.57105 -0.7030356 -0.3496251 0.6192764 0.8413983 0.8395908
-66.45847 196.4718 13.57104 -0.7030358 0.3496247 0.6192765 0.8413983 0.8567708
-66.45847 196.4718 -13.57109 -0.7030357 0.3496245 -0.6192765 0.8111265 0.8567708
15.73115 171.8655 -13.57109 0.2554222 -0.294842 -0.9207757 0.9081225 0.9140221
-15.73116 171.8655 -13.57109 -0.2554222 -0.294842 -0.9207757 0.8742734 0.9139037
66.45845 177.0315 13.57105 0.7030357 -0.3496251 0.6192765 0.8044876 0.8401849
66.45845 177.0315 -13.57109 0.7030357 -0.3496251 -0.6192764 0.7742168 0.8401843
66.45845 196.4718 -13.57109 0.7030358 0.3496245 -0.6192766 0.7742165 0.8573631
66.45845 196.4718 13.57104 0.7030358 0.3496246 0.6192765 0.8044874 0.8573636
-52.61322 166.554 13.57105 -0.193969 -0.7521376 0.6298136 0.8413983 0.8242465
-52.61322 166.554 -13.57108 -0.193969 -0.7521377 -0.6298134 0.8111264 0.8242465
-52.61322 206.9494 -13.57109 -0.1939697 0.7521375 -0.6298135 0.8344665 0.9515144
-52.61322 206.9494 13.57104 -0.1939698 0.7521376 0.6298133 0.8413983 0.8721146
52.61321 166.554 -13.57108 0.1939692 -0.7521377 -0.6298134 0.7742182 0.824841
52.61321 166.554 13.57105 0.1939691 -0.7521376 0.6298136 0.8044893 0.8248426
52.61321 206.9494 13.57104 0.1939698 0.7521376 0.6298133 0.7989658 0.9518614
52.61321 206.9494 -13.57109 0.1939698 0.7521375 -0.6298134 0.7742155 0.8727059
-77.85064 -6.80592e-06 -77.85065 -0.7071068 -3.090862e-08 -0.7071068 0.9240003 0.695912
-77.85064 -3.941172e-06 -45.08175 -0.785688 2.704087e-08 0.618623 0.8975602 0.695912
-77.85064 13.66755 -45.08175 -0.7148197 0.4795626 0.5089719 0.8975602 0.7092534
-77.85064 13.66755 -77.85065 -0.5921515 0.5341681 -0.6033417 0.9240003 0.7092534
-77.85064 3.941171e-06 45.08174 -0.785688 -2.704087e-08 -0.618623 0.8117958 0.695912
-77.85064 6.805918e-06 77.85063 -0.7071068 3.090862e-08 0.7071068 0.785356 0.6959589
77.85062 6.805918e-06 77.85063 0.7071067 3.090862e-08 0.7071068 0.9222165 0.6688185
77.85062 3.941171e-06 45.08174 0.785688 -2.704087e-08 -0.618623 0.8959006 0.6687872
77.85062 17.57326 45.08174 0.6338863 0.5908363 -0.4990998 0.8959006 0.682066
77.85062 17.57326 77.85063 0.5773503 0.5773504 0.5773503 0.9222165 0.6820347
77.85062 -3.941172e-06 -45.08175 0.785688 2.704087e-08 0.618623 0.8105389 0.6687872
77.85062 -6.80592e-06 -77.85065 0.7291666 -0.0001633495 -0.6843362 0.7842231 0.6688498
-7.416395 17.57326 77.85063 0.3267144 0.6702988 0.6663013 0.732638 0.7091994
-18.30085 17.57326 60.47342 0.07460763 0.7793252 0.6221623 0.7407848 0.7221686
-16.27914 27.61186 56.15777 0.4761368 0.4953316 0.726595 0.7219821 0.7377787
17.55098 27.61186 56.15778 -0.4284662 0.5617384 0.7077194 0.698955 0.7377786
-21.33136 35.14649 60.06955 0.345733 0.6637342 0.6632689 0.725421 0.7377787
3.819328 17.57325 -82.55551 -0.350571 0.6566761 -0.6677399 0.7317931 0.681975
2.298507 17.57324 -60.06956 -0.06057019 0.8161178 -0.5747026 0.7282122 0.6951243
3.370999 -6.67572e-06 -82.55551 -0.33516 -0.010033 -0.9421078 0.7290073 0.6688797
-2.113739 11.1833 -77.85065 -0.4798705 0.5008745 -0.7203118 0.7249411 0.6819713
-1.529945 -6.80592e-06 -77.85065 -0.3837266 -0.02003142 -0.9232295 0.725374 0.6688818
-20.6821 17.57324 -60.06956 0.05575563 0.5595017 -0.8269517 0.7111754 0.6951243
-27.00964 35.14648 -64.22009 0.2449598 0.5863039 -0.7721674 0.8560672 0.7377788
-19.95958 27.5773 -60.06956 0.4410093 0.3865987 -0.8099706 0.8608661 0.7377788
38.396 44.86007 -2.529521 0.8682104 0.4720073 0.1530357 0.7850693 0.7612573
38.53423 44.45174 -40.37666 0.9343879 0.3541091 -0.03906461 0.7452804 0.760836
43.5753 43.89194 -6.403296 0.8140565 0.5437884 0.2039761 0.7820853 0.7577778
-38.5612 44.37208 -40.72186 -0.4008359 0.7918701 -0.4607303 0.9796852 0.7607525
-60.06956 17.57326 60.06956 -0.3046696 0.9033995 0.301738 0.7517889 0.7258173
60.06955 17.57324 -60.06956 0.3015113 0.904534 -0.3015114 0.9153401 0.725817
60.06955 35.14649 60.06955 0.5825663 0.576763 0.5726789 0.997115 0.7377783
60.06955 17.57326 60.06956 0.3045198 0.9034534 0.3017279 0.9971149 0.7258168
41.68414 35.1465 44.01977 0.2037802 0.957206 0.2055003 0.8246012 0.7512364
-41.68415 35.1465 44.01977 -0.2037802 0.957206 0.2055003 0.9000301 0.7512364
18.49874 35.1465 44.01977 -0.09544785 0.7028598 0.7048956 0.8455787 0.7512364
-41.68415 35.14649 -0.01829147 -0.7124231 0.6863177 0.1463601 0.9398742 0.7512498
15.92252 35.14649 -44.01979 -0.07825617 0.6536592 -0.7527322 0.721638 0.7512282
-41.68415 35.14649 -44.01979 -0.2904221 0.9031887 -0.3160778 0.6695174 0.7512097
-24.05701 61.75394 13.57106 -0.5587209 0.7383799 0.3776587 0.9266357 0.7891265
-35.73544 52.71973 -37.73776 -0.52013 0.6701866 -0.5294476 0.6695174 0.7693922
-24.05701 61.75394 -13.57108 -0.5587209 0.7383798 -0.3776589 0.6837934 0.7891265
24.057 61.75394 -13.57108 0.5587209 0.7383798 -0.3776589 0.7715517 0.7891265
24.057 61.75394 13.57106 0.5587209 0.73838 0.3776587 0.7979958 0.7891265
-24.05701 61.75394 13.57106 -0.5587209 0.7383799 0.3776587 0.7155355 0.7961551
24.057 61.75394 13.57106 0.5587209 0.73838 0.3776587 0.7672972 0.7958406
-24.05701 61.75394 -13.57108 -0.5587209 0.7383798 -0.3776589 0.9258912 0.7934378
-24.05701 61.75394 13.57106 -0.5587209 0.7383799 0.3776587 0.9528678 0.7934378
-15.73116 118.0405 13.57105 -0.6879434 0.05060473 0.723998 0.9528679 0.8499905
24.057 61.75394 -13.57108 0.5587209 0.7383798 -0.3776589 0.9174945 0.7955922
-24.05701 61.75394 -13.57108 -0.5587209 0.7383798 -0.3776589 0.8657323 0.7954109
-15.73116 118.0405 -13.57108 -0.6879434 0.0506046 -0.723998 0.874477 0.8559968
24.057 61.75394 13.57106 0.5587209 0.73838 0.3776587 0.7052031 0.7943115
24.057 61.75394 -13.57108 0.5587209 0.7383798 -0.3776589 0.6782269 0.7943114
15.73115 118.0405 -13.57108 0.6879434 0.05060459 -0.723998 0.6782264 0.8508627
15.73115 118.0405 13.57105 0.6879435 0.05060472 0.723998 0.7052025 0.8508627
-15.73116 201.6379 13.57104 -0.2500246 0.2534287 0.9344847 0.9670094 0.793938
-20.5468 238.6139 13.57104 -0.7488196 0.2103229 0.6285169 0.9670094 0.8340536
-15.73116 201.6379 -13.57109 -0.2500246 0.2534286 -0.9344847 0.8741628 0.9459338
-20.5468 238.6139 -13.57109 -0.7488196 0.2103227 -0.6285169 0.8688427 0.9856949
20.54679 238.6139 13.57104 0.7488196 0.2103228 0.6285169 0.9670094 0.8895938
15.73115 201.6379 13.57104 0.2500246 0.2534288 0.9344847 0.9670094 0.9297094
15.73115 201.6379 -13.57109 0.2500247 0.2534286 -0.9344847 0.9962096 0.9297094
20.54679 238.6139 -13.57109 0.7488196 0.2103228 -0.6285169 0.9962096 0.8895938
-15.73116 171.8655 13.57105 -0.2554223 -0.2948419 0.9207757 0.841398 0.7913164
-15.73116 171.8655 -13.57109 -0.2554222 -0.294842 -0.9207757 0.8111262 0.7913165
-52.61322 166.554 -13.57108 -0.193969 -0.7521377 -0.6298134 0.8346128 0.9080561
-15.73116 201.6379 -13.57109 -0.2500246 0.2534286 -0.9344847 0.8111265 0.905044
-52.61322 206.9494 -13.57109 -0.1939697 0.7521375 -0.6298135 0.8111265 0.8721146
-15.73116 201.6379 13.57104 -0.2500246 0.2534287 0.9344847 0.8413983 0.9050441
-52.61322 206.9494 13.57104 -0.1939698 0.7521376 0.6298133 0.6857654 0.9525487
-52.61322 166.554 13.57105 -0.193969 -0.7521376 0.6298136 0.685498 0.909091
15.73115 171.8655 -13.57109 0.2554222 -0.294842 -0.9207757 0.774222 0.7919124
15.73115 171.8655 13.57105 0.2554222 -0.2948419 0.9207757 0.8044928 0.7919133
52.61321 166.554 13.57105 0.1939691 -0.7521376 0.6298136 0.7987047 0.9084035
15.73115 201.6379 13.57104 0.2500246 0.2534288 0.9344847 0.8044835 0.9056365
52.61321 206.9494 13.57104 0.1939698 0.7521376 0.6298133 0.8044862 0.8727072
15.73115 201.6379 -13.57109 0.2500247 0.2534286 -0.9344847 0.7742127 0.9056351
52.61321 206.9494 -13.57109 0.1939698 0.7521375 -0.6298134 0.9476664 0.9519091
52.61321 166.554 -13.57108 0.1939692 -0.7521377 -0.6298134 0.9478229 0.9084507
-66.45847 177.0315 -13.57109 -0.7030356 -0.3496252 -0.6192764 0.8196796 0.9192783
-66.45847 196.4718 -13.57109 -0.7030357 0.3496245 -0.6192765 0.8196096 0.9401926
-66.45847 196.4718 13.57104 -0.7030358 0.3496247 0.6192765 0.6708015 0.9413687
-66.45847 177.0315 13.57105 -0.7030356 -0.3496251 0.6192764 0.6706724 0.9204546
66.45845 177.0315 13.57105 0.7030357 -0.3496251 0.6192765 0.8136674 0.9195859
66.45845 196.4718 13.57104 0.7030358 0.3496246 0.6192765 0.8137929 0.9405001
66.45845 196.4718 -13.57109 0.7030358 0.3496245 -0.6192766 0.9626021 0.940691
66.45845 177.0315 -13.57109 0.7030357 -0.3496251 -0.6192764 0.9626775 0.9197766
11.70923 249.6066 13.57104 0.3384987 0.7064608 0.621556 0.7552405 0.9980174
-11.70924 249.6066 13.57104 -0.3384986 0.7064608 0.621556 0.7300467 0.9981702
-11.70924 249.6066 -13.57109 -0.3384986 0.7064607 -0.6215562 0.8783091 0.9975539
11.70923 249.6066 -13.57109 0.3384986 0.7064607 -0.6215562 0.9035032 0.9976417
-15.73116 171.8655 -13.57109 -0.2554222 -0.294842 -0.9207757 0.9258913 0.9034877
-15.73116 171.8655 13.57105 -0.2554223 -0.2948419 0.9207757 0.9528682 0.9034877
15.73115 171.8655 13.57105 0.2554222 -0.2948419 0.9207757 0.705202 0.9043592
15.73115 171.8655 -13.57109 0.2554222 -0.294842 -0.9207757 0.678226 0.9043582
60.06955 17.57326 60.06956 0.3045198 0.9034534 0.3017279 0.9028089 0.6933024
-60.06956 17.57324 -60.06956 -0.3393788 0.842357 -0.4186369 0.9044109 0.7205459
77.85062 17.57326 77.85063 0.5773503 0.5773504 0.5773503 0.6688182 0.7091908
77.85062 6.805918e-06 77.85063 0.7071067 3.090862e-08 0.7071068 0.6688182 0.6959746
18.96863 17.57325 60.44814 -0.08235925 0.7789225 0.6216887 0.7128897 0.7221874
-15.36423 35.1465 44.01977 0.09337448 0.6947615 0.7131533 0.7213593 0.7487032
-1.456506 17.57326 60.63629 0.02363417 0.7660384 0.6423602 0.7118284 0.7258171
-41.68415 35.1465 44.01977 -0.2037802 0.957206 0.2055003 0.7392744 0.7487032
-18.30085 17.57326 60.47342 0.07460763 0.7793252 0.6221623 0.7233124 0.7258171
60.06955 17.57326 60.06956 0.3045198 0.9034534 0.3017279 0.6821269 0.72247
-60.06956 17.57326 60.06956 -0.3046696 0.9033995 0.301738 0.7720474 0.72247
18.65047 17.57324 -60.06956 -0.1007916 0.7923678 -0.6016597 0.7403349 0.6951243
60.06955 17.57324 -60.06956 0.3015113 0.904534 -0.3015114 0.7710411 0.6951243
-77.85064 -6.80592e-06 -77.85065 -0.7071068 -3.090862e-08 -0.7071068 0.6687933 0.6689124
-77.85064 13.66755 -77.85065 -0.5921515 0.5341681 -0.6033417 0.6687933 0.6819409
-60.06956 17.57324 -60.06956 -0.3393788 0.842357 -0.4186369 0.6819753 0.6951243
-20.6821 17.57324 -60.06956 0.05575563 0.5595017 -0.8269517 0.8603742 0.7258172
-41.68415 35.14649 -44.01979 -0.2904221 0.9031887 -0.3160778 0.8460794 0.7487033
-21.30098 35.14649 -44.01979 0.08566219 0.6279765 -0.7735034 0.8599535 0.7487033
41.68414 35.14649 -44.01979 0.2078153 0.9507733 -0.2298759 0.9028255 0.7487033
2.298507 17.57324 -60.06956 -0.06057019 0.8161178 -0.5747026 0.8760166 0.7258171
41.68414 35.14649 -0.330368 0.6255038 0.7747712 0.09205759 0.7844748 0.7512364
41.68414 35.1465 44.01977 0.2037802 0.957206 0.2055003 0.9861909 0.7502927
41.68414 35.14649 -44.01979 0.2078153 0.9507733 -0.2298759 0.9262651 0.750293
-42.20673 42.13012 -43.61838 -0.6575441 0.4369269 -0.6137839 0.9796852 0.7584465
-41.68415 35.14649 -44.01979 -0.2904221 0.9031887 -0.3160778 0.9796852 0.7512631
-38.5612 44.37208 -40.72186 -0.4008359 0.7918701 -0.4607303 0.6695174 0.7607552
3 0 1 2 
3 2 3 0 
3 4 5 6 
3 7 8 9 
3 9 10 7 
3 11 12 13 
3 13 14 11 
3 15 5 4 
3 16 17 18 
3 18 9 16 
3 19 20 21 
3 21 13 19 
3 22 23 24 
3 24 25 22 
3 116 26 27 
3 27 28 116 
3 29 30 31 
3 117 32 118 
3 118 119 117 
3 33 34 23 
3 23 22 33 
3 26 35 36 
3 26 36 37 
3 26 37 27 
3 38 30 29 
3 32 39 118 
3 120 40 41 
3 41 121 42 
3 41 42 122 
3 120 41 122 
3 43 44 123 
3 45 46 124 
3 47 45 124 
3 47 124 48 
3 125 47 48 
3 40 49 50 
3 50 41 40 
3 41 126 51 
3 51 52 41 
3 127 128 53 
3 53 54 127 
3 54 129 130 
3 130 40 54 
3 131 132 55 
3 55 56 131 
3 133 134 135 
3 135 57 133 
3 136 137 138 
3 138 58 136 
3 139 140 141 
3 141 142 139 
3 59 60 61 
3 61 62 59 
3 63 64 143 
3 143 144 63 
3 65 66 145 
3 145 146 65 
3 147 148 149 
3 149 150 147 
3 67 68 61 
3 61 60 67 
3 69 70 71 
3 71 72 69 
3 73 74 145 
3 145 66 73 
3 75 76 77 
3 77 78 75 
3 151 79 80 
3 80 152 151 
3 74 153 81 
3 81 145 74 
3 154 155 82 
3 82 156 154 
3 60 157 158 
3 158 67 60 
3 159 83 84 
3 84 160 159 
3 68 161 85 
3 85 61 68 
3 162 163 86 
3 86 164 162 
3 66 165 166 
3 166 73 66 
3 79 70 69 
3 69 80 79 
3 153 167 168 
3 168 81 153 
3 155 72 71 
3 71 82 155 
3 157 169 170 
3 170 158 157 
3 83 76 75 
3 75 84 83 
3 161 171 172 
3 172 85 161 
3 163 78 77 
3 77 86 163 
3 165 173 174 
3 174 166 165 
3 62 175 176 
3 176 59 62 
3 144 3 2 
3 2 63 144 
3 146 177 178 
3 178 65 146 
3 150 1 0 
3 0 147 150 
3 67 56 55 
3 55 68 67 
3 179 57 135 
3 135 180 179 
3 73 58 138 
3 138 74 73 
3 181 142 141 
3 141 182 181 
3 87 88 89 
3 89 90 87 
3 17 16 91 
3 91 92 17 
3 93 94 95 
3 95 96 93 
3 20 19 97 
3 97 98 20 
3 7 10 89 
3 89 88 7 
3 9 8 91 
3 91 16 9 
3 11 14 95 
3 95 94 11 
3 13 12 97 
3 97 19 13 
3 13 21 183 
3 183 14 13 
3 14 183 96 
3 96 95 14 
3 9 18 184 
3 184 10 9 
3 10 184 90 
3 90 89 10 
3 99 5 15 
3 5 99 6 
3 185 4 6 
3 6 186 185 
3 4 187 15 
3 15 100 99 
3 99 17 92 
3 92 6 99 
3 188 101 102 
3 102 34 188 
3 102 189 24 
3 190 26 103 
3 103 188 190 
3 26 116 191 
3 191 103 26 
3 191 101 103 
3 103 101 188 
3 34 102 23 
3 23 102 24 
3 4 185 192 
3 192 187 4 
3 193 17 99 
3 99 100 193 
3 101 191 189 
3 102 101 189 
3 194 195 20 
3 194 20 104 
3 105 194 104 
3 104 20 98 
3 98 106 104 
3 196 197 107 
3 107 108 196 
3 107 197 198 
3 107 198 109 
3 107 109 105 
3 27 110 199 
3 199 28 27 
3 110 27 200 
3 200 201 110 
3 38 29 111 
3 111 201 38 
3 111 29 199 
3 201 111 110 
3 110 111 199 
3 202 32 30 
3 30 38 202 
3 32 117 31 
3 31 30 32 
3 29 203 199 
3 106 108 107 
3 107 104 106 
3 104 107 105 
3 29 31 203 
3 54 40 112 
3 54 112 113 
3 45 54 113 
3 112 114 113 
3 46 45 113 
3 113 114 46 
3 114 112 204 
3 120 204 112 
3 112 40 120 
3 114 204 46 
3 39 205 118 
3 32 206 39 
3 123 121 41 
3 41 43 123 
3 207 208 123 
3 123 44 207 
3 115 207 44 
3 44 43 115 
3 52 115 43 
3 43 41 52 
3 127 54 45 
3 45 209 127 
3 47 209 45 
