ply
format ascii 1.0
comment VCGLIB generated
comment TextureFile cemetery_halloween_atlas.tga
element vertex 155
property float x
property float y
property float z
property float nx
property float ny
property float nz
property float texture_u
property float texture_v
element face 134
property list uchar int vertex_indices
end_header
-30.74838 49.74511 5.441595 -0.672878 0.4810595 0.561976 0.9651693 0.6334636
-30.74838 49.74511 -5.441585 -0.6728781 0.4810593 -0.561976 0.9651693 0.6220703
-18.48735 13.88441 -5.441582 -0.5969416 0.6394691 -0.4844998 0.9977214 0.6220703
-18.48735 13.88441 5.441597 -0.616799 0.6314536 0.4699207 0.9977214 0.6334636
18.48773 13.88441 5.441597 0.4817786 0.7509474 0.4516276 0.9977214 0.6370443
18.48773 13.88441 -5.441582 0.4817786 0.7509472 -0.4516278 0.9977214 0.648112
24.6183 31.81476 -5.441594 0.7709565 0.2164587 -0.5989756 0.9814453 0.648112
24.6183 31.81476 5.441586 0.7709568 0.216459 0.5989751 0.9814453 0.6370443
-15.37407 49.74511 -5.441587 0.3264433 0.709923 -0.6240546 0.9765625 0.5517578
0.0002166161 31.81476 -5.44159 0.06569348 0.4542568 -0.8884454 0.9641927 0.539388
0.0002182594 31.81476 5.44159 0.06569366 0.4542573 0.8884451 0.8697917 0.5400391
13.84191 40.77994 5.441588 0.04785937 0.8023557 0.5949243 0.8808594 0.5462239
-15.37407 49.74511 5.441592 0.3264436 0.7099231 0.6240544 0.9192708 0.616862
13.84191 40.77994 -5.441592 0.04785913 0.8023556 -0.5949244 0.9140625 0.6057943
46.16345 21.46233 -54.83926 0.8861508 -0.4466853 -0.1233247 0.9322917 0.648112
43.63276 31.58637 -57.92841 0.6119729 0.6472608 -0.4544696 0.9322917 0.6370443
22.08735 41.93896 -6.349815 -0.06138814 0.7958233 0.6024091 0.9814453 0.6370443
24.61805 31.81492 -3.260651 0.257142 -0.2687434 0.9282538 0.9814453 0.648112
-4.522199 2.161118 -114.9138 -0.3639533 0.3256508 -0.8726337 0.9235026 0.6529948
16.51775 7.420433 -114.9138 0.1679153 0.458601 -0.8726338 0.9453125 0.6529948
19.04843 -2.703613 -111.8247 0.4633525 -0.7232997 -0.5119981 0.9453125 0.6640625
-1.991512 -7.962925 -111.8247 -0.06851583 -0.8562497 -0.5119982 0.9235026 0.6640625
-37.28827 0.6020584 -54.83924 -0.5719337 -0.8105101 -0.1263532 0.9990234 0.5758464
-15.62176 2.812542 -65.34441 -0.1886871 -0.9767678 0.1015967 0.9817708 0.5849609
26.00528 13.21797 -65.34441 0.6260982 -0.7730972 0.1015963 0.9469401 0.5849609
-39.81896 10.7261 -57.9284 -0.8440505 0.2780963 -0.4585207 0.9322917 0.6334636
-18.15245 12.93659 -68.43356 -0.604267 0.6857648 -0.4056944 0.9078776 0.6334636
23.47459 23.34202 -68.43356 0.2105176 0.8894348 -0.4056948 0.8873698 0.5849609
-21.28812 -3.835251 -82.48909 -0.5852093 -0.7663371 0.2650616 0.9876302 0.5973307
34.13315 10.0183 -82.4891 0.8769662 -0.4008401 0.2650613 0.9414062 0.5973307
-23.81881 6.288792 -85.57825 -0.8884497 0.4467789 -0.1050983 0.8880208 0.6529948
31.60246 20.14234 -85.57826 0.5737256 0.8122765 -0.1050988 0.8929036 0.5976562
-17.419 -7.935944 -99.09784 -0.4806945 -0.8595496 -0.1735145 0.9853516 0.6100261
32.64865 4.579369 -99.09785 0.8286045 -0.5322664 -0.173514 0.9430339 0.6100261
-19.94969 2.188099 -102.187 -0.7776682 0.3284966 -0.5360245 0.9036458 0.6529948
30.11796 14.70341 -102.187 0.5316308 0.6557798 -0.5360239 0.890625 0.6103516
-27.8617 13.45057 -20.4535 -0.3589655 -0.4884748 0.7953214 0.9651693 0.6220703
-30.39239 23.57462 -23.54267 -0.6364605 0.6216471 0.4565883 0.9651693 0.6334636
14.04151 29.68891 -8.411779 0.3205124 -0.06230218 0.9451933 0.953125 0.5455729
-15.477 27.30299 -23.54267 -0.444378 0.8514696 0.2784381 0.8570964 0.5520833
12.98869 33.90073 -18.39155 -0.2367916 0.9697533 -0.05923101 0.8808594 0.5462239
-1.795871 35.96892 -6.349811 -0.3316163 0.7744901 0.5386983 0.8697917 0.5400391
-12.94631 17.17894 -20.4535 -0.08224892 -0.6710325 0.7368518 0.9212239 0.6162109
0.734817 25.84487 -3.260647 -0.09766953 -0.3985994 0.9119096 0.8968099 0.6162109
-0.04394531 6.67572e-06 31.99728 0.4394428 -0.005056157 0.8982564 0.9640707 0.5009766
32.57806 6.67572e-06 31.99728 0.6758989 3.221505e-08 0.7369944 0.9339193 0.5009766
32.57806 7.938437 31.99728 0.5698037 0.5256305 0.6316933 0.9339193 0.5097656
0.0473938 7.938437 31.99728 0.5528373 0.5397273 0.6348743 0.9639863 0.5097656
-32.57772 6.67572e-06 -31.99725 -0.7071066 -1.314542e-08 -0.7071069 0.8896484 0.6220703
-32.57773 6.67572e-06 31.99727 -0.7542349 -0.001054043 0.6566039 0.8349609 0.6220703
-32.57773 7.938437 31.99727 -0.6664274 0.5002673 0.5528176 0.8349609 0.633138
-32.57772 7.938437 -31.99725 -0.5889925 0.5451078 -0.5966116 0.8896484 0.633138
-4.269042 7.938437 -31.99725 0.2600188 0.6340644 -0.7282531 0.8658245 0.5100911
0.7334899 6.67572e-06 -31.99725 -0.4479887 0.3434132 -0.8254535 0.8704731 0.5009766
35.15585 6.67572e-06 2.245982 0.8453626 -0.01273654 -0.5340411 0.9187373 0.5250651
35.15585 7.938437 2.059784 0.7437478 0.4806718 -0.4645361 0.9185792 0.5361328
-22.37716 10.53841 12.77259 -0.314629 0.9491667 -0.0095529 0.9835361 0.5224911
-12.20013 12.23129 12.82467 0.06305308 0.9956679 -0.06833557 0.9747658 0.5224566
-23.07805 10.24265 -14.09352 -0.1743638 0.977935 -0.1150676 0.8747248 0.6463059
22.5871 12.15452 -13.16755 0.288275 0.9546449 -0.07450325 0.8892168 0.5225551
1.241608 12.0576 -13.60038 -0.02467823 0.9723352 -0.232283 0.8708075 0.5222687
22.49936 12.19154 13.00225 0.1749543 0.9772677 0.1197447 0.92841 0.5496376
22.53949 12.17461 1.03566 0.4394645 0.8961205 -0.06196026 0.917757 0.5495839
0.06460571 9.343001 25.72426 0.2706108 0.9550706 0.1208722 0.9640453 0.5139179
32.57806 6.67572e-06 -31.99724 0.7740688 -0.001091063 -0.6331006 0.9000651 0.5009766
2.397033 6.67572e-06 -35.22053 -0.5333925 0.1033911 -0.8395253 0.8720191 0.5009766
3.325622 7.938437 -35.22053 -0.4152755 0.5588604 -0.7177892 0.8728819 0.5100911
32.57806 7.938437 -31.99724 0.6550885 0.5242773 -0.5440518 0.9000651 0.5100911
0.3422546 4.200982 -28.58772 -0.1396608 0.7736977 -0.61797 0.8701096 0.5100911
29.67181 6.013371 -0.009047508 0.6982757 0.3754101 -0.6094902 0.9168217 0.5361328
29.67181 6.67572e-06 0.2905645 0.8371034 -0.01776187 -0.5467563 0.9170762 0.5250651
-3.210052 6.67572e-06 36.02187 0.3753639 0.001020589 0.926877 0.966997 0.5009766
-3.772827 11.7072 36.02187 0.3147815 0.634983 0.7054852 0.9670215 0.5097656
-4.089599 12.91484 26.60376 0.3657755 0.9306284 -0.01179576 0.9671525 0.5133358
-12.86435 15.12777 16.72041 0.1062796 0.9681429 -0.2267243 0.9748302 0.5198779
-18.48735 13.88441 -5.441582 -0.5969416 0.6394691 -0.4844998 0.9794922 0.5273438
-30.74838 49.74511 -5.441585 -0.6728781 0.4810593 -0.561976 0.9892578 0.5517578
18.48773 13.88441 5.441597 0.4817786 0.7509474 0.4516276 0.8847656 0.5276693
24.6183 31.81476 5.441586 0.7709568 0.216459 0.5989751 0.8899739 0.5400391
-30.74838 49.74511 5.441595 -0.672878 0.4810595 0.561976 0.9348958 0.617513
-15.37407 49.74511 -5.441587 0.3264433 0.709923 -0.6240546 0.9195964 0.6061198
-30.74838 49.74511 -5.441585 -0.6728781 0.4810593 -0.561976 0.9352214 0.6064453
13.84191 40.77994 5.441588 0.04785937 0.8023557 0.5949243 0.913737 0.6165364
0.0002166161 31.81476 -5.44159 0.06569348 0.4542568 -0.8884454 0.9303386 0.6061198
0.0002182594 31.81476 5.44159 0.06569366 0.4542573 0.8884451 0.930013 0.6171875
0.0002182594 31.81476 5.44159 0.06569366 0.4542573 0.8884451 0.8958333 0.6162109
0.0002166161 31.81476 -5.44159 0.06569348 0.4542568 -0.8884454 0.8961589 0.6054688
24.6183 31.81476 5.441586 0.7709568 0.216459 0.5989751 0.8997396 0.6162109
24.6183 31.81476 -5.441594 0.7709565 0.2164587 -0.5989756 0.9000651 0.6054688
13.84191 40.77994 -5.441592 0.04785913 0.8023556 -0.5949244 0.953125 0.5455729
24.6183 31.81476 -5.441594 0.7709565 0.2164587 -0.5989756 0.9440104 0.539388
18.48773 13.88441 -5.441582 0.4817786 0.7509472 -0.4516278 0.9492188 0.5273438
-15.37407 49.74511 5.441592 0.3264436 0.7099231 0.6240544 0.8570964 0.5520833
-30.74838 49.74511 5.441595 -0.672878 0.4810595 0.561976 0.8447266 0.5520833
-18.48735 13.88441 5.441597 -0.616799 0.6314536 0.4699207 0.8548177 0.5276693
46.16345 21.46233 -54.83926 0.8861508 -0.4466853 -0.1233247 0.9290364 0.5758464
-37.28827 0.6020584 -54.83924 -0.5719337 -0.8105101 -0.1263532 0.9322917 0.6220703
-15.62176 2.812542 -65.34441 -0.1886871 -0.9767678 0.1015967 0.9078776 0.6220703
-39.81896 10.7261 -57.9284 -0.8440505 0.2780963 -0.4585207 0.8349609 0.5761719
43.63276 31.58637 -57.92841 0.6119729 0.6472608 -0.4544696 0.9046224 0.5761719
-18.15245 12.93659 -68.43356 -0.604267 0.6857648 -0.4056944 0.8525391 0.5849609
26.00528 13.21797 -65.34441 0.6260982 -0.7730972 0.1015963 0.9078776 0.648112
23.47459 23.34202 -68.43356 0.2105176 0.8894348 -0.4056948 0.9078776 0.6370443
-15.62176 2.812542 -65.34441 -0.1886871 -0.9767678 0.1015967 0.8704427 0.6640625
-18.15245 12.93659 -68.43356 -0.604267 0.6857648 -0.4056944 0.8704427 0.6529948
-21.28812 -3.835251 -82.48909 -0.5852093 -0.7663371 0.2650616 0.8880208 0.6640625
-23.81881 6.288792 -85.57825 -0.8884497 0.4467789 -0.1050983 0.8466797 0.5976562
23.47459 23.34202 -68.43356 0.2105176 0.8894348 -0.4056948 0.9980469 0.6529948
26.00528 13.21797 -65.34441 0.6260982 -0.7730972 0.1015963 0.9980469 0.6640625
34.13315 10.0183 -82.4891 0.8769662 -0.4008401 0.2650613 0.9804688 0.6640625
31.60246 20.14234 -85.57826 0.5737256 0.8122765 -0.1050988 0.9804688 0.6529948
-17.419 -7.935944 -99.09784 -0.4806945 -0.8595496 -0.1735145 0.9036458 0.6640625
-19.94969 2.188099 -102.187 -0.7776682 0.3284966 -0.5360245 0.8489583 0.6103516
32.64865 4.579369 -99.09785 0.8286045 -0.5322664 -0.173514 0.9648438 0.6640625
30.11796 14.70341 -102.187 0.5316308 0.6557798 -0.5360239 0.9648438 0.6529948
-1.991512 -7.962925 -111.8247 -0.06851583 -0.8562497 -0.5119982 0.9729818 0.6197917
19.04843 -2.703613 -111.8247 0.4633525 -0.7232997 -0.5119981 0.9554036 0.6197917
16.51775 7.420433 -114.9138 0.1679153 0.458601 -0.8726338 0.8782552 0.6201172
-4.522199 2.161118 -114.9138 -0.3639533 0.3256508 -0.8726337 0.8610026 0.6201172
24.61805 31.81492 -3.260651 0.257142 -0.2687434 0.9282538 0.9440104 0.539388
-15.477 27.30299 -23.54267 -0.444378 0.8514696 0.2784381 0.9212239 0.6048177
-30.39239 23.57462 -23.54267 -0.6364605 0.6216471 0.4565883 0.9371745 0.6051432
-27.8617 13.45057 -20.4535 -0.3589655 -0.4884748 0.7953214 0.9371745 0.6162109
-1.795871 35.96892 -6.349811 -0.3316163 0.7744901 0.5386983 0.8968099 0.6048177
0.734817 25.84487 -3.260647 -0.09766953 -0.3985994 0.9119096 0.9306641 0.6165364
14.04151 29.68891 -8.411779 0.3205124 -0.06230218 0.9451933 0.9140625 0.616862
-1.795871 35.96892 -6.349811 -0.3316163 0.7744901 0.5386983 0.9309896 0.6054688
24.61805 31.81492 -3.260651 0.257142 -0.2687434 0.9282538 0.898112 0.6178386
22.08735 41.93896 -6.349815 -0.06138814 0.7958233 0.6024091 0.8977864 0.6070964
12.98869 33.90073 -18.39155 -0.2367916 0.9697533 -0.05923101 0.9153646 0.6057943
-12.94631 17.17894 -20.4535 -0.08224892 -0.6710325 0.7368518 0.9765625 0.5517578
0.734817 25.84487 -3.260647 -0.09766953 -0.3985994 0.9119096 0.9641927 0.539388
22.08735 41.93896 -6.349815 -0.06138814 0.7958233 0.6024091 0.8899739 0.5400391
-30.39239 23.57462 -23.54267 -0.6364605 0.6216471 0.4565883 0.8447266 0.5520833
-27.8617 13.45057 -20.4535 -0.3589655 -0.4884748 0.7953214 0.9892578 0.5517578
-32.57772 6.67572e-06 -31.99725 -0.7071066 -1.314542e-08 -0.7071069 0.8395182 0.5009766
-32.57772 7.938437 -31.99725 -0.5889925 0.5451078 -0.5966116 0.8395182 0.5100911
32.57806 7.938437 31.99728 0.5698037 0.5256305 0.6316933 0.9440104 0.5361328
32.57806 6.67572e-06 31.99728 0.6758989 3.221505e-08 0.7369944 0.9440104 0.5250651
-18.48735 13.88441 5.441597 -0.616799 0.6314536 0.4699207 0.9794922 0.5273438
-22.37716 10.53841 12.77259 -0.314629 0.9491667 -0.0095529 0.8505143 0.6472774
-18.48735 13.88441 5.441597 -0.616799 0.6314536 0.4699207 0.8564453 0.6526693
-18.48735 13.88441 -5.441582 -0.5969416 0.6394691 -0.4844998 0.867513 0.6526693
18.48773 13.88441 -5.441582 0.4817786 0.7509472 -0.4516278 0.8847656 0.5276693
18.48773 13.88441 5.441597 0.4817786 0.7509474 0.4516276 0.9222005 0.555013
-23.07805 10.24265 -14.09352 -0.1743638 0.977935 -0.1150676 0.8498331 0.5219423
22.49936 12.19154 13.00225 0.1749543 0.9772677 0.1197447 0.9448628 0.5223391
-18.48735 13.88441 -5.441582 -0.5969416 0.6394691 -0.4844998 0.8548177 0.5276693
22.5871 12.15452 -13.16755 0.288275 0.9546449 -0.07450325 0.905113 0.5495201
32.57806 7.938437 -31.99724 0.6550885 0.5242773 -0.5440518 0.8896484 0.5361328
32.57806 6.67572e-06 -31.99724 0.7740688 -0.001091063 -0.6331006 0.8896484 0.5250651
18.48773 13.88441 -5.441582 0.4817786 0.7509472 -0.4516278 0.9114583 0.555013
-32.57773 6.67572e-06 31.99727 -0.7542349 -0.001054043 0.6566039 0.9941406 0.5009766
-32.57773 7.938437 31.99727 -0.6664274 0.5002673 0.5528176 0.9941406 0.5097656
18.48773 13.88441 5.441597 0.4817786 0.7509474 0.4516276 0.9492188 0.5273438
3 0 1 2 
3 2 3 0 
3 4 5 6 
3 6 7 4 
3 8 9 75 
3 75 76 8 
3 10 77 78 
3 78 11 10 
3 79 12 80 
3 80 81 79 
3 82 13 83 
3 83 84 82 
3 85 86 80 
3 80 12 85 
3 87 88 13 
3 13 82 87 
3 89 90 91 
3 91 9 89 
3 9 91 75 
3 92 93 94 
3 94 10 92 
3 10 94 77 
3 14 15 16 
3 16 17 14 
3 18 19 20 
3 20 21 18 
3 95 22 23 
3 23 24 95 
3 96 25 26 
3 26 97 96 
3 98 99 27 
3 27 100 98 
3 15 14 101 
3 101 102 15 
3 24 23 28 
3 28 29 24 
3 103 104 30 
3 30 105 103 
3 100 27 31 
3 31 106 100 
3 107 108 109 
3 109 110 107 
3 28 32 33 
3 33 29 28 
3 105 30 34 
3 34 111 105 
3 31 35 112 
3 112 106 31 
3 110 109 113 
3 113 114 110 
3 21 111 34 
3 34 18 21 
3 19 114 113 
3 113 20 19 
3 115 116 33 
3 33 32 115 
3 117 118 112 
3 112 35 117 
3 25 96 36 
3 36 37 25 
3 38 95 119 
3 99 98 39 
3 40 99 39 
3 41 40 39 
3 42 120 121 
3 121 122 42 
3 43 123 120 
3 120 42 43 
3 124 125 126 
3 127 128 129 
3 129 125 127 
3 130 22 95 
3 131 130 95 
3 38 131 95 
3 40 132 99 
3 98 133 39 
3 130 134 22 
3 125 129 126 
3 44 45 46 
3 46 47 44 
3 48 49 50 
3 50 51 48 
3 135 136 52 
3 52 53 135 
3 54 55 137 
3 137 138 54 
3 56 57 139 
3 58 140 141 
3 141 142 58 
3 59 60 143 
3 61 62 144 
3 145 60 52 
3 52 136 145 
3 55 62 61 
3 61 137 55 
3 146 57 63 
3 140 58 51 
3 51 50 140 
3 64 65 66 
3 66 67 64 
3 66 60 59 
3 59 67 66 
3 60 66 68 
3 68 66 65 
3 65 53 68 
3 53 52 68 
3 52 60 68 
3 147 60 145 
3 143 60 147 
3 148 62 69 
3 69 149 148 
3 69 70 150 
3 150 149 69 
3 62 55 69 
3 55 54 70 
3 70 69 55 
3 151 62 148 
3 144 62 151 
3 152 71 72 
3 72 153 152 
3 73 74 153 
3 74 57 56 
3 73 63 57 
3 57 74 73 
3 73 72 47 
3 47 63 73 
3 47 72 71 
3 71 44 47 
3 153 74 56 
3 73 153 72 
3 139 57 146 
3 146 154 139 
3 146 63 47 
3 47 46 146 
