ply
format ascii 1.0
comment VCGLIB generated
comment TextureFile cemetery_halloween_atlas.tga
element vertex 118
property float x
property float y
property float z
property float nx
property float ny
property float nz
property float texture_u
property float texture_v
element face 110
property list uchar int vertex_indices
end_header
4.858953 188.2684 21.00452 -0.2139774 0.7108896 0.6699625 0.6116536 0.1380208
11.44867 191.521 0.09538082 0.1323904 0.9013176 -0.4124311 0.6503906 0.1380208
2.094104 191.3464 -3.288982 0.1708433 0.8456581 -0.5056431 0.6503906 0.1529948
-2.909058 188.5775 18.50895 -0.1826396 0.7297313 0.6588892 0.6116536 0.1529948
-4.075278 162.407 21.66874 -0.4256242 0.08192892 0.9011835 0.5729167 0.1529948
2.180652 162.5387 24.72194 -0.4383523 0.08991182 0.8942948 0.5729167 0.1380208
12.461 168.0084 -11.4569 0.3247957 -0.1674291 -0.9308465 0.6116536 0.1380208
0.1130886 155.9667 4.966922 -0.07078736 -0.9811537 0.1797963 0.6503906 0.1380208
-10.91067 156.1113 1.415982 -0.1336878 -0.9097272 0.3930955 0.6503906 0.1529948
1.527793 167.4334 -15.25665 0.3151471 -0.4418108 -0.8399318 0.6116536 0.1529948
-3.814354 181.8282 15.75784 -0.3236895 0.318334 0.8910043 0.6116536 0.1380208
1.087905 192.8737 -8.701485 0.04653024 0.989031 -0.1401882 0.6503906 0.1380208
-9.617953 192.7641 -13.02772 0.1220088 0.9434939 -0.3081123 0.6503906 0.1529948
-14.66352 182.0229 11.72719 -0.3096317 0.4188074 0.853656 0.6116536 0.1529948
0.1394426 173.0679 -23.96629 0.3879541 0.3095708 -0.8681346 0.6116536 0.1380208
-3.507036 137.294 -21.78109 0.4475014 -0.07330943 -0.8912734 0.6503906 0.1380208
-8.756842 136.7874 -24.37531 0.4450817 -0.06979118 -0.8927662 0.6503906 0.1529948
-6.057344 172.4658 -26.95737 0.4069839 0.2179623 -0.8870494 0.6116536 0.1529948
-4.220464 90.44446 -19.91376 0.3841785 -0.01833909 -0.9230767 0.5729167 0.1380208
-8.054013 89.99414 -21.48789 0.3755311 -0.01464284 -0.9266941 0.5729167 0.1529948
-4.906397 67.01187 -20.68889 0.256348 -0.02058127 -0.9663655 0.6116536 0.1380208
-8.053924 66.56464 -21.48824 0.265695 -0.0222247 -0.963801 0.6116536 0.1529948
0.3016718 115.4903 23.80599 -0.4390644 -3.274314e-05 0.8984556 0.5729167 0.1380208
-4.034317 115.3804 21.68677 -0.4391103 -3.804929e-05 0.8984331 0.5729167 0.1529948
1.698148 189.5445 -2.201099 -0.1744986 -0.8468526 0.5023853 0.6503906 0.1529948
11.15075 189.5644 0.913915 -0.1375849 -0.8955189 0.4232214 0.6503906 0.1380208
5.387831 186.7778 19.56048 0.2136272 -0.706216 -0.6749981 0.6116536 0.1380208
-2.40356 187.0275 17.12011 0.185461 -0.7224796 -0.6660538 0.6116536 0.1529948
-3.329677 162.2908 19.66433 0.4244454 -0.0741528 -0.9024121 0.5729167 0.1529948
2.930993 162.4128 22.71988 0.4384071 -0.08257091 -0.8949756 0.5729167 0.1380208
-10.60605 158.0591 0.5790441 0.1422298 0.9094322 -0.3907733 0.6503906 0.1529948
0.2694255 158.0591 4.53739 0.07299495 0.9769599 -0.2005522 0.6503906 0.1380208
11.73618 168.3182 -9.465477 -0.3324447 0.1625609 0.9290073 0.6116536 0.1380208
0.8607012 168.3182 -13.42382 -0.3114707 0.4131116 0.8557598 0.6116536 0.1529948
-9.908972 190.7615 -12.3263 -0.1205301 -0.9410366 0.3161052 0.6503906 0.1529948
0.966507 190.7615 -8.367945 -0.05668188 -0.9861717 0.1557322 0.6503906 0.1380208
-3.120751 181.1394 13.85218 0.3238491 -0.3216131 -0.8897679 0.6116536 0.1380208
-13.99623 181.1394 9.893832 0.3115628 -0.4125205 -0.8560114 0.6116536 0.1529948
-9.705202 136.9558 -22.46237 -0.4448144 0.07180534 0.8927397 0.6503906 0.1529948
-4.449925 137.4611 -19.86533 -0.4476036 0.07573981 0.8910188 0.6503906 0.1380208
-0.7594824 172.4634 -22.11869 -0.3863433 -0.3011698 0.8718002 0.6116536 0.1380208
-7.002382 171.9823 -25.0972 -0.407109 -0.2142308 0.8879006 0.6116536 0.1529948
-9.063817 90.04547 -19.59984 -0.3756249 0.01458882 0.926657 0.5729167 0.1529948
-5.226432 90.49564 -18.02365 -0.3842631 0.0183079 0.9230421 0.5729167 0.1380208
-4.674435 44.41208 -17.38206 -0.4179453 0.0081266 0.9084359 0.5729167 0.1380208
-5.914431 67.03745 -18.79953 -0.256497 0.02055552 0.9663264 0.6116536 0.1380208
-9.06387 66.5903 -19.59991 -0.2658153 0.02219913 0.9637684 0.6116536 0.1529948
-10.42603 43.05177 -20.13489 -0.4325891 0.004542752 0.9015798 0.5729167 0.1529948
1.011392 115.4911 21.78526 0.4389564 -2.702519e-06 -0.8985084 0.5729167 0.1380208
-3.329752 115.3804 19.66423 0.4389913 1.304377e-06 -0.8984913 0.5729167 0.1529948
-3.66434 44.41208 -19.27066 0.4179239 -0.008127172 -0.9084457 0.5729167 0.1380208
-9.415936 43.05177 -22.02349 0.4325872 -0.004534401 -0.9015808 0.5729167 0.1529948
11.78247 6.039886 0.6157949 0.5688685 -0.5772481 0.58581 0.4124349 0.1861979
13.35111 19.6561 2.1844 0.6976297 0.1605678 0.6982341 0.4124349 0.2044271
-7.728677 19.6561 10.91593 -0.0004291417 0.1620488 0.9867827 0.4348958 0.2044271
-7.728677 6.039888 8.697569 0.01197878 -0.5772479 0.8164811 0.4348958 0.1861979
19.86425 6.039884 -18.89533 0.8164804 -0.5772489 -0.01197838 0.3880208 0.1861979
22.08264 19.65609 -18.89537 0.9871938 0.1595253 0.0001735386 0.3880208 0.2044271
11.78247 6.03988 -38.40646 0.5858089 -0.5772502 -0.5688674 0.3652344 0.1861979
13.35111 19.65609 -39.97516 0.6979204 0.159539 -0.6981793 0.3652344 0.2044271
-7.728649 6.039879 -46.48822 -0.0119786 -0.5772511 -0.8164788 0.5257161 0.1861979
-7.728649 19.65611 -48.70669 -0.0004303796 0.1606014 -0.9870192 0.5257161 0.2044271
-27.2398 6.03988 -38.40646 -0.5688683 -0.5772502 -0.5858082 0.5016276 0.1861979
-28.80843 19.65611 -39.97516 -0.6980571 0.1620826 -0.6974565 0.5016276 0.2044271
-35.32156 6.039884 -18.89533 -0.8164799 -0.5772496 0.01197901 0.4791667 0.1861979
-37.53998 19.65611 -18.89537 -0.9866073 0.1631141 0.0001712184 0.4791667 0.2044271
-27.23981 6.039886 0.6157949 -0.5858093 -0.5772485 0.5688689 0.4563802 0.1861979
-28.80846 19.6561 2.1844 -0.6977662 0.1631003 0.6975102 0.4570312 0.2044271
-13.36035 0.5301811 -5.29923 -0.0907407 -0.971481 0.219068 0.445638 0.1669922
5.867431 0.5301797 -13.26363 0.2190677 -0.9714811 0.09074125 0.4049479 0.1669922
-2.096951 0.5301766 -32.49143 0.09074121 -0.9714811 -0.2190678 0.3769531 0.1669922
-21.32476 0.5301779 -24.52701 -0.2190678 -0.9714811 -0.09074069 0.4876302 0.1669922
4.793144 41.55765 -6.537217 0.5655267 0.5710683 0.5950298 0.4124349 0.226888
-7.611964 41.55765 -1.398878 0.02221338 0.5725759 0.8195507 0.4348958 0.226888
9.93151 41.55764 -18.94231 0.821363 0.5699881 -0.02182985 0.3880208 0.226888
4.793144 41.55764 -31.34743 0.5962296 0.5700034 -0.5653375 0.3652344 0.226888
-7.611964 41.55766 -36.48578 -0.02085531 0.5711063 -0.8206112 0.5257161 0.226888
-20.01704 41.55766 -31.34743 -0.5637877 0.572614 -0.5951947 0.5016276 0.226888
-25.15542 41.55764 -18.94234 -0.8187964 0.573691 0.02124141 0.4791667 0.226888
-20.01707 41.55765 -6.537232 -0.5939951 0.5736758 0.5639735 0.4570312 0.226888
2.279368 50.25753 -14.84518 0.3947534 0.9041203 0.1635127 0.405599 0.2447917
-11.70908 50.25754 -9.050976 -0.1635121 0.9041198 0.3947546 0.4466146 0.2447917
-3.514844 50.25755 -28.83365 0.1635124 0.9041204 -0.3947532 0.3769531 0.2447917
-17.5033 50.25755 -23.03944 -0.3947537 0.9041203 -0.1635118 0.4892578 0.2447917
-7.611964 46.9133 -18.94231 4.067681e-07 1 6.074038e-07 0.3505859 0.219401
2.094104 191.3464 -3.288982 0.1708433 0.8456581 -0.5056431 0.5729167 0.1529948
11.44867 191.521 0.09538082 0.1323904 0.9013176 -0.4124311 0.5729167 0.1380208
-10.91067 156.1113 1.415982 -0.1336878 -0.9097272 0.3930955 0.5729167 0.1529948
0.1130886 155.9667 4.966922 -0.07078736 -0.9811537 0.1797963 0.5729167 0.1380208
-9.617953 192.7641 -13.02772 0.1220088 0.9434939 -0.3081123 0.5729167 0.1529948
1.087905 192.8737 -8.701485 0.04653024 0.989031 -0.1401882 0.5729167 0.1380208
-8.054013 89.99414 -21.48789 0.3755311 -0.01464284 -0.9266941 0.6503906 0.1529948
-4.220464 90.44446 -19.91376 0.3841785 -0.01833909 -0.9230767 0.6503906 0.1380208
2.180652 162.5387 24.72194 -0.4383523 0.08991182 0.8942948 0.6503906 0.1380208
-4.075278 162.407 21.66874 -0.4256242 0.08192892 0.9011835 0.6503906 0.1529948
1.698148 189.5445 -2.201099 -0.1744986 -0.8468526 0.5023853 0.5729167 0.1529948
11.15075 189.5644 0.913915 -0.1375849 -0.8955189 0.4232214 0.5729167 0.1380208
-10.60605 158.0591 0.5790441 0.1422298 0.9094322 -0.3907733 0.5729167 0.1529948
0.2694255 158.0591 4.53739 0.07299495 0.9769599 -0.2005522 0.5729167 0.1380208
-9.908972 190.7615 -12.3263 -0.1205301 -0.9410366 0.3161052 0.5729167 0.1529948
0.966507 190.7615 -8.367945 -0.05668188 -0.9861717 0.1557322 0.5729167 0.1380208
-3.329677 162.2908 19.66433 0.4244454 -0.0741528 -0.9024121 0.6503906 0.1529948
2.930993 162.4128 22.71988 0.4384071 -0.08257091 -0.8949756 0.6503906 0.1380208
-5.226432 90.49564 -18.02365 -0.3842631 0.0183079 0.9230421 0.6503906 0.1380208
-9.063817 90.04547 -19.59984 -0.3756249 0.01458882 0.926657 0.6503906 0.1529948
13.35111 19.65609 -39.97516 0.6979204 0.159539 -0.6981793 0.5478516 0.2044271
11.78247 6.03988 -38.40646 0.5858089 -0.5772502 -0.5688674 0.5478516 0.1861979
-2.096951 0.5301766 -32.49143 0.09074121 -0.9714811 -0.2190678 0.5247396 0.1669922
-21.32476 0.5301779 -24.52701 -0.2190678 -0.9714811 -0.09074069 0.3639323 0.2047526
-2.096951 0.5301766 -32.49143 0.09074121 -0.9714811 -0.2190678 0.3369141 0.2047526
-13.36035 0.5301811 -5.29923 -0.0907407 -0.971481 0.219068 0.3639323 0.1787109
4.793144 41.55764 -31.34743 0.5962296 0.5700034 -0.5653375 0.5478516 0.226888
-3.514844 50.25755 -28.83365 0.1635124 0.9041204 -0.3947532 0.5263672 0.2447917
2.279368 50.25753 -14.84518 0.3947534 0.9041203 0.1635127 0.3639323 0.2060547
-11.70908 50.25754 -9.050976 -0.1635121 0.9041198 0.3947546 0.3369141 0.2060547
-3.514844 50.25755 -28.83365 0.1635124 0.9041204 -0.3947532 0.3639323 0.2327474
-17.5033 50.25755 -23.03944 -0.3947537 0.9041203 -0.1635118 0.3369141 0.2324219
5.867431 0.5301797 -13.26363 0.2190677 -0.9714811 0.09074125 0.3369141 0.1787109
3 0 1 2 
3 2 3 0 
3 0 3 4 
3 4 5 0 
3 6 7 8 
3 8 9 6 
3 6 9 85 
3 85 86 6 
3 10 11 12 
3 12 13 10 
3 10 13 87 
3 87 88 10 
3 14 15 16 
3 16 17 14 
3 14 17 89 
3 89 90 14 
3 18 19 16 
3 16 15 18 
3 91 92 20 
3 20 21 91 
3 22 93 94 
3 94 23 22 
3 24 25 26 
3 26 27 24 
3 28 27 26 
3 26 29 28 
3 30 31 32 
3 32 33 30 
3 95 33 32 
3 32 96 95 
3 34 35 36 
3 36 37 34 
3 97 37 36 
3 36 98 97 
3 38 39 40 
3 40 41 38 
3 99 41 40 
3 40 100 99 
3 38 42 43 
3 43 39 38 
3 44 45 46 
3 46 47 44 
3 101 102 48 
3 48 49 101 
3 50 51 21 
3 21 20 50 
3 45 103 104 
3 104 46 45 
3 52 53 54 
3 54 55 52 
3 56 57 53 
3 53 52 56 
3 58 59 57 
3 57 56 58 
3 60 61 105 
3 105 106 60 
3 62 63 61 
3 61 60 62 
3 64 65 63 
3 63 62 64 
3 66 67 65 
3 65 64 66 
3 55 54 67 
3 67 66 55 
3 52 55 68 
3 68 69 52 
3 56 52 69 
3 58 56 69 
3 69 70 58 
3 60 106 107 
3 62 60 107 
3 107 71 62 
3 64 62 71 
3 66 64 71 
3 71 68 66 
3 55 66 68 
3 108 109 110 
3 72 73 54 
3 54 53 72 
3 74 72 53 
3 53 57 74 
3 75 74 57 
3 57 59 75 
3 76 111 105 
3 105 61 76 
3 77 76 61 
3 61 63 77 
3 78 77 63 
3 63 65 78 
3 79 78 65 
3 65 67 79 
3 73 79 67 
3 67 54 73 
3 72 80 81 
3 81 73 72 
3 74 80 72 
3 75 82 80 
3 80 74 75 
3 76 112 111 
3 77 83 112 
3 112 76 77 
3 78 83 77 
3 79 81 83 
3 83 78 79 
3 73 81 79 
3 113 84 114 
3 115 84 113 
3 116 84 115 
3 114 84 116 
3 109 117 110 
