ply
format ascii 1.0
comment VCGLIB generated
comment TextureFile cemetery_halloween_atlas.tga
element vertex 116
property float x
property float y
property float z
property float nx
property float ny
property float nz
property float texture_u
property float texture_v
element face 108
property list uchar int vertex_indices
end_header
6.266644 189.1839 21.15584 -0.2198231 0.684597 0.6949854 0.6116536 0.1380208
12.85636 192.4365 0.2467041 0.1323904 0.9013177 -0.4124309 0.6503906 0.1380208
3.501796 192.2619 -3.137659 0.1708434 0.8456582 -0.5056431 0.6503906 0.1529948
-1.501365 189.493 18.66027 -0.1877368 0.7154334 0.6729858 0.6116536 0.1529948
-1.702879 145.8535 21.82006 -0.4890336 0.053725 0.8706089 0.5729167 0.1529948
3.588344 145.9852 24.87326 -0.5000384 0.0575325 0.86409 0.5729167 0.1380208
13.86869 168.9239 -11.30558 0.3247956 -0.167429 -0.9308466 0.6116536 0.1380208
1.520781 156.8822 5.118239 -0.07078775 -0.9811537 0.1797958 0.6503906 0.1380208
-9.502978 157.0268 1.5673 -0.1336881 -0.9097273 0.3930953 0.6503906 0.1529948
2.935485 168.3489 -15.10533 0.315147 -0.4418106 -0.839932 0.6116536 0.1529948
-2.406662 182.7437 15.90916 -0.3236893 0.3183341 0.8910043 0.6116536 0.1380208
2.495597 193.7892 -8.550161 0.04653084 0.989031 -0.1401881 0.6503906 0.1380208
-8.210259 193.6796 -12.8764 0.1220091 0.943494 -0.308112 0.6503906 0.1529948
-13.25582 182.9384 11.87852 -0.3096318 0.4188073 0.8536561 0.6116536 0.1529948
1.547135 173.9834 -23.81496 0.3879538 0.3095711 -0.8681346 0.6116536 0.1380208
-2.099343 138.2095 -21.62978 0.4475014 -0.07330927 -0.8912734 0.6503906 0.1380208
-7.349148 137.7029 -24.224 0.4450816 -0.06979103 -0.8927662 0.6503906 0.1529948
-4.649652 173.3813 -26.80605 0.4069836 0.2179621 -0.8870496 0.6116536 0.1529948
-2.812771 91.35995 -19.76245 0.3841786 -0.01833897 -0.9230767 0.5729167 0.1380208
-6.64632 90.90964 -21.33659 0.3755311 -0.01464271 -0.9266942 0.5729167 0.1529948
-3.498704 67.92737 -20.53759 0.256348 -0.02058112 -0.9663655 0.6116536 0.1380208
-6.64623 67.48014 -21.33693 0.2656951 -0.02222453 -0.963801 0.6116536 0.1529948
-0.4586298 90.42071 22.89769 -0.4998898 0.005616158 0.8660709 0.5729167 0.1529948
3.10584 190.46 -2.049776 -0.1744993 -0.8468528 0.5023847 0.6503906 0.1529948
12.55844 190.4799 1.065238 -0.137586 -0.895519 0.423221 0.6503906 0.1380208
6.795523 187.6932 19.71181 0.2178085 -0.6812934 -0.6988554 0.6116536 0.1380208
-0.9958679 187.943 17.27143 0.1896183 -0.7101242 -0.6780624 0.6116536 0.1529948
-0.957278 145.7372 19.81565 0.4882613 -0.04821883 -0.8713644 0.5729167 0.1529948
4.338684 145.8593 22.8712 0.4999678 -0.05202992 -0.8644797 0.5729167 0.1380208
-9.198358 158.9746 0.7303619 0.1422296 0.9094323 -0.3907731 0.6503906 0.1529948
1.677118 158.9746 4.688707 0.07299478 0.9769599 -0.2005522 0.6503906 0.1380208
13.14387 169.2337 -9.314157 -0.3324448 0.1625609 0.9290072 0.6116536 0.1380208
2.268393 169.2337 -13.2725 -0.3114707 0.4131116 0.8557598 0.6116536 0.1529948
-8.501278 191.677 -12.17497 -0.1205301 -0.9410367 0.3161052 0.6503906 0.1529948
2.374199 191.677 -8.216621 -0.05668185 -0.9861718 0.1557321 0.6503906 0.1380208
-1.713058 182.0549 14.0035 0.323849 -0.3216128 -0.8897679 0.6116536 0.1380208
-12.58853 182.0549 10.04515 0.3115628 -0.4125202 -0.8560115 0.6116536 0.1529948
-8.297508 137.8713 -22.31105 -0.4448144 0.0718052 0.8927397 0.6503906 0.1529948
-3.042233 138.3766 -19.71402 -0.4476036 0.07573964 0.8910189 0.6503906 0.1380208
0.64821 173.3789 -21.96737 -0.3863435 -0.3011699 0.8718001 0.6116536 0.1380208
-5.594689 172.8978 -24.94588 -0.4071092 -0.2142312 0.8879004 0.6116536 0.1529948
-7.656124 90.96097 -19.44853 -0.3756249 0.01458868 0.926657 0.5729167 0.1529948
-3.818739 91.41113 -17.87234 -0.3842632 0.01830776 0.9230421 0.5729167 0.1380208
-3.266742 45.32758 -17.23076 -0.4179453 0.008126397 0.9084358 0.5729167 0.1380208
-4.506737 67.95294 -18.64823 -0.256497 0.02055536 0.9663265 0.6116536 0.1380208
-7.656177 67.5058 -19.44861 -0.2658152 0.02219898 0.9637684 0.6116536 0.1529948
-9.018333 43.96727 -19.98359 -0.432589 0.00454257 0.9015798 0.5729167 0.1529948
0.2485127 90.42109 20.87605 0.4998359 -0.005707497 -0.8661014 1.145833 0.2760417
-2.256647 45.32758 -19.11936 0.4179238 -0.00812701 -0.9084457 0.5729167 0.1380208
-8.008243 43.96727 -21.87219 0.4325871 -0.004534223 -0.9015808 0.5729167 0.1529948
10.81375 15.9454 -3.227928 0.5498244 -0.6077457 0.5730081 0.4124349 0.02148438
14.2491 31.63274 0.2073956 0.7071068 1.478474e-06 0.7071068 0.4124349 0.04003906
-5.322033 31.63274 8.314026 -2.187177e-07 2.023682e-06 1 0.4348958 0.04003906
-5.322033 15.9454 3.455711 0.0163927 -0.6077458 0.7939624 0.4348958 0.02148438
17.49739 15.9454 -19.36369 0.7939617 -0.6077467 -0.01639238 0.3880208 0.02148438
22.35574 31.63274 -19.36373 1 1.122368e-07 3.62611e-07 0.3880208 0.04003906
10.81375 15.9454 -35.49946 0.573007 -0.6077474 -0.5498238 0.3652344 0.02148438
14.2491 31.63274 -38.93488 0.7071066 -1.518765e-06 -0.7071071 0.3652344 0.04003906
-5.322026 15.9454 -42.18311 -0.01639281 -0.6077482 -0.7939607 0.5257161 0.02148438
-5.322026 31.63274 -47.04151 2.187179e-07 -2.181967e-06 -1 0.5257161 0.04003906
-21.45778 15.9454 -35.49946 -0.5498238 -0.6077476 -0.5730066 0.5016276 0.02148438
-24.89316 31.63274 -38.93488 -0.7071069 -1.536032e-06 -0.7071067 0.5016276 0.04003906
-28.14144 15.9454 -19.36369 -0.7939616 -0.6077468 0.01639298 0.4791667 0.02148438
-32.99979 31.63274 -19.36373 -1 1.381375e-07 -1.208703e-07 0.4791667 0.04003906
-21.4578 15.9454 -3.227928 -0.5730074 -0.607746 0.5498249 0.4563802 0.02148438
-24.89317 31.63274 0.2073956 -0.7071069 1.774895e-06 0.7071067 0.4570312 0.04003906
-10.55068 10.83002 -6.740648 -0.1140463 -0.9545605 0.275332 0.445638 0.002604167
7.301027 10.83002 -14.13504 0.2753319 -0.9545605 0.1140466 0.4049479 0.002604167
-0.09338116 10.83002 -31.98674 0.1140462 -0.9545605 -0.2753319 0.3769531 0.002604167
-17.94508 10.83002 -24.59233 -0.275332 -0.9545605 -0.1140463 0.4876302 0.002604167
10.81375 47.32005 -3.227997 0.5506456 0.6050861 0.5750306 0.4124349 0.06217448
-5.322033 47.32005 3.455643 0.01724262 0.6050867 0.7959728 0.4348958 0.06217448
17.49739 47.32005 -19.36377 0.7959734 0.6050861 -0.01724335 0.3880208 0.06217448
10.81375 47.32005 -35.49955 0.5750309 0.6050854 -0.5506462 0.3652344 0.06217448
-5.322026 47.32005 -42.18319 -0.01724294 0.6050856 -0.7959737 0.5257161 0.06217448
-21.45778 47.32005 -35.49955 -0.5506454 0.6050857 -0.5750313 0.5016276 0.06217448
-28.14144 47.32005 -19.36378 -0.7959732 0.6050863 0.01724213 0.4791667 0.06217448
-21.4578 47.32005 -3.228022 -0.575031 0.6050869 0.5506445 0.4570312 0.06217448
7.544001 52.43544 -14.03447 0.2324988 0.967817 0.0963043 0.405599 0.08007812
-10.65131 52.43544 -6.497728 -0.0963044 0.9678169 0.2324994 0.4466146 0.08007812
0.007258176 52.43544 -32.22979 0.09630393 0.9678172 -0.2324984 0.3769531 0.08007812
-18.18804 52.43544 -24.69305 -0.2324984 0.9678172 -0.09630397 0.4892578 0.08007812
-5.322026 49.33054 -19.36377 8.71766e-08 1 3.331992e-07 0.3505859 0.0546875
3.501796 192.2619 -3.137659 0.1708434 0.8456582 -0.5056431 0.5729167 0.1529948
12.85636 192.4365 0.2467041 0.1323904 0.9013177 -0.4124309 0.5729167 0.1380208
-9.502978 157.0268 1.5673 -0.1336881 -0.9097273 0.3930953 0.5729167 0.1529948
1.520781 156.8822 5.118239 -0.07078775 -0.9811537 0.1797958 0.5729167 0.1380208
-8.210259 193.6796 -12.8764 0.1220091 0.943494 -0.308112 0.5729167 0.1529948
2.495597 193.7892 -8.550161 0.04653084 0.989031 -0.1401881 0.5729167 0.1380208
-6.64632 90.90964 -21.33659 0.3755311 -0.01464271 -0.9266942 0.6503906 0.1529948
-2.812771 91.35995 -19.76245 0.3841786 -0.01833897 -0.9230767 0.6503906 0.1380208
-1.702879 145.8535 21.82006 -0.4890336 0.053725 0.8706089 0.6503906 0.1529948
3.588344 145.9852 24.87326 -0.5000384 0.0575325 0.86409 0.6116537 0.1455078
3.10584 190.46 -2.049776 -0.1744993 -0.8468528 0.5023847 0.5729167 0.1529948
12.55844 190.4799 1.065238 -0.137586 -0.895519 0.423221 0.5729167 0.1380208
-9.198358 158.9746 0.7303619 0.1422296 0.9094323 -0.3907731 0.5729167 0.1529948
1.677118 158.9746 4.688707 0.07299478 0.9769599 -0.2005522 0.5729167 0.1380208
-8.501278 191.677 -12.17497 -0.1205301 -0.9410367 0.3161052 0.5729167 0.1529948
2.374199 191.677 -8.216621 -0.05668185 -0.9861718 0.1557321 0.5729167 0.1380208
-0.957278 145.7372 19.81565 0.4882613 -0.04821883 -0.8713644 0.6503906 0.1529948
4.338684 145.8593 22.8712 0.4999678 -0.05202992 -0.8644797 0.6116537 0.1455078
-3.818739 91.41113 -17.87234 -0.3842632 0.01830776 0.9230421 0.6503906 0.1380208
-7.656124 90.96097 -19.44853 -0.3756249 0.01458868 0.926657 0.6503906 0.1529948
14.2491 31.63274 -38.93488 0.7071066 -1.518765e-06 -0.7071071 0.5478516 0.04003906
10.81375 15.9454 -35.49946 0.573007 -0.6077474 -0.5498238 0.5478516 0.02148438
-0.09338116 10.83002 -31.98674 0.1140462 -0.9545605 -0.2753319 0.5247396 0.002604167
-17.94508 10.83002 -24.59233 -0.275332 -0.9545605 -0.1140463 0.3639323 0.04069011
-0.09338116 10.83002 -31.98674 0.1140462 -0.9545605 -0.2753319 0.3369141 0.04069011
-10.55068 10.83002 -6.740648 -0.1140463 -0.9545605 0.275332 0.3639323 0.01432292
10.81375 47.32005 -35.49955 0.5750309 0.6050854 -0.5506462 0.5478516 0.06217448
0.007258176 52.43544 -32.22979 0.09630393 0.9678172 -0.2324984 0.5263672 0.08007812
7.544001 52.43544 -14.03447 0.2324988 0.967817 0.0963043 0.3639323 0.04166667
-10.65131 52.43544 -6.497728 -0.0963044 0.9678169 0.2324994 0.3369141 0.04166667
0.007258176 52.43544 -32.22979 0.09630393 0.9678172 -0.2324984 0.3639323 0.06803385
-18.18804 52.43544 -24.69305 -0.2324984 0.9678172 -0.09630397 0.3369141 0.06803385
7.301027 10.83002 -14.13504 0.2753319 -0.9545605 0.1140466 0.3369141 0.01432292
3 0 1 2 
3 2 3 0 
3 0 3 4 
3 4 5 0 
3 6 7 8 
3 8 9 6 
3 6 9 83 
3 83 84 6 
3 10 11 12 
3 12 13 10 
3 10 13 85 
3 85 86 10 
3 14 15 16 
3 16 17 14 
3 14 17 87 
3 87 88 14 
3 18 19 16 
3 16 15 18 
3 89 90 20 
3 20 21 89 
3 91 22 92 
3 23 24 25 
3 25 26 23 
3 27 26 25 
3 25 28 27 
3 29 30 31 
3 31 32 29 
3 93 32 31 
3 31 94 93 
3 33 34 35 
3 35 36 33 
3 95 36 35 
3 35 96 95 
3 37 38 39 
3 39 40 37 
3 97 40 39 
3 39 98 97 
3 37 41 42 
3 42 38 37 
3 43 44 45 
3 45 46 43 
3 47 99 100 
3 48 49 21 
3 21 20 48 
3 44 101 102 
3 102 45 44 
3 50 51 52 
3 52 53 50 
3 54 55 51 
3 51 50 54 
3 56 57 55 
3 55 54 56 
3 58 59 103 
3 103 104 58 
3 60 61 59 
3 59 58 60 
3 62 63 61 
3 61 60 62 
3 64 65 63 
3 63 62 64 
3 53 52 65 
3 65 64 53 
3 50 53 66 
3 66 67 50 
3 54 50 67 
3 56 54 67 
3 67 68 56 
3 58 104 105 
3 60 58 105 
3 105 69 60 
3 62 60 69 
3 64 62 69 
3 69 66 64 
3 53 64 66 
3 106 107 108 
3 70 71 52 
3 52 51 70 
3 72 70 51 
3 51 55 72 
3 73 72 55 
3 55 57 73 
3 74 109 103 
3 103 59 74 
3 75 74 59 
3 59 61 75 
3 76 75 61 
3 61 63 76 
3 77 76 63 
3 63 65 77 
3 71 77 65 
3 65 52 71 
3 70 78 79 
3 79 71 70 
3 72 78 70 
3 73 80 78 
3 78 72 73 
3 74 110 109 
3 75 81 110 
3 110 74 75 
3 76 81 75 
3 77 79 81 
3 81 76 77 
3 71 79 77 
3 111 82 112 
3 113 82 111 
3 114 82 113 
3 112 82 114 
3 107 115 108 
