ply
format ascii 1.0
comment VCGLIB generated
comment TextureFile cemetery_halloween_atlas.tga
element vertex 116
property float x
property float y
property float z
property float nx
property float ny
property float nz
property float texture_u
property float texture_v
element face 108
property list uchar int vertex_indices
end_header
5.558187 188.2684 20.90963 -0.2139775 0.7108896 0.6699625 0.6116536 0.1380208
12.14791 191.521 0.000486275 0.1323904 0.9013176 -0.4124311 0.6503906 0.1380208
2.793339 191.3464 -3.383877 0.1708433 0.8456581 -0.5056431 0.6503906 0.1529948
-2.209823 188.5775 18.41406 -0.1826397 0.7297313 0.6588892 0.6116536 0.1529948
-3.376044 162.407 21.57385 -0.4254544 0.08278324 0.9011857 0.5729167 0.1529948
2.879887 162.5387 24.62705 -0.4383412 0.0904082 0.8942502 0.5729167 0.1380208
13.16023 168.0084 -11.55179 0.3247956 -0.1674291 -0.9308466 0.6116536 0.1380208
0.8123231 155.9667 4.872027 -0.07078738 -0.9811537 0.1797963 0.6503906 0.1380208
-10.21144 156.1113 1.321088 -0.1336879 -0.9097272 0.3930954 0.6503906 0.1529948
2.227027 167.4334 -15.35154 0.315147 -0.4418108 -0.8399319 0.6116536 0.1529948
-3.11512 181.8282 15.66295 -0.3236895 0.3183341 0.8910043 0.6116536 0.1380208
1.78714 192.8737 -8.796379 0.04653024 0.989031 -0.1401882 0.6503906 0.1380208
-8.918718 192.7641 -13.12261 0.1220088 0.9434939 -0.3081123 0.6503906 0.1529948
-13.96428 182.0229 11.6323 -0.3096317 0.4188075 0.853656 0.6116536 0.1529948
0.838677 173.0679 -24.06118 0.3879541 0.3095708 -0.8681346 0.6116536 0.1380208
-2.807801 137.294 -21.87599 0.4475588 -0.07459951 -0.8911375 0.6503906 0.1380208
-8.057607 136.7874 -24.47021 0.4450361 -0.07131799 -0.8926682 0.6503906 0.1529948
-5.35811 172.4657 -27.05226 0.4069839 0.2179622 -0.8870494 0.6116536 0.1529948
-3.52123 93.34339 -20.00865 0.3845084 -0.02010681 -0.9229025 0.5729167 0.1380208
-7.354778 92.89308 -21.58279 0.3756881 -0.0162554 -0.9266036 0.5729167 0.1529948
-4.207163 69.91081 -20.78379 0.2555681 -0.01418381 -0.966687 0.6116536 0.1380208
-7.354689 69.46358 -21.58313 0.2602074 -0.01643423 -0.9654129 0.6116536 0.1529948
-1.167088 89.9939 22.65149 -0.4386011 -5.349683e-06 0.8986819 0.5729167 0.1455078
2.397382 189.5445 -2.295994 -0.1744995 -0.8468527 0.5023848 0.6503906 0.1529948
11.84998 189.5644 0.8190205 -0.1375863 -0.8955188 0.4232212 0.6503906 0.1380208
6.087066 186.7777 19.46559 0.213627 -0.7062158 -0.6749984 0.6116536 0.1380208
-1.704326 187.0275 17.02522 0.1854611 -0.7224792 -0.666054 0.6116536 0.1529948
-2.630442 162.2907 19.56944 0.4242676 -0.07493301 -0.9024312 0.5729167 0.1529948
3.630227 162.4128 22.62499 0.4383979 -0.08301521 -0.8949389 0.5729167 0.1380208
-9.906816 158.0591 0.4841496 0.1422298 0.9094322 -0.3907733 0.6503906 0.1529948
0.96866 158.0591 4.442495 0.07299495 0.9769599 -0.2005522 0.6503906 0.1380208
12.43541 168.3182 -9.560371 -0.3324448 0.162561 0.9290072 0.6116536 0.1380208
1.559936 168.3182 -13.51872 -0.3114707 0.4131116 0.8557598 0.6116536 0.1529948
-9.209737 190.7615 -12.42119 -0.1205301 -0.9410366 0.3161052 0.6503906 0.1529948
1.665741 190.7615 -8.462839 -0.05668189 -0.9861718 0.1557322 0.6503906 0.1380208
-2.421516 181.1394 13.75729 0.3238491 -0.321613 -0.8897679 0.6116536 0.1380208
-13.29699 181.1394 9.798938 0.3115629 -0.4125204 -0.8560115 0.6116536 0.1529948
-9.005967 136.9558 -22.55726 -0.4447674 0.07332904 0.8926393 0.6503906 0.1529948
-3.750691 137.4611 -19.96023 -0.447659 0.07702628 0.8908806 0.6503906 0.1380208
-0.0602479 172.4634 -22.21358 -0.3863433 -0.3011698 0.8718002 0.6116536 0.1380208
-6.303147 171.9822 -25.19209 -0.407109 -0.2142308 0.8879006 0.6116536 0.1529948
-8.364582 92.94441 -19.69473 -0.3757808 0.01619193 0.9265672 0.5729167 0.1529948
-4.527198 93.39458 -18.11855 -0.3845912 0.02006962 0.9228688 0.5729167 0.1380208
-3.9752 37.98498 -17.47695 -0.4220004 0.005025466 0.9065818 0.5729167 0.1380208
-5.215196 69.93639 -18.89443 -0.2557207 0.01417315 0.9666469 0.6116536 0.1380208
-8.364635 69.48924 -19.69481 -0.2603435 0.01642041 0.9653764 0.6116536 0.1529948
-9.726792 36.62468 -20.22978 -0.4323409 0.003241386 0.9017044 0.5729167 0.1529948
-0.4599462 89.9943 20.62985 0.4386055 -1.356189e-05 -0.8986797 0.5729167 0.1417643
-2.965105 37.98498 -19.36555 0.4219883 -0.005021764 -0.9065874 0.5729167 0.1380208
-8.716702 36.62468 -22.11838 0.4323393 -0.003234415 -0.9017053 0.5729167 0.1529948
9.982187 6.195449 -3.760617 0.5498245 -0.6077453 0.5730084 0.4124349 0.1044922
13.41755 21.88278 -0.3252918 0.7071066 1.700818e-06 0.7071069 0.4124349 0.1233724
-6.153582 21.88278 7.781338 -4.604584e-08 2.382872e-06 1 0.4348958 0.1233724
-6.153582 6.195435 2.923023 0.016393 -0.6077459 0.7939624 0.4348958 0.1044922
16.66585 6.195446 -19.89638 0.793962 -0.6077464 -0.01639222 0.3880208 0.1044922
21.52419 21.88278 -19.89642 1 2.417407e-07 3.683668e-07 0.3880208 0.1233724
9.982196 6.195444 -36.03215 0.5730072 -0.607747 -0.5498239 0.3652344 0.1044922
13.41755 21.88278 -39.46757 0.7071066 -1.510879e-06 -0.707107 0.3652344 0.1233724
-6.153573 6.195443 -42.71579 -0.01639274 -0.6077479 -0.7939608 0.5257161 0.1044922
-6.153573 21.88277 -47.5742 2.129621e-07 -2.308049e-06 -1 0.5257161 0.1233724
-22.28934 6.195444 -36.03215 -0.549824 -0.6077473 -0.5730068 0.5016276 0.1044922
-25.72471 21.88278 -39.46757 -0.7071069 -1.493612e-06 -0.7071066 0.5016276 0.1233724
-28.97299 6.195446 -19.89638 -0.793962 -0.6077463 0.01639324 0.4791667 0.1044922
-33.83134 21.88278 -19.89642 -1 2.302292e-07 -6.906875e-08 0.4791667 0.1233724
-22.28935 6.195449 -3.760617 -0.5730078 -0.6077455 0.5498251 0.4563802 0.1044922
-25.72473 21.88278 -0.3252918 -0.707107 1.968461e-06 0.7071066 0.4570312 0.1233724
-11.38223 1.080046 -7.273332 -0.1140466 -0.9545603 0.2753325 0.445638 0.0859375
6.469481 1.080045 -14.66773 0.2753327 -0.9545602 0.1140471 0.4049479 0.0859375
-0.9249341 1.080042 -32.51943 0.1140464 -0.9545604 -0.2753324 0.3769531 0.0859375
-18.77663 1.080044 -25.12502 -0.2753327 -0.9545603 -0.1140464 0.4876302 0.0859375
9.982187 37.57008 -3.76069 0.5506453 0.6050866 0.5750304 0.4124349 0.1455078
-6.153582 37.57008 2.92295 0.01724275 0.605087 0.7959726 0.4348958 0.1455078
16.66585 37.57008 -19.89647 0.7959732 0.6050863 -0.01724313 0.3880208 0.1455078
9.982196 37.57009 -36.03224 0.5750308 0.6050858 -0.5506458 0.3652344 0.1455078
-6.153573 37.57009 -42.71589 -0.01724289 0.6050858 -0.7959736 0.5257161 0.1455078
-22.28934 37.57009 -36.03224 -0.5506453 0.605086 -0.5750311 0.5016276 0.1455078
-28.97299 37.57008 -19.89648 -0.7959732 0.6050862 0.01724227 0.4791667 0.1455078
-22.28935 37.57008 -3.760713 -0.575031 0.6050871 0.5506443 0.4570312 0.1455078
6.712444 42.68547 -14.56716 0.2324986 0.9678171 0.09630432 0.405599 0.1634115
-11.48286 42.68547 -7.030419 -0.0963044 0.9678169 0.2324994 0.4466146 0.1634115
-0.8242948 42.68547 -32.76248 0.09630374 0.9678173 -0.2324978 0.3769531 0.1634115
-19.0196 42.68547 -25.22574 -0.2324984 0.9678172 -0.0963036 0.4892578 0.1634115
-6.153573 39.58056 -19.89647 -3.076822e-08 1 3.179383e-07 0.3505859 0.1376953
2.793339 191.3464 -3.383877 0.1708433 0.8456581 -0.5056431 0.5729167 0.1529948
12.14791 191.521 0.000486275 0.1323904 0.9013176 -0.4124311 0.5729167 0.1380208
-10.21144 156.1113 1.321088 -0.1336879 -0.9097272 0.3930954 0.5729167 0.1529948
0.8123231 155.9667 4.872027 -0.07078738 -0.9811537 0.1797963 0.5729167 0.1380208
-8.918718 192.7641 -13.12261 0.1220088 0.9434939 -0.3081123 0.5729167 0.1529948
1.78714 192.8737 -8.796379 0.04653024 0.989031 -0.1401882 0.5729167 0.1380208
-7.354778 92.89308 -21.58279 0.3756881 -0.0162554 -0.9266036 0.6503906 0.1529948
-3.52123 93.34339 -20.00865 0.3845084 -0.02010681 -0.9229025 0.6503906 0.1380208
-3.376044 162.407 21.57385 -0.4254544 0.08278324 0.9011857 0.6503906 0.1529948
2.879887 162.5387 24.62705 -0.4383412 0.0904082 0.8942502 0.6503906 0.1380208
2.397382 189.5445 -2.295994 -0.1744995 -0.8468527 0.5023848 0.5729167 0.1529948
11.84998 189.5644 0.8190205 -0.1375863 -0.8955188 0.4232212 0.5729167 0.1380208
-9.906816 158.0591 0.4841496 0.1422298 0.9094322 -0.3907733 0.5729167 0.1529948
0.96866 158.0591 4.442495 0.07299495 0.9769599 -0.2005522 0.5729167 0.1380208
-9.209737 190.7615 -12.42119 -0.1205301 -0.9410366 0.3161052 0.5729167 0.1529948
1.665741 190.7615 -8.462839 -0.05668189 -0.9861718 0.1557322 0.5729167 0.1380208
-2.630442 162.2907 19.56944 0.4242676 -0.07493301 -0.9024312 0.6503906 0.1529948
3.630227 162.4128 22.62499 0.4383979 -0.08301521 -0.8949389 0.6503906 0.1380208
-4.527198 93.39458 -18.11855 -0.3845912 0.02006962 0.9228688 0.6503906 0.1380208
-8.364582 92.94441 -19.69473 -0.3757808 0.01619193 0.9265672 0.6503906 0.1529948
13.41755 21.88278 -39.46757 0.7071066 -1.510879e-06 -0.707107 0.5478516 0.1233724
9.982196 6.195444 -36.03215 0.5730072 -0.607747 -0.5498239 0.5478516 0.1044922
-0.9249341 1.080042 -32.51943 0.1140464 -0.9545604 -0.2753324 0.5247396 0.0859375
-18.77663 1.080044 -25.12502 -0.2753327 -0.9545603 -0.1140464 0.3639323 0.1236979
-0.9249341 1.080042 -32.51943 0.1140464 -0.9545604 -0.2753324 0.3369141 0.1236979
-11.38223 1.080046 -7.273332 -0.1140466 -0.9545603 0.2753325 0.3639323 0.09733073
9.982196 37.57009 -36.03224 0.5750308 0.6050858 -0.5506458 0.5478516 0.1455078
-0.8242948 42.68547 -32.76248 0.09630374 0.9678173 -0.2324978 0.5263672 0.1634115
6.712444 42.68547 -14.56716 0.2324986 0.9678171 0.09630432 0.3639323 0.1246745
-11.48286 42.68547 -7.030419 -0.0963044 0.9678169 0.2324994 0.3369141 0.1246745
-0.8242948 42.68547 -32.76248 0.09630374 0.9678173 -0.2324978 0.3639323 0.1510417
-19.0196 42.68547 -25.22574 -0.2324984 0.9678172 -0.0963036 0.3369141 0.1510417
6.469481 1.080045 -14.66773 0.2753327 -0.9545602 0.1140471 0.3369141 0.09733073
3 0 1 2 
3 2 3 0 
3 0 3 4 
3 4 5 0 
3 6 7 8 
3 8 9 6 
3 6 9 83 
3 83 84 6 
3 10 11 12 
3 12 13 10 
3 10 13 85 
3 85 86 10 
3 14 15 16 
3 16 17 14 
3 14 17 87 
3 87 88 14 
3 18 19 16 
3 16 15 18 
3 89 90 20 
3 20 21 89 
3 91 22 92 
3 23 24 25 
3 25 26 23 
3 27 26 25 
3 25 28 27 
3 29 30 31 
3 31 32 29 
3 93 32 31 
3 31 94 93 
3 33 34 35 
3 35 36 33 
3 95 36 35 
3 35 96 95 
3 37 38 39 
3 39 40 37 
3 97 40 39 
3 39 98 97 
3 37 41 42 
3 42 38 37 
3 43 44 45 
3 45 46 43 
3 47 99 100 
3 48 49 21 
3 21 20 48 
3 44 101 102 
3 102 45 44 
3 50 51 52 
3 52 53 50 
3 54 55 51 
3 51 50 54 
3 56 57 55 
3 55 54 56 
3 58 59 103 
3 103 104 58 
3 60 61 59 
3 59 58 60 
3 62 63 61 
3 61 60 62 
3 64 65 63 
3 63 62 64 
3 53 52 65 
3 65 64 53 
3 50 53 66 
3 66 67 50 
3 54 50 67 
3 56 54 67 
3 67 68 56 
3 58 104 105 
3 60 58 105 
3 105 69 60 
3 62 60 69 
3 64 62 69 
3 69 66 64 
3 53 64 66 
3 106 107 108 
3 70 71 52 
3 52 51 70 
3 72 70 51 
3 51 55 72 
3 73 72 55 
3 55 57 73 
3 74 109 103 
3 103 59 74 
3 75 74 59 
3 59 61 75 
3 76 75 61 
3 61 63 76 
3 77 76 63 
3 63 65 77 
3 71 77 65 
3 65 52 71 
3 70 78 79 
3 79 71 70 
3 72 78 70 
3 73 80 78 
3 78 72 73 
3 74 110 109 
3 75 81 110 
3 110 74 75 
3 76 81 75 
3 77 79 81 
3 81 76 77 
3 71 79 77 
3 111 82 112 
3 113 82 111 
3 114 82 113 
3 112 82 114 
3 107 115 108 
