ply
format ascii 1.0
comment VCGLIB generated
comment TextureFile cemetery_halloween_atlas.tga
element vertex 173
property float x
property float y
property float z
property float nx
property float ny
property float nz
property float texture_u
property float texture_v
element face 188
property list uchar int vertex_indices
end_header
5.966779 181.3583 19.07454 -0.2139774 0.7108896 0.6699625 0.6116536 0.1380208
12.5565 184.6109 -1.834601 0.1323904 0.9013175 -0.4124312 0.6503906 0.1380208
3.201931 184.4363 -5.218964 0.1708434 0.845658 -0.5056432 0.6503906 0.1529948
-1.801231 181.6674 16.57897 -0.1826396 0.7297313 0.6588892 0.6116536 0.1529948
-2.967451 155.4969 19.73876 -0.4256243 0.08192892 0.9011835 0.5729167 0.1529948
3.288479 155.6286 22.79196 -0.4383523 0.08991183 0.8942948 0.5729167 0.1380208
13.56882 161.0983 -13.38688 0.3247956 -0.1674295 -0.9308466 0.6116536 0.1380208
1.220916 149.0566 3.03694 -0.0707874 -0.9811537 0.1797963 0.6503906 0.1380208
-9.802845 149.2012 -0.5139992 -0.133688 -0.9097272 0.3930955 0.6503906 0.1529948
2.63562 160.5233 -17.18663 0.3151466 -0.4418099 -0.8399326 0.6116536 0.1529948
-2.706527 174.9181 13.82786 -0.3236895 0.3183346 0.8910041 0.6116536 0.1380208
2.195732 185.9635 -10.63147 0.04653172 0.9890309 -0.1401883 0.6503906 0.1380208
-8.510126 185.854 -14.9577 0.1220094 0.9434939 -0.308112 0.6503906 0.1529948
-13.55569 175.1128 9.797213 -0.3096324 0.4188067 0.8536561 0.6116536 0.1529948
1.24727 166.1578 -25.89627 0.3879537 0.3095711 -0.8681346 0.6116536 0.1380208
-2.399209 130.3839 -23.71107 0.4475014 -0.07330941 -0.8912734 0.6503906 0.1380208
-7.649014 129.8773 -26.30529 0.4450817 -0.06979118 -0.8927662 0.6503906 0.1529948
-4.949518 165.5556 -28.88735 0.4069836 0.2179617 -0.8870497 0.6116536 0.1529948
-3.112637 83.53434 -21.84374 0.3841787 -0.01833914 -0.9230766 0.5729167 0.1380208
-6.946186 83.08401 -23.41788 0.3755312 -0.0146428 -0.9266941 0.5729167 0.1529948
-3.79857 60.10175 -22.61887 0.256348 -0.02058128 -0.9663654 0.6116536 0.1380208
-6.946096 59.65452 -23.41822 0.2656951 -0.0222247 -0.9638009 0.6116536 0.1529948
1.409499 108.5802 21.87601 -0.4390645 -3.274306e-05 0.8984556 0.5729167 0.1380208
-2.92649 108.4703 19.75679 -0.4391104 -3.804931e-05 0.8984331 0.5729167 0.1529948
2.805975 182.6344 -4.131081 -0.1744995 -0.8468527 0.5023848 0.6503906 0.1529948
12.25858 182.6543 -1.016066 -0.1375863 -0.8955188 0.4232211 0.6503906 0.1380208
6.495658 179.8676 17.6305 0.213627 -0.7062157 -0.6749985 0.6116536 0.1380208
-1.295733 180.1174 15.19013 0.1854611 -0.7224792 -0.666054 0.6116536 0.1529948
-2.22185 155.3806 17.73435 0.4244455 -0.07415273 -0.902412 0.5729167 0.1529948
4.038819 155.5027 20.7899 0.4384073 -0.08257108 -0.8949755 0.5729167 0.1380208
-9.498224 151.149 -1.350937 0.1422297 0.9094322 -0.3907733 0.6503906 0.1529948
1.377252 151.149 2.607408 0.07299495 0.9769599 -0.2005523 0.6503906 0.1380208
12.84401 161.4081 -11.39546 -0.3324448 0.1625608 0.9290072 0.6116536 0.1380208
1.968528 161.4081 -15.3538 -0.3114707 0.4131115 0.8557598 0.6116536 0.1529948
-8.801145 183.8514 -14.25628 -0.12053 -0.9410366 0.3161054 0.6503906 0.1529948
2.074334 183.8514 -10.29793 -0.056682 -0.9861717 0.1557325 0.6503906 0.1380208
-2.012924 174.2293 11.9222 0.3238493 -0.3216136 -0.8897676 0.6116536 0.1380208
-12.8884 174.2293 7.963851 0.3115635 -0.4125197 -0.8560115 0.6116536 0.1529948
-8.597375 130.0457 -24.39235 -0.4448144 0.07180534 0.8927397 0.6503906 0.1529948
-3.342098 130.551 -21.79531 -0.4476036 0.07573982 0.8910188 0.6503906 0.1380208
0.3483446 165.5533 -24.04867 -0.3863438 -0.3011695 0.8718001 0.6116536 0.1380208
-5.894555 165.0721 -27.02718 -0.4071093 -0.2142314 0.8879003 0.6116536 0.1529948
-7.95599 83.13535 -21.52982 -0.3756248 0.01458882 0.926657 0.5729167 0.1529948
-4.118605 83.58552 -19.95363 -0.3842632 0.0183079 0.9230421 0.5729167 0.1380208
-3.566607 37.50196 -19.31204 -0.4179453 0.008126606 0.9084359 0.5729167 0.1380208
-4.806603 60.12732 -20.72951 -0.256497 0.02055552 0.9663264 0.6116536 0.1380208
-7.956043 59.68018 -21.52989 -0.2658153 0.02219914 0.9637684 0.6116536 0.1529948
-9.3182 36.14164 -22.06487 -0.432589 0.004542752 0.9015798 0.5729167 0.1529948
2.119219 108.581 19.85527 0.4389564 -2.702255e-06 -0.8985084 0.5729167 0.1380208
-2.221925 108.4703 17.73425 0.4389913 1.304377e-06 -0.8984913 0.5729167 0.1529948
-2.556513 37.50196 -21.20064 0.417924 -0.00812717 -0.9084457 0.5729167 0.1380208
-8.308109 36.14164 -23.95347 0.4325873 -0.004534402 -0.9015807 0.5729167 0.1529948
-16.5498 80.42387 29.85921 -0.8702739 0.1597804 0.4659331 0.4124349 0.273763
-11.78925 89.95367 27.11076 -0.8420063 0.2346642 0.4857553 0.4124349 0.2877604
-13.11999 89.95366 17.00287 -0.9386172 0.2357424 -0.2518397 0.4348958 0.2877604
-18.42968 80.42386 15.58009 -0.961212 0.1597828 -0.2248132 0.4348958 0.273763
-5.123649 80.42387 38.62685 -0.2248155 0.1597776 0.9612123 0.3880208 0.273763
-3.700912 89.95367 33.31723 -0.2517679 0.2339087 0.9390951 0.3880208 0.2877604
9.155511 80.42387 36.74694 0.4659351 0.1597785 0.8702732 0.3652344 0.273763
6.407037 89.95367 31.98645 0.4862499 0.2339178 0.8419285 0.3652344 0.2877604
17.9231 80.42387 25.3208 0.961212 0.1597801 0.2248151 0.5257161 0.273763
12.61344 89.95367 23.89811 0.939033 0.2346882 0.2512739 0.5257161 0.2877604
16.04323 80.42385 11.04164 0.8702733 0.1597822 -0.4659335 0.5016276 0.273763
11.2827 89.95366 13.79021 0.8414497 0.2357664 -0.4861858 0.5016276 0.2877604
4.617066 80.42385 2.274032 0.2248145 0.1597845 -0.9612114 0.4791667 0.273763
3.194345 89.95366 7.58377 0.2513489 0.236521 -0.9385529 0.4791667 0.2877604
-9.662086 80.42385 4.153916 -0.4659337 0.1597847 -0.8702728 0.4567057 0.273763
-6.913581 89.95366 8.914504 -0.4856954 0.236511 -0.841524 0.4570312 0.2877604
-15.10796 75.13481 30.63022 -0.7532127 -0.4751639 0.4548514 0.4101562 0.2636719
-17.23653 75.1348 14.46211 -0.8452722 -0.4751618 -0.2444098 0.438151 0.2636719
-10.06835 70.09752 12.91905 -0.320095 -0.9149926 -0.2456171 0.445638 0.2503255
-7.784659 70.09753 30.26547 -0.2456183 -0.9149922 0.3200953 0.4049479 0.2503255
-6.241584 75.13482 37.43367 -0.24441 -0.4751649 0.8452705 0.3929037 0.2636719
9.926538 75.1348 35.30508 0.454853 -0.4751646 0.7532114 0.3688151 0.2636719
9.561761 70.09753 27.9818 0.3200951 -0.9149923 0.2456184 0.3769531 0.2503255
16.72995 75.13482 26.43872 0.8452715 -0.4751634 0.2444092 0.5253906 0.2636719
14.60139 75.1348 10.27059 0.7532123 -0.4751626 -0.4548536 0.4977213 0.2636719
7.278069 70.09752 10.63536 0.2456176 -0.9149927 -0.3200944 0.4876302 0.2503255
5.735002 75.1348 3.467165 0.2444093 -0.4751622 -0.8452722 0.4817708 0.2636719
-10.43313 75.1348 5.595734 -0.4548538 -0.4751618 -0.7532126 0.4534505 0.2636719
-13.02773 107.0577 27.87794 -0.8441197 0.2777159 0.4586239 0.4124349 0.3102213
-14.50201 107.0577 16.67965 -0.9339356 0.2787305 -0.2237716 0.4348958 0.3102213
-4.066864 107.0577 34.75388 -0.2240798 0.2770003 0.9343764 0.3880208 0.3102213
7.131447 107.0577 33.2796 0.4582707 0.2770097 0.8445434 0.3652344 0.3102213
14.00737 107.0577 24.31872 0.93405 0.2777399 0.2245246 0.5257161 0.3102213
12.53309 107.0577 13.12043 0.844189 0.2787538 -0.4578659 0.5016276 0.3102213
3.572221 107.0577 6.244518 0.2242179 0.2794723 -0.9336067 0.4791667 0.3102213
-7.62609 107.0577 7.718792 -0.4582188 0.2794631 -0.8437629 0.4570312 0.3102213
-5.729934 114.9994 27.64422 -0.2782411 0.8894361 0.3626091 0.405599 0.3277995
-7.392379 114.9994 15.0166 -0.3626102 0.8894358 -0.2782409 0.4466146 0.3277995
6.897714 114.9994 25.98176 0.3626089 0.8894367 0.2782393 0.3769531 0.3277995
5.235253 114.9994 13.35414 0.2782397 0.8894361 -0.3626103 0.4892578 0.3277995
-0.2473211 112.6179 20.49919 -6.486101e-07 1 -3.593115e-07 0.3505859 0.3027344
7.69908 2.42131 -0.06940471 0.5913503 -0.5198668 0.6164766 0.4124349 0.02148438
10.61914 28.49998 -1.744771 0.7071209 0.1870253 0.6819103 0.4124349 0.04003906
-6.016329 29.69655 5.04118 0.0001773407 0.2410055 0.9705237 0.4348958 0.04003906
-6.016329 1.926164 5.590073 0.0197223 -0.5112725 0.8591924 0.4348958 0.02148438
13.38019 3.616682 -13.73262 0.8352765 -0.549584 -0.01644717 0.3880208 0.02148438
17.50977 25.61128 -18.12751 0.998739 0.04737347 -0.01661869 0.3880208 0.04003906
7.69908 4.812053 -27.39583 0.5768765 -0.606766 -0.5468533 0.3652344 0.02148438
10.61914 22.72257 -34.51025 0.7014655 -0.1047587 -0.7049623 0.3652344 0.04003906
-6.016321 5.3072 -33.05531 -0.008368516 -0.6435205 -0.7653832 0.5257161 0.02148438
-6.016321 21.52601 -41.2962 0.003734329 -0.1673389 -0.9858924 0.5257161 0.04003906
-19.73172 4.812053 -27.39583 -0.5448046 -0.6170857 -0.5677969 0.5016276 0.02148438
-22.65178 22.72257 -34.51025 -0.7000068 -0.0945737 -0.7078463 0.5016276 0.04003906
-25.41282 3.616682 -13.73262 -0.8287828 -0.5591791 0.02092579 0.4791667 0.02148438
-29.54242 25.61128 -18.12751 -0.9982863 0.05662502 -0.01476724 0.4791667 0.04003906
-19.73174 2.42131 -0.06940471 -0.6159958 -0.5201837 0.5915726 0.4563802 0.02148438
-22.6518 28.49998 -1.744771 -0.7056723 0.1898007 0.6826437 0.4570312 0.04003906
-10.46068 -1.65001 -3.422812 -0.1140469 -0.9749247 0.1910894 0.445638 0.002604167
4.71327 -1.10222 -9.684129 0.2753325 -0.9608677 0.03041772 0.4049479 0.002604167
-1.571978 0.2202871 -24.80034 0.1140461 -0.9269313 -0.3574801 0.3769531 0.002604167
-16.74592 -0.3275024 -18.53901 -0.2753325 -0.9409882 -0.1968076 0.4876302 0.002604167
7.69908 41.12458 -6.935972 0.5506454 0.6957468 0.4612224 0.4124349 0.06217448
-6.016329 42.11109 -1.341184 0.01724272 0.7341135 0.6788079 0.4348958 0.06217448
13.38019 38.74292 -20.44299 0.7959734 0.592899 -0.1220535 0.3880208 0.06217448
7.69908 36.36125 -33.95005 0.5750313 0.5002736 -0.6473526 0.3652344 0.06217448
-6.016321 35.37476 -39.54484 -0.01724317 0.4576741 -0.8889529 0.5257161 0.06217448
-19.73172 36.36125 -33.95005 -0.5506456 0.4960395 -0.6713675 0.5016276 0.06217448
-25.41282 38.74292 -20.44301 -0.7959731 0.5988879 -0.08809214 0.4791667 0.06217448
-19.73174 41.12458 -6.935987 -0.575031 0.6915126 0.4372065 0.4570312 0.06217448
4.919797 43.81156 -16.73695 0.2324986 0.9698368 -0.07321876 0.405599 0.08007812
-10.54621 44.92399 -10.42805 -0.09630425 0.9934867 0.06090734 0.4466146 0.08007812
-1.486433 41.1259 -31.968 0.09630419 0.9127411 -0.3970254 0.3769531 0.08007812
-16.95244 42.23833 -25.6591 -0.2324982 0.9363908 -0.2629011 0.4892578 0.08007812
-6.016321 40.42586 -20.73974 -2.512739e-07 0.9848077 -0.1736484 0.3505859 0.0546875
3.201931 184.4363 -5.218964 0.1708434 0.845658 -0.5056432 0.5729167 0.1529948
12.5565 184.6109 -1.834601 0.1323904 0.9013175 -0.4124312 0.5729167 0.1380208
-9.802845 149.2012 -0.5139992 -0.133688 -0.9097272 0.3930955 0.5729167 0.1529948
1.220916 149.0566 3.03694 -0.0707874 -0.9811537 0.1797963 0.5729167 0.1380208
-8.510126 185.854 -14.9577 0.1220094 0.9434939 -0.308112 0.5729167 0.1529948
2.195732 185.9635 -10.63147 0.04653172 0.9890309 -0.1401883 0.5729167 0.1380208
-6.946186 83.08401 -23.41788 0.3755312 -0.0146428 -0.9266941 0.6503906 0.1529948
-3.112637 83.53434 -21.84374 0.3841787 -0.01833914 -0.9230766 0.6503906 0.1380208
3.288479 155.6286 22.79196 -0.4383523 0.08991183 0.8942948 0.6503906 0.1380208
-2.967451 155.4969 19.73876 -0.4256243 0.08192892 0.9011835 0.6503906 0.1529948
2.805975 182.6344 -4.131081 -0.1744995 -0.8468527 0.5023848 0.5729167 0.1529948
12.25858 182.6543 -1.016066 -0.1375863 -0.8955188 0.4232211 0.5729167 0.1380208
-9.498224 151.149 -1.350937 0.1422297 0.9094322 -0.3907733 0.5729167 0.1529948
1.377252 151.149 2.607408 0.07299495 0.9769599 -0.2005523 0.5729167 0.1380208
-8.801145 183.8514 -14.25628 -0.12053 -0.9410366 0.3161054 0.5729167 0.1529948
2.074334 183.8514 -10.29793 -0.056682 -0.9861717 0.1557325 0.5729167 0.1380208
-2.22185 155.3806 17.73435 0.4244455 -0.07415273 -0.902412 0.6503906 0.1529948
4.038819 155.5027 20.7899 0.4384073 -0.08257108 -0.8949755 0.6503906 0.1380208
-4.118605 83.58552 -19.95363 -0.3842632 0.0183079 0.9230421 0.6503906 0.1380208
-7.95599 83.13535 -21.52982 -0.3756248 0.01458882 0.926657 0.6503906 0.1529948
6.407037 89.95367 31.98645 0.4862499 0.2339178 0.8419285 0.5478516 0.2877604
9.155511 80.42387 36.74694 0.4659351 0.1597785 0.8702732 0.5478516 0.273763
9.926538 75.1348 35.30508 0.454853 -0.4751646 0.7532114 0.5410156 0.2636719
9.561761 70.09753 27.9818 0.3200951 -0.9149923 0.2456184 0.5247396 0.2503255
7.278069 70.09752 10.63536 0.2456176 -0.9149927 -0.3200944 0.3639323 0.2884115
9.561761 70.09753 27.9818 0.3200951 -0.9149923 0.2456184 0.3369141 0.2884115
-10.06835 70.09752 12.91905 -0.320095 -0.9149926 -0.2456171 0.3639323 0.2620443
7.131447 107.0577 33.2796 0.4582707 0.2770097 0.8445434 0.5478516 0.3102213
6.897714 114.9994 25.98176 0.3626089 0.8894367 0.2782393 0.5263672 0.3277995
-5.729934 114.9994 27.64422 -0.2782411 0.8894361 0.3626091 0.3639323 0.289388
-7.392379 114.9994 15.0166 -0.3626102 0.8894358 -0.2782409 0.3369141 0.289388
6.897714 114.9994 25.98176 0.3626089 0.8894367 0.2782393 0.3639323 0.3154297
5.235253 114.9994 13.35414 0.2782397 0.8894361 -0.3626103 0.3369141 0.3154297
-7.784659 70.09753 30.26547 -0.2456183 -0.9149922 0.3200953 0.3369141 0.2620443
10.61914 22.72257 -34.51025 0.7014655 -0.1047587 -0.7049623 0.5478516 0.04003906
7.69908 4.812053 -27.39583 0.5768765 -0.606766 -0.5468533 0.5478516 0.02148438
-1.571978 0.2202871 -24.80034 0.1140461 -0.9269313 -0.3574801 0.5247396 0.002604167
-16.74592 -0.3275024 -18.53901 -0.2753325 -0.9409882 -0.1968076 0.3639323 0.04069011
-1.571978 0.2202871 -24.80034 0.1140461 -0.9269313 -0.3574801 0.3369141 0.04069011
-10.46068 -1.65001 -3.422812 -0.1140469 -0.9749247 0.1910894 0.3639323 0.01432292
7.69908 36.36125 -33.95005 0.5750313 0.5002736 -0.6473526 0.5478516 0.06217448
-1.486433 41.1259 -31.968 0.09630419 0.9127411 -0.3970254 0.5263672 0.08007812
4.919797 43.81156 -16.73695 0.2324986 0.9698368 -0.07321876 0.3639323 0.04166667
-10.54621 44.92399 -10.42805 -0.09630425 0.9934867 0.06090734 0.3369141 0.04166667
-1.486433 41.1259 -31.968 0.09630419 0.9127411 -0.3970254 0.3639323 0.06803385
-16.95244 42.23833 -25.6591 -0.2324982 0.9363908 -0.2629011 0.3369141 0.06803385
4.71327 -1.10222 -9.684129 0.2753325 -0.9608677 0.03041772 0.3369141 0.01432292
3 0 1 2 
3 2 3 0 
3 0 3 4 
3 4 5 0 
3 6 7 8 
3 8 9 6 
3 6 9 126 
3 126 127 6 
3 10 11 12 
3 12 13 10 
3 10 13 128 
3 128 129 10 
3 14 15 16 
3 16 17 14 
3 14 17 130 
3 130 131 14 
3 18 19 16 
3 16 15 18 
3 132 133 20 
3 20 21 132 
3 22 134 135 
3 135 23 22 
3 24 25 26 
3 26 27 24 
3 28 27 26 
3 26 29 28 
3 30 31 32 
3 32 33 30 
3 136 33 32 
3 32 137 136 
3 34 35 36 
3 36 37 34 
3 138 37 36 
3 36 139 138 
3 38 39 40 
3 40 41 38 
3 140 41 40 
3 40 141 140 
3 38 42 43 
3 43 39 38 
3 44 45 46 
3 46 47 44 
3 142 143 48 
3 48 49 142 
3 50 51 21 
3 21 20 50 
3 45 144 145 
3 145 46 45 
3 52 53 54 
3 54 55 52 
3 56 57 53 
3 53 52 56 
3 58 59 57 
3 57 56 58 
3 60 61 146 
3 146 147 60 
3 62 63 61 
3 61 60 62 
3 64 65 63 
3 63 62 64 
3 66 67 65 
3 65 64 66 
3 55 54 67 
3 67 66 55 
3 68 69 70 
3 70 71 68 
3 72 68 71 
3 73 72 71 
3 71 74 73 
3 75 148 149 
3 76 75 149 
3 149 77 76 
3 78 76 77 
3 79 78 77 
3 77 70 79 
3 69 79 70 
3 150 151 152 
3 80 81 54 
3 54 53 80 
3 82 80 53 
3 53 57 82 
3 83 82 57 
3 57 59 83 
3 84 153 146 
3 146 61 84 
3 85 84 61 
3 61 63 85 
3 86 85 63 
3 63 65 86 
3 87 86 65 
3 65 67 87 
3 81 87 67 
3 67 54 81 
3 80 88 89 
3 89 81 80 
3 82 88 80 
3 83 90 88 
3 88 82 83 
3 84 154 153 
3 85 91 154 
3 154 84 85 
3 86 91 85 
3 87 89 91 
3 91 86 87 
3 81 89 87 
3 155 92 156 
3 157 92 155 
3 158 92 157 
3 156 92 158 
3 151 159 152 
3 55 69 68 
3 68 52 55 
3 52 68 72 
3 72 56 52 
3 56 72 73 
3 73 58 56 
3 147 148 75 
3 75 60 147 
3 60 75 76 
3 76 62 60 
3 62 76 78 
3 78 64 62 
3 64 78 79 
3 79 66 64 
3 66 79 69 
3 69 55 66 
3 93 94 95 
3 95 96 93 
3 97 98 94 
3 94 93 97 
3 99 100 98 
3 98 97 99 
3 101 102 160 
3 160 161 101 
3 103 104 102 
3 102 101 103 
3 105 106 104 
3 104 103 105 
3 107 108 106 
3 106 105 107 
3 96 95 108 
3 108 107 96 
3 93 96 109 
3 109 110 93 
3 97 93 110 
3 99 97 110 
3 110 111 99 
3 101 161 162 
3 103 101 162 
3 162 112 103 
3 105 103 112 
3 107 105 112 
3 112 109 107 
3 96 107 109 
3 163 164 165 
3 113 114 95 
3 95 94 113 
3 115 113 94 
3 94 98 115 
3 116 115 98 
3 98 100 116 
3 117 166 160 
3 160 102 117 
3 118 117 102 
3 102 104 118 
3 119 118 104 
3 104 106 119 
3 120 119 106 
3 106 108 120 
3 114 120 108 
3 108 95 114 
3 113 121 122 
3 122 114 113 
3 115 121 113 
3 116 123 121 
3 121 115 116 
3 117 167 166 
3 118 124 167 
3 167 117 118 
3 119 124 118 
3 120 122 124 
3 124 119 120 
3 114 122 120 
3 168 125 169 
3 170 125 168 
3 171 125 170 
3 169 125 171 
3 164 172 165 
