ply
format ascii 1.0
comment VCGLIB generated
comment TextureFile cemetery_halloween_atlas.tga
element vertex 116
property float x
property float y
property float z
property float nx
property float ny
property float nz
property float texture_u
property float texture_v
element face 108
property list uchar int vertex_indices
end_header
7.48197 3.420181 -2.145743 0.5890915 -0.4958997 0.6380084 0.4124349 0.1044922
10.45356 34.11803 -3.317814 0.7054411 0.1577241 0.6909963 0.4124349 0.1233724
-6.475471 35.93292 3.455486 0.0007669073 0.2123216 0.9771996 0.4348958 0.1233724
-6.475471 3.420197 3.635614 0.01981398 -0.479013 0.8775842 0.4348958 0.1044922
13.26333 3.420179 -16.10318 0.8398768 -0.542718 0.00801148 0.3880208 0.1044922
17.4658 29.73647 -19.67 0.999607 0.02784793 -0.003198532 0.3880208 0.1233724
7.481974 3.420176 -30.06061 0.594476 -0.5939146 -0.542092 0.3652344 0.1044922
10.45356 25.35491 -36.02219 0.7076411 -0.1021513 -0.699149 0.3652344 0.1233724
-6.475464 3.420191 -35.84197 -0.01346663 -0.6194081 -0.7849537 0.5257161 0.1044922
-6.475464 23.54 -42.79549 0.001754572 -0.1539666 -0.9880745 0.5257161 0.1233724
-20.4329 3.420192 -30.06061 -0.566249 -0.6001257 -0.5649879 0.5016276 0.1044922
-23.4045 25.35491 -36.02219 -0.7059629 -0.0963089 -0.7016701 0.5016276 0.1233724
-26.21426 3.420179 -16.10318 -0.8349326 -0.5486472 0.0432882 0.4791667 0.1044922
-30.41673 29.73647 -19.67 -0.9993957 0.03447549 -0.004449964 0.4791667 0.1233724
-20.43292 3.420181 -2.145743 -0.6121245 -0.4997799 0.6127998 0.4563802 0.1044922
-23.40451 34.11803 -3.317814 -0.7045066 0.1615216 0.6910725 0.4570312 0.1233724
-10.99825 -1.004624 -5.18424 -0.1140461 -0.9545604 0.2753324 0.445638 0.0859375
4.443477 -1.004625 -11.58039 0.2753318 -0.9545605 0.1140468 0.4049479 0.0859375
-1.952691 -1.004628 -27.02211 0.1140459 -0.9545605 -0.2753321 0.3769531 0.0859375
-17.39441 -1.004627 -20.62594 -0.275332 -0.9545605 -0.1140466 0.4876302 0.0859375
7.481971 51.40169 -9.700233 0.5705093 0.6914716 0.4431547 0.4124349 0.1455078
-6.475471 52.89801 -4.115882 0.01820327 0.7434767 0.6685141 0.4348958 0.1455078
13.26334 47.78923 -23.18207 0.8194078 0.5518637 -0.1549751 0.3880208 0.1455078
7.481974 44.17677 -36.66394 0.5869403 0.4297747 -0.6861449 0.3652344 0.1455078
-6.475464 42.68045 -42.2483 -0.01730531 0.3736361 -0.9274139 0.5257161 0.1455078
-20.4329 44.17677 -36.66394 -0.5624443 0.4235085 -0.7101387 0.5016276 0.1455078
-26.21426 47.78923 -23.18209 -0.8190919 0.560831 -0.1206535 0.4791667 0.1455078
-20.43292 51.40169 -9.700255 -0.5962204 0.6850527 0.4185978 0.4570312 0.1455078
4.653642 53.25638 -19.87454 0.2324983 0.959765 -0.157467 0.405599 0.1634115
-11.0853 54.9437 -13.57739 -0.09630401 0.9950147 -0.0259124 0.4466146 0.1634115
-1.865638 49.18284 -35.07719 0.09630399 0.8746647 -0.4750654 0.3769531 0.1634115
-17.60457 50.87016 -28.78005 -0.2324983 0.9099143 -0.3435121 0.4892578 0.1634115
-6.475464 49.46904 -23.63218 4.615234e-08 0.9659259 -0.2588188 0.3505859 0.1376953
5.455168 167.1781 17.50206 -0.2139772 0.7108897 0.6699625 0.6116536 0.1380208
12.04489 170.4306 -3.407082 0.1323904 0.9013176 -0.4124311 0.6503906 0.1380208
2.690319 170.256 -6.791445 0.1708433 0.8456581 -0.5056431 0.6503906 0.1529948
-2.312843 167.4872 15.00649 -0.1826394 0.7297312 0.6588894 0.6116536 0.1529948
-3.479063 141.3166 18.16628 -0.4251619 0.08442452 0.9011714 0.5729167 0.1529948
2.776867 141.4483 21.21948 -0.4382637 0.09370556 0.8939486 0.5729167 0.1380208
13.05721 146.9181 -14.95936 0.3247957 -0.1674291 -0.9308466 0.6116536 0.1380208
0.7093039 134.8763 1.46446 -0.07078729 -0.9811537 0.1797962 0.6503906 0.1380208
-10.31446 135.0209 -2.08648 -0.1336878 -0.9097272 0.3930954 0.6503906 0.1529948
2.124008 146.3431 -18.75911 0.315147 -0.4418108 -0.8399319 0.6116536 0.1529948
-3.218139 160.7379 12.25538 -0.3236894 0.3183341 0.8910043 0.6116536 0.1380208
1.68412 171.7833 -12.20395 0.04653013 0.989031 -0.1401882 0.6503906 0.1380208
-9.021738 171.6738 -16.53018 0.1220086 0.9434939 -0.3081122 0.6503906 0.1529948
-14.0673 160.9326 8.224734 -0.3096316 0.4188074 0.8536561 0.6116536 0.1529948
0.7356577 151.9775 -27.46875 0.3879535 0.3095712 -0.8681346 0.6116536 0.1380208
-2.910821 116.2036 -25.28355 0.4482846 -0.09270656 -0.8890705 0.6503906 0.1380208
-8.160626 115.6971 -27.87777 0.4443267 -0.09268763 -0.8910571 0.6503906 0.1529948
-5.46113 151.3754 -30.45983 0.4069835 0.2179618 -0.8870497 0.6116536 0.1529948
-3.624249 92.7042 -23.41622 0.3889038 -0.04450382 -0.9202029 0.5729167 0.1380208
-7.457798 92.25388 -24.99036 0.3777999 -0.03906822 -0.9250627 0.5729167 0.1529948
-4.310182 69.27161 -24.19135 0.256348 -0.02058128 -0.9663655 0.6116536 0.1380208
-7.457708 68.82439 -24.9907 0.2656951 -0.0222247 -0.9638009 0.6116536 0.1529948
-1.270107 115.462 19.24392 -0.4386014 -1.528597e-05 0.8986818 0.5729167 0.1455078
2.294363 168.4541 -5.703561 -0.1744994 -0.8468528 0.5023845 0.6503906 0.1529948
11.74696 168.474 -2.588547 -0.1375862 -0.895519 0.4232207 0.6503906 0.1380208
5.984046 165.6874 16.05802 0.2136272 -0.7062153 -0.6749988 0.6116536 0.1380208
-1.807345 165.9371 13.61765 0.1854612 -0.7224789 -0.6660544 0.6116536 0.1529948
-2.733462 141.2004 16.16187 0.4239604 -0.07641804 -0.902451 0.5729167 0.1529948
3.527207 141.3224 19.21742 0.4383323 -0.08610787 -0.8946789 0.5729167 0.1380208
-10.00984 136.9687 -2.923417 0.1422298 0.9094322 -0.3907734 0.6503906 0.1529948
0.8656406 136.9687 1.034926 0.07299488 0.9769599 -0.2005521 0.6503906 0.1380208
12.33239 147.2278 -12.96794 -0.3324447 0.162561 0.9290073 0.6116536 0.1380208
1.456916 147.2278 -16.92628 -0.3114706 0.4131115 0.8557599 0.6116536 0.1529948
-9.312757 169.6712 -15.82876 -0.1205302 -0.9410366 0.3161051 0.6503906 0.1529948
1.562722 169.6712 -11.87041 -0.05668193 -0.9861717 0.1557322 0.6503906 0.1380208
-2.524536 160.049 10.34972 0.323849 -0.3216131 -0.8897679 0.6116536 0.1380208
-13.40001 160.049 6.391372 0.3115627 -0.4125204 -0.8560115 0.6116536 0.1529948
-9.108987 115.8654 -25.96483 -0.4440389 0.09461132 0.8909984 0.6503906 0.1529948
-3.85371 116.3707 -23.36779 -0.4483566 0.09503139 0.8887887 0.6503906 0.1380208
-0.1632671 151.373 -25.62115 -0.3863438 -0.3011695 0.8718001 0.6116536 0.1380208
-6.406167 150.8919 -28.59966 -0.4071093 -0.2142314 0.8879003 0.6116536 0.1529948
-8.467602 92.30522 -23.1023 -0.3778701 0.03880825 0.925045 0.5729167 0.1529948
-4.630217 92.75539 -21.52612 -0.3889541 0.04434349 0.9201893 0.5729167 0.1380208
-4.078219 46.67183 -20.88452 -0.4179453 0.0081266 0.9084359 0.5729167 0.1380208
-5.318215 69.2972 -22.302 -0.256497 0.02055552 0.9663264 0.6116536 0.1380208
-8.467655 68.85005 -23.10238 -0.2658153 0.02219913 0.9637684 0.6116536 0.1529948
-9.829812 45.31152 -23.63735 -0.4325891 0.004542752 0.9015798 0.5729167 0.1529948
-0.5629649 115.4624 17.22228 0.4386065 -3.783916e-05 -0.8986793 0.5729167 0.1417643
-3.068125 46.67183 -22.77312 0.417924 -0.008127175 -0.9084457 0.5729167 0.1380208
-8.819721 45.31152 -25.52595 0.4325872 -0.004534403 -0.9015807 0.5729167 0.1529948
10.45356 25.35491 -36.02219 0.7076411 -0.1021513 -0.699149 0.5478516 0.1233724
7.481974 3.420176 -30.06061 0.594476 -0.5939146 -0.542092 0.5478516 0.1044922
-1.952691 -1.004628 -27.02211 0.1140459 -0.9545605 -0.2753321 0.5247396 0.0859375
-17.39441 -1.004627 -20.62594 -0.275332 -0.9545605 -0.1140466 0.3639323 0.1236979
-1.952691 -1.004628 -27.02211 0.1140459 -0.9545605 -0.2753321 0.3369141 0.1236979
-10.99825 -1.004624 -5.18424 -0.1140461 -0.9545604 0.2753324 0.3639323 0.09733073
7.481974 44.17677 -36.66394 0.5869403 0.4297747 -0.6861449 0.5478516 0.1455078
-1.865638 49.18284 -35.07719 0.09630399 0.8746647 -0.4750654 0.5263672 0.1634115
4.653642 53.25638 -19.87454 0.2324983 0.959765 -0.157467 0.3639323 0.1246745
-11.0853 54.9437 -13.57739 -0.09630401 0.9950147 -0.0259124 0.3369141 0.1246745
-1.865638 49.18284 -35.07719 0.09630399 0.8746647 -0.4750654 0.3639323 0.1510417
-17.60457 50.87016 -28.78005 -0.2324983 0.9099143 -0.3435121 0.3369141 0.1510417
4.443477 -1.004625 -11.58039 0.2753318 -0.9545605 0.1140468 0.3369141 0.09733073
2.690319 170.256 -6.791445 0.1708433 0.8456581 -0.5056431 0.5729167 0.1529948
12.04489 170.4306 -3.407082 0.1323904 0.9013176 -0.4124311 0.5729167 0.1380208
-10.31446 135.0209 -2.08648 -0.1336878 -0.9097272 0.3930954 0.5729167 0.1529948
0.7093039 134.8763 1.46446 -0.07078729 -0.9811537 0.1797962 0.5729167 0.1380208
-9.021738 171.6738 -16.53018 0.1220086 0.9434939 -0.3081122 0.5729167 0.1529948
1.68412 171.7833 -12.20395 0.04653013 0.989031 -0.1401882 0.5729167 0.1380208
-7.457798 92.25388 -24.99036 0.3777999 -0.03906822 -0.9250627 0.6503906 0.1529948
-3.624249 92.7042 -23.41622 0.3889038 -0.04450382 -0.9202029 0.6503906 0.1380208
-3.479063 141.3166 18.16628 -0.4251619 0.08442452 0.9011714 0.6503906 0.1529948
2.776867 141.4483 21.21948 -0.4382637 0.09370556 0.8939486 0.6503906 0.1380208
2.294363 168.4541 -5.703561 -0.1744994 -0.8468528 0.5023845 0.5729167 0.1529948
11.74696 168.474 -2.588547 -0.1375862 -0.895519 0.4232207 0.5729167 0.1380208
-10.00984 136.9687 -2.923417 0.1422298 0.9094322 -0.3907734 0.5729167 0.1529948
0.8656406 136.9687 1.034926 0.07299488 0.9769599 -0.2005521 0.5729167 0.1380208
-9.312757 169.6712 -15.82876 -0.1205302 -0.9410366 0.3161051 0.5729167 0.1529948
1.562722 169.6712 -11.87041 -0.05668193 -0.9861717 0.1557322 0.5729167 0.1380208
-2.733462 141.2004 16.16187 0.4239604 -0.07641804 -0.902451 0.6503906 0.1529948
3.527207 141.3224 19.21742 0.4383323 -0.08610787 -0.8946789 0.6503906 0.1380208
-4.630217 92.75539 -21.52612 -0.3889541 0.04434349 0.9201893 0.6503906 0.1380208
-8.467602 92.30522 -23.1023 -0.3778701 0.03880825 0.925045 0.6503906 0.1529948
3 0 1 2 
3 2 3 0 
3 4 5 1 
3 1 0 4 
3 6 7 5 
3 5 4 6 
3 8 9 83 
3 83 84 8 
3 10 11 9 
3 9 8 10 
3 12 13 11 
3 11 10 12 
3 14 15 13 
3 13 12 14 
3 3 2 15 
3 15 14 3 
3 0 3 16 
3 16 17 0 
3 4 0 17 
3 6 4 17 
3 17 18 6 
3 8 84 85 
3 10 8 85 
3 85 19 10 
3 12 10 19 
3 14 12 19 
3 19 16 14 
3 3 14 16 
3 86 87 88 
3 20 21 2 
3 2 1 20 
3 22 20 1 
3 1 5 22 
3 23 22 5 
3 5 7 23 
3 24 89 83 
3 83 9 24 
3 25 24 9 
3 9 11 25 
3 26 25 11 
3 11 13 26 
3 27 26 13 
3 13 15 27 
3 21 27 15 
3 15 2 21 
3 20 28 29 
3 29 21 20 
3 22 28 20 
3 23 30 28 
3 28 22 23 
3 24 90 89 
3 25 31 90 
3 90 24 25 
3 26 31 25 
3 27 29 31 
3 31 26 27 
3 21 29 27 
3 91 32 92 
3 93 32 91 
3 94 32 93 
3 92 32 94 
3 87 95 88 
3 33 34 35 
3 35 36 33 
3 33 36 37 
3 37 38 33 
3 39 40 41 
3 41 42 39 
3 39 42 96 
3 96 97 39 
3 43 44 45 
3 45 46 43 
3 43 46 98 
3 98 99 43 
3 47 48 49 
3 49 50 47 
3 47 50 100 
3 100 101 47 
3 51 52 49 
3 49 48 51 
3 102 103 53 
3 53 54 102 
3 104 55 105 
3 56 57 58 
3 58 59 56 
3 60 59 58 
3 58 61 60 
3 62 63 64 
3 64 65 62 
3 106 65 64 
3 64 107 106 
3 66 67 68 
3 68 69 66 
3 108 69 68 
3 68 109 108 
3 70 71 72 
3 72 73 70 
3 110 73 72 
3 72 111 110 
3 70 74 75 
3 75 71 70 
3 76 77 78 
3 78 79 76 
3 80 112 113 
3 81 82 54 
3 54 53 81 
3 77 114 115 
3 115 78 77 
