ply
format ascii 1.0
comment VCGLIB generated
comment TextureFile key.png
element vertex 165
property float x
property float y
property float z
property float nx
property float ny
property float nz
property float texture_u
property float texture_v
element face 326
property list uchar int vertex_indices
end_header
-1.96286 0.812912 -20.15065 -0.6533434 0.2705993 -0.7070491 0.1061995 0.9706337
1.962433 0.812912 -20.15065 0.28746 0.4303189 -0.8556824 0.09949262 0.9706337
1.962433 -0.8127899 -20.15065 0.2874601 -0.430319 -0.8556824 0.09949262 0.9706337
-1.96286 -0.8127899 -20.15065 -0.6533434 -0.2705993 -0.7070491 0.1061995 0.9706337
1.625427 -1.625687 -14.81853 0.7070463 -0.7071673 0 0.100068 0.9737011
3.051758e-05 -2.299088 -14.81853 5.309572e-05 -1 0 0.1028461 0.9737011
3.051758e-05 -2.299088 -16.17311 5.309572e-05 -1 0 0.1028461 0.9729218
1.625427 -1.625687 -16.17311 0.7070463 -0.7071673 0 0.100068 0.9729218
3.188446 1.525879e-05 -14.81853 1 1.567834e-08 0 0.09739736 0.9737011
2.851532 -0.8127899 -14.81853 0.3934967 -0.9193261 0 0.09797271 0.9737011
3.678253 -0.8127899 -16.17311 0.2654703 -0.8854967 0.3813413 0.09656011 0.9729218
4.015137 1.525879e-05 -16.17311 0.3857811 0 0.9225904 0.09598475 0.9729218
3.051758e-05 2.29921 -14.81853 5.306491e-05 1 0 0.1028461 0.9737011
1.625427 1.625809 -14.81853 0.7070463 0.7071673 0 0.100068 0.9737011
1.625427 1.625809 -16.17311 0.7070463 0.7071673 0 0.100068 0.9729218
3.051758e-05 2.29921 -16.17311 5.307518e-05 1 0 0.1028461 0.9729218
-1.625946 1.625809 -14.81853 -0.7070087 0.7072049 0 0.1056242 0.9737011
-1.625946 1.625809 -16.17311 -0.7070088 0.7072048 0 0.1056242 0.9729218
-2.299347 1.525879e-05 -14.81853 -1 0 0 0.1067749 0.9737011
-1.96286 0.812912 -14.81853 -0.9238917 0.3826541 0 0.1061995 0.9737011
-1.96286 0.812912 -16.17311 -0.9238917 0.3826541 0 0.1061995 0.9729218
-2.299347 1.525879e-05 -16.17311 -1 0 0 0.1067749 0.9729218
-1.625946 -1.625687 -14.81853 -0.7070088 -0.7072048 0 0.1056242 0.9737011
-1.96286 -0.8127899 -14.81853 -0.9238917 -0.382654 0 0.1061995 0.9737011
-1.96286 -0.8127899 -16.17311 -0.9238917 -0.382654 0 0.1061995 0.9729218
-1.625946 -1.625687 -16.17311 -0.7070087 -0.7072049 0 0.1056242 0.9729218
3.051758e-05 -2.299088 -0.4476852 5.574018e-05 -0.9770632 -0.2129498 0.1028461 0.9819681
1.625427 -1.625687 -0.4476852 0.6908281 -0.6909533 -0.2129321 0.100068 0.9819681
2.15033 -2.150681 1.271599 0.7070248 -0.7071888 -7.589135e-07 0.09917083 0.9829572
3.051758e-05 -3.041595 1.271599 3.945681e-05 -1 2.534148e-06 0.1028461 0.9829572
1.962433 -0.8127899 -0.4476852 0.907295 -0.3757801 -0.1886935 0.09949262 0.9819681
2.596252 -1.075394 1.271599 0.9238568 -0.3827384 -2.170516e-07 0.09840968 0.9829572
2.298828 1.525879e-05 -0.4476852 0.9770634 0 -0.212949 0.09891726 0.9819681
1.962433 0.812912 -0.4476852 0.907295 0.3757801 -0.1886934 0.09949262 0.9819681
2.596252 1.075409 1.271599 0.9238567 0.3827385 -2.119446e-07 0.09840968 0.9829572
3.041534 1.525879e-05 1.271599 1 2.448421e-08 -1.713895e-07 0.09764851 0.9829572
1.625427 1.625809 -0.4476852 0.6908286 0.6909526 -0.2129329 0.100068 0.9819681
3.051758e-05 2.29921 -0.4476852 4.962418e-05 0.977064 -0.212946 0.1028461 0.9819681
3.051758e-05 3.041611 1.271599 -0.001755059 0.999983 -0.005554102 0.1028461 0.9829572
2.15033 2.150818 1.271599 0.7083091 0.7059 -0.001863682 0.09917083 0.9829572
-1.625946 1.625809 -0.4476852 -0.690824 0.6909704 -0.2128904 0.1056242 0.9819681
-2.150848 2.150818 1.271599 -0.7071224 0.7070912 -3.476824e-06 0.1065213 0.9829572
-1.96286 0.812912 -0.4476852 -0.9073147 0.3757882 -0.1885823 0.1061995 0.9819681
-2.596161 1.075409 1.271599 -0.9238567 0.3827384 3.174957e-05 0.1072825 0.9829572
-2.299347 1.525879e-05 -0.4476852 -0.9770822 -9.938136e-09 -0.2128627 0.1067749 0.9819681
-1.96286 -0.8127899 -0.4476852 -0.9073147 -0.3757882 -0.1885823 0.1061995 0.9819681
-2.596161 -1.075394 1.271599 -0.9238567 -0.3827385 3.175468e-05 0.1072825 0.9829572
-3.041962 1.525879e-05 1.271599 -1 0 -2.449008e-07 0.1080436 0.9829572
-1.625946 -1.625687 -0.4476852 -0.6908268 -0.6909661 -0.212895 0.1056242 0.9819681
-2.150848 -2.150681 1.271599 -0.7071224 -0.7070912 3.121796e-06 0.1065213 0.9829572
1.625427 -1.625687 2.990868 0.523503 -0.5236014 0.6721504 0.100068 0.9839462
3.051758e-05 -2.299088 2.990868 3.652356e-05 -0.7404153 0.6721497 0.1028461 0.9839462
1.962433 -0.8127899 2.990868 0.6631957 -0.274674 0.6962224 0.09949271 0.9839462
1.962433 0.812912 2.990868 0.6631896 0.2746852 0.6962239 0.09949271 0.9839462
2.298828 1.525879e-05 2.990868 0.7403898 -3.027449e-06 0.6721778 0.09891736 0.9839462
3.051758e-05 2.29921 3.069698 -0.0002060417 0.7247337 0.6890291 0.1028461 0.9839916
1.625427 1.625809 2.990868 0.5309946 0.5163735 0.6718655 0.100068 0.9839462
-1.625946 1.625809 2.990868 -0.533279 0.5197386 0.6674469 0.1056241 0.9839462
-1.962372 0.812912 2.990868 -0.6631446 0.2746666 0.696274 0.1061994 0.9839462
-1.962372 -0.8127899 2.990868 -0.6631482 -0.2746544 0.6962755 0.1061994 0.9839462
-2.299347 1.525879e-05 2.990868 -0.7404122 -4.003241e-06 0.6721532 0.1067748 0.9839462
-1.625946 -1.625687 2.990868 -0.5236158 -0.5235097 0.672134 0.1056241 0.9839462
3.051758e-05 -2.299088 -10.29916 5.307518e-05 -1 0 0.1028461 0.9763009
1.625427 -1.625687 -10.29916 0.7070463 -0.7071673 0 0.100068 0.9763009
1.962433 -0.8127899 -10.29916 0.7728949 -0.5990568 0.2091997 0.09949262 0.9763009
2.298828 1.525879e-05 -10.29916 0.5944795 0 0.8041108 0.09891726 0.9763009
1.962433 0.812912 -10.29916 0.7728949 0.5990568 0.2091997 0.09949262 0.9763009
1.625427 1.625809 -10.29916 0.7070463 0.7071673 0 0.100068 0.9763009
3.051758e-05 2.29921 -10.29916 5.308544e-05 1 0 0.1028461 0.9763009
-1.625946 1.625809 -10.29916 -0.7070088 0.7072048 0 0.1056242 0.9763009
-1.96286 0.812912 -10.29916 -0.9238917 0.382654 0 0.1061995 0.9763009
-2.299347 1.525879e-05 -10.29916 -1 -5.133376e-09 0 0.1067749 0.9763009
-1.96286 -0.8127899 -10.29916 -0.9238917 -0.3826541 0 0.1061995 0.9763009
-1.625946 -1.625687 -10.29916 -0.7070087 -0.7072049 0 0.1056242 0.9763009
2.298828 1.525879e-05 -20.15065 8.647611e-08 0 -1 0.09891726 0.9706337
5.408234 0.812912 -20.15065 0.2279848 0.6737846 -0.7028779 0.09360456 0.9706337
5.744629 1.525879e-05 -20.15065 0.4749578 2.757577e-09 -0.8800086 0.0930292 0.9706337
6.466827 -0.8127899 -10.29916 0.4968063 -0.6650966 0.5575213 0.09179492 0.9763009
6.803741 1.525879e-05 -10.29916 0.8298934 0 0.5579221 0.09121956 0.9763009
3.051758e-05 -2.299088 -13.46395 5.30649e-05 -1 0 0.1028461 0.9744803
1.625427 -1.625687 -13.46395 0.7070463 -0.7071673 0 0.100068 0.9744803
3.051758e-05 -2.299088 -20.15065 4.121459e-05 -0.7763822 -0.6302624 0.1028461 0.9706337
1.625427 -1.625687 -20.15065 0.5489249 -0.5490189 -0.6302854 0.100068 0.9706337
6.196747 1.525879e-05 -13.46395 0.7142049 0 -0.6999367 0.09225634 0.9744803
5.860352 -0.8127899 -13.46395 0.3902273 -0.6651959 -0.6365824 0.0928317 0.9744803
4.015137 1.525879e-05 -13.46395 0.3857811 0 -0.9225904 0.09598475 0.9744803
3.678253 -0.8127899 -13.46395 0.2654703 -0.8854967 -0.3813413 0.09656011 0.9744803
6.208527 1.525879e-05 -19.65429 0.9081893 0 -0.4185597 0.09223634 0.9709193
5.87204 0.812912 -19.65429 0.5602134 0.7712337 -0.3022573 0.0928117 0.9709193
6.466827 0.812912 -16.17311 0.4912767 0.6650077 0.5625051 0.09179492 0.9729218
6.803741 1.525879e-05 -16.17311 0.8246077 0 0.565705 0.09121956 0.9729218
1.625427 1.625809 -13.46395 0.7070463 0.7071673 0 0.100068 0.9744803
3.051758e-05 2.29921 -13.46395 5.307518e-05 1 0 0.1028461 0.9744803
1.625427 1.625809 -20.15065 0.548925 0.5490189 -0.6302854 0.100068 0.9706337
3.051758e-05 2.29921 -20.15065 4.12425e-05 0.7763822 -0.6302624 0.1028461 0.9706337
-1.625946 1.625809 -13.46395 -0.7070087 0.7072049 0 0.1056242 0.9744803
-1.625946 1.625809 -20.15065 -0.5489008 0.5490531 -0.6302767 0.1056242 0.9706337
-1.96286 0.812912 -13.46395 -0.9238917 0.382654 0 0.1061995 0.9744803
-2.299347 1.525879e-05 -13.46395 -1 0 0 0.1067749 0.9744803
-1.96286 -0.8127899 -13.46395 -0.9238917 -0.382654 0 0.1061995 0.9744803
-1.625946 -1.625687 -13.46395 -0.7070087 -0.7072049 0 0.1056242 0.9744803
-2.299347 1.525879e-05 -20.15065 -0.7763435 0 -0.63031 0.1067749 0.9706337
-1.625946 -1.625687 -20.15065 -0.5489008 -0.5490531 -0.6302767 0.1056242 0.9706337
3.678253 0.812912 -16.17311 0.2654703 0.8854967 0.3813413 0.09656011 0.9729218
2.851532 0.812912 -14.81853 0.3934967 0.9193261 0 0.09797271 0.9737011
5.408234 -0.8127899 -20.15065 0.2279848 -0.6737846 -0.7028779 0.09360456 0.9706337
6.466827 0.812912 -10.29916 0.4968063 0.6650966 0.5575213 0.09179492 0.9763009
6.466827 -0.8127899 -16.17311 0.4912767 -0.6650077 0.5625051 0.09179492 0.9729218
5.87204 -0.8127899 -19.65429 0.5602135 -0.7712337 -0.3022573 0.0928117 0.9709193
5.860352 0.812912 -13.46395 0.3902273 0.6651959 -0.6365824 0.0928317 0.9744803
3.678253 0.812912 -13.46395 0.2654703 0.8854967 -0.3813413 0.09656011 0.9744803
1.962433 0.812912 -14.81853 0.5554769 0.831532 0 0.09949262 0.9737011
1.962433 0.812912 -16.17311 0.5554769 0.831532 0 0.09949262 0.9729218
1.962433 -0.8127899 -14.81853 0.5554769 -0.831532 0 0.09949262 0.9737011
1.962433 -0.8127899 -16.17311 0.5554769 -0.831532 0 0.09949262 0.9729218
1.962433 0.812912 -13.46395 0.5554768 0.8315321 0 0.09949262 0.9744803
1.962433 -0.8127899 -13.46395 0.555477 -0.8315319 0 0.09949262 0.9744803
0.8378296 -0.838089 3.438267 0.1658286 -0.1659242 0.9720957 0.1014139 0.9842036
3.051758e-05 -1.185287 3.438267 2.698116e-05 -0.234618 0.9720877 0.1028461 0.9842036
1.011749 -0.4189911 3.438267 0.1881804 -0.07793435 0.9790375 0.1011173 0.9842036
1.185028 1.525879e-05 3.438267 0.2345823 -1.523303e-05 0.9720963 0.1008206 0.9842036
1.011749 0.4191132 3.438267 0.1881757 0.07795488 0.9790368 0.1011173 0.9842036
0.8378296 0.8382111 3.438267 0.1658546 0.1659139 0.972093 0.1014139 0.9842036
3.051758e-05 1.185318 3.438267 0.01178494 0.203932 0.9789141 0.1028461 0.9842036
-0.8383484 0.8382111 3.438267 -0.169575 0.1530614 0.9735587 0.1042783 0.9842036
-1.011749 0.4191132 3.438267 -0.1880785 0.0779146 0.9790586 0.1045749 0.9842036
-1.185547 1.525879e-05 3.438267 -0.2346669 -2.008279e-05 0.9720759 0.1048715 0.9842036
-1.011749 -0.4189911 3.438267 -0.1880891 -0.07789655 0.979058 0.1045749 0.9842036
-0.8383484 -0.838089 3.438267 -0.1659464 -0.1658802 0.9720832 0.1042783 0.9842036
-4.254852 -1.726486 19.18649 -0.06965929 -0.9928994 0.09642873 0.1101166 0.993263
3.051758e-05 -1.726486 18.04045 0 -0.9988024 -0.04892707 0.1028457 0.9926037
3.051758e-05 -1.451385 19.0046 -4.20279e-09 -0.6474426 0.7621143 0.1028457 0.9931583
-4.768066 -1.451385 20.15065 -0.4098563 -0.5155129 0.7525054 0.1109934 0.9938176
3.051758e-05 1.451416 19.0046 0 0.6474689 0.7620919 0.1028457 0.9931583
3.051758e-05 1.726517 18.04045 3.400816e-09 0.9988028 -0.04891717 0.1028457 0.9926037
-4.254852 1.726517 19.18649 -0.06964847 0.9929022 0.09640788 0.1101166 0.993263
-4.768066 1.451416 20.15065 -0.409852 0.5155287 0.7524969 0.1109934 0.9938176
-3.741669 1.451416 18.22234 0.295457 0.8111646 -0.5046952 0.1092398 0.9927083
3.051758e-05 1.451416 17.07629 1.674131e-09 0.5535054 -0.8328456 0.1028457 0.992049
3.051758e-05 -1.451385 17.07629 0 -0.5534847 -0.8328593 0.1028457 0.992049
-3.741669 -1.451385 18.22233 0.2954761 -0.8111382 -0.5047264 0.1092398 0.9927083
4.768036 1.451416 20.15065 0.4098519 0.5155287 0.7524969 0.09469809 0.9938176
4.768036 -1.451385 20.15065 0.4098563 -0.5155129 0.7525054 0.09469809 0.9938176
3.74173 -1.451385 18.22233 -0.295476 -0.8111382 -0.5047264 0.09645171 0.9927083
4.254852 -1.726486 19.18649 0.06965926 -0.9928994 0.09642873 0.0955749 0.993263
4.254852 1.726517 19.18649 0.06964848 0.9929021 0.09640791 0.0955749 0.993263
3.74173 1.451416 18.22234 -0.295457 0.8111646 -0.5046952 0.09645171 0.9927083
-6.704559 -1.726486 10.9936 -0.1094421 -0.9894016 -0.0954309 0.1143022 0.9885499
-5.256348 -1.178894 11.22165 0.6915593 -0.6892055 0.2161982 0.1118281 0.9886811
-8.152344 1.178909 10.76555 -0.841 0.4977577 -0.2120288 0.1167763 0.9884187
-8.152344 -1.178894 10.76555 -0.8410062 -0.4977462 -0.2120314 0.1167763 0.9884187
-6.704559 1.726517 10.9936 -0.1094316 0.9894034 -0.09542374 0.1143022 0.9885499
-5.256348 1.178909 11.22165 0.691543 0.6892253 0.2161871 0.1118281 0.9886811
6.704529 -1.726486 10.9936 0.1094421 -0.9894015 -0.09543087 0.09138922 0.9885499
8.152344 -1.178894 10.76555 0.8410062 -0.4977463 -0.2120312 0.08891513 0.9884187
5.256348 1.178909 11.22165 -0.691543 0.6892253 0.216187 0.09386332 0.9886811
5.256348 -1.178894 11.22165 -0.6915593 -0.6892055 0.2161981 0.09386332 0.9886811
6.704529 1.726517 10.9936 0.1094316 0.9894034 -0.09542377 0.09138922 0.9885499
8.152344 1.178909 10.76555 0.8410001 0.4977576 -0.212029 0.08891513 0.9884187
3.051758e-05 -1.121185 5.073597 4.917173e-09 -0.992555 -0.1217972 0.1028457 0.9851443
3.051758e-05 -0.5831909 7.156326 7.661652e-08 -0.7384138 0.6743479 0.1028457 0.9863424
3.051758e-05 0.583313 2.990868 -8.92643e-08 0.4951637 -0.8687997 0.1028457 0.9839462
3.051758e-05 -0.5831909 2.990868 7.047182e-08 -0.4951637 -0.8687997 0.1028457 0.9839462
3.051758e-05 1.121216 5.073597 -1.229294e-08 0.9925553 -0.1217954 0.1028457 0.9851443
3.051758e-05 0.583313 7.156326 3.283562e-08 0.7384159 0.6743456 0.1028457 0.9863424
3 0 1 2 
3 2 3 0 
3 4 5 6 
3 6 7 4 
3 8 9 10 
3 10 11 8 
3 12 13 14 
3 14 15 12 
3 16 12 15 
3 15 17 16 
3 18 19 20 
3 20 21 18 
3 22 23 24 
3 24 25 22 
3 5 22 25 
3 25 6 5 
3 26 27 28 
3 28 29 26 
3 27 30 31 
3 31 28 27 
3 32 33 34 
3 34 35 32 
3 36 37 38 
3 38 39 36 
3 37 40 41 
3 41 38 37 
3 40 42 43 
3 43 41 40 
3 44 45 46 
3 46 47 44 
3 48 26 29 
3 29 49 48 
3 29 28 50 
3 50 51 29 
3 31 52 50 
3 50 28 31 
3 34 53 54 
3 54 35 34 
3 39 38 55 
3 55 56 39 
3 38 41 57 
3 57 55 38 
3 43 58 57 
3 57 41 43 
3 46 59 60 
3 60 47 46 
3 49 29 51 
3 51 61 49 
3 27 26 62 
3 62 63 27 
3 32 30 64 
3 64 65 32 
3 36 33 66 
3 66 67 36 
3 37 36 67 
3 67 68 37 
3 40 37 68 
3 68 69 40 
3 44 42 70 
3 70 71 44 
3 48 45 72 
3 72 73 48 
3 26 48 73 
3 73 62 26 
3 74 1 75 
3 75 76 74 
3 65 64 77 
3 77 78 65 
3 63 62 79 
3 79 80 63 
3 80 79 5 
3 5 4 80 
3 81 82 7 
3 7 6 81 
3 83 78 77 
3 77 84 83 
3 8 85 86 
3 86 9 8 
3 87 88 89 
3 89 90 87 
3 68 67 91 
3 91 92 68 
3 92 91 13 
3 13 12 92 
3 93 94 15 
3 15 14 93 
3 69 68 92 
3 92 95 69 
3 95 92 12 
3 12 16 95 
3 94 96 17 
3 17 15 94 
3 71 70 97 
3 97 98 71 
3 98 97 19 
3 19 18 98 
3 96 0 20 
3 20 17 96 
3 73 72 99 
3 99 100 73 
3 100 99 23 
3 23 22 100 
3 101 3 24 
3 24 21 101 
3 62 73 100 
3 100 79 62 
3 79 100 22 
3 22 5 79 
3 102 81 6 
3 6 25 102 
3 89 103 11 
3 11 90 89 
3 84 86 85 
3 85 83 84 
3 76 75 88 
3 88 87 76 
3 1 74 2 
3 94 93 1 
3 96 94 1 
3 0 96 1 
3 3 101 0 
3 81 102 3 
3 82 81 3 
3 2 82 3 
3 8 11 103 
3 103 104 8 
3 16 17 20 
3 20 19 16 
3 18 21 24 
3 24 23 18 
3 32 35 31 
3 31 30 32 
3 36 39 34 
3 34 33 36 
3 44 47 43 
3 43 42 44 
3 48 49 46 
3 46 45 48 
3 31 35 54 
3 54 52 31 
3 34 39 56 
3 56 53 34 
3 43 47 60 
3 60 58 43 
3 46 49 61 
3 61 59 46 
3 27 63 64 
3 64 30 27 
3 32 65 66 
3 66 33 32 
3 40 69 70 
3 70 42 40 
3 44 71 72 
3 72 45 44 
3 74 76 105 
3 105 2 74 
3 65 78 106 
3 106 66 65 
3 87 90 107 
3 107 108 87 
3 106 78 83 
3 83 109 106 
3 110 85 8 
3 8 104 110 
3 69 95 97 
3 97 70 69 
3 95 16 19 
3 19 97 95 
3 101 21 20 
3 20 0 101 
3 71 98 99 
3 99 72 71 
3 98 18 23 
3 23 99 98 
3 102 25 24 
3 24 3 102 
3 107 90 11 
3 11 10 107 
3 109 83 85 
3 85 110 109 
3 76 87 108 
3 108 105 76 
3 111 104 103 
3 103 112 111 
3 9 113 114 
3 114 10 9 
3 66 106 109 
3 66 109 110 
3 115 66 110 
3 115 110 104 
3 104 111 115 
3 103 89 88 
3 88 75 1 
3 103 88 1 
3 103 1 112 
3 115 91 67 
3 67 66 115 
3 111 13 91 
3 91 115 111 
3 112 14 13 
3 13 111 112 
3 1 93 14 
3 14 112 1 
3 9 86 116 
3 116 113 9 
3 86 84 77 
3 86 77 64 
3 86 64 116 
3 2 105 108 
3 108 107 10 
3 2 108 10 
3 114 2 10 
3 64 63 80 
3 80 116 64 
3 116 80 4 
3 4 113 116 
3 113 4 7 
3 7 114 113 
3 114 7 82 
3 82 2 114 
3 51 50 117 
3 117 118 51 
3 50 52 119 
3 119 117 50 
3 52 54 120 
3 120 119 52 
3 54 53 121 
3 121 120 54 
3 53 56 122 
3 122 121 53 
3 56 55 123 
3 123 122 56 
3 55 57 124 
3 124 123 55 
3 57 58 125 
3 125 124 57 
3 58 60 126 
3 126 125 58 
3 60 59 127 
3 127 126 60 
3 59 61 128 
3 128 127 59 
3 61 51 118 
3 118 128 61 
3 117 119 120 
3 117 120 121 
3 121 122 123 
3 123 124 125 
3 121 123 125 
3 117 121 125 
3 125 126 127 
3 117 125 127 
3 117 127 128 
3 117 128 118 
3 129 130 131 
3 131 132 129 
3 133 134 135 
3 135 136 133 
3 137 138 139 
3 139 140 137 
3 141 133 131 
3 131 142 141 
3 143 144 130 
3 130 139 143 
3 133 141 145 
3 145 134 133 
3 146 143 139 
3 139 138 146 
3 136 132 131 
3 131 133 136 
3 140 129 147 
3 147 148 140 
3 132 136 149 
3 149 150 132 
3 135 151 149 
3 149 136 135 
3 137 140 148 
3 148 152 137 
3 144 153 154 
3 154 142 144 
3 143 146 155 
3 155 156 143 
3 146 145 157 
3 157 155 146 
3 141 142 154 
3 154 158 141 
3 147 159 160 
3 160 148 147 
3 150 149 161 
3 161 162 150 
3 149 151 163 
3 163 161 149 
3 152 148 160 
3 160 164 152 
3 154 153 159 
3 159 162 154 
3 156 155 164 
3 164 160 156 
3 157 163 164 
3 164 155 157 
3 158 154 162 
3 162 161 158 
3 140 139 130 
3 130 129 140 
3 144 142 131 
3 131 130 144 
3 129 132 150 
3 150 147 129 
3 143 156 153 
3 153 144 143 
3 150 162 159 
3 159 147 150 
3 153 156 160 
3 160 159 153 
3 134 138 137 
3 137 135 134 
3 146 138 134 
3 134 145 146 
3 137 152 151 
3 151 135 137 
3 145 141 158 
3 158 157 145 
3 151 152 164 
3 164 163 151 
3 158 161 163 
3 163 157 158 
