ply
format ascii 1.0
comment VCGLIB generated
comment TextureFile lantern_A_d.png
element vertex 158
property float x
property float y
property float z
property float nx
property float ny
property float nz
property float texture_u
property float texture_v
element face 196
property list uchar int vertex_indices
end_header
3.940362 28.76162 -4.5 -0.3952555 -0.8103929 0.4324771 0.5331207 0.723336
4.320002 29.54 -4 -3.651627e-07 3.012186e-07 1 0.5520378 0.7236499
2.522409 30.41674 -3.464102 0.4493972 -0.219186 0.8660252 0.5616158 0.7575666
1.918072 29.74796 -3.897114 -0.2009002 -0.9051859 0.3745365 0.5445774 0.7671692
0.4376531 30.47 -2.25 -0.05862608 -0.974579 0.2162375 0.5764822 0.7992141
1.206487 31.05856 -2 0.7783784 -0.3796407 0.5000001 0.5856823 0.7833266
0.7248223 31.29348 2.449294e-16 0.8987941 -0.4383712 -3.064119e-07 0.6199759 0.7913892
-0.1042128 30.73429 2.755455e-16 -0.006546344 -0.9999786 1.202016e-07 0.620153 0.810953
0.437659 30.47 2.25 -0.05862373 -0.974579 -0.2162386 0.6638283 0.7989764
1.206487 31.05856 2 0.7783792 -0.3796394 -0.4999999 0.6540785 0.7827706
2.522409 30.41674 3.464102 0.4493974 -0.2191859 -0.8660251 0.6793399 0.757983
1.918072 29.74796 3.897114 -0.2009009 -0.9051858 -0.3745364 0.6959527 0.7671327
3.940362 28.76162 4.5 -0.3952554 -0.8103929 -0.4324771 0.7074307 0.7233894
4.320002 29.54 4 -3.651627e-07 3.012186e-07 -1 0.6885197 0.7237325
6.117588 28.66326 3.464102 -0.4493967 0.2191858 -0.8660256 0.6796786 0.689317
5.962646 27.77528 3.897115 -0.5896088 -0.7156009 -0.3745355 0.6959864 0.6796529
7.443065 27.05324 2.25 -0.7318861 -0.6462073 -0.2162382 0.6640171 0.6478019
7.433516 28.02144 2 -0.7783787 0.3796404 -0.4999999 0.6548812 0.6638111
7.915175 27.78651 2.449294e-16 -0.8987934 0.4383726 0 0.6202818 0.6558665
7.98493 26.78895 2.755455e-16 -0.7839634 -0.6208071 0 0.6202926 0.6363871
7.443065 27.05324 -2.25 -0.7318861 -0.6462073 0.2162382 0.5765531 0.6477548
7.433516 28.02144 -2 -0.7783787 0.3796404 0.4999999 0.5856745 0.6637708
6.117588 28.66326 -3.464102 -0.4493967 0.2191858 0.8660256 0.5608612 0.6892591
5.962646 27.77528 -3.897115 -0.5896088 -0.7156009 0.3745355 0.5445561 0.6795965
3.940362 28.76162 -5.5 -0.3639771 -0.7462639 -0.5573248 0.5143611 0.7233416
1.468676 29.96714 -4.76314 -0.6144371 -0.6241065 -0.4826575 0.5281826 0.7765695
-0.340721 30.84964 -2.75 -0.7977874 -0.5346797 -0.2786629 0.5671047 0.8154062
-1.003009 31.17266 3.367779e-16 -0.8648978 -0.501948 1.505101e-07 0.6201659 0.8298274
-0.340721 30.84964 2.75 -0.7977868 -0.5346806 0.2786627 0.6732172 0.8152366
1.468676 29.96714 4.76314 -0.6144373 -0.6241065 0.4826571 0.7122743 0.7765586
3.940362 28.76162 5.5 -0.3639771 -0.7462639 0.5573248 0.7261905 0.72341
6.412041 27.5561 4.76314 -0.1135176 -0.8684214 0.4826573 0.7123539 0.6702675
8.221441 26.6736 2.75 0.06983303 -0.9578469 0.2786624 0.6733566 0.6314771
8.883726 26.35058 3.367779e-16 0.1369433 -0.9905789 0 0.6203008 0.6175722
8.221441 26.6736 -2.75 0.06983303 -0.9578469 -0.2786624 0.5672362 0.6314331
6.412041 27.5561 -4.76314 -0.1135176 -0.8684214 -0.4826573 0.5282191 0.670188
4.320002 29.54 -6 1.746716e-07 6.588491e-08 -1 0.4949214 0.7233313
1.623619 30.85511 -5.196152 -0.4493969 0.2191862 -0.8660253 0.5118551 0.7859324
-0.3502697 31.81784 -3 -0.778379 0.3796395 -0.5000002 0.5573636 0.8322324
-1.072764 32.17023 3.673941e-16 -0.8987938 0.4383718 -6.12883e-09 0.620191 0.8486484
-0.3502697 31.81784 3 -0.7783789 0.3796394 0.5000002 0.6829501 0.8320636
1.623619 30.85511 5.196152 -0.4493968 0.2191863 0.8660254 0.7285764 0.7859648
4.320002 29.54 6 1.77736e-07 1.470919e-07 1 0.7456321 0.723422
7.016385 28.22489 5.196153 0.4493979 -0.2191848 0.8660251 0.7286572 0.6608646
8.99027 27.26216 2.999999 0.7783791 -0.3796398 0.4999996 0.6830992 0.6150322
9.712762 26.90977 3.673941e-16 0.8987939 -0.4383714 0 0.6203087 0.5980994
8.99027 27.26216 -2.999999 0.7783791 -0.3796397 -0.4999996 0.5575058 0.6149805
7.016385 28.22489 -5.196153 0.4493979 -0.2191848 -0.8660251 0.5119206 0.6607772
2.227956 31.5239 -4.76314 0.1135169 0.8684214 -0.4826575 0.9115344 0.7833613
4.699641 30.31838 -5.5 0.3639773 0.7462639 -0.5573246 0.8587835 0.768343
0.4185617 32.4064 -2.75 -0.06983232 0.957847 -0.2786623 0.9502778 0.822296
-0.2437264 32.72942 3.367779e-16 -0.1369432 0.9905789 -1.157769e-08 0.9637115 0.875576
0.4185617 32.4064 2.75 -0.06983235 0.957847 0.2786623 0.9493986 0.9286286
2.227956 31.5239 4.763139 0.113517 0.8684214 0.4826574 0.909919 0.9667745
4.699641 30.31838 5.5 0.3639773 0.7462639 0.5573246 0.8568387 0.9805533
7.171321 29.11286 4.76314 0.6144366 0.6241076 0.4826565 0.8037676 0.965924
8.980721 28.23035 2.749999 0.797787 0.5346805 0.2786621 0.7654148 0.9265268
9.643006 27.90734 3.367779e-16 0.8648981 0.5019476 0 0.7512075 0.8734268
8.980721 28.23035 -2.749999 0.797787 0.5346805 -0.2786621 0.7662848 0.8204716
7.171321 29.11286 -4.76314 0.6144366 0.6241076 -0.4826565 0.8055968 0.7820346
2.677351 31.30471 -3.897114 0.5896094 0.7156001 0.374536 0.9020084 0.7995155
4.699641 30.31838 -4.5 0.3952552 0.8103932 0.4324771 0.8585362 0.7871832
1.196939 32.02676 -2.25 0.7318868 0.6462061 0.2162393 0.9338605 0.8315985
0.655067 32.29105 2.755455e-16 0.7839627 0.6208079 5.301158e-09 0.944924 0.8754175
1.196939 32.02676 2.25 0.7318867 0.6462061 -0.2162393 0.9331501 0.9190388
2.677351 31.30471 3.897114 0.5896094 0.7156001 -0.374536 0.9007438 0.9504277
4.699641 30.31838 4.5 0.3952552 0.8103932 -0.432477 0.8569881 0.9617118
6.721926 29.33204 3.897115 0.2009018 0.9051858 -0.3745361 0.8133836 0.9496957
8.202344 28.60999 2.25 0.05862421 0.9745789 -0.2162386 0.7817268 0.9172671
8.744216 28.34571 2.755455e-16 0.006549239 0.9999785 0 0.7700268 0.8735857
8.202344 28.60999 -2.25 0.05862421 0.9745789 0.2162386 0.7824713 0.8300975
6.721926 29.33204 -3.897115 0.2009018 0.9051858 0.3745361 0.8148291 0.7984067
-2.8785 29.925 -2.8785 -0.2897234 0.9122065 -0.2897235 0.6828882 0.2247801
-2.8785 29.925 2.8785 -0.2897235 0.9122065 0.2897234 0.5869616 0.2247802
2.8785 29.925 2.8785 0.2897234 0.9122065 0.2897235 0.5869616 0.1288537
2.8785 29.925 -2.8785 0.2897235 0.9122065 -0.2897234 0.6828882 0.128854
-1.245 34.595 0.8014711 -0.2971093 0.7172834 0.6302623 0.8943707 0.3690768
1.245 34.595 0.8014711 0.2971093 0.7172835 0.6302623 0.8942087 0.4228244
1.245 34.595 -0.8014711 0.2971093 0.7172834 -0.6302623 0.8596087 0.4227202
-1.245 34.595 -0.8014711 -0.2971093 0.7172835 -0.6302623 0.859771 0.3689722
-2.445 33.395 -0.8014711 -0.7172837 0.2971079 -0.6302627 0.859882 0.3323409
-2.445 29.705 -0.8014711 -0.7071068 0 -0.7071068 0.8601239 0.2526923
-2.445 29.705 0.8014711 -0.7071068 0 0.7071068 0.8947232 0.2527973
-2.445 33.395 0.8014711 -0.7172837 0.2971079 0.6302626 0.8944816 0.3324456
2.445 33.395 0.8014711 0.7172837 0.2971079 0.6302627 0.8940984 0.459456
2.445 29.705 0.8014711 0.7071068 0 0.7071068 0.8938585 0.5391062
2.445 29.705 -0.8014711 0.7071068 0 -0.7071068 0.8592581 0.5390018
2.445 33.395 -0.8014711 0.7172837 0.2971079 -0.6302626 0.8594983 0.4593518
1.175 33.325 0.8014711 -0.3015113 -0.3015113 0.904534 0.9216266 0.4213957
1.175 29.705 0.8014711 -0.7071068 0 0.7071068 0.9997654 0.4216286
-1.175 29.705 0.8014711 0.7071068 0 0.7071068 0.9999177 0.3709053
-1.175 33.325 0.8014711 0.3015113 -0.3015113 0.9045341 0.9217793 0.3706703
1.175 29.705 -0.8014711 -0.7071068 0 -0.7071068 0.7540594 0.4208905
1.175 33.325 -0.8014711 -0.3015113 -0.3015113 -0.9045341 0.8321997 0.4211263
-1.175 33.325 -0.8014711 0.3015113 -0.3015113 -0.904534 0.8323523 0.3704005
-1.175 29.705 -0.8014711 0.7071068 0 -0.7071068 0.7542119 0.3701645
-6.8875 0 -6.8875 -0.5773503 -0.5773503 -0.5773503 0.4949214 0.339044
6.8875 0 -6.8875 0.5773503 -0.5773503 -0.5773503 0.7244483 0.339044
6.8875 0 6.8875 0.5773503 -0.5773503 0.5773503 0.7244483 0.5685711
-6.8875 0 6.8875 -0.5773503 -0.5773503 0.5773503 0.4949214 0.5685711
6.8875 26.125 6.8875 0.6481596 0.3997229 0.6481596 0.03078067 0.9558722
-6.8875 26.125 6.8875 -0.6481596 0.3997229 0.6481596 0.0308508 0.7263079
-6.8875 26.125 -6.8875 -0.6481596 0.3997229 -0.6481596 0.03092441 0.4964022
6.8875 26.125 -6.8875 0.6481596 0.3997229 -0.6481596 0.03078219 0.2664639
4.320002 29.54 -6 1.746716e-07 6.588491e-08 -1 0.8587176 0.7492149
1.623619 30.85511 -5.196152 -0.4493969 0.2191862 -0.8660253 0.9214033 0.7665887
-0.3502697 31.81784 -3 -0.778379 0.3796395 -0.5000002 0.9666593 0.8130285
-1.072764 32.17023 3.673941e-16 -0.8987938 0.4383718 -6.12883e-09 0.9831547 0.875739
-0.3502697 31.81784 3 -0.7783789 0.3796394 0.5000002 0.9656086 0.9381918
1.623619 30.85511 5.196152 -0.4493968 0.2191863 0.8660254 0.9194305 0.9837517
4.320002 29.54 6 1.77736e-07 1.470919e-07 1 0.8564097 0.9996598
7.016385 28.22489 5.196153 0.4493979 -0.2191848 0.8660251 0.7942149 0.9821414
8.99027 27.26216 2.999999 0.7783791 -0.3796398 0.4999996 0.748507 0.9361271
9.712762 26.90977 3.673941e-16 0.8987939 -0.4383714 0 0.7323888 0.8732457
8.99027 27.26216 -2.999999 0.7783791 -0.3796397 -0.4999996 0.749729 0.8109149
7.016385 28.22489 -5.196153 0.4493979 -0.2191848 -0.8660251 0.7959775 0.7655056
2.522409 30.41674 -3.464102 0.4493972 -0.219186 0.8660252 0.8921008 0.8162971
4.320002 29.54 -4 -3.651627e-07 3.012186e-07 1 0.8582796 0.8056099
1.206487 31.05856 -2 0.7783784 -0.3796407 0.5000001 0.9177932 0.8406797
0.7248223 31.29348 2.449294e-16 0.8987941 -0.4383712 -3.064119e-07 0.9254429 0.8752583
1.206487 31.05856 2 0.7783792 -0.3796394 -0.4999999 0.9172353 0.9097026
2.522409 30.41674 3.464102 0.4493974 -0.2191859 -0.8660251 0.8912855 0.9340443
4.320002 29.54 4 -3.651627e-07 3.012186e-07 -1 0.8568028 0.9427791
6.117588 28.66326 3.464102 -0.4493967 0.2191858 -0.8660256 0.8227212 0.9331859
7.433516 28.02144 2 -0.7783787 0.3796404 -0.4999999 0.7986177 0.9075073
7.915175 27.78651 2.449294e-16 -0.8987934 0.4383726 0 0.7884377 0.8737454
7.433516 28.02144 -2 -0.7783787 0.3796404 0.4999999 0.7991942 0.8401815
6.117588 28.66326 -3.464102 -0.4493967 0.2191858 0.8660256 0.823953 0.8150029
2.445 33.395 0.8014711 0.7172837 0.2971079 0.6302627 0.920034 0.4488043
2.445 29.705 0.8014711 0.7071068 0 0.7071068 0.9996835 0.449042
-2.445 33.395 0.8014711 -0.7172837 0.2971079 0.6302626 0.9203509 0.3432526
-2.445 29.705 0.8014711 -0.7071068 0 0.7071068 1 0.3434921
2.445 33.395 -0.8014711 0.7172837 0.2971079 -0.6302626 0.8336277 0.4485446
2.445 29.705 -0.8014711 0.7071068 0 -0.7071068 0.7539768 0.4483043
-2.445 33.395 -0.8014711 -0.7172837 0.2971079 -0.6302627 0.8339462 0.3429909
-2.445 29.705 -0.8014711 -0.7071068 0 -0.7071068 0.7542945 0.3427506
1.175 33.325 -0.8014711 -0.3015113 -0.3015113 -0.9045341 0.5642849 0.9093922
1.175 29.705 -0.8014711 -0.7071068 0 -0.7071068 0.4949214 0.9093922
1.175 29.705 0.8014711 -0.7071068 0 0.7071068 0.4951077 0.8787426
1.175 33.325 0.8014711 -0.3015113 -0.3015113 0.904534 0.5644713 0.8787426
-1.175 33.325 -0.8014711 0.3015113 -0.3015113 -0.904534 0.6093137 0.9093922
-1.175 33.325 0.8014711 0.3015113 -0.3015113 0.9045341 0.6095001 0.8787426
-1.175 29.705 -0.8014711 0.7071068 0 -0.7071068 0.6786773 0.9093922
-1.175 29.705 0.8014711 0.7071068 0 0.7071068 0.6788636 0.8787426
-6.8875 0 6.8875 -0.5773503 -0.5773503 0.5773503 0.4657553 0.7264771
6.8875 0 6.8875 0.5773503 -0.5773503 0.5773503 0.4657205 0.9560623
6.8875 0 -6.8875 0.5773503 -0.5773503 -0.5773503 0.4656605 0.266591
-6.8875 0 -6.8875 -0.5773503 -0.5773503 -0.5773503 0.4656465 0.4965881
6.8875 26.125 6.8875 0.6481596 0.3997229 0.6481596 0.03078586 0.03681281
6.8875 0 6.8875 0.5773503 -0.5773503 0.5773503 0.4656568 0.03697452
-6.8875 26.125 -6.8875 -0.6481596 0.3997229 -0.6481596 0.7496883 0.3168204
-6.8875 26.125 6.8875 -0.6481596 0.3997229 0.6481596 0.5201615 0.3168204
-6.8875 26.125 6.8875 -0.6481596 0.3997229 0.6481596 0.4949215 0.2915804
6.8875 26.125 6.8875 0.6481596 0.3997229 0.6481596 0.4949214 0.06205359
6.8875 26.125 6.8875 0.6481596 0.3997229 0.6481596 0.5201614 0.03681281
6.8875 26.125 -6.8875 0.6481596 0.3997229 -0.6481596 0.7496892 0.03681359
6.8875 26.125 -6.8875 0.6481596 0.3997229 -0.6481596 0.7749287 0.06205434
-6.8875 26.125 -6.8875 -0.6481596 0.3997229 -0.6481596 0.7749283 0.2915805
3 0 1 2 
3 0 2 3 
3 4 3 2 
3 4 2 5 
3 4 5 6 
3 4 6 7 
3 8 7 6 
3 8 6 9 
3 8 9 10 
3 8 10 11 
3 12 11 10 
3 12 10 13 
3 12 13 14 
3 12 14 15 
3 16 15 14 
3 16 14 17 
3 16 17 18 
3 16 18 19 
3 20 19 18 
3 20 18 21 
3 20 21 22 
3 20 22 23 
3 0 23 22 
3 0 22 1 
3 24 0 3 
3 24 3 25 
3 25 3 4 
3 25 4 26 
3 27 26 4 
3 27 4 7 
3 27 7 8 
3 27 8 28 
3 28 8 11 
3 28 11 29 
3 30 29 11 
3 30 11 12 
3 31 30 12 
3 31 12 15 
3 31 15 16 
3 31 16 32 
3 33 32 16 
3 33 16 19 
3 33 19 20 
3 33 20 34 
3 35 34 20 
3 35 20 23 
3 35 23 0 
3 35 0 24 
3 36 24 25 
3 36 25 37 
3 37 25 26 
3 37 26 38 
3 39 38 26 
3 39 26 27 
3 39 27 28 
3 39 28 40 
3 41 40 28 
3 41 28 29 
3 42 41 29 
3 42 29 30 
3 43 42 30 
3 43 30 31 
3 43 31 32 
3 43 32 44 
3 44 32 33 
3 44 33 45 
3 46 45 33 
3 46 33 34 
3 47 46 34 
3 47 34 35 
3 47 35 24 
3 47 24 36 
3 104 105 48 
3 104 48 49 
3 106 50 48 
3 106 48 105 
3 106 107 51 
3 106 51 50 
3 108 52 51 
3 108 51 107 
3 108 109 53 
3 108 53 52 
3 110 54 53 
3 110 53 109 
3 110 111 55 
3 110 55 54 
3 111 112 56 
3 111 56 55 
3 113 57 56 
3 113 56 112 
3 113 114 58 
3 113 58 57 
3 115 59 58 
3 115 58 114 
3 104 49 59 
3 104 59 115 
3 49 48 60 
3 49 60 61 
3 50 62 60 
3 50 60 48 
3 51 63 62 
3 51 62 50 
3 51 52 64 
3 51 64 63 
3 52 53 65 
3 52 65 64 
3 54 66 65 
3 54 65 53 
3 54 55 67 
3 54 67 66 
3 56 68 67 
3 56 67 55 
3 56 57 69 
3 56 69 68 
3 58 70 69 
3 58 69 57 
3 58 59 71 
3 58 71 70 
3 49 61 71 
3 49 71 59 
3 61 60 116 
3 61 116 117 
3 62 118 116 
3 62 116 60 
3 62 63 119 
3 62 119 118 
3 64 120 119 
3 64 119 63 
3 64 65 121 
3 64 121 120 
3 66 122 121 
3 66 121 65 
3 66 67 123 
3 66 123 122 
3 67 68 124 
3 67 124 123 
3 69 125 124 
3 69 124 68 
3 69 70 126 
3 69 126 125 
3 71 127 126 
3 71 126 70 
3 61 117 127 
3 61 127 71 
3 72 73 74 
3 72 74 75 
3 76 77 78 
3 76 78 79 
3 80 81 82 
3 80 82 83 
3 84 85 86 
3 84 86 87 
3 78 77 84 
3 78 84 87 
3 76 79 80 
3 76 80 83 
3 128 88 89 
3 128 89 129 
3 77 88 128 
3 130 131 90 
3 130 90 91 
3 130 91 76 
3 77 76 91 
3 77 91 88 
3 132 133 92 
3 132 92 93 
3 132 93 78 
3 134 94 95 
3 134 95 135 
3 79 94 134 
3 79 78 93 
3 79 93 94 
3 136 137 138 
3 136 138 139 
3 140 136 139 
3 140 139 141 
3 142 140 141 
3 142 141 143 
3 96 97 98 
3 96 98 99 
3 100 101 144 
3 100 144 145 
3 102 103 146 
3 102 146 147 
3 103 148 149 
3 103 149 146 
3 101 102 147 
3 101 147 144 
3 150 151 73 
3 150 73 72 
3 152 153 74 
3 152 74 73 
3 154 155 75 
3 154 75 74 
3 156 157 72 
3 156 72 75 
