ply
format ascii 1.0
comment VCGLIB generated
comment TextureFile mf_book_01.png
element vertex 289
property float x
property float y
property float z
property float nx
property float ny
property float nz
property float texture_u
property float texture_v
element face 304
property list uchar int vertex_indices
end_header
-38.891 16.45146 48.61065 0 0.7071069 0.7071066 0.9821241 0.6093014
-38.89099 16.45146 -48.61065 0 0.7071068 -0.7071068 0.9821241 0.08020687
-39.95562 16.45146 -48.61065 -0.5042613 0.6306466 -0.5899198 0.9913588 0.080158
-39.95562 16.45146 48.61065 -0.5042628 0.6306459 0.5899194 0.9913588 0.6092526
-40.31194 14.87146 48.61065 -0.7045937 0.1284445 0.6978894 0.5425417 0.7503402
-40.31194 14.87146 -48.61065 -0.7045947 0.1284441 -0.6978886 0.9710365 0.7503402
-39.24249 14.87146 -48.61065 0.302035 -0.3465226 -0.8880861 0.5339715 0.6287475
38.89099 16.45146 -48.61065 0.57735 0.57735 -0.5773509 0.009873446 0.6415305
38.89099 14.87146 -48.61065 0.5773489 -0.5773513 -0.5773505 0.009829271 0.6309319
-38.89099 2.124839e-06 -48.61065 -1.419534e-08 -0.7071069 -0.7071066 0.5311977 0.5289952
-38.89099 9.981455e-07 48.61065 -1.419534e-08 -0.7071068 0.7071068 0.5316576 0.1198036
-39.95562 9.981455e-07 48.61065 -0.5042621 -0.6306462 0.5899197 0.5387995 0.1197739
-39.95562 2.124839e-06 -48.61065 -0.5042619 -0.6306463 -0.5899196 0.5383396 0.5289655
-39.2425 14.87146 48.61065 0.3020355 -0.3465233 0.8880857 0.5335999 0.02003162
38.89099 16.45146 48.61065 0.5773492 0.5773507 0.5773508 0.7846982 0.9138007
38.89099 14.87146 48.61065 0.5773501 -0.577351 0.5773498 0.7846895 0.921051
38.89099 -9.981455e-07 -48.61065 0.5773493 -0.5773508 -0.5773508 0.3715376 0.9605479
38.89099 1.579999 -48.61065 0.57735 0.5773512 -0.5773497 0.3715464 0.9532976
38.89099 1.579999 48.61065 0.5773489 0.5773516 0.5773504 0.7869254 0.9532976
38.89099 -2.124839e-06 48.61065 0.57735 -0.57735 0.5773508 0.7869167 0.9605479
-39.6089 4.238294 48.61065 0.6981699 0.08408374 0.7109773 0.6807255 0.9289428
-39.2425 1.580002 48.61065 0.3020349 0.3465208 0.8880869 0.696233 0.9289538
-39.2425 1.580002 47.86468 0.5329456 0.6114435 0.5848981 0.6962299 0.9332647
-39.60891 4.238294 47.86468 0.7058192 0.08500506 0.7032734 0.6807224 0.9332538
-40.31194 1.580002 48.61065 -0.704594 -0.1284445 0.6978893 0.5411456 0.1091648
-39.6089 12.21317 48.61065 0.6981698 -0.0840835 0.7109774 0.5361322 0.03785399
-40.68336 12.21317 48.61065 -0.7057291 0.08615687 0.7032237 0.54334 0.03782397
-39.2425 1.580002 -48.61065 0.3020353 0.3465209 -0.8880867 0.5335999 0.5395846
38.42726 1.579999 47.86469 0.3015103 0.9045347 0.3015104 0.9432331 0.9315025
-40.31194 1.580002 -48.61065 -0.7045946 -0.128444 -0.6978887 0.9710367 0.8092733
-40.68335 12.21316 -48.61065 -0.7057282 0.08615629 -0.7032247 0.9710365 0.7621691
-40.68336 4.238294 48.61065 -0.7057289 -0.08615687 0.7032238 0.5425419 0.7974466
-40.68335 4.238293 -48.61065 -0.7057282 -0.08615631 -0.7032247 0.9710367 0.7974445
-40.96119 6.896584 48.61065 -0.7174765 -0.03739132 0.6955785 0.5425419 0.7856665
-40.96119 6.896584 -48.61065 -0.7174768 -0.0373923 -0.6955781 0.9710367 0.7856649
-40.96119 9.554874 48.61065 -0.7174766 0.0373913 0.6955783 0.5425418 0.7739503
-40.96119 9.554875 -48.61065 -0.7174767 0.03739237 -0.6955782 0.9710365 0.7739487
-39.60891 12.21317 47.86468 0.7058194 -0.08500469 0.7032732 0.6344723 0.9332207
-39.2425 14.87146 47.86468 0.5329476 -0.6114442 0.5848956 0.6189647 0.9332097
-39.88299 6.896584 48.61065 0.6942492 0.03569564 0.7188491 0.6652815 0.9289317
-39.88299 6.896584 47.86468 0.7173557 0.0368836 0.6957301 0.6652786 0.9332427
-39.88299 9.554874 48.61065 0.694249 -0.03569604 0.7188492 0.6499192 0.9289207
-39.88299 9.554874 47.86468 0.7173559 -0.03688403 0.69573 0.6499161 0.9332317
38.42726 14.87146 -47.86468 0.301511 -0.9045343 -0.301511 0.9432331 0.9442043
-39.24249 14.87146 -47.86468 0.5329468 -0.6114436 -0.584897 0.6962299 0.9459668
-39.60889 12.21316 -48.61065 0.6981682 -0.08408274 -0.7109791 0.6807255 0.9416448
-39.60889 12.21316 -47.86468 0.7058175 -0.08500398 -0.7032751 0.6807224 0.9459558
-39.2425 1.580002 -47.86469 0.5329472 0.6114445 -0.5848957 0.6189647 0.9459116
38.42726 1.579998 -47.86468 0.3015108 0.9045344 -0.3015109 0.3719732 0.9442328
-39.60889 4.238293 -48.61065 0.6981685 0.08408225 -0.7109789 0.6344754 0.9416118
-39.60889 4.238293 -47.86468 0.705817 0.08500431 -0.7032756 0.6344723 0.9459227
-39.88298 6.896584 -48.61065 0.6942492 0.03569555 -0.7188491 0.6499193 0.9416229
-39.88298 6.896584 -47.86468 0.7173558 0.0368836 -0.69573 0.6499162 0.9459337
-39.88298 9.554875 -48.61065 0.6942492 -0.03569558 -0.7188491 0.6652815 0.9416337
-39.88298 9.554875 -47.86468 0.7173557 -0.03688363 -0.69573 0.6652786 0.9459447
38.42726 14.87146 47.86469 0.3015113 -0.9045341 0.3015113 0.8529966 0.9744735
38.42726 12.21317 -47.86468 0.7071068 0 -0.7071067 0.5038316 0.8421654
38.42726 12.21317 47.86469 0.7071067 1.037722e-10 0.7071068 0.9865541 0.8421659
38.42726 4.238294 -47.86468 0.7071068 2.210092e-08 -0.7071068 0.4833603 0.6044771
38.42726 6.896584 -47.86468 0.7071068 0 -0.7071068 0.4833603 0.5900935
38.42726 9.554876 -47.86468 0.7071068 0 -0.7071068 0.4833604 0.5757108
38.42726 4.238295 47.86469 0.7071066 4.983108e-07 0.707107 0.9865543 0.8823775
38.42726 6.896585 47.86469 0.7071068 0 0.7071068 0.9865541 0.8689736
38.42726 9.554875 47.86469 0.7071068 7.698783e-11 0.7071068 0.9865541 0.8555698
18.75937 14.97588 1.435363e-06 1 8.526869e-08 1.008485e-07 0.4878314 0.813998
18.75937 18.09247 1.010079e-08 0.7711332 0.6366738 1.049908e-07 0.4735974 0.8064396
17.82353 18.09247 5.908603 0.7333912 0.6366742 0.238293 0.4820679 0.7800907
17.82353 14.97588 5.908604 0.9510566 5.245584e-07 0.3090168 0.4979409 0.7828804
15.10765 18.09247 11.23883 0.62386 0.6366737 0.4532608 0.4819822 0.7524133
15.10765 14.97588 11.23883 0.8090171 -2.498906e-07 0.5877852 0.4979409 0.7501618
10.87756 18.09247 15.46892 0.4532604 0.6366738 0.6238601 0.4733485 0.7261158
10.87756 14.97588 15.46892 0.5877849 1.524011e-07 0.8090172 0.4878311 0.7190431
5.547328 18.09247 18.1848 0.2382931 0.636674 0.7333912 0.4570112 0.7037721
5.547328 14.97588 18.1848 0.3090167 0 0.9510566 0.4685999 0.6925701
-0.3612723 18.09247 19.12063 2.403404e-07 0.6366738 0.7711333 0.4345684 0.6875695
-0.3612723 14.97588 19.12063 3.961907e-07 0 1 0.4421287 0.6733344
-6.269874 18.09247 18.1848 -0.2382932 0.6366739 0.7333912 0.4082165 0.6790949
-6.269874 14.97588 18.1848 -0.3090169 0 0.9510565 0.4110081 0.6632198
-11.6001 18.09247 15.46892 -0.4532605 0.636674 0.6238599 0.3805352 0.6791785
-11.6001 14.97588 15.46892 -0.587785 0 0.8090172 0.3782842 0.6632175
-15.8302 18.09247 11.23883 -0.6238596 0.6366739 0.453261 0.3542346 0.6878129
-15.8302 14.97588 11.23883 -0.8090168 -9.500916e-08 0.5877855 0.3471611 0.6733288
-18.54609 18.09247 5.908598 -0.7333916 0.6366737 0.2382928 0.33189 0.7041529
-18.54608 14.97588 5.908598 -0.9510568 -5.355412e-07 0.3090163 0.3206864 0.6925639
-19.48191 18.09247 -7.797362e-06 -0.7711331 0.636674 -3.212971e-07 0.3156894 0.7265986
-19.48191 14.97588 -7.933591e-06 -1 -6.585315e-09 -4.009929e-07 0.3014526 0.7190396
-18.54608 18.09247 -5.90861 -0.7333912 0.6366739 -0.2382935 0.3072188 0.7529523
-18.54608 14.97588 -5.908611 -0.9510564 3.735894e-08 -0.3090174 0.291343 0.7501633
-15.83019 18.09247 -11.23884 -0.6238593 0.636674 -0.4532612 0.3073074 0.7806336
-15.83019 14.97588 -11.23884 -0.8090165 0 -0.587786 0.291347 0.7828873
-11.60009 18.09247 -15.46893 -0.45326 0.6366739 -0.6238603 0.315946 0.8069322
-11.60009 14.97588 -15.46893 -0.5877846 0 -0.8090175 0.3014636 0.8140079
-6.269858 18.09246 -18.18481 -0.2382928 0.6366737 -0.7333915 0.3322882 0.8292737
-6.269858 14.97588 -18.18481 -0.3090163 0 -0.9510568 0.3207016 0.8404781
-0.3612536 18.09247 -19.12064 8.049297e-07 0.6366737 -0.7711334 0.3547339 0.8454716
-0.3612536 14.97588 -19.12064 1.087724e-06 0 -1 0.3471766 0.8597075
5.547348 18.09247 -18.1848 0.238294 0.636674 -0.7333909 0.3810851 0.853941
5.547348 14.97588 -18.1848 0.309018 0 -0.9510562 0.3782966 0.8698148
10.87758 18.09247 -15.46891 0.4532616 0.6366737 -0.6238594 0.408763 0.8538539
10.87758 14.97588 -15.46891 0.5877863 0 -0.8090162 0.4110154 0.8698121
15.10766 18.09247 -11.23881 0.6238606 0.636674 -0.4532596 0.4350586 0.8452195
15.10766 14.97588 -11.23881 0.8090181 -3.246147e-07 -0.5877839 0.4421316 0.8597006
3.87678 18.67599 -13.04333 -0.1924201 0.7824751 0.5922055 0.3846533 0.8291799
7.699971 18.67599 -11.09532 -0.3660034 0.7824756 0.5037594 0.4045059 0.8292025
17.82355 18.09246 -5.908573 0.7333925 0.6366727 -0.2382926 0.457399 0.8288816
17.82354 14.97588 -5.908573 0.951057 -1.914885e-06 -0.3090158 0.4686007 0.8404688
-4.599309 18.67599 13.04334 0.1924189 0.7824752 -0.5922057 0.0922875 0.5106099
-0.3612723 18.67599 13.71458 1.935669e-07 0.7824754 -0.6226814 0.07187517 0.5038838
-0.3612723 17.70254 13.71458 1.196172e-07 0.7575133 -0.6528197 0.07408062 0.499535
-4.599309 17.70253 13.04334 0.201732 0.7575134 -0.6208684 0.09298217 0.5058073
3.876769 18.67599 13.04334 -0.1924188 0.7824755 -0.5922053 0.4395676 0.7217058
-13.40462 18.67599 4.238036 0.5922054 0.7824754 -0.192419 0.3498255 0.7215955
-14.07585 18.67599 -4.64887e-06 0.6226817 0.7824752 3.565706e-07 0.3381376 0.7376443
-4.599296 18.67599 -13.04334 0.1924188 0.7824755 0.5922054 0.349729 0.8113371
-0.3612536 18.67599 -13.71458 -8.863325e-07 0.7824758 0.6226811 0.3657785 0.8230242
12.68208 18.67599 -4.238019 -0.5922059 0.7824752 0.1924184 0.4394663 0.8114423
13.35331 18.67599 1.5971e-06 -0.6226812 0.7824757 -1.697955e-08 0.4511528 0.7953945
10.73406 18.67599 8.06123 -0.5037594 0.7824759 -0.3660028 0.4573303 0.7566701
7.699961 18.67599 11.09533 -0.3660031 0.7824756 -0.5037596 0.4512177 0.7377816
-8.4225 18.67599 11.09533 0.366003 0.7824754 -0.50376 0.3847911 0.7038327
-11.4566 18.67599 8.061228 0.5037601 0.7824752 -0.3660032 0.3659013 0.7099447
-11.45659 18.67599 -8.061233 0.5037598 0.7824753 0.3660035 0.3319606 0.7763737
-8.42249 18.67599 -11.09533 0.3660027 0.7824755 0.5037602 0.338076 0.7952625
12.68208 18.67599 4.238039 -0.5922049 0.7824758 -0.1924188 0.4573078 0.7765218
10.73407 18.67599 -8.061212 -0.5037604 0.7824755 0.3660023 0.423393 0.8230904
-13.40461 18.67599 -4.238045 0.5922052 0.7824754 0.1924196 0.3319817 0.7565197
7.699961 17.70253 11.09533 -0.383718 0.7575132 -0.5281423 0.2572812 0.9235488
4.961509 18.97002 7.32618 0.1074978 0.9831341 0.1479581 0.2162093 0.9025382
2.43708 18.97002 8.612439 0.05651482 0.9831342 0.173935 0.2245027 0.8769388
3.87677 17.70254 13.04334 -0.201732 0.7575133 -0.6208687 0.2700569 0.8842291
-8.42249 17.70253 -11.09533 0.3837174 0.7575134 0.5281425 0.1593295 0.4104019
-4.599296 17.70253 -13.04334 0.2017321 0.7575135 0.6208683 0.1473726 0.39383
-8.4225 17.70253 11.09533 0.3837178 0.7575133 -0.5281423 0.1128262 0.5056533
-0.3612536 17.70253 -13.71458 -9.064104e-07 0.7575132 0.6528199 0.1309383 0.381859
-11.4566 17.70253 8.061228 0.5281422 0.7575133 -0.3837178 0.1315803 0.4990744
13.35331 17.70253 1.554548e-06 -0.6528183 0.7575145 2.062363e-08 0.04591755 0.4113549
12.68208 17.70253 4.238039 -0.6208691 0.7575129 -0.2017322 0.04084939 0.4308409
3.876781 17.70253 -13.04333 -0.2017333 0.7575135 0.620868 0.111688 0.3756769
-13.40462 17.70253 4.238036 0.6208686 0.7575132 -0.2017323 0.1474628 0.4867295
10.73405 17.70253 8.06123 -0.5281408 0.7575145 -0.3837174 0.04066276 0.4514036
7.699971 17.70253 -11.09532 -0.3837185 0.7575132 0.5281419 0.09157966 0.3758911
-14.07585 17.70253 -4.691421e-06 0.6528196 0.7575135 3.763818e-07 0.1593045 0.4700399
10.73407 17.70253 -8.061212 -0.5281426 0.7575135 0.3837169 0.0726698 0.3824619
-13.40461 17.70253 -4.238045 0.6208685 0.7575132 0.2017329 0.1655905 0.4504837
12.68208 17.70253 -4.238018 -0.620869 0.7575131 0.2017317 0.05690436 0.3947034
-11.45659 17.70253 -8.061233 0.5281419 0.7575133 0.3837183 0.1656091 0.4299305
6.964917 18.97002 -5.322769 0.1479579 0.9831342 -0.1074979 0.1005613 0.9402251
8.251176 18.97002 -2.798338 0.1739352 0.9831342 -0.05651496 0.1261607 0.9485183
-8.973705 18.97002 -2.798355 -0.1739349 0.9831342 -0.05651491 0.1004288 0.7869576
-7.687444 18.97002 -5.322784 -0.1479579 0.9831342 -0.1074978 0.07867235 0.8027932
-0.3612727 18.97002 9.055653 -3.8956e-07 0.9831342 0.182886 0.2244793 0.8500295
8.694385 18.97002 8.292061e-07 0.1828863 0.9831341 2.326622e-07 0.1530699 0.948495
-5.684045 18.97002 -7.32618 -0.1074977 0.9831342 -0.147958 0.06287429 0.8245769
-3.159619 18.97002 8.612439 -0.05651513 0.9831342 0.173935 0.2161419 0.8244445
-3.159614 18.97002 -8.612441 -0.05651485 0.9831342 -0.1739351 0.05458108 0.8501762
-5.68405 18.97002 7.326179 -0.1074977 0.9831342 0.147958 0.2003061 0.8026881
-0.361263 18.97002 -9.055655 1.410887e-07 0.9831342 -0.1828861 0.0546042 0.8770855
-7.687448 18.97002 5.322781 -0.1479579 0.9831342 0.1074977 0.1785224 0.7868899
2.437089 18.97002 -8.612435 0.05651517 0.9831342 -0.173935 0.06294185 0.9026706
-8.973711 18.97002 2.798349 -0.1739351 0.9831342 0.05651476 0.152923 0.7785968
8.251167 18.97002 2.79835 0.1739351 0.9831342 0.05651478 0.1786548 0.9401576
6.964909 18.97002 5.322781 0.1479581 0.9831341 0.1074978 0.2004112 0.9243218
4.961518 18.97002 -7.326171 0.1074979 0.9831342 -0.1479579 0.07877752 0.924427
-9.416921 18.97002 -3.074525e-06 -0.182886 0.9831342 -1.452647e-07 0.1260138 0.77862
-0.361263 19.73653 1.253084e-06 -1.672209e-08 1 -6.927722e-08 0.139542 0.8635576
-39.95562 16.45146 48.61065 -0.5042628 0.6306459 0.5899194 0.5425476 0.742861
-39.95562 16.45146 -48.61065 -0.5042613 0.6306466 -0.5899198 0.9710425 0.742861
-38.89099 16.45146 -48.61065 0 0.7071068 -0.7071068 0.5316576 0.6393565
-38.891 16.45146 48.61065 0 0.7071069 0.7071066 0.5311977 0.009442301
-39.95562 16.45146 48.61065 -0.5042628 0.6306459 0.5899194 0.5383396 0.009412547
-40.31194 14.87146 48.61065 -0.7045937 0.1284445 0.6978894 0.5407739 0.02000169
38.89099 14.87146 -48.61065 0.5773489 -0.5773513 -0.5773505 0.3693104 0.921051
38.89099 16.45146 -48.61065 0.57735 0.57735 -0.5773509 0.3693191 0.9138007
-39.2425 1.580002 48.61065 0.3020349 0.3465208 0.8880869 0.5339715 0.1091947
38.89099 1.579999 -48.61065 0.57735 0.5773512 -0.5773497 0.009456723 0.541768
38.89099 -9.981455e-07 -48.61065 0.5773493 -0.5773508 -0.5773508 0.009412547 0.5311694
38.89099 1.579999 48.61065 0.5773489 0.5773516 0.5773504 0.9447054 0.9271809
-39.95562 9.981455e-07 48.61065 -0.5042621 -0.6306462 0.5899197 0.5425361 0.8167559
-40.31194 1.580002 48.61065 -0.704594 -0.1284445 0.6978893 0.542542 0.8092766
-39.95562 2.124839e-06 -48.61065 -0.5042619 -0.6306463 -0.5899196 0.9710308 0.8167526
-40.68336 12.21317 48.61065 -0.7057291 0.08615687 0.7032237 0.5425418 0.7621703
-39.2425 14.87146 48.61065 0.3020355 -0.3465233 0.8880857 0.6189678 0.9288987
-39.6089 12.21317 48.61065 0.6981698 -0.0840835 0.7109774 0.6344754 0.9289098
-39.24249 14.87146 -48.61065 0.302035 -0.3465226 -0.8880861 0.696233 0.9416559
38.89099 14.87146 -48.61065 0.5773489 -0.5773513 -0.5773505 0.9447054 0.9398829
-39.6089 4.238294 48.61065 0.6981699 0.08408374 0.7109773 0.5363551 0.09135184
-40.68336 4.238294 48.61065 -0.7057289 -0.08615687 0.7032238 0.5435629 0.0913218
-39.88299 6.896584 48.61065 0.6942492 0.03569564 0.7188491 0.5381194 0.07351156
-40.96119 6.896584 48.61065 -0.7174765 -0.03739132 0.6955785 0.5453523 0.07348143
-39.88299 9.554874 48.61065 0.694249 -0.03569604 0.7188492 0.5380451 0.05567895
-40.96119 9.554874 48.61065 -0.7174766 0.0373913 0.6955783 0.5452781 0.05564884
38.89099 1.579999 -48.61065 0.57735 0.5773512 -0.5773497 0.3693104 0.9398829
-39.2425 1.580002 -48.61065 0.3020353 0.3465209 -0.8880867 0.6189678 0.9416007
38.89099 14.87146 -48.61065 0.5773489 -0.5773513 -0.5773505 0.6264893 0.9706007
38.89099 14.87146 48.61065 0.5773501 -0.577351 0.5773498 0.8546795 0.9706007
38.42726 14.87146 -47.86468 0.301511 -0.9045343 -0.301511 0.6328466 0.9745528
-40.96119 9.554875 -48.61065 -0.7174767 0.03739237 -0.6955782 0.5453524 0.5930343
-40.68335 12.21316 -48.61065 -0.7057282 0.08615629 -0.7032247 0.5435629 0.6108746
-39.60889 12.21316 -48.61065 0.6981682 -0.08408274 -0.7109791 0.5363551 0.6109046
-39.88298 9.554875 -48.61065 0.6942492 -0.03569558 -0.7188491 0.5381194 0.5930645
-40.96119 6.896584 -48.61065 -0.7174768 -0.0373923 -0.6955781 0.5452781 0.5752017
-39.88298 6.896584 -48.61065 0.6942492 0.03569555 -0.7188491 0.538045 0.5752319
-40.68335 4.238293 -48.61065 -0.7057282 -0.08615631 -0.7032247 0.5433399 0.5573769
-39.60889 4.238293 -48.61065 0.6981685 0.08408225 -0.7109789 0.5361321 0.557407
-40.31194 1.580002 -48.61065 -0.7045946 -0.128444 -0.6978887 0.5407739 0.5395547
-40.31194 14.87146 -48.61065 -0.7045947 0.1284441 -0.6978886 0.5411456 0.6287177
38.89099 14.87146 48.61065 0.5773501 -0.577351 0.5773498 0.3693104 0.9271808
38.42726 14.87146 47.86469 0.3015113 -0.9045341 0.3015113 0.3719732 0.9315307
38.89099 -2.124839e-06 48.61065 0.57735 -0.57735 0.5773508 0.009926892 0.1219769
38.89099 1.579999 48.61065 0.5773489 0.5773516 0.5773504 0.009882738 0.1113789
38.89099 14.87146 48.61065 0.5773501 -0.577351 0.5773498 0.00951019 0.02221358
38.89099 16.45146 48.61065 0.5773492 0.5773507 0.5773508 0.009466036 0.01161558
38.89099 -9.981455e-07 -48.61065 0.5773493 -0.5773508 -0.5773508 0.2038236 0.5286274
38.89099 -2.124839e-06 48.61065 0.57735 -0.57735 0.5773508 0.2042835 0.1194357
-39.95562 16.45146 -48.61065 -0.5042613 0.6306466 -0.5899198 0.5387995 0.6393268
38.89099 16.45146 48.61065 0.5773492 0.5773507 0.5773508 0.5588217 0.6093016
38.89099 16.45146 -48.61065 0.57735 0.57735 -0.5773509 0.5588217 0.08020684
38.42726 14.87146 -47.86468 0.301511 -0.9045343 -0.301511 0.5038317 0.8287608
38.42726 14.87146 47.86469 0.3015113 -0.9045341 0.3015113 0.9865543 0.8287621
-39.60889 12.21316 -47.86468 0.7058175 -0.08500398 -0.7032751 0.06114399 0.5613273
-39.24249 14.87146 -47.86468 0.5329468 -0.6114436 -0.584897 0.06312639 0.5469446
38.42726 14.87146 -47.86468 0.301511 -0.9045343 -0.301511 0.4833604 0.5469441
38.42726 12.21317 -47.86468 0.7071068 0 -0.7071067 0.4833604 0.5613272
-39.2425 1.580002 -47.86469 0.5329472 0.6114445 -0.5848957 0.06312628 0.6188586
-39.60889 4.238293 -47.86468 0.705817 0.08500431 -0.7032756 0.06114389 0.6044757
38.42726 1.579998 -47.86468 0.3015108 0.9045344 -0.3015109 0.4833603 0.6188602
-39.88298 6.896584 -47.86468 0.7173558 0.0368836 -0.69573 0.05966093 0.5900929
-39.88298 9.554875 -47.86468 0.7173557 -0.03688363 -0.69573 0.05966093 0.5757101
38.42726 1.579998 -47.86468 0.3015108 0.9045344 -0.3015109 0.5038319 0.895784
38.42726 4.238294 -47.86468 0.7071068 2.210092e-08 -0.7071068 0.5038317 0.8823794
38.42726 1.579999 47.86469 0.3015103 0.9045347 0.3015104 0.9865543 0.8957813
38.42726 6.896584 -47.86468 0.7071068 0 -0.7071068 0.5038317 0.8689747
38.42726 9.554876 -47.86468 0.7071068 0 -0.7071068 0.5038317 0.8555701
38.42726 9.554875 47.86469 0.7071068 7.698783e-11 0.7071068 0.4815072 0.07224973
38.42726 12.21317 47.86469 0.7071067 1.037722e-10 0.7071068 0.4815073 0.0869339
-39.60891 12.21317 47.86468 0.7058194 -0.08500469 0.7032732 0.05044454 0.08693486
-39.88299 9.554874 47.86468 0.7173559 -0.03688403 0.69573 0.04893042 0.0722498
38.42726 6.896585 47.86469 0.7071068 0 0.7071068 0.4815072 0.05756564
-39.88299 6.896584 47.86468 0.7173557 0.0368836 0.6957301 0.04893041 0.05756564
38.42726 4.238295 47.86469 0.7071066 4.983108e-07 0.707107 0.4815073 0.04288148
-39.60891 4.238294 47.86468 0.7058192 0.08500506 0.7032734 0.05044454 0.04288074
38.42726 1.579999 47.86469 0.3015103 0.9045347 0.3015104 0.4815074 0.02819739
-39.2425 1.580002 47.86468 0.5329456 0.6114435 0.5848981 0.05246869 0.0281956
38.42726 14.87146 47.86469 0.3015113 -0.9045341 0.3015113 0.4815074 0.1016179
-39.2425 14.87146 47.86468 0.5329476 -0.6114442 0.5848956 0.05246873 0.1016199
38.89099 1.579999 48.61065 0.5773489 0.5773516 0.5773504 0.3779502 0.9724315
38.89099 1.579999 -48.61065 0.57735 0.5773512 -0.5773497 0.6061404 0.9724314
38.42726 1.579998 -47.86468 0.3015108 0.9045344 -0.3015109 0.6044575 0.9763042
38.42726 1.579999 47.86469 0.3015103 0.9045347 0.3015104 0.3843075 0.9763834
-0.3612723 18.67599 13.71458 1.935669e-07 0.7824754 -0.6226814 0.4235198 0.7100161
-4.599309 18.67599 13.04334 0.1924189 0.7824752 -0.5922057 0.4046452 0.7038574
-4.599296 18.67599 -13.04334 0.1924188 0.7824755 0.5922054 0.150847 0.3902845
-8.42249 18.67599 -11.09533 0.3660027 0.7824755 0.5037602 0.1637492 0.4080988
-8.4225 18.67599 11.09533 0.366003 0.7824754 -0.50376 0.1137179 0.5104184
-0.3612536 18.67599 -13.71458 -8.863325e-07 0.7824758 0.6226811 0.1331213 0.3774271
-11.4566 18.67599 8.061228 0.5037601 0.7824752 -0.3660032 0.133963 0.5033215
12.68208 18.67599 4.238039 -0.5922049 0.7824758 -0.1924188 0.03596194 0.4302485
13.35331 18.67599 1.5971e-06 -0.6226812 0.7824757 -1.697955e-08 0.04144409 0.4094248
3.87678 18.67599 -13.04333 -0.1924201 0.7824751 0.5922055 0.112362 0.3708074
-13.40462 18.67599 4.238036 0.5922054 0.7824754 -0.192419 0.1510627 0.490094
10.73406 18.67599 8.06123 -0.5037594 0.7824759 -0.3660028 0.03576588 0.4521568
7.699971 18.67599 -11.09532 -0.3660034 0.7824756 0.5037594 0.09067889 0.3710807
-14.07585 18.67599 -4.64887e-06 0.6226817 0.7824752 3.565706e-07 0.1637822 0.4722151
7.699961 18.67599 11.09533 -0.3660031 0.7824756 -0.5037596 0.04208276 0.4731053
7.699961 17.70253 11.09533 -0.383718 0.7575132 -0.5281423 0.04650282 0.4709084
10.73407 18.67599 -8.061212 -0.5037604 0.7824755 0.3660023 0.07028906 0.3782049
-13.40461 18.67599 -4.238045 0.5922052 0.7824754 0.1924196 0.1705351 0.4512002
3.876769 18.67599 13.04334 -0.1924188 0.7824755 -0.5922053 0.0545348 0.4909548
3.87677 17.70254 13.04334 -0.201732 0.7575133 -0.6208687 0.05802369 0.4875043
12.68208 18.67599 -4.238019 -0.5922059 0.7824752 0.1924184 0.05328928 0.3914403
-11.45659 18.67599 -8.061233 0.5037598 0.7824753 0.3660035 0.1705351 0.4290986
10.73407 17.70253 -8.061212 -0.5281426 0.7575135 0.3837169 0.07955065 0.981297
12.68208 17.70253 -4.238018 -0.620869 0.7575131 0.2017317 0.1188703 0.9940727
-13.40461 17.70253 -4.238045 0.6208685 0.7575132 0.2017329 0.07955065 0.7458181
-11.45659 17.70253 -8.061233 0.5281419 0.7575133 0.3837183 0.04610333 0.770119
-0.3612723 17.70254 13.71458 1.196172e-07 0.7575133 -0.6528197 0.2700569 0.8428861
13.35331 17.70253 1.554548e-06 -0.6528183 0.7575145 2.062363e-08 0.1602132 0.9940727
-8.42249 17.70253 -11.09533 0.3837174 0.7575134 0.5281425 0.02180237 0.8035662
-4.599309 17.70253 13.04334 0.201732 0.7575134 -0.6208684 0.2572813 0.8035663
-4.599296 17.70253 -13.04334 0.2017321 0.7575135 0.6208683 0.009026662 0.8428859
-8.4225 17.70253 11.09533 0.3837178 0.7575133 -0.5281423 0.2329805 0.7701191
-0.3612536 17.70253 -13.71458 -9.064104e-07 0.7575132 0.6528199 0.009026662 0.8842291
-11.4566 17.70253 8.061228 0.5281422 0.7575133 -0.3837178 0.1995332 0.7458182
3.876781 17.70253 -13.04333 -0.2017333 0.7575135 0.620868 0.02180234 0.9235488
-13.40462 17.70253 4.238036 0.6208686 0.7575132 -0.2017323 0.1602135 0.7330425
12.68208 17.70253 4.238039 -0.6208691 0.7575129 -0.2017322 0.1995329 0.981297
10.73405 17.70253 8.06123 -0.5281408 0.7575145 -0.3837174 0.2329803 0.9569962
7.699971 17.70253 -11.09532 -0.3837185 0.7575132 0.5281419 0.04610333 0.956996
-14.07585 17.70253 -4.691421e-06 0.6528196 0.7575135 3.763818e-07 0.1188703 0.7330425
3 0 1 2 
3 0 2 3 
3 4 165 166 
3 4 166 5 
3 6 167 7 
3 6 7 8 
3 9 10 11 
3 9 11 12 
3 13 168 169 
3 13 169 170 
3 171 172 14 
3 171 14 15 
3 16 17 18 
3 16 18 19 
3 20 21 22 
3 20 22 23 
3 10 173 24 
3 10 24 11 
3 25 13 170 
3 25 170 26 
3 9 27 174 
3 9 174 175 
3 21 176 28 
3 21 28 22 
3 177 178 29 
3 177 29 179 
3 180 4 5 
3 180 5 30 
3 178 31 32 
3 178 32 29 
3 31 33 34 
3 31 34 32 
3 33 35 36 
3 33 36 34 
3 35 180 30 
3 35 30 36 
3 181 182 37 
3 181 37 38 
3 39 20 23 
3 39 23 40 
3 41 39 40 
3 41 40 42 
3 183 184 43 
3 183 43 44 
3 173 185 186 
3 173 186 24 
3 185 187 188 
3 185 188 186 
3 187 189 190 
3 187 190 188 
3 189 25 26 
3 189 26 190 
3 45 183 44 
3 45 44 46 
3 182 41 42 
3 182 42 37 
3 191 192 47 
3 191 47 48 
3 192 49 50 
3 192 50 47 
3 49 51 52 
3 49 52 50 
3 51 53 54 
3 51 54 52 
3 193 194 55 
3 193 55 195 
3 53 45 46 
3 53 46 54 
3 196 197 198 
3 196 198 199 
3 200 196 199 
3 200 199 201 
3 202 200 201 
3 202 201 203 
3 204 202 203 
3 204 203 27 
3 197 205 6 
3 197 6 198 
3 12 204 27 
3 12 27 9 
3 206 181 38 
3 206 38 207 
3 208 209 173 
3 208 173 10 
3 210 211 168 
3 210 168 13 
3 212 213 10 
3 212 10 9 
3 205 214 167 
3 205 167 6 
3 215 216 1 
3 215 1 0 
3 56 217 218 
3 56 218 57 
3 219 220 221 
3 219 221 222 
3 223 224 58 
3 223 58 225 
3 224 226 59 
3 224 59 58 
3 226 227 60 
3 226 60 59 
3 227 219 222 
3 227 222 60 
3 228 229 61 
3 228 61 230 
3 229 231 62 
3 229 62 61 
3 231 232 63 
3 231 63 62 
3 232 56 57 
3 232 57 63 
3 233 234 235 
3 233 235 236 
3 237 233 236 
3 237 236 238 
3 239 237 238 
3 239 238 240 
3 241 239 240 
3 241 240 242 
3 234 243 244 
3 234 244 235 
3 245 246 247 
3 245 247 248 
3 64 65 66 
3 64 66 67 
3 67 66 68 
3 67 68 69 
3 69 68 70 
3 69 70 71 
3 71 70 72 
3 71 72 73 
3 73 72 74 
3 73 74 75 
3 75 74 76 
3 75 76 77 
3 77 76 78 
3 77 78 79 
3 79 78 80 
3 79 80 81 
3 81 80 82 
3 81 82 83 
3 83 82 84 
3 83 84 85 
3 85 84 86 
3 85 86 87 
3 87 86 88 
3 87 88 89 
3 89 88 90 
3 89 90 91 
3 91 90 92 
3 91 92 93 
3 93 92 94 
3 93 94 95 
3 95 94 96 
3 95 96 97 
3 97 96 98 
3 97 98 99 
3 99 98 100 
3 99 100 101 
3 98 96 102 
3 98 102 103 
3 101 100 104 
3 101 104 105 
3 105 104 65 
3 105 65 64 
3 106 107 108 
3 106 108 109 
3 74 72 110 
3 74 110 249 
3 84 82 111 
3 84 111 112 
3 94 92 113 
3 94 113 114 
3 65 104 115 
3 65 115 116 
3 70 68 117 
3 70 117 118 
3 80 78 119 
3 80 119 120 
3 90 88 121 
3 90 121 122 
3 66 65 116 
3 66 116 123 
3 100 98 103 
3 100 103 124 
3 76 74 249 
3 76 249 250 
3 86 84 112 
3 86 112 125 
3 96 94 114 
3 96 114 102 
3 72 70 118 
3 72 118 110 
3 82 80 120 
3 82 120 111 
3 92 90 122 
3 92 122 113 
3 104 100 124 
3 104 124 115 
3 68 66 123 
3 68 123 117 
3 78 76 250 
3 78 250 119 
3 88 86 125 
3 88 125 121 
3 126 127 128 
3 126 128 129 
3 251 252 130 
3 251 130 131 
3 253 106 109 
3 253 109 132 
3 254 251 131 
3 254 131 133 
3 255 253 132 
3 255 132 134 
3 256 257 135 
3 256 135 136 
3 258 254 133 
3 258 133 137 
3 259 255 134 
3 259 134 138 
3 260 256 136 
3 260 136 139 
3 261 258 137 
3 261 137 140 
3 262 259 138 
3 262 138 141 
3 263 260 139 
3 263 139 264 
3 265 261 140 
3 265 140 142 
3 266 262 141 
3 266 141 143 
3 267 263 264 
3 267 264 268 
3 269 265 142 
3 269 142 144 
3 270 266 143 
3 270 143 145 
3 107 267 268 
3 107 268 108 
3 257 269 144 
3 257 144 135 
3 252 270 145 
3 252 145 130 
3 271 146 147 
3 271 147 272 
3 273 148 149 
3 273 149 274 
3 129 128 150 
3 129 150 275 
3 272 147 151 
3 272 151 276 
3 274 149 152 
3 274 152 277 
3 275 150 153 
3 275 153 278 
3 277 152 154 
3 277 154 279 
3 278 153 155 
3 278 155 280 
3 279 154 156 
3 279 156 281 
3 280 155 157 
3 280 157 282 
3 281 156 158 
3 281 158 283 
3 282 157 159 
3 282 159 284 
3 285 160 161 
3 285 161 286 
3 283 158 162 
3 283 162 287 
3 284 159 163 
3 284 163 288 
3 286 161 127 
3 286 127 126 
3 287 162 146 
3 287 146 271 
3 288 163 148 
3 288 148 273 
3 147 146 164 
3 149 148 164 
3 150 128 164 
3 151 147 164 
3 152 149 164 
3 153 150 164 
3 154 152 164 
3 155 153 164 
3 156 154 164 
3 157 155 164 
3 160 151 164 
3 158 156 164 
3 159 157 164 
3 161 160 164 
3 162 158 164 
3 163 159 164 
3 127 161 164 
3 146 162 164 
3 148 163 164 
3 128 127 164 
3 276 151 160 
3 276 160 285 
