ply
format ascii 1.0
comment VCGLIB generated
comment TextureFile mf_dagger_01.png
element vertex 356
property float x
property float y
property float z
property float nx
property float ny
property float nz
property float texture_u
property float texture_v
element face 524
property list uchar int vertex_indices
end_header
5.828212 -1.441702e-06 16.19005 0.9986174 2.918141e-08 0.05256781 0.3564596 0.3802032
5.088029 -1.898191e-06 26.6333 0.9974977 -1.741972e-07 0.07069946 0.434366 0.3873599
4.781181 -1.428389 26.6333 0.9135949 -0.4007592 0.06882181 0.4335221 0.3982579
5.476728 -1.636184 16.19005 0.915104 -0.3999555 0.05118902 0.3557734 0.3926534
3.897655 -2.68449 26.6333 0.7011538 -0.7100756 0.06462255 0.4329331 0.409722
4.46467 -3.075018 16.19005 0.7030342 -0.7095283 0.04808863 0.3553087 0.4056636
2.544013 -3.616803 26.6333 0.4302996 -0.900648 0.06062602 0.4325559 0.4219955
2.914105 -4.14296 16.19005 0.4317944 -0.9008428 0.04511917 0.3550211 0.4195292
0.8835241 -4.112877 26.6333 0.1440436 -0.9878485 0.05836948 0.4323675 0.4349376
1.012058 -4.7112 16.19005 0.1445972 -0.9885368 0.0434355 0.3548859 0.4341112
-0.8835301 -4.112877 26.6333 -0.1440437 -0.9878484 0.05836951 0.4323593 0.4481332
-1.012061 -4.7112 16.19005 -0.1445973 -0.9885368 0.04343545 0.3548916 0.4489671
-2.544017 -3.616803 26.6333 -0.4302997 -0.9006479 0.060626 0.4325498 0.4610723
-2.914108 -4.14296 16.19006 -0.4317944 -0.9008429 0.0451192 0.3550299 0.4635483
-3.897659 -2.68449 26.6333 -0.7011535 -0.710076 0.06462245 0.4329292 0.4733431
-4.464674 -3.075017 16.19005 -0.7030346 -0.709528 0.04808855 0.3553205 0.4774129
-4.781188 -1.428389 26.6333 -0.913595 -0.4007592 0.06882167 0.4335202 0.4848047
-5.47673 -1.636184 16.19005 -0.915104 -0.3999554 0.05118879 0.3557883 0.4904219
-5.088033 -2.357017e-06 26.6333 -0.9974977 -1.057194e-07 0.07069923 0.434366 0.4957002
-5.828215 -1.900532e-06 16.19005 -0.9986174 -6.152414e-07 0.05256776 0.3564778 0.5028706
-4.781188 1.428384 26.6333 -0.9135951 0.4007587 0.0688217 0.4264068 0.5499095
-5.476732 1.636181 16.19005 -0.9151042 0.3999551 0.05118895 0.3493016 0.5443505
-3.897661 2.684486 26.6333 -0.7011538 0.7100756 0.06462248 0.4258225 0.5612788
-4.464674 3.075015 16.19005 -0.7030346 0.709528 0.0480886 0.3488403 0.5572532
-2.544019 3.6168 26.6333 -0.4302995 0.9006481 0.06062606 0.4254484 0.5734506
-2.91411 4.142957 16.19005 -0.4317943 0.9008429 0.04511919 0.3485548 0.5710043
-0.8835301 4.112873 26.6333 -0.1440438 0.9878484 0.05836955 0.4252615 0.5862855
-1.012061 4.711197 16.19005 -0.1445971 0.9885368 0.0434355 0.3484206 0.5854659
0.8835222 4.112874 26.6333 0.144043 0.9878485 0.05836954 0.4252534 0.599372
1.012054 4.711197 16.19005 0.1445965 0.988537 0.04343553 0.3484263 0.6001992
2.544011 3.616802 26.6333 0.4302991 0.9006482 0.06062609 0.4254424 0.612204
2.914102 4.14296 16.19005 0.431794 0.900843 0.04511921 0.3485636 0.61466
3.897653 2.684489 26.6333 0.7011533 0.710076 0.06462244 0.4258186 0.6243731
4.464665 3.075018 16.19005 0.7030338 0.7095287 0.04808871 0.3488522 0.62841
4.544155 1.357577 -13.00065 0.8693194 0.4055337 0.2825354 0.1314749 0.6365096
5.476728 1.636185 -2.557412 0.914569 0.3995349 -0.06273438 0.2120875 0.6413655
5.828212 -6.222276e-07 -2.557412 0.9979236 -1.656673e-07 -0.06440948 0.2114588 0.6538533
4.835791 2.930833e-07 -13.00065 0.9491689 -0.006352891 0.3147031 0.1323597 0.6470715
4.781181 1.428387 26.6333 0.9135947 0.4007596 0.06882181 0.4264049 0.6357397
5.476727 1.636184 16.19005 0.9151036 0.3999564 0.05118904 0.3493165 0.6413113
-4.544159 1.357574 -13.00065 -0.8723033 0.4202542 0.2499466 0.1315822 0.5490688
-3.704434 2.551405 -13.00065 -0.6649125 0.7369835 0.1214365 0.1315974 0.5606008
-6.097647 2.461997 -16.59757 -0.5072343 0.8213844 0.2608469 0.1015365 0.548569
-7.479871 1.310002 -16.59757 -0.7391433 0.5223327 0.4252479 0.100247 0.5366319
5.782316 1.727479 6.816323 0.9164105 0.4002397 3.283084e-08 0.2807177 0.6435415
6.153413 -1.031965e-06 6.816322 1 -6.827512e-08 1.645918e-08 0.2807359 0.6564993
3.704428 2.551408 -13.00065 0.6657495 0.7264093 0.1706083 0.1315427 0.6249511
4.464666 3.075019 -2.557412 0.7027818 0.7089581 -0.05896018 0.2124685 0.6285626
4.713786 3.246597 6.816322 0.7040864 0.7101144 7.13653e-08 0.2806987 0.6300201
2.417893 3.437501 -13.00065 0.4001389 0.9155352 0.04104007 0.1321076 0.6124725
2.914103 4.14296 -2.557412 0.4317206 0.9003084 -0.05533648 0.2126729 0.6148285
3.076703 4.374125 6.816322 0.4324546 0.9016557 1.246677e-07 0.280683 0.6156413
0.8397236 3.908981 -13.00065 0.1267943 0.99119 -0.03828268 0.1325254 0.5993748
1.012056 4.711199 -2.557412 0.1445858 0.9880569 -0.05327832 0.2127554 0.6002756
1.068525 4.974071 6.816322 0.1448188 0.9894582 8.534533e-08 0.2806736 0.6005327
-0.8397296 3.90898 -13.00065 -0.1372856 0.9893554 -0.04825486 0.1324376 0.586163
-1.012061 4.711199 -2.557412 -0.1445866 0.9880568 -0.0532783 0.2127471 0.5853878
-1.068532 4.974071 6.816323 -0.1448195 0.9894581 8.714842e-08 0.2806584 0.5851419
-2.417899 3.437499 -13.00065 -0.4018758 0.9156667 0.007103138 0.1320967 0.5730647
-2.914108 4.142958 -2.557412 -0.4317208 0.9003083 -0.05533645 0.2126731 0.57084
-3.076711 4.374123 6.816323 -0.4324551 0.9016555 3.673783e-08 0.280668 0.570035
-4.464674 3.075016 -2.557412 -0.7027825 0.7089574 -0.05896024 0.2124772 0.5571142
-4.713793 3.246593 6.816322 -0.7040873 0.7101135 4.414973e-08 0.2806827 0.5556587
-5.476731 1.636182 -2.557412 -0.9145694 0.3995339 -0.06273437 0.2121035 0.5443214
-5.782319 1.727475 6.816323 -0.9164107 0.4002392 -3.708668e-08 0.2806996 0.5421404
-4.835792 -1.657378e-07 -13.00065 -0.949169 0.006353292 0.3147029 0.1325021 0.5385433
-5.828215 -6.222259e-07 -2.557412 -0.9979236 6.821598e-08 -0.06440952 0.2114811 0.5318461
-6.153417 -1.490794e-06 6.816323 -1 -6.827513e-08 -1.767838e-08 0.2807144 0.5291863
-4.544159 -1.357574 -13.00065 -0.8693196 -0.4055331 0.2825358 0.1362051 0.4854315
-5.476731 -1.636183 -2.557412 -0.9145691 -0.3995344 -0.06273445 0.2174228 0.4904533
-5.782319 -1.727478 6.816321 -0.9164104 -0.4002398 1.945531e-08 0.2866178 0.4926663
-3.704431 -2.551405 -13.00065 -0.6657501 -0.7264088 0.1706083 0.136343 0.4737925
-4.464672 -3.075017 -2.557412 -0.7027824 -0.7089575 -0.0589603 0.2178171 0.4775471
-4.71379 -3.246595 6.816322 -0.7040872 -0.7101135 -6.108385e-08 0.2866008 0.4790327
-2.417899 -3.437499 -13.00065 -0.4001395 -0.9155349 0.04103987 0.1369677 0.4612447
-2.914108 -4.142959 -2.557413 -0.4317209 -0.9003082 -0.0553366 0.2180318 0.463704
-3.076711 -4.374126 6.816322 -0.4324555 -0.9016553 -4.998755e-08 0.286587 0.4645353
-0.8397276 -3.908979 -13.00065 -0.1267949 -0.99119 -0.03828288 0.137417 0.4480871
-1.012061 -4.711199 -2.557413 -0.1445862 -0.9880568 -0.05327849 0.2181205 0.4490371
-1.068531 -4.974073 6.816322 -0.1448192 -0.9894581 -2.163685e-08 0.2865787 0.4493023
0.8397256 -3.90898 -13.00065 0.1372854 -0.9893554 -0.04825509 0.1373246 0.4348258
1.012058 -4.711199 -2.557413 0.1445862 -0.9880568 -0.05327847 0.2181132 0.4340338
1.068528 -4.974073 6.816322 0.1448193 -0.9894581 -2.644503e-08 0.2865637 0.4337849
2.417896 -3.437499 -13.00065 0.401876 -0.9156666 0.007102736 0.1369648 0.4216715
2.914105 -4.14296 -2.557412 0.4317209 -0.9003083 -0.05533655 0.2180343 0.419373
3.076705 -4.374126 6.816322 0.4324551 -0.9016555 -1.806779e-08 0.2865723 0.4185538
3.70443 -2.551405 -13.00065 0.6649123 -0.7369837 0.1214364 0.1364166 0.4091457
4.46467 -3.075017 -2.557413 0.7027824 -0.7089574 -0.05896029 0.2178293 0.4055397
4.713788 -3.246596 6.816322 0.7040868 -0.7101139 -1.511977e-08 0.2865854 0.4040591
4.544156 -1.357574 -13.00065 0.8723031 -0.4202551 0.2499461 0.1363385 0.397543
5.476728 -1.636183 -2.557412 0.9145692 -0.3995343 -0.06273442 0.2174434 0.3926455
5.782317 -1.727479 6.816322 0.9164106 -0.4002394 -1.823935e-08 0.2866003 0.3904291
7.479865 1.310004 -16.59757 0.7457018 0.5161461 0.4213336 0.09991792 0.6488233
7.95991 9.091354e-07 -16.59757 0.8654156 -0.00751515 0.5009984 0.10071 0.6584665
9.279918 1.049364e-06 -19.80554 0.9725944 -0.00342852 0.232483 0.07711554 0.6623023
8.72027 1.310005 -19.80554 0.7760445 0.6042877 0.1805306 0.07762209 0.6527185
6.097641 2.461999 -16.59757 0.5088412 0.827222 0.2382948 0.1012983 0.6368355
3.979949 3.317042 -16.59757 0.2815999 0.9565652 0.07539549 0.1034694 0.62124
1.382224 -3.771997 -16.59757 0.09709135 -0.9952698 0.003358908 0.1097288 0.43144
3.979955 -3.317039 -16.59757 0.2896433 -0.9518468 0.1004715 0.1083378 0.4128596
-7.959911 9.09141e-07 -16.59757 -0.8654156 0.007516132 0.5009985 0.1048942 0.5072824
-7.479871 -1.31 -16.59757 -0.7457024 -0.5161454 0.4213335 0.1042508 0.4975165
1.38222 3.772 -16.59757 0.08601798 0.9962744 -0.006185059 0.1049245 0.6025789
-1.382228 3.771999 -16.59757 -0.09709138 0.9952698 0.003359334 0.1048789 0.5827442
6.097645 -2.461995 -16.59757 0.5072342 -0.8213845 0.2608469 0.1061242 0.3973124
7.479869 -1.31 -16.59757 0.7391434 -0.5223328 0.4252478 0.1046644 0.3853334
-6.097645 -2.461995 -16.59757 -0.5088413 -0.8272221 0.2382944 0.1058188 0.4854636
-3.979957 -3.317039 -16.59757 -0.2816004 -0.9565651 0.07539533 0.1081828 0.4698527
-3.979957 3.317041 -16.59757 -0.2896434 0.9518467 0.1004719 0.1035839 0.5641215
-1.382226 -3.771997 -16.59757 -0.08601832 -0.9962744 -0.006185346 0.1097704 0.4512193
-7.343537 2.461998 -22.71306 -0.4618457 0.8865335 -0.02751124 0.06138642 0.5460095
-4.793156 3.317042 -22.71306 -0.2396342 0.9708288 -0.008172541 0.0631136 0.5625273
-4.380271 3.317041 -25.62058 -0.2523348 0.9572471 -0.1414397 0.04581238 0.5662874
-6.710965 2.461998 -25.62058 -0.4709339 0.8501768 -0.2354161 0.04437963 0.5516528
-7.108829 2.461998 -19.80554 -0.4685476 0.8776048 0.1013556 0.07966843 0.545242
-8.720272 1.310002 -19.80554 -0.7735413 0.6054906 0.1871233 0.07812192 0.5325782
1.611441 -3.771997 -19.80554 0.07848278 -0.9968936 0.006600779 0.08783362 0.4306898
4.639959 -3.317039 -19.80554 0.2473509 -0.9681606 0.03850313 0.08636962 0.410934
-4.639963 3.317042 -19.80554 -0.2473513 0.9681606 0.03850317 0.08154865 0.5619426
-1.611443 -3.771997 -19.80554 -0.07512495 -0.9971659 0.004042978 0.08775933 0.4517303
-1.611445 3.772001 -19.80554 -0.07848286 0.9968936 0.006600809 0.08281478 0.5819199
-4.639961 -3.317039 -19.80554 -0.2440321 -0.969272 0.03098754 0.086068 0.471564
1.611437 3.772001 -19.80554 0.07512466 0.997166 0.004042973 0.08275877 0.6032178
-7.108829 -2.461995 -19.80554 -0.4670508 -0.8795394 0.09096244 0.08367573 0.4882352
4.639955 3.317043 -19.80554 0.2440318 0.9692721 0.03098763 0.08132483 0.6232467
-8.720272 -1.31 -19.80554 -0.7760447 -0.6042876 0.1805305 0.08166786 0.5009746
8.72027 -1.31 -19.80554 0.773541 -0.605491 0.1871233 0.08231782 0.3816987
7.108825 2.462 -19.80554 0.4670503 0.8795397 0.09096231 0.07929192 0.64
-9.279918 1.049363e-06 -19.80554 -0.9725944 0.003428617 0.2324832 0.08088933 0.5106531
7.108829 -2.461996 -19.80554 0.4685477 -0.8776048 0.1013555 0.08417385 0.3943495
-1.521253 3.772 -25.62058 -0.07827856 0.9923048 -0.09593595 0.04653883 0.5834042
-1.287642 3.456215 -27.39684 -0.08237567 0.9590587 -0.2709624 0.03587954 0.5848352
-3.707608 3.039344 -27.39684 -0.2574211 0.8983597 -0.3559276 0.03530279 0.570469
1.664644 -3.771998 -22.71306 0.07429812 -0.997236 -0.0005488272 0.06963135 0.4309855
-1.664646 -3.771998 -22.71306 -0.07540044 -0.9971489 -0.002980981 0.06947979 0.4512132
-1.521251 -3.771997 -25.62058 -0.08196146 -0.9919634 -0.09638894 0.05240276 0.44957
1.521251 -3.771998 -25.62058 0.0782785 -0.9923048 -0.09593614 0.05262137 0.4324022
-1.664648 3.772001 -22.71306 -0.07429821 0.997236 -0.0005489896 0.0642327 0.5821173
-4.793154 -3.317039 -22.71306 -0.2408327 -0.9704438 -0.01543852 0.06777248 0.4704166
-4.380269 -3.317038 -25.62058 -0.2558303 -0.9561162 -0.1428031 0.05099893 0.4659937
1.66464 3.772001 -22.71306 0.07540009 0.9971489 -0.002980979 0.06411753 0.6028639
1.521249 3.772 -25.62058 0.08196111 0.9919635 -0.09638871 0.04638186 0.6014382
-7.343536 -2.461996 -22.71306 -0.4625502 -0.8857551 -0.03853935 0.06534749 0.4867538
-6.710957 -2.461995 -25.62058 -0.4724776 -0.8491169 -0.2361472 0.04872018 0.4802378
4.793148 3.317043 -22.71306 0.2408324 0.9704439 -0.01543835 0.06282352 0.6224923
4.380265 3.317043 -25.62058 0.25583 0.9561163 -0.142803 0.04551122 0.6185497
-9.008183 -1.31 -22.71306 -0.7830743 -0.6181539 -0.06841446 0.06297313 0.499266
-8.232212 -1.31 -25.62058 -0.7422783 -0.5661353 -0.3584883 0.04594487 0.4914341
9.586305 1.176455e-06 -22.71306 0.9967683 0.001103031 -0.08032347 0.06177197 0.3741141
9.008182 -1.310001 -22.71306 0.7839414 -0.6180056 -0.05920284 0.06378535 0.3831727
8.232213 -1.310001 -25.62058 0.7434888 -0.562782 -0.3612488 0.0468152 0.3906926
8.760538 1.303548e-06 -25.62058 0.90518 0.004056215 -0.4250091 0.043098 0.3822388
7.343531 2.462 -22.71306 0.4625497 0.8857553 -0.03853921 0.06092803 0.6390514
6.710957 2.462 -25.62058 0.4724775 0.849117 -0.2361468 0.04391791 0.633198
-9.58631 1.176455e-06 -22.71306 -0.9967682 -0.001103073 -0.0803241 0.06082197 0.5083913
-8.760533 1.303544e-06 -25.62058 -0.9051794 -0.004057533 -0.4250104 0.04206022 0.4999164
7.343535 -2.461996 -22.71306 0.4618454 -0.8865337 -0.02751126 0.06597917 0.3956031
6.710963 -2.461996 -25.62058 0.470934 -0.8501768 -0.2354158 0.04939757 0.4018343
9.00818 1.310005 -22.71306 0.7830746 0.6181536 -0.06841397 0.05902847 0.6516227
8.232209 1.310005 -25.62058 0.7422775 0.5661364 -0.3584882 0.04173972 0.6445871
-9.008183 1.310002 -22.71306 -0.7839407 0.6180066 -0.05920209 0.05962859 0.5334796
-8.232217 1.310002 -25.62058 -0.7434895 0.5627805 -0.3612499 0.04234472 0.5402789
4.793152 -3.31704 -22.71306 0.239634 -0.9708289 -0.008172455 0.06817807 0.4118561
4.380269 -3.317039 -25.62058 0.2523349 -0.9572471 -0.1414396 0.05144871 0.4160192
1.287636 3.456215 -27.39684 0.08964229 0.9565949 -0.2772914 0.03575565 0.5999139
0.7512726 2.756974 -29.36635 0.08476566 0.7675306 -0.635383 0.02346489 0.596767
-0.7512745 2.756973 -29.36635 -0.07601595 0.7663015 -0.6379684 0.02352728 0.5879022
-3.707606 -3.039341 -27.39684 -0.2607687 -0.8913887 -0.37071 0.04115517 0.4613886
-1.287639 -3.456212 -27.39684 -0.08964252 -0.9565947 -0.277292 0.04243131 0.4479119
-5.680383 -2.255881 -27.39684 -0.4361562 -0.7403201 -0.5115603 0.03896691 0.4732493
3.707604 3.039345 -27.39684 0.2607685 0.8913889 -0.3707097 0.03504109 0.6142546
-6.968019 -1.200329 -27.39684 -0.6104252 -0.4551407 -0.6482499 0.03575196 0.482666
6.968019 -1.20033 -27.39684 0.6132506 -0.4497606 -0.6493375 0.03657606 0.3992167
7.415215 9.223619e-07 -27.39684 0.7019438 0.00426721 -0.7122197 0.03166307 0.3924805
5.68038 2.255885 -27.39684 0.4361556 0.7403206 -0.5115601 0.03358931 0.6266695
-7.415213 9.223649e-07 -27.39684 -0.7019442 -0.004267862 -0.7122193 0.03067455 0.489377
5.680383 -2.255882 -27.39684 0.4394365 -0.7444491 -0.502684 0.03960349 0.4086157
6.968021 1.200333 -27.39684 0.610425 0.4551409 -0.64825 0.03101898 0.6364427
-6.968021 1.200331 -27.39684 -0.6132511 0.4497597 -0.6493376 0.03155803 0.5482562
3.707606 -3.039342 -27.39684 0.2574207 -0.8983597 -0.3559276 0.04157912 0.4204472
-5.680383 2.255883 -27.39684 -0.4394367 0.7444491 -0.5026838 0.03399683 0.5580427
1.287639 -3.456212 -27.39684 0.08237552 -0.9590584 -0.2709635 0.04263824 0.4339037
2.163203 2.424442 -29.36634 0.2344709 0.6826724 -0.6920852 0.02277357 0.6052772
0.9166184 1.222448 -30.19312 0.09647494 0.245759 -0.9645181 0.01228611 0.5986781
0.3183362 1.390116 -30.19312 0.03453467 0.2810118 -0.9590827 0.01303541 0.5944571
-3.314222 -1.799481 -29.36635 -0.359709 -0.5091603 -0.7818986 0.02803583 0.4591692
-2.163205 -2.424436 -29.36635 -0.2344711 -0.682671 -0.6920865 0.03036193 0.4523171
-4.065495 -0.9574828 -29.36635 -0.4333076 -0.2661273 -0.861058 0.02434782 0.4646917
4.065493 -0.9574828 -29.36635 0.4235991 -0.250303 -0.8705816 0.0249152 0.4168448
4.32641 2.843756e-06 -29.36634 0.4502765 0.004212894 -0.8928792 0.01981803 0.4132322
3.31422 1.799489 -29.36635 0.3597083 0.5091612 -0.7818983 0.02101941 0.6129116
-4.326408 2.843751e-06 -29.36635 -0.4502762 -0.004212924 -0.8928794 0.0191378 0.4682153
3.314222 -1.799481 -29.36635 0.3528228 -0.486702 -0.7991479 0.02846662 0.4224164
4.065493 0.9574908 -29.36635 0.4333078 0.2661268 -0.8610581 0.01785304 0.6191262
-4.065495 0.9574885 -29.36635 -0.4235996 0.2503036 -0.8705812 0.01815885 0.5653691
2.163205 -2.424437 -29.36635 0.2316395 -0.6711121 -0.7042384 0.03064855 0.4293022
-3.314226 1.799487 -29.36635 -0.352823 0.4867032 -0.799147 0.0212417 0.5716403
0.7512726 -2.756967 -29.36635 0.07601543 -0.766301 -0.6379691 0.03160619 0.4369136
-2.163205 2.424441 -29.36635 -0.2316399 0.6711127 -0.7042378 0.02290532 0.5793242
-0.7512745 -2.756967 -29.36635 -0.08476485 -0.7675302 -0.6353835 0.03144749 0.4447536
1.833237 3.453427e-06 -30.19312 0.1826182 0.001091369 -0.9831833 0.01559913 0.4295198
1.722679 -0.4827774 -30.19312 0.1713332 -0.08815148 -0.9812616 0.01849307 0.4305162
1.404341 -0.907328 -30.19312 0.1420282 -0.1712036 -0.9749448 0.02073542 0.4326289
0.9166184 -1.222441 -30.19312 0.09411812 -0.239909 -0.9662223 0.02221731 0.4355479
0.3183382 -1.390109 -30.19312 0.03162023 -0.2794264 -0.9596463 0.02293822 0.4389524
-0.3183402 -1.390109 -30.19312 -0.03453488 -0.2810119 -0.9590827 0.02291491 0.4424889
-0.9166204 -1.222441 -30.19312 -0.09647471 -0.2457585 -0.9645182 0.02210719 0.4458639
-1.404341 -0.9073278 -30.19312 -0.1458757 -0.1783803 -0.9730883 0.02053913 0.448748
-1.722677 -0.4827775 -30.19312 -0.1748069 -0.09230634 -0.9802664 0.01824336 0.4508196
-1.833237 3.453423e-06 -30.19312 -0.1826172 -0.001091876 -0.9831835 0.01530163 0.4517282
-1.722677 0.4827844 -30.19312 -0.1713256 0.0881486 -0.9812632 0.01222233 0.4512318
-1.404341 0.9073348 -30.19312 -0.1420306 0.1712035 -0.9749445 0.009395324 0.4493627
-0.9166204 1.222448 -30.19312 -0.09411634 0.239908 -0.9662227 0.007290392 0.4463071
-0.3183402 1.390116 -30.19312 -0.03161977 0.2794266 -0.9596463 0.00620003 0.4424872
1.404341 0.9073356 -30.19312 0.1458763 0.1783811 -0.973088 0.009694278 0.4316998
1.722679 0.4827855 -30.19312 0.1748143 0.0923098 -0.9802647 0.012527 0.429913
-10.96472 -3.018106 25.99981 -0.1575944 -0.8688812 -0.4692649 0.6771117 0.6733035
-10.96471 -3.018107 31.39369 -0.1574646 -0.8688418 0.4693813 0.7154495 0.6733035
-30.79125 -1.085956 30.32087 -0.6583558 -0.6693814 0.3442328 0.7078241 0.8148902
-30.79125 -1.085956 27.07263 -0.6583874 -0.6693758 -0.3441832 0.684737 0.8148901
-10.96471 3.018103 31.39369 -0.1575943 0.8688813 0.4692646 0.664705 0.5136967
-10.96472 3.018103 25.99981 -0.1574644 0.8688417 -0.4693815 0.6263674 0.5136967
-30.79125 1.085954 27.07263 -0.6583557 0.6693819 -0.3442321 0.6339927 0.37211
-30.79125 1.085954 30.32087 -0.6583871 0.6693756 0.3441842 0.6570798 0.37211
-30.79125 -0.1149569 26.38113 -0.6740932 -0.2142891 -0.7068796 0.4874472 0.81015
-30.79125 0.1149549 26.38113 -0.6740665 0.2143334 -0.7068916 0.4849543 0.8101594
-10.96471 2.042326 25.30888 -0.07132737 0.2884571 -0.9548324 0.4710875 0.6688586
-10.96471 -2.042329 25.30888 -0.0713838 -0.2883479 -0.9548612 0.5001478 0.6687689
10.96471 -2.042331 25.30888 0.07132765 -0.2884578 -0.9548322 0.4998435 0.5138374
10.96471 2.042325 25.30888 0.07138404 0.2883487 -0.9548609 0.4707832 0.5139272
30.79123 0.1149531 26.38113 0.6740934 0.214289 -0.7068794 0.4834839 0.3725463
30.79123 -0.1149606 26.38113 0.6740665 -0.2143334 -0.7068915 0.4859768 0.3725368
-30.79125 -0.1149571 31.01237 -0.6740667 -0.2143325 0.7068916 0.01473563 0.7076195
-30.79125 0.1149547 31.01237 -0.6740933 0.2142882 0.7068796 0.0131015 0.7076194
30.79123 1.08595 30.32088 0.6583545 0.6693825 0.3442332 0.6570798 0.8148902
30.79123 1.085952 27.07264 0.6583873 0.669376 -0.344183 0.6339925 0.8148902
10.96471 3.018102 25.99981 0.1575945 0.8688817 -0.469264 0.6263673 0.6733035
10.96471 3.018102 31.39369 0.1574645 0.8688418 0.4693814 0.664705 0.6733035
1.222284 5.297847 25.99934 0.1002364 0.8887322 -0.4473342 0.626364 0.6021877
1.222282 5.297847 31.39416 0.1003523 0.8886866 0.4473988 0.6647083 0.6021877
10.96471 -3.018107 25.99981 0.1574645 -0.8688421 -0.4693809 0.6771118 0.5136967
10.96471 -3.018108 31.39369 0.1575943 -0.8688815 0.4692645 0.7154495 0.5136967
1.222282 -5.297853 31.39416 0.1002364 -0.8887318 0.4473349 0.7154527 0.5848125
1.222284 -5.297853 25.99934 0.1003524 -0.8886865 -0.4473989 0.6771084 0.5848125
1.236129 -4.309868 25.30888 0.03965583 -0.3197625 -0.9466676 0.515595 0.5826693
1.236129 4.309864 25.30888 0.03948256 0.3196862 -0.9467005 0.4552843 0.582661
-1.23614 -4.309869 32.08463 -0.03965593 -0.3197627 0.9466674 0.605394 0.5826692
-1.23614 4.309862 32.08463 -0.03948294 0.319685 0.9467009 0.5450833 0.5826609
-10.96471 2.042326 32.08463 -0.07138394 0.2883481 0.9548611 0.5605823 0.5139271
-10.96471 -2.04233 32.08463 -0.07132757 -0.2884572 0.9548324 0.5896425 0.5138373
30.79123 -1.085959 27.07264 0.6583557 -0.6693819 -0.344232 0.684737 0.37211
30.79123 -1.08596 30.32088 0.6583858 -0.669377 0.3441842 0.7078242 0.37211
30.79124 0.1149511 31.01238 0.6740672 0.2143331 0.7068909 0.0340372 0.683238
30.79124 -0.1149608 31.01238 0.6740937 -0.2142887 0.7068791 0.03403717 0.6816038
1.236129 4.309863 32.08463 0.03965591 0.3197626 0.9466675 0.5451351 0.6000266
10.96471 2.042325 32.08463 0.07132743 0.288457 0.9548324 0.5608866 0.6688586
-1.236139 4.309864 25.30888 -0.03965585 0.3197625 -0.9466676 0.4553361 0.6000267
-1.236139 -4.309868 25.30888 -0.03948279 -0.319685 -0.9467009 0.5156467 0.6000351
10.96471 -2.042331 32.08463 0.0713838 -0.2883482 0.9548611 0.5899468 0.6687687
1.236129 -4.309868 32.08463 0.03948295 -0.3196852 0.9467008 0.6054457 0.600035
-1.222294 5.297847 25.99934 -0.1003521 0.8886864 -0.4473992 0.446766 0.6000692
-1.222296 -5.297853 25.99934 -0.1002365 -0.8887318 -0.447335 0.524165 0.6000648
-1.222294 5.297847 31.39416 -0.1002364 0.8887318 0.447335 0.5365651 0.5826312
-1.222296 -5.297853 31.39416 -0.1003524 -0.8886866 0.4473987 0.613964 0.5826267
-1.594521e-05 -1.582536 123.7646 0.001186247 -0.999671 0.02562414 0.3357033 0.2728471
-1.594521e-05 -1.308192e-05 170.072 -3.082084e-06 7.251962e-07 1 0.00620003 0.2720527
-7.016403 -9.355709e-06 123.7646 -0.9941556 0.001337226 0.1079486 0.3355213 0.2216922
-7.972605e-06 2.53138 77.45706 -0.0006037775 0.9999002 0.01411931 0.6647659 0.09068526
-5.979454e-06 2.97653 31.14956 0.0004091311 0.999948 0.01019625 0.9937995 0.09147801
-11.62423 -2.095606e-06 31.14956 -0.9991791 -0.0003941983 0.04050904 0.9933887 0.176755
-9.641663 -5.955069e-06 77.45705 -0.9986064 0.0005159932 0.0527721 0.664335 0.1615195
9.641639 -6.87272e-06 77.45705 0.9986064 -0.0005161437 0.05277218 0.6646765 0.01984975
11.62421 -3.013255e-06 31.14956 0.9991791 0.0003945118 0.04050923 0.9937995 0.00620003
7.016379 -9.814538e-06 123.7646 0.9941556 -0.001337249 0.1079488 0.3352745 0.3240006
-1.594521e-05 -2.531392 77.45706 0.0006037774 -0.9999002 0.01411917 0.6647663 0.2736402
-9.965757e-06 -2.976535 31.14956 -0.0004090366 -0.999948 0.0101961 0.9938 0.274433
-1.594521e-05 1.582517 123.7646 -0.001186471 0.9996709 0.0256243 0.3357031 0.08989248
-5.828215 -1.900532e-06 16.19005 -0.9986174 -6.152414e-07 0.05256776 0.3499826 0.5320033
-5.088033 -2.357017e-06 26.6333 -0.9974977 -1.057194e-07 0.07069923 0.4272438 0.5391018
5.088029 -1.898191e-06 26.6333 0.9974977 -1.741972e-07 0.07069946 0.4272438 0.646545
5.828212 -1.441702e-06 16.19005 0.9986174 2.918141e-08 0.05256781 0.3500008 0.653657
-5.828215 -6.222259e-07 -2.557412 -0.9979236 6.821598e-08 -0.06440952 0.216778 0.5030436
-4.835792 -1.657378e-07 -13.00065 -0.949169 0.006353292 0.3147029 0.1370309 0.496089
-6.153417 -1.490794e-06 6.816323 -1 -6.827513e-08 -1.767838e-08 0.2866338 0.5057321
4.835791 2.930833e-07 -13.00065 0.9491689 -0.006352891 0.3147031 0.137202 0.3869332
5.828212 -6.222276e-07 -2.557412 0.9979236 -1.656673e-07 -0.06440948 0.2168055 0.3800699
6.153413 -1.031965e-06 6.816322 1 -6.827512e-08 1.645918e-08 0.2866129 0.3773675
-7.959911 9.09141e-07 -16.59757 -0.8654156 0.007516132 0.5009985 0.1011003 0.5270545
7.95991 9.091354e-07 -16.59757 0.8654156 -0.00751515 0.5009984 0.1053754 0.3756572
9.279918 1.049364e-06 -19.80554 0.9725944 -0.00342852 0.232483 0.08164755 0.37211
-9.279918 1.049363e-06 -19.80554 -0.9725944 0.003428617 0.2324832 0.07770742 0.5230532
-9.58631 1.176455e-06 -22.71306 -0.9967682 -0.001103073 -0.0803241 0.05796359 0.5243974
-8.760533 1.303544e-06 -25.62058 -0.9051794 -0.004057533 -0.4250104 0.0390751 0.5316574
9.586305 1.176455e-06 -22.71306 0.9967683 0.001103031 -0.08032347 0.05725184 0.6607389
8.760538 1.303548e-06 -25.62058 0.90518 0.004056215 -0.4250091 0.0383455 0.6532065
-7.415213 9.223649e-07 -27.39684 -0.7019442 -0.004267862 -0.7122193 0.02709842 0.5411481
7.415215 9.223619e-07 -27.39684 0.7019438 0.00426721 -0.7122197 0.02644833 0.643509
-4.326408 2.843751e-06 -29.36635 -0.4502762 -0.004212924 -0.8928794 0.01335144 0.5610169
4.32641 2.843756e-06 -29.36634 0.4502765 0.004212894 -0.8928792 0.01298212 0.6233993
0.3183362 1.390116 -30.19312 0.03453467 0.2810118 -0.9590827 0.006283146 0.4384243
0.9166184 1.222448 -30.19312 0.09647494 0.245759 -0.9645181 0.007522089 0.4346681
1.404341 0.9073356 -30.19312 0.1458763 0.1783811 -0.973088 0.01094634 0.6024076
1.722679 0.4827855 -30.19312 0.1748143 0.0923098 -0.9802647 0.008918519 0.6053208
-1.722677 0.4827844 -30.19312 -0.1713256 0.0881486 -0.9812632 0.008963015 0.5790687
-1.833237 3.453423e-06 -30.19312 -0.1826172 -0.001091876 -0.9831835 0.006268894 0.5771521
1.833237 3.453427e-06 -30.19312 0.1826182 0.001091369 -0.9831833 0.00620003 0.6071849
-1.404341 0.9073348 -30.19312 -0.1420306 0.1712035 -0.9749445 0.0109489 0.5820298
-0.9166204 1.222448 -30.19312 -0.09411634 0.239908 -0.9662227 0.01223091 0.5858096
-0.3183402 1.390116 -30.19312 -0.03161977 0.2794266 -0.9596463 0.01290759 0.5900933
-30.79125 -1.085956 30.32087 -0.6583558 -0.6693814 0.3442328 0.02163711 0.7027045
-30.79125 1.085954 30.32087 -0.6583871 0.6693756 0.3441842 0.00620003 0.7027045
-30.79125 1.085954 27.07263 -0.6583557 0.6693819 -0.3442321 0.006200031 0.6796173
-30.79125 0.1149549 26.38113 -0.6740665 0.2143334 -0.7068916 0.01310151 0.6747023
-30.79125 -0.1149569 26.38113 -0.6740932 -0.2142891 -0.7068796 0.01473563 0.6747024
-30.79125 -1.085956 27.07263 -0.6583874 -0.6693758 -0.3441832 0.02163711 0.6796173
-30.79125 0.1149547 31.01237 -0.6740933 0.2142882 0.7068796 0.5732828 0.3725463
-30.79125 -0.1149571 31.01237 -0.6740667 -0.2143325 0.7068916 0.5757757 0.3725368
30.79123 -1.085959 27.07264 0.6583557 -0.6693819 -0.344232 0.06203932 0.6747023
30.79123 -0.1149606 26.38113 0.6740665 -0.2143334 -0.7068915 0.06695426 0.6816038
30.79123 0.1149531 26.38113 0.6740934 0.214289 -0.7068794 0.06695426 0.6832379
30.79123 1.085952 27.07264 0.6583873 0.669376 -0.344183 0.06203932 0.6901395
30.79123 1.08595 30.32088 0.6583545 0.6693825 0.3442332 0.03895211 0.6901395
30.79123 -1.08596 30.32088 0.6583858 -0.669377 0.3441842 0.03895211 0.6747023
10.96471 3.018102 31.39369 0.1574645 0.8688418 0.4693814 0.5523814 0.669234
1.222282 5.297847 31.39416 0.1003523 0.8886866 0.4473988 0.5365651 0.6000691
-10.96472 3.018103 25.99981 -0.1574644 0.8688417 -0.4693815 0.4625824 0.6692341
-10.96472 -3.018106 25.99981 -0.1575944 -0.8688812 -0.4692649 0.5086453 0.6690937
-30.79125 -1.085956 27.07263 -0.6583874 -0.6693758 -0.3441832 0.495924 0.8105063
-10.96471 3.018103 31.39369 -0.1575943 0.8688813 0.4692646 0.5520847 0.5136023
-30.79125 1.085954 30.32087 -0.6583871 0.6693756 0.3441842 0.564806 0.37219
10.96471 3.018102 25.99981 0.1575945 0.8688817 -0.469264 0.4622857 0.5136024
30.79123 1.085952 27.07264 0.6583873 0.669376 -0.344183 0.4750071 0.37219
10.96471 -3.018108 31.39369 0.1575943 -0.8688815 0.4692645 0.5984444 0.6690935
30.79123 -1.08596 30.32088 0.6583858 -0.669377 0.3441842 0.5857232 0.8105063
30.79124 -0.1149608 31.01238 0.6740937 -0.2142887 0.7068791 0.5772463 0.81015
1.222284 5.297847 25.99934 0.1002364 0.8887322 -0.4473342 0.446766 0.5826313
1.222282 -5.297853 31.39416 0.1002364 -0.8887318 0.4473349 0.613964 0.6000646
-10.96471 -3.018107 31.39369 -0.1574646 -0.8688418 0.4693813 0.5981476 0.5134618
30.79123 -1.085959 27.07264 0.6583557 -0.6693819 -0.344232 0.4944608 0.37211
10.96471 -3.018107 25.99981 0.1574645 -0.8688421 -0.4693809 0.5083486 0.5134619
30.79123 1.08595 30.32088 0.6583545 0.6693825 0.3442332 0.5662694 0.8105864
30.79124 0.1149511 31.01238 0.6740672 0.2143331 0.7068909 0.5747535 0.8101594
-1.222296 -5.297853 25.99934 -0.1002365 -0.8887318 -0.447335 0.6771084 0.6021876
-1.222296 -5.297853 31.39416 -0.1003524 -0.8886866 0.4473987 0.7154527 0.6021876
-1.222294 5.297847 31.39416 -0.1002364 0.8887318 0.447335 0.6647083 0.5848125
-1.222294 5.297847 25.99934 -0.1003521 0.8886864 -0.4473992 0.626364 0.5848125
-30.79125 1.085954 27.07263 -0.6583557 0.6693819 -0.3442321 0.4764703 0.8105863
-30.79125 -1.085956 30.32087 -0.6583558 -0.6693814 0.3442328 0.5842597 0.37211
1.222284 -5.297853 25.99934 0.1003524 -0.8886865 -0.4473989 0.524165 0.5826269
11.62421 -3.013255e-06 31.14956 0.9991791 0.0003945118 0.04050923 0.9933892 0.3597099
9.641639 -6.87272e-06 77.45705 0.9986064 -0.0005161437 0.05277218 0.6643354 0.3444744
-1.594521e-05 -1.308192e-05 170.072 -3.082084e-06 7.251962e-07 1 0.00620003 0.08909899
7.016379 -9.814538e-06 123.7646 0.9941556 -0.001337249 0.1079488 0.3355211 0.03873755
-7.016403 -9.355709e-06 123.7646 -0.9941556 0.001337226 0.1079486 0.3352745 0.1410459
-9.641663 -5.955069e-06 77.45705 -0.9986064 0.0005159932 0.0527721 0.6646768 0.2028047
-11.62423 -2.095606e-06 31.14956 -0.9991791 -0.0003941983 0.04050904 0.9938 0.1891551
3 0 1 2 
3 0 2 3 
3 3 2 4 
3 3 4 5 
3 5 4 6 
3 5 6 7 
3 7 6 8 
3 7 8 9 
3 9 8 10 
3 9 10 11 
3 11 10 12 
3 11 12 13 
3 13 12 14 
3 13 14 15 
3 15 14 16 
3 15 16 17 
3 17 16 18 
3 17 18 19 
3 277 278 20 
3 277 20 21 
3 21 20 22 
3 21 22 23 
3 23 22 24 
3 23 24 25 
3 25 24 26 
3 25 26 27 
3 27 26 28 
3 27 28 29 
3 29 28 30 
3 29 30 31 
3 31 30 32 
3 31 32 33 
3 34 35 36 
3 34 36 37 
3 33 32 38 
3 33 38 39 
3 39 38 279 
3 39 279 280 
3 40 41 42 
3 40 42 43 
3 35 44 45 
3 35 45 36 
3 44 39 280 
3 44 280 45 
3 46 47 35 
3 46 35 34 
3 47 48 44 
3 47 44 35 
3 48 33 39 
3 48 39 44 
3 49 50 47 
3 49 47 46 
3 50 51 48 
3 50 48 47 
3 51 31 33 
3 51 33 48 
3 52 53 50 
3 52 50 49 
3 53 54 51 
3 53 51 50 
3 54 29 31 
3 54 31 51 
3 55 56 53 
3 55 53 52 
3 56 57 54 
3 56 54 53 
3 57 27 29 
3 57 29 54 
3 58 59 56 
3 58 56 55 
3 59 60 57 
3 59 57 56 
3 60 25 27 
3 60 27 57 
3 41 61 59 
3 41 59 58 
3 61 62 60 
3 61 60 59 
3 62 23 25 
3 62 25 60 
3 40 63 61 
3 40 61 41 
3 63 64 62 
3 63 62 61 
3 64 21 23 
3 64 23 62 
3 65 66 63 
3 65 63 40 
3 66 67 64 
3 66 64 63 
3 67 277 21 
3 67 21 64 
3 68 69 281 
3 68 281 282 
3 69 70 283 
3 69 283 281 
3 70 17 19 
3 70 19 283 
3 71 72 69 
3 71 69 68 
3 72 73 70 
3 72 70 69 
3 73 15 17 
3 73 17 70 
3 74 75 72 
3 74 72 71 
3 75 76 73 
3 75 73 72 
3 76 13 15 
3 76 15 73 
3 77 78 75 
3 77 75 74 
3 78 79 76 
3 78 76 75 
3 79 11 13 
3 79 13 76 
3 80 81 78 
3 80 78 77 
3 81 82 79 
3 81 79 78 
3 82 9 11 
3 82 11 79 
3 83 84 81 
3 83 81 80 
3 84 85 82 
3 84 82 81 
3 85 7 9 
3 85 9 82 
3 86 87 84 
3 86 84 83 
3 87 88 85 
3 87 85 84 
3 88 5 7 
3 88 7 85 
3 89 90 87 
3 89 87 86 
3 90 91 88 
3 90 88 87 
3 91 3 5 
3 91 5 88 
3 284 285 90 
3 284 90 89 
3 285 286 91 
3 285 91 90 
3 286 0 3 
3 286 3 91 
3 92 93 94 
3 92 94 95 
3 49 46 96 
3 49 96 97 
3 83 80 98 
3 83 98 99 
3 68 282 100 
3 68 100 101 
3 55 52 102 
3 55 102 103 
3 89 86 104 
3 89 104 105 
3 74 71 106 
3 74 106 107 
3 41 58 108 
3 41 108 42 
3 46 34 92 
3 46 92 96 
3 80 77 109 
3 80 109 98 
3 65 40 43 
3 65 43 287 
3 52 49 97 
3 52 97 102 
3 86 83 99 
3 86 99 104 
3 71 68 101 
3 71 101 106 
3 284 89 105 
3 284 105 288 
3 58 55 103 
3 58 103 108 
3 34 37 93 
3 34 93 92 
3 77 74 107 
3 77 107 109 
3 110 111 112 
3 110 112 113 
3 43 42 114 
3 43 114 115 
3 99 98 116 
3 99 116 117 
3 42 108 118 
3 42 118 114 
3 98 109 119 
3 98 119 116 
3 108 103 120 
3 108 120 118 
3 109 107 121 
3 109 121 119 
3 103 102 122 
3 103 122 120 
3 107 106 123 
3 107 123 121 
3 102 97 124 
3 102 124 122 
3 106 101 125 
3 106 125 123 
3 288 105 126 
3 288 126 289 
3 97 96 127 
3 97 127 124 
3 101 100 128 
3 101 128 125 
3 105 104 129 
3 105 129 126 
3 96 92 95 
3 96 95 127 
3 287 43 115 
3 287 115 290 
3 104 99 117 
3 104 117 129 
3 112 130 131 
3 112 131 132 
3 133 134 135 
3 133 135 136 
3 111 137 130 
3 111 130 112 
3 134 138 139 
3 134 139 135 
3 137 140 141 
3 137 141 130 
3 138 142 143 
3 138 143 139 
3 140 144 145 
3 140 145 141 
3 142 146 147 
3 142 147 143 
3 148 149 150 
3 148 150 151 
3 144 152 153 
3 144 153 145 
3 146 154 155 
3 146 155 147 
3 149 156 157 
3 149 157 150 
3 152 158 159 
3 152 159 153 
3 291 160 161 
3 291 161 292 
3 156 162 163 
3 156 163 157 
3 158 293 294 
3 158 294 159 
3 160 110 113 
3 160 113 161 
3 162 133 136 
3 162 136 163 
3 131 164 165 
3 131 165 166 
3 135 139 167 
3 135 167 168 
3 130 141 164 
3 130 164 131 
3 139 143 169 
3 139 169 167 
3 141 145 170 
3 141 170 164 
3 143 147 171 
3 143 171 169 
3 151 150 172 
3 151 172 173 
3 145 153 174 
3 145 174 170 
3 147 155 175 
3 147 175 171 
3 150 157 176 
3 150 176 172 
3 153 159 177 
3 153 177 174 
3 292 161 178 
3 292 178 295 
3 157 163 179 
3 157 179 176 
3 159 294 296 
3 159 296 177 
3 161 113 180 
3 161 180 178 
3 163 136 181 
3 163 181 179 
3 113 112 132 
3 113 132 180 
3 136 135 168 
3 136 168 181 
3 165 182 183 
3 165 183 184 
3 167 169 185 
3 167 185 186 
3 164 170 182 
3 164 182 165 
3 169 171 187 
3 169 187 185 
3 173 172 188 
3 173 188 189 
3 170 174 190 
3 170 190 182 
3 171 175 191 
3 171 191 187 
3 172 176 192 
3 172 192 188 
3 174 177 193 
3 174 193 190 
3 295 178 194 
3 295 194 297 
3 176 179 195 
3 176 195 192 
3 177 296 298 
3 177 298 193 
3 178 180 196 
3 178 196 194 
3 179 181 197 
3 179 197 195 
3 180 132 198 
3 180 198 196 
3 181 168 199 
3 181 199 197 
3 132 131 166 
3 132 166 198 
3 168 167 186 
3 168 186 199 
3 200 201 202 
3 200 202 203 
3 200 203 204 
3 200 204 205 
3 200 205 206 
3 200 206 207 
3 200 207 208 
3 200 208 209 
3 200 209 210 
3 200 210 211 
3 200 211 212 
3 200 212 213 
3 200 213 299 
3 200 299 300 
3 200 300 214 
3 200 214 215 
3 185 187 208 
3 185 208 207 
3 189 188 201 
3 189 201 200 
3 182 190 301 
3 182 301 183 
3 187 191 209 
3 187 209 208 
3 188 192 202 
3 188 202 201 
3 190 193 302 
3 190 302 301 
3 297 194 303 
3 297 303 304 
3 192 195 203 
3 192 203 202 
3 193 298 305 
3 193 305 302 
3 194 196 306 
3 194 306 303 
3 195 197 204 
3 195 204 203 
3 196 198 307 
3 196 307 306 
3 197 199 205 
3 197 205 204 
3 198 166 308 
3 198 308 307 
3 199 186 206 
3 199 206 205 
3 166 165 184 
3 166 184 308 
3 186 185 207 
3 186 207 206 
3 117 116 133 
3 117 133 162 
3 115 114 110 
3 115 110 160 
3 95 94 293 
3 95 293 158 
3 129 117 162 
3 129 162 156 
3 290 115 160 
3 290 160 291 
3 127 95 158 
3 127 158 152 
3 126 129 156 
3 126 156 149 
3 125 128 154 
3 125 154 146 
3 124 127 152 
3 124 152 144 
3 289 126 149 
3 289 149 148 
3 123 125 146 
3 123 146 142 
3 122 124 144 
3 122 144 140 
3 121 123 142 
3 121 142 138 
3 120 122 140 
3 120 140 137 
3 119 121 138 
3 119 138 134 
3 118 120 137 
3 118 137 111 
3 116 119 134 
3 116 134 133 
3 114 118 111 
3 114 111 110 
3 216 217 218 
3 216 218 219 
3 220 221 222 
3 220 222 223 
3 224 225 226 
3 224 226 227 
3 228 229 230 
3 228 230 231 
3 309 232 233 
3 309 233 310 
3 309 310 311 
3 309 311 312 
3 309 312 313 
3 309 313 314 
3 234 235 236 
3 234 236 237 
3 237 236 238 
3 237 238 239 
3 240 241 242 
3 240 242 243 
3 244 245 229 
3 244 229 228 
3 246 247 248 
3 246 248 249 
3 250 251 241 
3 250 241 240 
3 249 248 315 
3 249 315 316 
3 317 318 319 
3 317 319 320 
3 317 320 321 
3 317 321 252 
3 317 252 253 
3 317 253 322 
3 323 324 254 
3 323 254 255 
3 227 226 256 
3 227 256 257 
3 258 255 254 
3 258 254 259 
3 325 260 256 
3 325 256 226 
3 326 327 224 
3 326 224 227 
3 328 329 315 
3 328 315 248 
3 330 331 230 
3 330 230 229 
3 332 333 334 
3 332 334 258 
3 261 326 227 
3 261 227 257 
3 262 328 248 
3 262 248 247 
3 335 330 229 
3 335 229 245 
3 336 332 258 
3 336 258 259 
3 337 263 246 
3 337 246 249 
3 338 339 228 
3 338 228 231 
3 340 323 255 
3 340 255 341 
3 342 343 217 
3 342 217 216 
3 344 345 221 
3 344 221 220 
3 346 325 226 
3 346 226 225 
3 347 337 249 
3 347 249 316 
3 334 341 255 
3 334 255 258 
3 261 257 244 
3 261 244 348 
3 262 247 254 
3 262 254 324 
3 335 245 256 
3 335 256 260 
3 336 259 246 
3 336 246 263 
3 257 256 245 
3 257 245 244 
3 343 342 243 
3 343 243 242 
3 345 344 239 
3 345 239 238 
3 247 246 259 
3 247 259 254 
3 339 348 244 
3 339 244 228 
3 264 265 266 
3 267 268 269 
3 267 269 270 
3 271 272 268 
3 271 268 267 
3 273 265 264 
3 349 350 274 
3 349 274 275 
3 350 273 264 
3 350 264 274 
3 351 352 276 
3 352 271 267 
3 352 267 276 
3 351 276 353 
3 276 267 270 
3 276 270 353 
3 275 274 354 
3 275 354 355 
3 274 264 266 
3 274 266 354 
