ply
format ascii 1.0
comment VCGLIB generated
comment TextureFile mf_potion_01.png
element vertex 356
property float x
property float y
property float z
property float nx
property float ny
property float nz
property float texture_u
property float texture_v
element face 438
property list uchar int vertex_indices
end_header
1.945364e-06 -2.211396e-06 -13.89945 4.071952e-07 -0.9336835 -0.3580994 0.4682262 0.2848965
1.155078e-06 4.155853 -19.13096 3.626795e-07 -0.6624829 -0.749077 0.405621 0.2863046
5.911791 4.155849 -18.19462 0.2314779 -0.6624833 -0.7124141 0.404725 0.2387882
4.295169 -2.241132e-06 -13.21916 0.110659 -0.9336833 -0.340573 0.4693166 0.2382642
8.027083e-07 15.19743 -23.64717 5.690609e-07 -3.619027e-07 -1 0.3223495 0.2891602
1.945364e-06 21.00234 -22.48978 2.106217e-07 0.3187692 -0.9478324 0.2853492 0.2909728
6.949727 21.00234 -21.38906 0.2928967 0.3187686 -0.9014422 0.2811377 0.2460285
7.307375 15.19744 -22.48978 0.3090175 -3.843653e-07 -0.9510564 0.3190173 0.2425488
1.945364e-06 9.392535 -22.48978 5.620401e-07 -0.3679473 -0.9298467 0.3604495 0.2877227
6.949726 9.392533 -21.38906 0.2873385 -0.3679468 -0.8843369 0.3581714 0.2402644
4.779359 49.95724 -6.578222 0.4834228 -0.5688403 -0.6653745 0.9678499 0.6552148
2.512658 49.95724 -7.733164 0.2541509 -0.5688403 -0.7821943 0.9678499 0.6351333
2.892443 49.95724 -8.902023 0.2617003 -0.5317885 -0.8054279 0.9774318 0.6336157
5.501753 49.95724 -7.572512 0.4977822 -0.5317884 -0.685138 0.9774318 0.6567324
7.733165 49.95724 -2.512658 0.7821944 -0.5688404 -0.2541507 0.9498408 0.6905596
6.578223 49.95724 -4.779358 0.6653744 -0.5688403 -0.4834229 0.9616443 0.6743134
7.572512 49.95724 -5.501751 0.685138 -0.5317886 -0.4977819 0.9702883 0.6787177
8.902023 49.95724 -2.892442 0.8054281 -0.5317884 -0.2616996 0.9567007 0.6974196
11.24489 4.155855 -15.47727 0.4402964 -0.6624829 -0.606016 0.4041257 0.1894753
8.169895 -2.32743e-06 -11.24489 0.2104858 -0.9336833 -0.289709 0.4710553 0.1904161
13.21916 21.00234 -18.19462 0.5571222 0.3187684 -0.7668126 0.2741161 0.1995452
13.89945 15.19744 -19.13095 0.5877853 -1.347775e-07 -0.809017 0.3138894 0.1941231
13.21916 9.392535 -18.19462 0.5465504 -0.367947 -0.7522618 0.3551789 0.1908611
18.19462 21.00234 -13.21916 0.7668126 0.3187685 -0.5571222 0.2636664 0.1504923
21.38906 21.00234 -6.949728 0.9014423 0.3187685 -0.2928965 0.2482069 0.09751824
15.47727 4.155852 -11.2449 0.6060159 -0.662483 -0.4402966 0.4043922 0.1373224
11.24489 -2.461843e-06 -8.169892 0.2897088 -0.9336833 -0.2104857 0.4741675 0.1414336
19.13095 15.19743 -13.89945 0.8090169 -2.445962e-07 -0.5877854 0.3065784 0.1424009
18.19462 9.392535 -13.21916 0.7522618 -0.3679469 -0.5465504 0.3515475 0.1379837
6.334815e-07 49.95724 8.131128 -8.844103e-08 -0.56884 0.8224482 0.8472661 0.6743134
2.512658 49.95724 7.733165 0.2541501 -0.5688404 0.7821946 0.8590696 0.6905596
2.892443 49.95724 8.90202 0.2616992 -0.5317885 0.8054282 0.8522097 0.6974196
6.176085e-07 49.95724 9.360138 9.46408e-08 -0.5317885 0.8468772 0.838622 0.6787177
21.38906 9.392532 -6.949725 0.8843367 -0.3679472 -0.2873386 0.3476012 0.07896718
18.19462 4.155852 -5.91179 0.7124145 -0.662483 -0.2314776 0.4070199 0.08054861
8.131132 49.95724 -6.352598e-07 0.8224479 -0.5688404 1.68459e-08 0.008066603 0.2142253
22.48979 21.00234 -4.914385e-07 0.9478325 0.3187687 -1.640889e-07 0.2244509 0.03947746
13.21917 -2.631212e-06 -4.295167 0.3405731 -0.9336833 -0.110659 0.480242 0.09147851
22.48979 15.19743 -7.307375 0.9510564 -2.745467e-07 -0.3090173 0.2961852 0.08498804
4.779359 49.95724 6.578223 0.483423 -0.5688404 0.6653743 0.8753158 0.7023632
6.578224 49.95724 4.779357 0.6653746 -0.5688404 0.4834225 0.8944144 0.7085687
7.572515 49.95724 5.501753 0.6851382 -0.5317885 0.4977819 0.8928968 0.7181507
5.501753 49.95724 7.572513 0.4977816 -0.5317884 0.6851383 0.8709115 0.7110072
7.733166 49.95724 2.512657 0.7821946 -0.5688401 0.2541504 0.5332447 0.3893267
21.38906 21.00234 6.949727 0.9014423 0.3187685 0.2928964 0.7770466 0.4818224
22.48978 9.392532 4.105606e-07 0.9298466 -0.3679473 -3.47398e-08 0.3444585 0.008066603
19.13096 4.155852 -2.637302e-06 0.749077 -0.662483 -1.64186e-07 0.4158165 0.01564682
-7.733164 49.95724 2.512657 -0.7821948 -0.56884 0.2541503 0.8590696 0.5997885
-6.578223 49.95724 4.77936 -0.6653743 -0.5688404 0.4834228 0.847266 0.6160348
-7.572513 49.95724 5.501753 -0.6851383 -0.5317883 0.4977819 0.8386219 0.6116304
-8.902021 49.95724 2.892441 -0.8054282 -0.5317885 0.2616991 0.8522096 0.5929286
13.89945 -2.81896e-06 -1.232206e-13 0.3580998 -0.9336833 -8.473238e-08 0.4921713 0.04122536
23.64717 15.19743 -7.45179e-07 1 -2.021663e-07 -1.534966e-07 0.2806575 0.0170176
22.48979 15.19743 7.307373 0.9510565 -3.094891e-07 0.3090171 0.8239751 0.485499
21.38906 9.392532 6.949726 0.8843367 -0.3679472 0.2873384 0.8705457 0.4830334
18.19462 21.00234 13.21916 0.7668129 0.3187686 0.5571218 0.783093 0.4292099
18.19462 4.155851 5.91179 0.7124144 -0.6624831 0.2314775 0.9205364 0.4740029
-6.578221 49.95724 -4.77936 -0.6653744 -0.5688402 -0.4834231 0.9144958 0.5817794
-7.733164 49.95724 -2.512659 -0.7821944 -0.5688403 -0.2541507 0.8944144 0.5817794
-8.902021 49.95724 -2.892444 -0.8054281 -0.5317884 -0.2616995 0.8928968 0.5721974
-7.572511 49.95724 -5.501753 -0.6851382 -0.5317885 -0.4977818 0.9160135 0.5721974
13.21917 -3.006708e-06 4.295167 0.3405733 -0.9336833 0.1106588 0.9781906 0.4581185
19.13096 15.19743 13.89945 0.8090171 -3.144808e-07 0.5877851 0.8244435 0.4313621
18.19462 9.392531 13.21916 0.7522617 -0.3679473 0.5465502 0.8659978 0.4303737
13.21917 21.00234 18.19462 0.5571222 0.3187687 0.7668125 0.786127 0.381283
15.47727 4.155851 11.24489 0.606016 -0.662483 0.4402963 0.9126663 0.4258176
11.2449 -3.176077e-06 8.169892 0.2897089 -0.9336833 0.2104857 0.971168 0.4171003
11.2449 4.155851 15.47727 0.4402964 -0.6624829 0.606016 0.9087137 0.3791542
8.169896 -3.31049e-06 11.2449 0.2104861 -0.9336832 0.289709 0.9682692 0.3744841
13.89946 15.19744 19.13096 0.5877854 -4.442666e-07 0.8090169 0.8246017 0.3821946
13.21916 9.392531 18.19462 0.5465501 -0.3679475 0.7522618 0.8636423 0.3816026
6.949728 21.00234 21.38906 0.2928963 0.3187686 0.9014424 0.7868167 0.335739
-2.512657 49.95724 7.733165 -0.2541503 -0.5688404 0.7821945 0.8410605 0.6552148
-2.892442 49.95724 8.90202 -0.2616992 -0.5317885 0.8054281 0.8314785 0.6567325
1.507448e-06 21.00234 22.48979 1.004126e-07 0.3187687 0.9478325 0.7851666 0.2911507
5.911793 4.155851 18.19462 0.2314777 -0.6624829 0.7124146 0.9066907 0.3329752
4.295169 -3.396788e-06 13.21917 0.1106589 -0.9336833 0.3405733 0.967657 0.3304506
7.30738 15.19744 22.48979 0.3090171 -6.988463e-07 0.9510565 0.8239793 0.3353887
6.949727 9.392531 21.38905 0.2873385 -0.3679475 0.8843367 0.8620135 0.3345735
2.076428e-06 49.95724 -8.131134 7.243735e-07 -0.5688407 -0.8224477 0.9616443 0.6160347
-2.512656 49.95724 -7.733168 -0.2541507 -0.5688403 -0.7821945 0.9498407 0.5997885
-2.892441 49.95724 -8.902026 -0.2616997 -0.5317883 -0.8054281 0.9567007 0.5929285
2.278654e-06 49.95724 -9.360145 3.920835e-07 -0.5317882 -0.8468774 0.9702884 0.6116303
2.212188e-06 9.392531 22.48978 7.444243e-08 -0.3679476 0.9298465 0.8602833 0.2878827
2.212188e-06 4.155851 19.13095 -8.821931e-08 -0.662483 0.749077 0.90549 0.2864582
-6.949726 21.00234 21.38906 -0.2928963 0.3187688 0.9014423 0.7809262 0.2462198
8.027083e-07 -3.426524e-06 13.89946 1.399734e-08 -0.9336832 0.3581001 0.968174 0.2850492
3.621668e-06 15.19744 23.64717 4.193078e-07 -3.419355e-07 1 0.8221676 0.2893281
9.36014 49.95724 -6.352598e-07 0.8468773 -0.5317885 -6.760057e-09 0.9379989 0.7110072
-7.307373 15.19744 22.48979 -0.3090171 -7.862023e-07 0.9510565 0.8188121 0.2427053
-6.949723 9.392531 21.38905 -0.2873385 -0.3679478 0.8843365 0.8579884 0.2403928
-4.779358 49.95724 6.578223 -0.4834227 -0.56884 0.6653747 0.5371175 0.2698945
-13.21917 21.00234 18.19462 -0.5571222 0.3187685 0.7668126 0.7738445 0.1997653
-5.911789 4.155851 18.19462 -0.2314775 -0.6624829 0.7124146 0.904584 0.2388912
-4.779357 49.95724 -6.578224 -0.4834231 -0.5688403 -0.6653742 0.9335945 0.5879849
-5.501751 49.95724 -7.572515 -0.4977823 -0.5317886 -0.6851378 0.9379988 0.5793408
-4.295167 -3.396788e-06 13.21917 -0.110659 -0.9336833 0.3405733 0.9692659 0.2383403
-13.89945 15.19744 19.13096 -0.5877854 -5.141512e-07 0.8090169 0.8136369 0.1942576
-13.21916 9.392531 18.19462 -0.54655 -0.3679473 0.7522619 0.8549592 0.1909452
-18.19462 21.00234 13.21916 -0.7668127 0.3187686 0.5571221 0.7632541 0.1505634
-11.24489 4.155851 15.47727 -0.4402964 -0.662483 0.606016 0.9039557 0.1895173
-5.501752 49.95724 7.572513 -0.4977818 -0.5317882 0.6851384 0.8314785 0.6336158
-8.169895 -3.31049e-06 11.2449 -0.2104859 -0.9336832 0.2897092 0.9709818 0.1904073
-19.13095 15.19743 13.89946 -0.8090169 -3.893572e-07 0.5877853 0.8062534 0.1424347
-18.19462 9.392531 13.21916 -0.7522617 -0.3679474 0.5465502 0.8512747 0.1379911
-21.38906 21.00234 6.949727 -0.9014424 0.3187685 0.2928964 0.747816 0.09726233
-15.47727 4.155851 11.24489 -0.6060159 -0.662483 0.4402965 0.9041765 0.1372918
-8.13113 49.95724 -6.352598e-07 -0.822448 -0.5688404 -2.105738e-08 0.8753158 0.587985
-9.360139 49.95724 -6.352598e-07 -0.8468772 -0.5317885 3.943368e-08 0.8709114 0.5793409
-11.2449 -3.176077e-06 8.169896 -0.289709 -0.9336833 0.2104859 0.9740479 0.1413406
-18.19462 4.155851 5.91179 -0.7124146 -0.6624829 0.2314776 0.9067494 0.08045437
-13.21917 -3.006708e-06 4.295167 -0.3405733 -0.9336833 0.1106589 0.9800641 0.09131395
-22.48979 15.19744 7.307376 -0.9510565 -3.594067e-07 0.3090171 0.7958384 0.08490667
-21.38906 9.392532 6.949723 -0.8843368 -0.3679472 0.2873384 0.8472816 0.07890926
-22.48979 21.00234 -1.900919e-06 -0.9478326 0.3187685 -5.387995e-08 0.7243685 0.03972604
-22.48978 9.392532 -2.408399e-06 -0.9298467 -0.3679473 -1.985131e-07 0.8440725 0.008066603
-19.13096 4.155852 -2.637302e-06 -0.749077 -0.6624829 -1.249774e-07 0.9154692 0.0155152
-21.38906 21.00234 -6.949728 -0.9014423 0.3187686 -0.2928965 0.2772422 0.4816424
-13.89946 -2.81896e-06 -1.232206e-13 -0.3580998 -0.9336833 -7.836996e-08 0.9919332 0.04100059
-23.64716 15.19743 6.64301e-07 -1 -4.842007e-07 8.485991e-08 0.7803442 0.01715807
8.902023 49.95724 2.892441 0.8054282 -0.5317886 0.2616991 0.9160135 0.7181507
-18.19462 21.00234 -13.21917 -0.7668127 0.3187687 -0.5571221 0.2833035 0.4289929
-21.38905 9.392532 -6.949727 -0.8843367 -0.3679473 -0.2873386 0.370781 0.4828081
-18.19462 4.155852 -5.911793 -0.7124147 -0.6624829 -0.2314777 0.4207626 0.4737355
-13.21917 -2.631212e-06 -4.29517 -0.3405733 -0.9336833 -0.110659 0.4783837 0.4577944
-22.48979 15.19744 -7.307375 -0.9510565 -4.941842e-07 -0.309017 0.3242002 0.4853043
-19.13096 15.19744 -13.89945 -0.8090171 -4.517542e-07 -0.5877851 0.3246533 0.4311475
-18.19461 9.392533 -13.21916 -0.7522618 -0.3679472 -0.5465501 0.3662013 0.4301462
-13.21916 21.00234 -18.19463 -0.5571221 0.3187685 -0.7668127 0.2863752 0.3810632
-15.47727 4.155852 -11.2449 -0.6060162 -0.6624829 -0.4402964 0.4128531 0.4255645
-11.24489 -2.461842e-06 -8.169899 -0.2897089 -0.9336833 -0.2104857 0.4713168 0.4168007
-13.89945 15.19744 -19.13096 -0.5877855 -3.843654e-07 -0.8090168 0.3248074 0.3819847
-13.21916 9.392533 -18.19462 -0.5465504 -0.3679472 -0.7522616 0.3638267 0.3813877
-6.949722 21.00234 -21.38906 -0.2928959 0.3187687 -0.9014425 0.286989 0.3355824
-11.24489 4.155849 -15.47727 -0.4402968 -0.6624829 -0.6060159 0.408872 0.378924
-8.169894 -5.14639e-06 -11.2449 -0.2104857 -0.9336835 -0.2897083 0.4683771 0.3742189
-5.91179 4.155849 -18.19463 -0.2314773 -0.6624829 -0.7124146 0.4068291 0.3327793
-4.295166 -2.241132e-06 -13.21917 -0.1106585 -0.9336832 -0.3405738 0.4677306 0.3302342
-7.307375 15.19743 -22.48979 -0.3090171 -1.397693e-07 -0.9510565 0.324162 0.3352082
-6.94972 9.392533 -21.38906 -0.2873381 -0.3679473 -0.8843368 0.3621823 0.3343856
1.99552 57.55934 -6.141575 0.3004287 0.2341339 -0.924621 0.2175673 0.7605852
1.821717e-06 57.55934 -6.45764 7.479425e-07 0.2341342 -0.9722043 0.1949424 0.7417923
1.741508e-06 65.16145 -5.681193 1.98473e-07 0.710199 -0.704001 0.2640326 0.6617509
1.755586 65.16145 -5.403137 0.2175484 0.7101987 -0.6695451 0.2819762 0.6764017
-6.457635 57.55934 -3.029614e-07 -0.9722044 0.2341338 1.123108e-07 0.6033862 0.8448803
-6.141575 57.55934 1.995519 -0.9246214 0.2341338 0.3004274 0.5770633 0.8509619
-5.403135 65.16145 1.755583 -0.6695448 0.7101991 0.2175478 0.5648934 0.7508687
-5.681193 65.16145 -2.789623e-06 -0.7040011 0.7101988 -9.755456e-08 0.5874548 0.7476535
-1.995519 57.55934 6.141574 -0.3004281 0.2341338 0.9246212 0.4920721 0.8583227
6.757485e-07 57.55934 6.457636 2.867511e-08 0.2341337 0.9722044 0.4628149 0.8568917
7.33327e-07 65.16145 5.681194 -9.419061e-08 0.7101989 0.7040011 0.4731378 0.7521549
-1.755585 65.16145 5.403137 -0.2175483 0.7101987 0.6695451 0.4961473 0.7537697
5.224338 57.55934 3.795704 0.7865298 0.234134 0.5714476 0.3755397 0.8409266
6.141577 57.55934 1.995519 0.9246214 0.2341339 0.3004274 0.3472009 0.8318247
5.403136 65.16145 1.755583 0.6695448 0.7101991 0.2175482 0.3831265 0.7318337
4.596183 65.16145 3.33932 0.5695491 0.7101989 0.4138013 0.4051342 0.7389976
5.224337 57.55934 -3.795702 0.7865298 0.2341338 -0.5714474 0.2664917 0.7939234
3.795704 57.55934 -5.224337 0.5714475 0.2341338 -0.7865298 0.2414582 0.7780006
3.339322 65.16145 -4.596182 0.4138019 0.7101989 -0.5695486 0.300765 0.6899478
4.596182 65.16145 -3.33932 0.5695488 0.710199 -0.4138013 0.320344 0.7023197
-1.995518 57.55934 -6.141578 -0.3004279 0.234134 -0.9246212 0.1737112 0.7217588
-1.755584 65.16145 -5.403137 -0.2175484 0.7101989 -0.6695448 0.2469745 0.6460766
-6.141575 57.55934 -1.995521 -0.9246213 0.2341338 -0.3004278 0.1197931 0.6560711
-5.403135 65.16145 -1.755586 -0.6695449 0.7101988 -0.2175485 0.2011735 0.5939471
-3.795703 57.55934 5.224336 -0.571447 0.2341337 0.7865303 0.5210547 0.857789
-3.339321 65.16145 4.596182 -0.4138013 0.710199 0.5695489 0.5191684 0.7540458
3.795704 57.55934 5.224336 0.5714471 0.2341339 0.7865301 0.4043628 0.8481662
3.339323 65.16145 4.596182 0.4138018 0.7101988 0.5695488 0.4275348 0.7447782
6.141577 57.55934 -1.99552 0.9246213 0.2341339 -0.3004278 0.2925442 0.8082557
5.403136 65.16145 -1.755586 0.6695448 0.7101988 -0.2175486 0.3406479 0.713457
-5.224336 57.55934 -3.795705 -0.78653 0.2341338 -0.5714473 0.1359799 0.6786706
-4.59618 65.16145 -3.339323 -0.5695487 0.7101989 -0.4138016 0.2155697 0.612051
-5.224337 57.55934 3.795704 -0.7865298 0.2341338 0.5714474 0.5494927 0.8553141
-4.596182 65.16145 3.339323 -0.5695491 0.7101986 0.4138015 0.5421106 0.7530467
1.99552 57.55934 6.141574 0.3004281 0.2341336 0.9246212 0.4335124 0.8534991
1.755586 65.16145 5.403137 0.2175486 0.7101988 0.669545 0.4502347 0.7491635
6.457635 57.55934 -3.029614e-07 0.9722044 0.2341338 -1.911674e-08 0.3194903 0.8209136
5.681194 65.16145 2.93373e-08 0.7040012 0.7101988 -3.363951e-09 0.3616024 0.7233092
-3.795702 57.55934 -5.224339 -0.5714474 0.234134 -0.7865298 0.154008 0.7006505
-3.339321 65.16145 -4.596182 -0.4138014 0.710199 -0.5695488 0.2308222 0.6294726
3.753911 65.16145 1.219719 0.8260009 0.495674 0.2683837 0.8887974 0.6716765
3.193268 65.16145 2.320044 0.7026383 0.495674 0.5104966 0.8980685 0.6746889
-3.193267 65.16145 2.320044 -0.7026384 0.495674 0.5104963 0.9337162 0.6390411
-3.75391 65.16145 1.219719 -0.8260009 0.495674 0.2683836 0.9307039 0.62977
1.429977e-06 65.16145 -3.947096 1.500065e-07 0.4956743 -0.8685085 0.880911 0.6218837
1.21972 65.16145 -3.75391 0.2683846 0.495674 -0.8260007 0.8751812 0.6297701
3.947095 65.16145 2.93373e-08 0.8685087 0.495674 9.67784e-08 0.880911 0.6659467
-2.320044 65.16145 3.193267 -0.5104965 0.4956742 0.7026382 0.9337162 0.6487893
-1.219718 65.16145 -3.75391 -0.2683844 0.4956737 -0.8260009 0.8887974 0.6161539
3.753911 65.16145 -1.219722 0.8260006 0.4956743 -0.2683842 0.8751812 0.6580603
-1.219719 65.16145 3.75391 -0.2683834 0.4956741 0.826001 0.9307039 0.6580603
-2.320044 65.16145 -3.193267 -0.5104964 0.4956738 -0.7026385 0.8980685 0.6131415
3.193268 65.16145 -2.320043 0.7026381 0.495674 -0.5104969 0.8721689 0.6487893
7.295273e-07 65.16145 3.947094 1.004076e-07 0.4956738 0.8685088 0.924974 0.6659467
-3.193266 65.16145 -2.320046 -0.702638 0.4956741 -0.510497 0.9078166 0.6131415
2.320045 65.16145 -3.193267 0.5104967 0.495674 -0.7026381 0.8721688 0.6390411
1.21972 65.16145 3.75391 0.2683834 0.4956743 0.8260009 0.9170876 0.6716765
-3.75391 65.16145 -1.219722 -0.8260008 0.495674 -0.268384 0.9170876 0.6161538
2.320045 65.16145 3.193267 0.5104966 0.4956741 0.7026383 0.9078166 0.6746889
-3.947094 65.16145 -2.789623e-06 -0.8685088 0.4956739 -2.613017e-07 0.924974 0.6218837
-4.453212 70.19228 6.129321 -0.585219 0.09333882 0.8054854 0.6933374 0.961126
-6.129322 70.19228 4.453212 -0.8054851 0.09333882 0.5852193 0.679757 0.9423879
-2.341191 70.19228 -7.205451 -0.3076679 0.09333868 -0.9469047 0.7339774 0.8357327
2.049559e-06 70.19228 -7.57626 5.905248e-07 0.09333873 -0.9956344 0.7570823 0.8357307
7.205449 70.19228 -2.341194 0.9469045 0.09333875 -0.3076683 0.8184457 0.8972486
7.576256 70.19228 -2.569718e-06 0.9956344 0.09333877 -1.843255e-07 0.8184457 0.9203869
-2.341192 70.19228 7.205448 -0.3076677 0.09333885 0.9469047 0.712038 0.9747395
-4.453211 70.19228 -6.129323 -0.5852191 0.09333861 -0.8054853 0.7120101 0.8428892
6.12932 70.19228 -4.453209 0.8054852 0.09333875 -0.5852191 0.811314 0.8752428
7.050807e-07 70.19228 7.576256 7.168218e-08 0.09333885 0.9956344 0.7340217 0.9818888
-6.129319 70.19228 -4.453215 -0.8054851 0.09333869 -0.5852194 0.6933277 0.8564956
4.453212 70.19228 -6.129321 0.5852196 0.09333871 -0.805485 0.797745 0.8565091
2.341193 70.19228 7.205448 0.3076678 0.09333884 0.9469047 0.7571262 0.981873
-7.205449 70.19228 -2.341194 -0.9469046 0.09333874 -0.307668 0.679757 0.8752223
2.341193 70.19228 -7.205448 0.3076685 0.09333874 -0.9469044 0.7790575 0.8428912
4.453213 70.19228 6.129321 0.585219 0.09333879 0.8054852 0.7790827 0.9747062
-7.576257 70.19228 -2.569718e-06 -0.9956344 0.09333874 -1.945658e-07 0.6726266 0.8972317
6.129322 70.19228 4.453212 0.8054852 0.09333875 0.5852191 0.797749 0.9611005
-7.205449 70.19228 2.341192 -0.9469047 0.09333874 0.3076676 0.6726254 0.9203676
7.205449 70.19228 2.341192 0.9469047 0.0933387 0.3076676 0.8113112 0.9423892
6.239769e-07 77.20734 -2.26308e-06 1.376013e-07 1 -3.684164e-07 0.9006344 0.8034398
4.779359 49.95724 -6.578222 0.4834228 -0.5688403 -0.6653745 0.03742467 0.2696916
6.578223 49.95724 -4.779358 0.6653744 -0.5688403 -0.4834229 0.03020345 0.2506274
7.733165 49.95724 -2.512658 0.7821944 -0.5688404 -0.2541507 0.02060455 0.2321723
22.48979 21.00234 -4.914385e-07 0.9478325 0.3187687 -1.640889e-07 0.7660639 0.5424671
8.131132 49.95724 -6.352598e-07 0.8224479 -0.5688404 1.68459e-08 0.524316 0.408497
22.48978 9.392532 4.105606e-07 0.9298466 -0.3679473 -3.47398e-08 0.8800769 0.5434568
23.64717 15.19743 -7.45179e-07 1 -2.021663e-07 -1.534966e-07 0.8234624 0.5498633
6.578224 49.95724 4.779357 0.6653746 -0.5688404 0.4834225 0.5395715 0.369743
19.13096 4.155852 -2.637302e-06 0.749077 -0.662483 -1.64186e-07 0.9358594 0.5247837
13.89945 -2.81896e-06 -1.232206e-13 0.3580998 -0.9336833 -8.473238e-08 0.9919334 0.4965888
4.779359 49.95724 6.578223 0.483423 -0.5688404 0.6653743 0.5435802 0.3499174
2.512658 49.95724 7.733165 0.2541501 -0.5688404 0.7821946 0.5448896 0.3297667
6.334815e-07 49.95724 8.131128 -8.844103e-08 -0.56884 0.8224482 0.5440527 0.3097036
-2.512657 49.95724 7.733165 -0.2541503 -0.5688404 0.7821945 0.5416951 0.2897053
8.131132 49.95724 -6.352598e-07 0.8224479 -0.5688404 1.68459e-08 0.9335945 0.7023632
-6.578223 49.95724 4.77936 -0.6653743 -0.5688404 0.4834228 0.5301381 0.2504016
-4.779358 49.95724 6.578223 -0.4834227 -0.56884 0.6653747 0.8410605 0.6351334
-7.733164 49.95724 2.512657 -0.7821948 -0.56884 0.2541503 0.520486 0.2314136
-8.13113 49.95724 -6.352598e-07 -0.822448 -0.5688404 -2.105738e-08 0.5083046 0.2138729
-22.48979 21.00234 -1.900919e-06 -0.9478326 0.3187685 -5.387995e-08 0.2662665 0.5423658
-8.13113 49.95724 -6.352598e-07 -0.822448 -0.5688404 -2.105738e-08 0.02403199 0.4082099
-7.733164 49.95724 -2.512659 -0.7821944 -0.5688403 -0.2541507 0.03297405 0.389002
7.733166 49.95724 2.512657 0.7821946 -0.5688401 0.2541504 0.9144958 0.7085687
-6.578221 49.95724 -4.77936 -0.6653744 -0.5688402 -0.4834231 0.03931263 0.3693796
-19.13096 4.155852 -2.637302e-06 -0.749077 -0.6624829 -1.249774e-07 0.4361407 0.5245011
-22.48978 9.392532 -2.408399e-06 -0.9298467 -0.3679473 -1.985131e-07 0.380371 0.5432429
-13.89946 -2.81896e-06 -1.232206e-13 -0.3580998 -0.9336833 -7.836996e-08 0.4921714 0.4962418
-23.64716 15.19743 6.64301e-07 -1 -4.842007e-07 8.485991e-08 0.3237323 0.5497153
-4.779357 49.95724 -6.578224 -0.4834231 -0.5688403 -0.6653742 0.04333391 0.3495135
-2.512656 49.95724 -7.733168 -0.2541507 -0.5688403 -0.7821945 0.04519454 0.3295275
2.076428e-06 49.95724 -8.131134 7.243735e-07 -0.5688407 -0.8224477 0.04436249 0.3094782
2.512658 49.95724 -7.733164 0.2541509 -0.5688403 -0.7821943 0.04200481 0.2894928
4.295169 -2.241132e-06 -13.21916 0.110659 -0.9336833 -0.340573 0.6026851 0.5038408
8.169895 -2.32743e-06 -11.24489 0.2104858 -0.9336833 -0.289709 0.6353322 0.5144485
11.24489 -2.461843e-06 -8.169892 0.2897088 -0.9336833 -0.2104857 0.6631038 0.5346257
13.21917 -2.631212e-06 -4.295167 0.3405731 -0.9336833 -0.110659 0.6832809 0.5623972
13.89945 -2.81896e-06 -1.232206e-13 0.3580998 -0.9336833 -8.473238e-08 0.6938887 0.5950446
13.21917 -3.006708e-06 4.295167 0.3405733 -0.9336833 0.1106588 0.6938887 0.6293721
11.2449 -3.176077e-06 8.169892 0.2897089 -0.9336833 0.2104857 0.6832808 0.6620195
8.169896 -3.31049e-06 11.2449 0.2104861 -0.9336832 0.289709 0.6631036 0.689791
4.295169 -3.396788e-06 13.21917 0.1106589 -0.9336833 0.3405733 0.6353322 0.7099681
8.027083e-07 -3.426524e-06 13.89946 1.399734e-08 -0.9336832 0.3581001 0.6026849 0.7205759
-4.295167 -3.396788e-06 13.21917 -0.110659 -0.9336833 0.3405733 0.5683573 0.7205759
-8.169895 -3.31049e-06 11.2449 -0.2104859 -0.9336832 0.2897092 0.53571 0.709968
-11.2449 -3.176077e-06 8.169896 -0.289709 -0.9336833 0.2104859 0.5079383 0.6897908
-13.21917 -3.006708e-06 4.295167 -0.3405733 -0.9336833 0.1106589 0.4877613 0.6620194
-13.89946 -2.81896e-06 -1.232206e-13 -0.3580998 -0.9336833 -7.836996e-08 0.4771535 0.6293719
-13.21917 -2.631212e-06 -4.29517 -0.3405733 -0.9336833 -0.110659 0.4771535 0.5950445
-11.24489 -2.461842e-06 -8.169899 -0.2897089 -0.9336833 -0.2104857 0.4877613 0.5623971
-8.169894 -5.14639e-06 -11.2449 -0.2104857 -0.9336835 -0.2897083 0.5079385 0.5346256
-4.295166 -2.241132e-06 -13.21917 -0.1106585 -0.9336832 -0.3405738 0.5357101 0.5144484
1.945364e-06 -2.211396e-06 -13.89945 4.071952e-07 -0.9336835 -0.3580994 0.5683575 0.5038407
-6.457635 57.55934 -3.029614e-07 -0.9722044 0.2341338 1.123108e-07 0.1056629 0.6331573
-5.681193 65.16145 -2.789623e-06 -0.7040011 0.7101988 -9.755456e-08 0.1873819 0.5751559
-2.892441 49.95724 -8.902026 -0.2616997 -0.5317883 -0.8054281 0.09234409 0.7975518
-5.501751 49.95724 -7.572515 -0.4977823 -0.5317886 -0.6851378 0.068112 0.769597
5.501753 49.95724 -7.572512 0.4977822 -0.5317884 -0.685138 0.1762704 0.8702909
2.892443 49.95724 -8.902023 0.2617003 -0.5317885 -0.8054279 0.1466084 0.8479665
8.902023 49.95724 2.892441 0.8054282 -0.5317886 0.2616991 0.3081056 0.93867
9.36014 49.95724 -6.352598e-07 0.8468773 -0.5317885 -6.760057e-09 0.2734634 0.9248583
6.176085e-07 49.95724 9.360138 9.46408e-08 -0.5317885 0.8468772 0.4541 0.9700344
2.892443 49.95724 8.90202 0.2616992 -0.5317885 0.8054282 0.4167715 0.9659436
-8.902021 49.95724 2.892441 -0.8054282 -0.5317885 0.2616991 0.6046915 0.9577049
-7.572513 49.95724 5.501753 -0.6851383 -0.5317883 0.4977819 0.5672534 0.9655381
-7.572511 49.95724 -5.501753 -0.6851382 -0.5317885 -0.4977818 0.04611029 0.7398864
8.902023 49.95724 -2.892442 0.8054281 -0.5317884 -0.2616996 0.2398472 0.9088098
5.501753 49.95724 7.572513 0.4977816 -0.5317884 0.6851383 0.3799008 0.9592911
-5.501752 49.95724 7.572513 -0.4977818 -0.5317882 0.6851384 0.5295186 0.9700177
-8.902021 49.95724 -2.892444 -0.8054281 -0.5317884 -0.2616995 0.02662666 0.7084575
7.572512 49.95724 -5.501751 0.685138 -0.5317886 -0.4977819 0.2074006 0.8905964
7.572515 49.95724 5.501753 0.6851382 -0.5317885 0.4977819 0.3436317 0.9501726
-2.892442 49.95724 8.90202 -0.2616992 -0.5317885 0.8054281 0.4917369 0.9714446
-9.360139 49.95724 -6.352598e-07 -0.8468772 -0.5317885 3.943368e-08 0.01003896 0.6753253
2.278654e-06 49.95724 -9.360145 3.920835e-07 -0.5317882 -0.8468774 0.1185749 0.8236966
-9.360139 49.95724 -6.352598e-07 -0.8468772 -0.5317885 3.943368e-08 0.6417754 0.9459403
4.596183 65.16145 3.33932 0.5695491 0.7101989 0.4138013 0.8959271 0.6882088
5.403136 65.16145 1.755583 0.6695448 0.7101991 0.2175482 0.882583 0.6838731
-5.403135 65.16145 1.755583 -0.6695448 0.7101991 0.2175478 0.9429004 0.6235556
-4.596182 65.16145 3.339323 -0.5695491 0.7101986 0.4138015 0.9472362 0.6368998
1.755586 65.16145 -5.403137 0.2175484 0.7101987 -0.6695451 0.8629847 0.6235557
1.741508e-06 65.16145 -5.681193 1.98473e-07 0.710199 -0.704001 0.8712317 0.6122044
5.681194 65.16145 2.93373e-08 0.7040012 0.7101988 -3.363951e-09 0.8712318 0.6756259
-3.339321 65.16145 4.596182 -0.4138013 0.710199 0.5695489 0.9472362 0.6509306
-1.755584 65.16145 -5.403137 -0.2175484 0.7101989 -0.6695448 0.882583 0.6039574
5.403136 65.16145 -1.755586 0.6695448 0.7101988 -0.2175486 0.8629847 0.6642748
-1.755585 65.16145 5.403137 -0.2175483 0.7101987 0.6695451 0.9429004 0.6642748
-3.339321 65.16145 -4.596182 -0.4138014 0.710199 -0.5695488 0.8959271 0.5996216
4.596182 65.16145 -3.33932 0.5695488 0.710199 -0.4138013 0.8586489 0.6509306
7.33327e-07 65.16145 5.681194 -9.419061e-08 0.7101989 0.7040011 0.9346533 0.675626
-4.59618 65.16145 -3.339323 -0.5695487 0.7101989 -0.4138016 0.9099579 0.5996215
3.339322 65.16145 -4.596182 0.4138019 0.7101989 -0.5695486 0.858649 0.6368998
1.755586 65.16145 5.403137 0.2175486 0.7101988 0.669545 0.9233021 0.6838731
-5.403135 65.16145 -1.755586 -0.6695449 0.7101988 -0.2175485 0.9233021 0.6039573
3.339323 65.16145 4.596182 0.4138018 0.7101988 0.5695488 0.9099579 0.6882088
-5.681193 65.16145 -2.789623e-06 -0.7040011 0.7101988 -9.755456e-08 0.9346533 0.6122044
-3.193267 65.16145 2.320044 -0.7026384 0.495674 0.5104963 0.7165187 0.9227876
-2.320044 65.16145 3.193267 -0.5104965 0.4956742 0.7026382 0.7221936 0.931223
1.429977e-06 65.16145 -3.947096 1.500065e-07 0.4956743 -0.8685085 0.7514865 0.8766908
-1.219718 65.16145 -3.75391 -0.2683844 0.4956737 -0.8260009 0.7414325 0.876399
3.947095 65.16145 2.93373e-08 0.8685087 0.495674 9.67784e-08 0.7771236 0.9148403
3.753911 65.16145 -1.219722 0.8260006 0.4956743 -0.2683842 0.7773977 0.9046348
-1.219719 65.16145 3.75391 -0.2683834 0.4956741 0.826001 0.7301502 0.937473
-2.320044 65.16145 -3.193267 -0.5104964 0.4956738 -0.7026385 0.7317781 0.8792862
3.193268 65.16145 -2.320043 0.7026381 0.495674 -0.5104969 0.7745234 0.8948362
7.295273e-07 65.16145 3.947094 1.004076e-07 0.4956738 0.8685088 0.7396138 0.9409218
-3.193266 65.16145 -2.320046 -0.702638 0.4956741 -0.510497 0.7234674 0.8850604
2.320045 65.16145 -3.193267 0.5104967 0.495674 -0.7026381 0.7688769 0.8863892
1.21972 65.16145 3.75391 0.2683834 0.4956743 0.8260009 0.7496665 0.9412221
-3.75391 65.16145 -1.219722 -0.8260008 0.495674 -0.268384 0.7173152 0.8931483
1.21972 65.16145 -3.75391 0.2683846 0.495674 -0.8260007 0.7609411 0.8801354
2.320045 65.16145 3.193267 0.5104966 0.4956741 0.7026383 0.7593095 0.9383392
-3.947094 65.16145 -2.789623e-06 -0.8685088 0.4956739 -2.613017e-07 0.7139516 0.9027684
3.193268 65.16145 2.320044 0.7026383 0.495674 0.5104966 0.7676017 0.9325606
-3.75391 65.16145 1.219719 -0.8260009 0.495674 0.2683836 0.7137119 0.9129816
3.753911 65.16145 1.219719 0.8260009 0.495674 0.2683837 0.7737294 0.9244577
-7.205449 70.19228 -2.341194 -0.9469046 0.09333874 -0.307668 0.9501445 0.8529499
-7.576257 70.19228 -2.569718e-06 -0.9956344 0.09333874 -1.945658e-07 0.9324218 0.8658262
4.453213 70.19228 6.129321 0.585219 0.09333879 0.8054852 0.8314785 0.7924866
6.129322 70.19228 4.453212 0.8054852 0.09333875 0.5852191 0.8382479 0.7716523
-7.205449 70.19228 2.341192 -0.9469047 0.09333874 0.3076676 0.9115876 0.8725957
7.205449 70.19228 2.341192 0.9469047 0.0933387 0.3076676 0.8511243 0.7539296
-6.129322 70.19228 4.453212 -0.8054851 0.09333882 0.5852193 0.8896811 0.8725957
2.341193 70.19228 -7.205448 0.3076685 0.09333874 -0.9469044 0.9501445 0.7539297
2.049559e-06 70.19228 -7.57626 5.905248e-07 0.09333873 -0.9956344 0.9630208 0.7716523
7.576256 70.19228 -2.569718e-06 0.9956344 0.09333877 -1.843255e-07 0.8688469 0.7410533
-4.453212 70.19228 6.129321 -0.585219 0.09333882 0.8054854 0.8688469 0.8658262
-2.341191 70.19228 -7.205451 -0.3076679 0.09333868 -0.9469047 0.9697902 0.7924866
7.205449 70.19228 -2.341194 0.9469045 0.09333875 -0.3076683 0.8896811 0.7342839
-2.341192 70.19228 7.205448 -0.3076677 0.09333885 0.9469047 0.8511243 0.8529499
-4.453211 70.19228 -6.129323 -0.5852191 0.09333861 -0.8054853 0.9697902 0.814393
6.12932 70.19228 -4.453209 0.8054852 0.09333875 -0.5852191 0.9115876 0.7342839
7.050807e-07 70.19228 7.576256 7.168218e-08 0.09333885 0.9956344 0.8382479 0.8352273
-6.129319 70.19228 -4.453215 -0.8054851 0.09333869 -0.5852194 0.9630208 0.8352273
4.453212 70.19228 -6.129321 0.5852196 0.09333871 -0.805485 0.9324218 0.7410533
2.341193 70.19228 7.205448 0.3076678 0.09333884 0.9469047 0.8314785 0.814393
3 0 1 2 
3 0 2 3 
3 4 5 6 
3 4 6 7 
3 8 4 7 
3 8 7 9 
3 10 11 12 
3 10 12 13 
3 1 8 9 
3 1 9 2 
3 14 15 16 
3 14 16 17 
3 3 2 18 
3 3 18 19 
3 7 6 20 
3 7 20 21 
3 9 7 21 
3 9 21 22 
3 221 222 23 
3 221 23 20 
3 2 9 22 
3 2 22 18 
3 222 223 24 
3 222 24 23 
3 19 18 25 
3 19 25 26 
3 21 20 23 
3 21 23 27 
3 22 21 27 
3 22 27 28 
3 29 30 31 
3 29 31 32 
3 18 22 28 
3 18 28 25 
3 25 28 33 
3 25 33 34 
3 24 223 35 
3 24 35 36 
3 26 25 34 
3 26 34 37 
3 27 23 24 
3 27 24 38 
3 28 27 38 
3 28 38 33 
3 39 40 41 
3 39 41 42 
3 224 225 43 
3 224 43 44 
3 34 33 45 
3 34 45 46 
3 47 48 49 
3 47 49 50 
3 37 34 46 
3 37 46 51 
3 38 24 36 
3 38 36 52 
3 33 38 52 
3 33 52 45 
3 226 227 53 
3 226 53 54 
3 44 43 228 
3 44 228 55 
3 229 226 54 
3 229 54 56 
3 57 58 59 
3 57 59 60 
3 230 229 56 
3 230 56 61 
3 227 224 44 
3 227 44 53 
3 53 44 55 
3 53 55 62 
3 54 53 62 
3 54 62 63 
3 55 228 231 
3 55 231 64 
3 56 54 63 
3 56 63 65 
3 15 10 13 
3 15 13 16 
3 61 56 65 
3 61 65 66 
3 66 65 67 
3 66 67 68 
3 62 55 64 
3 62 64 69 
3 63 62 69 
3 63 69 70 
3 231 232 71 
3 231 71 64 
3 65 63 70 
3 65 70 67 
3 72 29 32 
3 72 32 73 
3 232 233 74 
3 232 74 71 
3 68 67 75 
3 68 75 76 
3 69 64 71 
3 69 71 77 
3 70 69 77 
3 70 77 78 
3 79 80 81 
3 79 81 82 
3 67 70 78 
3 67 78 75 
3 75 78 83 
3 75 83 84 
3 74 233 234 
3 74 234 85 
3 76 75 84 
3 76 84 86 
3 77 71 74 
3 77 74 87 
3 78 77 87 
3 78 87 83 
3 235 14 17 
3 235 17 88 
3 83 87 89 
3 83 89 90 
3 85 234 91 
3 85 91 92 
3 84 83 90 
3 84 90 93 
3 94 57 60 
3 94 60 95 
3 86 84 93 
3 86 93 96 
3 87 74 85 
3 87 85 89 
3 90 89 97 
3 90 97 98 
3 92 91 236 
3 92 236 99 
3 93 90 98 
3 93 98 100 
3 237 72 73 
3 237 73 101 
3 96 93 100 
3 96 100 102 
3 89 85 92 
3 89 92 97 
3 97 92 99 
3 97 99 103 
3 98 97 103 
3 98 103 104 
3 99 236 238 
3 99 238 105 
3 100 98 104 
3 100 104 106 
3 107 47 50 
3 107 50 108 
3 102 100 106 
3 102 106 109 
3 109 106 110 
3 109 110 111 
3 103 99 105 
3 103 105 112 
3 104 103 112 
3 104 112 113 
3 238 239 114 
3 238 114 105 
3 106 104 113 
3 106 113 110 
3 30 39 42 
3 30 42 31 
3 110 113 115 
3 110 115 116 
3 240 241 242 
3 240 242 117 
3 111 110 116 
3 111 116 118 
3 112 105 114 
3 112 114 119 
3 113 112 119 
3 113 119 115 
3 243 235 88 
3 243 88 120 
3 117 242 244 
3 117 244 121 
3 245 246 122 
3 245 122 123 
3 80 94 95 
3 80 95 81 
3 247 245 123 
3 247 123 124 
3 248 240 117 
3 248 117 125 
3 246 248 125 
3 246 125 122 
3 122 125 126 
3 122 126 127 
3 121 244 249 
3 121 249 128 
3 123 122 127 
3 123 127 129 
3 11 79 82 
3 11 82 12 
3 124 123 129 
3 124 129 130 
3 125 117 121 
3 125 121 126 
3 127 126 131 
3 127 131 132 
3 128 249 250 
3 128 250 133 
3 129 127 132 
3 129 132 134 
3 40 243 120 
3 40 120 41 
3 130 129 134 
3 130 134 135 
3 126 121 128 
3 126 128 131 
3 135 134 136 
3 135 136 137 
3 131 128 133 
3 131 133 138 
3 132 131 138 
3 132 138 139 
3 250 251 5 
3 250 5 133 
3 134 132 139 
3 134 139 136 
3 48 237 101 
3 48 101 49 
3 5 251 252 
3 5 252 6 
3 137 136 1 
3 137 1 0 
3 138 133 5 
3 138 5 4 
3 6 252 221 
3 6 221 20 
3 139 138 4 
3 139 4 8 
3 58 107 108 
3 58 108 59 
3 253 254 255 
3 253 255 256 
3 253 256 257 
3 253 257 258 
3 253 258 259 
3 253 259 260 
3 253 260 261 
3 253 261 262 
3 253 262 263 
3 253 263 264 
3 253 264 265 
3 253 265 266 
3 253 266 267 
3 253 267 268 
3 253 268 269 
3 253 269 270 
3 253 270 271 
3 253 271 272 
3 136 139 8 
3 136 8 1 
3 140 141 142 
3 140 142 143 
3 144 145 146 
3 144 146 147 
3 148 149 150 
3 148 150 151 
3 152 153 154 
3 152 154 155 
3 156 157 158 
3 156 158 159 
3 141 160 161 
3 141 161 142 
3 162 273 274 
3 162 274 163 
3 164 148 151 
3 164 151 165 
3 166 152 155 
3 166 155 167 
3 168 156 159 
3 168 159 169 
3 170 162 163 
3 170 163 171 
3 172 164 165 
3 172 165 173 
3 174 166 167 
3 174 167 175 
3 176 168 169 
3 176 169 177 
3 178 170 171 
3 178 171 179 
3 145 172 173 
3 145 173 146 
3 149 174 175 
3 149 175 150 
3 153 176 177 
3 153 177 154 
3 157 140 143 
3 157 143 158 
3 160 178 179 
3 160 179 161 
3 275 276 178 
3 275 178 160 
3 277 278 140 
3 277 140 157 
3 279 280 176 
3 279 176 153 
3 281 282 174 
3 281 174 149 
3 283 284 172 
3 283 172 145 
3 276 285 170 
3 276 170 178 
3 280 286 168 
3 280 168 176 
3 282 287 166 
3 282 166 174 
3 284 288 164 
3 284 164 172 
3 285 289 162 
3 285 162 170 
3 286 290 156 
3 286 156 168 
3 287 291 152 
3 287 152 166 
3 288 292 148 
3 288 148 164 
3 289 293 273 
3 289 273 162 
3 294 275 160 
3 294 160 141 
3 290 277 157 
3 290 157 156 
3 291 279 153 
3 291 153 152 
3 292 281 149 
3 292 149 148 
3 295 283 145 
3 295 145 144 
3 278 294 141 
3 278 141 140 
3 296 297 180 
3 296 180 181 
3 298 299 182 
3 298 182 183 
3 300 301 184 
3 300 184 185 
3 297 302 186 
3 297 186 180 
3 299 303 187 
3 299 187 182 
3 301 304 188 
3 301 188 184 
3 302 305 189 
3 302 189 186 
3 303 306 190 
3 303 190 187 
3 304 307 191 
3 304 191 188 
3 305 308 192 
3 305 192 189 
3 306 309 193 
3 306 193 190 
3 307 310 194 
3 307 194 191 
3 308 311 195 
3 308 195 192 
3 309 312 196 
3 309 196 193 
3 310 313 197 
3 310 197 194 
3 311 300 185 
3 311 185 195 
3 312 314 198 
3 312 198 196 
3 313 315 199 
3 313 199 197 
3 314 296 181 
3 314 181 198 
3 315 298 183 
3 315 183 199 
3 316 317 200 
3 316 200 201 
3 318 319 202 
3 318 202 203 
3 320 321 204 
3 320 204 205 
3 317 322 206 
3 317 206 200 
3 319 323 207 
3 319 207 202 
3 321 324 208 
3 321 208 204 
3 322 325 209 
3 322 209 206 
3 323 326 210 
3 323 210 207 
3 324 327 211 
3 324 211 208 
3 325 328 212 
3 325 212 209 
3 326 329 213 
3 326 213 210 
3 327 330 214 
3 327 214 211 
3 328 331 215 
3 328 215 212 
3 329 332 216 
3 329 216 213 
3 331 333 217 
3 331 217 215 
3 332 334 218 
3 332 218 216 
3 333 335 219 
3 333 219 217 
3 334 316 201 
3 334 201 218 
3 330 318 203 
3 330 203 214 
3 335 320 205 
3 335 205 219 
3 336 337 220 
3 338 339 220 
3 337 340 220 
3 339 341 220 
3 340 342 220 
3 343 344 220 
3 341 345 220 
3 342 346 220 
3 344 347 220 
3 345 348 220 
3 346 349 220 
3 347 350 220 
3 348 351 220 
3 349 352 220 
3 350 353 220 
3 351 354 220 
3 352 355 220 
3 353 336 220 
3 354 343 220 
3 355 338 220 
