ply
format ascii 1.0
comment VCGLIB generated
comment TextureFile mushroom_A_d.png
element vertex 171
property float x
property float y
property float z
property float nx
property float ny
property float nz
property float texture_u
property float texture_v
element face 200
property list uchar int vertex_indices
end_header
-1.495659e-34 15.52905 0.2114319 4.227164e-08 0.3721726 -0.9281636 0.2938789 0.6308926
-2.424259e-34 18.68142 5.214561 -2.391113e-08 0.9799247 0.1993678 0.2939307 0.3782139
3.022322 15.27946 1.438187 0.6956019 0.3147291 -0.6458201 0.4738659 0.5582128
4.274209 14.67691 4.399835 0.9837296 0.1760491 0.03581759 0.5466092 0.3782476
3.022322 14.07435 7.361482 0.6956019 0.03736823 0.717455 0.4739136 0.1982631
-1.387954e-34 13.82477 8.588238 0 -0.0200749 0.9997985 0.2939476 0.1255342
-3.022322 14.07435 7.361482 -0.6956019 0.03736828 0.7174549 0.1139762 0.1982326
-4.274209 14.67691 4.399835 -0.9837296 0.1760491 0.03581756 0.04124928 0.3781795
-3.022322 15.27946 1.438187 -0.6956019 0.314729 -0.6458201 0.1139281 0.5581447
2.813148 14.55163 1.503567 0.4101982 -0.7164071 -0.5643566 0.9400437 0.4423103
0.4861359 14.6607 3.900442 0.3535853 -0.7781204 -0.5191398 0.8222553 0.3237823
-1.422713e-34 14.70084 3.70312 1.342883e-08 -0.7489222 -0.662658 0.8326346 0.2985455
-1.3236e-34 14.78394 0.3617163 0 -0.6825328 -0.730855 1 0.2990673
3.978391 13.99078 4.26024 0.580108 -0.7981874 -0.1623932 0.7964271 0.501368
0.6875 14.56378 4.376818 0.5000442 -0.8486147 -0.1726526 0.7969529 0.3340036
2.813148 13.42993 7.016913 0.4101985 -0.8799676 0.239571 0.6531851 0.4414098
0.4861359 14.46686 4.853194 0.3535845 -0.9191081 0.1738344 0.7717149 0.3236231
-1.223349e-34 13.19762 8.158764 1.357165e-08 -0.9138424 0.4060691 0.5941264 0.2977945
-1.405389e-34 14.42671 5.050516 -1.4436e-07 -0.9483076 0.3173528 0.7614936 0.2983215
-2.813148 13.42993 7.016913 -0.4101985 -0.8799676 0.2395708 0.6540844 0.154552
-0.4861359 14.46686 4.853194 -0.3535845 -0.9191081 0.1738343 0.7718719 0.2730821
-3.978391 13.99078 4.26024 -0.580108 -0.7981874 -0.1623933 0.7976998 0.09549436
-0.6875 14.56378 4.376818 -0.5000442 -0.8486148 -0.1726526 0.7971735 0.2628593
-2.813148 14.55163 1.503567 -0.4101983 -0.716407 -0.5643566 0.9409407 0.1554533
-0.4861359 14.6607 3.900442 -0.3535851 -0.7781205 -0.5191397 0.8224114 0.2732421
-6.74013 11.59714 -3.590335 -0.04801055 0.173121 -0.9837297 0.2938789 0.6308926
-7.65748 14.905 0 -0.2672384 0.9636305 9.564451e-09 0.2939307 0.3782139
-4.293714 12.2756 -2.53875 0.6222922 0.3590134 -0.6956018 0.4738659 0.5582128
-3.280374 12.55662 0 0.8999413 0.4360113 -1.127245e-07 0.5466092 0.3782476
-4.293714 12.2756 2.53875 0.622292 0.3590134 0.695602 0.4739136 0.1982631
-6.74013 11.59714 3.590335 -0.04801049 0.1731208 0.9837297 0.2939476 0.1255342
-9.186549 10.91869 2.53875 -0.718314 -0.01277064 0.6956019 0.1139762 0.1982326
-10.19989 10.63767 0 -0.9959626 -0.0897701 2.818113e-08 0.04124928 0.3781795
-9.186549 10.91869 -2.53875 -0.718314 -0.01277051 -0.6956019 0.1139281 0.5581447
-4.305852 11.66188 -2.363044 0.6129561 -0.6752943 -0.4101981 0.9400437 0.4423103
-6.320713 11.61282 -0.4083542 0.576046 -0.7289098 -0.3699481 0.8222553 0.3237823
-6.714214 11.5037 -0.5775 0.2225639 -0.8371513 -0.499643 0.8326346 0.2985455
-6.582953 11.03038 -3.341849 0.2176761 -0.7849156 -0.5801075 1 0.2990673
-3.362646 11.92345 0 0.7766856 -0.6298885 -1.679489e-07 0.7964271 0.501368
-6.157719 11.65803 0 0.7320595 -0.6812407 -2.592501e-09 0.7969529 0.3340036
-4.305852 11.66188 2.363044 0.6129559 -0.6752943 0.4101983 0.6531851 0.4414098
-6.320713 11.61282 0.4083542 0.5760617 -0.7288972 0.3699484 0.7717149 0.3236231
-6.582953 11.03038 3.341849 0.2176762 -0.7849156 0.5801076 0.5941264 0.2977945
-6.714214 11.5037 0.5775 0.2225498 -0.8371481 0.4996546 0.7614936 0.2983215
-8.860055 10.39889 2.363044 -0.1776029 -0.8945361 0.410198 0.6540844 0.154552
-7.107717 11.39457 0.4083542 -0.09960837 -0.9361236 0.3372697 0.7718719 0.2730821
-9.80326 10.13731 0 -0.341332 -0.9399428 1.08573e-07 0.7976998 0.09549436
-7.270712 11.34937 0 -0.224293 -0.9745218 0 0.7971735 0.2628593
-8.860055 10.39889 -2.363044 -0.1776029 -0.8945361 -0.410198 0.9409407 0.1554533
-7.107717 11.39457 -0.4083542 -0.09960836 -0.9361236 -0.3372697 0.8224114 0.2732421
-1.173361 -0.5596644 -0.5775 -0.009161236 -0.005146481 -0.9999448 0.01044288 0.8056957
-4.562369 5.193366 -0.5775 -0.02198631 -0.01197336 -0.9996866 0.4271013 0.8056958
-4.181331 5.335829 -0.4083542 0.632169 0.2907618 -0.718206 0.4271009 0.8332006
-0.8308862 -0.3372588 -0.4083542 0.6045785 0.3573124 -0.7119079 0.01044369 0.8332005
-4.023499 5.39484 0 0.9077793 0.4194481 0 0.427101 0.8607055
-0.6890286 -0.2451354 0 0.860809 0.5089282 0 0.01044211 0.8607053
-0.8308862 -0.3372588 0.4083542 0.6045785 0.3573124 0.7119079 0.01044267 0.8882102
-4.181331 5.335829 0.4083542 0.6321816 0.2907494 0.7182 0.4271017 0.8882104
-1.173361 -0.5596644 0.5775 -0.009161236 -0.005146481 0.9999448 0.01044402 0.9157155
-4.562369 5.193366 0.5775 -0.02198995 -0.01199076 0.9996863 0.4271039 0.9157155
-1.515836 -0.78207 0.4083542 -0.6145359 -0.3613591 0.7012597 0.01043633 0.7231812
-4.943408 5.0509 0.4083542 -0.6548803 -0.3004085 0.6934599 0.4271001 0.7231811
-1.657693 -0.8741935 0 -0.8621752 -0.5066102 0 0.01043907 0.7506859
-5.101239 4.99189 0 -0.9097524 -0.4151512 -3.960635e-09 0.4270999 0.7506859
-4.943408 5.0509 -0.4083542 -0.6548803 -0.3004085 -0.6934599 0.4271002 0.7781909
-1.515836 -0.78207 -0.4083542 -0.614536 -0.3613591 -0.7012597 0.01043999 0.7781909
2.420757 11.70372 -3.987732 -0.1792996 -0.9224103 -0.3420684 0.8437597 0.8056959
-0.01856519 -0.8455096 -1.73355 -0.03313309 -0.1704578 -0.9848078 0.01044288 0.8056957
-0.402049 -0.7419368 -1.571932 -0.7175443 0.01439054 -0.6963642 0.01043999 0.7781909
2.037273 11.80729 -3.826114 -0.521533 -0.8299793 -0.1978328 0.8437603 0.7781909
-0.550018 -0.6430873 -1.18175 -0.9816272 0.1908091 1.232158e-07 0.01043907 0.7506859
1.889304 11.90614 -3.435932 -0.6535875 -0.7417612 0.1503789 0.8437607 0.7506859
-0.3757939 -0.6068658 -0.7915684 -0.6706865 0.2554542 0.696364 0.01043633 0.7231812
2.063528 11.94236 -3.045751 -0.4981023 -0.7094355 0.4985934 0.8437638 0.723181
0.01856519 -0.6544904 -0.6299499 0.03313387 0.1704577 0.9848078 0.01043791 0.6956764
2.457887 11.89474 -2.884133 -0.1461622 -0.751938 0.6428265 0.8437623 0.6956761
0.402049 -0.7580632 -0.7915684 0.7175445 -0.01439056 0.696364 0.01044267 0.8882102
2.841371 11.79116 -3.045751 0.1960727 -0.8443692 0.4985943 0.8437607 0.8882105
0.550018 -0.8569127 -1.18175 0.9816272 -0.190809 3.901829e-07 0.01044211 0.8607053
2.98934 11.69231 -3.435932 0.3281273 -0.932587 0.1503796 0.8437598 0.8607057
0.3757939 -0.8931342 -1.571932 0.6706867 -0.2554542 -0.6963639 0.01044369 0.8332005
2.815116 11.65609 -3.826114 0.1726419 -0.9649124 -0.1978355 0.8437581 0.8332007
2.341583 11.2964 -6.88283 0.001164162 0.005989589 -0.9999814 0.2938789 0.6308926
3.082845 15.10986 -4.030613 0.1879102 0.9667141 -0.173648 0.2939307 0.3782139
4.793324 11.00031 -5.878042 0.6935332 -0.07762171 -0.7162309 0.4738659 0.5582128
5.876482 11.2255 -3.452271 0.9994148 -0.01402905 -0.03119684 0.5466092 0.3782476
4.956554 11.84005 -1.0265 0.7396287 0.1595185 0.6538373 0.4739136 0.1982631
2.572423 12.48397 -0.02171286 0.06635363 0.3413596 0.9375878 0.2939476 0.1255342
0.1206807 12.78005 -1.0265 -0.6260149 0.424973 0.6538374 0.1139762 0.1982326
-0.9624761 12.55486 -3.452271 -0.9318968 0.3613796 -0.03119656 0.04124928 0.3781795
-0.04254835 11.94031 -5.878042 -0.6721103 0.1878321 -0.716231 0.1139281 0.5581447
4.524397 10.51025 -5.611063 0.2360109 -0.9356176 -0.2625237 0.9400437 0.4423103
2.24234 10.78584 -6.546308 -0.1722818 -0.8863114 -0.4298502 1 0.2990673
5.532589 10.71985 -3.353179 0.4163896 -0.8981166 0.1414432 0.7964271 0.501368
4.67633 11.29187 -1.095295 0.2631928 -0.7957749 0.5454099 0.6531851 0.4414098
2.457204 11.89122 -0.160049 -0.1338392 -0.6885433 0.7127379 0.5941264 0.2977945
0.1751459 12.16681 -1.095295 -0.5421308 -0.6392357 0.5454099 0.6540844 0.154552
-0.8330455 11.9572 -3.353179 -0.7225099 -0.6767372 0.1414434 0.7976998 0.09549436
0.0232139 11.38519 -5.611063 -0.5693133 -0.7790787 -0.2625239 0.9409407 0.1554533
-0.4861359 -0.5297516 -0.45535 -0.7069481 0.2483351 -0.6622342 0.01043999 0.7781909
-0.4861359 6.856576 2.312675 -0.7160729 0.1926987 -0.6709001 0.4271002 0.7781909
4.919222e-35 6.896723 2.115353 -5.06361e-05 0.2775821 -0.9607019 0.4271013 0.8056958
2.386787e-34 -0.4592324 -0.6439621 -9.352111e-05 0.3510735 -0.936348 0.01044288 0.8056957
-0.6875 -0.7 0 -1 0.0001733353 -3.365972e-05 0.01043907 0.7506859
-0.6875 6.759658 2.789052 -0.9998142 -0.00667596 0.01808943 0.4270999 0.7506859
-0.4861359 -0.8702484 0.45535 -0.706952 -0.2473334 0.6626047 0.01043633 0.7231812
-0.4861359 6.662737 3.265428 -0.6969988 -0.1974284 0.6893582 0.4271 0.7231811
2.424259e-34 -0.9407676 0.6439621 8.939202e-05 -0.3493615 0.936988 0.01043791 0.6956764
5.092465e-35 6.622592 3.46275 4.161087e-05 -0.2738159 0.9617821 0.4271001 0.6956763
0.4861359 -0.8702484 0.45535 0.7069528 -0.247058 0.6627067 0.01044267 0.8882102
0.4861359 6.662737 3.265428 0.696995 -0.1975678 0.6893221 0.4271017 0.8882104
0.6875 -0.7 0 1 0.0001068116 0.0001364461 0.01044211 0.8607053
0.6875 6.759658 2.789052 0.9998123 -0.006721188 0.018173 0.4271009 0.8607055
0.4861359 -0.5297516 -0.45535 0.7069489 0.2480509 -0.6623397 0.01044369 0.8332005
0.4861359 6.856576 2.312675 0.7160677 0.1928517 -0.6708617 0.4271009 0.8332006
-1.3236e-34 14.78394 0.3617163 0 -0.6825328 -0.730855 0.2938708 0.6721425
-2.813148 14.55163 1.503567 -0.4101983 -0.716407 -0.5643566 0.08698955 0.5850734
-3.978391 13.99078 4.26024 -0.580108 -0.7981874 -0.1623933 0 0.378174
-2.813148 13.42993 7.016913 -0.4101985 -0.8799676 0.2395708 0.08704489 0.1712967
-1.223349e-34 13.19762 8.158764 1.357165e-08 -0.9138424 0.4060691 0.2939506 0.08428442
2.813148 13.42993 7.016913 0.4101985 -0.8799676 0.239571 0.5008498 0.1713322
3.978391 13.99078 4.26024 0.580108 -0.7981874 -0.1623932 0.5878589 0.3782531
2.813148 14.55163 1.503567 0.4101982 -0.7164071 -0.5643566 0.5007947 0.5851514
-6.582953 11.03038 -3.341849 0.2176761 -0.7849156 -0.5801075 0.2938708 0.6721425
-8.860055 10.39889 -2.363044 -0.1776029 -0.8945361 -0.410198 0.08698955 0.5850734
-9.80326 10.13731 0 -0.341332 -0.9399428 1.08573e-07 0 0.378174
-8.860055 10.39889 2.363044 -0.1776029 -0.8945361 0.410198 0.08704489 0.1712967
-6.582953 11.03038 3.341849 0.2176762 -0.7849156 0.5801076 0.2939506 0.08428442
-4.305852 11.66188 2.363044 0.6129559 -0.6752943 0.4101983 0.5008498 0.1713322
-3.362646 11.92345 0 0.7766856 -0.6298885 -1.679489e-07 0.5878589 0.3782531
-4.305852 11.66188 -2.363044 0.6129561 -0.6752943 -0.4101981 0.5007947 0.5851514
-6.714214 11.5037 -0.5775 0.2225639 -0.8371513 -0.499643 0.8437597 0.8056959
-6.320713 11.61282 -0.4083542 0.576046 -0.7289098 -0.3699481 0.8437581 0.8332007
-6.157719 11.65803 0 0.7320595 -0.6812407 -2.592501e-09 0.8437598 0.8607057
-6.320713 11.61282 0.4083542 0.5760617 -0.7288972 0.3699484 0.8437607 0.8882105
-6.714214 11.5037 0.5775 0.2225498 -0.8371481 0.4996546 0.8437638 0.9157155
-1.173361 -0.5596644 0.5775 -0.009161236 -0.005146481 0.9999448 0.01043791 0.6956764
-4.562369 5.193366 0.5775 -0.02198995 -0.01199076 0.9996863 0.4271001 0.6956763
-6.714214 11.5037 0.5775 0.2225498 -0.8371481 0.4996546 0.8437623 0.6956761
-7.107717 11.39457 0.4083542 -0.09960837 -0.9361236 0.3372697 0.8437638 0.723181
-7.270712 11.34937 0 -0.224293 -0.9745218 0 0.8437607 0.7506859
-7.107717 11.39457 -0.4083542 -0.09960836 -0.9361236 -0.3372697 0.8437603 0.7781909
2.457887 11.89474 -2.884133 -0.1461622 -0.751938 0.6428265 0.8437638 0.9157155
0.01856519 -0.6544904 -0.6299499 0.03313387 0.1704577 0.9848078 0.01044402 0.9157155
2.815116 11.65609 -3.826114 0.1726419 -0.9649124 -0.1978355 0.8222553 0.3237823
2.420757 11.70372 -3.987732 -0.1792996 -0.9224103 -0.3420684 0.8326346 0.2985455
2.98934 11.69231 -3.435932 0.3281273 -0.932587 0.1503796 0.7969529 0.3340036
2.841371 11.79116 -3.045751 0.1960727 -0.8443692 0.4985943 0.7717149 0.3236231
2.457887 11.89474 -2.884133 -0.1461622 -0.751938 0.6428265 0.7614936 0.2983215
2.063528 11.94236 -3.045751 -0.4981023 -0.7094355 0.4985934 0.7718719 0.2730821
1.889304 11.90614 -3.435932 -0.6535875 -0.7417612 0.1503789 0.7971735 0.2628593
2.037273 11.80729 -3.826114 -0.521533 -0.8299793 -0.1978328 0.8224114 0.2732421
2.24234 10.78584 -6.546308 -0.1722818 -0.8863114 -0.4298502 0.2938708 0.6721425
0.0232139 11.38519 -5.611063 -0.5693133 -0.7790787 -0.2625239 0.08698955 0.5850734
-0.8330455 11.9572 -3.353179 -0.7225099 -0.6767372 0.1414434 0 0.378174
0.1751459 12.16681 -1.095295 -0.5421308 -0.6392357 0.5454099 0.08704489 0.1712967
2.457204 11.89122 -0.160049 -0.1338392 -0.6885433 0.7127379 0.2939506 0.08428442
4.67633 11.29187 -1.095295 0.2631928 -0.7957749 0.5454099 0.5008498 0.1713322
5.532589 10.71985 -3.353179 0.4163896 -0.8981166 0.1414432 0.5878589 0.3782531
4.524397 10.51025 -5.611063 0.2360109 -0.9356176 -0.2625237 0.5007947 0.5851514
-0.4861359 14.6607 3.900442 -0.3535851 -0.7781205 -0.5191397 0.8437603 0.7781909
-1.422713e-34 14.70084 3.70312 1.342883e-08 -0.7489222 -0.662658 0.8437597 0.8056959
-0.6875 14.56378 4.376818 -0.5000442 -0.8486148 -0.1726526 0.8437607 0.7506859
-0.4861359 14.46686 4.853194 -0.3535845 -0.9191081 0.1738343 0.8437638 0.723181
-1.405389e-34 14.42671 5.050516 -1.4436e-07 -0.9483076 0.3173528 0.8437623 0.6956761
5.092465e-35 6.622592 3.46275 4.161087e-05 -0.2738159 0.9617821 0.4271039 0.9157155
2.424259e-34 -0.9407676 0.6439621 8.939202e-05 -0.3493615 0.936988 0.01044402 0.9157155
0.4861359 14.46686 4.853194 0.3535845 -0.9191081 0.1738344 0.8437607 0.8882105
-1.405389e-34 14.42671 5.050516 -1.4436e-07 -0.9483076 0.3173528 0.8437638 0.9157155
0.6875 14.56378 4.376818 0.5000442 -0.8486147 -0.1726526 0.8437598 0.8607057
0.4861359 14.6607 3.900442 0.3535853 -0.7781204 -0.5191398 0.8437581 0.8332007
3 0 1 2 
3 3 2 1 
3 3 1 4 
3 5 4 1 
3 5 1 6 
3 7 6 1 
3 7 1 8 
3 0 8 1 
3 9 10 11 
3 9 11 12 
3 9 13 14 
3 9 14 10 
3 15 16 14 
3 15 14 13 
3 15 17 18 
3 15 18 16 
3 19 20 18 
3 19 18 17 
3 19 21 22 
3 19 22 20 
3 23 24 22 
3 23 22 21 
3 23 12 11 
3 23 11 24 
3 8 0 115 
3 8 115 116 
3 7 8 116 
3 7 116 117 
3 6 7 117 
3 6 117 118 
3 5 6 118 
3 5 118 119 
3 4 5 119 
3 4 119 120 
3 3 4 120 
3 3 120 121 
3 2 3 121 
3 2 121 122 
3 0 2 122 
3 0 122 115 
3 25 26 27 
3 28 27 26 
3 28 26 29 
3 30 29 26 
3 30 26 31 
3 32 31 26 
3 32 26 33 
3 25 33 26 
3 34 35 36 
3 34 36 37 
3 34 38 39 
3 34 39 35 
3 40 41 39 
3 40 39 38 
3 40 42 43 
3 40 43 41 
3 44 45 43 
3 44 43 42 
3 44 46 47 
3 44 47 45 
3 48 49 47 
3 48 47 46 
3 48 37 36 
3 48 36 49 
3 33 25 123 
3 33 123 124 
3 32 33 124 
3 32 124 125 
3 31 32 125 
3 31 125 126 
3 30 31 126 
3 30 126 127 
3 29 30 127 
3 29 127 128 
3 28 29 128 
3 28 128 129 
3 27 28 129 
3 27 129 130 
3 25 27 130 
3 25 130 123 
3 50 51 52 
3 50 52 53 
3 131 132 52 
3 131 52 51 
3 53 52 54 
3 53 54 55 
3 133 54 52 
3 133 52 132 
3 56 55 54 
3 56 54 57 
3 133 134 57 
3 133 57 54 
3 58 56 57 
3 58 57 59 
3 134 135 59 
3 134 59 57 
3 60 136 137 
3 60 137 61 
3 138 139 61 
3 138 61 137 
3 62 60 61 
3 62 61 63 
3 139 140 63 
3 139 63 61 
3 62 63 64 
3 62 64 65 
3 141 64 63 
3 141 63 140 
3 65 64 51 
3 65 51 50 
3 131 51 64 
3 131 64 141 
3 66 67 68 
3 66 68 69 
3 69 68 70 
3 69 70 71 
3 71 70 72 
3 71 72 73 
3 73 72 74 
3 73 74 75 
3 142 143 76 
3 142 76 77 
3 77 76 78 
3 77 78 79 
3 79 78 80 
3 79 80 81 
3 81 80 67 
3 81 67 66 
3 82 83 84 
3 85 84 83 
3 85 83 86 
3 87 86 83 
3 87 83 88 
3 89 88 83 
3 89 83 90 
3 82 90 83 
3 91 144 145 
3 91 145 92 
3 91 93 146 
3 91 146 144 
3 94 147 146 
3 94 146 93 
3 94 95 148 
3 94 148 147 
3 96 149 148 
3 96 148 95 
3 96 97 150 
3 96 150 149 
3 98 151 150 
3 98 150 97 
3 98 92 145 
3 98 145 151 
3 90 82 152 
3 90 152 153 
3 89 90 153 
3 89 153 154 
3 88 89 154 
3 88 154 155 
3 87 88 155 
3 87 155 156 
3 86 87 156 
3 86 156 157 
3 85 86 157 
3 85 157 158 
3 84 85 158 
3 84 158 159 
3 82 84 159 
3 82 159 152 
3 99 100 101 
3 99 101 102 
3 100 160 161 
3 100 161 101 
3 103 104 100 
3 103 100 99 
3 104 162 160 
3 104 160 100 
3 105 106 104 
3 105 104 103 
3 106 163 162 
3 106 162 104 
3 107 108 106 
3 107 106 105 
3 108 164 163 
3 108 163 106 
3 109 110 165 
3 109 165 166 
3 110 167 168 
3 110 168 165 
3 111 112 110 
3 111 110 109 
3 112 169 167 
3 112 167 110 
3 113 114 112 
3 113 112 111 
3 114 170 169 
3 114 169 112 
3 102 101 114 
3 102 114 113 
3 101 161 170 
3 101 170 114 
