ply
format ascii 1.0
comment VCGLIB generated
comment TextureFile pot_B_d.png
element vertex 200
property float x
property float y
property float z
property float nx
property float ny
property float nz
property float texture_u
property float texture_v
element face 294
property list uchar int vertex_indices
end_header
0 16.125 -10.75 5.01437e-09 0.1717377 -0.9851428 0.4985375 0.2617823
0 3.1 -10.75 -2.627082e-09 -0.2954933 -0.9553449 0.5019102 0.07056955
-4.113847 3.1 -9.931705 -0.3624069 -0.3211902 -0.8749275 0.5667597 0.07349691
-4.113847 16.125 -9.931705 -0.3768992 0.1732093 -0.9099151 0.5539002 0.2648196
-7.601398 3.1 -7.601398 -0.6755308 -0.2954933 -0.6755308 0.6312851 0.0802094
-7.601398 16.125 -7.601398 -0.6966011 0.1717376 -0.6966012 0.60921 0.2698975
-9.931705 3.1 -4.113847 -0.8749275 -0.3211902 -0.3624069 0.6948837 0.09072328
-9.931705 16.125 -4.113847 -0.9099151 0.1732093 -0.3768992 0.6642795 0.279736
-10.75 3.1 0 -0.9553449 -0.2954933 5.254165e-09 0.7574884 0.1045365
-10.75 16.125 0 -0.9851428 0.1717377 0 0.719398 0.2918015
-9.931705 3.1 4.113847 -0.8749275 -0.3211902 0.3624069 0.8187006 0.1211616
-9.931705 16.125 4.113847 -0.9099151 0.1732093 0.3768992 0.7743104 0.3083122
-7.601398 3.1 7.601398 -0.6755308 -0.2954933 0.6755308 0.878934 0.1392786
-7.601398 16.125 7.601398 -0.6966012 0.1717376 0.696601 0.8295642 0.3275005
-4.113847 3.1 9.931705 -0.3624069 -0.3211902 0.8749275 0.9384997 0.1571245
-4.113847 16.125 9.931705 -0.3768992 0.1732093 0.9099151 0.8851429 0.3510662
0 3.1 10.75 -2.627082e-09 -0.2954933 0.9553449 0.9985803 0.1722454
0 16.125 10.75 0 0.1717377 0.9851428 0.9413651 0.3789204
4.113847 3.1 9.931705 0.3624069 -0.3211902 0.8749275 0.06180018 0.1450179
4.113847 16.125 9.931705 0.3768993 0.1732093 0.9099151 0.1105949 0.3418985
7.601398 3.1 7.601398 0.6755308 -0.2954933 0.6755308 0.1224404 0.1286254
7.601398 16.125 7.601398 0.696601 0.1717376 0.6966012 0.1662884 0.3196328
9.931705 3.1 4.113847 0.8749275 -0.3211902 0.3624069 0.1833901 0.1121582
9.931705 16.125 4.113847 0.9099151 0.1732093 0.3768992 0.2219028 0.3018788
10.75 3.1 0 0.9553449 -0.2954933 -5.254165e-09 0.2452609 0.09727734
10.75 16.125 0 0.9851428 0.1717377 0 0.2771156 0.2867588
9.931705 3.1 -4.113847 0.8749275 -0.3211902 -0.3624069 0.3082349 0.0852744
9.931705 16.125 -4.113847 0.9099151 0.1732093 -0.3768992 0.3325251 0.2760378
7.601398 3.1 -7.601398 0.6755308 -0.2954933 -0.6755308 0.3722671 0.07657763
7.601398 16.125 -7.601398 0.6966012 0.1717376 -0.696601 0.387731 0.267455
4.113847 3.1 -9.931705 0.3624069 -0.3211902 -0.8749275 0.4368765 0.07168457
4.113847 16.125 -9.931705 0.3768992 0.1732093 -0.9099151 0.4431846 0.2636103
0 36.82 -6.21282 -4.78313e-08 -0.6302615 -0.7763829 0.6810852 0.9366131
0 36.82 -6.034391 5.870245e-07 -0.8108481 -0.5852567 0.6810864 0.9339232
-4.266959 36.82 -4.266959 -0.4138401 -0.810847 -0.4138401 0.7447873 0.9339504
-4.393126 36.82 -4.393126 -0.5489851 -0.6302626 -0.548985 0.7447862 0.9365878
-6.21282 36.82 0 -0.776383 -0.6302615 4.583833e-08 0.8084872 0.9366678
-6.034391 36.82 0 -0.5852567 -0.8108481 -5.925513e-07 0.8084884 0.9339777
-4.266959 36.82 4.266959 -0.4138401 -0.810847 0.4138401 0.8721894 0.9340049
-4.393126 36.82 4.393126 -0.548985 -0.6302626 0.5489851 0.8721883 0.9366422
0 36.82 6.21282 4.583833e-08 -0.6302615 0.776383 0.9358892 0.9367758
0 36.82 6.034391 -5.925513e-07 -0.8108481 0.5852567 0.9358904 0.9340321
4.266959 36.82 4.266959 0.4138401 -0.810847 0.4138401 0.4899833 0.9338417
4.393126 36.82 4.393126 0.5489851 -0.6302626 0.548985 0.4899822 0.9364779
6.21282 36.82 0 0.776383 -0.6302615 -4.583833e-08 0.5536832 0.9365585
6.034391 36.82 0 0.5852567 -0.8108481 5.925513e-07 0.5536844 0.9338689
4.266959 36.82 -4.266959 0.4138401 -0.810847 -0.4138401 0.6173853 0.9338962
4.393126 36.82 -4.393126 0.548985 -0.6302626 -0.5489851 0.6173842 0.9365331
0 37.925 -6.21282 4.783125e-08 0.6302626 -0.7763821 0.6810778 0.9538628
4.393126 37.925 -4.393126 0.548985 0.6302626 -0.5489849 0.6173769 0.9537005
6.21282 37.925 0 0.7763821 0.6302626 4.783125e-08 0.5536758 0.9538066
4.393126 37.925 4.393126 0.5489849 0.6302626 0.548985 0.4899749 0.9536421
0 37.925 6.21282 -4.783125e-08 0.6302626 0.7763821 0.4262739 0.9535404
-4.393126 37.925 4.393126 -0.548985 0.6302626 0.5489849 0.8721809 0.9538123
-6.21282 37.925 0 -0.7763821 0.6302626 -4.783125e-08 0.8084798 0.9539195
-4.393126 37.925 -4.393126 -0.5489849 0.6302626 -0.548985 0.7447789 0.953757
-5.855963 37.925 0 -0.9597281 0.2809305 0 0.8084776 0.9591968
-4.14079 37.925 -4.14079 -0.6786305 0.2809298 -0.6786305 0.7447766 0.9591682
-4.14079 37.925 4.14079 -0.6786305 0.2809298 0.6786305 0.8721786 0.9592254
0 37.925 5.855963 0 0.2809298 0.9597284 0.9358796 0.959254
4.14079 37.925 4.14079 0.6786305 0.2809298 0.6786305 0.4899725 0.9590538
5.855963 37.925 0 0.9597281 0.2809305 0 0.5536736 0.9590824
4.14079 37.925 -4.14079 0.6786305 0.2809298 -0.6786305 0.6173745 0.959111
0 37.925 -5.855963 -4.051196e-09 0.2809297 -0.9597284 0.6810756 0.9591395
4.14079 29.425 -4.14079 0.6932405 0.1970665 -0.6932405 0.4176409 0.4812654
5.855963 29.425 0 0.9803901 0.1970665 -7.445611e-09 0.3409546 0.4935859
0 29.425 -5.855963 9.927482e-09 0.1970665 -0.9803901 0.4962929 0.477664
4.14079 29.425 4.14079 0.6932405 0.1970665 0.6932406 0.2689005 0.5142536
-4.14079 29.425 -4.14079 -0.6932405 0.1970665 -0.6932405 0.5748104 0.4829509
-5.855963 29.425 0 -0.9803901 0.1970665 -1.240935e-08 0.651042 0.4970129
-4.14079 29.425 4.14079 -0.6932405 0.1970665 0.6932405 0.7224324 0.5195401
0 29.425 5.855963 -1.240935e-08 0.1970665 0.9803901 0.785725 0.5508025
0 0 8.527291 -5.575705e-09 -0.8657868 0.5004132 0.001257449 0.09531021
6.029705 0 6.029705 0.3538456 -0.8657868 0.3538455 0.1096899 0.07093892
0 0 -8.527291 0 -0.8657867 -0.5004132 0.5027307 0.01020682
6.029705 0 -6.029705 0.3538455 -0.8657868 -0.3538455 0.366177 0.01654539
8.527291 0 0 0.5004132 -0.8657867 0 0.2333802 0.03832698
-6.029705 0 6.029705 -0.3538455 -0.8657868 0.3538455 0.8931324 0.08190733
-8.527291 0 0 -0.5004132 -0.8657867 0 0.7709737 0.04595736
-6.029705 0 -6.029705 -0.3538455 -0.8657868 -0.3538455 0.639025 0.02037576
4.266328 36.78302 -4.266328 0.7069007 -0.02412089 -0.7069014 0.4281052 0.5917466
0 36.78302 -6.033499 0 -0.02412086 -0.9997091 0.4942659 0.58823
6.033499 36.78302 0 0.9997091 -0.02412086 -1.026754e-08 0.3630843 0.6033984
4.266328 36.78302 4.266328 0.7069014 -0.02412089 0.7069007 0.2994964 0.6226209
0 36.78302 6.033499 1.026754e-08 -0.02412086 0.9997091 0.2343187 0.6453326
-4.266328 36.78302 4.266328 -0.7069007 -0.02412089 0.7069014 0.6894658 0.6245091
-6.033499 36.78302 0 -0.9997091 -0.02412086 1.026754e-08 0.6256815 0.604787
-4.266328 36.78302 -4.266328 -0.7069014 -0.02412089 -0.7069007 0.5604358 0.5925169
4.393126 38.0836 -4.393126 0.6157732 -0.4915803 -0.6157696 0.6173745 0.964848
0 38.0836 -6.21282 2.573396e-06 -0.4915802 -0.8708323 0.6810756 0.964848
6.21282 38.0836 0 0.8708323 -0.4915802 2.572134e-06 0.5536736 0.964848
4.393126 38.0836 4.393126 0.6157696 -0.4915803 0.6157733 0.4899725 0.964848
0 38.0836 6.21282 -2.572134e-06 -0.4915802 0.8708323 0.4262715 0.964848
-4.393126 38.0836 4.393126 -0.6157732 -0.4915803 0.6157696 0.8721786 0.964848
-6.21282 38.0836 0 -0.8708323 -0.4915802 -2.572134e-06 0.8084776 0.964848
-4.393126 38.0836 -4.393126 -0.6157696 -0.4915803 -0.6157733 0.7447766 0.964848
-4.393126 39.145 -4.393126 -0.548985 0.6302626 -0.548985 0.7447766 0.9823946
-4.14079 39.145 -4.14079 -0.2165587 0.9519478 -0.2165587 0.7447766 0.9881691
0 39.145 -5.855963 0 0.9519479 -0.3062602 0.6810756 0.9884939
0 39.145 -6.21282 0 0.6302626 -0.7763821 0.6810756 0.9827694
-6.21282 39.145 0 -0.7763821 0.6302626 0 0.8084776 0.9822751
-5.855963 39.145 0 -0.3062602 0.9519479 5.026871e-09 0.8084776 0.9878443
-4.393126 39.145 4.393126 -0.548985 0.6302626 0.548985 0.8721786 0.9819008
-4.14079 39.145 4.14079 -0.2165587 0.9519478 0.2165587 0.8721786 0.9875195
0 39.145 6.21282 0 0.6302626 0.7763821 0.9358796 0.9815719
0 39.145 5.855963 0 0.9519479 0.3062602 0.9358796 0.9871947
4.393126 39.145 4.393126 0.548985 0.6302626 0.548985 0.4899725 0.9833765
4.14079 39.145 4.14079 0.2165587 0.9519478 0.2165587 0.4899725 0.9894685
6.21282 39.145 0 0.7763821 0.6302626 0 0.5536736 0.9832641
5.855963 39.145 0 0.3062602 0.9519479 -5.026871e-09 0.5536736 0.9891436
4.393126 39.145 -4.393126 0.548985 0.6302626 -0.548985 0.6173745 0.9828874
4.14079 39.145 -4.14079 0.2165587 0.9519478 -0.2165587 0.6173745 0.9888188
-3.178057 40.585 -3.178057 -0.4059314 0.8188037 -0.4059314 0.2103857 0.745349
0 40.585 -4.494452 0 0.8188037 -0.5740737 0.1903903 0.7917298
3.178057 40.585 -3.178057 0.4059314 0.8188037 -0.4059314 0.2110471 0.8381504
4.494452 40.585 0 0.5740737 0.8188037 -1.042804e-08 0.2580136 0.8568333
3.178057 40.585 3.178057 0.4059314 0.8188037 0.4059314 0.3044914 0.8369576
0 40.585 4.494452 0 0.8188037 0.5740737 0.323343 0.7899697
-3.178057 40.585 3.178057 -0.4059314 0.8188037 0.4059314 0.3033783 0.7433602
-4.494452 40.585 0 -0.5740737 0.8188037 1.042804e-08 0.2562529 0.7246904
0 42.025 0 0 1 0 0.2571631 0.7908797
-4.393126 38.08891 -4.393126 -0.7071082 0 -0.7071054 0.7447766 0.9649355
0 38.08891 -6.21282 -1.971442e-06 0 -1 0.6810756 0.9649374
-6.21282 38.08891 0 -1 0 1.971442e-06 0.8084776 0.9649349
-4.393126 38.08891 4.393126 -0.7071054 0 0.7071082 0.8721786 0.964933
0 38.08891 6.21282 1.971442e-06 0 1 0.9358796 0.9649317
4.393126 38.08891 4.393126 0.7071082 0 0.7071054 0.4899725 0.9649405
6.21282 38.08891 0 1 0 -1.971442e-06 0.5536736 0.96494
4.393126 38.08891 -4.393126 0.7071054 0 -0.7071082 0.6173745 0.964938
1.830127 42.425 0 1 -3.357696e-07 0 0.7670512 0.8165528
1.131352 43.82788 -1.131352 0.6007224 0.5275087 -0.6007224 0.7504455 0.7932274
1.306046 44.04449 0 0.751268 0.6599973 0 0.7670512 0.7939692
1.306046 42.425 -1.306046 0.7071068 -2.075698e-07 -0.7071068 0.7451315 0.8157005
1.131352 43.82788 1.131352 0.6007223 0.5275087 0.6007223 0.7836568 0.7932274
1.306046 42.425 1.306046 0.7071068 -2.075698e-07 0.7071068 0.7889709 0.8157005
0 42.425 1.830127 0 -3.165042e-07 1 0.8069819 0.7766219
0 44.04449 1.306046 0 0.6599973 0.751268 0.7843986 0.7766219
0 44.69436 0 0 1 1.233586e-08 0.7670512 0.7766219
-1.131352 43.82788 1.131352 -0.6007223 0.5275087 0.6007223 0.783657 0.7600162
-1.306046 44.04449 0 -0.751268 0.6599973 0 0.7670512 0.7592747
0 44.04449 -1.306046 0 0.6599973 -0.751268 0.7497041 0.7766219
0 42.425 -1.830127 0 -3.220086e-07 -1 0.7271207 0.7766218
-1.131352 43.82788 -1.131352 -0.6007223 0.5275087 -0.6007223 0.7504456 0.7600163
-1.306046 42.425 -1.306046 -0.7071068 -2.075698e-07 -0.7071068 0.7279729 0.7547023
-1.830127 42.425 0 -1 -3.357696e-07 0 0.7670512 0.7366912
-1.306046 42.425 1.306046 -0.7071068 -2.075698e-07 0.7071068 0.7889708 0.7375433
1.131352 41.02212 1.131352 0.6803365 -0.272552 0.6803365 0.8298768 0.7958671
0 40.80551 1.306046 0 -0.3078888 0.9514224 0.8332918 0.7766219
-1.131352 41.02212 1.131352 -0.6803365 -0.272552 0.6803365 0.8298769 0.757377
-1.306046 40.80551 0 -0.9514224 -0.3078888 0 0.7670511 0.7103813
-1.131352 41.02212 -1.131352 -0.6803365 -0.272552 -0.6803365 0.7478061 0.7137964
1.131352 41.02212 -1.131352 0.6803365 -0.272552 -0.6803364 0.747806 0.8394479
1.306046 40.80551 0 0.9514224 -0.3078888 0 0.7670512 0.8428628
0 40.80551 -1.306046 0 -0.3078888 -0.9514224 0.7008109 0.7766218
0 16.125 10.75 0 0.1717377 0.9851428 0.054934 0.3689407
0 3.1 10.75 -2.627082e-09 -0.2954933 0.9553449 0 0.1589169
0 36.82 6.21282 4.583833e-08 -0.6302615 0.776383 0.4262811 0.9365568
0 36.82 6.034391 -5.925513e-07 -0.8108481 0.5852567 0.4262823 0.9338145
0 37.925 6.21282 -4.783125e-08 0.6302626 0.7763821 0.935882 0.9537668
0 37.925 5.855963 0 0.2809298 0.9597284 0.4262715 0.9590252
0 29.425 5.855963 -1.240935e-08 0.1970665 0.9803901 0.2054532 0.5437419
0 0 8.527291 -5.575705e-09 -0.8657868 0.5004132 1 0.1089473
4.266959 36.82 -4.266959 0.4138401 -0.810847 -0.4138401 0.4281659 0.5922993
0 36.82 -6.034391 5.870245e-07 -0.8108481 -0.5852567 0.4942631 0.588787
6.034391 36.82 0 0.5852567 -0.8108481 5.925513e-07 0.3632074 0.6039394
4.266959 36.82 4.266959 0.4138401 -0.810847 0.4138401 0.2996573 0.6231492
0 36.82 6.034391 -5.925513e-07 -0.8108481 0.5852567 0.2344812 0.6458572
-4.266959 36.82 4.266959 -0.4138401 -0.810847 0.4138401 0.6892839 0.6250354
0 36.78302 6.033499 1.026754e-08 -0.02412086 0.9997091 0.7523052 0.6490221
0 36.82 6.034391 -5.925513e-07 -0.8108481 0.5852567 0.752111 0.6495442
-6.034391 36.82 0 -0.5852567 -0.8108481 -5.925513e-07 0.6255481 0.6053268
-4.266959 36.82 -4.266959 -0.4138401 -0.810847 -0.4138401 0.5603696 0.5930689
0 0 -8.527291 0 -0.8657867 -0.5004132 0.5493293 0.6214703
6.029705 0 -6.029705 0.3538455 -0.8657868 -0.3538455 0.6400993 0.6590684
6.029705 0 6.029705 0.3538456 -0.8657868 0.3538455 0.6400993 0.8406082
0 0 8.527291 -5.575705e-09 -0.8657868 0.5004132 0.5493293 0.8782065
8.527291 0 0 0.5004132 -0.8657867 0 0.6776974 0.7498384
-6.029705 0 6.029705 -0.3538455 -0.8657868 0.3538455 0.4585594 0.8406082
-6.029705 0 -6.029705 -0.3538455 -0.8657868 -0.3538455 0.4585594 0.6590684
-8.527291 0 0 -0.5004132 -0.8657867 0 0.4209613 0.7498384
0 38.0836 6.21282 -2.572134e-06 -0.4915802 0.8708323 0.9358796 0.964848
0 39.145 5.855963 0 0.9519479 0.3062602 0.4262715 0.9897932
0 39.145 6.21282 0 0.6302626 0.7763821 0.4262715 0.9835167
0 39.145 -5.855963 0 0.9519479 -0.3062602 0.1588474 0.7919673
-4.14079 39.145 -4.14079 -0.2165587 0.9519478 -0.2165587 0.1866148 0.7219644
4.14079 39.145 -4.14079 0.2165587 0.9519478 -0.2165587 0.1878504 0.8603063
5.855963 39.145 0 0.3062602 0.9519479 -5.026871e-09 0.2570148 0.8890728
4.14079 39.145 4.14079 0.2165587 0.9519478 0.2165587 0.3266069 0.8605701
0 39.145 5.855963 0 0.9519479 0.3062602 0.3557586 0.791026
-4.14079 39.145 4.14079 -0.2165587 0.9519478 0.2165587 0.3270714 0.7210819
-5.855963 39.145 0 -0.3062602 0.9519479 5.026871e-09 0.2570148 0.6920037
0 38.08891 6.21282 1.971442e-06 0 1 0.4262715 0.9649414
1.306046 42.425 1.306046 0.7071068 -2.075698e-07 0.7071068 0.8061297 0.7985415
1.306046 42.425 -1.306046 0.7071068 -2.075698e-07 -0.7071068 0.7279727 0.7985413
-1.306046 42.425 -1.306046 -0.7071068 -2.075698e-07 -0.7071068 0.7451316 0.7375435
-1.306046 42.425 1.306046 -0.7071068 -2.075698e-07 0.7071068 0.8061298 0.7547023
-1.131352 41.02212 1.131352 -0.6803365 -0.272552 0.6803365 0.7862961 0.7137963
1.131352 41.02212 1.131352 0.6803365 -0.272552 0.6803365 0.7862964 0.8394479
1.131352 41.02212 -1.131352 0.6803365 -0.272552 -0.6803364 0.7042258 0.7958667
-1.131352 41.02212 -1.131352 -0.6803365 -0.272552 -0.6803365 0.7042258 0.7573768
3 0 1 2 
3 0 2 3 
3 3 2 4 
3 3 4 5 
3 5 4 6 
3 5 6 7 
3 7 6 8 
3 7 8 9 
3 9 8 10 
3 9 10 11 
3 11 10 12 
3 11 12 13 
3 13 12 14 
3 13 14 15 
3 15 14 16 
3 15 16 17 
3 154 155 18 
3 154 18 19 
3 19 18 20 
3 19 20 21 
3 21 20 22 
3 21 22 23 
3 23 22 24 
3 23 24 25 
3 25 24 26 
3 25 26 27 
3 27 26 28 
3 27 28 29 
3 29 28 30 
3 29 30 31 
3 31 30 1 
3 31 1 0 
3 32 33 34 
3 32 34 35 
3 36 35 34 
3 36 34 37 
3 36 37 38 
3 36 38 39 
3 40 39 38 
3 40 38 41 
3 156 157 42 
3 156 42 43 
3 44 43 42 
3 44 42 45 
3 44 45 46 
3 44 46 47 
3 32 47 46 
3 32 46 33 
3 32 48 49 
3 32 49 47 
3 47 49 50 
3 47 50 44 
3 44 50 51 
3 44 51 43 
3 43 51 52 
3 43 52 156 
3 40 158 53 
3 40 53 39 
3 39 53 54 
3 39 54 36 
3 36 54 55 
3 36 55 35 
3 35 55 48 
3 35 48 32 
3 55 54 56 
3 55 56 57 
3 53 58 56 
3 53 56 54 
3 53 158 59 
3 53 59 58 
3 51 60 159 
3 51 159 52 
3 51 50 61 
3 51 61 60 
3 49 62 61 
3 49 61 50 
3 49 48 63 
3 49 63 62 
3 55 57 63 
3 55 63 48 
3 27 29 64 
3 65 27 64 
3 65 25 27 
3 64 29 31 
3 64 31 66 
3 31 0 66 
3 65 23 25 
3 65 67 23 
3 67 21 23 
3 68 3 5 
3 68 66 3 
3 66 0 3 
3 68 5 7 
3 68 7 69 
3 7 9 69 
3 69 9 11 
3 70 11 13 
3 70 69 11 
3 70 13 15 
3 71 15 17 
3 71 70 15 
3 160 154 19 
3 160 19 67 
3 19 21 67 
3 72 18 155 
3 72 73 18 
3 73 20 18 
3 1 30 74 
3 75 74 30 
3 30 28 75 
3 28 26 75 
3 76 75 26 
3 26 24 76 
3 24 22 76 
3 73 76 22 
3 22 20 73 
3 16 14 161 
3 77 161 14 
3 14 12 77 
3 12 10 77 
3 78 77 10 
3 10 8 78 
3 8 6 78 
3 79 78 6 
3 6 4 79 
3 4 2 79 
3 74 79 2 
3 2 1 74 
3 162 80 81 
3 162 81 163 
3 80 64 66 
3 80 66 81 
3 164 82 80 
3 164 80 162 
3 82 65 64 
3 82 64 80 
3 165 83 82 
3 165 82 164 
3 83 67 65 
3 83 65 82 
3 166 84 83 
3 166 83 165 
3 84 160 67 
3 84 67 83 
3 167 85 168 
3 167 168 169 
3 85 70 71 
3 85 71 168 
3 170 86 85 
3 170 85 167 
3 86 69 70 
3 86 70 85 
3 171 87 86 
3 171 86 170 
3 87 68 69 
3 87 69 86 
3 163 81 87 
3 163 87 171 
3 81 66 68 
3 81 68 87 
3 172 173 174 
3 172 174 175 
3 173 176 174 
3 172 175 177 
3 172 177 178 
3 177 179 178 
3 88 62 63 
3 88 63 89 
3 88 90 61 
3 88 61 62 
3 91 60 61 
3 91 61 90 
3 91 92 159 
3 91 159 60 
3 93 58 59 
3 93 59 180 
3 93 94 56 
3 93 56 58 
3 95 57 56 
3 95 56 94 
3 95 89 63 
3 95 63 57 
3 96 97 98 
3 96 98 99 
3 96 100 101 
3 96 101 97 
3 102 103 101 
3 102 101 100 
3 102 104 105 
3 102 105 103 
3 106 107 181 
3 106 181 182 
3 106 108 109 
3 106 109 107 
3 110 111 109 
3 110 109 108 
3 110 99 98 
3 110 98 111 
3 183 184 112 
3 183 112 113 
3 183 113 114 
3 183 114 185 
3 185 114 115 
3 185 115 186 
3 186 115 116 
3 186 116 187 
3 187 116 117 
3 187 117 188 
3 188 117 118 
3 188 118 189 
3 189 118 119 
3 189 119 190 
3 190 119 112 
3 190 112 184 
3 120 112 119 
3 120 119 118 
3 120 118 117 
3 120 117 116 
3 120 116 115 
3 120 115 114 
3 120 114 113 
3 120 113 112 
3 95 121 122 
3 95 122 89 
3 121 96 99 
3 121 99 122 
3 94 123 121 
3 94 121 95 
3 123 100 96 
3 123 96 121 
3 93 124 123 
3 93 123 94 
3 124 102 100 
3 124 100 123 
3 180 125 124 
3 180 124 93 
3 125 104 102 
3 125 102 124 
3 91 126 191 
3 91 191 92 
3 126 106 182 
3 126 182 191 
3 90 127 126 
3 90 126 91 
3 127 108 106 
3 127 106 126 
3 88 128 127 
3 88 127 90 
3 128 110 108 
3 128 108 127 
3 89 122 128 
3 89 128 88 
3 122 99 110 
3 122 110 128 
3 129 130 131 
3 129 132 130 
3 129 133 134 
3 129 131 133 
3 135 133 136 
3 135 192 133 
3 137 133 131 
3 137 136 133 
3 137 138 136 
3 137 139 138 
3 137 130 140 
3 137 131 130 
3 141 130 193 
3 141 140 130 
3 141 142 140 
3 141 143 142 
3 144 142 194 
3 144 139 142 
3 137 142 139 
3 137 140 142 
3 144 138 139 
3 144 145 138 
3 135 138 195 
3 135 136 138 
3 135 146 192 
3 135 147 146 
3 135 148 147 
3 135 195 148 
3 144 196 145 
3 144 149 196 
3 144 150 149 
3 144 194 150 
3 129 151 132 
3 129 152 151 
3 129 197 152 
3 129 134 197 
3 141 198 153 
3 141 193 198 
3 141 199 143 
3 141 153 199 
