ply
format ascii 1.0
comment VCGLIB generated
comment TextureFile cemetery_halloween_atlas.tga
element vertex 63
property float x
property float y
property float z
property float nx
property float ny
property float nz
property float texture_u
property float texture_v
element face 80
property list uchar int vertex_indices
end_header
16.13577 5.218019 16.13578 0.5681457 -0.5715177 0.5920963 0.4124349 0.1861979
19.57114 27.60047 19.5711 0.7065173 0.04082482 0.7065173 0.4124349 0.2044271
0 27.60047 27.67774 -4.505345e-08 0.04082559 0.9991663 0.4348958 0.2044271
0 5.218023 22.81943 0.0169348 -0.5715177 0.820415 0.4348958 0.1861979
22.81944 5.218018 1.440867e-05 0.8204147 -0.5715182 -0.01693471 0.3880208 0.1861979
27.67776 27.60047 -2.738487e-05 0.9991664 0.0408234 -9.010684e-08 0.3880208 0.2044271
16.13577 5.218015 -16.13575 0.5920954 -0.5715189 -0.5681456 0.3652344 0.1861979
19.57114 27.60047 -19.57117 0.7065175 0.04082197 -0.7065173 0.3652344 0.2044271
1.525879e-05 5.218016 -22.8194 -0.01693466 -0.5715194 -0.8204139 0.5257161 0.1861979
1.525879e-05 27.60047 -27.6778 3.041108e-07 0.04082143 -0.9991665 0.5257161 0.2044271
-16.13576 5.218017 -16.13575 -0.5681458 -0.571519 -0.592095 0.5016276 0.1861979
-19.57112 27.60047 -19.57117 -0.7065173 0.04082195 -0.7065173 0.5016276 0.2044271
-22.81941 5.218018 1.440867e-05 -0.8204144 -0.5715186 0.0169348 0.4791667 0.1861979
-27.67776 27.60047 -2.738487e-05 -0.9991664 0.04082368 -4.280078e-07 0.4791667 0.2044271
-16.13577 5.21802 16.13578 -0.5920955 -0.571518 0.5681463 0.4563802 0.1861979
-19.57115 27.60048 19.5711 -0.7065175 0.04082526 0.706517 0.4570312 0.2044271
-5.228638 0.1026384 12.62306 -0.1140461 -0.9545605 0.2753319 0.445638 0.1669922
12.62306 0.1026334 5.228668 0.2753316 -0.9545606 0.1140467 0.4049479 0.1669922
5.228668 0.1026305 -12.62303 0.1140466 -0.9545605 -0.2753317 0.3769531 0.1669922
-12.62303 0.1026317 -5.228622 -0.2753315 -0.9545607 -0.1140461 0.4876302 0.1669922
16.13577 43.2878 16.1357 0.5816123 0.5361218 0.611801 0.4124349 0.226888
0 43.2878 22.81934 0.02134605 0.5361222 0.8438705 0.4348958 0.226888
22.81944 43.2878 -6.045824e-05 0.8438711 0.5361212 -0.02134685 0.3880208 0.226888
16.13577 43.28779 -16.13585 0.6118012 0.5361205 -0.5816134 0.3652344 0.226888
1.525879e-05 43.28779 -22.81949 -0.02134615 0.5361204 -0.8438716 0.5257161 0.226888
-16.13576 43.28779 -16.13585 -0.5816126 0.5361205 -0.6118019 0.5016276 0.226888
-22.81941 43.2878 -8.334642e-05 -0.843871 0.5361214 0.02134539 0.4791667 0.226888
-16.13577 43.2878 16.13568 -0.6118013 0.5361224 0.5816116 0.4570312 0.226888
12.86603 51.36505 5.32923 0.3367671 0.9311979 0.1394937 0.405599 0.2447917
-5.329269 51.36506 12.86597 -0.1394936 0.9311975 0.336768 0.4466146 0.2447917
5.329285 51.36505 -12.86609 0.1394936 0.9311978 -0.3367672 0.3769531 0.2447917
-12.86601 51.36506 -5.329347 -0.3367672 0.9311978 -0.1394936 0.4892578 0.2447917
1.525879e-05 48.26014 -6.126834e-05 -1.025608e-08 1 -7.692059e-09 0.3505859 0.219401
-2.265152 45.29823 -3.834617 -0.528192 0.1561432 -0.8346452 0.5644531 0.2753906
-0.7365112 56.63757 -2.746347 -0.6361711 0.2644355 -0.7248174 0.5644531 0.2926432
2.391006 56.60419 -2.665643 0.6836606 0.2431183 -0.6881146 0.5748698 0.2926432
3.843781 45.29823 -3.834617 0.5292262 0.1717926 -0.8309073 0.5748698 0.2753906
-2.265152 48.2601 1.47895 -0.80213 0.2532335 0.540796 0.5546875 0.2753906
-0.8123932 55.71004 -0.1890197 -0.7498234 0.08983743 0.6555105 0.5546875 0.2926432
3.843781 48.2601 1.47895 0.8099189 0.2814665 0.514595 0.5849609 0.2753906
2.31514 55.67667 -0.1083312 0.7295994 0.05490847 0.681667 0.5849609 0.2926432
-0.1801758 64.43524 0.8338289 -0.5360398 0.7907267 -0.2956563 0.5644531 0.311849
1.819305 64.40587 0.8969164 0.5746349 0.7759104 -0.2603037 0.5748698 0.311849
-0.2406921 63.70241 2.411031 -0.5809818 0.3483851 0.7355868 0.5546875 0.311849
1.758774 63.67303 2.474103 0.5413519 0.3331359 0.7719836 0.5849609 0.311849
19.57114 27.60047 -19.57117 0.7065175 0.04082197 -0.7065173 0.5478516 0.2044271
16.13577 5.218015 -16.13575 0.5920954 -0.5715189 -0.5681456 0.5478516 0.1861979
5.228668 0.1026305 -12.62303 0.1140466 -0.9545605 -0.2753317 0.5247396 0.1669922
-12.62303 0.1026317 -5.228622 -0.2753315 -0.9545607 -0.1140461 0.3639323 0.2047526
5.228668 0.1026305 -12.62303 0.1140466 -0.9545605 -0.2753317 0.3369141 0.2047526
-5.228638 0.1026384 12.62306 -0.1140461 -0.9545605 0.2753319 0.3639323 0.1787109
16.13577 43.28779 -16.13585 0.6118012 0.5361205 -0.5816134 0.5478516 0.226888
5.329285 51.36505 -12.86609 0.1394936 0.9311978 -0.3367672 0.5263672 0.2447917
12.86603 51.36505 5.32923 0.3367671 0.9311979 0.1394937 0.3639323 0.2060547
-5.329269 51.36506 12.86597 -0.1394936 0.9311975 0.336768 0.3369141 0.2060547
5.329285 51.36505 -12.86609 0.1394936 0.9311978 -0.3367672 0.3639323 0.2327474
-12.86601 51.36506 -5.329347 -0.3367672 0.9311978 -0.1394936 0.3369141 0.2324219
-0.8123932 55.71004 -0.1890197 -0.7498234 0.08983743 0.6555105 0.5947266 0.2926432
-2.265152 48.2601 1.47895 -0.80213 0.2532335 0.540796 0.5947266 0.2753906
-0.2406921 63.70241 2.411031 -0.5809818 0.3483851 0.7355868 0.5947266 0.311849
1.758774 63.67303 2.474103 0.5413519 0.3331359 0.7719836 0.5546875 0.319987
1.819305 64.40587 0.8969164 0.5746349 0.7759104 -0.2603037 0.5644531 0.319987
12.62306 0.1026334 5.228668 0.2753316 -0.9545606 0.1140467 0.3369141 0.1787109
3 0 1 2 
3 2 3 0 
3 4 5 1 
3 1 0 4 
3 6 7 5 
3 5 4 6 
3 8 9 45 
3 45 46 8 
3 10 11 9 
3 9 8 10 
3 12 13 11 
3 11 10 12 
3 14 15 13 
3 13 12 14 
3 3 2 15 
3 15 14 3 
3 0 3 16 
3 16 17 0 
3 4 0 17 
3 6 4 17 
3 17 18 6 
3 8 46 47 
3 10 8 47 
3 47 19 10 
3 12 10 19 
3 14 12 19 
3 19 16 14 
3 3 14 16 
3 48 49 50 
3 20 21 2 
3 2 1 20 
3 22 20 1 
3 1 5 22 
3 23 22 5 
3 5 7 23 
3 24 51 45 
3 45 9 24 
3 25 24 9 
3 9 11 25 
3 26 25 11 
3 11 13 26 
3 27 26 13 
3 13 15 27 
3 21 27 15 
3 15 2 21 
3 20 28 29 
3 29 21 20 
3 22 28 20 
3 23 30 28 
3 28 22 23 
3 24 52 51 
3 25 31 52 
3 52 24 25 
3 26 31 25 
3 27 29 31 
3 31 26 27 
3 21 29 27 
3 53 32 54 
3 55 32 53 
3 56 32 55 
3 54 32 56 
3 33 34 35 
3 35 36 33 
3 37 38 34 
3 34 33 37 
3 39 40 57 
3 57 58 39 
3 36 35 40 
3 40 39 36 
3 41 42 35 
3 35 34 41 
3 43 41 34 
3 34 38 43 
3 44 59 57 
3 57 40 44 
3 42 44 40 
3 40 35 42 
3 43 60 61 
3 61 41 43 
3 49 62 50 
