ply
format ascii 1.0
comment VCGLIB generated
comment TextureFile cemetery_halloween_atlas.tga
element vertex 63
property float x
property float y
property float z
property float nx
property float ny
property float nz
property float texture_u
property float texture_v
element face 80
property list uchar int vertex_indices
end_header
13.71542 3.223051 14.04986 0.5913499 -0.5198677 0.6164761 0.4124349 0.02148438
16.63547 29.30175 12.3745 0.7071208 0.1870255 0.6819104 0.4124349 0.04003906
7.629394e-06 30.4983 19.16045 0.0001773629 0.2410052 0.9705238 0.4348958 0.04003906
7.629394e-06 2.727915 19.70934 0.01972215 -0.5112727 0.8591922 0.4348958 0.02148438
19.39652 4.418428 0.3866463 0.8352762 -0.5495846 -0.01644724 0.3880208 0.02148438
23.52611 26.41304 -4.00824 0.998739 0.04737353 -0.01661868 0.3880208 0.04003906
13.71542 5.613804 -13.27657 0.5768763 -0.6067662 -0.5468534 0.3652344 0.02148438
16.63547 23.52431 -20.39098 0.7014654 -0.1047591 -0.7049623 0.3652344 0.04003906
1.525879e-05 6.108946 -18.93604 -0.008368624 -0.6435206 -0.7653831 0.5257161 0.02148438
1.525879e-05 22.32777 -27.17693 0.00373431 -0.1673385 -0.9858925 0.5257161 0.04003906
-13.71538 5.613806 -13.27657 -0.5448046 -0.6170855 -0.5677971 0.5016276 0.02148438
-16.63545 23.52432 -20.39098 -0.7000067 -0.09457394 -0.7078463 0.5016276 0.04003906
-19.39649 4.418428 0.3866463 -0.8287829 -0.559179 0.02092563 0.4791667 0.02148438
-23.52608 26.41304 -4.00824 -0.9982863 0.05662518 -0.01476736 0.4791667 0.04003906
-13.7154 3.223053 14.04986 -0.6159953 -0.5201843 0.5915726 0.4563802 0.02148438
-16.63546 29.30175 12.3745 -0.7056722 0.189801 0.6826437 0.4570312 0.04003906
-4.444339 -0.8482475 10.69645 -0.1140462 -0.9749249 0.1910889 0.445638 0.002604167
10.72961 -0.300457 4.435135 0.2753318 -0.960868 0.03041724 0.4049479 0.002604167
4.444358 1.022041 -10.68108 0.1140462 -0.9269314 -0.3574797 0.3769531 0.002604167
-10.72958 0.4742432 -4.419743 -0.2753321 -0.9409883 -0.1968077 0.4876302 0.002604167
13.71542 41.92633 7.183296 0.5506452 0.695747 0.4612223 0.4124349 0.06217448
7.629394e-06 42.91285 12.77808 0.01724275 0.7341136 0.6788077 0.4348958 0.06217448
19.39652 39.54468 -6.323723 0.7959735 0.5928991 -0.1220531 0.3880208 0.06217448
13.71542 37.16302 -19.83078 0.5750309 0.5002742 -0.6473525 0.3652344 0.06217448
1.525879e-05 36.17651 -25.42557 -0.01724292 0.4576734 -0.8889532 0.5257161 0.06217448
-13.71538 37.16302 -19.83078 -0.5506456 0.4960398 -0.6713672 0.5016276 0.06217448
-19.39649 39.54468 -6.323738 -0.7959732 0.5988877 -0.08809173 0.4791667 0.06217448
-13.7154 41.92633 7.183281 -0.575031 0.6915126 0.4372065 0.4570312 0.06217448
10.93613 44.61331 -2.61768 0.2324985 0.9698369 -0.07321844 0.405599 0.08007812
-4.529876 45.72574 3.691223 -0.09630419 0.9934867 0.06090741 0.4466146 0.08007812
4.529903 41.92767 -17.84874 0.09630384 0.9127413 -0.3970252 0.3769531 0.08007812
-10.9361 43.04009 -11.53983 -0.2324982 0.9363911 -0.2629002 0.4892578 0.08007812
1.525879e-05 41.22762 -6.620476 5.12804e-09 0.9848078 -0.1736479 0.3505859 0.0546875
-1.925377 40.6616 -9.830326 -0.5735687 0.3145397 -0.7563622 0.5644531 0.2753906
-0.6260299 52.2052 -6.080776 -0.7603509 0.07943605 -0.6446366 0.5644531 0.2926432
2.032364 52.18917 -6.008293 0.7995099 0.08150403 -0.5950975 0.5748698 0.2926432
3.267219 40.6616 -9.830326 0.5740132 0.3185581 -0.7543405 0.5748698 0.2753906
-1.925377 41.44589 -5.382416 -0.8020708 0.002428571 0.597224 0.5546875 0.2753906
-0.6905212 51.80624 -3.803165 -0.6492715 0.145934 0.7464246 0.5546875 0.2926432
3.267219 41.44589 -5.382416 0.8042908 0.009864194 0.5941541 0.5849609 0.2753906
1.967873 51.79021 -3.730686 0.6140875 0.1397236 0.7767715 0.5849609 0.2926432
-0.1531334 59.26096 -8.309891 -0.5153021 0.5885248 -0.6229786 0.5644531 0.311849
1.546421 59.24569 -8.252739 0.5547266 0.5867828 -0.5898852 0.5748698 0.311849
-0.2045784 58.88032 -6.881466 -0.6126747 0.6174434 0.4933492 0.5546875 0.311849
1.494976 58.86504 -6.824345 0.5693478 0.6231058 0.5362671 0.5849609 0.311849
16.63547 23.52431 -20.39098 0.7014654 -0.1047591 -0.7049623 0.5478516 0.04003906
13.71542 5.613804 -13.27657 0.5768763 -0.6067662 -0.5468534 0.5478516 0.02148438
4.444358 1.022041 -10.68108 0.1140462 -0.9269314 -0.3574797 0.5247396 0.002604167
-10.72958 0.4742432 -4.419743 -0.2753321 -0.9409883 -0.1968077 0.3639323 0.04069011
4.444358 1.022041 -10.68108 0.1140462 -0.9269314 -0.3574797 0.3369141 0.04069011
-4.444339 -0.8482475 10.69645 -0.1140462 -0.9749249 0.1910889 0.3639323 0.01432292
13.71542 37.16302 -19.83078 0.5750309 0.5002742 -0.6473525 0.5478516 0.06217448
4.529903 41.92767 -17.84874 0.09630384 0.9127413 -0.3970252 0.5263672 0.08007812
10.93613 44.61331 -2.61768 0.2324985 0.9698369 -0.07321844 0.3639323 0.04166667
-4.529876 45.72574 3.691223 -0.09630419 0.9934867 0.06090741 0.3369141 0.04166667
4.529903 41.92767 -17.84874 0.09630384 0.9127413 -0.3970252 0.3639323 0.06803385
-10.9361 43.04009 -11.53983 -0.2324982 0.9363911 -0.2629002 0.3369141 0.06803385
-0.6905212 51.80624 -3.803165 -0.6492715 0.145934 0.7464246 0.5947266 0.2926432
-1.925377 41.44589 -5.382416 -0.8020708 0.002428571 0.597224 0.5947266 0.2753906
-0.2045784 58.88032 -6.881466 -0.6126747 0.6174434 0.4933492 0.5947266 0.311849
1.494976 58.86504 -6.824345 0.5693478 0.6231058 0.5362671 0.5546875 0.319987
1.546421 59.24569 -8.252739 0.5547266 0.5867828 -0.5898852 0.5644531 0.319987
10.72961 -0.300457 4.435135 0.2753318 -0.960868 0.03041724 0.3369141 0.01432292
3 0 1 2 
3 2 3 0 
3 4 5 1 
3 1 0 4 
3 6 7 5 
3 5 4 6 
3 8 9 45 
3 45 46 8 
3 10 11 9 
3 9 8 10 
3 12 13 11 
3 11 10 12 
3 14 15 13 
3 13 12 14 
3 3 2 15 
3 15 14 3 
3 0 3 16 
3 16 17 0 
3 4 0 17 
3 6 4 17 
3 17 18 6 
3 8 46 47 
3 10 8 47 
3 47 19 10 
3 12 10 19 
3 14 12 19 
3 19 16 14 
3 3 14 16 
3 48 49 50 
3 20 21 2 
3 2 1 20 
3 22 20 1 
3 1 5 22 
3 23 22 5 
3 5 7 23 
3 24 51 45 
3 45 9 24 
3 25 24 9 
3 9 11 25 
3 26 25 11 
3 11 13 26 
3 27 26 13 
3 13 15 27 
3 21 27 15 
3 15 2 21 
3 20 28 29 
3 29 21 20 
3 22 28 20 
3 23 30 28 
3 28 22 23 
3 24 52 51 
3 25 31 52 
3 52 24 25 
3 26 31 25 
3 27 29 31 
3 31 26 27 
3 21 29 27 
3 53 32 54 
3 55 32 53 
3 56 32 55 
3 54 32 56 
3 33 34 35 
3 35 36 33 
3 37 38 34 
3 34 33 37 
3 39 40 57 
3 57 58 39 
3 36 35 40 
3 40 39 36 
3 41 42 35 
3 35 34 41 
3 43 41 34 
3 34 38 43 
3 44 59 57 
3 57 40 44 
3 42 44 40 
3 40 35 42 
3 43 60 61 
3 61 41 43 
3 49 62 50 
