ply
format ascii 1.0
comment VCGLIB generated
comment TextureFile cemetery_halloween_atlas.tga
element vertex 63
property float x
property float y
property float z
property float nx
property float ny
property float nz
property float texture_u
property float texture_v
element face 80
property list uchar int vertex_indices
end_header
16.13578 5.218016 16.13586 0.549824 -0.6077461 0.5730081 0.4124349 0.1044922
19.57114 20.90534 19.57118 0.7071066 1.340337e-06 0.7071069 0.4124349 0.1233724
8.949279e-06 20.90534 27.67781 -1.381375e-07 1.804965e-06 1 0.4348958 0.1233724
8.949279e-06 5.218019 22.8195 0.01639279 -0.607746 0.7939623 0.4348958 0.1044922
22.81944 5.218018 9.155273e-05 0.7939617 -0.6077468 -0.01639238 0.3880208 0.1044922
27.67778 20.90534 5.340576e-05 1 -3.165651e-08 2.532522e-07 0.3880208 0.1233724
16.13578 5.218018 -16.13568 0.5730068 -0.6077476 -0.5498238 0.3652344 0.1044922
19.57115 20.90534 -19.57109 0.7071066 -1.682803e-06 -0.7071069 0.3652344 0.1233724
1.789856e-05 5.218019 -22.81932 -0.01639277 -0.6077481 -0.7939607 0.5257161 0.1044922
1.789856e-05 20.90535 -27.67772 2.072064e-07 -2.305714e-06 -1 0.5257161 0.1233724
-16.13575 5.218019 -16.13568 -0.5498238 -0.6077476 -0.5730067 0.5016276 0.1044922
-19.57112 20.90535 -19.57109 -0.7071068 -1.662658e-06 -0.7071068 0.5016276 0.1233724
-22.8194 5.218018 9.155273e-05 -0.7939616 -0.6077469 0.01639294 0.4791667 0.1044922
-27.67775 20.90535 5.340576e-05 -1 5.180156e-08 -1.956948e-07 0.4791667 0.1233724
-16.13576 5.218018 16.13586 -0.5730072 -0.6077462 0.5498248 0.4563802 0.1044922
-19.57113 20.90534 19.57118 -0.7071069 1.607979e-06 0.7071067 0.4570312 0.1233724
-5.228634 0.1026363 12.62314 -0.1140462 -0.9545605 0.275332 0.445638 0.0859375
12.62307 0.1026325 5.228745 0.2753318 -0.9545605 0.1140466 0.4049479 0.0859375
5.228656 0.1026325 -12.62296 0.1140461 -0.9545606 -0.2753319 0.3769531 0.0859375
-12.62304 0.1026325 -5.228546 -0.2753319 -0.9545605 -0.1140463 0.4876302 0.0859375
16.13578 36.59267 16.13579 0.5506453 0.6050863 0.5750307 0.4124349 0.1455078
8.949279e-06 36.59267 22.81943 0.01724277 0.6050867 0.7959729 0.4348958 0.1455078
22.81944 36.59267 1.525879e-05 0.7959732 0.6050861 -0.01724313 0.3880208 0.1455078
16.13578 36.59267 -16.13577 0.5750308 0.6050855 -0.5506461 0.3652344 0.1455078
1.789856e-05 36.59267 -22.81941 -0.01724288 0.6050855 -0.7959738 0.5257161 0.1455078
-16.13575 36.59267 -16.13577 -0.5506454 0.6050857 -0.5750313 0.5016276 0.1455078
-22.8194 36.59267 0 -0.7959732 0.6050863 0.01724214 0.4791667 0.1455078
-16.13576 36.59267 16.13577 -0.575031 0.6050867 0.5506445 0.4570312 0.1455078
12.86603 41.70805 5.329315 0.2324984 0.9678171 0.09630427 0.405599 0.1634115
-5.329268 41.70805 12.86606 -0.09630428 0.9678169 0.2324992 0.4466146 0.1634115
5.329296 41.70805 -12.866 0.09630381 0.9678172 -0.232498 0.3769531 0.1634115
-12.866 41.70805 -5.329262 -0.2324981 0.9678172 -0.09630373 0.4892578 0.1634115
1.789856e-05 38.60314 1.525879e-05 -8.717666e-08 1 2.460228e-07 0.3505859 0.1376953
-2.265152 38.6031 -3.834534 -0.6975822 0.2211391 -0.6815252 0.5644531 0.2753906
-0.7365078 46.98057 -2.746262 -0.6366807 0.282465 -0.7175314 0.5644531 0.2926432
2.391015 46.94719 -2.665558 0.6803863 0.2685451 -0.6818784 0.5748698 0.2926432
3.843787 38.6031 -3.834534 0.6993843 0.2337482 -0.6754432 0.5748698 0.2753906
-2.265152 38.6031 1.479027 -0.6720298 0.2778248 0.6864324 0.5546875 0.2753906
-0.8123797 46.05304 -0.1889343 -0.7498209 0.0898376 0.6555133 0.5546875 0.2926432
3.843787 38.6031 1.479027 0.6738565 0.2893874 0.6798326 0.5849609 0.2753906
2.315143 46.01966 -0.1082535 0.7203608 0.07030277 0.6900275 0.5849609 0.2926432
-0.1801579 54.77824 0.8339157 -0.5360378 0.7907278 -0.295657 0.5644531 0.311849
1.819317 54.74887 0.8970032 0.5746341 0.7759106 -0.2603045 0.5748698 0.311849
-0.2406819 54.04541 2.411118 -0.5809825 0.3483856 0.735586 0.5546875 0.311849
1.758793 54.01604 2.47419 0.541354 0.3331356 0.7719822 0.5849609 0.311849
19.57115 20.90534 -19.57109 0.7071066 -1.682803e-06 -0.7071069 0.5478516 0.1233724
16.13578 5.218018 -16.13568 0.5730068 -0.6077476 -0.5498238 0.5478516 0.1044922
5.228656 0.1026325 -12.62296 0.1140461 -0.9545606 -0.2753319 0.5247396 0.0859375
-12.62304 0.1026325 -5.228546 -0.2753319 -0.9545605 -0.1140463 0.3639323 0.1236979
5.228656 0.1026325 -12.62296 0.1140461 -0.9545606 -0.2753319 0.3369141 0.1236979
-5.228634 0.1026363 12.62314 -0.1140462 -0.9545605 0.275332 0.3639323 0.09733073
16.13578 36.59267 -16.13577 0.5750308 0.6050855 -0.5506461 0.5478516 0.1455078
5.329296 41.70805 -12.866 0.09630381 0.9678172 -0.232498 0.5263672 0.1634115
12.86603 41.70805 5.329315 0.2324984 0.9678171 0.09630427 0.3639323 0.1246745
-5.329268 41.70805 12.86606 -0.09630428 0.9678169 0.2324992 0.3369141 0.1246745
5.329296 41.70805 -12.866 0.09630381 0.9678172 -0.232498 0.3639323 0.1510417
-12.866 41.70805 -5.329262 -0.2324981 0.9678172 -0.09630373 0.3369141 0.1510417
-0.8123797 46.05304 -0.1889343 -0.7498209 0.0898376 0.6555133 0.5947266 0.2926432
-2.265152 38.6031 1.479027 -0.6720298 0.2778248 0.6864324 0.5947266 0.2753906
-0.2406819 54.04541 2.411118 -0.5809825 0.3483856 0.735586 0.5947266 0.311849
1.758793 54.01604 2.47419 0.541354 0.3331356 0.7719822 0.5546875 0.319987
1.819317 54.74887 0.8970032 0.5746341 0.7759106 -0.2603045 0.5644531 0.319987
12.62307 0.1026325 5.228745 0.2753318 -0.9545605 0.1140466 0.3369141 0.09733073
3 0 1 2 
3 2 3 0 
3 4 5 1 
3 1 0 4 
3 6 7 5 
3 5 4 6 
3 8 9 45 
3 45 46 8 
3 10 11 9 
3 9 8 10 
3 12 13 11 
3 11 10 12 
3 14 15 13 
3 13 12 14 
3 3 2 15 
3 15 14 3 
3 0 3 16 
3 16 17 0 
3 4 0 17 
3 6 4 17 
3 17 18 6 
3 8 46 47 
3 10 8 47 
3 47 19 10 
3 12 10 19 
3 14 12 19 
3 19 16 14 
3 3 14 16 
3 48 49 50 
3 20 21 2 
3 2 1 20 
3 22 20 1 
3 1 5 22 
3 23 22 5 
3 5 7 23 
3 24 51 45 
3 45 9 24 
3 25 24 9 
3 9 11 25 
3 26 25 11 
3 11 13 26 
3 27 26 13 
3 13 15 27 
3 21 27 15 
3 15 2 21 
3 20 28 29 
3 29 21 20 
3 22 28 20 
3 23 30 28 
3 28 22 23 
3 24 52 51 
3 25 31 52 
3 52 24 25 
3 26 31 25 
3 27 29 31 
3 31 26 27 
3 21 29 27 
3 53 32 54 
3 55 32 53 
3 56 32 55 
3 54 32 56 
3 33 34 35 
3 35 36 33 
3 37 38 34 
3 34 33 37 
3 39 40 57 
3 57 58 39 
3 36 35 40 
3 40 39 36 
3 41 42 35 
3 35 34 41 
3 43 41 34 
3 34 38 43 
3 44 59 57 
3 57 40 44 
3 42 44 40 
3 40 35 42 
3 43 60 61 
3 61 41 43 
3 49 62 50 
