ply
format ascii 1.0
comment VCGLIB generated
comment TextureFile cemetery_halloween_atlas.tga
element vertex 63
property float x
property float y
property float z
property float nx
property float ny
property float nz
property float texture_u
property float texture_v
element face 80
property list uchar int vertex_indices
end_header
13.95745 4.513587 13.95751 0.5890915 -0.4958997 0.6380084 0.4124349 0.1044922
16.92904 35.21143 12.78544 0.7054412 0.157724 0.6909963 0.4124349 0.1233724
7.741127e-06 37.02633 19.55874 0.0007669294 0.2123216 0.9771996 0.4348958 0.1233724
7.741127e-06 4.513591 19.73887 0.01981401 -0.4790137 0.8775838 0.4348958 0.1044922
19.73881 4.513586 7.555859e-05 0.8398769 -0.5427179 0.008011448 0.3880208 0.1044922
23.94128 30.82987 -3.566743 0.999607 0.02784788 -0.00319856 0.3880208 0.1233724
13.95745 4.513584 -13.95736 0.5944763 -0.5939144 -0.542092 0.3652344 0.1044922
16.92904 26.44831 -19.91893 0.7076411 -0.1021513 -0.699149 0.3652344 0.1233724
1.548225e-05 4.513585 -19.73871 -0.01346645 -0.6194084 -0.7849535 0.5257161 0.1044922
1.548225e-05 24.63341 -26.69224 0.001754616 -0.1539665 -0.9880745 0.5257161 0.1233724
-13.95742 4.513586 -13.95736 -0.5662489 -0.600126 -0.5649877 0.5016276 0.1044922
-16.92902 26.44831 -19.91893 -0.705963 -0.09630895 -0.7016701 0.5016276 0.1233724
-19.73878 4.513586 7.555859e-05 -0.8349327 -0.548647 0.04328837 0.4791667 0.1044922
-23.94125 30.82987 -3.566743 -0.9993957 0.0344755 -0.004450007 0.4791667 0.1233724
-13.95744 4.513588 13.95751 -0.6121247 -0.4997798 0.6127998 0.4563802 0.1044922
-16.92903 35.21143 12.78544 -0.7045067 0.1615216 0.6910725 0.4570312 0.1233724
-4.522769 0.08878314 10.91901 -0.1140462 -0.9545605 0.2753321 0.445638 0.0859375
10.91896 0.08877828 4.522865 0.2753318 -0.9545605 0.1140468 0.4049479 0.0859375
4.522788 0.08877576 -10.91886 0.1140462 -0.9545606 -0.2753318 0.3769531 0.0859375
-10.91893 0.0887768 -4.52269 -0.2753319 -0.9545606 -0.1140461 0.4876302 0.0859375
13.95745 52.49509 6.403022 0.5705094 0.6914716 0.4431548 0.4124349 0.1455078
7.710888e-06 53.99142 11.98737 0.01820335 0.7434768 0.668514 0.4348958 0.1455078
19.73882 48.88264 -7.078816 0.8194079 0.5518637 -0.154975 0.3880208 0.1455078
13.95745 45.27018 -20.56069 0.5869402 0.4297748 -0.6861449 0.3652344 0.1455078
1.548225e-05 43.77385 -26.14505 -0.01730525 0.3736362 -0.9274139 0.5257161 0.1455078
-13.95742 45.27018 -20.56069 -0.5624443 0.4235086 -0.7101387 0.5016276 0.1455078
-19.73878 48.88263 -7.078839 -0.8190917 0.5608311 -0.1206535 0.4791667 0.1455078
-13.95744 52.49509 6.402999 -0.5962206 0.6850526 0.4185978 0.4570312 0.1455078
11.12912 54.34978 -3.771283 0.2324983 0.959765 -0.157467 0.405599 0.1634115
-4.609818 56.0371 2.525862 -0.09630417 0.9950146 -0.02591257 0.4466146 0.1634115
4.609841 50.27624 -18.97394 0.09630382 0.8746648 -0.4750652 0.3769531 0.1634115
-11.12909 51.96356 -12.6768 -0.2324981 0.9099144 -0.343512 0.4892578 0.1634115
1.548225e-05 50.56244 -7.528927 -1.538411e-08 0.9659259 -0.2588189 0.3505859 0.1376953
-1.959357 49.70393 -10.73279 -0.6802999 0.02183349 -0.7326087 0.5644531 0.2753906
-0.6370794 60.5034 -11.69905 -0.6541075 0.065051 -0.7535992 0.5644531 0.2926432
2.068228 60.49358 -11.62414 0.6953796 0.06268243 -0.7159038 0.5748698 0.2926432
3.324876 49.70393 -10.73279 0.6813452 0.02816665 -0.7314201 0.5748698 0.2753906
-1.959357 50.89352 -6.293168 -0.7158985 0.2987647 0.631054 0.5546875 0.2753906
-0.7027087 60.30095 -9.354673 -0.7471255 0.1640748 0.644114 0.5546875 0.2926432
3.324876 50.89352 -6.293168 0.7173638 0.3042204 0.6267688 0.5849609 0.2753906
2.002599 60.29113 -9.279787 0.711453 0.160519 0.6841551 0.5849609 0.2926432
-0.1558366 70.52548 -10.45345 -0.5394775 0.6727982 -0.5062674 0.5644531 0.311849
1.573709 70.51506 -10.39415 0.5786109 0.6679219 -0.4680703 0.5748698 0.311849
-0.2081899 70.26628 -8.971577 -0.587791 0.5261482 0.6145486 0.5546875 0.311849
1.521356 70.25586 -8.912312 0.5481006 0.5212176 0.6541544 0.5849609 0.311849
16.92904 26.44831 -19.91893 0.7076411 -0.1021513 -0.699149 0.5478516 0.1233724
13.95745 4.513584 -13.95736 0.5944763 -0.5939144 -0.542092 0.5478516 0.1044922
4.522788 0.08877576 -10.91886 0.1140462 -0.9545606 -0.2753318 0.5247396 0.0859375
-10.91893 0.0887768 -4.52269 -0.2753319 -0.9545606 -0.1140461 0.3639323 0.1236979
4.522788 0.08877576 -10.91886 0.1140462 -0.9545606 -0.2753318 0.3369141 0.1236979
-4.522769 0.08878314 10.91901 -0.1140462 -0.9545605 0.2753321 0.3639323 0.09733073
13.95745 45.27018 -20.56069 0.5869402 0.4297748 -0.6861449 0.5478516 0.1455078
4.609841 50.27624 -18.97394 0.09630382 0.8746648 -0.4750652 0.5263672 0.1634115
11.12912 54.34978 -3.771283 0.2324983 0.959765 -0.157467 0.3639323 0.1246745
-4.609818 56.0371 2.525862 -0.09630417 0.9950146 -0.02591257 0.3369141 0.1246745
4.609841 50.27624 -18.97394 0.09630382 0.8746648 -0.4750652 0.3639323 0.1510417
-11.12909 51.96356 -12.6768 -0.2324981 0.9099144 -0.343512 0.3369141 0.1510417
-0.7027087 60.30095 -9.354673 -0.7471255 0.1640748 0.644114 0.5947266 0.2926432
-1.959357 50.89352 -6.293168 -0.7158985 0.2987647 0.631054 0.5947266 0.2753906
-0.2081899 70.26628 -8.971577 -0.587791 0.5261482 0.6145486 0.5947266 0.311849
1.521356 70.25586 -8.912312 0.5481006 0.5212176 0.6541544 0.5546875 0.319987
1.573709 70.51506 -10.39415 0.5786109 0.6679219 -0.4680703 0.5644531 0.319987
10.91896 0.08877828 4.522865 0.2753318 -0.9545605 0.1140468 0.3369141 0.09733073
3 0 1 2 
3 2 3 0 
3 4 5 1 
3 1 0 4 
3 6 7 5 
3 5 4 6 
3 8 9 45 
3 45 46 8 
3 10 11 9 
3 9 8 10 
3 12 13 11 
3 11 10 12 
3 14 15 13 
3 13 12 14 
3 3 2 15 
3 15 14 3 
3 0 3 16 
3 16 17 0 
3 4 0 17 
3 6 4 17 
3 17 18 6 
3 8 46 47 
3 10 8 47 
3 47 19 10 
3 12 10 19 
3 14 12 19 
3 19 16 14 
3 3 14 16 
3 48 49 50 
3 20 21 2 
3 2 1 20 
3 22 20 1 
3 1 5 22 
3 23 22 5 
3 5 7 23 
3 24 51 45 
3 45 9 24 
3 25 24 9 
3 9 11 25 
3 26 25 11 
3 11 13 26 
3 27 26 13 
3 13 15 27 
3 21 27 15 
3 15 2 21 
3 20 28 29 
3 29 21 20 
3 22 28 20 
3 23 30 28 
3 28 22 23 
3 24 52 51 
3 25 31 52 
3 52 24 25 
3 26 31 25 
3 27 29 31 
3 31 26 27 
3 21 29 27 
3 53 32 54 
3 55 32 53 
3 56 32 55 
3 54 32 56 
3 33 34 35 
3 35 36 33 
3 37 38 34 
3 34 33 37 
3 39 40 57 
3 57 58 39 
3 36 35 40 
3 40 39 36 
3 41 42 35 
3 35 34 41 
3 43 41 34 
3 34 38 43 
3 44 59 57 
3 57 40 44 
3 42 44 40 
3 40 35 42 
3 43 60 61 
3 61 41 43 
3 49 62 50 
