ply
format ascii 1.0
comment VCGLIB generated
comment TextureFile cemetery_halloween_atlas.tga
element vertex 72
property float x
property float y
property float z
property float nx
property float ny
property float nz
property float texture_u
property float texture_v
element face 96
property list uchar int vertex_indices
end_header
-16.29652 10.25601 9.408768 -0.8702739 0.1597801 0.4659332 0.4124349 0.273763
-11.53598 19.78582 6.660324 -0.8420062 0.2346641 0.4857555 0.4124349 0.2877604
-12.86671 19.78582 -3.447571 -0.9386173 0.2357423 -0.2518397 0.4348958 0.2877604
-18.1764 10.25601 -4.870346 -0.961212 0.1597828 -0.2248132 0.4348958 0.273763
-4.870376 10.25602 18.17641 -0.2248154 0.1597774 0.9612124 0.3880208 0.273763
-3.447639 19.78582 12.86679 -0.2517679 0.2339084 0.9390953 0.3880208 0.2877604
9.408782 10.25602 16.29649 0.465935 0.1597783 0.8702732 0.3652344 0.273763
6.660308 19.78582 11.53601 0.4862499 0.2339173 0.8419287 0.3652344 0.2877604
18.17637 10.25602 4.870361 0.961212 0.1597798 0.2248151 0.5257161 0.273763
12.86671 19.78582 3.447678 0.9390329 0.234688 0.2512742 0.5257161 0.2877604
16.2965 10.25601 -9.408798 0.8702732 0.1597824 -0.4659336 0.5016276 0.273763
11.53597 19.78582 -6.660233 0.8414497 0.2357664 -0.4861858 0.5016276 0.2877604
4.870338 10.25601 -18.17641 0.2248144 0.1597845 -0.9612114 0.4791667 0.273763
3.447616 19.78582 -12.86667 0.2513489 0.236521 -0.938553 0.4791667 0.2877604
-9.408813 10.256 -16.29652 -0.4659337 0.1597846 -0.8702728 0.4567057 0.273763
-6.660308 19.78582 -11.53593 -0.4856954 0.236511 -0.8415239 0.4570312 0.2877604
-14.85469 4.966959 10.17978 -0.7532128 -0.4751639 0.4548514 0.4101562 0.2636719
-16.98326 4.966963 -5.988327 -0.8452723 -0.4751615 -0.24441 0.438151 0.2636719
-9.815078 -0.07032585 -7.531387 -0.3200952 -0.9149925 -0.2456175 0.445638 0.2503255
-7.531387 -0.07032967 9.815033 -0.2456184 -0.9149922 0.3200952 0.4049479 0.2503255
-5.988311 4.966965 16.98323 -0.2444098 -0.4751648 0.8452705 0.3929037 0.2636719
10.17981 4.966957 14.85464 0.454853 -0.475164 0.7532118 0.3688151 0.2636719
9.815032 -0.07032967 7.531357 0.3200951 -0.9149922 0.2456184 0.3769531 0.2503255
16.98322 4.966965 5.988281 0.8452715 -0.4751636 0.2444091 0.5253906 0.2636719
14.85466 4.966963 -10.17986 0.7532125 -0.4751624 -0.4548537 0.4977213 0.2636719
7.531341 -0.07032967 -9.815079 0.2456177 -0.9149925 -0.3200948 0.4876302 0.2503255
5.988273 4.966961 -16.98328 0.2444093 -0.4751619 -0.8452724 0.4817708 0.2636719
-10.17985 4.966961 -14.85471 -0.4548538 -0.4751617 -0.7532127 0.4534505 0.2636719
-12.77446 36.88986 7.427505 -0.8441197 0.2777158 0.4586239 0.4124349 0.3102213
-14.24873 36.88986 -3.770782 -0.9339355 0.2787308 -0.2237715 0.4348958 0.3102213
-3.813591 36.88986 14.30344 -0.2240798 0.2770001 0.9343764 0.3880208 0.3102213
7.384719 36.88986 12.82916 0.4582707 0.2770095 0.8445435 0.3652344 0.3102213
14.26064 36.88987 3.868286 0.9340499 0.2777399 0.2245247 0.5257161 0.3102213
12.78636 36.88987 -7.330002 0.8441889 0.2787542 -0.4578659 0.5016276 0.3102213
3.825493 36.88986 -14.20592 0.2242179 0.2794726 -0.9336067 0.4791667 0.3102213
-7.372818 36.88986 -12.73164 -0.4582188 0.2794634 -0.8437628 0.4570312 0.3102213
-5.476661 44.83152 7.193787 -0.2782412 0.8894359 0.3626095 0.405599 0.3277995
-7.139106 44.83152 -5.433838 -0.3626102 0.8894357 -0.2782409 0.4466146 0.3277995
7.150985 44.83152 5.531326 0.3626091 0.8894366 0.2782396 0.3769531 0.3277995
5.488525 44.83152 -7.096298 0.2782397 0.889436 -0.3626104 0.4892578 0.3277995
0.005950927 42.45005 0.04875183 -6.287943e-07 1 -3.290466e-07 0.3505859 0.3027344
2.780433 42.45002 -0.724411 0.8456179 0.187941 -0.4996084 0.5644531 0.2753906
1.844757 48.87554 0.04833984 0.8655329 0.2409717 -0.4390734 0.5644531 0.2926432
1.270851 48.84994 1.98851 0.4841132 0.2278776 0.8448113 0.5748698 0.2926432
1.757912 42.45002 3.091675 0.4770563 0.1991762 0.856006 0.5748698 0.2753906
-0.5388259 42.45002 -1.613785 -0.4935793 0.2367109 -0.8368676 0.5546875 0.2753906
0.259964 48.16412 -0.4270935 -0.4496537 0.07374725 -0.8901533 0.5546875 0.2926432
-1.561325 42.45002 2.202286 -0.8410282 0.2471891 0.4812163 0.5849609 0.2753906
-0.3139343 48.13853 1.513092 -0.8596516 0.05715813 0.5076733 0.5849609 0.2926432
-0.4848175 54.85635 -0.2033844 0.4227156 0.7930002 -0.4387052 0.5644531 0.311849
-0.8589019 54.83383 1.035095 0.1031973 0.7778444 0.6199261 0.5748698 0.311849
-1.459915 54.29427 -0.505188 -0.5558812 0.3372724 -0.7597654 0.5546875 0.311849
-1.834 54.27174 0.7332916 -0.8868346 0.3212747 0.3321249 0.5849609 0.311849
6.660308 19.78582 11.53601 0.4862499 0.2339173 0.8419287 0.5478516 0.2877604
9.408782 10.25602 16.29649 0.465935 0.1597783 0.8702732 0.5478516 0.273763
10.17981 4.966957 14.85464 0.454853 -0.475164 0.7532118 0.5410156 0.2636719
9.815032 -0.07032967 7.531357 0.3200951 -0.9149922 0.2456184 0.5247396 0.2503255
7.531341 -0.07032967 -9.815079 0.2456177 -0.9149925 -0.3200948 0.3639323 0.2884115
9.815032 -0.07032967 7.531357 0.3200951 -0.9149922 0.2456184 0.3369141 0.2884115
-9.815078 -0.07032585 -7.531387 -0.3200952 -0.9149925 -0.2456175 0.3639323 0.2620443
7.384719 36.88986 12.82916 0.4582707 0.2770095 0.8445435 0.5478516 0.3102213
7.150985 44.83152 5.531326 0.3626091 0.8894366 0.2782396 0.5263672 0.3277995
-5.476661 44.83152 7.193787 -0.2782412 0.8894359 0.3626095 0.3639323 0.289388
-7.139106 44.83152 -5.433838 -0.3626102 0.8894357 -0.2782409 0.3369141 0.289388
7.150985 44.83152 5.531326 0.3626091 0.8894366 0.2782396 0.3639323 0.3154297
5.488525 44.83152 -7.096298 0.2782397 0.889436 -0.3626104 0.3369141 0.3154297
0.259964 48.16412 -0.4270935 -0.4496537 0.07374725 -0.8901533 0.5947266 0.2926432
-0.5388259 42.45002 -1.613785 -0.4935793 0.2367109 -0.8368676 0.5947266 0.2753906
-1.459915 54.29427 -0.505188 -0.5558812 0.3372724 -0.7597654 0.5947266 0.311849
-1.834 54.27174 0.7332916 -0.8868346 0.3212747 0.3321249 0.5546875 0.319987
-0.8589019 54.83383 1.035095 0.1031973 0.7778444 0.6199261 0.5644531 0.319987
-7.531387 -0.07032967 9.815033 -0.2456184 -0.9149922 0.3200952 0.3369141 0.2620443
3 0 1 2 
3 2 3 0 
3 4 5 1 
3 1 0 4 
3 6 7 5 
3 5 4 6 
3 8 9 53 
3 53 54 8 
3 10 11 9 
3 9 8 10 
3 12 13 11 
3 11 10 12 
3 14 15 13 
3 13 12 14 
3 3 2 15 
3 15 14 3 
3 16 17 18 
3 18 19 16 
3 20 16 19 
3 21 20 19 
3 19 22 21 
3 23 55 56 
3 24 23 56 
3 56 25 24 
3 26 24 25 
3 27 26 25 
3 25 18 27 
3 17 27 18 
3 57 58 59 
3 28 29 2 
3 2 1 28 
3 30 28 1 
3 1 5 30 
3 31 30 5 
3 5 7 31 
3 32 60 53 
3 53 9 32 
3 33 32 9 
3 9 11 33 
3 34 33 11 
3 11 13 34 
3 35 34 13 
3 13 15 35 
3 29 35 15 
3 15 2 29 
3 28 36 37 
3 37 29 28 
3 30 36 28 
3 31 38 36 
3 36 30 31 
3 32 61 60 
3 33 39 61 
3 61 32 33 
3 34 39 33 
3 35 37 39 
3 39 34 35 
3 29 37 35 
3 62 40 63 
3 64 40 62 
3 65 40 64 
3 63 40 65 
3 41 42 43 
3 43 44 41 
3 45 46 42 
3 42 41 45 
3 47 48 66 
3 66 67 47 
3 44 43 48 
3 48 47 44 
3 49 50 43 
3 43 42 49 
3 51 49 42 
3 42 46 51 
3 52 68 66 
3 66 48 52 
3 50 52 48 
3 48 43 50 
3 51 69 70 
3 70 49 51 
3 58 71 59 
3 3 17 16 
3 16 0 3 
3 0 16 20 
3 20 4 0 
3 4 20 21 
3 21 6 4 
3 54 55 23 
3 23 8 54 
3 8 23 24 
3 24 10 8 
3 10 24 26 
3 26 12 10 
3 12 26 27 
3 27 14 12 
3 14 27 17 
3 17 3 14 
