ply
format ascii 1.0
comment VCGLIB generated
comment TextureFile cemetery_halloween_atlas.tga
element vertex 63
property float x
property float y
property float z
property float nx
property float ny
property float nz
property float texture_u
property float texture_v
element face 80
property list uchar int vertex_indices
end_header
13.41284 3.853167 -11.23221 0.6584614 -0.5349394 -0.5294039 0.4124349 0.2695312
14.96475 19.78581 -12.55719 0.7656831 0.02701366 -0.6426507 0.4124349 0.2877604
19.46088 19.78582 1.702695 0.9958305 0.02744825 0.08699505 0.4348958 0.2877604
17.44104 3.853173 1.543609 0.8432491 -0.5345615 0.05634713 0.4348958 0.2695312
1.530602 3.853168 -17.41774 0.05621799 -0.5352082 -0.8428475 0.3880208 0.2695312
1.702271 19.78581 -19.4612 0.08707272 0.02670923 -0.9958439 0.3880208 0.2877604
-11.24523 3.853168 -13.38951 -0.5294932 -0.5352047 -0.6581739 0.3652344 0.2695312
-12.55759 19.78581 -14.96509 -0.6425162 0.02671289 -0.7658064 0.3652344 0.2877604
-17.43073 3.853172 -1.507279 -0.8430393 -0.5349304 -0.05598468 0.5257161 0.2695312
-19.46161 19.78582 -1.702594 -0.9958197 0.02702234 -0.08725214 0.5257161 0.2877604
-13.40253 3.853174 11.26855 -0.6584354 -0.534552 0.5298273 0.5016276 0.2695312
-14.96548 19.78582 12.55726 -0.7658376 0.02745715 0.6424477 0.5016276 0.2877604
-1.520287 3.853173 17.45406 -0.05611341 -0.534283 0.8434411 0.4791667 0.2695312
-1.703003 19.78582 19.46128 -0.0871743 0.02776217 0.9958062 0.4791667 0.2877604
11.25554 3.853173 13.42586 0.5297392 -0.5342869 0.6587214 0.4563802 0.2695312
12.55685 19.78582 14.96518 0.6425815 0.02775829 0.7657145 0.4570312 0.2877604
9.300659 -0.07032697 4.857101 0.2643445 -0.9545605 0.137609 0.445638 0.2503255
4.844101 -0.07033309 -9.277359 0.1376095 -0.9545605 -0.2643445 0.4049479 0.2503255
-9.290352 -0.07033236 -4.820786 -0.2643447 -0.9545604 -0.1376093 0.3769531 0.2503255
-4.833778 -0.07033005 9.313675 -0.1376089 -0.9545605 0.2643445 0.4876302 0.2503255
12.33786 38.27193 -10.35297 0.6545823 0.5443573 -0.5245923 0.4124349 0.3102213
16.04476 38.27193 1.403802 0.8370964 0.544357 0.05426857 0.4348958 0.3102213
1.403389 38.27193 -16.04514 0.05426873 0.5443568 -0.8370966 0.3880208 0.3102213
-10.35342 38.27193 -12.3382 -0.5245939 0.5443565 -0.6545817 0.3652344 0.3102213
-16.04556 38.27193 -1.403738 -0.8370968 0.5443563 -0.05427003 0.5257161 0.3102213
-12.33866 38.27193 10.35308 -0.6545819 0.5443562 0.5245941 0.5016276 0.3102213
-1.404167 38.27194 16.04519 -0.05426973 0.5443568 0.8370965 0.4791667 0.3102213
10.35262 38.27194 12.33831 0.5245928 0.5443572 0.654582 0.4570312 0.3102213
4.538307 42.19543 -8.71868 0.1232656 0.9637095 -0.2367899 0.405599 0.3277995
8.718353 42.19543 4.53872 0.2367911 0.9637094 0.1232649 0.4466146 0.3277995
-8.719116 42.19543 -4.538642 -0.2367899 0.9637095 -0.1232656 0.3769531 0.3277995
-4.539062 42.19543 8.718774 -0.1232645 0.9637097 0.23679 0.4892578 0.3277995
-0.0003814697 39.81396 5.454864e-05 3.898082e-08 1 -4.157954e-07 0.3505859 0.3027344
-2.835953 39.81394 1.356881 -0.7430153 0.2043499 0.6373142 0.5644531 0.2753906
-1.976715 46.23945 0.3489762 -0.7734534 0.2616179 0.5773439 0.5644531 0.2926432
-1.727562 46.21385 -1.845131 -0.6219385 0.2480633 -0.7427363 0.5748698 0.2926432
-2.460144 39.81394 -2.938544 -0.6153045 0.2162895 -0.7580364 0.5748698 0.2753906
0.9002151 39.81394 1.68374 0.6285143 0.2570814 0.7340837 0.5546875 0.2753906
-0.1832199 45.52804 0.559624 0.5926382 0.08153504 0.8013314 0.5546875 0.2926432
1.276016 39.81394 -2.61167 0.7405611 0.2681265 -0.6161796 0.5849609 0.2753906
0.06590271 45.50244 -1.634468 0.7544018 0.06348183 -0.6533361 0.5849609 0.2926432
0.5748749 52.22027 0.1780158 -0.3414416 0.7915424 0.5068316 0.5644531 0.311849
0.7422409 52.19775 -1.224023 -0.2099651 0.7766097 -0.593963 0.5748698 0.311849
1.68013 51.65819 0.3176033 0.6805529 0.3436143 0.6471298 0.5546875 0.311849
1.847481 51.63566 -1.084405 0.8157505 0.3280042 -0.4764079 0.5849609 0.311849
-12.55759 19.78581 -14.96509 -0.6425162 0.02671289 -0.7658064 0.5478516 0.2877604
-11.24523 3.853168 -13.38951 -0.5294932 -0.5352047 -0.6581739 0.5478516 0.2695312
-9.290352 -0.07033236 -4.820786 -0.2643447 -0.9545604 -0.1376093 0.5247396 0.2503255
-4.833778 -0.07033005 9.313675 -0.1376089 -0.9545605 0.2643445 0.3639323 0.2884115
-9.290352 -0.07033236 -4.820786 -0.2643447 -0.9545604 -0.1376093 0.3369141 0.2884115
9.300659 -0.07032697 4.857101 0.2643445 -0.9545605 0.137609 0.3639323 0.2620443
-10.35342 38.27193 -12.3382 -0.5245939 0.5443565 -0.6545817 0.5478516 0.3102213
-8.719116 42.19543 -4.538642 -0.2367899 0.9637095 -0.1232656 0.5263672 0.3277995
4.538307 42.19543 -8.71868 0.1232656 0.9637095 -0.2367899 0.3639323 0.289388
8.718353 42.19543 4.53872 0.2367911 0.9637094 0.1232649 0.3369141 0.289388
-8.719116 42.19543 -4.538642 -0.2367899 0.9637095 -0.1232656 0.3639323 0.3154297
-4.539062 42.19543 8.718774 -0.1232645 0.9637097 0.23679 0.3369141 0.3154297
-0.1832199 45.52804 0.559624 0.5926382 0.08153504 0.8013314 0.5947266 0.2926432
0.9002151 39.81394 1.68374 0.6285143 0.2570814 0.7340837 0.5947266 0.2753906
1.68013 51.65819 0.3176033 0.6805529 0.3436143 0.6471298 0.5947266 0.311849
1.847481 51.63566 -1.084405 0.8157505 0.3280042 -0.4764079 0.5546875 0.319987
0.7422409 52.19775 -1.224023 -0.2099651 0.7766097 -0.593963 0.5644531 0.319987
4.844101 -0.07033309 -9.277359 0.1376095 -0.9545605 -0.2643445 0.3369141 0.2620443
3 0 1 2 
3 2 3 0 
3 4 5 1 
3 1 0 4 
3 6 7 5 
3 5 4 6 
3 8 9 45 
3 45 46 8 
3 10 11 9 
3 9 8 10 
3 12 13 11 
3 11 10 12 
3 14 15 13 
3 13 12 14 
3 3 2 15 
3 15 14 3 
3 0 3 16 
3 16 17 0 
3 4 0 17 
3 6 4 17 
3 17 18 6 
3 8 46 47 
3 10 8 47 
3 47 19 10 
3 12 10 19 
3 14 12 19 
3 19 16 14 
3 3 14 16 
3 48 49 50 
3 20 21 2 
3 2 1 20 
3 22 20 1 
3 1 5 22 
3 23 22 5 
3 5 7 23 
3 24 51 45 
3 45 9 24 
3 25 24 9 
3 9 11 25 
3 26 25 11 
3 11 13 26 
3 27 26 13 
3 13 15 27 
3 21 27 15 
3 15 2 21 
3 20 28 29 
3 29 21 20 
3 22 28 20 
3 23 30 28 
3 28 22 23 
3 24 52 51 
3 25 31 52 
3 52 24 25 
3 26 31 25 
3 27 29 31 
3 31 26 27 
3 21 29 27 
3 53 32 54 
3 55 32 53 
3 56 32 55 
3 54 32 56 
3 33 34 35 
3 35 36 33 
3 37 38 34 
3 34 33 37 
3 39 40 57 
3 57 58 39 
3 36 35 40 
3 40 39 36 
3 41 42 35 
3 35 34 41 
3 43 41 34 
3 34 38 43 
3 44 59 57 
3 57 40 44 
3 42 44 40 
3 40 35 42 
3 43 60 61 
3 61 41 43 
3 49 62 50 
