ply
format ascii 1.0
comment VCGLIB generated
comment TextureFile cemetery_halloween_atlas.tga
element vertex 63
property float x
property float y
property float z
property float nx
property float ny
property float nz
property float texture_u
property float texture_v
element face 80
property list uchar int vertex_indices
end_header
16.13577 5.218019 16.13578 0.5380681 -0.6292509 0.5608262 0.4124349 0.1861979
19.57114 18.43084 19.5711 0.7070391 0.01383574 0.7070392 0.4124349 0.2044271
0 18.43084 27.67774 -1.075134e-07 0.0138366 0.9999043 0.4348958 0.2044271
0 5.218023 22.81943 0.01609146 -0.6292509 0.7770357 0.4348958 0.1861979
22.81944 5.218018 1.440867e-05 0.7770352 -0.6292515 -0.01609129 0.3880208 0.1861979
27.67776 18.43084 -2.589095e-05 0.9999043 0.01383391 -1.463375e-07 0.3880208 0.2044271
16.13577 5.218015 -16.13575 0.5608249 -0.6292527 -0.5380675 0.3652344 0.1861979
19.57114 18.43084 -19.57117 0.7070392 0.01383176 -0.7070391 0.3652344 0.2044271
1.525879e-05 5.218016 -22.8194 -0.01609139 -0.6292535 -0.7770336 0.5257161 0.1861979
1.525879e-05 18.43084 -27.6778 3.374728e-07 0.01383109 -0.9999044 0.5257161 0.2044271
-16.13576 5.218017 -16.13575 -0.5380679 -0.6292529 -0.5608242 0.5016276 0.1861979
-19.57112 18.43084 -19.57117 -0.7070391 0.01383185 -0.7070392 0.5016276 0.2044271
-22.81941 5.218018 1.440867e-05 -0.7770346 -0.6292522 0.01609172 0.4791667 0.1861979
-27.67776 18.43084 -2.589095e-05 -0.9999043 0.01383412 -3.792834e-07 0.4791667 0.2044271
-16.13577 5.21802 16.13578 -0.5608252 -0.6292512 0.5380688 0.4563802 0.1861979
-19.57115 18.43084 19.5711 -0.7070394 0.01383614 0.7070388 0.4570312 0.2044271
-5.228638 0.1026384 12.62306 -0.1140461 -0.9545605 0.2753319 0.445638 0.1669922
12.62306 0.1026334 5.228668 0.2753316 -0.9545606 0.1140467 0.4049479 0.1669922
5.228668 0.1026305 -12.62303 0.1140466 -0.9545605 -0.2753317 0.3769531 0.1669922
-12.62303 0.1026317 -5.228622 -0.2753315 -0.9545607 -0.1140461 0.4876302 0.1669922
16.13577 30.51204 16.13571 0.5319417 0.6389878 0.5556371 0.4124349 0.226888
0 30.51204 22.81935 0.01675479 0.6389884 0.7690338 0.4348958 0.226888
22.81944 30.51204 -5.83768e-05 0.7690351 0.6389869 -0.01675551 0.3880208 0.226888
16.13577 30.51204 -16.13585 0.5556376 0.6389863 -0.5319431 0.3652344 0.226888
1.525879e-05 30.51204 -22.81949 -0.01675477 0.6389864 -0.7690356 0.5257161 0.226888
-16.13576 30.51204 -16.13585 -0.5319422 0.6389863 -0.5556383 0.5016276 0.226888
-22.81941 30.51204 -8.126499e-05 -0.7690347 0.6389875 0.01675396 0.4791667 0.226888
-16.13577 30.51204 16.13568 -0.5556373 0.6389885 0.5319408 0.4570312 0.226888
12.86603 35.62742 5.329233 0.2324982 0.9678172 0.09630413 0.405599 0.2447917
-5.329269 35.62743 12.86598 -0.09630404 0.9678169 0.2324992 0.4466146 0.2447917
5.329285 35.62742 -12.86609 0.0963039 0.9678172 -0.2324981 0.3769531 0.2447917
-12.86601 35.62743 -5.329344 -0.2324982 0.9678172 -0.0963039 0.4892578 0.2447917
1.525879e-05 32.52251 -5.870435e-05 -5.128039e-09 1 5.128039e-09 0.3505859 0.219401
-2.265152 32.52247 -3.834615 -0.6975822 0.2211386 -0.6815253 0.5644531 0.2753906
-0.7365112 40.89994 -2.746345 -0.6366798 0.2824643 -0.7175324 0.5644531 0.2926432
2.391006 40.86656 -2.665641 0.6803855 0.2685453 -0.681879 0.5748698 0.2926432
3.843781 32.52247 -3.834615 0.6993842 0.2337478 -0.6754433 0.5748698 0.2753906
-2.265152 32.52247 1.478953 -0.6720295 0.2778251 0.6864325 0.5546875 0.2753906
-0.8123932 39.97241 -0.1890171 -0.7498235 0.08983738 0.6555105 0.5546875 0.2926432
3.843781 32.52247 1.478953 0.6738561 0.2893877 0.6798329 0.5849609 0.2753906
2.31514 39.93903 -0.1083286 0.7203605 0.07030356 0.6900277 0.5849609 0.2926432
-0.1801758 48.69761 0.8338315 -0.5360405 0.7907262 -0.2956564 0.5644531 0.311849
1.819305 48.66824 0.896919 0.5746343 0.7759109 -0.2603032 0.5748698 0.311849
-0.2406921 47.96478 2.411033 -0.580982 0.3483847 0.7355869 0.5546875 0.311849
1.758774 47.93541 2.474106 0.541352 0.3331351 0.7719838 0.5849609 0.311849
19.57114 18.43084 -19.57117 0.7070392 0.01383176 -0.7070391 0.5478516 0.2044271
16.13577 5.218015 -16.13575 0.5608249 -0.6292527 -0.5380675 0.5478516 0.1861979
5.228668 0.1026305 -12.62303 0.1140466 -0.9545605 -0.2753317 0.5247396 0.1669922
-12.62303 0.1026317 -5.228622 -0.2753315 -0.9545607 -0.1140461 0.3639323 0.2047526
5.228668 0.1026305 -12.62303 0.1140466 -0.9545605 -0.2753317 0.3369141 0.2047526
-5.228638 0.1026384 12.62306 -0.1140461 -0.9545605 0.2753319 0.3639323 0.1787109
16.13577 30.51204 -16.13585 0.5556376 0.6389863 -0.5319431 0.5478516 0.226888
5.329285 35.62742 -12.86609 0.0963039 0.9678172 -0.2324981 0.5263672 0.2447917
12.86603 35.62742 5.329233 0.2324982 0.9678172 0.09630413 0.3639323 0.2060547
-5.329269 35.62743 12.86598 -0.09630404 0.9678169 0.2324992 0.3369141 0.2060547
5.329285 35.62742 -12.86609 0.0963039 0.9678172 -0.2324981 0.3639323 0.2327474
-12.86601 35.62743 -5.329344 -0.2324982 0.9678172 -0.0963039 0.3369141 0.2324219
-0.8123932 39.97241 -0.1890171 -0.7498235 0.08983738 0.6555105 0.5947266 0.2926432
-2.265152 32.52247 1.478953 -0.6720295 0.2778251 0.6864325 0.5947266 0.2753906
-0.2406921 47.96478 2.411033 -0.580982 0.3483847 0.7355869 0.5947266 0.311849
1.758774 47.93541 2.474106 0.541352 0.3331351 0.7719838 0.5546875 0.319987
1.819305 48.66824 0.896919 0.5746343 0.7759109 -0.2603032 0.5644531 0.319987
12.62306 0.1026334 5.228668 0.2753316 -0.9545606 0.1140467 0.3369141 0.1787109
3 0 1 2 
3 2 3 0 
3 4 5 1 
3 1 0 4 
3 6 7 5 
3 5 4 6 
3 8 9 45 
3 45 46 8 
3 10 11 9 
3 9 8 10 
3 12 13 11 
3 11 10 12 
3 14 15 13 
3 13 12 14 
3 3 2 15 
3 15 14 3 
3 0 3 16 
3 16 17 0 
3 4 0 17 
3 6 4 17 
3 17 18 6 
3 8 46 47 
3 10 8 47 
3 47 19 10 
3 12 10 19 
3 14 12 19 
3 19 16 14 
3 3 14 16 
3 48 49 50 
3 20 21 2 
3 2 1 20 
3 22 20 1 
3 1 5 22 
3 23 22 5 
3 5 7 23 
3 24 51 45 
3 45 9 24 
3 25 24 9 
3 9 11 25 
3 26 25 11 
3 11 13 26 
3 27 26 13 
3 13 15 27 
3 21 27 15 
3 15 2 21 
3 20 28 29 
3 29 21 20 
3 22 28 20 
3 23 30 28 
3 28 22 23 
3 24 52 51 
3 25 31 52 
3 52 24 25 
3 26 31 25 
3 27 29 31 
3 31 26 27 
3 21 29 27 
3 53 32 54 
3 55 32 53 
3 56 32 55 
3 54 32 56 
3 33 34 35 
3 35 36 33 
3 37 38 34 
3 34 33 37 
3 39 40 57 
3 57 58 39 
3 36 35 40 
3 40 39 36 
3 41 42 35 
3 35 34 41 
3 43 41 34 
3 34 38 43 
3 44 59 57 
3 57 40 44 
3 42 44 40 
3 40 35 42 
3 43 60 61 
3 61 41 43 
3 49 62 50 
