ply
format ascii 1.0
comment VCGLIB generated
comment TextureFile cemetery_halloween_atlas.tga
element vertex 63
property float x
property float y
property float z
property float nx
property float ny
property float nz
property float texture_u
property float texture_v
element face 80
property list uchar int vertex_indices
end_header
16.13579 5.218019 16.13586 0.5498244 -0.6077458 0.5730081 0.4124349 0.02148438
19.57114 20.90535 19.57118 0.7071067 1.479222e-06 0.7071069 0.4124349 0.04003906
7.629395e-06 20.90535 27.67781 -2.187177e-07 2.020261e-06 1 0.4348958 0.04003906
7.629395e-06 5.218023 22.8195 0.01639268 -0.6077459 0.7939624 0.4348958 0.02148438
22.81944 5.218018 9.070261e-05 0.7939617 -0.6077468 -0.01639233 0.3880208 0.02148438
27.67778 20.90534 4.999985e-05 1 -6.61909e-08 2.647636e-07 0.3880208 0.04003906
16.13579 5.218015 -16.13568 0.573007 -0.6077475 -0.5498235 0.3652344 0.02148438
19.57114 20.90534 -19.57109 0.7071066 -1.864856e-06 -0.707107 0.3652344 0.04003906
1.525879e-05 5.218016 -22.81932 -0.01639287 -0.6077482 -0.7939606 0.5257161 0.02148438
1.525879e-05 20.90534 -27.67773 1.784277e-07 -2.529645e-06 -1 0.5257161 0.04003906
-16.13575 5.218017 -16.13568 -0.5498239 -0.6077477 -0.5730066 0.5016276 0.02148438
-19.57112 20.90534 -19.57109 -0.7071069 -1.813055e-06 -0.7071066 0.5016276 0.04003906
-22.8194 5.218018 9.070261e-05 -0.7939616 -0.6077469 0.01639302 0.4791667 0.02148438
-27.67775 20.90535 4.999985e-05 -1 6.331302e-08 -1.554047e-07 0.4791667 0.04003906
-16.13577 5.21802 16.13586 -0.5730073 -0.607746 0.549825 0.4563802 0.02148438
-19.57113 20.90535 19.57118 -0.7071069 1.758376e-06 0.7071066 0.4570312 0.04003906
-5.228634 0.1026384 12.62314 -0.1140461 -0.9545605 0.2753321 0.445638 0.002604167
12.62307 0.1026334 5.228745 0.2753318 -0.9545605 0.1140467 0.4049479 0.002604167
5.228661 0.1026305 -12.62296 0.1140461 -0.9545606 -0.2753317 0.3769531 0.002604167
-12.62304 0.1026317 -5.228546 -0.2753319 -0.9545606 -0.1140461 0.4876302 0.002604167
16.13579 36.59267 16.13578 0.5506456 0.6050862 0.5750305 0.4124349 0.06217448
7.629395e-06 36.59267 22.81942 0.01724264 0.6050868 0.7959728 0.4348958 0.06217448
22.81944 36.59267 9.297087e-06 0.7959735 0.605086 -0.0172433 0.3880208 0.06217448
16.13579 36.59267 -16.13577 0.575031 0.6050853 -0.5506462 0.3652344 0.06217448
1.525879e-05 36.59267 -22.81941 -0.01724298 0.6050854 -0.7959738 0.5257161 0.06217448
-16.13575 36.59267 -16.13577 -0.5506454 0.6050856 -0.5750315 0.5016276 0.06217448
-22.8194 36.59267 -5.961703e-06 -0.7959732 0.6050863 0.01724202 0.4791667 0.06217448
-16.13577 36.59267 16.13576 -0.575031 0.6050869 0.5506444 0.4570312 0.06217448
12.86604 41.70805 5.329309 0.2324986 0.9678171 0.09630405 0.405599 0.08007812
-5.329269 41.70806 12.86605 -0.0963043 0.9678169 0.2324991 0.4466146 0.08007812
5.3293 41.70805 -12.86601 0.09630387 0.9678172 -0.2324982 0.3769531 0.08007812
-12.866 41.70805 -5.329268 -0.2324981 0.9678172 -0.09630395 0.4892578 0.08007812
1.525879e-05 38.60314 8.96954e-06 1.743533e-07 1 3.589627e-08 0.3505859 0.0546875
-2.265152 38.6031 -3.83454 -0.6975823 0.2211392 -0.6815251 0.5644531 0.2753906
-0.7365036 46.98057 -2.746269 -0.6366803 0.2824647 -0.7175319 0.5644531 0.2926432
2.391014 46.94719 -2.665565 0.6803855 0.268545 -0.6818792 0.5748698 0.2926432
3.843788 38.6031 -3.83454 0.6993844 0.2337478 -0.6754432 0.5748698 0.2753906
-2.265152 38.6031 1.47902 -0.6720299 0.2778251 0.6864321 0.5546875 0.2753906
-0.8123779 46.05304 -0.1889418 -0.7498212 0.08983761 0.6555131 0.5546875 0.2926432
3.843788 38.6031 1.47902 0.6738566 0.2893872 0.6798326 0.5849609 0.2753906
2.315147 46.01966 -0.108261 0.7203614 0.0703031 0.6900268 0.5849609 0.2926432
-0.1801605 54.77824 0.8339068 -0.5360381 0.7907276 -0.295657 0.5644531 0.311849
1.819321 54.74887 0.8969942 0.5746342 0.7759106 -0.2603046 0.5748698 0.311849
-0.2406845 54.04541 2.411109 -0.5809829 0.3483854 0.7355859 0.5546875 0.311849
1.758797 54.01604 2.474181 0.5413541 0.3331355 0.7719822 0.5849609 0.311849
19.57114 20.90534 -19.57109 0.7071066 -1.864856e-06 -0.707107 0.5478516 0.04003906
16.13579 5.218015 -16.13568 0.573007 -0.6077475 -0.5498235 0.5478516 0.02148438
5.228661 0.1026305 -12.62296 0.1140461 -0.9545606 -0.2753317 0.5247396 0.002604167
-12.62304 0.1026317 -5.228546 -0.2753319 -0.9545606 -0.1140461 0.3639323 0.04069011
5.228661 0.1026305 -12.62296 0.1140461 -0.9545606 -0.2753317 0.3369141 0.04069011
-5.228634 0.1026384 12.62314 -0.1140461 -0.9545605 0.2753321 0.3639323 0.01432292
16.13579 36.59267 -16.13577 0.575031 0.6050853 -0.5506462 0.5478516 0.06217448
5.3293 41.70805 -12.86601 0.09630387 0.9678172 -0.2324982 0.5263672 0.08007812
12.86604 41.70805 5.329309 0.2324986 0.9678171 0.09630405 0.3639323 0.04166667
-5.329269 41.70806 12.86605 -0.0963043 0.9678169 0.2324991 0.3369141 0.04166667
5.3293 41.70805 -12.86601 0.09630387 0.9678172 -0.2324982 0.3639323 0.06803385
-12.866 41.70805 -5.329268 -0.2324981 0.9678172 -0.09630395 0.3369141 0.06803385
-0.8123779 46.05304 -0.1889418 -0.7498212 0.08983761 0.6555131 0.5947266 0.2926432
-2.265152 38.6031 1.47902 -0.6720299 0.2778251 0.6864321 0.5947266 0.2753906
-0.2406845 54.04541 2.411109 -0.5809829 0.3483854 0.7355859 0.5947266 0.311849
1.758797 54.01604 2.474181 0.5413541 0.3331355 0.7719822 0.5546875 0.319987
1.819321 54.74887 0.8969942 0.5746342 0.7759106 -0.2603046 0.5644531 0.319987
12.62307 0.1026334 5.228745 0.2753318 -0.9545605 0.1140467 0.3369141 0.01432292
3 0 1 2 
3 2 3 0 
3 4 5 1 
3 1 0 4 
3 6 7 5 
3 5 4 6 
3 8 9 45 
3 45 46 8 
3 10 11 9 
3 9 8 10 
3 12 13 11 
3 11 10 12 
3 14 15 13 
3 13 12 14 
3 3 2 15 
3 15 14 3 
3 0 3 16 
3 16 17 0 
3 4 0 17 
3 6 4 17 
3 17 18 6 
3 8 46 47 
3 10 8 47 
3 47 19 10 
3 12 10 19 
3 14 12 19 
3 19 16 14 
3 3 14 16 
3 48 49 50 
3 20 21 2 
3 2 1 20 
3 22 20 1 
3 1 5 22 
3 23 22 5 
3 5 7 23 
3 24 51 45 
3 45 9 24 
3 25 24 9 
3 9 11 25 
3 26 25 11 
3 11 13 26 
3 27 26 13 
3 13 15 27 
3 21 27 15 
3 15 2 21 
3 20 28 29 
3 29 21 20 
3 22 28 20 
3 23 30 28 
3 28 22 23 
3 24 52 51 
3 25 31 52 
3 52 24 25 
3 26 31 25 
3 27 29 31 
3 31 26 27 
3 21 29 27 
3 53 32 54 
3 55 32 53 
3 56 32 55 
3 54 32 56 
3 33 34 35 
3 35 36 33 
3 37 38 34 
3 34 33 37 
3 39 40 57 
3 57 58 39 
3 36 35 40 
3 40 39 36 
3 41 42 35 
3 35 34 41 
3 43 41 34 
3 34 38 43 
3 44 59 57 
3 57 40 44 
3 42 44 40 
3 40 35 42 
3 43 60 61 
3 61 41 43 
3 49 62 50 
