ply
format ascii 1.0
comment VCGLIB generated
comment TextureFile cemetery_halloween_atlas.tga
element vertex 72
property float x
property float y
property float z
property float nx
property float ny
property float nz
property float texture_u
property float texture_v
element face 96
property list uchar int vertex_indices
end_header
21.41736 9.564835 21.4174 0.6675174 0.1472348 0.7298922 0.4124349 0.02636719
16.71375 17.85316 16.71379 0.63316 0.4452154 0.6331601 0.4124349 0.04003906
7.629394e-06 17.85316 23.63686 -5.915778e-08 0.4452153 0.8954237 0.4348958 0.04003906
0 9.564842 30.28874 0.04410449 0.1472342 0.9881179 0.4348958 0.02636719
30.28873 9.564837 4.577637e-05 0.9881178 0.1472342 -0.04410506 0.3880208 0.02636719
23.63682 17.85316 4.577637e-05 0.8954237 0.4452151 2.221e-07 0.3880208 0.04003906
21.41736 9.564837 -21.4173 0.7298914 0.1472346 -0.6675181 0.3652344 0.02636719
16.71375 17.85316 -16.71371 0.6331605 0.4452141 -0.6331606 0.3652344 0.04003906
1.525879e-05 9.564844 -30.28865 -0.04410473 0.1472333 -0.988118 0.5257161 0.02636719
1.525879e-05 17.85316 -23.63678 2.218417e-07 0.4452137 -0.8954244 0.5257161 0.04003906
-21.41733 9.564844 -21.4173 -0.6675179 0.1472339 -0.7298918 0.5016276 0.02636719
-16.71373 17.85317 -16.71371 -0.6331605 0.445214 -0.6331605 0.5016276 0.04003906
-30.28869 9.564842 4.577637e-05 -0.9881178 0.1472344 0.04410419 0.4791667 0.02636719
-23.6368 17.85316 4.577637e-05 -0.8954237 0.445215 -1.328467e-07 0.4791667 0.04003906
-21.41736 9.564837 21.4174 -0.7298918 0.1472341 0.6675179 0.4567057 0.02636719
-16.71375 17.85316 16.71379 -0.6331599 0.4452157 0.63316 0.4570312 0.04003906
21.6483 4.888702 18.99935 0.5860597 -0.6208809 0.5206159 0.4101562 0.01692708
-1.873112 4.888708 28.74221 -0.04627565 -0.6208817 0.7825372 0.4375 0.01692708
-7.16138 0.08765221 17.28917 -0.09724487 -0.9671744 0.2347703 0.445638 0.002604167
17.28914 0.08764839 7.161461 0.2347701 -0.9671744 0.09724523 0.4049479 0.002604167
28.7422 4.888708 1.873169 0.7825372 -0.6208816 0.04627622 0.3922526 0.01692708
18.99932 4.888704 -21.64823 0.5206155 -0.6208812 -0.5860597 0.3684896 0.01692708
7.161418 0.08764839 -17.28907 0.0972451 -0.9671744 -0.2347704 0.3769531 0.002604167
1.873131 4.888708 -28.74212 0.04627575 -0.6208819 -0.7825371 0.5253906 0.01692708
-21.64826 4.888708 -18.99924 -0.5860594 -0.6208814 -0.5206156 0.4983724 0.01692708
-17.2891 0.08764839 -7.161331 -0.2347701 -0.9671745 -0.09724503 0.4876302 0.002604167
-28.74216 4.888704 -1.873062 -0.7825371 -0.6208818 -0.04627603 0.4814453 0.01692708
-18.9993 4.888708 21.64834 -0.5206149 -0.6208817 0.5860598 0.4534505 0.01692708
13.77996 39.07938 13.77996 0.5730003 0.5600007 0.5983895 0.4124349 0.06217448
7.629394e-06 39.07938 19.48779 0.01795261 0.560001 0.8282974 0.4348958 0.06217448
19.48779 39.07938 1.525879e-05 0.8282977 0.5600006 -0.01795298 0.3880208 0.06217448
13.77996 39.07938 -13.77994 0.5983896 0.5600001 -0.5730008 0.3652344 0.06217448
1.525879e-05 39.07939 -19.48777 -0.01795273 0.5600002 -0.828298 0.5257161 0.06217448
-13.77993 39.07938 -13.77994 -0.5730003 0.5600002 -0.5983899 0.5016276 0.06217448
-19.48777 39.07938 0 -0.8282978 0.5600005 0.01795201 0.4791667 0.06217448
-13.77994 39.07938 13.77995 -0.5983899 0.5600008 0.5729997 0.4570312 0.06217448
10.9876 43.44792 4.551239 0.2324986 0.9678171 0.09630434 0.405599 0.08007812
-4.551197 43.44792 10.98762 -0.09630419 0.9678169 0.2324993 0.4466146 0.08007812
4.551219 43.44793 -10.98756 0.09630399 0.9678173 -0.232498 0.3769531 0.08007812
-10.98757 43.44793 -4.551186 -0.2324982 0.9678172 -0.09630374 0.4892578 0.08007812
1.525879e-05 40.79633 1.525879e-05 2.56402e-08 1 4.639645e-07 0.3505859 0.0546875
2.582607 40.7963 -3.765007 0.4018364 0.2211387 -0.8886086 0.5644531 0.2753906
2.155769 47.95065 -2.220406 0.456501 0.2824646 -0.8436946 0.5644531 0.2926432
3.004513 47.92215 0.3130035 0.8734614 0.2685448 0.4061392 0.5748698 0.2926432
4.366935 40.7963 1.137398 0.8739128 0.2337466 0.4261914 0.5748698 0.2753906
-1.681515 40.7963 -2.21299 -0.8748834 0.2778251 -0.396727 0.5546875 0.2753906
0.08135604 47.15854 -1.534332 -0.8724356 0.08983762 -0.4804012 0.5546875 0.2926432
0.1028175 40.7963 2.689407 -0.4083614 0.2893865 0.8657346 0.5849609 0.2753906
0.9301185 47.13004 0.9990616 -0.4020351 0.0703022 0.9129214 0.5849609 0.2926432
-0.5548095 54.60986 -0.7282181 0.0944926 0.7907278 -0.6048312 0.5644531 0.311849
-0.02142334 54.58478 0.8947754 0.4411432 0.775912 0.4509469 0.5748698 0.311849
-1.838192 53.98402 -0.3161163 -0.8899317 0.3483862 -0.2943617 0.5546875 0.311849
-1.304787 53.95894 1.306892 -0.5402682 0.3331354 0.7727426 0.5849609 0.311849
16.71375 17.85316 -16.71371 0.6331605 0.4452141 -0.6331606 0.5478516 0.04003906
21.41736 9.564837 -21.4173 0.7298914 0.1472346 -0.6675181 0.5478516 0.02636719
18.99932 4.888704 -21.64823 0.5206155 -0.6208812 -0.5860597 0.5419922 0.01692708
7.161418 0.08764839 -17.28907 0.0972451 -0.9671744 -0.2347704 0.5247396 0.002604167
-17.2891 0.08764839 -7.161331 -0.2347701 -0.9671745 -0.09724503 0.3639323 0.04069011
7.161418 0.08764839 -17.28907 0.0972451 -0.9671744 -0.2347704 0.3369141 0.04069011
-7.16138 0.08765221 17.28917 -0.09724487 -0.9671744 0.2347703 0.3639323 0.01432292
13.77996 39.07938 -13.77994 0.5983896 0.5600001 -0.5730008 0.5478516 0.06217448
4.551219 43.44793 -10.98756 0.09630399 0.9678173 -0.232498 0.5263672 0.08007812
10.9876 43.44792 4.551239 0.2324986 0.9678171 0.09630434 0.3639323 0.04166667
-4.551197 43.44792 10.98762 -0.09630419 0.9678169 0.2324993 0.3369141 0.04166667
4.551219 43.44793 -10.98756 0.09630399 0.9678173 -0.232498 0.3639323 0.06803385
-10.98757 43.44793 -4.551186 -0.2324982 0.9678172 -0.09630374 0.3369141 0.06803385
0.08135604 47.15854 -1.534332 -0.8724356 0.08983762 -0.4804012 0.5947266 0.2926432
-1.681515 40.7963 -2.21299 -0.8748834 0.2778251 -0.396727 0.5947266 0.2753906
-1.838192 53.98402 -0.3161163 -0.8899317 0.3483862 -0.2943617 0.5947266 0.311849
-1.304787 53.95894 1.306892 -0.5402682 0.3331354 0.7727426 0.5546875 0.319987
-0.02142334 54.58478 0.8947754 0.4411432 0.775912 0.4509469 0.5644531 0.319987
17.28914 0.08764839 7.161461 0.2347701 -0.9671744 0.09724523 0.3369141 0.01432292
3 0 1 2 
3 2 3 0 
3 4 5 1 
3 1 0 4 
3 6 7 5 
3 5 4 6 
3 8 9 53 
3 53 54 8 
3 10 11 9 
3 9 8 10 
3 12 13 11 
3 11 10 12 
3 14 15 13 
3 13 12 14 
3 3 2 15 
3 15 14 3 
3 16 17 18 
3 18 19 16 
3 20 16 19 
3 21 20 19 
3 19 22 21 
3 23 55 56 
3 24 23 56 
3 56 25 24 
3 26 24 25 
3 27 26 25 
3 25 18 27 
3 17 27 18 
3 57 58 59 
3 28 29 2 
3 2 1 28 
3 30 28 1 
3 1 5 30 
3 31 30 5 
3 5 7 31 
3 32 60 53 
3 53 9 32 
3 33 32 9 
3 9 11 33 
3 34 33 11 
3 11 13 34 
3 35 34 13 
3 13 15 35 
3 29 35 15 
3 15 2 29 
3 28 36 37 
3 37 29 28 
3 30 36 28 
3 31 38 36 
3 36 30 31 
3 32 61 60 
3 33 39 61 
3 61 32 33 
3 34 39 33 
3 35 37 39 
3 39 34 35 
3 29 37 35 
3 62 40 63 
3 64 40 62 
3 65 40 64 
3 63 40 65 
3 41 42 43 
3 43 44 41 
3 45 46 42 
3 42 41 45 
3 47 48 66 
3 66 67 47 
3 44 43 48 
3 48 47 44 
3 49 50 43 
3 43 42 49 
3 51 49 42 
3 42 46 51 
3 52 68 66 
3 66 48 52 
3 50 52 48 
3 48 43 50 
3 51 69 70 
3 70 49 51 
3 58 71 59 
3 3 17 16 
3 16 0 3 
3 0 16 20 
3 20 4 0 
3 4 20 21 
3 21 6 4 
3 54 55 23 
3 23 8 54 
3 8 23 24 
3 24 10 8 
3 10 24 26 
3 26 12 10 
3 12 26 27 
3 27 14 12 
3 14 27 17 
3 17 3 14 
