ply
format ascii 1.0
comment VCGLIB generated
comment TextureFile cemetery_halloween_atlas.tga
element vertex 63
property float x
property float y
property float z
property float nx
property float ny
property float nz
property float texture_u
property float texture_v
element face 80
property list uchar int vertex_indices
end_header
16.13578 5.218019 16.13586 0.6472564 -0.3238211 0.6900718 0.4124349 0.1044922
12.22324 23.18534 10.36074 0.6987323 0.06980599 0.7119694 0.4124349 0.1233724
0.1247983 23.89074 15.31362 -0.000168292 0.09448988 0.9955258 0.4348958 0.1233724
8.94928e-06 5.218023 22.8195 0.01933557 -0.313297 0.9494583 0.4348958 0.1044922
22.81944 5.218018 9.070261e-05 0.9404277 -0.3397135 -0.01380691 0.3880208 0.1044922
17.24145 21.27801 -1.57996 0.9998666 0.00385776 0.01587105 0.3880208 0.1233724
16.13578 5.218015 -16.13568 0.6791324 -0.3485305 -0.645992 0.3652344 0.1044922
12.23982 19.28603 -13.51381 0.7145423 -0.0619834 -0.696841 0.3652344 0.1233724
1.789856e-05 5.218016 -22.81932 -0.02679123 -0.3441427 -0.9385351 0.5257161 0.1044922
0.1482399 18.37627 -18.4501 -0.0008780689 -0.09083693 -0.9958654 0.5257161 0.1233724
-16.13575 5.218017 -16.13568 -0.6567962 -0.3333644 -0.6763778 0.5016276 0.1044922
-11.9502 19.08168 -13.49723 -0.7150198 -0.06976745 -0.6956143 0.5016276 0.1233724
-22.8194 5.218018 9.070261e-05 -0.9463134 -0.3219208 0.02929188 0.4791667 0.1044922
-16.96841 20.98901 -1.556514 -0.9998386 -0.007318213 0.01640773 0.4791667 0.1233724
-16.13577 5.21802 16.13586 -0.6852858 -0.3134741 0.6573564 0.4563802 0.1044922
-11.96679 22.98099 10.37733 -0.6991035 0.0619358 0.712333 0.4570312 0.1233724
-5.228634 0.1026384 12.62314 -0.1140461 -0.9545605 0.2753321 0.445638 0.0859375
12.62307 0.1026334 5.228745 0.2753318 -0.9545605 0.1140467 0.4049479 0.0859375
5.228657 0.1026305 -12.62296 0.1140461 -0.9545606 -0.2753317 0.3769531 0.0859375
-12.62304 0.1026317 -5.228546 -0.2753319 -0.9545605 -0.1140461 0.4876302 0.0859375
16.12814 39.35235 11.81682 0.6486381 0.4376315 0.6226936 0.4124349 0.1455078
-0.01163134 40.29338 18.42413 0.01976421 0.4742984 0.8801423 0.4348958 0.1455078
22.82261 36.8079 -4.112525 0.9422991 0.3260159 -0.07606635 0.3880208 0.1455078
16.15025 34.15052 -20.03272 0.6823156 0.2224729 -0.6963844 0.3652344 0.1455078
0.01964211 32.93688 -26.61791 -0.02527273 0.1692354 -0.9852516 0.5257161 0.1455078
-16.12012 33.8779 -20.0106 -0.6541466 0.2059018 -0.7278026 0.5016276 0.1455078
-22.81459 36.42236 -4.081251 -0.9478075 0.3175178 -0.02904328 0.4791667 0.1455078
-16.14225 39.07974 11.83892 -0.6878245 0.4210608 0.5912742 0.4570312 0.1455078
12.8227 42.63115 0.3293464 0.2242483 0.9726138 -0.06111661 0.405599 0.1634115
-5.377112 43.69228 7.780015 -0.1046355 0.9917892 0.07352277 0.4466146 0.1634115
5.298698 39.63459 -17.62286 0.08828411 0.9184639 -0.3855257 0.3769531 0.1634115
-12.90111 40.69573 -10.17219 -0.2405995 0.9376394 -0.250887 0.4892578 0.1634115
-0.01297359 38.59924 -4.42095 -0.008447604 0.9868874 -0.1611891 0.3505859 0.1376953
-2.275435 37.96198 -8.203802 -0.6989587 0.1024918 -0.7077798 0.5644531 0.2753906
-0.8183599 46.41792 -8.481171 -0.6385521 0.157724 -0.7532426 0.5644531 0.2926432
2.309277 46.42442 -8.398285 0.6785606 0.1608596 -0.7167147 0.5748698 0.2926432
3.833285 38.01358 -8.207991 0.6978475 0.1277168 -0.7047676 0.5748698 0.2753906
-2.279075 38.81847 -2.959716 -0.6748229 0.3791512 0.6331339 0.5546875 0.2753906
-0.8881458 45.91413 -5.807724 -0.7510029 0.1879876 0.6329734 0.5546875 0.2926432
3.829645 38.87008 -2.963897 0.6709208 0.4008681 0.6238349 0.5849609 0.2753906
2.239491 45.92062 -5.724854 0.7192673 0.186692 0.6691791 0.5849609 0.2926432
-0.3303536 54.69514 -6.205095 -0.5424954 0.7281737 -0.4188818 0.5644531 0.311849
1.669254 54.69321 -6.139459 0.5682381 0.7286327 -0.3823609 0.5748698 0.311849
-0.3857652 54.22563 -4.530351 -0.5844091 0.4574782 0.6702087 0.5546875 0.311849
1.613843 54.2237 -4.464738 0.5379913 0.4577756 0.7078184 0.5849609 0.311849
12.23982 19.28603 -13.51381 0.7145423 -0.0619834 -0.696841 0.5478516 0.1233724
16.13578 5.218015 -16.13568 0.6791324 -0.3485305 -0.645992 0.5478516 0.1044922
5.228657 0.1026305 -12.62296 0.1140461 -0.9545606 -0.2753317 0.5247396 0.0859375
-12.62304 0.1026317 -5.228546 -0.2753319 -0.9545605 -0.1140461 0.3639323 0.1236979
5.228657 0.1026305 -12.62296 0.1140461 -0.9545606 -0.2753317 0.3369141 0.1236979
-5.228634 0.1026384 12.62314 -0.1140461 -0.9545605 0.2753321 0.3639323 0.09733073
16.15025 34.15052 -20.03272 0.6823156 0.2224729 -0.6963844 0.5478516 0.1455078
5.298698 39.63459 -17.62286 0.08828411 0.9184639 -0.3855257 0.5263672 0.1634115
12.8227 42.63115 0.3293464 0.2242483 0.9726138 -0.06111661 0.3639323 0.1246745
-5.377112 43.69228 7.780015 -0.1046355 0.9917892 0.07352277 0.3369141 0.1246745
5.298698 39.63459 -17.62286 0.08828411 0.9184639 -0.3855257 0.3639323 0.1510417
-12.90111 40.69573 -10.17219 -0.2405995 0.9376394 -0.250887 0.3369141 0.1510417
-0.8881458 45.91413 -5.807724 -0.7510029 0.1879876 0.6329734 0.5947266 0.2926432
-2.279075 38.81847 -2.959716 -0.6748229 0.3791512 0.6331339 0.5947266 0.2753906
-0.3857652 54.22563 -4.530351 -0.5844091 0.4574782 0.6702087 0.5947266 0.311849
1.613843 54.2237 -4.464738 0.5379913 0.4577756 0.7078184 0.5546875 0.319987
1.669254 54.69321 -6.139459 0.5682381 0.7286327 -0.3823609 0.5644531 0.319987
12.62307 0.1026334 5.228745 0.2753318 -0.9545605 0.1140467 0.3369141 0.09733073
3 0 1 2 
3 2 3 0 
3 4 5 1 
3 1 0 4 
3 6 7 5 
3 5 4 6 
3 8 9 45 
3 45 46 8 
3 10 11 9 
3 9 8 10 
3 12 13 11 
3 11 10 12 
3 14 15 13 
3 13 12 14 
3 3 2 15 
3 15 14 3 
3 0 3 16 
3 16 17 0 
3 4 0 17 
3 6 4 17 
3 17 18 6 
3 8 46 47 
3 10 8 47 
3 47 19 10 
3 12 10 19 
3 14 12 19 
3 19 16 14 
3 3 14 16 
3 48 49 50 
3 20 21 2 
3 2 1 20 
3 22 20 1 
3 1 5 22 
3 23 22 5 
3 5 7 23 
3 24 51 45 
3 45 9 24 
3 25 24 9 
3 9 11 25 
3 26 25 11 
3 11 13 26 
3 27 26 13 
3 13 15 27 
3 21 27 15 
3 15 2 21 
3 20 28 29 
3 29 21 20 
3 22 28 20 
3 23 30 28 
3 28 22 23 
3 24 52 51 
3 25 31 52 
3 52 24 25 
3 26 31 25 
3 27 29 31 
3 31 26 27 
3 21 29 27 
3 53 32 54 
3 55 32 53 
3 56 32 55 
3 54 32 56 
3 33 34 35 
3 35 36 33 
3 37 38 34 
3 34 33 37 
3 39 40 57 
3 57 58 39 
3 36 35 40 
3 40 39 36 
3 41 42 35 
3 35 34 41 
3 43 41 34 
3 34 38 43 
3 44 59 57 
3 57 40 44 
3 42 44 40 
3 40 35 42 
3 43 60 61 
3 61 41 43 
3 49 62 50 
