ply
format ascii 1.0
comment VCGLIB generated
comment TextureFile cemetery_halloween_atlas.tga
element vertex 63
property float x
property float y
property float z
property float nx
property float ny
property float nz
property float texture_u
property float texture_v
element face 80
property list uchar int vertex_indices
end_header
16.13579 5.218019 16.13578 0.5498244 -0.6077458 0.5730081 0.4124349 0.2695312
19.57114 20.90535 19.5711 0.7071066 1.450443e-06 0.7071069 0.4124349 0.2877604
0 20.90535 27.67774 -2.99298e-07 2.192933e-06 1 0.4348958 0.2877604
0 5.218023 22.81943 0.01639258 -0.6077459 0.7939624 0.4348958 0.2695312
22.81944 5.218018 1.440867e-05 0.7939617 -0.6077467 -0.01639234 0.3880208 0.2695312
27.67778 20.90534 -2.62941e-05 1 -7.770236e-08 2.244735e-07 0.3880208 0.2877604
16.13579 5.218015 -16.13575 0.5730071 -0.6077474 -0.5498236 0.3652344 0.2695312
19.57114 20.90534 -19.57117 0.7071065 -1.873489e-06 -0.7071071 0.3652344 0.2877604
1.525879e-05 5.218016 -22.8194 -0.01639289 -0.6077482 -0.7939606 0.5257161 0.2695312
1.525879e-05 20.90534 -27.6778 2.244736e-07 -2.54979e-06 -1 0.5257161 0.2877604
-16.13574 5.218017 -16.13575 -0.5498238 -0.6077478 -0.5730066 0.5016276 0.2695312
-19.57112 20.90534 -19.57117 -0.7071069 -1.885002e-06 -0.7071066 0.5016276 0.2877604
-22.8194 5.218018 1.440867e-05 -0.7939617 -0.6077468 0.0163928 0.4791667 0.2695312
-27.67775 20.90535 -2.62941e-05 -1 6.043516e-08 -3.165651e-07 0.4791667 0.2877604
-16.13577 5.21802 16.13578 -0.5730075 -0.607746 0.5498247 0.4563802 0.2695312
-19.57114 20.90535 19.5711 -0.707107 1.784276e-06 0.7071066 0.4570312 0.2877604
-5.228638 0.1026384 12.62306 -0.1140461 -0.9545605 0.275332 0.445638 0.2503255
12.62306 0.1026334 5.228668 0.2753315 -0.9545606 0.1140466 0.4049479 0.2503255
5.228668 0.1026305 -12.62303 0.1140464 -0.9545606 -0.2753317 0.3769531 0.2503255
-12.62305 0.1026317 -5.228622 -0.2753322 -0.9545605 -0.1140463 0.4876302 0.2503255
16.13579 36.59267 16.13571 0.5506456 0.6050862 0.5750306 0.4124349 0.3102213
0 36.59267 22.81935 0.01724247 0.6050869 0.7959728 0.4348958 0.3102213
22.81944 36.59267 -5.936746e-05 0.7959735 0.6050858 -0.01724312 0.3880208 0.3102213
16.13579 36.59267 -16.13585 0.575031 0.6050851 -0.5506464 0.3652344 0.3102213
1.525879e-05 36.59267 -22.81949 -0.01724296 0.6050853 -0.7959739 0.5257161 0.3102213
-16.13574 36.59267 -16.13585 -0.5506454 0.6050856 -0.5750315 0.5016276 0.3102213
-22.8194 36.59267 -8.225565e-05 -0.7959731 0.6050864 0.01724179 0.4791667 0.3102213
-16.13577 36.59267 16.13568 -0.5750311 0.6050869 0.5506443 0.4570312 0.3102213
12.86604 41.70805 5.329232 0.2324985 0.9678171 0.09630407 0.405599 0.3277995
-5.329269 41.70806 12.86598 -0.0963042 0.967817 0.2324991 0.4466146 0.3277995
5.3293 41.70805 -12.86609 0.09630387 0.9678172 -0.2324982 0.3769531 0.3277995
-12.866 41.70805 -5.329345 -0.232498 0.9678172 -0.09630395 0.4892578 0.3277995
1.525879e-05 38.60314 -5.969501e-05 1.999935e-07 1 -1.435851e-07 0.3505859 0.3027344
-2.265152 38.6031 -3.834616 -0.6975822 0.2211386 -0.6815253 0.5644531 0.2753906
-0.7365112 46.98057 -2.746346 -0.6366814 0.282465 -0.7175308 0.5644531 0.2926432
2.391022 46.94719 -2.665642 0.6803876 0.2685445 -0.6818773 0.5748698 0.2926432
3.843781 38.6031 -3.834616 0.6993843 0.2337476 -0.6754434 0.5748698 0.2753906
-2.265152 38.6031 1.478952 -0.6720293 0.2778253 0.6864326 0.5546875 0.2753906
-0.8123779 46.05304 -0.1890181 -0.7498207 0.08983807 0.6555135 0.5546875 0.2926432
3.843781 38.6031 1.478952 0.6738561 0.2893877 0.6798329 0.5849609 0.2753906
2.31514 46.01966 -0.1083296 0.7203589 0.07030183 0.6900296 0.5849609 0.2926432
-0.1801605 54.77824 0.8338305 -0.5360405 0.7907261 -0.2956565 0.5644531 0.311849
1.819321 54.74888 0.8969179 0.5746341 0.775911 -0.2603028 0.5748698 0.311849
-0.2406769 54.04541 2.411032 -0.5809817 0.3483846 0.7355872 0.5546875 0.311849
1.758789 54.01604 2.474105 0.5413527 0.333134 0.7719838 0.5849609 0.311849
19.57114 20.90534 -19.57117 0.7071065 -1.873489e-06 -0.7071071 0.5478516 0.2877604
16.13579 5.218015 -16.13575 0.5730071 -0.6077474 -0.5498236 0.5478516 0.2695312
5.228668 0.1026305 -12.62303 0.1140464 -0.9545606 -0.2753317 0.5247396 0.2503255
-12.62305 0.1026317 -5.228622 -0.2753322 -0.9545605 -0.1140463 0.3639323 0.2884115
5.228668 0.1026305 -12.62303 0.1140464 -0.9545606 -0.2753317 0.3369141 0.2884115
-5.228638 0.1026384 12.62306 -0.1140461 -0.9545605 0.275332 0.3639323 0.2620443
16.13579 36.59267 -16.13585 0.575031 0.6050851 -0.5506464 0.5478516 0.3102213
5.3293 41.70805 -12.86609 0.09630387 0.9678172 -0.2324982 0.5263672 0.3277995
12.86604 41.70805 5.329232 0.2324985 0.9678171 0.09630407 0.3639323 0.289388
-5.329269 41.70806 12.86598 -0.0963042 0.967817 0.2324991 0.3369141 0.289388
5.3293 41.70805 -12.86609 0.09630387 0.9678172 -0.2324982 0.3639323 0.3154297
-12.866 41.70805 -5.329345 -0.232498 0.9678172 -0.09630395 0.3369141 0.3154297
-0.8123779 46.05304 -0.1890181 -0.7498207 0.08983807 0.6555135 0.5947266 0.2926432
-2.265152 38.6031 1.478952 -0.6720293 0.2778253 0.6864326 0.5947266 0.2753906
-0.2406769 54.04541 2.411032 -0.5809817 0.3483846 0.7355872 0.5947266 0.311849
1.758789 54.01604 2.474105 0.5413527 0.333134 0.7719838 0.5546875 0.319987
1.819321 54.74888 0.8969179 0.5746341 0.775911 -0.2603028 0.5644531 0.319987
12.62306 0.1026334 5.228668 0.2753315 -0.9545606 0.1140466 0.3369141 0.2620443
3 0 1 2 
3 2 3 0 
3 4 5 1 
3 1 0 4 
3 6 7 5 
3 5 4 6 
3 8 9 45 
3 45 46 8 
3 10 11 9 
3 9 8 10 
3 12 13 11 
3 11 10 12 
3 14 15 13 
3 13 12 14 
3 3 2 15 
3 15 14 3 
3 0 3 16 
3 16 17 0 
3 4 0 17 
3 6 4 17 
3 17 18 6 
3 8 46 47 
3 10 8 47 
3 47 19 10 
3 12 10 19 
3 14 12 19 
3 19 16 14 
3 3 14 16 
3 48 49 50 
3 20 21 2 
3 2 1 20 
3 22 20 1 
3 1 5 22 
3 23 22 5 
3 5 7 23 
3 24 51 45 
3 45 9 24 
3 25 24 9 
3 9 11 25 
3 26 25 11 
3 11 13 26 
3 27 26 13 
3 13 15 27 
3 21 27 15 
3 15 2 21 
3 20 28 29 
3 29 21 20 
3 22 28 20 
3 23 30 28 
3 28 22 23 
3 24 52 51 
3 25 31 52 
3 52 24 25 
3 26 31 25 
3 27 29 31 
3 31 26 27 
3 21 29 27 
3 53 32 54 
3 55 32 53 
3 56 32 55 
3 54 32 56 
3 33 34 35 
3 35 36 33 
3 37 38 34 
3 34 33 37 
3 39 40 57 
3 57 58 39 
3 36 35 40 
3 40 39 36 
3 41 42 35 
3 35 34 41 
3 43 41 34 
3 34 38 43 
3 44 59 57 
3 57 40 44 
3 42 44 40 
3 40 35 42 
3 43 60 61 
3 61 41 43 
3 49 62 50 
