ply
format ascii 1.0
comment VCGLIB generated
comment TextureFile cemetery_halloween_atlas.tga
element vertex 63
property float x
property float y
property float z
property float nx
property float ny
property float nz
property float texture_u
property float texture_v
element face 80
property list uchar int vertex_indices
end_header
18.11476 5.218019 18.11476 0.5688683 -0.5772482 0.5858101 0.4124349 0.1861979
19.57114 17.85975 19.5711 0.6976299 0.160568 0.6982338 0.4124349 0.2044271
0 17.85975 27.67774 -0.0004289956 0.1620485 0.9867827 0.4348958 0.2044271
0 5.218024 25.61813 0.01197882 -0.5772482 0.8164809 0.4348958 0.1861979
25.61815 5.218018 1.440867e-05 0.8164806 -0.5772488 -0.01197849 0.3880208 0.1861979
27.67776 17.85975 -2.579791e-05 0.9871938 0.1595255 0.000173369 0.3880208 0.2044271
18.11476 5.218015 -18.11473 0.5858089 -0.5772502 -0.5688674 0.3652344 0.1861979
19.57114 17.85975 -19.57117 0.6979206 0.1595391 -0.6981792 0.3652344 0.2044271
1.525879e-05 5.218015 -25.6181 -0.01197872 -0.5772513 -0.8164787 0.5257161 0.1861979
1.525879e-05 17.85975 -27.6778 -0.0004305376 0.1606013 -0.9870193 0.5257161 0.2044271
-18.11475 5.218017 -18.11473 -0.5688682 -0.5772504 -0.585808 0.5016276 0.1861979
-19.57112 17.85975 -19.57117 -0.6980572 0.1620823 -0.6974564 0.5016276 0.2044271
-25.61812 5.218018 1.440867e-05 -0.8164799 -0.5772496 0.01197903 0.4791667 0.1861979
-27.67776 17.85975 -2.579791e-05 -0.9866073 0.163114 0.0001711774 0.4791667 0.2044271
-18.11476 5.21802 18.11476 -0.5858091 -0.5772485 0.5688689 0.4563802 0.1861979
-19.57115 17.85976 19.5711 -0.6977665 0.1631004 0.69751 0.4570312 0.2044271
-5.228638 0.1026384 12.62306 -0.09074087 -0.971481 0.2190681 0.445638 0.1669922
12.62306 0.1026334 5.228668 0.2190677 -0.971481 0.09074136 0.4049479 0.1669922
5.228668 0.1026305 -12.62303 0.09074118 -0.9714811 -0.2190678 0.3769531 0.1669922
-12.62303 0.1026317 -5.228622 -0.2190676 -0.9714811 -0.09074084 0.4876302 0.1669922
11.62564 38.19385 11.47367 0.5655267 0.5710683 0.5950299 0.4124349 0.226888
0.1083527 38.19385 16.24428 0.02221368 0.5725762 0.8195506 0.4348958 0.226888
16.39627 38.19385 -0.04360821 0.821363 0.5699881 -0.0218299 0.3880208 0.226888
11.62564 38.19385 -11.56091 0.5962294 0.5700032 -0.5653379 0.3652344 0.226888
0.1083527 38.19385 -16.33152 -0.02085542 0.5711063 -0.8206112 0.5257161 0.226888
-11.40892 38.19385 -11.56091 -0.5637875 0.5726141 -0.5951948 0.5016276 0.226888
-16.17955 38.19385 -0.0436311 -0.8187963 0.5736911 0.02124149 0.4791667 0.226888
-11.40894 38.19385 11.47366 -0.5939952 0.5736758 0.5639733 0.4570312 0.226888
9.291779 46.2711 3.7603 0.3947529 0.9041204 0.1635127 0.405599 0.2447917
-3.695541 46.2711 9.139824 -0.1635121 0.9041201 0.394754 0.4466146 0.2447917
3.912262 46.27111 -9.227043 0.1635126 0.9041203 -0.3947532 0.3769531 0.2447917
-9.075073 46.27111 -3.847511 -0.3947533 0.9041204 -0.1635119 0.4892578 0.2447917
0.1083527 43.16619 -0.04360902 2.418624e-07 1 2.336171e-07 0.3505859 0.219401
1.178543 40.20428 -3.561034 0.3768337 0.1735617 -0.9098751 0.5644531 0.2753906
1.419907 53.62391 -0.9117519 0.1864171 0.03597187 -0.9818119 0.5644531 0.2926432
2.74231 54.21234 0.7890537 0.9722283 0.1521901 0.1777928 0.5748698 0.2926432
3.981354 40.20428 -0.2207707 0.9690154 0.1053241 -0.2234189 0.5748698 0.2753906
-1.726822 43.16615 -1.123145 -0.9068304 0.1704843 -0.3854787 0.5546875 0.2753906
-0.2149506 53.78992 0.3108357 -0.998683 -0.01434704 -0.04925932 0.5546875 0.2926432
1.075989 43.16615 2.217118 0.09051923 0.02218611 0.9956475 0.5849609 0.2753906
1.107483 54.37836 2.011672 -0.08922853 0.1426148 0.9857481 0.5849609 0.2926432
-0.07211304 62.79984 -2.627291 0.1870868 0.3681673 -0.9107422 0.5644531 0.311849
0.4493561 63.44942 -1.467189 0.6043869 0.7955225 0.04313328 0.5748698 0.311849
-1.291443 62.78558 -2.062167 -0.8442939 0.3322354 -0.4204611 0.5546875 0.311849
-0.7699738 63.43516 -0.9020489 -0.4012175 0.7596141 0.5118701 0.5849609 0.311849
19.57114 17.85975 -19.57117 0.6979206 0.1595391 -0.6981792 0.5478516 0.2044271
18.11476 5.218015 -18.11473 0.5858089 -0.5772502 -0.5688674 0.5478516 0.1861979
5.228668 0.1026305 -12.62303 0.09074118 -0.9714811 -0.2190678 0.5247396 0.1669922
-12.62303 0.1026317 -5.228622 -0.2190676 -0.9714811 -0.09074084 0.3639323 0.2047526
5.228668 0.1026305 -12.62303 0.09074118 -0.9714811 -0.2190678 0.3369141 0.2047526
-5.228638 0.1026384 12.62306 -0.09074087 -0.971481 0.2190681 0.3639323 0.1787109
11.62564 38.19385 -11.56091 0.5962294 0.5700032 -0.5653379 0.5478516 0.226888
3.912262 46.27111 -9.227043 0.1635126 0.9041203 -0.3947532 0.5263672 0.2447917
9.291779 46.2711 3.7603 0.3947529 0.9041204 0.1635127 0.3639323 0.2060547
-3.695541 46.2711 9.139824 -0.1635121 0.9041201 0.394754 0.3369141 0.2060547
3.912262 46.27111 -9.227043 0.1635126 0.9041203 -0.3947532 0.3639323 0.2327474
-9.075073 46.27111 -3.847511 -0.3947533 0.9041204 -0.1635119 0.3369141 0.2324219
-0.2149506 53.78992 0.3108357 -0.998683 -0.01434704 -0.04925932 0.5947266 0.2926432
-1.726822 43.16615 -1.123145 -0.9068304 0.1704843 -0.3854787 0.5947266 0.2753906
-1.291443 62.78558 -2.062167 -0.8442939 0.3322354 -0.4204611 0.5947266 0.311849
-0.7699738 63.43516 -0.9020489 -0.4012175 0.7596141 0.5118701 0.5546875 0.319987
0.4493561 63.44942 -1.467189 0.6043869 0.7955225 0.04313328 0.5644531 0.319987
12.62306 0.1026334 5.228668 0.2190677 -0.971481 0.09074136 0.3369141 0.1787109
3 0 1 2 
3 2 3 0 
3 4 5 1 
3 1 0 4 
3 6 7 5 
3 5 4 6 
3 8 9 45 
3 45 46 8 
3 10 11 9 
3 9 8 10 
3 12 13 11 
3 11 10 12 
3 14 15 13 
3 13 12 14 
3 3 2 15 
3 15 14 3 
3 0 3 16 
3 16 17 0 
3 4 0 17 
3 6 4 17 
3 17 18 6 
3 8 46 47 
3 10 8 47 
3 47 19 10 
3 12 10 19 
3 14 12 19 
3 19 16 14 
3 3 14 16 
3 48 49 50 
3 20 21 2 
3 2 1 20 
3 22 20 1 
3 1 5 22 
3 23 22 5 
3 5 7 23 
3 24 51 45 
3 45 9 24 
3 25 24 9 
3 9 11 25 
3 26 25 11 
3 11 13 26 
3 27 26 13 
3 13 15 27 
3 21 27 15 
3 15 2 21 
3 20 28 29 
3 29 21 20 
3 22 28 20 
3 23 30 28 
3 28 22 23 
3 24 52 51 
3 25 31 52 
3 52 24 25 
3 26 31 25 
3 27 29 31 
3 31 26 27 
3 21 29 27 
3 53 32 54 
3 55 32 53 
3 56 32 55 
3 54 32 56 
3 33 34 35 
3 35 36 33 
3 37 38 34 
3 34 33 37 
3 39 40 57 
3 57 58 39 
3 36 35 40 
3 40 39 36 
3 41 42 35 
3 35 34 41 
3 43 41 34 
3 34 38 43 
3 44 59 57 
3 57 40 44 
3 42 44 40 
3 40 35 42 
3 43 60 61 
3 61 41 43 
3 49 62 50 
