ply
format ascii 1.0
comment VCGLIB generated
comment TextureFile rock_A_d.png
element vertex 223
property float x
property float y
property float z
property float nx
property float ny
property float nz
property float texture_u
property float texture_v
element face 316
property list uchar int vertex_indices
end_header
4.167446 -0.3134415 13.18798 -0.174435 -0.9845435 0.01570093 0.6561381 0.2964675
2.867953 0.1723014 14.01448 -0.4292624 -0.8666727 0.2541896 0.6549242 0.2703681
2.0265 0.3685777 12.68864 -0.5540538 -0.8322732 0.01859381 0.6801817 0.265117
2.849374 0.1169982 11.69454 -0.3480816 -0.9099964 -0.225268 0.6887903 0.2872827
6.912861 5.034832 11.2252 0.108596 0.9784881 -0.1754081 0.5827838 0.1124678
9.921508 4.380088 14.51336 0.2810693 0.944387 0.1706843 0.5177376 0.1447114
11.12853 3.967824 13.41997 0.527921 0.84025 -0.1236103 0.5046717 0.1217668
8.295542 4.33659 10.21303 0.3651983 0.8292046 -0.423143 0.5678763 0.08732161
7.040584 4.248048 16.94475 0.1044331 0.9389542 0.3278089 0.5464312 0.1989993
8.433376 3.342721 18.1921 0.2912787 0.8336466 0.4692442 0.5158163 0.2125639
11.06906 3.445435 15.74822 0.4506406 0.8073325 0.3809688 0.4891793 0.1558912
5.584774 4.492171 9.663381 -0.09869024 0.8608068 -0.4992715 0.6109486 0.09396565
2.169326 4.748799 12.07602 -0.3429157 0.9004878 -0.267452 0.6500751 0.1537234
3.535383 5.139965 13.59975 -0.1066685 0.9904056 0.08785591 0.6200497 0.166738
7.168903 -0.3623648 10.98276 0.01981583 -0.9925991 -0.1198105 0.6633 0.3572139
5.934964 -0.04763987 9.542661 -0.1509585 -0.9366227 -0.3161477 0.6947538 0.3509252
7.130101 0.07777686 9.019587 0.1012757 -0.8640467 -0.4931193 0.6925454 0.3727757
8.305862 -0.01554941 9.892166 0.2754919 -0.897209 -0.3451379 0.6701213 0.3829198
10.04133 -0.3973414 14.49881 0.08380563 -0.9962823 -0.0199539 0.5887686 0.3699476
11.19056 -0.1063937 13.30779 0.3180875 -0.9210349 -0.2247556 0.5965981 0.3965905
11.94931 -0.1000357 14.75121 0.4155698 -0.9079002 -0.05494548 0.5693471 0.3954576
11.21803 -0.2017274 15.95055 0.2184191 -0.9627831 0.1591912 0.5580916 0.3747874
2.322949 4.602777 14.57058 -0.3757045 0.8408694 0.3895957 0.633359 0.1888534
5.935707 3.874671 17.80876 -0.15925 0.8338035 0.5285935 0.5576459 0.2190057
7.299368 -0.3605514 16.84099 -0.07705193 -0.9862737 0.1460382 0.5775036 0.3116814
8.580326 -0.08137603 18.24584 0.0809565 -0.9321505 0.3529043 0.5461457 0.3170669
7.517453 0.1131118 18.5906 -0.1842342 -0.8333914 0.5210726 0.5494434 0.296997
6.200545 0.03717051 17.57352 -0.3387197 -0.8606272 0.3802497 0.576067 0.2896093
1.302889 3.763349 11.15872 -0.7418286 0.375599 -0.5555319 0.670704 0.1402937
0.6854538 3.752723 13.08664 -0.9647284 0.2573491 0.05541246 0.6818578 0.1712236
1.372311 4.483415 13.25265 -0.5843278 0.8079881 0.0756067 0.6604844 0.1770125
1.83383 1.207646 14.57181 -0.7492376 -0.4680905 0.4685449 0.6537306 0.2451596
5.57599 0.8956624 18.23877 -0.5452535 -0.4317553 0.7185305 0.5709319 0.2702025
1.514482 3.725286 14.97328 -0.7650943 0.2787352 0.5804632 0.6430987 0.2054755
1.118593 1.249539 12.68988 -0.9032921 -0.4288941 0.01064418 0.6861898 0.2420773
7.527524 0.744319 19.24918 -0.2178287 -0.3832077 0.8976094 0.5379904 0.2844695
7.374551 2.654527 19.32508 -0.1149316 0.3269035 0.9380431 0.5284621 0.2495417
5.405565 3.108921 18.42711 -0.4766232 0.3320877 0.8139705 0.5624486 0.2356946
4.928322 3.329442 8.512764 -0.304742 0.3722378 -0.876682 0.6333587 0.07802972
6.966129 4.06561 9.231999 0.1586286 0.7567872 -0.6341217 0.5938444 0.0740664
6.934717 3.126495 8.439404 0.1733402 0.339979 -0.92432 0.6104081 0.05333802
5.176795 0.7079057 8.475274 -0.328934 -0.4690035 -0.8196573 0.6637602 0.04972193
7.038001 0.7153003 8.303404 0.1474544 -0.3608889 -0.9208781 0.6474429 0.02494094
1.74789 1.075319 10.92261 -0.7160407 -0.4462271 -0.5368119 0.7007306 0.1089481
8.906697 3.243658 9.291133 0.5557504 0.3962334 -0.7308493 0.5581638 0.06481138
12.10738 0.3058981 16.73811 0.7350228 -0.470852 0.4878932 0.4370328 0.1826923
9.2541 0.5587605 19.18871 0.330451 -0.4392876 0.8353614 0.4680404 0.2350043
9.182377 2.401984 19.11679 0.4066488 0.4159188 0.8134177 0.4943114 0.2224424
12.6272 0.3749381 14.86473 0.9150546 -0.4030661 -0.01459438 0.4228774 0.1543875
12.4722 2.508212 14.79204 0.9388812 0.3398536 0.05478878 0.4601618 0.1376219
11.99514 2.307666 16.5477 0.7663266 0.4036564 0.4998051 0.4650996 0.1671016
11.9851 2.966882 12.82183 0.8343644 0.3920119 -0.3875084 0.4921758 0.1029697
11.75609 3.403142 14.66067 0.6487823 0.7470186 0.1450678 0.4824177 0.1336316
12.01656 0.5847945 12.7227 0.7902834 -0.4114965 -0.4540075 0.4709154 0.07125646
8.850024 0.782227 9.058994 0.5474073 -0.3628848 -0.7540954 0.5404161 0.02958438
7.294583 3.306076 18.69601 0.04044273 0.7802666 0.6241382 0.5293206 0.2312138
-9.329162 2.935426 0.4709385 0.04133108 0.999123 0.00670996 0.8364761 0.6771666
-6.645563 2.268761 0.806693 0.6345171 0.7725359 -0.02400905 0.8372953 0.7194567
-7.143454 2.150126 -1.099824 0.5499817 0.5741554 -0.6065193 0.8040254 0.7115639
-9.403881 2.481493 -1.643313 0.05157791 0.7017007 -0.7106025 0.8046346 0.6715186
-9.24209 2.334337 2.975907 0.01195325 0.8383141 0.5450565 0.8771213 0.682154
-6.980287 1.999125 2.776548 0.4935688 0.7252815 0.4799548 0.8716036 0.7201536
-11.88117 2.522292 0.5138792 -0.5861012 0.8102259 -0.004406558 0.8403211 0.6370643
-11.45946 2.226998 2.550169 -0.4672146 0.743547 0.478381 0.8755458 0.6444066
-11.50587 2.351772 -1.305018 -0.4976407 0.6100709 -0.6165771 0.8093745 0.6362177
-12.6272 1.271091 0.9252303 -0.9997077 0.01954876 0.01422993 0.850648 0.6180882
-11.85281 -0.1254436 1.457226 -0.6381972 -0.7693465 0.0284658 0.8635795 0.5975158
-11.38405 0.002739754 3.263782 -0.5500425 -0.5712346 0.6092162 0.8938457 0.6001289
-11.73101 1.124441 3.172009 -0.6932244 0.1636359 0.7018997 0.8889559 0.6227808
-11.83209 1.334471 -1.260206 -0.6904153 -0.1486306 -0.70798 0.8134253 0.6144943
-11.5335 0.1600699 -0.5817271 -0.4999175 -0.7272371 -0.4703283 0.8292381 0.5913851
-9.205224 0.9624276 4.080705 -0.02820855 0.212511 0.9767514 0.9042678 0.6863436
-9.227529 -0.3231893 3.78098 -0.05514656 -0.6927051 0.7191095 0.9251077 0.6881469
-7.066482 -0.1847774 3.455575 0.4863297 -0.6094464 0.6261459 0.9128138 0.7261391
-6.69952 0.8739664 3.405046 0.6834036 0.1374788 0.7169791 0.8930708 0.7280377
-5.898473 0.9332197 1.310422 0.999623 -0.0262654 -0.008004635 0.8443415 0.7423204
-6.699728 -0.3552459 1.740073 0.5798923 -0.8146482 0.008561413 0.8500652 0.7664512
-7.130127 -0.04949351 -0.3499672 0.4600937 -0.7507787 -0.4739676 0.8106595 0.7568222
-6.825055 1.086808 -1.009675 0.691995 -0.1765319 -0.6999854 0.803984 0.7329977
-9.42438 1.252833 -1.948732 0.0226843 -0.2107773 -0.9772709 0.7862434 0.6708766
-9.39608 -0.1625439 -0.7810503 -0.01490411 -0.84124 -0.5404565 0.7568302 0.6712864
-9.308128 -0.7829367 1.79175 -0.04523547 -0.998976 0.0008868476 0.8761655 0.5583963
7.604463 6.878481 -11.03797 0.2277731 0.9455292 -0.232581 0.2041614 0.4385732
9.666396 6.18601 -10.75938 0.5192874 0.8252041 -0.2222136 0.2064763 0.4740244
8.862164 5.491393 -14.66053 0.4446621 0.8403668 -0.3099344 0.1381772 0.4619852
7.186283 5.719877 -15.38907 0.1723785 0.9159759 -0.3623174 0.1315848 0.4312203
4.959436 7.216804 -11.12532 0.001713889 0.9658156 -0.2592244 0.2047793 0.3943745
4.799937 5.831325 -15.57194 -0.1133304 0.8969947 -0.4272667 0.1322746 0.3886219
2.523324 5.591576 -14.84494 -0.3593296 0.8106887 -0.4622404 0.1400443 0.3475226
2.337838 6.984024 -10.86427 -0.2616966 0.9265766 -0.270131 0.2090246 0.35162
1.003484 5.198816 -13.87229 -0.6535915 0.6221231 -0.4310234 0.1513669 0.3172169
0.269622 6.166414 -10.48591 -0.6190698 0.743126 -0.2540006 0.2143427 0.317
5.461818 -1.083143 -5.898871 0.03071736 -0.9919626 0.1227461 0.2491251 0.09721628
5.518308 -1.12066 -12.26697 0.05845379 -0.9946187 -0.08553865 0.1449745 0.1188599
8.155492 -0.9322882 -11.5945 0.2179617 -0.9718904 -0.08900408 0.1470583 0.07378811
8.371219 -0.8392817 -5.742298 0.1956443 -0.9731961 0.1208829 0.2427835 0.05021581
10.05115 -0.3219067 -10.75922 0.6206542 -0.7742832 -0.123588 0.1537304 0.03831497
10.64947 -0.04293405 -5.592133 0.5800893 -0.8100308 0.0857127 0.2397538 0.01063848
10.40261 0.7812499 -1.452924 0.5257376 -0.7716933 0.3578958 0.3111954 0.00359413
8.364841 0.5362423 -0.4922502 0.2197126 -0.856211 0.4675778 0.3322997 0.03531253
5.354784 0.3572919 0.03423691 0.0246346 -0.8692134 0.4938231 0.3492485 0.08461642
2.617328 -1.170972 -12.09699 -0.06304216 -0.9967824 -0.04950316 0.1577048 0.1644837
2.454469 -1.060938 -6.028938 -0.1107909 -0.987009 0.1163555 0.2560684 0.1450775
-0.05533993 -0.4895529 -5.98896 -0.4692479 -0.8761624 0.1102079 0.264014 0.1844797
0.2486888 -0.8409916 -11.44018 -0.4888536 -0.8684915 -0.08212639 0.1769319 0.1987098
2.377043 0.2977232 -0.4734136 -0.1763081 -0.8532867 0.4907313 0.3502268 0.1365277
0.3549613 0.3925806 -1.470465 -0.4995105 -0.7665234 0.4036475 0.3404787 0.1751644
2.95162 4.032041 -16.99293 -0.5351545 0.544806 -0.6455975 0.09723055 0.3544643
0.8688253 3.859612 -14.74182 -0.7887902 0.3287853 -0.5193362 0.1197998 0.310213
5.218309 4.36545 -18.12071 -0.1806832 0.6986934 -0.6922292 0.08919039 0.393666
3.163185 2.350274 -18.13033 -0.5932953 0.2364336 -0.7694803 0.06376797 0.3562306
5.526383 2.793703 -19.32508 -0.0823511 0.2386147 -0.9676163 0.06006607 0.3956756
0.8153692 2.01992 -15.55774 -0.8293891 0.1589261 -0.5355896 0.08074942 0.3032094
7.492173 4.516021 -17.74577 0.3254625 0.7029005 -0.6324596 0.08989438 0.4301437
9.4204 4.623564 -15.7156 0.7055616 0.5552211 -0.4403549 0.107061 0.4708131
9.682619 3.163183 -16.27481 0.8645524 0.05309547 -0.4997299 0.07111731 0.4761548
7.752152 3.061342 -18.7061 0.5220855 0.1732603 -0.8351094 0.06347817 0.428064
7.570509 1.384734 -18.23477 0.5317496 -0.4888251 -0.691587 0.03545728 0.4280539
5.448172 1.192313 -19.09629 0.0333726 -0.4696488 -0.8822224 0.03762221 0.3908739
9.3729 1.34294 -15.79663 0.8194911 -0.3783294 -0.4304661 0.03191906 0.4752079
8.94607 0.008690804 -14.96304 0.6012981 -0.7333934 -0.3171353 0.003300279 0.4760705
7.51436 -0.1532614 -16.30143 0.3357468 -0.8568656 -0.391223 0 0.4405704
5.330436 -0.2674479 -17.24361 0.1020515 -0.8880584 -0.4482609 0.0001841784 0.3864162
3.093099 0.7816015 -18.20423 -0.4532251 -0.3567094 -0.8169121 0.03845173 0.3512951
0.8339856 0.3640236 -15.85519 -0.8397105 -0.1394041 -0.524836 0.04903424 0.2986357
2.86406 -0.4965266 -16.78964 -0.1448109 -0.874473 -0.4629544 0.01693833 0.3303638
1.060031 -0.6107651 -15.61997 -0.5824144 -0.7255249 -0.3666158 0.03226724 0.2937405
-0.8691072 0.4351882 -11.34047 -0.8946754 -0.392554 -0.2132074 0.1851178 0.2244098
-1.176597 2.375518 -11.12733 -0.9586622 0.0398076 -0.2817486 0.1944286 0.254428
11.70426 5.447794 -6.206571 0.8478571 0.5190919 -0.1080835 0.2783746 0.5161742
10.78241 5.014463 -11.18227 0.824924 0.509594 -0.2445699 0.1957938 0.4986823
10.27092 6.775078 -6.435285 0.5604518 0.8174654 -0.1328317 0.2794536 0.48542
10.41987 6.96539 -3.235165 0.5626639 0.8226956 0.08112603 0.3356671 0.4927742
11.38201 5.912953 -2.120225 0.7694741 0.5910041 0.2421237 0.3468073 0.5228072
11.94152 4.189579 -1.053988 0.900851 0.1268328 0.415188 0.3549488 0.5582758
12.34323 3.692893 -5.843797 0.9965241 0.06884671 -0.04690271 0.2767029 0.5464724
11.24341 3.335064 -11.34558 0.9651518 0.05075602 -0.2567214 0.1864305 0.5255979
10.9597 1.305659 -11.04474 0.9128068 -0.3415541 -0.2238853 0.1802414 0.5591692
11.98146 1.638504 -5.635768 0.9176798 -0.3968039 0.02025951 0.2700167 0.5797061
11.37055 2.219251 -0.8954316 0.7966037 -0.3956456 0.4570419 0.3482516 0.5927704
-0.7748626 4.488219 -10.80181 -0.8825337 0.3758652 -0.2825948 0.2049012 0.2872015
9.55731 6.369599 -0.363221 0.421175 0.7267064 0.5426872 0.3850318 0.4741779
8.877136 7.622828 -2.664897 0.3168127 0.9286543 0.192953 0.342046 0.4635523
6.641109 6.682868 0.3579289 0.07298729 0.7690948 0.6349536 0.3907081 0.4254707
6.378716 8.117733 -2.290437 0.07484642 0.9628869 0.2593197 0.3454375 0.419966
6.389181 4.58573 2.14854 0.05886087 0.3310241 0.9417847 0.4319623 0.4228515
9.74822 4.476677 1.216241 0.5143345 0.2460546 0.8215334 0.4249289 0.4757326
3.460585 7.955614 -2.524244 -0.175813 0.9463458 0.2711446 0.3457527 0.3695096
3.210202 6.568611 -0.1362525 -0.267854 0.7410026 0.6157674 0.3894949 0.3688735
1.209901 7.398114 -3.071124 -0.4742285 0.8506042 0.227112 0.3440987 0.3276659
0.2250794 6.126462 -1.897862 -0.6726235 0.6207801 0.4027528 0.3801671 0.312215
2.620927 4.469342 1.432734 -0.3779994 0.3437458 0.8596251 0.4324472 0.3646932
-0.5519059 4.051647 -0.8501596 -0.8104278 0.2352905 0.536512 0.4266695 0.3010769
2.360694 2.220059 1.456034 -0.3707187 -0.322155 0.871082 0.4682031 0.3598494
5.782871 2.346564 2.179791 0.01850973 -0.3709031 0.9284871 0.4660743 0.4148698
-0.3576227 1.861454 -0.7948861 -0.7712873 -0.3075288 0.557263 0.4693192 0.3032231
9.061736 2.394729 1.300988 0.4096063 -0.402725 0.8185568 0.4601245 0.4697041
-1.348092 5.321408 -6.127276 -0.8699617 0.4925505 0.02367899 0.2830848 0.2837484
0.3265098 7.053117 -6.401399 -0.5673491 0.8218696 -0.05143561 0.2844535 0.3207895
-2.056469 3.132642 -5.831034 -0.9959977 0.06063288 0.06566721 0.2817542 0.2484376
-1.603531 1.001766 -5.860249 -0.8841065 -0.4587853 0.08872294 0.2734292 0.2160158
2.782802 8.033815 -6.484736 -0.216784 0.9725039 -0.08509356 0.2833014 0.3611092
5.562009 8.248624 -6.449924 0.05226053 0.9938248 -0.09788328 0.2820247 0.4055855
8.166913 7.745117 -6.50187 0.2874681 0.9502548 -0.1199083 0.2799962 0.4484396
0.6854538 3.752723 13.08664 -0.9647284 0.2573491 0.05541246 0.675097 0.1945404
7.130101 0.07777686 9.019587 0.1012757 -0.8640467 -0.4931193 0.6630424 0.0174621
5.934964 -0.04763987 9.542661 -0.1509585 -0.9366227 -0.3161477 0.6814331 0.03331557
2.849374 0.1169982 11.69454 -0.3480816 -0.9099964 -0.225268 0.7202079 0.09000447
2.0265 0.3685777 12.68864 -0.5540538 -0.8322732 0.01859381 0.7294526 0.1133812
1.118593 1.249539 12.68988 -0.9032921 -0.4288941 0.01064418 0.7192649 0.1352512
6.934717 3.126495 8.439404 0.1733402 0.339979 -0.92432 0.5913038 0.05020756
8.580326 -0.08137603 18.24584 0.0809565 -0.9321505 0.3529043 0.4498688 0.2467937
11.21803 -0.2017274 15.95055 0.2184191 -0.9627831 0.1591912 0.4184959 0.1912737
7.374551 2.654527 19.32508 -0.1149316 0.3269035 0.9380431 0.5157751 0.2430738
7.527524 0.744319 19.24918 -0.2178287 -0.3832077 0.8976094 0.4818365 0.2595925
12.4722 2.508212 14.79204 0.9388812 0.3398536 0.05478878 0.4631335 0.1216174
12.6272 0.3749381 14.86473 0.9150546 -0.4030661 -0.01459438 0.4395639 0.08971065
11.94931 -0.1000357 14.75121 0.4155698 -0.9079002 -0.05494548 0.4376335 0.07508633
11.19056 -0.1063937 13.30779 0.3180875 -0.9210349 -0.2247556 0.4595706 0.05501118
8.305862 -0.01554941 9.892166 0.2754919 -0.897209 -0.3451379 0.527075 0.01330751
7.130101 0.07777686 9.019587 0.1012757 -0.8640467 -0.4931193 0.5521474 0.00359413
7.038001 0.7153003 8.303404 0.1474544 -0.3608889 -0.9208781 0.5672219 0.01209643
7.517453 0.1131118 18.5906 -0.1842342 -0.8333914 0.5210726 0.4648567 0.2632017
11.94931 -0.1000357 14.75121 0.4155698 -0.9079002 -0.05494548 0.4118046 0.1649006
-11.73101 1.124441 3.172009 -0.6932244 0.1636359 0.7018997 0.8983197 0.6419788
-11.38405 0.002739754 3.263782 -0.5500425 -0.5712346 0.6092162 0.9182796 0.6478605
-6.69952 0.8739664 3.405046 0.6834036 0.1374788 0.7169791 0.8795249 0.743398
-7.066482 -0.1847774 3.455575 0.4863297 -0.6094464 0.6261459 0.8808738 0.7623743
-11.5335 0.1600699 -0.5817271 -0.4999175 -0.7272371 -0.4703283 0.7661669 0.6336354
-11.83209 1.334471 -1.260206 -0.6904153 -0.1486306 -0.70798 0.7900417 0.6302428
-6.825055 1.086808 -1.009675 0.691995 -0.1765319 -0.6999854 0.7840976 0.7158791
-7.130127 -0.04949351 -0.3499672 0.4600937 -0.7507787 -0.4739676 0.761209 0.7123308
-9.227529 -0.3231893 3.78098 -0.05514656 -0.6927051 0.7191095 0.9092216 0.5634633
-6.699728 -0.3552459 1.740073 0.5798923 -0.8146482 0.008561413 0.8817515 0.5155675
-7.066482 -0.1847774 3.455575 0.4863297 -0.6094464 0.6261459 0.9092727 0.5265173
-9.39608 -0.1625439 -0.7810503 -0.01490411 -0.84124 -0.5404565 0.8318821 0.5540203
-7.130127 -0.04949351 -0.3499672 0.4600937 -0.7507787 -0.4739676 0.8454488 0.5174612
0.8339856 0.3640236 -15.85519 -0.8397105 -0.1394041 -0.524836 0.1070782 0.2281613
1.060031 -0.6107651 -15.61997 -0.5824144 -0.7255249 -0.3666158 0.1083918 0.2087944
0.8153692 2.01992 -15.55774 -0.8293891 0.1589261 -0.5355896 0.114691 0.2589571
10.40261 0.7812499 -1.452924 0.5257376 -0.7716933 0.3578958 0.3328247 0.6197432
10.64947 -0.04293405 -5.592133 0.5800893 -0.8100308 0.0857127 0.2597654 0.6133457
10.05115 -0.3219067 -10.75922 0.6206542 -0.7742832 -0.123588 0.1724785 0.589096
0.8688253 3.859612 -14.74182 -0.7887902 0.3287853 -0.5193362 0.1325847 0.2926269
11.38201 5.912953 -2.120225 0.7694741 0.5910041 0.2421237 0.3682131 0.5124463
11.94152 4.189579 -1.053988 0.900851 0.1268328 0.415188 0.41164 0.5242061
0.3549613 0.3925806 -1.470465 -0.4995105 -0.7665234 0.4036475 0.5004303 0.3077142
2.377043 0.2977232 -0.4734136 -0.1763081 -0.8532867 0.4907313 0.5090836 0.3479179
5.354784 0.3572919 0.03423691 0.0246346 -0.8692134 0.4938231 0.5144958 0.4114258
11.37055 2.219251 -0.8954316 0.7966037 -0.3956456 0.4570419 0.4553375 0.5225959
8.364841 0.5362423 -0.4922502 0.2197126 -0.856211 0.4675778 0.5025542 0.4732197
10.40261 0.7812499 -1.452924 0.5257376 -0.7716933 0.3578958 0.4881761 0.5138846
0.2250794 6.126462 -1.897862 -0.6726235 0.6207801 0.4027528 0.3591805 0.2921558
-0.5519059 4.051647 -0.8501596 -0.8104278 0.2352905 0.536512 0.3655548 0.2456032
8.94607 0.008690804 -14.96304 0.6012981 -0.7333934 -0.3171353 0.1039643 0.5597599
9.3729 1.34294 -15.79663 0.8194911 -0.3783294 -0.4304661 0.1008661 0.5324644
9.682619 3.163183 -16.27481 0.8645524 0.05309547 -0.4997299 0.104555 0.5003216
9.4204 4.623564 -15.7156 0.7055616 0.5552211 -0.4403549 0.1192388 0.4779302
-0.3576227 1.861454 -0.7948861 -0.7712873 -0.3075288 0.557263 0.3580374 0.2042681
7.51436 -0.1532614 -16.30143 0.3357468 -0.8568656 -0.391223 0.0711326 0.1025336
8.94607 0.008690804 -14.96304 0.6012981 -0.7333934 -0.3171353 0.08702728 0.07314596
5.330436 -0.2674479 -17.24361 0.1020515 -0.8880584 -0.4482609 0.06473327 0.1427591
2.86406 -0.4965266 -16.78964 -0.1448109 -0.874473 -0.4629544 0.08180654 0.182292
3 0 1 2 
3 0 2 3 
3 4 5 6 
3 4 6 7 
3 8 9 10 
3 8 10 5 
3 11 12 13 
3 11 13 4 
3 14 15 16 
3 14 16 17 
3 13 8 5 
3 13 5 4 
3 18 19 20 
3 18 20 21 
3 13 22 23 
3 13 23 8 
3 24 25 26 
3 24 26 27 
3 28 29 30 
3 28 30 12 
3 31 1 27 
3 31 27 32 
3 33 164 34 
3 33 34 31 
3 32 35 36 
3 32 36 37 
3 38 11 39 
3 38 39 40 
3 33 31 32 
3 33 32 37 
3 41 42 165 
3 41 165 166 
3 33 37 23 
3 33 23 22 
3 43 167 168 
3 43 168 169 
3 44 170 39 
3 44 39 7 
3 45 46 171 
3 45 171 172 
3 173 174 46 
3 173 46 47 
3 48 49 50 
3 48 50 45 
3 51 6 52 
3 51 52 175 
3 45 50 47 
3 45 47 46 
3 53 176 177 
3 53 177 178 
3 50 10 9 
3 50 9 47 
3 54 179 180 
3 54 180 181 
3 50 49 52 
3 50 52 10 
3 53 178 179 
3 53 179 54 
3 53 51 175 
3 53 175 176 
3 44 54 181 
3 44 181 170 
3 47 9 55 
3 47 55 173 
3 54 44 51 
3 54 51 53 
3 46 174 182 
3 46 182 171 
3 44 7 6 
3 44 6 51 
3 45 172 183 
3 45 183 48 
3 37 36 55 
3 37 55 23 
3 41 166 167 
3 41 167 43 
3 38 40 42 
3 38 42 41 
3 28 43 169 
3 28 169 29 
3 33 22 30 
3 33 30 164 
3 28 38 41 
3 28 41 43 
3 31 34 2 
3 31 2 1 
3 38 28 12 
3 38 12 11 
3 32 27 26 
3 32 26 35 
3 13 12 30 
3 13 30 22 
3 24 18 21 
3 24 21 25 
3 18 14 17 
3 18 17 19 
3 1 0 24 
3 1 24 27 
3 8 23 55 
3 8 55 9 
3 0 14 18 
3 0 18 24 
3 5 10 52 
3 5 52 6 
3 3 15 14 
3 3 14 0 
3 4 7 39 
3 4 39 11 
3 56 57 58 
3 56 58 59 
3 56 60 61 
3 56 61 57 
3 56 62 63 
3 56 63 60 
3 56 59 64 
3 56 64 62 
3 65 66 67 
3 65 67 68 
3 65 69 70 
3 65 70 66 
3 65 62 64 
3 65 64 69 
3 65 68 63 
3 65 63 62 
3 71 72 73 
3 71 73 74 
3 71 184 185 
3 71 185 72 
3 71 60 63 
3 71 63 184 
3 71 74 61 
3 71 61 60 
3 75 76 77 
3 75 77 78 
3 75 186 187 
3 75 187 76 
3 75 57 61 
3 75 61 186 
3 75 78 58 
3 75 58 57 
3 79 80 188 
3 79 188 189 
3 79 190 191 
3 79 191 80 
3 79 59 58 
3 79 58 190 
3 79 189 64 
3 79 64 59 
3 81 192 67 
3 81 67 66 
3 81 193 194 
3 81 194 192 
3 81 195 196 
3 81 196 193 
3 81 66 70 
3 81 70 195 
3 82 83 84 
3 82 84 85 
3 86 82 85 
3 86 85 87 
3 86 87 88 
3 86 88 89 
3 89 88 90 
3 89 90 91 
3 92 93 94 
3 92 94 95 
3 95 94 96 
3 95 96 97 
3 95 97 98 
3 95 98 99 
3 100 92 95 
3 100 95 99 
3 101 102 103 
3 101 103 104 
3 93 92 102 
3 93 102 101 
3 92 100 105 
3 92 105 102 
3 102 105 106 
3 102 106 103 
3 107 108 90 
3 107 90 88 
3 87 109 107 
3 87 107 88 
3 110 107 109 
3 110 109 111 
3 112 108 107 
3 112 107 110 
3 87 85 113 
3 87 113 109 
3 113 85 84 
3 113 84 114 
3 115 116 113 
3 115 113 114 
3 109 113 116 
3 109 116 111 
3 116 117 118 
3 116 118 111 
3 115 119 117 
3 115 117 116 
3 117 119 120 
3 117 120 121 
3 121 122 118 
3 121 118 117 
3 112 110 123 
3 112 123 124 
3 111 118 123 
3 111 123 110 
3 122 125 123 
3 122 123 118 
3 123 125 126 
3 123 126 124 
3 104 127 197 
3 104 197 198 
3 127 128 199 
3 127 199 197 
3 129 130 83 
3 129 83 131 
3 129 131 132 
3 129 132 133 
3 134 135 129 
3 134 129 133 
3 136 130 129 
3 136 129 135 
3 137 136 135 
3 137 135 138 
3 135 134 139 
3 135 139 138 
3 138 139 200 
3 138 200 201 
3 202 137 138 
3 202 138 201 
3 128 140 203 
3 128 203 199 
3 140 91 90 
3 140 90 203 
3 141 204 132 
3 141 132 142 
3 143 141 142 
3 143 142 144 
3 145 146 141 
3 145 141 143 
3 146 205 204 
3 146 204 141 
3 143 144 147 
3 143 147 148 
3 148 147 149 
3 148 149 150 
3 151 148 150 
3 151 150 152 
3 145 143 148 
3 145 148 151 
3 151 153 154 
3 151 154 145 
3 152 155 153 
3 152 153 151 
3 153 155 206 
3 153 206 207 
3 154 153 207 
3 154 207 208 
3 156 209 205 
3 156 205 146 
3 145 154 156 
3 145 156 146 
3 154 208 210 
3 154 210 156 
3 156 210 211 
3 156 211 209 
3 157 212 149 
3 157 149 158 
3 157 158 91 
3 157 91 140 
3 159 157 140 
3 159 140 128 
3 159 213 212 
3 159 212 157 
3 137 202 214 
3 137 214 215 
3 136 137 215 
3 136 215 216 
3 136 216 217 
3 136 217 130 
3 130 217 84 
3 130 84 83 
3 218 213 159 
3 218 159 160 
3 160 159 128 
3 160 128 127 
3 104 103 160 
3 104 160 127 
3 160 103 106 
3 160 106 218 
3 94 219 220 
3 94 220 96 
3 93 221 219 
3 93 219 94 
3 158 161 89 
3 158 89 91 
3 161 158 149 
3 161 149 147 
3 144 162 161 
3 144 161 147 
3 86 89 161 
3 86 161 162 
3 86 162 163 
3 86 163 82 
3 162 144 142 
3 162 142 163 
3 163 142 132 
3 163 132 131 
3 83 82 163 
3 83 163 131 
3 93 101 222 
3 93 222 221 
3 101 104 198 
3 101 198 222 
