ply
format ascii 1.0
comment VCGLIB generated
comment TextureFile rock_A_d.png
element vertex 222
property float x
property float y
property float z
property float nx
property float ny
property float nz
property float texture_u
property float texture_v
element face 288
property list uchar int vertex_indices
end_header
0.2594338 -1.392444 3.320496 0.02766285 -0.9989686 -0.03600706 0.6928728 0.84779
-0.5607996 -0.433308 -2.921667 -0.02384362 -0.3744135 -0.9269553 0.7785152 0.906334
2.147259 -0.352453 -2.601783 0.2276503 -0.3934627 -0.890709 0.7441031 0.9371364
3.167352 -1.176078 3.106504 0.1891689 -0.9801248 -0.05975551 0.6613668 0.8872972
4.15257 0.1197473 -1.954086 0.4575995 -0.4230038 -0.7820937 0.7136824 0.9571979
5.461414 -0.4130258 3.059669 0.6626902 -0.7374421 -0.1304644 0.6329847 0.918341
5.803867 -0.246504 7.270165 0.6635103 -0.7226255 0.1938206 0.5629587 0.8747467
3.912654 -0.6387776 8.455424 0.2893936 -0.8888699 0.3551924 0.5871794 0.8411858
1.000365 -0.8978855 9.361566 0.07822501 -0.9082549 0.4110402 0.6171026 0.7959574
-2.736043 -1.350165 3.615263 -0.1096086 -0.9938667 -0.01466472 0.7218481 0.804814
-5.203491 -0.7920687 4.092177 -0.4722615 -0.8803024 0.0451303 0.7434148 0.7679574
-5.659395 -0.2864225 -1.336282 -0.5756965 -0.4216626 -0.7005528 0.8160509 0.8244585
-3.411277 -0.5095915 -2.359465 -0.3009284 -0.3956951 -0.8676794 0.8029804 0.8637757
-2.019475 -0.8773067 9.270238 -0.1380906 -0.8858695 0.4429065 0.6464592 0.7525017
-4.156867 -0.627644 8.59116 -0.5269045 -0.7290432 0.436884 0.669332 0.7187829
6.55055 4.285174 3.207106 0.8779036 0.4508608 -0.1612753 0.4398848 0.8757933
5.109156 4.351113 -1.690742 0.4387066 0.4406652 -0.7831671 0.3867067 0.9405288
3.772085 6.077407 -1.083588 0.321472 0.6116011 -0.7229106 0.3600569 0.9139479
5.091077 6.15381 3.285318 0.6428762 0.7499706 -0.1557378 0.40742 0.853327
5.708562 6.044346 6.38803 0.6696643 0.7397146 0.06612135 0.4436029 0.7998685
6.727788 4.566725 7.245962 0.8820793 0.4369796 0.1760256 0.4751442 0.8236593
7.162257 2.718924 7.855408 0.9585611 -0.1014253 0.2662208 0.5057381 0.8418958
7.073478 2.725923 3.197108 0.9739219 -0.17394 -0.1456745 0.462387 0.8936113
5.609889 3.031689 -1.957729 0.5273174 -0.1340521 -0.8390271 0.4041619 0.9573749
6.672808 2.242435 3.139796 0.8457194 -0.512554 -0.1484827 0.4695425 0.9017687
5.441406 2.40562 -1.457982 0.5696681 -0.4560094 -0.6837643 0.4177942 0.9594429
6.671165 1.803756 7.668898 0.8631475 -0.4559107 0.2170758 0.5219295 0.8529932
2.422344 5.252981 10.65476 0.170956 0.6431859 0.7463819 0.5200271 0.7527542
5.251305 5.111734 9.462053 0.5581253 0.5984351 0.5747797 0.4941553 0.790676
4.291679 6.730286 7.360973 0.3653648 0.8926296 0.2640475 0.4599403 0.7677806
1.806323 6.99641 8.136012 0.09440761 0.9221105 0.3752326 0.4830827 0.7270743
2.363945 2.701 11.99294 0.1939821 0.05968478 0.9791878 0.5559492 0.7714173
5.544507 2.804487 10.58565 0.6630762 0.0006961925 0.7485516 0.5288 0.808339
-1.098351 6.837434 8.397647 -0.1502257 0.9092965 0.3880877 0.5133785 0.6846952
-1.06479 5.415561 10.59468 -0.1906964 0.6304698 0.7524246 0.5447065 0.7062199
-4.66067 2.645881 9.72412 -0.7415851 0.02893682 0.6702344 0.6119069 0.6842093
-1.441558 2.735228 11.80361 -0.2908683 0.08669413 0.9528273 0.5840487 0.7288932
-4.100596 5.375599 8.927727 -0.6000449 0.5757678 0.5553716 0.5653701 0.6584896
-1.58945 1.058989 11.24951 -0.2712137 -0.4683004 0.8409149 0.6082343 0.7391472
1.850077 1.098613 11.5198 0.1413043 -0.5379183 0.8310698 0.5786286 0.7799118
-4.3799 0.9314234 9.238011 -0.7151547 -0.319748 0.6215424 0.6408252 0.701398
4.902271 1.354696 10.26055 0.5349639 -0.5345514 0.6542693 0.5506274 0.8188651
-6.015479 5.249378 5.068049 -0.7937254 0.5721508 0.2065026 0.6047552 0.5995621
-3.558164 6.09845 7.933983 -0.4299899 0.8519523 0.2988078 0.5450422 0.6463038
-4.835579 6.067653 4.781143 -0.5082302 0.8553997 0.09996656 0.5822605 0.5888993
-5.597097 5.681877 0.5049226 -0.4834848 0.6733683 -0.5593011 0.6264198 0.5266973
-6.684359 4.684126 0.273013 -0.6824306 0.4867835 -0.54528 0.65107 0.5330026
-6.812756 2.547027 5.093038 -0.9610084 0.06079412 0.2697534 0.6484201 0.6183343
-7.162257 2.700271 -0.2264444 -0.7724534 0.06434248 -0.6318036 0.6863455 0.5410457
-6.686455 0.6607546 4.664557 -0.887339 -0.4234208 0.1826046 0.6790874 0.6284303
-2.123911 7.519096 4.561337 -0.2699487 0.9567111 0.1087739 0.4664502 0.6445429
-3.211454 7.305025 0.06498159 -0.3948017 0.6973625 -0.5981783 0.407093 0.5970736
0.6023219 7.801582 4.206731 0.04541518 0.9966769 0.067622 0.4381297 0.6837742
-0.7649907 7.745116 -0.4007558 -0.106045 0.740603 -0.6635222 0.380837 0.6318818
3.191192 7.283817 3.728219 0.3400864 0.9392433 -0.04651284 0.4130909 0.72397
1.845164 7.197004 -0.7368563 0.1426666 0.6889138 -0.7106645 0.3559822 0.6718465
0.6190141 7.950838 -4.319374 -0.04962277 0.839343 0.5413325 0.7244753 0.2551652
3.132392 7.335103 -3.717392 0.1189869 0.7555584 0.6441845 0.7350469 0.2049415
3.715796 5.75233 -8.112361 0.358145 0.8426871 -0.4020084 0.8079906 0.2192336
1.50134 6.158969 -8.677587 0.09930108 0.859777 -0.500922 0.7977666 0.2596813
-0.8579031 6.200235 -8.384451 -0.2538826 0.8108508 -0.5273183 0.7884393 0.2999345
-1.871134 7.532911 -4.517701 -0.3273076 0.7759603 0.5392174 0.7234406 0.3036618
-2.751356 5.573815 -7.621103 -0.5421621 0.6746028 -0.5009703 0.78499 0.3380713
-4.24006 6.072498 -4.678514 -0.5771416 0.566596 0.5881127 0.7278327 0.3510481
2.227334 4.223739 -11.00253 0.07351164 0.5733243 -0.8160241 0.8398476 0.2620172
-0.3133541 4.646853 -10.32793 -0.3310338 0.5214984 -0.7864197 0.824746 0.2972446
0.1019405 1.740866 -11.46394 -0.3864901 0.04721491 -0.9210843 0.8710909 0.2988987
2.68609 1.801505 -11.99294 0.1649179 -0.01792925 -0.9861444 0.8749198 0.2636392
-2.564841 2.094078 -9.31505 -0.7103069 0.07114046 -0.7002879 0.8570821 0.3443708
-2.681496 4.85856 -8.40085 -0.6484133 0.3954148 -0.6505439 0.8036468 0.3366813
4.288088 4.156532 -10.25596 0.5015043 0.5728285 -0.6483525 0.8457222 0.2300725
4.627575 2.238603 -11.02389 0.6720477 -0.03114506 -0.7398526 0.8749336 0.2359444
5.751661 4.590306 -7.841308 0.7787954 0.5150412 -0.3580649 0.8373603 0.1904722
6.14041 2.796972 -8.216385 0.9406227 -0.06134345 -0.3338652 0.8724526 0.1935931
4.441089 1.289471 -10.49524 0.6676257 -0.5375013 -0.5151392 0.890947 0.2351066
2.583966 0.6756284 -11.56667 0.2305146 -0.5912232 -0.7728637 0.8899357 0.2667191
5.867612 1.911262 -7.68663 0.8901201 -0.4053078 -0.2083548 0.8916941 0.1911977
4.068813 -0.2325569 -8.542614 0.412412 -0.8683484 -0.2754766 0.9258741 0.2305673
2.091566 -0.4040488 -9.858418 0.1748154 -0.9303922 -0.3221956 0.9173252 0.2698241
0.0346276 0.1807314 -11.154 -0.2605829 -0.5284556 -0.8079798 0.8944623 0.3021335
-2.478779 0.1169704 -9.253779 -0.7369151 -0.1890427 -0.6490139 0.8954655 0.3486357
-0.4186341 -0.604986 -9.848592 -0.04877274 -0.93533 -0.3503985 0.913534 0.313401
-3.967087 -0.6222318 -5.054457 -0.5442657 -0.6104727 0.5754112 0.8856673 0.4249649
-4.90657 0.7928371 -5.567147 -0.8886935 -0.3187079 0.3296199 0.8564258 0.4162002
-2.406482 -0.6476052 -9.022562 -0.5475842 -0.7203021 -0.4258127 0.9115694 0.3498467
-5.56206 3.272242 -5.131438 -0.9183095 -0.01453932 0.3955962 0.8093663 0.413198
-5.043414 5.319065 -4.955921 -0.842363 0.3757495 0.386312 0.7753446 0.3979643
6.643779 2.201786 -2.992233 0.5680272 -0.273403 0.7762705 0.8945599 0.1160426
5.558828 0.7329893 -3.162862 0.4048811 -0.4811822 0.7775185 0.9252433 0.1256153
5.234903 0.01079993 -6.977904 0.7096925 -0.6921727 -0.1312767 0.9335537 0.1983086
7.022169 3.093763 -3.143277 0.7646248 0.005657653 0.644451 0.8765209 0.1154459
6.491274 4.970944 -3.18437 0.6295969 0.3731656 0.6814361 0.8408949 0.1154135
5.210013 5.456262 -6.983741 0.5727254 0.773203 -0.2722917 0.8144206 0.1842098
5.401217 6.084112 -3.187981 0.3588754 0.5751961 0.7350904 0.8149978 0.1148927
3.834372 -0.7227795 -3.759535 0.05617596 -0.7442214 0.6655664 0.9969021 0.2172428
1.361572 -0.9518534 -4.888794 -0.1134742 -0.7980298 0.5918379 0.9926329 0.270609
-1.52231 -0.9916937 -5.24761 -0.04407579 -0.8004285 0.5978056 0.983824 0.3282729
1.141577 3.254408 -4.790111 -0.1890978 -0.06229152 0.9799805 0.08427641 0.717811
-0.7194192 3.17747 -0.493333 -0.1299065 0.2636199 -0.9558394 0.2726837 0.8344493
-6.536606 1.122301 -0.4088634 -0.7458852 -0.1624114 -0.6459705 0.2404202 0.7369883
-11.04406 2.935426 -1.983421 0.007830771 0.999123 0.0411334 0.8364761 0.6771666
-10.44172 2.268761 0.6531727 0.2395788 0.7725358 0.5880395 0.8372953 0.7194567
-8.82047 2.150126 -0.4667591 0.7580466 0.5741553 0.3093719 0.8040254 0.7115639
-9.082869 2.481493 -2.77675 0.6853886 0.7017007 -0.194573 0.8046346 0.6715186
-13.36818 2.334337 -1.04485 -0.5080972 0.8383142 0.1976527 0.8771213 0.682154
-12.40726 1.999125 1.012364 -0.2821997 0.7252814 0.6279572 0.8716036 0.7201536
-11.95725 2.522292 -4.366836 -0.1963175 0.810226 -0.552262 0.8403211 0.6370643
-13.7265 2.226998 -3.274108 -0.6093279 0.743547 -0.2754223 0.8755458 0.6444066
-10.11968 2.351772 -4.636267 0.4091899 0.6100709 -0.678511 0.8093745 0.6362177
-12.59895 1.271091 -4.927182 -0.3552919 0.01954886 -0.934551 0.850648 0.6180882
-12.83401 -0.1254436 -4.017543 -0.2450257 -0.7693464 -0.5899734 0.8635795 0.5975158
-14.37129 0.002739754 -2.959178 -0.7606015 -0.5712347 -0.3085066 0.8938457 0.6001289
-14.40372 1.124441 -3.316599 -0.8966666 0.1636356 -0.4113543 0.8889559 0.6227808
-10.27337 1.334471 -4.927493 0.4291475 -0.1486302 -0.8909217 0.8134253 0.6144943
-10.80881 0.1600699 -4.414855 0.2709822 -0.7272369 -0.6306307 0.8292381 0.5913851
-14.39374 0.9624276 -0.6323445 -0.9274941 0.2125107 0.3075612 0.9042678 0.6863436
-14.11972 -0.3231893 -0.7558152 -0.6946029 -0.6927055 0.1941291 0.9251077 0.6881469
-13.07482 -0.1847774 1.163609 -0.4220502 -0.6094462 0.671155 0.9128138 0.7261391
-12.90183 0.8739664 1.491158 -0.4400019 0.1374789 0.8874108 0.8930708 0.7280377
-10.65955 0.9332197 1.527493 0.3494129 -0.02626537 0.9366006 0.8443415 0.7423204
-11.33734 -0.3552459 0.9215083 0.1902898 -0.8146483 0.5478486 0.8500652 0.7664512
-9.520547 -0.04949351 -0.1977704 0.6027451 -0.7507786 0.2702402 0.8106595 0.7568222
-8.796284 1.086808 -0.1367289 0.8944473 -0.1765319 0.4108536 0.803984 0.7329977
-8.80288 1.252833 -2.900473 0.9260927 -0.2107773 -0.3129301 0.7862434 0.6708766
-9.890463 -0.1625439 -2.474509 0.5027655 -0.84124 -0.1988523 0.7568302 0.6712864
-12.27802 -0.7829367 -1.511912 -0.01630495 -0.998976 -0.04220418 0.8761655 0.5583963
9.005018 2.128184 -9.884652 -0.0416493 0.999097 0.008406593 0.8364761 0.6771666
7.09036 1.644852 -9.534523 -0.5829114 0.7679022 0.2655948 0.8372953 0.7194567
7.893663 1.558842 -8.540133 -0.2943153 0.5614713 0.7733877 0.8040254 0.7115639
9.569738 1.799082 -8.685313 0.1676561 0.681511 0.7123442 0.8046346 0.6715186
8.336933 1.692395 -11.30593 -0.1821941 0.8101043 -0.557258 0.8771213 0.682154
6.840402 1.449365 -10.73376 -0.6205552 0.7130868 -0.3262185 0.8716036 0.7201536
10.73778 1.828662 -10.42568 0.5490062 0.8052406 -0.2240086 0.8403211 0.6370643
9.954987 1.614574 -11.51003 0.2582499 0.7134176 -0.6514156 0.8755458 0.6444066
10.92335 1.705034 -9.304944 0.6643471 0.6026839 0.4420578 0.8093745 0.6362177
11.14743 0.9215407 -10.81292 0.9236837 0.01332055 -0.3829244 0.850648 0.6180882
10.48921 -0.09094659 -10.96182 0.5843312 -0.7647907 -0.2713898 0.8635795 0.5975158
9.730099 0.001986322 -11.90468 0.2938081 -0.5571153 -0.7767235 0.8938457 0.6001289
9.989391 0.8152198 -11.92217 0.3841381 0.1413349 -0.9123937 0.8889559 0.6227808
11.13529 0.9674916 -9.396693 0.873641 -0.1363883 0.4670651 0.8134253 0.6144943
10.76649 0.1160507 -9.726005 0.6241142 -0.7153239 0.3143138 0.8292381 0.5913851
8.043327 0.69776 -11.93308 -0.2644856 0.1953269 -0.9444018 0.9042678 0.6863436
8.131384 -0.2343123 -11.76542 -0.1673055 -0.672019 -0.7213871 0.9251077 0.6881469
6.734301 -0.1339636 -11.14125 -0.6559718 -0.6022688 -0.4549433 0.9128138 0.7261391
6.495918 0.6336256 -11.03797 -0.8690338 0.1253203 -0.478618 0.8930708 0.7280377
6.457659 0.6765842 -9.672709 -0.9265803 -0.01994301 0.3755678 0.8443415 0.7423204
6.900584 -0.2575533 -10.08163 -0.5449808 -0.8098271 0.2172004 0.8500652 0.7664512
7.702374 -0.0358828 -8.968165 -0.253679 -0.7201473 0.6457824 0.8106595 0.7568222
7.654272 0.7879357 -8.527493 -0.3836446 -0.1534318 0.9106457 0.803984 0.7329977
9.657946 0.9083042 -8.514025 0.2697832 -0.1944403 0.9430854 0.7862434 0.6708766
9.354913 -0.1178443 -9.179031 0.1836172 -0.8131449 0.5523406 0.7568302 0.6712864
8.669746 -0.5676292 -10.63909 0.04270409 -0.9989232 -0.01813257 0.8761655 0.5583963
5.461414 -0.4130258 3.059669 0.6626902 -0.7374421 -0.1304644 0.5048109 0.9351336
4.15257 0.1197473 -1.954086 0.4575995 -0.4230038 -0.7820937 0.4419364 0.9964058
-5.597097 5.681877 0.5049226 -0.4834848 0.6733683 -0.5593011 0.4358105 0.5578234
-4.835579 6.067653 4.781143 -0.5082302 0.8553997 0.09996656 0.4948137 0.6019974
5.091077 6.15381 3.285318 0.6428762 0.7499706 -0.1557378 0.3920743 0.7566676
3.772085 6.077407 -1.083588 0.321472 0.6116011 -0.7229106 0.3338957 0.7032269
-4.24006 6.072498 -4.678514 -0.5771416 0.566596 0.5881127 0.7589011 0.388915
5.558828 0.7329893 -3.162862 0.4048811 -0.4811822 0.7775185 1 0.1788129
-3.967087 -0.6222318 -5.054457 -0.5442657 -0.6104727 0.5754112 0.9879003 0.369055
6.491274 4.970944 -3.18437 0.6295969 0.3731656 0.6814361 0.003571391 0.7713162
5.401217 6.084112 -3.187981 0.3588754 0.5751961 0.7350904 0 0.7458141
7.022169 3.093763 -3.143277 0.7646248 0.005657653 0.644451 0.02210963 0.7977056
6.643779 2.201786 -2.992233 0.5680272 -0.273403 0.7762705 0.03733611 0.8032628
5.558828 0.7329893 -3.162862 0.4048811 -0.4811822 0.7775185 0.06761292 0.8047254
3.834372 -0.7227795 -3.759535 0.05617596 -0.7442214 0.6655664 0.1052833 0.7964678
1.361572 -0.9518534 -4.888794 -0.1134742 -0.7980298 0.5918379 0.1365882 0.7640629
-1.52231 -0.9916937 -5.24761 -0.04407579 -0.8004285 0.5978056 0.1671667 0.7270616
-3.967087 -0.6222318 -5.054457 -0.5442657 -0.6104727 0.5754112 0.1872659 0.6913133
-4.90657 0.7928371 -5.567147 -0.8886935 -0.3187079 0.3296199 0.1786021 0.6632937
-5.56206 3.272242 -5.131438 -0.9183095 -0.01453932 0.3955962 0.1519352 0.6295578
-5.043414 5.319065 -4.955921 -0.842363 0.3757495 0.386312 0.1197521 0.6157362
-4.24006 6.072498 -4.678514 -0.5771416 0.566596 0.5881127 0.1011893 0.6185765
-1.871134 7.532911 -4.517701 -0.3273076 0.7759603 0.5392174 0.05814904 0.6350104
0.6190141 7.950838 -4.319374 -0.04962277 0.839343 0.5413325 0.02741745 0.6634012
3.132392 7.335103 -3.717392 0.1189869 0.7555584 0.6441845 0.008401662 0.7029408
4.15257 0.1197473 -1.954086 0.4575995 -0.4230038 -0.7820937 0.218527 0.9170499
2.147259 -0.352453 -2.601783 0.2276503 -0.3934627 -0.890709 0.2054974 0.883949
5.441406 2.40562 -1.457982 0.5696681 -0.4560094 -0.6837643 0.2572618 0.9378661
5.609889 3.031689 -1.957729 0.5273174 -0.1340521 -0.8390271 0.2699156 0.9425482
5.109156 4.351113 -1.690742 0.4387066 0.4406652 -0.7831671 0.2918125 0.9335535
3.772085 6.077407 -1.083588 0.321472 0.6116011 -0.7229106 0.320752 0.9099952
1.845164 7.197004 -0.7368563 0.1426666 0.6889138 -0.7106645 0.3392796 0.8778862
-0.7649907 7.745116 -0.4007558 -0.106045 0.740603 -0.6635222 0.3487869 0.8348268
-3.211454 7.305025 0.06498159 -0.3948017 0.6973625 -0.5981783 0.3425438 0.7938064
-5.597097 5.681877 0.5049226 -0.4834848 0.6733683 -0.5593011 0.3171849 0.7530681
-6.684359 4.684126 0.273013 -0.6824306 0.4867835 -0.54528 0.3003787 0.735073
-7.162257 2.700271 -0.2264444 -0.7724534 0.06434248 -0.6318036 0.2667229 0.7270347
-5.659395 -0.2864225 -1.336282 -0.5756965 -0.4216626 -0.7005528 0.2131669 0.7523774
-3.411277 -0.5095915 -2.359465 -0.3009284 -0.3956951 -0.8676794 0.2025038 0.7918333
-0.5607996 -0.433308 -2.921667 -0.02384362 -0.3744135 -0.9269553 0.2003374 0.8394688
-6.536606 1.122301 -0.4088634 -0.7458852 -0.1624114 -0.6459705 0.7131168 0.5524557
-5.203491 -0.7920687 4.092177 -0.4722615 -0.8803024 0.0451303 0.7121977 0.6393753
-5.659395 -0.2864225 -1.336282 -0.5756965 -0.4216626 -0.7005528 0.7447336 0.5526395
5.401217 6.084112 -3.187981 0.3588754 0.5751961 0.7350904 0.7482119 0.1618082
-14.40372 1.124441 -3.316599 -0.8966666 0.1636356 -0.4113543 0.8983197 0.6419788
-14.37129 0.002739754 -2.959178 -0.7606015 -0.5712347 -0.3085066 0.9182796 0.6478605
-12.90183 0.8739664 1.491158 -0.4400019 0.1374789 0.8874108 0.8795249 0.743398
-13.07482 -0.1847774 1.163609 -0.4220502 -0.6094462 0.671155 0.8808738 0.7623743
-10.80881 0.1600699 -4.414855 0.2709822 -0.7272369 -0.6306307 0.7661669 0.6336354
-10.27337 1.334471 -4.927493 0.4291475 -0.1486302 -0.8909217 0.7900417 0.6302428
-8.796284 1.086808 -0.1367289 0.8944473 -0.1765319 0.4108536 0.7840976 0.7158791
-9.520547 -0.04949351 -0.1977704 0.6027451 -0.7507786 0.2702402 0.761209 0.7123308
-14.11972 -0.3231893 -0.7558152 -0.6946029 -0.6927055 0.1941291 0.9092216 0.5634633
-11.33734 -0.3552459 0.9215083 0.1902898 -0.8146483 0.5478486 0.8817515 0.5155675
-13.07482 -0.1847774 1.163609 -0.4220502 -0.6094462 0.671155 0.9092727 0.5265173
-9.890463 -0.1625439 -2.474509 0.5027655 -0.84124 -0.1988523 0.8318821 0.5540203
-9.520547 -0.04949351 -0.1977704 0.6027451 -0.7507786 0.2702402 0.8454488 0.5174612
9.989391 0.8152198 -11.92217 0.3841381 0.1413349 -0.9123937 0.8983197 0.6419788
9.730099 0.001986322 -11.90468 0.2938081 -0.5571153 -0.7767235 0.9182796 0.6478605
6.495918 0.6336256 -11.03797 -0.8690338 0.1253203 -0.478618 0.8795249 0.743398
6.734301 -0.1339636 -11.14125 -0.6559718 -0.6022688 -0.4549433 0.8808738 0.7623743
10.76649 0.1160507 -9.726005 0.6241142 -0.7153239 0.3143138 0.7661669 0.6336354
11.13529 0.9674916 -9.396693 0.873641 -0.1363883 0.4670651 0.7900417 0.6302428
7.654272 0.7879357 -8.527493 -0.3836446 -0.1534318 0.9106457 0.7840976 0.7158791
7.702374 -0.0358828 -8.968165 -0.253679 -0.7201473 0.6457824 0.761209 0.7123308
8.131384 -0.2343123 -11.76542 -0.1673055 -0.672019 -0.7213871 0.9092216 0.5634633
6.900584 -0.2575533 -10.08163 -0.5449808 -0.8098271 0.2172004 0.8817515 0.5155675
6.734301 -0.1339636 -11.14125 -0.6559718 -0.6022688 -0.4549433 0.9092727 0.5265173
9.354913 -0.1178443 -9.179031 0.1836172 -0.8131449 0.5523406 0.8318821 0.5540203
7.702374 -0.0358828 -8.968165 -0.253679 -0.7201473 0.6457824 0.8454488 0.5174612
3 0 1 2 
3 0 2 3 
3 3 2 4 
3 3 4 5 
3 3 5 6 
3 3 6 7 
3 8 0 3 
3 8 3 7 
3 9 10 11 
3 9 11 12 
3 0 9 12 
3 0 12 1 
3 0 8 13 
3 0 13 9 
3 9 13 14 
3 9 14 10 
3 15 16 17 
3 15 17 18 
3 15 18 19 
3 15 19 20 
3 21 22 15 
3 21 15 20 
3 22 23 16 
3 22 16 15 
3 23 22 24 
3 23 24 25 
3 21 26 24 
3 21 24 22 
3 24 26 6 
3 24 6 152 
3 152 153 25 
3 152 25 24 
3 27 28 29 
3 27 29 30 
3 31 32 28 
3 31 28 27 
3 32 21 20 
3 32 20 28 
3 27 30 33 
3 27 33 34 
3 35 36 34 
3 35 34 37 
3 36 31 27 
3 36 27 34 
3 36 38 39 
3 36 39 31 
3 35 40 38 
3 35 38 36 
3 39 38 13 
3 39 13 8 
3 32 41 26 
3 32 26 21 
3 31 39 41 
3 31 41 32 
3 39 8 7 
3 39 7 41 
3 42 37 43 
3 42 43 44 
3 42 44 45 
3 42 45 46 
3 47 42 46 
3 47 46 48 
3 35 37 42 
3 35 42 47 
3 47 49 40 
3 47 40 35 
3 50 51 154 
3 50 154 155 
3 50 155 43 
3 50 43 33 
3 30 52 50 
3 30 50 33 
3 52 53 51 
3 52 51 50 
3 52 54 55 
3 52 55 53 
3 52 30 29 
3 52 29 54 
3 54 29 19 
3 54 19 156 
3 54 156 157 
3 54 157 55 
3 56 57 58 
3 56 58 59 
3 56 59 60 
3 56 60 61 
3 61 60 62 
3 61 62 63 
3 64 65 60 
3 64 60 59 
3 66 65 64 
3 66 64 67 
3 66 68 69 
3 66 69 65 
3 59 58 70 
3 59 70 64 
3 71 70 72 
3 71 72 73 
3 64 70 71 
3 64 71 67 
3 67 71 74 
3 67 74 75 
3 74 71 73 
3 74 73 76 
3 77 78 75 
3 77 75 74 
3 68 66 79 
3 68 79 80 
3 66 67 75 
3 66 75 79 
3 78 81 79 
3 78 79 75 
3 82 83 80 
3 82 80 84 
3 85 68 80 
3 85 80 83 
3 68 85 86 
3 68 86 69 
3 86 158 62 
3 86 62 69 
3 76 87 88 
3 76 88 89 
3 73 90 87 
3 73 87 76 
3 90 73 72 
3 90 72 91 
3 91 72 92 
3 91 92 93 
3 94 77 89 
3 94 89 159 
3 95 78 77 
3 95 77 94 
3 95 96 81 
3 95 81 78 
3 96 160 84 
3 96 84 81 
3 161 162 97 
3 163 161 97 
3 164 163 97 
3 165 164 97 
3 166 165 97 
3 167 166 97 
3 168 167 97 
3 169 168 97 
3 170 169 97 
3 171 170 97 
3 172 171 97 
3 173 172 97 
3 174 173 97 
3 175 174 97 
3 176 175 97 
3 162 176 97 
3 177 178 98 
3 179 177 98 
3 180 179 98 
3 181 180 98 
3 182 181 98 
3 183 182 98 
3 184 183 98 
3 185 184 98 
3 186 185 98 
3 187 186 98 
3 188 187 98 
3 99 188 98 
3 189 99 98 
3 190 189 98 
3 191 190 98 
3 178 191 98 
3 47 48 49 
3 48 192 49 
3 193 49 194 
3 49 192 194 
3 49 14 40 
3 49 193 14 
3 41 6 26 
3 41 7 6 
3 38 14 13 
3 38 40 14 
3 34 33 37 
3 33 43 37 
3 28 19 29 
3 28 20 19 
3 57 92 58 
3 57 195 92 
3 76 89 74 
3 89 77 74 
3 79 84 80 
3 79 81 84 
3 65 69 60 
3 69 62 60 
3 70 58 72 
3 58 92 72 
3 100 101 102 
3 100 102 103 
3 100 104 105 
3 100 105 101 
3 100 106 107 
3 100 107 104 
3 100 103 108 
3 100 108 106 
3 109 110 111 
3 109 111 112 
3 109 113 114 
3 109 114 110 
3 109 106 108 
3 109 108 113 
3 109 112 107 
3 109 107 106 
3 115 116 117 
3 115 117 118 
3 115 196 197 
3 115 197 116 
3 115 104 107 
3 115 107 196 
3 115 118 105 
3 115 105 104 
3 119 120 121 
3 119 121 122 
3 119 198 199 
3 119 199 120 
3 119 101 105 
3 119 105 198 
3 119 122 102 
3 119 102 101 
3 123 124 200 
3 123 200 201 
3 123 202 203 
3 123 203 124 
3 123 103 102 
3 123 102 202 
3 123 201 108 
3 123 108 103 
3 125 204 111 
3 125 111 110 
3 125 205 206 
3 125 206 204 
3 125 207 208 
3 125 208 205 
3 125 110 114 
3 125 114 207 
3 126 127 128 
3 126 128 129 
3 126 130 131 
3 126 131 127 
3 126 132 133 
3 126 133 130 
3 126 129 134 
3 126 134 132 
3 135 136 137 
3 135 137 138 
3 135 139 140 
3 135 140 136 
3 135 132 134 
3 135 134 139 
3 135 138 133 
3 135 133 132 
3 141 142 143 
3 141 143 144 
3 141 209 210 
3 141 210 142 
3 141 130 133 
3 141 133 209 
3 141 144 131 
3 141 131 130 
3 145 146 147 
3 145 147 148 
3 145 211 212 
3 145 212 146 
3 145 127 131 
3 145 131 211 
3 145 148 128 
3 145 128 127 
3 149 150 213 
3 149 213 214 
3 149 215 216 
3 149 216 150 
3 149 129 128 
3 149 128 215 
3 149 214 134 
3 149 134 129 
3 151 217 137 
3 151 137 136 
3 151 218 219 
3 151 219 217 
3 151 220 221 
3 151 221 218 
3 151 136 140 
3 151 140 220 
