ply
format ascii 1.0
comment VCGLIB generated
comment TextureFile ../textures/cemetery_halloween_atlas.tga
element vertex 247
property float x
property float y
property float z
property float nx
property float ny
property float nz
property float texture_u
property float texture_v
element face 290
property list uchar int vertex_indices
end_header
12.35226 15.77682 -10.78371 0.9888116 0.1196544 0.08907595 0.6917318 0.4733073
8.487934 20.22933 -2.901406 0.6601844 0.4402588 0.6085464 0.6992188 0.4674479
8.859465 16.27871 0.9544029 0.5689718 0.1623763 0.8061669 0.6988932 0.4632162
11.78145 11.00967 -7.625238 0.9486918 -0.2006424 0.2443901 0.6897786 0.468099
7.470007 4.601201 -3.533628 0.7595241 -0.6361356 0.1358476 0.6865234 0.4583333
7.96309 9.450517 -1.359285 0.9100183 -0.07514782 0.4077003 0.6927083 0.4599609
8.045527 6.64862 1.643699 0.9784998 0.08257774 0.1889951 0.6933594 0.4557292
-0.7717285 25.25887 -3.428723 1.647584e-05 0.8073426 0.5900829 0.7086589 0.4690755
8.724001 23.55264 -4.774048 0.6364982 0.6057993 0.477365 0.7001953 0.4697266
8.04963 26.10618 -12.04269 0.5933048 0.8047826 -0.01773282 0.7011719 0.4772135
-0.7717285 28.94967 -11.76771 1.647411e-05 0.9999998 0.0007496271 0.7086589 0.4785156
7.794576 22.81091 -20.00444 0.5243714 0.6636939 -0.5334277 0.6985677 0.4847005
-0.7717285 24.24782 -21.35683 1.095105e-05 0.7833062 -0.6216362 0.7086589 0.4912109
11.90805 18.69163 -16.92336 0.9330226 0.2871279 -0.2168558 0.6933594 0.4798177
10.93582 5.647482 -16.98003 0.9116813 -0.3861069 -0.1405659 0.6806641 0.4752604
7.365322 8.065904 -25.87345 0.498536 -0.3285046 -0.8022136 0.6819661 0.4860026
10.62864 12.38565 -22.65369 0.884642 0.004135058 -0.4662526 0.6868489 0.4833984
7.298787 1.103495 -19.0174 0.5141854 -0.8117144 -0.2770077 0.6761068 0.476237
-0.7717285 16.38751 -27.84459 2.628645e-07 0.2991512 -0.9542058 0.6910807 0.4970703
7.072479 15.4078 -26.0083 0.4865562 0.2701375 -0.8308362 0.6897786 0.4889323
-0.7717285 7.119169 -27.00768 -1.296346e-05 -0.390836 -0.9204603 0.6770833 0.4921875
-0.7717285 0.3422823 -9.31263 -1.77834e-05 -0.9704251 0.2414026 0.671875 0.4635417
-0.7717285 -0.5663347 -20.16371 -1.943522e-05 -0.9284898 -0.3713578 0.6686198 0.4785156
8.721641 3.411174 -9.254162 0.6646923 -0.7120807 0.2261089 0.6822917 0.4654948
-0.7717285 21.74179 -0.5563498 1.819456e-05 0.6410442 0.767504 0.7086589 0.4654948
3.406672 16.84454 1.579845 0.4288198 0.4600027 0.7775031 0.7034505 0.4609375
3.884354 12.74673 4.009329 0.6622092 0.5082724 0.5505798 0.7018229 0.4570312
4.349492 4.27289 10.33576 0.6467322 0.04443289 0.7614219 0.7011719 0.4462891
7.314217 3.823113 3.835434 0.9356105 -0.2779689 0.2176379 0.6936849 0.4518229
4.730442 8.228485 8.267544 0.6525401 0.4230352 0.6286753 0.7011719 0.4508463
-0.7717285 9.067856 9.705189 2.204395e-05 0.513364 0.858171 0.7086589 0.4501953
-0.7717285 4.035165 11.6367 1.164997e-05 0.07140353 0.9974476 0.7086589 0.444987
-0.7717285 13.81794 5.918943 2.634747e-05 0.6074419 0.7943642 0.7086589 0.4557292
-0.7717285 18.62348 3.199759 2.54448e-05 0.6469551 0.7625282 0.7086589 0.4609375
4.386826 3.540899 -3.533309 0.3047333 -0.9506894 -0.05768267 0.6806641 0.4580078
3.847015 1.780095 10.19636 0.517454 -0.5978364 0.6122361 0.6979167 0.4443359
-0.7717285 1.845751 11.09824 -1.423579e-05 -0.6799316 0.7332755 0.6962891 0.4391276
-0.7717285 -0.3419085 1.506028 -2.964853e-05 -0.9769661 -0.2133944 0.6861979 0.4443359
5.436524 -0.4260683 1.950548 0.5402666 -0.8294535 -0.141841 0.6901042 0.4492188
-0.7717285 3.308702 -3.435259 -3.245238e-05 -0.9959075 -0.09037831 0.6806641 0.4495443
-13.89571 15.77716 -10.78361 -0.9888116 0.1196544 0.08907599 0.7252604 0.4733073
-13.32491 11.01 -7.625135 -0.9486918 -0.2006423 0.24439 0.7275391 0.468099
-10.40292 16.27905 0.954504 -0.568972 0.1623762 0.8061668 0.7180989 0.4632162
-10.03139 20.22967 -2.901303 -0.660177 0.4402653 0.6085498 0.7177734 0.4674479
-9.013463 4.601539 -3.533526 -0.7595242 -0.6361356 0.1358475 0.7304688 0.4583333
-9.588984 6.648958 1.643801 -0.9784998 0.0825776 0.1889951 0.7236328 0.4557292
-9.506547 9.450855 -1.359183 -0.9100183 -0.07514779 0.4077003 0.7242839 0.4599609
-9.593087 26.10652 -12.04259 -0.5932904 0.8047932 -0.0177303 0.7158203 0.4772135
-10.26746 23.55297 -4.773946 -0.6364855 0.6058084 0.4773704 0.7167969 0.4697266
-9.338033 22.81124 -20.00434 -0.5243615 0.6637006 -0.5334291 0.7184245 0.4847005
-13.4515 18.69197 -16.92326 -0.9330227 0.2871276 -0.2168555 0.7236328 0.4798177
-12.47928 5.64782 -16.97993 -0.9116813 -0.3861069 -0.1405658 0.7363281 0.4752604
-8.908778 8.066242 -25.87334 -0.4985472 -0.3284976 -0.8022095 0.7350261 0.4860026
-8.842242 1.103833 -19.01729 -0.5142038 -0.8117036 -0.2770048 0.7408854 0.476237
-12.1721 12.38599 -22.65359 -0.8846421 0.004134948 -0.4662524 0.7301432 0.4833984
-8.615935 15.40814 -26.0082 -0.4865565 0.2701434 -0.8308342 0.7272136 0.4889323
-10.2651 3.411511 -9.25406 -0.6647003 -0.7120729 0.2261098 0.7347005 0.4654948
-4.950129 16.84488 1.579947 -0.4287947 0.4600165 0.7775087 0.7135417 0.4609375
-5.427811 12.74707 4.009431 -0.6621903 0.5082799 0.5505957 0.7151693 0.4570312
-5.892949 4.273227 10.33587 -0.6467214 0.04444113 0.7614305 0.7158203 0.4462891
-6.273898 8.228823 8.267647 -0.6525232 0.4230449 0.6286864 0.7158203 0.4508463
-8.857673 3.823451 3.835537 -0.9356105 -0.277969 0.2176379 0.7233073 0.4518229
-5.930283 3.541237 -3.533206 -0.3047657 -0.9506792 -0.05768092 0.7363281 0.4580078
-5.390471 1.780432 10.19646 -0.5174715 -0.5978164 0.6122409 0.7190755 0.4443359
-6.97998 -0.4257298 1.95065 -0.5402889 -0.8294399 -0.1418356 0.726888 0.4492188
35.02642 3.193834 7.61487 0.8729675 -0.4076604 -0.2678446 0.7991536 0.3583984
18.67016 -0.1212387 0.3809319 -0.2015674 -0.6065519 -0.7690679 0.7809245 0.3610026
19.07209 4.401157 0.8946819 -0.2302987 0.5985509 -0.7672675 0.7828776 0.3652344
34.19706 7.159206 8.466173 0.6950424 0.7067993 -0.1317222 0.8001302 0.3623047
25.59774 2.752427 20.92291 0.1118894 -0.4506218 0.8856754 0.7994792 0.3808594
25.59354 6.636231 20.06182 0.0567303 0.6859844 0.7254013 0.7998047 0.3769531
13.00473 3.939773 9.479034 -0.8172698 0.5641899 0.1173021 0.7828776 0.375651
12.44223 -0.01510525 8.992258 -0.8050951 -0.5895854 0.06489267 0.78125 0.3792318
26.23941 2.851116 21.70224 -0.8500221 -0.5016438 0.1606733 0.8274739 0.3486328
33.06141 1.940341 26.81066 -0.5328178 -0.5682565 0.6270485 0.8190104 0.3470052
34.40581 5.462032 26.10079 0.1121297 0.9472181 0.3003412 0.8196614 0.3434245
26.95454 7.033122 20.66996 -0.4829127 0.8523536 -0.2007207 0.8287761 0.344401
28.66294 3.411694 18.77179 0.04613981 -0.2841837 -0.9576591 0.828125 0.3398438
35.28458 2.539058 23.64492 0.5000924 -0.2953071 -0.8140647 0.819987 0.3395182
38.96069 -0.1755466 29.85789 -0.1630439 -0.713317 0.6816126 0.8131511 0.336263
40.73384 0.3658705 27.40993 0.7122574 -0.4348734 -0.5509759 0.8128255 0.3391927
41.42381 1.715427 30.10664 0.7624588 0.2557955 0.5943276 0.8111979 0.3417969
21.88822 1.679631 21.03209 0.8516443 -0.2692407 -0.4496794 0.8196614 0.3561198
24.1035 -0.06040955 27.63111 0.9020669 -0.3905156 -0.183774 0.8264974 0.3561198
20.93811 -0.7097025 29.24252 -0.5387314 -0.5682563 0.6219754 0.8268229 0.3597005
16.78632 0.9260263 23.47178 -0.8045805 -0.4477158 0.3901294 0.8193359 0.3613281
23.96368 0.3270254 30.71174 0.4995067 0.002933848 0.8663051 0.8294271 0.3574219
19.16193 5.218366 21.93828 0.001312944 0.9958404 0.09110593 0.8186849 0.3522135
14.74387 3.565658 12.70727 -0.2504933 0.72966 -0.6362778 0.8089193 0.3528646
13.48228 0.8875818 14.00248 -0.8745398 -0.4693326 -0.1220946 0.8092448 0.3496094
30.90878 3.596228 15.33583 -0.04882951 -0.4019213 -0.9143714 0.8121745 0.3655599
38.15536 2.822322 20.7649 0.4997974 -0.4112646 -0.7622756 0.8212891 0.3658854
36.14442 2.628171 23.72353 -0.5422989 -0.4556745 0.7058843 0.8216146 0.3623047
28.71215 3.566066 18.64008 -0.8714774 -0.4113757 0.2670154 0.8128255 0.3613281
41.85855 0.2899628 27.09235 -0.2284537 -0.6374332 0.7358586 0.8284505 0.3632812
43.26137 0.4240141 25.111 0.6426963 -0.5841222 -0.4957244 0.8284505 0.3658854
44.11879 1.765261 27.22453 0.7884325 0.2404239 0.5661895 0.8297526 0.3681641
37.61868 5.622447 22.45541 0.2676997 0.9501286 0.1599768 0.8212891 0.3691406
29.7882 7.925831 16.93057 -0.3856981 0.8768144 -0.2871125 0.8118489 0.3701172
32.99894 3.860472 12.23482 -0.09042065 -0.3731665 -0.9233477 0.8020833 0.3391927
32.28378 7.763166 13.62239 -0.3732344 0.8960885 -0.2402533 0.7978516 0.3391927
39.62947 5.752421 18.53206 0.2314985 0.9632766 0.1360396 0.8001302 0.3479818
40.01875 2.69088 16.88099 0.4294856 -0.451831 -0.7819149 0.8033854 0.3473307
38.01799 2.662655 19.4987 -0.5934978 -0.4604277 0.6601263 0.8063151 0.3466797
31.27491 3.551821 14.85445 -0.8572423 -0.4534588 0.2439484 0.8053386 0.3388672
45.15079 0.1776237 21.30305 0.6084652 -0.6924382 -0.3876849 0.8046875 0.3544922
43.69287 0.403389 23.255 -0.2505792 -0.5731708 0.7801829 0.8069661 0.3538412
46.14127 2.22226 23.37475 0.7751243 0.3274558 0.5403287 0.8020833 0.3561198
15.95364 0.8819838 12.44392 0.3439816 -0.4981267 -0.7959563 0.8092448 0.3561198
34.92921 3.325801 9.170557 -0.09042284 -0.3731673 -0.9233471 0.8291016 0.3746745
34.26412 6.955315 10.461 -0.3732361 0.8960878 -0.2402529 0.8300781 0.3785807
41.09563 5.08534 15.027 0.2314996 0.9632764 0.136039 0.8219401 0.3795573
41.45763 2.23811 13.49149 0.4294878 -0.4518292 -0.7819148 0.8212891 0.3763021
39.59694 2.211839 15.92598 -0.593497 -0.4604298 0.6601255 0.820638 0.3733724
33.32587 3.038759 11.60683 -0.8572416 -0.4534593 0.2439501 0.828125 0.3720703
46.23043 -0.09922314 17.60401 0.6084667 -0.6924382 -0.3876825 0.8147786 0.3772787
44.87455 0.1107559 19.41931 -0.2505863 -0.5731673 0.7801831 0.8144531 0.3753255
47.15158 1.802277 19.5307 0.7751245 0.3274498 0.540332 0.8141276 0.3802083
-36.13191 2.85756 9.480116 -0.8833253 -0.4307747 -0.1848498 0.7402344 0.3580729
-35.32239 6.85414 10.19337 -0.7196345 0.6894517 -0.08235702 0.7412109 0.3623047
-20.84681 4.283001 1.387338 0.1497723 0.5895489 -0.7937256 0.7246094 0.3652344
-20.38827 -0.2382812 0.9127369 0.1482982 -0.6157331 -0.7738737 0.7226562 0.3606771
-25.58499 2.852986 21.92846 -0.02499049 -0.4370601 0.8990851 0.7405599 0.3805338
-13.44612 0.1530542 8.950571 0.8208414 -0.5711393 0.004407331 0.7229818 0.3792318
-14.05408 4.103151 9.421213 0.811343 0.5833845 0.03721675 0.7246094 0.375651
-25.74292 6.720064 21.00859 -0.009594142 0.6974278 0.7165908 0.7408854 0.3766276
-26.15926 2.951903 22.75867 0.8718435 -0.4805751 0.09453299 0.7688802 0.3483073
-27.05515 7.098778 21.72573 0.4444074 0.858691 -0.2552487 0.7701823 0.3440755
-33.97371 5.466996 27.80475 -0.1072861 0.9498237 0.2938108 0.7613932 0.343099
-32.49375 1.987783 28.45164 0.5975586 -0.545585 0.5875891 0.7604167 0.3466797
-28.83815 3.408749 20.04021 -0.1219651 -0.302095 -0.9454434 0.7695312 0.3398438
-34.9942 2.482814 25.48084 -0.5614999 -0.3202808 -0.7629797 0.7613932 0.3395182
-38.05936 -0.1981125 32.03077 0.2372319 -0.6974593 0.6762186 0.7545573 0.336263
-40.04847 0.2619534 29.73696 -0.7470111 -0.4596086 -0.4803481 0.7545573 0.3391927
-40.5341 1.644359 32.46144 -0.7140606 0.2501131 0.6538814 0.7529297 0.3417969
-21.8565 1.861168 21.73354 -0.8808767 -0.295191 -0.3700251 0.7610677 0.3557943
-16.54774 1.259403 23.73465 0.8451138 -0.4235489 0.3261732 0.7610677 0.3613281
-20.1492 -0.3610067 29.86802 0.6030105 -0.545552 0.5820235 0.7682292 0.3597005
-23.45546 0.1922693 28.5262 -0.9054615 -0.4127545 -0.0988591 0.7682292 0.3557943
-23.05975 0.6373377 31.57666 -0.4230079 0.007760977 0.9060928 0.7708333 0.3570963
-19.14317 5.47246 22.34425 -0.01602228 0.9970523 0.07503343 0.7604167 0.3522135
-14.07117 1.122504 14.01697 0.8711875 -0.4527899 -0.1897725 0.7506511 0.3492838
-15.49991 3.749765 12.79325 0.1781946 0.7233659 -0.6670747 0.7503255 0.3528646
-31.37507 3.484468 16.80878 -0.02097979 -0.4170033 -0.9086629 0.7539062 0.3652344
-28.90199 3.559676 19.9108 0.9003237 -0.3879944 0.1971738 0.7542318 0.3613281
-35.84587 2.555067 25.63207 0.6112373 -0.4314443 0.6635094 0.7633464 0.3619792
-38.10795 2.653872 22.85568 -0.5541216 -0.435265 -0.7095729 0.7626953 0.3658854
-41.19434 0.1565828 29.51907 0.3053349 -0.619253 0.7233923 0.7701823 0.3632812
-42.7652 0.2255936 27.66454 -0.6695904 -0.6063412 -0.4289513 0.7698568 0.3658854
-37.49128 5.494379 24.44871 -0.2743875 0.9469373 0.1673957 0.7626953 0.3691406
-43.46764 1.58576 29.8227 -0.7420043 0.2336955 0.628344 0.7714844 0.3681641
-30.21971 7.864543 18.23162 0.3395876 0.8795444 -0.3332896 0.7532552 0.3701172
-33.72986 3.649128 13.89628 0.01902324 -0.3875377 -0.9216576 0.7431641 0.3388672
-40.29531 2.413872 19.15 -0.4848613 -0.474676 -0.7345694 0.7444661 0.3473307
-39.8348 5.511869 20.71234 -0.2406909 0.960421 0.1402122 0.7412109 0.3476562
-32.98649 7.590175 15.1546 0.3307712 0.8993809 -0.2858398 0.7389323 0.3391927
-31.78016 3.423754 16.36163 0.8851125 -0.4307735 0.1760966 0.7464193 0.3385417
-38.0765 2.474643 21.58504 0.6584008 -0.4359239 0.6135786 0.7477214 0.3466797
-44.96936 -0.1285095 24.03862 -0.6237437 -0.7119657 -0.3225656 0.7460938 0.3541667
-43.35431 0.1628036 25.85336 0.3297329 -0.5537585 0.7646095 0.7483724 0.3538412
-45.82385 1.931214 26.15541 -0.7329441 0.3205199 0.6000499 0.7434896 0.3561198
-16.66677 1.036792 12.67821 -0.3998578 -0.5193914 -0.7552128 0.7506511 0.3561198
-35.90416 3.01922 11.01928 0.01902626 -0.387538 -0.9216574 0.7705078 0.3746745
-42.01002 1.870461 15.90523 -0.4848619 -0.474675 -0.7345697 0.7630208 0.3763021
-41.58178 4.751596 17.35823 -0.2406912 0.9604211 0.1402105 0.7633464 0.3792318
-35.21283 6.684403 12.18953 0.3307725 0.8993809 -0.2858384 0.7714844 0.3785807
-34.09094 2.809626 13.31205 0.8851119 -0.4307747 0.176097 0.7698568 0.3717448
-39.94654 1.926956 18.16983 0.6584011 -0.4359266 0.6135764 0.7623698 0.3733724
-46.35689 -0.4939575 20.45164 -0.6237409 -0.7119684 -0.3225653 0.7561849 0.3772787
-44.85487 -0.2230196 22.13935 0.3297408 -0.5537531 0.7646101 0.7558594 0.375
-47.1516 1.421573 22.42028 -0.7329487 0.3205092 0.6000502 0.7555339 0.3802083
4.386826 3.540899 -3.533309 0.3047333 -0.9506894 -0.05768267 0.6845703 0.4544271
-0.7717285 3.308702 -3.435259 -3.245238e-05 -0.9959075 -0.09037831 0.6748047 0.4563802
3.847015 1.780095 10.19636 0.517454 -0.5978364 0.6122361 0.7024739 0.4430338
-0.7717285 1.845751 11.09824 -1.423579e-05 -0.6799316 0.7332755 0.7086589 0.4427083
-0.7717285 16.38751 -27.84459 2.628645e-07 0.2991512 -0.9542058 0.7259114 0.4970703
-0.7717285 7.119169 -27.00768 -1.296346e-05 -0.390836 -0.9204603 0.7399089 0.4921875
-0.7717285 0.3422823 -9.31263 -1.77834e-05 -0.9704251 0.2414026 0.7454427 0.4635417
-0.7717285 -0.5663347 -20.16371 -1.943522e-05 -0.9284898 -0.3713578 0.7483724 0.4785156
-0.7717285 -0.3419085 1.506028 -2.964853e-05 -0.9769661 -0.2133944 0.7311198 0.4443359
-0.7717285 1.845751 11.09824 -1.423579e-05 -0.6799316 0.7332755 0.7207031 0.4391276
-0.7717285 3.308702 -3.435259 -3.245238e-05 -0.9959075 -0.09037831 0.7363281 0.4495443
-5.930283 3.541237 -3.533206 -0.3047657 -0.9506792 -0.05768092 0.7324219 0.4544271
-0.7717285 3.308702 -3.435259 -3.245238e-05 -0.9959075 -0.09037831 0.7421875 0.4563802
-5.390471 1.780432 10.19646 -0.5174715 -0.5978164 0.6122409 0.7145182 0.4430338
25.59774 2.752427 20.92291 0.1118894 -0.4506218 0.8856754 0.7936198 0.343099
12.44223 -0.01510525 8.992258 -0.8050951 -0.5895854 0.06489267 0.7773438 0.351237
18.67016 -0.1212387 0.3809319 -0.2015674 -0.6065519 -0.7690679 0.7783203 0.3652344
12.44223 -0.01510525 8.992258 -0.8050951 -0.5895854 0.06489267 0.7789714 0.375651
25.59774 2.752427 20.92291 0.1118894 -0.4506218 0.8856754 0.8033854 0.3776042
35.02642 3.193834 7.61487 0.8729675 -0.4076604 -0.2678446 0.8040364 0.3613281
33.06141 1.940341 26.81066 -0.5328178 -0.5682565 0.6270485 0.819987 0.335612
26.23941 2.851116 21.70224 -0.8500221 -0.5016438 0.1606733 0.8284505 0.3359375
38.96069 -0.1755466 29.85789 -0.1630439 -0.713317 0.6816126 0.8121745 0.3450521
38.96069 -0.1755466 29.85789 -0.1630439 -0.713317 0.6816126 0.8098958 0.3391927
23.96368 0.3270254 30.71174 0.4995067 0.002933848 0.8663051 0.8291016 0.3535156
16.78632 0.9260263 23.47178 -0.8045805 -0.4477158 0.3901294 0.8196614 0.3479818
20.93811 -0.7097025 29.24252 -0.5387314 -0.5682563 0.6219754 0.8271484 0.3502604
36.14442 2.628171 23.72353 -0.5422989 -0.4556745 0.7058843 0.8222656 0.3723958
41.85855 0.2899628 27.09235 -0.2284537 -0.6374332 0.7358586 0.8291016 0.3707682
44.11879 1.765261 27.22453 0.7884325 0.2404239 0.5661895 0.8307292 0.3649088
46.14127 2.22226 23.37475 0.7751243 0.3274558 0.5403287 0.8066406 0.3567708
31.27491 3.551821 14.85445 -0.8572423 -0.4534588 0.2439484 0.7936198 0.3411458
38.01799 2.662655 19.4987 -0.5934978 -0.4604277 0.6601263 0.7965495 0.3489583
43.69287 0.403389 23.255 -0.2505792 -0.5731708 0.7801829 0.7991536 0.3557943
28.71215 3.566066 18.64008 -0.8714774 -0.4113757 0.2670154 0.8134766 0.3746745
13.48228 0.8875818 14.00248 -0.8745398 -0.4693326 -0.1220946 0.8095703 0.3590495
32.28378 7.763166 13.62239 -0.3732344 0.8960885 -0.2402533 0.8027344 0.3349609
14.74387 3.565658 12.70727 -0.2504933 0.72966 -0.6362778 0.8066406 0.3574219
47.15158 1.802277 19.5307 0.7751245 0.3274498 0.540332 0.8121745 0.3766276
33.32587 3.038759 11.60683 -0.8572416 -0.4534593 0.2439501 0.8297526 0.3828125
39.59694 2.211839 15.92598 -0.593497 -0.4604298 0.6601255 0.8219401 0.3828125
44.87455 0.1107559 19.41931 -0.2505863 -0.5731673 0.7801831 0.8154297 0.3828125
34.26412 6.955315 10.461 -0.3732361 0.8960878 -0.2402529 0.8323568 0.3727213
29.7882 7.925831 16.93057 -0.3856981 0.8768144 -0.2871125 0.8082682 0.3626302
26.95454 7.033122 20.66996 -0.4829127 0.8523536 -0.2007207 0.8320312 0.3382162
-13.44612 0.1530542 8.950571 0.8208414 -0.5711393 0.004407331 0.7190755 0.3509115
-25.58499 2.852986 21.92846 -0.02499049 -0.4370601 0.8990851 0.7347005 0.343099
-13.44612 0.1530542 8.950571 0.8208414 -0.5711393 0.004407331 0.7207031 0.375651
-20.38827 -0.2382812 0.9127369 0.1482982 -0.6157331 -0.7738737 0.7200521 0.3652344
-36.13191 2.85756 9.480116 -0.8833253 -0.4307747 -0.1848498 0.7451172 0.3613281
-25.58499 2.852986 21.92846 -0.02499049 -0.4370601 0.8990851 0.7447917 0.3776042
-26.15926 2.951903 22.75867 0.8718435 -0.4805751 0.09453299 0.7698568 0.3359375
-32.49375 1.987783 28.45164 0.5975586 -0.545585 0.5875891 0.7613932 0.335612
-38.05936 -0.1981125 32.03077 0.2372319 -0.6974593 0.6762186 0.7535807 0.3447266
-38.05936 -0.1981125 32.03077 0.2372319 -0.6974593 0.6762186 0.7509766 0.3388672
-23.05975 0.6373377 31.57666 -0.4230079 0.007760977 0.9060928 0.7708333 0.3535156
-20.1492 -0.3610067 29.86802 0.6030105 -0.545552 0.5820235 0.7688802 0.3499349
-16.54774 1.259403 23.73465 0.8451138 -0.4235489 0.3261732 0.7613932 0.3476562
-35.84587 2.555067 25.63207 0.6112373 -0.4314443 0.6635094 0.7636719 0.3723958
-41.19434 0.1565828 29.51907 0.3053349 -0.619253 0.7233923 0.7705078 0.3707682
-43.46764 1.58576 29.8227 -0.7420043 0.2336955 0.628344 0.7724609 0.3649088
-45.82385 1.931214 26.15541 -0.7329441 0.3205199 0.6000499 0.7477214 0.3567708
-38.0765 2.474643 21.58504 0.6584008 -0.4359239 0.6135786 0.7379557 0.3489583
-31.78016 3.423754 16.36163 0.8851125 -0.4307735 0.1760966 0.7350261 0.3411458
-43.35431 0.1628036 25.85336 0.3297329 -0.5537585 0.7646095 0.7402344 0.3557943
-28.90199 3.559676 19.9108 0.9003237 -0.3879944 0.1971738 0.7548828 0.3746745
-14.07117 1.122504 14.01697 0.8711875 -0.4527899 -0.1897725 0.7506511 0.3590495
-32.98649 7.590175 15.1546 0.3307712 0.8993809 -0.2858398 0.7441406 0.3349609
-15.49991 3.749765 12.79325 0.1781946 0.7233659 -0.6670747 0.7480469 0.3574219
-47.1516 1.421573 22.42028 -0.7329487 0.3205092 0.6000502 0.7535807 0.3766276
-39.94654 1.926956 18.16983 0.6584011 -0.4359266 0.6135764 0.7636719 0.382487
-34.09094 2.809626 13.31205 0.8851119 -0.4307747 0.176097 0.7711589 0.382487
-44.85487 -0.2230196 22.13935 0.3297408 -0.5537531 0.7646101 0.7568359 0.382487
-35.21283 6.684403 12.18953 0.3307725 0.8993809 -0.2858384 0.773763 0.3727213
-30.21971 7.864543 18.23162 0.3395876 0.8795444 -0.3332896 0.7496745 0.3626302
-27.05515 7.098778 21.72573 0.4444074 0.858691 -0.2552487 0.773763 0.3378906
3 0 1 2 
3 2 3 0 
3 4 5 6 
3 7 8 9 
3 9 10 7 
3 10 9 11 
3 11 12 10 
3 9 8 0 
3 0 13 9 
3 0 8 1 
3 14 0 3 
3 15 16 14 
3 14 17 15 
3 18 12 11 
3 11 19 18 
3 16 19 11 
3 11 13 16 
3 11 9 13 
3 20 18 19 
3 19 15 20 
3 21 22 17 
3 17 23 21 
3 15 17 22 
3 22 20 15 
3 13 0 14 
3 14 16 13 
3 19 16 15 
3 14 3 23 
3 3 5 23 
3 8 7 24 
3 24 1 8 
3 5 3 2 
3 25 26 5 
3 5 2 25 
3 27 28 29 
3 27 29 30 
3 30 31 27 
3 6 28 4 
3 29 26 32 
3 32 30 29 
3 26 29 6 
3 6 5 26 
3 29 28 6 
3 23 17 14 
3 33 32 25 
3 24 25 1 
3 2 1 25 
3 23 34 21 
3 35 36 37 
3 37 38 35 
3 39 171 38 
3 38 37 39 
3 21 34 172 
3 27 35 38 
3 38 28 27 
3 28 38 171 
3 171 4 28 
3 173 27 31 
3 31 174 173 
3 25 24 33 
3 32 26 25 
3 4 23 5 
3 23 4 34 
3 40 41 42 
3 42 43 40 
3 44 45 46 
3 7 10 47 
3 47 48 7 
3 10 12 49 
3 49 47 10 
3 47 50 40 
3 40 48 47 
3 40 43 48 
3 51 41 40 
3 52 53 51 
3 51 54 52 
3 175 55 49 
3 49 12 175 
3 54 50 49 
3 49 55 54 
3 49 50 47 
3 176 52 55 
3 55 175 176 
3 177 56 53 
3 53 178 177 
3 52 176 178 
3 178 53 52 
3 50 54 51 
3 51 40 50 
3 55 52 54 
3 51 56 41 
3 41 56 46 
3 48 43 24 
3 24 7 48 
3 46 42 41 
3 57 46 58 
3 46 57 42 
3 59 60 61 
3 59 31 30 
3 30 60 59 
3 45 44 61 
3 60 30 32 
3 32 58 60 
3 58 46 45 
3 45 60 58 
3 60 45 61 
3 56 51 53 
3 33 57 32 
3 24 43 57 
3 42 57 43 
3 56 177 62 
3 63 64 179 
3 179 180 63 
3 181 179 64 
3 64 182 181 
3 177 183 62 
3 59 61 64 
3 64 63 59 
3 61 44 182 
3 182 64 61 
3 184 174 31 
3 31 59 184 
3 57 33 24 
3 32 57 58 
3 44 46 56 
3 56 62 44 
3 65 66 67 
3 67 68 65 
3 69 70 71 
3 71 72 69 
3 68 67 71 
3 71 70 68 
3 65 185 186 
3 186 66 65 
3 71 67 187 
3 187 188 71 
3 68 70 189 
3 189 190 68 
3 73 74 75 
3 75 76 73 
3 77 78 191 
3 191 192 77 
3 79 191 78 
3 78 80 79 
3 74 193 81 
3 81 75 74 
3 81 194 80 
3 75 78 77 
3 77 76 75 
3 80 78 75 
3 75 81 80 
3 82 83 84 
3 84 85 82 
3 84 83 86 
3 87 195 83 
3 83 82 87 
3 87 196 197 
3 197 195 87 
3 196 87 88 
3 88 89 196 
3 90 91 92 
3 92 93 90 
3 94 92 91 
3 91 95 94 
3 198 199 96 
3 96 97 198 
3 200 94 95 
3 97 91 90 
3 90 98 97 
3 95 91 97 
3 97 96 95 
3 99 100 101 
3 101 102 99 
3 99 102 103 
3 103 104 99 
3 105 106 103 
3 103 102 105 
3 102 101 107 
3 107 105 102 
3 106 105 201 
3 101 100 202 
3 202 203 101 
3 204 107 101 
3 101 203 204 
3 98 205 198 
3 198 97 98 
3 206 108 82 
3 82 85 206 
3 87 82 108 
3 108 88 87 
3 99 104 207 
3 208 108 206 
3 109 110 111 
3 111 112 109 
3 109 112 113 
3 113 114 109 
3 115 116 113 
3 113 112 115 
3 112 111 117 
3 117 115 112 
3 116 115 209 
3 111 110 210 
3 210 211 111 
3 212 117 111 
3 111 211 212 
3 109 114 213 
3 93 214 90 
3 215 77 192 
3 118 119 120 
3 120 121 118 
3 122 123 124 
3 124 125 122 
3 119 125 124 
3 124 120 119 
3 118 121 216 
3 216 217 118 
3 124 218 219 
3 219 120 124 
3 119 220 221 
3 221 125 119 
3 126 127 128 
3 128 129 126 
3 130 222 223 
3 223 131 130 
3 132 133 131 
3 131 223 132 
3 129 128 134 
3 134 224 129 
3 134 133 225 
3 128 127 130 
3 130 131 128 
3 133 134 128 
3 128 131 133 
3 135 136 137 
3 137 138 135 
3 137 139 138 
3 140 135 138 
3 138 226 140 
3 140 226 227 
3 227 228 140 
3 228 141 142 
3 142 140 228 
3 143 144 145 
3 145 146 143 
3 147 148 146 
3 146 145 147 
3 229 149 150 
3 150 230 229 
3 231 148 147 
3 149 151 143 
3 143 146 149 
3 148 150 149 
3 149 146 148 
3 152 153 154 
3 154 155 152 
3 152 156 157 
3 157 153 152 
3 158 153 157 
3 157 159 158 
3 153 158 160 
3 160 154 153 
3 159 232 158 
3 154 233 234 
3 234 155 154 
3 235 233 154 
3 154 160 235 
3 151 149 229 
3 229 236 151 
3 237 136 135 
3 135 161 237 
3 140 142 161 
3 161 135 140 
3 152 238 156 
3 239 237 161 
3 162 163 164 
3 164 165 162 
3 162 166 167 
3 167 163 162 
3 168 163 167 
3 167 169 168 
3 163 168 170 
3 170 164 163 
3 169 240 168 
3 164 241 242 
3 242 165 164 
3 243 241 164 
3 164 170 243 
3 162 244 166 
3 144 143 245 
3 246 222 130 
