ply
format ascii 1.0
comment VCGLIB generated
comment TextureFile ../textures/cemetery_halloween_atlas.tga
element vertex 79
property float x
property float y
property float z
property float nx
property float ny
property float nz
property float texture_u
property float texture_v
element face 126
property list uchar int vertex_indices
end_header
13.12398 15.65682 -1.970691 0.9888116 0.1196544 0.08907595 0.6917318 0.4733073
9.259663 20.10933 5.911613 0.6601844 0.4402589 0.6085464 0.6992188 0.4674479
9.631193 16.15871 9.767422 0.5689719 0.1623762 0.8061669 0.6988932 0.4632162
12.55318 10.88966 1.18778 0.9486918 -0.2006424 0.2443901 0.6897786 0.468099
8.241735 4.481197 5.27939 0.7595242 -0.6361356 0.1358476 0.6865234 0.4583333
8.734818 9.330513 7.453733 0.9100183 -0.07514784 0.4077003 0.6927083 0.4599609
8.817256 6.528616 10.45672 0.9784998 0.0825777 0.1889951 0.6933594 0.4557292
0 25.13887 5.384295 1.640276e-05 0.8073425 0.5900831 0.7086589 0.4690755
9.495729 23.43263 4.03897 0.6364982 0.6057993 0.477365 0.7001953 0.4697266
8.821359 25.98618 -3.229674 0.5933048 0.8047826 -0.01773274 0.7011719 0.4772135
0 28.82966 -2.954691 1.640639e-05 0.9999998 0.0007497743 0.7086589 0.4785156
8.566304 22.6909 -11.19142 0.5243714 0.6636938 -0.5334277 0.6985677 0.4847005
0 24.12782 -12.54381 1.088953e-05 0.7833062 -0.6216362 0.7086589 0.4912109
12.67978 18.57163 -8.11034 0.9330227 0.2871277 -0.2168556 0.6933594 0.4798177
11.70755 5.527479 -8.167013 0.9116813 -0.3861068 -0.1405659 0.6806641 0.4752604
8.13705 7.9459 -17.06043 0.498536 -0.3285046 -0.8022136 0.6819661 0.4860026
11.40037 12.26565 -13.84068 0.884642 0.004135027 -0.4662525 0.6868489 0.4833984
8.070515 0.9834909 -10.20438 0.5141854 -0.8117144 -0.2770077 0.6761068 0.476237
0 16.2675 -19.03157 2.460859e-07 0.2991511 -0.9542058 0.6910807 0.4970703
7.844208 15.2878 -17.19528 0.4865562 0.2701374 -0.8308362 0.6897786 0.4889323
0 6.999166 -18.19466 -1.295289e-05 -0.390836 -0.9204603 0.6770833 0.4921875
0 0.2222786 -0.4996114 -1.777833e-05 -0.9704251 0.2414026 0.671875 0.4635417
0 -0.6863384 -11.35069 -1.942657e-05 -0.9284898 -0.3713579 0.6686198 0.4785156
9.493369 3.29117 -0.441144 0.6646923 -0.7120807 0.2261089 0.6822917 0.4654948
0 21.62179 8.256668 1.815513e-05 0.6410443 0.767504 0.7086589 0.4654948
4.1784 16.72454 10.39286 0.4288197 0.4600028 0.7775031 0.7034505 0.4609375
4.656082 12.62673 12.82235 0.6622093 0.5082723 0.55058 0.7018229 0.4570312
5.121221 4.152886 19.14878 0.6467322 0.04443293 0.7614219 0.7011719 0.4462891
8.085945 3.70311 12.64845 0.9356105 -0.2779689 0.2176379 0.6936849 0.4518229
5.50217 8.10848 17.08056 0.6525401 0.4230352 0.6286753 0.7011719 0.4508463
0 8.947852 18.51821 2.205928e-05 0.513364 0.858171 0.7086589 0.4501953
0 3.915162 20.44972 1.165526e-05 0.07140354 0.9974476 0.7086589 0.444987
0 13.69794 14.73196 2.621484e-05 0.6074418 0.7943642 0.7086589 0.4557292
0 18.50347 12.01278 2.538614e-05 0.6469551 0.7625282 0.7086589 0.4609375
5.158555 3.420895 5.27971 0.3047333 -0.9506894 -0.05768266 0.6806641 0.4580078
4.618743 1.660091 19.00938 0.5174541 -0.5978364 0.6122361 0.6979167 0.4443359
0 1.725748 19.91125 -1.423579e-05 -0.6799316 0.7332755 0.6962891 0.4391276
0 -0.4619122 10.31905 -2.962427e-05 -0.9769661 -0.2133944 0.6861979 0.4443359
6.208252 -0.546072 10.76357 0.5402666 -0.8294535 -0.1418409 0.6901042 0.4492188
0 3.188698 5.377759 -3.242356e-05 -0.9959075 -0.09037831 0.6806641 0.4495443
-13.12398 15.65716 -1.970588 -0.9888116 0.1196544 0.08907601 0.7252604 0.4733073
-12.55318 10.89 1.187883 -0.9486918 -0.2006423 0.24439 0.7275391 0.468099
-9.631192 16.15904 9.767523 -0.5689719 0.162376 0.8061668 0.7180989 0.4632162
-9.259662 20.10967 5.911715 -0.660177 0.4402653 0.6085498 0.7177734 0.4674479
-8.241735 4.481535 5.279492 -0.7595242 -0.6361356 0.1358476 0.7304688 0.4583333
-8.817256 6.528955 10.45682 -0.9784998 0.08257764 0.1889952 0.7236328 0.4557292
-8.734818 9.330851 7.453835 -0.9100183 -0.07514782 0.4077003 0.7242839 0.4599609
-8.821359 25.98652 -3.229571 -0.5932904 0.8047932 -0.01773015 0.7158203 0.4772135
-9.495728 23.43297 4.039073 -0.6364855 0.6058084 0.4773704 0.7167969 0.4697266
-8.566304 22.69124 -11.19132 -0.5243616 0.6637006 -0.5334291 0.7184245 0.4847005
-12.67978 18.57197 -8.110237 -0.9330227 0.2871276 -0.2168554 0.7236328 0.4798177
-11.70755 5.527817 -8.16691 -0.9116813 -0.3861068 -0.1405658 0.7363281 0.4752604
-8.13705 7.946239 -17.06033 -0.4985472 -0.3284976 -0.8022095 0.7350261 0.4860026
-8.070514 0.9838295 -10.20428 -0.5142039 -0.8117036 -0.277005 0.7408854 0.476237
-11.40037 12.26599 -13.84057 -0.8846421 0.004134961 -0.4662523 0.7301432 0.4833984
-7.844208 15.28814 -17.19518 -0.4865565 0.2701434 -0.8308342 0.7272136 0.4889323
-9.493367 3.291508 -0.4410415 -0.6647004 -0.7120729 0.2261098 0.7347005 0.4654948
-4.1784 16.72487 10.39297 -0.4287947 0.4600166 0.7775088 0.7135417 0.4609375
-4.656082 12.62707 12.82245 -0.6621904 0.5082797 0.5505957 0.7151693 0.4570312
-5.121221 4.153223 19.14888 -0.6467214 0.04444117 0.7614305 0.7158203 0.4462891
-5.50217 8.108818 17.08067 -0.6525232 0.4230448 0.6286863 0.7158203 0.4508463
-8.085944 3.703447 12.64856 -0.9356105 -0.277969 0.2176379 0.7233073 0.4518229
-5.158554 3.421233 5.279812 -0.3047657 -0.9506791 -0.05768091 0.7363281 0.4580078
-4.618743 1.660429 19.00948 -0.5174714 -0.5978164 0.6122409 0.7190755 0.4443359
-6.208252 -0.5457335 10.76367 -0.5402889 -0.8294399 -0.1418357 0.726888 0.4492188
5.158555 3.420895 5.27971 0.3047333 -0.9506894 -0.05768266 0.6845703 0.4544271
0 3.188698 5.377759 -3.242356e-05 -0.9959075 -0.09037831 0.6748047 0.4563802
4.618743 1.660091 19.00938 0.5174541 -0.5978364 0.6122361 0.7024739 0.4430338
0 1.725748 19.91125 -1.423579e-05 -0.6799316 0.7332755 0.7086589 0.4427083
0 16.2675 -19.03157 2.460859e-07 0.2991511 -0.9542058 0.7259114 0.4970703
0 6.999166 -18.19466 -1.295289e-05 -0.390836 -0.9204603 0.7399089 0.4921875
0 0.2222786 -0.4996114 -1.777833e-05 -0.9704251 0.2414026 0.7454427 0.4635417
0 -0.6863384 -11.35069 -1.942657e-05 -0.9284898 -0.3713579 0.7483724 0.4785156
0 -0.4619122 10.31905 -2.962427e-05 -0.9769661 -0.2133944 0.7311198 0.4443359
0 1.725748 19.91125 -1.423579e-05 -0.6799316 0.7332755 0.7207031 0.4391276
0 3.188698 5.377759 -3.242356e-05 -0.9959075 -0.09037831 0.7363281 0.4495443
-5.158554 3.421233 5.279812 -0.3047657 -0.9506791 -0.05768091 0.7324219 0.4544271
0 3.188698 5.377759 -3.242356e-05 -0.9959075 -0.09037831 0.7421875 0.4563802
-4.618743 1.660429 19.00948 -0.5174714 -0.5978164 0.6122409 0.7145182 0.4430338
3 0 1 2 
3 2 3 0 
3 4 5 6 
3 7 8 9 
3 9 10 7 
3 10 9 11 
3 11 12 10 
3 9 8 0 
3 0 13 9 
3 0 8 1 
3 14 0 3 
3 15 16 14 
3 14 17 15 
3 18 12 11 
3 11 19 18 
3 16 19 11 
3 11 13 16 
3 11 9 13 
3 20 18 19 
3 19 15 20 
3 21 22 17 
3 17 23 21 
3 15 17 22 
3 22 20 15 
3 13 0 14 
3 14 16 13 
3 19 16 15 
3 14 3 23 
3 3 5 23 
3 8 7 24 
3 24 1 8 
3 5 3 2 
3 25 26 5 
3 5 2 25 
3 27 28 29 
3 27 29 30 
3 30 31 27 
3 6 28 4 
3 29 26 32 
3 32 30 29 
3 26 29 6 
3 6 5 26 
3 29 28 6 
3 23 17 14 
3 33 32 25 
3 24 25 1 
3 2 1 25 
3 23 34 21 
3 35 36 37 
3 37 38 35 
3 39 65 38 
3 38 37 39 
3 21 34 66 
3 27 35 38 
3 38 28 27 
3 28 38 65 
3 65 4 28 
3 67 27 31 
3 31 68 67 
3 25 24 33 
3 32 26 25 
3 4 23 5 
3 23 4 34 
3 40 41 42 
3 42 43 40 
3 44 45 46 
3 7 10 47 
3 47 48 7 
3 10 12 49 
3 49 47 10 
3 47 50 40 
3 40 48 47 
3 40 43 48 
3 51 41 40 
3 52 53 51 
3 51 54 52 
3 69 55 49 
3 49 12 69 
3 54 50 49 
3 49 55 54 
3 49 50 47 
3 70 52 55 
3 55 69 70 
3 71 56 53 
3 53 72 71 
3 52 70 72 
3 72 53 52 
3 50 54 51 
3 51 40 50 
3 55 52 54 
3 51 56 41 
3 41 56 46 
3 48 43 24 
3 24 7 48 
3 46 42 41 
3 57 46 58 
3 46 57 42 
3 59 60 61 
3 59 31 30 
3 30 60 59 
3 45 44 61 
3 60 30 32 
3 32 58 60 
3 58 46 45 
3 45 60 58 
3 60 45 61 
3 56 51 53 
3 33 57 32 
3 24 43 57 
3 42 57 43 
3 56 71 62 
3 63 64 73 
3 73 74 63 
3 75 73 64 
3 64 76 75 
3 71 77 62 
3 59 61 64 
3 64 63 59 
3 61 44 76 
3 76 64 61 
3 78 68 31 
3 31 59 78 
3 57 33 24 
3 32 57 58 
3 44 46 56 
3 56 62 44 
