ply
format ascii 1.0
comment VCGLIB generated
comment TextureFile ../textures/cemetery_halloween_atlas.tga
element vertex 484
property float x
property float y
property float z
property float nx
property float ny
property float nz
property float texture_u
property float texture_v
element face 668
property list uchar int vertex_indices
end_header
18.85845 15.65682 16.92496 0.9888116 0.1196543 0.08907599 0.6917318 0.4733073
14.99413 20.10933 24.80726 0.6601845 0.4402587 0.6085465 0.6992188 0.4674479
15.36566 16.1587 28.66307 0.5689719 0.1623761 0.8061669 0.6988932 0.4632162
18.28765 10.88966 20.08343 0.9486918 -0.2006424 0.2443901 0.6897786 0.468099
13.9762 4.481195 24.17504 0.7595242 -0.6361356 0.1358476 0.6865234 0.4583333
14.46929 9.330511 26.34938 0.9100183 -0.0751478 0.4077003 0.6927083 0.4599609
14.55172 6.528614 29.35236 0.9784998 0.08257775 0.1889952 0.6933594 0.4557292
5.734466 25.13887 24.27994 1.639232e-05 0.8073425 0.5900832 0.7086589 0.4690755
15.2302 23.43263 22.93462 0.6364982 0.6057991 0.4773652 0.7001953 0.4697266
14.55583 25.98618 15.66597 0.5933049 0.8047825 -0.01773271 0.7011719 0.4772135
5.734466 28.82966 15.94095 1.6374e-05 0.9999998 0.0007497096 0.7086589 0.4785156
14.30077 22.6909 7.704223 0.5243714 0.6636939 -0.5334278 0.6985677 0.4847005
5.734466 24.12782 6.351832 1.081263e-05 0.7833062 -0.6216362 0.7086589 0.4912109
18.41424 18.57163 10.78531 0.9330226 0.2871278 -0.2168557 0.6933594 0.4798177
17.44202 5.527477 10.72863 0.9116813 -0.3861068 -0.1405659 0.6806641 0.4752604
13.87152 7.945898 1.835218 0.498536 -0.3285045 -0.8022136 0.6819661 0.4860026
17.13483 12.26565 5.054971 0.884642 0.00413506 -0.4662526 0.6868489 0.4833984
13.80498 0.983489 8.691269 0.5141854 -0.8117144 -0.2770077 0.6761068 0.476237
5.734466 16.2675 -0.1359215 2.237145e-07 0.2991512 -0.9542058 0.6910807 0.4970703
13.57867 15.28779 1.700363 0.4865561 0.2701375 -0.8308363 0.6897786 0.4889323
5.734466 6.999164 0.7009888 -1.297933e-05 -0.390836 -0.9204603 0.6770833 0.4921875
5.734466 0.2222767 18.39603 -1.777263e-05 -0.9704251 0.2414026 0.671875 0.4635417
5.734466 -0.6863403 7.544954 -1.941216e-05 -0.9284898 -0.3713579 0.6686198 0.4785156
15.22784 3.291168 18.4545 0.6646925 -0.7120806 0.2261089 0.6822917 0.4654948
5.734466 21.62179 27.15231 1.818963e-05 0.641044 0.7675042 0.7086589 0.4654948
9.912866 16.72453 29.28851 0.4288199 0.4600028 0.7775031 0.7034505 0.4609375
10.39055 12.62673 31.71799 0.6622093 0.5082723 0.5505798 0.7018229 0.4570312
10.85569 4.152884 38.04443 0.6467322 0.04443292 0.7614219 0.7011719 0.4462891
13.82041 3.703108 31.5441 0.9356105 -0.277969 0.2176379 0.6936849 0.4518229
11.23664 8.108479 35.97621 0.6525401 0.4230352 0.6286753 0.7011719 0.4508463
5.734466 8.94785 37.41385 2.203883e-05 0.513364 0.858171 0.7086589 0.4501953
5.734466 3.91516 39.34537 1.163805e-05 0.07140355 0.9974476 0.7086589 0.444987
5.734466 13.69793 33.62761 2.627095e-05 0.6074418 0.7943642 0.7086589 0.4557292
5.734466 18.50347 30.90842 2.552692e-05 0.6469551 0.7625281 0.7086589 0.4609375
10.89302 3.420893 24.17536 0.3047333 -0.9506894 -0.0576827 0.6806641 0.4580078
10.35321 1.660089 37.90502 0.517454 -0.5978364 0.6122361 0.6979167 0.4443359
5.734466 1.725746 38.8069 -1.423579e-05 -0.6799316 0.7332755 0.6962891 0.4391276
5.734466 -0.4619141 29.21469 -2.960787e-05 -0.9769661 -0.2133945 0.6861979 0.4443359
11.94272 -0.5460739 29.65921 0.5402668 -0.8294535 -0.1418409 0.6901042 0.4492188
5.734466 3.188696 24.27341 -3.243866e-05 -0.9959075 -0.09037837 0.6806641 0.4495443
-7.389516 15.65716 16.92506 -0.9888116 0.1196543 0.08907602 0.7252604 0.4733073
-6.818714 10.89 20.08353 -0.9486918 -0.2006423 0.24439 0.7275391 0.468099
-3.896726 16.15904 28.66317 -0.5689721 0.1623762 0.8061667 0.7180989 0.4632162
-3.525196 20.10966 24.80736 -0.6601771 0.4402651 0.6085499 0.7177734 0.4674479
-2.507269 4.481534 24.17514 -0.7595241 -0.6361356 0.1358475 0.7304688 0.4583333
-3.08279 6.528953 29.35246 -0.9784998 0.08257764 0.1889952 0.7236328 0.4557292
-3.000353 9.330849 26.34948 -0.9100183 -0.07514779 0.4077003 0.7242839 0.4599609
-3.086893 25.98652 15.66607 -0.5932905 0.8047932 -0.01773021 0.7158203 0.4772135
-3.761263 23.43297 22.93472 -0.6364855 0.6058083 0.4773706 0.7167969 0.4697266
-2.831838 22.69124 7.704324 -0.5243616 0.6637005 -0.5334291 0.7184245 0.4847005
-6.94531 18.57197 10.78541 -0.9330227 0.2871277 -0.2168555 0.7236328 0.4798177
-5.973083 5.527815 10.72873 -0.9116813 -0.3861069 -0.1405658 0.7363281 0.4752604
-2.402584 7.946237 1.83532 -0.4985472 -0.3284976 -0.8022095 0.7350261 0.4860026
-2.336048 0.9838276 8.691371 -0.514204 -0.8117036 -0.2770049 0.7408854 0.476237
-5.665903 12.26599 5.055073 -0.8846421 0.004134951 -0.4662524 0.7301432 0.4833984
-2.109741 15.28813 1.700464 -0.4865564 0.2701434 -0.8308342 0.7272136 0.4889323
-3.758901 3.291506 18.45461 -0.6647003 -0.7120729 0.2261098 0.7347005 0.4654948
1.556066 16.72487 29.28861 -0.4287949 0.4600166 0.7775087 0.7135417 0.4609375
1.078384 12.62706 31.71809 -0.6621904 0.5082797 0.5505957 0.7151693 0.4570312
0.6132454 4.153221 38.04453 -0.6467214 0.04444122 0.7614305 0.7158203 0.4462891
0.2322965 8.108816 35.97631 -0.6525232 0.4230448 0.6286863 0.7158203 0.4508463
-2.351478 3.703445 31.5442 -0.9356105 -0.277969 0.2176379 0.7233073 0.4518229
0.5759119 3.421231 24.17546 -0.3047657 -0.9506792 -0.05768088 0.7363281 0.4580078
1.115723 1.660427 37.90512 -0.5174714 -0.5978164 0.6122409 0.7190755 0.4443359
-0.4737858 -0.5457354 29.65931 -0.5402889 -0.8294399 -0.1418357 0.726888 0.4492188
-18.55588 -0.1140165 10.06927 0.03070153 -0.9356421 0.3516125 0.773763 0.4733073
-26.22768 4.09293 14.57856 -0.4795458 -0.580309 0.6582381 0.7815755 0.4674479
-30.45801 2.500512 11.38776 -0.7168522 -0.5731366 0.3970358 0.7809245 0.4632162
-22.29287 -0.9358702 5.781255 -0.1643821 -0.9848494 0.05522878 0.7718099 0.468099
-27.53925 1.402575 -0.8070202 -0.1281651 -0.8972507 -0.4225103 0.7688802 0.4583333
-29.06692 1.916301 4.281113 -0.3150607 -0.9298421 0.1900801 0.7750651 0.4599609
-32.35133 0.9419556 2.014259 -0.07339562 -0.942042 0.3273683 0.7757161 0.4557292
-26.09875 14.29688 17.25782 -0.4882514 0.147762 0.8601029 0.7910156 0.4690755
-23.96475 4.797705 17.57678 -0.3331499 -0.5080189 0.7943097 0.7825521 0.4697266
-16.5598 6.608344 18.87942 0.174453 -0.3813739 0.9078107 0.7835286 0.4772135
-17.43245 15.80641 19.6614 0.1162387 0.2381986 0.9642355 0.7910156 0.4785156
-9.110217 6.671749 14.54201 0.6598894 -0.3092785 0.6847575 0.7809245 0.4847005
-8.513412 15.41068 13.80027 0.7054821 0.2336013 0.6691229 0.7910156 0.4912109
-12.19917 1.47454 11.92868 0.3464875 -0.8186029 0.4580783 0.7753906 0.4798177
-13.77199 -0.6878643 -0.8755627 0.1901409 -0.9641162 -0.185274 0.7630208 0.4752604
-5.084972 4.017545 -0.5840302 0.8065102 -0.5003653 -0.3149222 0.7643229 0.4860026
-7.413673 1.643796 4.765622 0.5545362 -0.8203422 0.1397437 0.7688802 0.4833984
-12.67665 1.904963 -6.362293 0.2330131 -0.6703389 -0.7045216 0.7584636 0.476237
-3.02638 14.02802 5.323469 0.9772508 0.1433816 0.1562774 0.7734375 0.4970703
-4.123968 6.060639 6.409511 0.9035338 -0.343964 0.2555691 0.7721354 0.4889323
-4.936994 11.75641 -3.496498 0.8632138 -0.02355955 -0.5042886 0.7591146 0.4921875
-23.2032 8.804578 -7.579796 -0.3518991 -0.2494482 -0.9021876 0.7539062 0.4635417
-12.59429 9.408021 -9.958525 0.2580934 -0.1931526 -0.946615 0.7503255 0.4785156
-21.89708 0.3393879 -2.463135 -0.2362174 -0.8303454 -0.5047058 0.7643229 0.4654948
-29.34657 13.24181 14.26469 -0.6829037 0.0947296 0.7243403 0.7910156 0.4654948
-31.5866 7.867768 10.78513 -0.6685667 -0.3643519 0.6482795 0.7854818 0.4609375
-34.41445 6.24528 7.278934 -0.4141345 -0.5616842 0.7162427 0.7841797 0.4570312
-41.60368 3.297795 0.0905056 -0.6782335 -0.6731495 0.2947358 0.7835286 0.4462891
-34.92355 0.8111992 -0.5719719 -0.1483951 -0.9885865 -0.02599054 0.7760417 0.4518229
-39.05832 4.027724 3.704057 -0.5022467 -0.5785325 0.6426885 0.7835286 0.4508463
-40.96217 9.446587 3.466453 -0.7873706 0.05745232 0.613797 0.7910156 0.4501953
-43.45821 8.101491 -1.118221 -0.9766034 -0.05836812 0.2069759 0.7910156 0.444987
-36.66769 10.8645 7.521807 -0.7133573 0.0846857 0.6956649 0.7910156 0.4557292
-33.42042 12.21499 11.77839 -0.6772978 0.09650687 0.7293519 0.7910156 0.4609375
-27.98995 4.135219 -2.527424 -0.02199301 -0.5172227 -0.8555683 0.7626953 0.4580078
-41.8108 3.200889 -2.445955 -0.6197302 -0.6897375 -0.3744284 0.7802734 0.4443359
-43.1826 7.620505 -3.303665 -0.8036313 -0.2174029 -0.553997 0.7783203 0.4391276
-33.96641 7.824064 -6.741222 0.09643636 -0.2166294 -0.9714792 0.7682292 0.4443359
-33.75807 1.759254 -5.354956 0.1002244 -0.7100328 -0.6969997 0.7721354 0.4492188
-28.65997 9.067278 -3.905859 -0.02725549 -0.2304354 -0.9727059 0.7630208 0.4495443
-21.33428 25.30078 4.125798 -0.1786286 0.9792008 -0.09621675 0.8076172 0.4733073
-24.95043 23.37356 0.09630013 -0.3652186 0.8523012 -0.3744303 0.8095703 0.468099
-32.49698 21.15149 7.026166 -0.8373027 0.5286829 0.1393506 0.8004557 0.4632162
-28.188 22.02443 10.38523 -0.6193075 0.6981381 0.3592511 0.7998047 0.4674479
-29.28408 17.36285 -4.539333 -0.288955 0.5735751 -0.7664963 0.8125 0.4583333
-34.21799 18.01673 -1.978706 -0.2805423 0.9528318 -0.1157913 0.8059896 0.4557292
-30.91613 18.83143 0.3254814 -0.5077105 0.8324167 -0.2220644 0.8063151 0.4599609
-18.42733 23.69106 14.88459 0.04885143 0.7675551 0.6391187 0.7981771 0.4772135
-25.97504 23.18635 13.27654 -0.4678983 0.7245551 0.5060544 0.7991536 0.4697266
-10.92375 23.26055 10.6627 0.548884 0.7061636 0.4472799 0.8004557 0.4847005
-14.88352 26.02912 6.18639 0.1489677 0.9882041 0.03551531 0.8059896 0.4798177
-16.25052 21.98399 -6.177534 -0.002860741 0.8013631 -0.5981715 0.8183594 0.4752604
-6.807636 19.77509 -4.26893 0.7009664 0.4650664 -0.5407026 0.8170573 0.4860026
-14.38523 17.53366 -10.01706 0.1241573 0.3254062 -0.9373878 0.8229167 0.476237
-9.827178 23.72079 -0.3972263 0.3672589 0.8927754 -0.2609079 0.8125 0.4833984
-5.784637 21.2511 2.857237 0.8005291 0.5982584 0.03521525 0.8092448 0.4889323
-23.90687 18.72346 -6.76231 -0.3769329 0.4568471 -0.8057372 0.8170573 0.4654948
-32.47123 15.95935 8.893087 -0.7593487 0.4660402 0.4540883 0.7958984 0.4609375
-35.4002 15.2619 5.17055 -0.5543362 0.7206727 0.4163439 0.7972005 0.4570312
-42.68789 13.21516 -2.228539 -0.8151521 0.5792441 0.001844069 0.7981771 0.4462891
-40.22318 14.6828 1.212482 -0.6403964 0.6851025 0.3471701 0.7978516 0.4508463
-36.63539 16.46978 -4.233732 -0.3464621 0.8232321 -0.4497255 0.8053386 0.4518229
-29.08208 14.12488 -4.863377 -0.08650853 0.07293017 -0.9935781 0.8186849 0.4580078
-42.78865 12.1452 -4.53743 -0.7292793 0.3123383 -0.6087663 0.8011068 0.4443359
-35.07241 13.78167 -8.166313 -0.01415544 0.336223 -0.941676 0.8092448 0.4492188
-0.9094595 25.71444 -23.86362 -0.1374537 0.8703017 -0.4729498 0.773763 0.4147135
-8.128901 25.22908 -17.19035 -0.6387908 0.7693651 -0.004863244 0.7815755 0.4091797
-6.006939 28.12548 -12.98073 -0.4615341 0.8374484 0.2926883 0.7809245 0.4046224
2.230043 27.62956 -19.44736 0.09581261 0.9707127 -0.2203109 0.7718099 0.4098307
6.48394 27.07923 -11.8316 0.5374871 0.8410517 -0.06115265 0.7688802 0.4000651
1.174251 27.5874 -12.02061 -0.08402117 0.9898701 -0.1144455 0.7750651 0.4013672
2.572457 29.61177 -8.73089 -0.1426699 0.9155514 -0.3760466 0.7757161 0.3971354
-12.61807 16.03341 -14.6208 -0.9741785 0.1211047 0.1905517 0.7910156 0.4108073
-10.44803 23.90933 -19.92654 -0.7396996 0.6552876 -0.1531098 0.7825521 0.4114583
-9.947375 19.4186 -26.20279 -0.728615 0.3469189 -0.5905654 0.7835286 0.4189453
-12.73783 11.40042 -22.47457 -0.9199417 -0.1931256 -0.341189 0.7910156 0.4202474
-3.792493 16.095 -31.24109 -0.3968922 0.07250449 -0.9149971 0.7809245 0.4267578
-4.648432 7.80386 -28.44826 -0.4762673 -0.4436876 -0.7591514 0.7910156 0.4329427
-1.182598 21.88261 -29.48779 -0.1717669 0.6460804 -0.7436911 0.7753906 0.4215495
10.82824 23.54261 -24.58039 0.4172522 0.7938172 -0.442442 0.7630208 0.4169922
12.06901 15.82025 -30.62322 0.6209272 0.1159224 -0.7752492 0.7643229 0.4277344
6.857026 19.30798 -31.21252 0.186048 0.541967 -0.8195474 0.7688802 0.4251302
15.7793 20.33207 -22.78981 0.8591969 0.469714 -0.2028534 0.7584636 0.4179688
5.127833 6.275898 -30.89068 0.09957439 -0.506305 -0.8565865 0.7734375 0.4388021
5.367766 14.08407 -33.09029 0.08153544 -0.02367912 -0.9963892 0.7721354 0.4306641
13.32281 8.462547 -27.06139 0.7208684 -0.3569509 -0.5940832 0.7591146 0.4339193
12.60684 18.08947 -10.75647 0.7976573 0.3011995 0.5225148 0.7539062 0.4052734
17.70334 13.1659 -19.02422 0.9997044 0.005121761 0.02376714 0.7503255 0.4199219
9.834202 25.6991 -16.58326 0.5711617 0.816492 0.08435041 0.7643229 0.4072266
-10.51149 18.06378 -11.148 -0.8909104 0.2366611 0.3876469 0.7910156 0.406901
-6.814607 23.61382 -9.908787 -0.7250626 0.6456865 0.2395271 0.7854818 0.4026693
-3.996399 25.95982 -6.830383 -0.678562 0.730708 -0.07496263 0.7841797 0.398763
1.315908 30.97309 0.8307343 -0.3349032 0.9062114 0.25811 0.7835286 0.3876953
4.304705 30.55864 -5.660912 0.1773307 0.9618368 -0.2083839 0.7760417 0.3935547
-1.506804 29.56385 -2.349789 -0.6309138 0.7755736 0.02082067 0.7835286 0.3925781
-2.885339 25.33842 1.295841 -0.8090919 0.303978 0.502959 0.7910156 0.3919271
0.9845156 27.21991 4.542835 -0.4573337 0.4549368 0.7641194 0.7910156 0.3867188
-5.766996 22.64 -3.320816 -0.8705552 0.2557928 0.4203614 0.7910156 0.3974609
-9.118653 20.43231 -7.112865 -0.8943924 0.2331856 0.3816893 0.7910156 0.4026693
7.435335 24.62921 -9.902214 0.8992805 0.4192882 0.1244665 0.7626953 0.3997396
3.659296 30.95716 1.827839 0.3133501 0.8490385 0.4253767 0.7802734 0.3860677
3.209446 27.39049 4.865435 0.3373624 0.4761461 0.8120785 0.7783203 0.3808594
8.987893 23.306 -1.969971 0.982258 0.08872657 0.165218 0.7682292 0.3860677
8.93823 28.87791 -4.744579 0.8226342 0.5591289 -0.103189 0.7721354 0.3909505
7.570914 20.27752 -7.123974 0.9513726 0.1501997 0.2689431 0.7630208 0.391276
-1.110589 3.108916 -10.5255 -0.1525809 -0.8328846 0.5319985 0.8076172 0.4147135
2.037646 6.007221 -6.68935 0.08129907 -0.6633688 0.7438632 0.8095703 0.4098307
-6.154635 11.53613 -3.192394 -0.4702387 -0.1425819 0.8709455 0.8004557 0.4046224
-8.270913 9.279689 -7.77961 -0.6488984 -0.367768 0.6660913 0.7998047 0.4091797
6.357502 12.88316 -3.455395 0.5258678 -0.4671966 0.7107675 0.8125 0.4000651
2.437214 14.42439 0.2302284 -0.1576389 -0.7698728 0.6184222 0.8059896 0.3971354
1.04027 12.54202 -3.143276 -0.09794308 -0.5775984 0.8104242 0.8063151 0.4013672
-10.08268 4.224166 -17.23751 -0.7377023 -0.6750121 0.01241274 0.7981771 0.4189453
-10.59365 7.553313 -10.27588 -0.7494479 -0.4410423 0.4937707 0.7991536 0.4114583
-3.923897 1.33987 -22.53501 -0.4049199 -0.830697 -0.3820763 0.8004557 0.4267578
-1.376932 0.04221058 -16.60111 -0.1860408 -0.9610125 0.2045576 0.8059896 0.4215495
10.64878 3.376824 -12.68181 0.4033043 -0.7765154 0.4841173 0.8183594 0.4169922
11.94417 1.804508 -22.35341 0.6132922 -0.7427936 -0.2685708 0.8170573 0.4277344
15.65548 6.430923 -14.58762 0.8513193 -0.4159656 0.3197313 0.8229167 0.4179688
6.682264 -0.328702 -19.62613 0.1725139 -0.981791 0.07953209 0.8125 0.4251302
5.247409 0.5727348 -25.1181 0.07408515 -0.8617511 -0.5018929 0.8092448 0.4306641
9.688617 9.347168 -6.935001 0.5609851 -0.3284201 0.759892 0.8170573 0.4072266
-6.878881 16.41667 -5.662226 -0.7316375 -0.09291549 0.675332 0.7958984 0.4026693
-4.067981 17.93989 -2.098347 -0.6887059 -0.4098968 0.5980541 0.7972005 0.398763
1.237209 22.15199 6.035495 -0.3448088 -0.2077461 0.9153953 0.7981771 0.3876953
-1.591331 20.08658 3.242137 -0.6409096 -0.3483811 0.6840069 0.7978516 0.3925781
4.18065 16.63093 2.556953 0.1630171 -0.6497122 0.7424954 0.8053386 0.3935547
7.356065 15.7438 -4.65951 0.8946081 -0.1056309 0.4341873 0.8186849 0.3997396
3.588285 23.00155 6.521925 0.3054127 -0.04227168 0.9512814 0.8011068 0.3860677
8.8429 18.18444 1.564957 0.8143536 -0.3714775 0.4459064 0.8092448 0.3909505
25.1066 9.421572 -13.24743 0.1363125 -0.5452302 -0.8271294 0.773763 0.4733073
33.79648 13.70747 -11.51379 0.7146028 -0.1959431 -0.6715275 0.7815755 0.4674479
36.50337 9.752762 -8.748713 0.8316483 -0.386673 -0.3985537 0.7809245 0.4632162
26.91014 5.571652 -9.380531 0.2025116 -0.7919632 -0.5760064 0.7718099 0.468099
29.11648 2.643446 -1.446058 -0.01883964 -0.9823388 -0.1861598 0.7688802 0.4583333
32.48233 5.589128 -4.358244 0.3919759 -0.7039194 -0.592328 0.7750651 0.4599609
34.65771 2.846566 -2.208504 0.2229909 -0.5858405 -0.7791445 0.7757161 0.4557292
34.4099 23.40682 -7.407469 0.7790145 0.4983622 -0.3804885 0.7910156 0.4690755
32.85392 16.42997 -14.02505 0.6303614 -0.03093533 -0.7756852 0.7825521 0.4697266
26.48351 20.16701 -16.31873 0.2029907 0.2408432 -0.9490992 0.7835286 0.4772135
27.31376 27.78581 -11.09935 0.2598489 0.7562622 -0.6004549 0.7910156 0.4785156
17.93641 19.34943 -15.54934 -0.332893 0.2754147 -0.9018476 0.7809245 0.4847005
16.8357 26.05441 -9.971991 -0.3973069 0.7108178 -0.5804183 0.7910156 0.4912109
19.9245 13.07296 -15.73781 -0.1168014 -0.3254087 -0.9383319 0.7753906 0.4798177
16.47074 3.825346 -7.155754 -0.2180004 -0.8358197 -0.5038664 0.7630208 0.4752604
8.439857 9.581782 -7.397463 -0.8500524 -0.4077727 -0.3333652 0.7643229 0.4860026
12.73202 10.19434 -11.96675 -0.4319046 -0.461724 -0.7747706 0.7688802 0.4833984
13.25495 3.051993 -1.951204 -0.4677953 -0.8830388 0.03755205 0.7584636 0.476237
8.534017 21.3436 -6.399057 -0.8439083 0.407902 -0.348475 0.7734375 0.4970703
10.20639 15.34423 -11.60234 -0.7228024 0.0579942 -0.688617 0.7721354 0.4889323
6.940521 14.17359 -0.6846695 -0.9901151 -0.1204297 0.07189414 0.7591146 0.4921875
22.27163 5.679445 6.515858 -0.01835175 -0.7799811 0.625534 0.7539062 0.4635417
11.55787 7.057503 5.141842 -0.5991956 -0.6316294 0.4919441 0.7503255 0.4785156
23.30852 2.048861 -2.71936 0.0467915 -0.9976205 -0.05063547 0.7643229 0.4654948
36.27224 20.19973 -4.787039 0.9072486 0.3388007 -0.2492271 0.7910156 0.4654948
37.14757 13.474 -4.726063 0.8783575 -0.06838284 -0.4730878 0.7854818 0.4609375
38.44107 9.61301 -2.207687 0.6762909 -0.1347315 -0.7242087 0.7841797 0.4570312
42.36346 1.708042 3.638034 0.7593958 -0.5160314 -0.3962696 0.7835286 0.4462891
36.02773 0.7497854 0.4464092 0.1563861 -0.8371758 -0.5240992 0.7760417 0.4518229
41.39872 4.855379 0.5994606 0.7294279 -0.2080195 -0.6516616 0.7835286 0.4508463
42.89713 8.659833 4.640015 0.9617158 0.2249618 -0.1565084 0.7910156 0.4501953
43.4582 4.485391 8.004232 0.9816846 -0.1358468 0.1335702 0.7910156 0.444987
40.47182 12.97353 1.117395 0.9244789 0.3082658 -0.2243008 0.7910156 0.4557292
39.09128 17.12607 -2.24975 0.9039754 0.3442145 -0.2536632 0.7910156 0.4609375
28.78189 3.770768 1.594902 -0.2961028 -0.898835 0.3231389 0.7626953 0.4580078
41.5731 0.1634264 5.502283 0.4463848 -0.8925587 0.06387193 0.7802734 0.4443359
42.3709 2.931774 9.223877 0.5318973 -0.6538707 0.5380877 0.7783203 0.4391276
32.54133 3.102735 8.840734 -0.4592204 -0.6983572 0.5490118 0.7682292 0.4443359
33.0699 -0.9305677 4.12903 -0.3413596 -0.9385054 0.05178155 0.7721354 0.4492188
28.71576 6.804617 5.774089 -0.3453384 -0.7360974 0.582153 0.7630208 0.4495443
24.5947 25.84741 7.219263 0.09773017 0.6923383 0.7149242 0.8076172 0.4733073
26.42051 21.28309 10.19599 0.1654945 0.3953927 0.9034801 0.8095703 0.468099
36.12776 21.80713 6.270971 0.8094476 0.3254361 0.4887596 0.8004557 0.4632162
33.43536 25.29684 2.926481 0.688848 0.6303241 0.3580225 0.7998047 0.4674479
28.79508 12.95881 11.40676 -0.04847578 -0.03174051 0.9983199 0.8125 0.4583333
34.31386 13.88223 11.54184 0.1848104 0.6388216 0.7468281 0.8059896 0.4557292
32.14169 16.52161 9.26354 0.3564679 0.4350333 0.8268475 0.8063151 0.4599609
26.1395 31.20781 -2.561993 0.1798459 0.9834055 -0.02385627 0.7981771 0.4772135
32.4836 28.31479 0.7833672 0.6055335 0.7656858 0.2169205 0.7991536 0.4697266
17.60235 30.07101 -2.190355 -0.353353 0.931702 -0.08410127 0.8004557 0.4847005
19.42993 28.94284 4.036142 -0.1532067 0.8423356 0.5167189 0.8059896 0.4798177
16.01411 18.47842 11.10201 -0.2535733 0.3052146 0.9179024 0.8183594 0.4752604
8.122544 19.76612 5.292094 -0.8694994 0.2161922 0.4441078 0.8170573 0.4860026
12.94023 13.15305 10.63459 -0.4878533 -0.2394798 0.8394336 0.8229167 0.476237
12.28738 24.46295 5.811961 -0.4664227 0.6454686 0.6048308 0.8125 0.4833984
9.900502 25.16205 0.6305408 -0.741784 0.6669583 0.07016567 0.8092448 0.4889323
22.93828 13.93073 12.08538 0.02085861 -0.1657 0.9859556 0.8170573 0.4654948
36.98472 18.7038 1.789978 0.8616349 0.4683097 0.1956309 0.7958984 0.4609375
38.25958 15.44067 5.0533 0.6504698 0.694062 0.3084916 0.7972005 0.4570312
42.16382 8.117849 11.6244 0.7341715 0.2933971 0.6122992 0.7981771 0.4462891
41.18422 11.74197 9.179918 0.7039801 0.6086757 0.3659589 0.7978516 0.4508463
35.71241 10.87016 13.05627 0.1198794 0.3338075 0.9349874 0.8053386 0.4518229
28.58079 10.22731 9.639496 -0.3079895 -0.5174118 0.7983906 0.8186849 0.4580078
41.39306 5.94435 12.70504 0.4262035 -0.2449031 0.8708462 0.8011068 0.4443359
32.82784 6.839742 13.81063 -0.3624322 -0.2622997 0.8943387 0.8092448 0.4492188
17.27009 14.81567 21.70506 -0.9469653 0.165614 -0.27537 0.7402344 0.3580729
24.64208 -1.035758 26.72828 -0.4712248 -0.8778567 0.08552696 0.7226562 0.3606771
26.06516 2.154403 29.67365 -0.06413577 -0.181464 0.981304 0.7246094 0.3652344
19.6454 17.08157 24.22703 -0.3794221 0.7840773 0.4911838 0.7412109 0.3623047
31.80154 15.4844 14.31663 0.2681932 0.255801 -0.9287832 0.7405599 0.3805338
32.55927 17.34057 17.7526 0.5826315 0.8123136 0.02621775 0.7408854 0.3766276
35.37119 2.490304 24.7745 0.8698028 -0.1152253 0.4797565 0.7246094 0.375651
34.26679 -0.4501705 22.25889 0.4633034 -0.8174264 -0.3422922 0.7229818 0.3792318
31.78056 16.34106 13.77394 0.5794207 -0.744388 -0.3319008 0.7688802 0.3483073
29.14889 22.66411 8.620433 0.5778129 -0.3477371 -0.7383842 0.7604167 0.3466797
28.84624 25.22345 11.46153 0.3849376 0.784138 0.4867758 0.7613932 0.343099
31.98792 18.73439 17.42019 0.5277696 0.1010648 0.8433535 0.7701823 0.3440755
28.46319 16.68451 15.68506 -0.6635153 -0.6291243 0.4049076 0.7695312 0.3398438
25.86457 22.78499 10.74682 -0.9330932 -0.2794673 0.2263519 0.7613932 0.3395182
25.68041 26.64503 4.072227 0.279832 -0.1753292 -0.9439034 0.7545573 0.336263
23.12449 26.81861 5.765419 -0.9918835 -0.09538537 -0.08407594 0.7545573 0.3391927
24.54191 29.42617 4.892972 -0.1670125 0.930329 -0.3264888 0.7529297 0.3417969
34.35361 12.59404 14.0798 -0.9886535 0.1412974 -0.05098286 0.7610677 0.3557943
35.8124 16.31822 8.122906 -0.9165182 0.2368807 -0.3223072 0.7682292 0.3557943
38.92741 14.78566 7.129987 0.5794781 -0.354016 -0.7340829 0.7682292 0.3597005
39.37922 10.21672 12.79877 0.6907412 -0.5668335 -0.4489726 0.7610677 0.3613281
37.77235 18.03556 6.42901 0.1058949 0.755879 -0.6460909 0.7708333 0.3570963
38.07233 13.45361 16.57155 0.3675843 0.6368977 0.6776748 0.7604167 0.3522135
35.73641 5.002939 22.10256 0.06662343 -0.04946167 0.9965515 0.7503255 0.3528646
36.57337 3.293869 19.49108 0.4496777 -0.8851134 -0.1198511 0.7506511 0.3492838
24.8778 16.43617 17.67683 -0.6042185 -0.7358555 0.3056745 0.7539062 0.3652344
22.14558 23.26871 12.3441 -0.9407529 -0.3218123 0.1068686 0.7626953 0.3658854
25.28051 23.41364 10.616 0.665201 -0.2466927 -0.7047342 0.7633464 0.3619792
28.40087 16.7392 15.8767 0.6842862 -0.6499478 -0.3306363 0.7542318 0.3613281
22.06311 27.31203 5.725346 0.3844282 -0.1434265 -0.9119451 0.7701823 0.3632812
19.92213 27.25231 6.87611 -0.9553168 -0.1988219 -0.2187228 0.7698568 0.3658854
20.88158 29.66111 6.348587 -0.2075444 0.9230247 -0.3239612 0.7714844 0.3681641
24.39714 25.45625 13.4079 0.1882571 0.8110175 0.5539043 0.7626953 0.3691406
28.00903 19.11636 20.03404 0.4128238 0.1319405 0.9012038 0.7532552 0.3701172
21.6248 16.30928 19.53604 -0.5683309 -0.7493362 0.3398459 0.7431641 0.3388672
24.19402 18.88342 21.64335 0.4357602 0.1750742 0.8828715 0.7389323 0.3391927
20.70022 24.77997 15.7162 0.2066513 0.7840082 0.5853429 0.7412109 0.3476562
18.50004 22.36601 14.4582 -0.9110178 -0.3996736 0.1015262 0.7444661 0.3473307
21.48867 22.4412 13.07301 0.6770931 -0.3047982 -0.6698081 0.7477214 0.3466797
24.3138 16.39186 17.89514 0.6470503 -0.6777839 -0.3491918 0.7464193 0.3385417
16.26272 26.33664 8.85128 -0.9030439 -0.2290235 -0.3634006 0.7460938 0.3541667
18.54395 26.55998 7.995343 0.4466939 -0.09650975 -0.8894663 0.7483724 0.3538412
17.32129 29.22331 8.849133 -0.1841553 0.9530315 -0.2404536 0.7434896 0.3561198
33.80927 4.033395 20.08238 -0.868365 -0.4875286 0.09087341 0.7506511 0.3561198
18.25986 15.62865 20.80702 -0.5683285 -0.7493382 0.3398457 0.7705078 0.3746745
20.64924 18.02261 22.76681 0.4357623 0.1750738 0.8828705 0.7714844 0.3785807
17.39999 23.50644 17.25457 0.2066497 0.7840076 0.5853444 0.7633464 0.3792318
15.35385 21.26142 16.08465 -0.9110181 -0.3996729 0.1015265 0.7630208 0.3763021
18.13325 21.33134 14.7964 0.6770911 -0.3048016 -0.6698086 0.7623698 0.3733724
20.76062 15.70546 19.28098 0.6470495 -0.6777839 -0.3491933 0.7698568 0.3717448
13.27312 24.9541 10.87022 -0.9030425 -0.2290255 -0.3634027 0.7561849 0.3772787
15.3947 25.1618 10.07421 0.4467028 -0.09651055 -0.8894618 0.7558594 0.375
14.25759 27.63872 10.8682 -0.1841617 0.9530283 -0.2404614 0.7555339 0.3802083
17.27009 14.81566 -29.07058 -0.9469655 0.1656138 0.2753699 0.7402344 0.3580729
19.6454 17.08157 -31.59254 -0.3794221 0.7840776 -0.4911835 0.7412109 0.3623047
26.06516 2.154402 -37.03917 -0.06413525 -0.1814634 -0.9813041 0.7246094 0.3652344
24.64208 -1.035765 -34.0938 -0.471225 -0.8778566 -0.08552757 0.7226562 0.3606771
31.80154 15.48439 -21.68214 0.2681931 0.2558008 0.9287834 0.7405599 0.3805338
34.26679 -0.4501801 -29.6244 0.4633033 -0.8174267 0.3422918 0.7229818 0.3792318
35.37119 2.490295 -32.14001 0.8698028 -0.1152253 -0.4797564 0.7246094 0.375651
32.55927 17.34056 -25.11811 0.5826315 0.8123134 -0.02621744 0.7408854 0.3766276
31.78056 16.34105 -21.13945 0.5794205 -0.7443883 0.3319005 0.7688802 0.3483073
31.98792 18.73438 -24.7857 0.5277696 0.1010653 -0.8433535 0.7701823 0.3440755
28.84624 25.22344 -18.82704 0.3849379 0.784138 -0.4867754 0.7613932 0.343099
29.14889 22.6641 -15.98594 0.5778127 -0.3477374 0.7383842 0.7604167 0.3466797
28.46319 16.6845 -23.05057 -0.6635151 -0.6291241 -0.4049081 0.7695312 0.3398438
25.86457 22.78498 -18.11234 -0.9330931 -0.2794672 -0.2263522 0.7613932 0.3395182
25.68041 26.64502 -11.43774 0.2798315 -0.1753295 0.9439036 0.7545573 0.336263
23.12449 26.81859 -13.13093 -0.9918836 -0.0953854 0.08407534 0.7545573 0.3391927
24.54191 29.42616 -12.25848 -0.1670123 0.9303287 0.3264897 0.7529297 0.3417969
34.35361 12.59403 -21.44531 -0.9886535 0.141298 0.05098251 0.7610677 0.3557943
39.37922 10.21671 -20.16428 0.6907411 -0.5668336 0.4489728 0.7610677 0.3613281
38.92741 14.78564 -14.4955 0.5794784 -0.3540167 0.7340825 0.7682292 0.3597005
35.8124 16.31821 -15.48841 -0.9165183 0.2368799 0.3223075 0.7682292 0.3557943
37.77235 18.03555 -13.79452 0.1058948 0.7558786 0.6460912 0.7708333 0.3570963
38.07233 13.4536 -23.93706 0.3675844 0.6368982 -0.6776743 0.7604167 0.3522135
36.57337 3.293859 -26.85659 0.4496771 -0.8851137 0.1198516 0.7506511 0.3492838
35.73641 5.00293 -29.46808 0.06662417 -0.0494621 -0.9965515 0.7503255 0.3528646
24.8778 16.43617 -25.04234 -0.6042187 -0.735855 -0.3056752 0.7539062 0.3652344
28.40087 16.73919 -23.24221 0.6842856 -0.6499484 0.3306361 0.7542318 0.3613281
25.28051 23.41362 -17.98151 0.6652012 -0.2466928 0.704734 0.7633464 0.3619792
22.14558 23.2687 -19.7096 -0.9407525 -0.3218136 -0.1068678 0.7626953 0.3658854
22.06311 27.31202 -13.09086 0.3844274 -0.1434264 0.9119454 0.7701823 0.3632812
19.92213 27.2523 -14.24162 -0.9553168 -0.1988219 0.2187226 0.7698568 0.3658854
24.39714 25.45624 -20.77341 0.1882568 0.8110176 -0.5539042 0.7626953 0.3691406
20.88158 29.6611 -13.7141 -0.207544 0.9230249 0.3239609 0.7714844 0.3681641
28.00903 19.11635 -27.39955 0.4128238 0.1319407 -0.9012037 0.7532552 0.3701172
21.6248 16.30927 -26.90155 -0.5683306 -0.7493364 -0.339846 0.7431641 0.3388672
18.50004 22.366 -21.82371 -0.9110179 -0.3996734 -0.1015263 0.7444661 0.3473307
20.70022 24.77996 -23.08171 0.2066511 0.7840085 -0.5853427 0.7412109 0.3476562
24.19402 18.88341 -29.00886 0.4357604 0.1750743 -0.8828714 0.7389323 0.3391927
24.3138 16.39186 -25.26066 0.6470507 -0.6777837 0.3491914 0.7464193 0.3385417
21.48867 22.44119 -20.43852 0.6770926 -0.3047989 0.6698084 0.7477214 0.3466797
16.26272 26.33663 -16.2168 -0.9030444 -0.2290238 0.3633991 0.7460938 0.3541667
18.54395 26.55997 -15.36086 0.4466935 -0.09651038 0.8894665 0.7483724 0.3538412
17.32129 29.2233 -16.21464 -0.1841556 0.9530311 0.2404547 0.7434896 0.3561198
33.80927 4.033386 -27.44789 -0.8683651 -0.4875283 -0.0908739 0.7506511 0.3561198
18.25986 15.62864 -28.17253 -0.5683287 -0.7493379 -0.3398458 0.7705078 0.3746745
15.35385 21.26141 -23.45016 -0.9110183 -0.3996724 -0.1015276 0.7630208 0.3763021
17.39999 23.50643 -24.62008 0.2066504 0.784008 -0.5853437 0.7633464 0.3792318
20.64924 18.0226 -30.13232 0.4357621 0.1750744 -0.8828706 0.7714844 0.3785807
20.76062 15.70545 -26.6465 0.6470497 -0.677784 0.3491928 0.7698568 0.3717448
18.13325 21.33134 -22.16191 0.6770908 -0.3048022 0.6698087 0.7623698 0.3733724
13.27312 24.95409 -18.23573 -0.9030427 -0.2290259 0.3634019 0.7561849 0.3772787
15.3947 25.16179 -17.43972 0.4467022 -0.09651083 0.8894621 0.7558594 0.375
14.25758 27.6387 -18.23371 -0.1841617 0.9530281 0.240462 0.7555339 0.3802083
10.89302 3.420893 24.17536 0.3047333 -0.9506894 -0.0576827 0.6845703 0.4544271
5.734466 3.188696 24.27341 -3.243866e-05 -0.9959075 -0.09037837 0.6748047 0.4563802
10.35321 1.660089 37.90502 0.517454 -0.5978364 0.6122361 0.7024739 0.4430338
5.734466 1.725746 38.8069 -1.423579e-05 -0.6799316 0.7332755 0.7086589 0.4427083
5.734466 16.2675 -0.1359215 2.237145e-07 0.2991512 -0.9542058 0.7259114 0.4970703
5.734466 6.999164 0.7009888 -1.297933e-05 -0.390836 -0.9204603 0.7399089 0.4921875
5.734466 0.2222767 18.39603 -1.777263e-05 -0.9704251 0.2414026 0.7454427 0.4635417
5.734466 -0.6863403 7.544954 -1.941216e-05 -0.9284898 -0.3713579 0.7483724 0.4785156
5.734466 -0.4619141 29.21469 -2.960787e-05 -0.9769661 -0.2133945 0.7311198 0.4443359
5.734466 1.725746 38.8069 -1.423579e-05 -0.6799316 0.7332755 0.7207031 0.4391276
5.734466 3.188696 24.27341 -3.243866e-05 -0.9959075 -0.09037837 0.7363281 0.4495443
0.5759119 3.421231 24.17546 -0.3047657 -0.9506792 -0.05768088 0.7324219 0.4544271
5.734466 3.188696 24.27341 -3.243866e-05 -0.9959075 -0.09037837 0.7421875 0.4563802
1.115723 1.660427 37.90512 -0.5174714 -0.5978164 0.6122409 0.7145182 0.4430338
-27.98995 4.135219 -2.527424 -0.02199301 -0.5172227 -0.8555683 0.7669271 0.4544271
-28.65997 9.067278 -3.905859 -0.02725549 -0.2304354 -0.9727059 0.7568359 0.4563802
-41.8108 3.200889 -2.445955 -0.6197302 -0.6897375 -0.3744284 0.7848307 0.4430338
-43.1826 7.620505 -3.303665 -0.8036313 -0.2174029 -0.553997 0.7910156 0.4427083
-3.02638 14.02802 5.323469 0.9772508 0.1433816 0.1562774 0.8079427 0.4970703
-4.936994 11.75641 -3.496498 0.8632138 -0.02355955 -0.5042886 0.8222656 0.4921875
-23.2032 8.804578 -7.579796 -0.3518991 -0.2494482 -0.9021876 0.8274739 0.4635417
-12.59429 9.408021 -9.958525 0.2580934 -0.1931526 -0.946615 0.8307292 0.4785156
-33.96641 7.824064 -6.741222 0.09643636 -0.2166294 -0.9714792 0.8131511 0.4443359
-43.1826 7.620505 -3.303665 -0.8036313 -0.2174029 -0.553997 0.8030599 0.4391276
-28.65997 9.067278 -3.905859 -0.02725549 -0.2304354 -0.9727059 0.8186849 0.4495443
-29.08208 14.12488 -4.863377 -0.08650853 0.07293017 -0.9935781 0.8144531 0.4544271
-28.65997 9.067278 -3.905859 -0.02725549 -0.2304354 -0.9727059 0.8245443 0.4563802
-42.78865 12.1452 -4.53743 -0.7292793 0.3123383 -0.6087663 0.796875 0.4430338
7.435335 24.62921 -9.902214 0.8992805 0.4192882 0.1244665 0.7669271 0.3958333
7.570914 20.27752 -7.123974 0.9513726 0.1501997 0.2689431 0.7568359 0.398112
3.659296 30.95716 1.827839 0.3133501 0.8490385 0.4253767 0.7848307 0.3847656
3.209446 27.39049 4.865435 0.3373624 0.4761461 0.8120785 0.7910156 0.3844401
5.127833 6.275898 -30.89068 0.09957439 -0.506305 -0.8565865 0.8079427 0.4388021
13.32281 8.462547 -27.06139 0.7208684 -0.3569509 -0.5940832 0.8222656 0.4339193
12.60684 18.08947 -10.75647 0.7976573 0.3011995 0.5225148 0.8274739 0.4052734
17.70334 13.1659 -19.02422 0.9997044 0.005121761 0.02376714 0.8307292 0.4199219
8.987893 23.306 -1.969971 0.982258 0.08872657 0.165218 0.8131511 0.3860677
3.209446 27.39049 4.865435 0.3373624 0.4761461 0.8120785 0.8030599 0.3808594
7.570914 20.27752 -7.123974 0.9513726 0.1501997 0.2689431 0.8186849 0.391276
7.356065 15.7438 -4.65951 0.8946081 -0.1056309 0.4341873 0.8144531 0.3958333
7.570914 20.27752 -7.123974 0.9513726 0.1501997 0.2689431 0.8245443 0.398112
3.588285 23.00155 6.521925 0.3054127 -0.04227168 0.9512814 0.796875 0.3847656
28.78189 3.770768 1.594902 -0.2961028 -0.898835 0.3231389 0.7669271 0.4544271
28.71576 6.804617 5.774089 -0.3453384 -0.7360974 0.582153 0.7568359 0.4563802
41.5731 0.1634264 5.502283 0.4463848 -0.8925587 0.06387193 0.7848307 0.4430338
42.3709 2.931774 9.223877 0.5318973 -0.6538707 0.5380877 0.7910156 0.4427083
8.534017 21.3436 -6.399057 -0.8439083 0.407902 -0.348475 0.8079427 0.4970703
6.940521 14.17359 -0.6846695 -0.9901151 -0.1204297 0.07189414 0.8222656 0.4921875
22.27163 5.679445 6.515858 -0.01835175 -0.7799811 0.625534 0.8274739 0.4635417
11.55787 7.057503 5.141842 -0.5991956 -0.6316294 0.4919441 0.8307292 0.4785156
32.54133 3.102735 8.840734 -0.4592204 -0.6983572 0.5490118 0.8131511 0.4443359
42.3709 2.931774 9.223877 0.5318973 -0.6538707 0.5380877 0.8030599 0.4391276
28.71576 6.804617 5.774089 -0.3453384 -0.7360974 0.582153 0.8186849 0.4495443
28.58079 10.22731 9.639496 -0.3079895 -0.5174118 0.7983906 0.8144531 0.4544271
28.71576 6.804617 5.774089 -0.3453384 -0.7360974 0.582153 0.8245443 0.4563802
41.39306 5.94435 12.70504 0.4262035 -0.2449031 0.8708462 0.796875 0.4430338
31.80154 15.4844 14.31663 0.2681932 0.255801 -0.9287832 0.7347005 0.343099
34.26679 -0.4501705 22.25889 0.4633034 -0.8174264 -0.3422922 0.7190755 0.3509115
24.64208 -1.035758 26.72828 -0.4712248 -0.8778567 0.08552696 0.7200521 0.3652344
34.26679 -0.4501705 22.25889 0.4633034 -0.8174264 -0.3422922 0.7207031 0.375651
31.80154 15.4844 14.31663 0.2681932 0.255801 -0.9287832 0.7447917 0.3776042
17.27009 14.81567 21.70506 -0.9469653 0.165614 -0.27537 0.7451172 0.3613281
29.14889 22.66411 8.620433 0.5778129 -0.3477371 -0.7383842 0.7613932 0.335612
31.78056 16.34106 13.77394 0.5794207 -0.744388 -0.3319008 0.7698568 0.3359375
25.68041 26.64503 4.072227 0.279832 -0.1753292 -0.9439034 0.7535807 0.3447266
25.68041 26.64503 4.072227 0.279832 -0.1753292 -0.9439034 0.7509766 0.3388672
37.77235 18.03556 6.42901 0.1058949 0.755879 -0.6460909 0.7708333 0.3535156
39.37922 10.21672 12.79877 0.6907412 -0.5668335 -0.4489726 0.7613932 0.3476562
38.92741 14.78566 7.129987 0.5794781 -0.354016 -0.7340829 0.7688802 0.3499349
25.28051 23.41364 10.616 0.665201 -0.2466927 -0.7047342 0.7636719 0.3723958
22.06311 27.31203 5.725346 0.3844282 -0.1434265 -0.9119451 0.7705078 0.3707682
20.88158 29.66111 6.348587 -0.2075444 0.9230247 -0.3239612 0.7724609 0.3649088
17.32129 29.22331 8.849133 -0.1841553 0.9530315 -0.2404536 0.7477214 0.3567708
24.3138 16.39186 17.89514 0.6470503 -0.6777839 -0.3491918 0.7350261 0.3411458
21.48867 22.4412 13.07301 0.6770931 -0.3047982 -0.6698081 0.7379557 0.3489583
18.54395 26.55998 7.995343 0.4466939 -0.09650975 -0.8894663 0.7402344 0.3557943
28.40087 16.7392 15.8767 0.6842862 -0.6499478 -0.3306363 0.7548828 0.3746745
36.57337 3.293869 19.49108 0.4496777 -0.8851134 -0.1198511 0.7506511 0.3590495
24.19402 18.88342 21.64335 0.4357602 0.1750742 0.8828715 0.7441406 0.3349609
35.73641 5.002939 22.10256 0.06662343 -0.04946167 0.9965515 0.7480469 0.3574219
14.25759 27.63872 10.8682 -0.1841617 0.9530283 -0.2404614 0.7535807 0.3766276
20.76062 15.70546 19.28098 0.6470495 -0.6777839 -0.3491933 0.7711589 0.382487
18.13325 21.33134 14.7964 0.6770911 -0.3048016 -0.6698086 0.7636719 0.382487
15.3947 25.1618 10.07421 0.4467028 -0.09651055 -0.8894618 0.7568359 0.382487
20.64924 18.02261 22.76681 0.4357623 0.1750738 0.8828705 0.773763 0.3727213
28.00903 19.11636 20.03404 0.4128238 0.1319405 0.9012038 0.7496745 0.3626302
31.98792 18.73439 17.42019 0.5277696 0.1010648 0.8433535 0.773763 0.3378906
34.26679 -0.4501801 -29.6244 0.4633033 -0.8174267 0.3422918 0.7190755 0.3509115
31.80154 15.48439 -21.68214 0.2681931 0.2558008 0.9287834 0.7347005 0.343099
34.26679 -0.4501801 -29.6244 0.4633033 -0.8174267 0.3422918 0.7207031 0.375651
24.64208 -1.035765 -34.0938 -0.471225 -0.8778566 -0.08552757 0.7200521 0.3652344
17.27009 14.81566 -29.07058 -0.9469655 0.1656138 0.2753699 0.7451172 0.3613281
31.80154 15.48439 -21.68214 0.2681931 0.2558008 0.9287834 0.7447917 0.3776042
31.78056 16.34105 -21.13945 0.5794205 -0.7443883 0.3319005 0.7698568 0.3359375
29.14889 22.6641 -15.98594 0.5778127 -0.3477374 0.7383842 0.7613932 0.335612
25.68041 26.64502 -11.43774 0.2798315 -0.1753295 0.9439036 0.7535807 0.3447266
25.68041 26.64502 -11.43774 0.2798315 -0.1753295 0.9439036 0.7509766 0.3388672
37.77235 18.03555 -13.79452 0.1058948 0.7558786 0.6460912 0.7708333 0.3535156
38.92741 14.78564 -14.4955 0.5794784 -0.3540167 0.7340825 0.7688802 0.3499349
39.37922 10.21671 -20.16428 0.6907411 -0.5668336 0.4489728 0.7613932 0.3476562
25.28051 23.41362 -17.98151 0.6652012 -0.2466928 0.704734 0.7636719 0.3723958
22.06311 27.31202 -13.09086 0.3844274 -0.1434264 0.9119454 0.7705078 0.3707682
20.88158 29.6611 -13.7141 -0.207544 0.9230249 0.3239609 0.7724609 0.3649088
17.32129 29.2233 -16.21464 -0.1841556 0.9530311 0.2404547 0.7477214 0.3567708
21.48867 22.44119 -20.43852 0.6770926 -0.3047989 0.6698084 0.7379557 0.3489583
24.3138 16.39186 -25.26066 0.6470507 -0.6777837 0.3491914 0.7350261 0.3411458
18.54395 26.55997 -15.36086 0.4466935 -0.09651038 0.8894665 0.7402344 0.3557943
28.40087 16.73919 -23.24221 0.6842856 -0.6499484 0.3306361 0.7548828 0.3746745
36.57337 3.293859 -26.85659 0.4496771 -0.8851137 0.1198516 0.7506511 0.3590495
24.19402 18.88341 -29.00886 0.4357604 0.1750743 -0.8828714 0.7441406 0.3349609
35.73641 5.00293 -29.46808 0.06662417 -0.0494621 -0.9965515 0.7480469 0.3574219
14.25758 27.6387 -18.23371 -0.1841617 0.9530281 0.240462 0.7535807 0.3766276
18.13325 21.33134 -22.16191 0.6770908 -0.3048022 0.6698087 0.7636719 0.382487
20.76062 15.70545 -26.6465 0.6470497 -0.677784 0.3491928 0.7711589 0.382487
15.3947 25.16179 -17.43972 0.4467022 -0.09651083 0.8894621 0.7568359 0.382487
20.64924 18.0226 -30.13232 0.4357621 0.1750744 -0.8828706 0.773763 0.3727213
28.00903 19.11635 -27.39955 0.4128238 0.1319407 -0.9012037 0.7496745 0.3626302
31.98792 18.73438 -24.7857 0.5277696 0.1010653 -0.8433535 0.773763 0.3378906
3 0 1 2 
3 2 3 0 
3 4 5 6 
3 7 8 9 
3 9 10 7 
3 10 9 11 
3 11 12 10 
3 9 8 0 
3 0 13 9 
3 0 8 1 
3 14 0 3 
3 15 16 14 
3 14 17 15 
3 18 12 11 
3 11 19 18 
3 16 19 11 
3 11 13 16 
3 11 9 13 
3 20 18 19 
3 19 15 20 
3 21 22 17 
3 17 23 21 
3 15 17 22 
3 22 20 15 
3 13 0 14 
3 14 16 13 
3 19 16 15 
3 14 3 23 
3 3 5 23 
3 8 7 24 
3 24 1 8 
3 5 3 2 
3 25 26 5 
3 5 2 25 
3 27 28 29 
3 27 29 30 
3 30 31 27 
3 6 28 4 
3 29 26 32 
3 32 30 29 
3 26 29 6 
3 6 5 26 
3 29 28 6 
3 23 17 14 
3 33 32 25 
3 24 25 1 
3 2 1 25 
3 23 34 21 
3 35 36 37 
3 37 38 35 
3 39 366 38 
3 38 37 39 
3 21 34 367 
3 27 35 38 
3 38 28 27 
3 28 38 366 
3 366 4 28 
3 368 27 31 
3 31 369 368 
3 25 24 33 
3 32 26 25 
3 4 23 5 
3 23 4 34 
3 40 41 42 
3 42 43 40 
3 44 45 46 
3 7 10 47 
3 47 48 7 
3 10 12 49 
3 49 47 10 
3 47 50 40 
3 40 48 47 
3 40 43 48 
3 51 41 40 
3 52 53 51 
3 51 54 52 
3 370 55 49 
3 49 12 370 
3 54 50 49 
3 49 55 54 
3 49 50 47 
3 371 52 55 
3 55 370 371 
3 372 56 53 
3 53 373 372 
3 52 371 373 
3 373 53 52 
3 50 54 51 
3 51 40 50 
3 55 52 54 
3 51 56 41 
3 41 56 46 
3 48 43 24 
3 24 7 48 
3 46 42 41 
3 57 46 58 
3 46 57 42 
3 59 60 61 
3 59 31 30 
3 30 60 59 
3 45 44 61 
3 60 30 32 
3 32 58 60 
3 58 46 45 
3 45 60 58 
3 60 45 61 
3 56 51 53 
3 33 57 32 
3 24 43 57 
3 42 57 43 
3 56 372 62 
3 63 64 374 
3 374 375 63 
3 376 374 64 
3 64 377 376 
3 372 378 62 
3 59 61 64 
3 64 63 59 
3 61 44 377 
3 377 64 61 
3 379 369 31 
3 31 59 379 
3 57 33 24 
3 32 57 58 
3 44 46 56 
3 56 62 44 
3 65 66 67 
3 67 68 65 
3 69 70 71 
3 72 73 74 
3 74 75 72 
3 75 74 76 
3 76 77 75 
3 74 73 65 
3 65 78 74 
3 65 73 66 
3 79 65 68 
3 80 81 79 
3 79 82 80 
3 83 77 76 
3 76 84 83 
3 81 84 76 
3 76 78 81 
3 76 74 78 
3 85 83 84 
3 84 80 85 
3 86 87 82 
3 82 88 86 
3 80 82 87 
3 87 85 80 
3 78 65 79 
3 79 81 78 
3 84 81 80 
3 79 68 88 
3 68 70 88 
3 73 72 89 
3 89 66 73 
3 70 68 67 
3 90 91 70 
3 70 67 90 
3 92 93 94 
3 92 94 95 
3 95 96 92 
3 71 93 69 
3 94 91 97 
3 97 95 94 
3 91 94 71 
3 71 70 91 
3 94 93 71 
3 88 82 79 
3 98 97 90 
3 89 90 66 
3 67 66 90 
3 88 99 86 
3 100 101 102 
3 102 103 100 
3 104 380 103 
3 103 102 104 
3 86 99 381 
3 92 100 103 
3 103 93 92 
3 93 103 380 
3 380 69 93 
3 382 92 96 
3 96 383 382 
3 90 89 98 
3 97 91 90 
3 69 88 70 
3 88 69 99 
3 105 106 107 
3 107 108 105 
3 109 110 111 
3 72 75 112 
3 112 113 72 
3 75 77 114 
3 114 112 75 
3 112 115 105 
3 105 113 112 
3 105 108 113 
3 116 106 105 
3 117 118 116 
3 116 119 117 
3 384 120 114 
3 114 77 384 
3 119 115 114 
3 114 120 119 
3 114 115 112 
3 385 117 120 
3 120 384 385 
3 386 121 118 
3 118 387 386 
3 117 385 387 
3 387 118 117 
3 115 119 116 
3 116 105 115 
3 120 117 119 
3 116 121 106 
3 106 121 111 
3 113 108 89 
3 89 72 113 
3 111 107 106 
3 122 111 123 
3 111 122 107 
3 124 125 126 
3 124 96 95 
3 95 125 124 
3 110 109 126 
3 125 95 97 
3 97 123 125 
3 123 111 110 
3 110 125 123 
3 125 110 126 
3 121 116 118 
3 98 122 97 
3 89 108 122 
3 107 122 108 
3 121 386 127 
3 128 129 388 
3 388 389 128 
3 390 388 129 
3 129 391 390 
3 386 392 127 
3 124 126 129 
3 129 128 124 
3 126 109 391 
3 391 129 126 
3 393 383 96 
3 96 124 393 
3 122 98 89 
3 97 122 123 
3 109 111 121 
3 121 127 109 
3 130 131 132 
3 132 133 130 
3 134 135 136 
3 137 138 139 
3 139 140 137 
3 140 139 141 
3 141 142 140 
3 139 138 130 
3 130 143 139 
3 130 138 131 
3 144 130 133 
3 145 146 144 
3 144 147 145 
3 148 142 141 
3 141 149 148 
3 146 149 141 
3 141 143 146 
3 141 139 143 
3 150 148 149 
3 149 145 150 
3 151 152 147 
3 147 153 151 
3 145 147 152 
3 152 150 145 
3 143 130 144 
3 144 146 143 
3 149 146 145 
3 144 133 153 
3 133 135 153 
3 138 137 154 
3 154 131 138 
3 135 133 132 
3 155 156 135 
3 135 132 155 
3 157 158 159 
3 157 159 160 
3 160 161 157 
3 136 158 134 
3 159 156 162 
3 162 160 159 
3 156 159 136 
3 136 135 156 
3 159 158 136 
3 153 147 144 
3 163 162 155 
3 154 155 131 
3 132 131 155 
3 153 164 151 
3 165 166 167 
3 167 168 165 
3 169 394 168 
3 168 167 169 
3 151 164 395 
3 157 165 168 
3 168 158 157 
3 158 168 394 
3 394 134 158 
3 396 157 161 
3 161 397 396 
3 155 154 163 
3 162 156 155 
3 134 153 135 
3 153 134 164 
3 170 171 172 
3 172 173 170 
3 174 175 176 
3 137 140 177 
3 177 178 137 
3 140 142 179 
3 179 177 140 
3 177 180 170 
3 170 178 177 
3 170 173 178 
3 181 171 170 
3 182 183 181 
3 181 184 182 
3 398 185 179 
3 179 142 398 
3 184 180 179 
3 179 185 184 
3 179 180 177 
3 399 182 185 
3 185 398 399 
3 400 186 183 
3 183 401 400 
3 182 399 401 
3 401 183 182 
3 180 184 181 
3 181 170 180 
3 185 182 184 
3 181 186 171 
3 171 186 176 
3 178 173 154 
3 154 137 178 
3 176 172 171 
3 187 176 188 
3 176 187 172 
3 189 190 191 
3 189 161 160 
3 160 190 189 
3 175 174 191 
3 190 160 162 
3 162 188 190 
3 188 176 175 
3 175 190 188 
3 190 175 191 
3 186 181 183 
3 163 187 162 
3 154 173 187 
3 172 187 173 
3 186 400 192 
3 193 194 402 
3 402 403 193 
3 404 402 194 
3 194 405 404 
3 400 406 192 
3 189 191 194 
3 194 193 189 
3 191 174 405 
3 405 194 191 
3 407 397 161 
3 161 189 407 
3 187 163 154 
3 162 187 188 
3 174 176 186 
3 186 192 174 
3 195 196 197 
3 197 198 195 
3 199 200 201 
3 202 203 204 
3 204 205 202 
3 205 204 206 
3 206 207 205 
3 204 203 195 
3 195 208 204 
3 195 203 196 
3 209 195 198 
3 210 211 209 
3 209 212 210 
3 213 207 206 
3 206 214 213 
3 211 214 206 
3 206 208 211 
3 206 204 208 
3 215 213 214 
3 214 210 215 
3 216 217 212 
3 212 218 216 
3 210 212 217 
3 217 215 210 
3 208 195 209 
3 209 211 208 
3 214 211 210 
3 209 198 218 
3 198 200 218 
3 203 202 219 
3 219 196 203 
3 200 198 197 
3 220 221 200 
3 200 197 220 
3 222 223 224 
3 222 224 225 
3 225 226 222 
3 201 223 199 
3 224 221 227 
3 227 225 224 
3 221 224 201 
3 201 200 221 
3 224 223 201 
3 218 212 209 
3 228 227 220 
3 219 220 196 
3 197 196 220 
3 218 229 216 
3 230 231 232 
3 232 233 230 
3 234 408 233 
3 233 232 234 
3 216 229 409 
3 222 230 233 
3 233 223 222 
3 223 233 408 
3 408 199 223 
3 410 222 226 
3 226 411 410 
3 220 219 228 
3 227 221 220 
3 199 218 200 
3 218 199 229 
3 235 236 237 
3 237 238 235 
3 239 240 241 
3 202 205 242 
3 242 243 202 
3 205 207 244 
3 244 242 205 
3 242 245 235 
3 235 243 242 
3 235 238 243 
3 246 236 235 
3 247 248 246 
3 246 249 247 
3 412 250 244 
3 244 207 412 
3 249 245 244 
3 244 250 249 
3 244 245 242 
3 413 247 250 
3 250 412 413 
3 414 251 248 
3 248 415 414 
3 247 413 415 
3 415 248 247 
3 245 249 246 
3 246 235 245 
3 250 247 249 
3 246 251 236 
3 236 251 241 
3 243 238 219 
3 219 202 243 
3 241 237 236 
3 252 241 253 
3 241 252 237 
3 254 255 256 
3 254 226 225 
3 225 255 254 
3 240 239 256 
3 255 225 227 
3 227 253 255 
3 253 241 240 
3 240 255 253 
3 255 240 256 
3 251 246 248 
3 228 252 227 
3 219 238 252 
3 237 252 238 
3 251 414 257 
3 258 259 416 
3 416 417 258 
3 418 416 259 
3 259 419 418 
3 414 420 257 
3 254 256 259 
3 259 258 254 
3 256 239 419 
3 419 259 256 
3 421 411 226 
3 226 254 421 
3 252 228 219 
3 227 252 253 
3 239 241 251 
3 251 257 239 
3 260 261 262 
3 262 263 260 
3 264 265 266 
3 266 267 264 
3 263 262 266 
3 266 265 263 
3 260 422 423 
3 423 261 260 
3 266 262 424 
3 424 425 266 
3 263 265 426 
3 426 427 263 
3 268 269 270 
3 270 271 268 
3 272 273 428 
3 428 429 272 
3 274 428 273 
3 273 275 274 
3 269 430 276 
3 276 270 269 
3 276 431 275 
3 270 273 272 
3 272 271 270 
3 275 273 270 
3 270 276 275 
3 277 278 279 
3 279 280 277 
3 279 278 281 
3 282 432 278 
3 278 277 282 
3 282 433 434 
3 434 432 282 
3 433 282 283 
3 283 284 433 
3 285 286 287 
3 287 288 285 
3 289 287 286 
3 286 290 289 
3 435 436 291 
3 291 292 435 
3 437 289 290 
3 292 286 285 
3 285 293 292 
3 290 286 292 
3 292 291 290 
3 294 295 296 
3 296 297 294 
3 294 297 298 
3 298 299 294 
3 300 301 298 
3 298 297 300 
3 297 296 302 
3 302 300 297 
3 301 300 438 
3 296 295 439 
3 439 440 296 
3 441 302 296 
3 296 440 441 
3 293 442 435 
3 435 292 293 
3 443 303 277 
3 277 280 443 
3 282 277 303 
3 303 283 282 
3 294 299 444 
3 445 303 443 
3 304 305 306 
3 306 307 304 
3 304 307 308 
3 308 309 304 
3 310 311 308 
3 308 307 310 
3 307 306 312 
3 312 310 307 
3 311 310 446 
3 306 305 447 
3 447 448 306 
3 449 312 306 
3 306 448 449 
3 304 309 450 
3 288 451 285 
3 452 272 429 
3 313 314 315 
3 315 316 313 
3 317 318 319 
3 319 320 317 
3 314 320 319 
3 319 315 314 
3 313 316 453 
3 453 454 313 
3 319 455 456 
3 456 315 319 
3 314 457 458 
3 458 320 314 
3 321 322 323 
3 323 324 321 
3 325 459 460 
3 460 326 325 
3 327 328 326 
3 326 460 327 
3 324 323 329 
3 329 461 324 
3 329 328 462 
3 323 322 325 
3 325 326 323 
3 328 329 323 
3 323 326 328 
3 330 331 332 
3 332 333 330 
3 332 334 333 
3 335 330 333 
3 333 463 335 
3 335 463 464 
3 464 465 335 
3 465 336 337 
3 337 335 465 
3 338 339 340 
3 340 341 338 
3 342 343 341 
3 341 340 342 
3 466 344 345 
3 345 467 466 
3 468 343 342 
3 344 346 338 
3 338 341 344 
3 343 345 344 
3 344 341 343 
3 347 348 349 
3 349 350 347 
3 347 351 352 
3 352 348 347 
3 353 348 352 
3 352 354 353 
3 348 353 355 
3 355 349 348 
3 354 469 353 
3 349 470 471 
3 471 350 349 
3 472 470 349 
3 349 355 472 
3 346 344 466 
3 466 473 346 
3 474 331 330 
3 330 356 474 
3 335 337 356 
3 356 330 335 
3 347 475 351 
3 476 474 356 
3 357 358 359 
3 359 360 357 
3 357 361 362 
3 362 358 357 
3 363 358 362 
3 362 364 363 
3 358 363 365 
3 365 359 358 
3 364 477 363 
3 359 478 479 
3 479 360 359 
3 480 478 359 
3 359 365 480 
3 357 481 361 
3 339 338 482 
3 483 459 325 
