ply
format ascii 1.0
comment VCGLIB generated
comment TextureFile skull_d.png
element vertex 187
property float x
property float y
property float z
property float nx
property float ny
property float nz
property float texture_u
property float texture_v
element face 318
property list uchar int vertex_indices
end_header
7.479376 -5.3 -2 0.7993392 -0.5184976 -0.3036727 0.7476126 0.4366298
7.59 -3.6 -5.4 0.6937988 -0.7005279 -0.1670447 0.8023167 0.4809827
9.150312 -0.8500003 -2.5 0.9819978 -0.1882014 -0.01614801 0.7458165 0.5187667
8.166836 -1.57774 -9.480416 0.8676765 -0.4005299 -0.2944713 0.8470882 0.5407594
-9.150312 -0.8500003 -2.5 -0.9819978 -0.1882014 -0.01614801 0.2545381 0.5154803
-7.59 -3.6 -5.4 -0.6937988 -0.7005279 -0.1670447 0.1985477 0.4769399
-7.479376 -5.3 -2 -0.7993392 -0.5184976 -0.3036726 0.2538391 0.4333243
-8.166836 -1.57774 -9.480416 -0.8676765 -0.4005299 -0.2944713 0.1529795 0.5361103
8.641293 -3 4.1 0.9100155 -0.2834666 0.3025202 0.6533624 0.478229
6.037501 -5.6 3.75 0.8207 -0.4863492 0.29986 0.6429037 0.4255322
-8.641293 -3 4.1 -0.9100155 -0.2834666 0.3025202 0.3475257 0.4761803
-6.037501 -5.6 3.75 -0.8207 -0.4863492 0.29986 0.358689 0.4236282
8.617618 8.27792 -9.156914 0.8866516 0.3657852 -0.2829312 0.8043528 0.6799219
6 10.525 -10.475 0.4986442 0.7303944 -0.4667743 0.8216553 0.7277172
6.961934 10.575 -7.25 0.6538093 0.750671 -0.09500742 0.7728041 0.7177413
6.410313 8 -12.25 0.5836883 0.3669539 -0.7243292 0.8557556 0.695065
-6.961934 10.575 -7.25 -0.6538093 0.750671 -0.09500741 0.2248874 0.7140708
-6 10.525 -10.475 -0.4986442 0.7303944 -0.4667743 0.175907 0.7233913
-8.617618 8.27792 -9.156914 -0.8866516 0.3657852 -0.2829312 0.1938471 0.6758313
-6.410313 8 -12.25 -0.5836883 0.3669539 -0.7243292 0.142247 0.6902855
9.3125 3.6 -2.8 0.99684 0.05515297 0.05716849 0.7345555 0.5909944
8.614062 8.25 -2.8 0.9270374 0.3672065 0.07590149 0.7188267 0.6637705
9.020119 2.675045 -9.835545 0.9440387 -0.03380211 -0.3280982 0.8329021 0.602996
-8.614062 8.25 -2.8 -0.9270374 0.3672065 0.07590149 0.2795822 0.6608276
-9.3125 3.6 -2.8 -0.99684 0.05515297 0.05716849 0.2648298 0.5878479
-9.020119 2.675045 -9.835545 -0.9440387 -0.03380211 -0.3280982 0.1663309 0.5985294
4.964688 -5.3 -2.2 -0.2012761 -0.7481852 -0.6322238 0.7854401 0.4103142
6.927707 -7.65 -2.41 0.7343714 -0.1624884 -0.6590115 0.7379428 0.3950169
-4.964688 -5.3 -2.2 0.2012761 -0.7481852 -0.6322237 0.2163675 0.4065024
-6.927707 -7.65 -2.41 -0.7343714 -0.1624884 -0.6590115 0.2640648 0.3918431
6.356872 -9.4 -2.295 0.760608 -0.2818738 -0.584827 0.7270203 0.3646906
5.776038 -11.15 -2.1 0.5919434 -0.6261935 -0.5074297 0.7172751 0.3376347
3.938019 -11.11 -2.42 -0.5122831 -0.4649096 -0.7220976 0.7328814 0.312981
-5.776038 -11.15 -2.1 -0.5919434 -0.6261934 -0.5074297 0.2855011 0.3347422
-6.356872 -9.4 -2.295 -0.760608 -0.2818738 -0.584827 0.2753939 0.3616655
-3.938019 -11.11 -2.42 0.5122832 -0.4649096 -0.7220976 0.2702269 0.3098814
-1.65 1.7 8.986629 -0.4647613 -0.3297497 0.8217433 0.4767115 0.5481374
-3.546137 -0.2459257 5.4217 -0.4776314 0.04800401 0.8772479 0.4315582 0.5146384
-1.55 -1.65 8.458489 -0.567014 0.173875 0.8051476 0.4767954 0.4895827
1.55 -1.65 8.458489 0.567014 0.173875 0.8051476 0.5239247 0.4898984
3.546137 -0.2459257 5.4217 0.4776314 0.048004 0.8772479 0.5688228 0.5155561
1.65 1.7 8.986629 0.4647613 -0.3297497 0.8217433 0.5232249 0.5484484
0 2.243053 8.898016 0 0.05062396 0.9987178 0.4998971 0.558895
0.9531813 2.906884 9.631559 -0.1360947 0.1573597 0.9781187 0.5145041 0.5696579
0 4.199714 8.599186 -9.581441e-09 0.4450271 0.8955171 0.4996451 0.5965739
1.456323 4.207475 8.641736 0.08824701 0.5303905 0.8431479 0.5197558 0.5970118
-0.9531813 2.906884 9.631559 0.1360947 0.1573597 0.9781187 0.4851475 0.5694613
-1.456323 4.207475 8.641736 -0.08824701 0.5303905 0.8431479 0.47953 0.5967423
-3.039687 -11.475 7.225 -0.737592 -0.1409522 0.6603715 0.4448511 0.3359449
-3.80979 -13.25 4.875 -0.6448859 -0.7554311 0.1159576 0.4101312 0.3037735
-2.354375 -13.73 7.55 -0.5229764 -0.6851388 0.5070311 0.4610471 0.3037087
3.80979 -13.25 4.875 0.644886 -0.755431 0.1159576 0.593073 0.3049997
5.265069 -10.49559 2.717802 0.9349463 -0.2364787 0.2644868 0.6434898 0.3474407
3.039687 -11.475 7.225 0.737592 -0.1409522 0.6603715 0.557925 0.336703
-5.265069 -10.49559 2.717802 -0.9349463 -0.2364787 0.2644868 0.359149 0.3455355
2.354375 -13.73 7.55 0.5229764 -0.6851387 0.5070312 0.542163 0.3042529
-4.765206 -12.35 2.2 -0.670623 -0.7405434 -0.04313325 0.3572217 0.3137819
4.765206 -12.35 2.2 0.670623 -0.7405434 -0.04313325 0.6458427 0.3157157
3.745625 -5.900001 7.95 0.6294255 -0.2530517 0.7347029 0.5655754 0.4202324
7.55 -3.02 6 0.7529992 -0.1316526 0.6447169 0.6225695 0.4772585
-3.745625 -5.900001 7.95 -0.6294255 -0.2530517 0.7347029 0.4360812 0.4193639
-7.55 -3.02 6 -0.7529992 -0.1316527 0.6447169 0.3783288 0.4756224
-7.93116 7.066446 3.017566 -0.8765536 0.313153 0.3654985 0.356444 0.6335518
-6.990625 2.9 6.569999 -0.7242783 0.005983653 0.6894819 0.3949013 0.5674969
-5.077188 4.6 7.25 -0.4988485 0.4284349 0.7533882 0.4236178 0.5987663
-8.363264 1.460647 3.902639 -0.9562468 0.06589522 0.2850436 0.3515482 0.5453866
7.93116 7.066446 3.017566 0.8765536 0.313153 0.3654985 0.6423373 0.6354668
6.990625 2.9 6.569999 0.7242783 0.005983653 0.6894819 0.6047683 0.5689023
8.363264 1.460647 3.902639 0.9562468 0.06589522 0.2850436 0.6484136 0.547375
5.077188 4.6 7.25 0.4988485 0.4284349 0.7533882 0.5756357 0.5997847
5.028438 -4.7875 -10.0875 0.5611324 -0.7819867 -0.2713435 0.8902823 0.4937596
6.15 -2.4 -12.4 0.6489827 -0.4686804 -0.5992998 0.899916 0.5454361
-5.028438 -4.7875 -10.0875 -0.5611324 -0.7819867 -0.2713435 0.1104178 0.4885361
-6.15 -2.4 -12.4 -0.6489827 -0.4686804 -0.5992998 0.1000936 0.5400784
-4.105339 -1.970413 8.15967 -0.3525089 0.5187534 0.7788661 0.4385273 0.4774472
-6.2 -1.55 6.21085 -0.3817374 0.5210592 0.7633964 0.3898684 0.4923858
4.105339 -1.970413 8.15967 0.3525089 0.5187534 0.7788661 0.5623519 0.4782772
6.2 -1.55 6.21085 0.3817373 0.5210592 0.7633963 0.6108067 0.493865
-3.768779 2.066758 8.673739 -0.368941 -0.5324914 0.7617975 0.4469842 0.5575663
-6.074757 1.714005 6.560849 -0.4738849 -0.5485952 0.6888226 0.4048154 0.5489061
3.768779 2.066758 8.673739 0.368941 -0.5324914 0.7617975 0.5528232 0.5582742
6.074757 1.714005 6.560849 0.4738849 -0.5485952 0.6888226 0.5951039 0.5501804
3.971903 3.253442 9.00078 0.3954819 0.1916432 0.8982577 0.5523221 0.5742415
-3.971903 3.253442 9.00078 -0.3954819 0.1916432 0.8982577 0.4472714 0.5735381
4.210728 -3.155522 8.397638 0.4322627 0.04284637 0.9007292 0.5630248 0.4624759
-4.210728 -3.155522 8.397638 -0.4322627 0.04284637 0.9007292 0.4380659 0.4616379
-5.638065 8.625 5.15 -0.5895088 0.5210873 0.6172094 0.4040314 0.6591187
-6.727742 10.025 1.3 -0.6946198 0.660912 0.2840753 0.3472135 0.686579
5.638065 8.625 5.15 0.5895088 0.5210873 0.6172094 0.5944123 0.6603945
6.727742 10.025 1.3 0.6946198 0.660912 0.2840753 0.6508564 0.6886133
3.023984 -4.695931 -5.084708 0.1309614 -0.9912763 -0.01484956 0.8445249 0.4224908
-3.023984 -4.695931 -5.084708 -0.1309614 -0.9912763 -0.01484956 0.157124 0.4178883
4.157248 12.63069 -2.8 0.368791 0.9280167 0.05270824 0.6969365 0.7589145
6.867418 10.775 -2.8 0.6989431 0.7121472 0.06576519 0.7079898 0.7098456
3.099639 12.57373 -7.102293 0.2785278 0.9439447 -0.1771744 0.7685178 0.7828168
-4.157248 12.63069 -2.8 -0.368791 0.9280167 0.05270824 0.3001958 0.756256
-3.099639 12.57373 -7.102293 -0.2785278 0.9439447 -0.1771744 0.2283083 0.7792006
-6.867418 10.775 -2.8 -0.6989431 0.7121472 0.06576519 0.2898007 0.7070434
3 11.275 -11.125 0.2272294 0.7965308 -0.5602728 0.8429447 0.7677107
-3 11.275 -11.125 -0.2272294 0.7965308 -0.5602728 0.1540838 0.7630954
3.442752 9.569308 5.775 0.2722456 0.6610711 0.6991906 0.5594174 0.6831335
-3.442752 9.569308 5.775 -0.2722456 0.6610711 0.6991906 0.4387194 0.6823239
0 -2.930125 8.881939 -1.2265e-08 0.06077377 0.9981516 0.5004869 0.4707638
0.8714555 -2.891044 8.995276 0.1141656 0.07430522 0.9906791 0.5128276 0.4710839
-0.8714555 -2.891044 8.995276 -0.1141656 0.07430521 0.9906791 0.4881432 0.4709179
1.190182 -5.938383 9.085709 0.3356701 -0.01792365 0.9418091 0.5203659 0.4219394
-1.190182 -5.938383 9.085709 -0.3356701 -0.01792366 0.9418091 0.4812639 0.4216765
0 -5.937193 9.525255 0 0.01212871 0.9999264 0.5008128 0.4221243
1.50948 -8.874323 8.93506 0.4066193 -0.174536 0.8967709 0.5255909 0.3784518
3.225 -8.8 7.65 0.7406 -0.2022578 0.6407835 0.5602077 0.3773025
-1.50948 -8.874323 8.93506 -0.4066193 -0.174536 0.8967709 0.4766225 0.3781228
-3.225 -8.8 7.65 -0.7406 -0.2022577 0.6407835 0.442024 0.37651
6.689688 2.6 -13.45 0.6562771 0.0007600367 -0.7545196 0.8921615 0.6211082
-6.689688 2.6 -13.45 -0.6562771 0.0007600367 -0.7545196 0.1068347 0.6158482
5.605574 -8.227484 3.302145 0.9179229 -0.2220987 0.3287703 0.6422302 0.3843109
-5.605574 -8.227484 3.302145 -0.9179229 -0.2220987 0.3287703 0.3599142 0.3824194
3.6 -2.518272 -14 0.3029806 -0.4690305 -0.8295862 0.9448119 0.5499024
0 -2.523675 -14.55011 0 -0.4669288 -0.8842949 1 0.5468181
3.428797 2.589131 -14.98713 0.2584218 0.03518781 -0.9653912 0.9422615 0.6361783
-3.6 -2.518272 -14 -0.3029806 -0.4690305 -0.8295862 0.05514181 0.5439446
-3.428797 2.589131 -14.98713 -0.2584218 0.03518781 -0.9653912 0.05653763 0.6302453
0 2.588611 -15.26408 0 0.04695783 -0.9988969 0.9909151 0.6503439
0 -6.0875 -10.6375 0 -0.9567296 -0.2909786 0.9585808 0.4499469
2.789219 -5.9625 -10.5125 0.2272086 -0.9352884 -0.2713151 0.9219369 0.4728872
-2.789219 -5.9625 -10.5125 -0.2272086 -0.9352884 -0.2713151 0.07904479 0.4672434
0 7.957746 -13.98634 0 0.4112103 -0.9115406 0.9401515 0.7493297
0 11.675 -11.325 0 0.8163735 -0.5775244 0.8625325 0.8107551
3.271204 7.959668 -13.71287 0.2359923 0.4146299 -0.878857 0.8998682 0.71997
-3.271204 7.959668 -13.71287 -0.2359923 0.4146299 -0.878857 0.09780407 0.7145973
0 9.75 6 0 0.6819457 0.7314028 0.4988932 0.708871
0 -5.1 -5.3 0 -0.9967123 0.08102269 0.8806943 0.3884751
0 13.33611 -2.8 0 0.9980457 0.06248854 0.6812291 0.8205466
0 13.09479 -7.081541 0 0.9826668 -0.1853809 0.769247 0.8294122
0 12.62285 1.073587 0 0.9441941 0.3293896 0.6041099 0.7909932
4.107436 11.91603 1.087777 0.3586737 0.8797009 0.312217 0.6343627 0.7355615
-4.107436 11.91603 1.087777 -0.3586737 0.8797009 0.312217 0.3630759 0.733744
0 -8.877298 9.316555 0 -0.1587198 0.9873237 0.501102 0.3789905
0 -11.51365 8.533278 4.765277e-08 -0.1826119 0.9831851 0.5013751 0.3382728
1.393334 -11.51216 8.080029 0.3991469 -0.1461405 0.9051656 0.5262627 0.3373235
-1.393334 -11.51216 8.080029 -0.399147 -0.1461404 0.9051656 0.4765024 0.3369896
1.127187 -13.91 8.075 0.2493593 -0.7673557 0.5907497 0.5205377 0.3004801
-1.127187 -13.91 8.075001 -0.2493594 -0.7673555 0.59075 0.4827214 0.3002262
3.202642 -12.6197 2.099917 -0.5549148 -0.7310956 -0.3969495 0.6446653 0.2864538
-3.202642 -12.6197 2.099917 0.5549148 -0.7310956 -0.3969494 0.3587914 0.2845386
1.68 -13.54091 5.559999 -0.3225046 -0.7630291 -0.5601584 0.5595732 0.280497
-1.68 -13.54091 5.56 0.3225045 -0.7630292 -0.5601584 0.4439568 0.2797217
0 -13.91 8.4 2.885808e-07 -0.7173992 0.6966624 0.5016118 0.3029965
0 -13.54091 6.04297 -1.95084e-07 -0.6684629 -0.7437455 0.5018364 0.26951
0 -6.637865 1.773602 0 -0.9566219 -0.2913324 0.7989247 0.3095995
3.092642 -7.0197 2.099917 -0.6936497 -0.6067148 -0.3882619 0.7591166 0.3373966
0 -7.940911 6.652971 -1.729457e-07 -0.5302497 -0.8478416 0.7460541 0.2519822
-3.092642 -7.0197 2.099917 0.6936497 -0.6067148 -0.3882619 0.2436637 0.3339406
1.92811 -7.940911 6.20297 -0.557005 -0.4827341 -0.6758056 0.7285468 0.2771456
-1.92811 -7.940911 6.202971 0.5570048 -0.4827341 -0.6758058 0.2750307 0.274102
0 -5.3 -2.2 0 -0.9696692 -0.2444214 0.8434544 0.3571771
-7.270312 -0.06000008 4.984999 -0.4862583 -0.02967631 0.873311 0.386615 0.5215597
-6.444006 -0.05399538 5.010849 -0.1235052 0.02953755 0.9919043 0.3973419 0.520646
7.270312 -0.06000008 4.984999 0.4862583 -0.02967631 0.873311 0.6136689 0.5230803
6.444006 -0.05399538 5.010849 0.1235052 0.02953757 0.9919043 0.6029553 0.5220227
-8.402278 -0.01967666 4.001319 -0.9073893 0.01078655 0.4201527 0.349537 0.5107834
8.402278 -0.01967664 4.001319 0.9073893 0.01078656 0.4201526 0.650888 0.512802
0 -2.523675 -14.55011 0 -0.4669288 -0.8842949 0 0.5401192
0 2.588611 -15.26408 0 0.04695783 -0.9988969 0.007698059 0.6437562
0 -6.0875 -10.6375 0 -0.9567296 -0.2909786 0.04271102 0.4438156
0 7.957746 -13.98634 0 0.4112103 -0.9115406 0.05712929 0.7434112
0 11.675 -11.325 0 0.8163735 -0.5775244 0.1339225 0.8058745
0 -5.1 -5.3 0 -0.9967123 0.08102269 0.1214124 0.3833921
0 13.33611 -2.8 0 0.9980457 0.06248854 0.315075 0.8180934
0 13.09479 -7.081541 0 0.9826668 -0.1853809 0.2269504 0.8257824
0 12.62285 1.073587 0 0.9441941 0.3293896 0.3925841 0.7895759
0 -6.637865 1.773602 0 -0.9566219 -0.2913324 0.2042271 0.305616
0 -7.940911 6.652971 -1.729457e-07 -0.5302497 -0.8478416 0.2578616 0.2487079
3.092642 -7.0197 2.099917 -0.6936497 -0.6067148 -0.3882619 0.4013439 0.1818015
3.202642 -12.6197 2.099917 -0.5549148 -0.7310956 -0.3969495 0.4090174 0.09508035
1.92811 -7.940911 6.20297 -0.557005 -0.4827341 -0.6758056 0.4685686 0.1728964
-3.092642 -7.0197 2.099917 0.6936497 -0.6067148 -0.3882619 0.597252 0.1825564
-1.92811 -7.940911 6.202971 0.5570048 -0.4827341 -0.6758058 0.5300977 0.1731339
-3.202642 -12.6197 2.099917 0.5549148 -0.7310956 -0.3969494 0.5902462 0.09577874
1.68 -13.54091 5.559999 -0.3225046 -0.7630291 -0.5601584 0.4689047 0.08558784
-1.68 -13.54091 5.56 0.3225045 -0.7630292 -0.5601584 0.5304341 0.0858253
0 -13.54091 6.04297 -1.95084e-07 -0.6684629 -0.7437455 0.4996674 0.08626691
0 -7.940911 6.652971 -1.729457e-07 -0.5302497 -0.8478416 0.499331 0.1735754
3.938019 -11.11 -2.42 -0.5122831 -0.4649096 -0.7220976 0.3372679 0.1120689
-3.938019 -11.11 -2.42 0.5122832 -0.4649096 -0.7220976 0.6618627 0.1133189
4.964688 -5.3 -2.2 -0.2012761 -0.7481852 -0.6322238 0.326898 0.2038014
-4.964688 -5.3 -2.2 0.2012761 -0.7481852 -0.6322237 0.6715263 0.2051283
0 -5.3 -2.2 0 -0.9696692 -0.2444214 0.1590682 0.3525939
3 0 1 2 
3 2 1 3 
3 4 5 6 
3 7 5 4 
3 2 8 0 
3 8 9 0 
3 6 10 4 
3 6 11 10 
3 12 13 14 
3 12 15 13 
3 16 17 18 
3 17 19 18 
3 20 12 21 
3 20 22 12 
3 23 18 24 
3 18 25 24 
3 26 0 27 
3 6 28 29 
3 30 31 32 
3 33 34 35 
3 36 37 38 
3 39 40 41 
3 42 43 44 
3 43 45 44 
3 46 44 47 
3 46 42 44 
3 48 49 50 
3 51 52 53 
3 49 48 54 
3 53 55 51 
3 54 56 49 
3 52 51 57 
3 9 8 58 
3 8 59 58 
3 11 60 10 
3 60 61 10 
3 62 63 64 
3 62 65 63 
3 66 67 68 
3 66 69 67 
3 1 70 3 
3 70 71 3 
3 7 72 5 
3 7 73 72 
3 37 74 38 
3 37 75 74 
3 40 76 77 
3 40 39 76 
3 37 78 79 
3 37 36 78 
3 40 80 41 
3 40 81 80 
3 69 82 67 
3 64 63 83 
3 58 59 84 
3 85 61 60 
3 86 62 64 
3 86 87 62 
3 88 66 89 
3 88 69 66 
3 20 2 22 
3 2 3 22 
3 24 25 4 
3 25 7 4 
3 1 0 90 
3 0 26 90 
3 5 91 6 
3 91 28 6 
3 14 92 93 
3 14 94 92 
3 16 95 96 
3 16 97 95 
3 94 13 98 
3 94 14 13 
3 96 17 16 
3 96 99 17 
3 66 21 89 
3 21 93 89 
3 62 87 23 
3 87 97 23 
3 45 69 100 
3 69 88 100 
3 47 101 64 
3 101 86 64 
3 43 42 102 
3 103 43 102 
3 104 102 46 
3 46 102 42 
3 103 105 84 
3 105 58 84 
3 104 85 106 
3 85 60 106 
3 105 103 107 
3 103 102 107 
3 106 107 104 
3 107 102 104 
3 105 108 58 
3 108 109 58 
3 106 60 110 
3 60 111 110 
3 112 22 71 
3 113 73 25 
3 3 71 22 
3 7 25 73 
3 93 21 14 
3 97 16 23 
3 12 14 21 
3 18 23 16 
3 112 15 22 
3 113 25 19 
3 12 22 15 
3 18 19 25 
3 20 68 2 
3 24 4 65 
3 68 20 66 
3 65 62 24 
3 21 66 20 
3 23 24 62 
3 9 114 0 
3 11 6 115 
3 27 0 114 
3 29 115 6 
3 116 117 118 
3 119 120 161 
3 121 118 117 
3 162 161 120 
3 118 112 116 
3 120 119 113 
3 71 116 112 
3 73 113 119 
3 117 116 122 
3 161 163 119 
3 123 122 116 
3 124 119 163 
3 116 71 123 
3 119 124 73 
3 70 123 71 
3 72 73 124 
3 125 126 127 
3 164 128 165 
3 98 127 126 
3 99 165 128 
3 127 98 15 
3 128 19 99 
3 13 15 98 
3 17 99 19 
3 121 125 118 
3 162 120 164 
3 127 118 125 
3 128 164 120 
3 118 127 112 
3 120 113 128 
3 15 112 127 
3 19 128 113 
3 100 129 45 
3 101 47 129 
3 44 45 129 
3 44 129 47 
3 90 130 123 
3 91 124 166 
3 122 123 130 
3 163 166 124 
3 1 90 123 
3 5 124 91 
3 123 70 1 
3 124 5 72 
3 92 94 131 
3 95 167 96 
3 132 131 94 
3 168 96 167 
3 132 94 126 
3 168 165 96 
3 98 126 94 
3 99 96 165 
3 131 133 92 
3 167 95 169 
3 134 92 133 
3 135 169 95 
3 92 134 93 
3 95 97 135 
3 89 93 134 
3 87 135 97 
3 108 105 136 
3 110 136 106 
3 107 136 105 
3 107 106 136 
3 52 30 114 
3 54 115 34 
3 27 114 30 
3 29 34 115 
3 57 31 52 
3 56 54 33 
3 30 52 31 
3 34 33 54 
3 136 137 108 
3 136 110 137 
3 138 108 137 
3 139 137 110 
3 140 55 138 
3 141 139 50 
3 53 138 55 
3 48 50 139 
3 108 138 109 
3 110 111 139 
3 53 109 138 
3 48 139 111 
3 26 27 32 
3 28 35 29 
3 30 32 27 
3 34 29 35 
3 57 51 142 
3 56 143 49 
3 144 142 51 
3 145 49 143 
3 140 144 55 
3 141 50 145 
3 51 55 144 
3 49 145 50 
3 53 52 109 
3 48 111 54 
3 114 109 52 
3 115 54 111 
3 134 100 89 
3 135 87 101 
3 88 89 100 
3 86 101 87 
3 133 129 100 
3 169 101 129 
3 100 134 133 
3 101 169 135 
3 109 114 58 
3 111 60 115 
3 9 58 114 
3 11 115 60 
3 138 137 140 
3 139 141 137 
3 146 140 137 
3 146 137 141 
3 144 140 147 
3 145 147 141 
3 146 147 140 
3 146 141 147 
3 142 32 57 
3 143 56 35 
3 31 57 32 
3 33 35 56 
3 148 149 150 
3 170 171 151 
3 152 150 149 
3 153 151 171 
3 172 173 174 
3 175 176 177 
3 178 174 173 
3 179 177 176 
3 178 180 174 
3 179 176 180 
3 181 174 180 
3 181 180 176 
3 173 172 182 
3 177 183 175 
3 184 182 172 
3 185 175 183 
3 130 90 154 
3 166 186 91 
3 26 154 90 
3 28 91 186 
3 26 149 154 
3 28 186 151 
3 148 154 149 
3 170 151 186 
3 103 39 43 
3 104 46 38 
3 41 43 39 
3 36 38 46 
3 67 82 81 
3 63 79 83 
3 80 81 82 
3 78 83 79 
3 43 41 82 
3 46 83 36 
3 80 82 41 
3 78 36 83 
3 103 84 39 
3 104 38 85 
3 76 39 84 
3 74 85 38 
3 76 84 77 
3 74 75 85 
3 59 77 84 
3 61 85 75 
3 69 45 82 
3 64 83 47 
3 43 82 45 
3 46 47 83 
3 63 155 156 
3 63 156 79 
3 155 61 75 
3 155 75 156 
3 157 158 77 
3 157 77 59 
3 67 81 158 
3 67 158 157 
3 155 159 10 
3 155 10 61 
3 157 59 8 
3 157 8 160 
3 37 156 75 
3 37 79 156 
3 40 158 81 
3 40 77 158 
3 63 159 155 
3 63 65 159 
3 67 160 68 
3 67 157 160 
3 2 160 8 
3 2 68 160 
3 4 159 65 
3 4 10 159 
