ply
format ascii 1.0
comment VCGLIB generated
comment TextureFile ../textures/cemetery_halloween_atlas.tga
element vertex 211
property float x
property float y
property float z
property float nx
property float ny
property float nz
property float texture_u
property float texture_v
element face 272
property list uchar int vertex_indices
end_header
-10.87659 0.3127794 -0.2834015 0.2361159 -0.9218242 0.3073914 0.6917318 0.4147135
-17.6705 3.501838 6.085361 -0.2237559 -0.6348077 0.7395623 0.6992188 0.4091797
-22.31802 1.353723 3.987998 -0.517123 -0.6600463 0.5449061 0.6988932 0.4046224
-15.41986 -1.012291 -3.543834 -0.01816528 -0.997606 0.0667249 0.6897786 0.4098307
-22.38565 0.5868015 -8.575622 -0.1125799 -0.9083888 -0.4026855 0.6865234 0.4000651
-22.66217 0.921382 -3.256001 -0.1366347 -0.9621235 0.2359015 0.6927083 0.4013672
-26.25204 -0.4856224 -4.673211 0.13096 -0.941912 0.3092754 0.6933594 0.3971354
-18.19136 13.64805 8.931185 -0.2754772 0.08685394 0.9573759 0.7086589 0.4108073
-14.84666 4.511544 8.454588 -0.05878804 -0.5433072 0.8374732 0.7001953 0.4114583
-7.644094 7.282111 7.949018 0.4405957 -0.3507619 0.8263422 0.7011719 0.4189453
-9.466784 16.29063 9.174501 0.3192919 0.2561356 0.9123855 0.7086589 0.4202474
-1.56789 8.298388 1.919069 0.8425535 -0.2168647 0.4930247 0.6985677 0.4267578
-2.296659 17.03648 1.294678 0.8129814 0.3272291 0.4816456 0.7086589 0.4329427
-4.514945 2.728751 0.001742363 0.5507469 -0.7639396 0.3362652 0.6933594 0.4215495
-8.911097 0.315712 -12.07921 0.2603124 -0.9318473 -0.2527809 0.6806641 0.4169922
-1.097401 6.11889 -13.79949 0.7609603 -0.3920698 -0.516934 0.6819661 0.4277344
-1.709072 3.487337 -8.109402 0.6721873 -0.7400137 -0.02332369 0.6868489 0.4251302
-9.546016 3.002369 -17.59333 0.135642 -0.6375621 -0.758364 0.6761068 0.4179688
1.057289 16.34182 -8.304487 0.9589159 0.2708113 -0.0845068 0.6910807 0.4388021
1.291294 8.304799 -7.202266 0.9750247 -0.2214922 0.01637134 0.6897786 0.4306641
-2.665349 13.79604 -16.44473 0.7076132 0.0871119 -0.7012097 0.6770833 0.4339193
-20.84109 8.45895 -15.9989 -0.5288863 -0.2978214 -0.7947212 0.671875 0.4052734
-11.31566 10.43378 -20.89153 0.03884915 -0.1624024 -0.9859596 0.6686198 0.4199219
-17.23908 0.2629461 -11.59475 -0.2452334 -0.8566074 -0.4539653 0.6822917 0.4072266
-21.91513 12.16222 6.798992 -0.4891859 0.008132115 0.8721417 0.7086589 0.406901
-24.23806 6.524067 3.829022 -0.4354243 -0.4454962 0.7822652 0.7034505 0.4026693
-27.61249 4.528111 1.080935 -0.1489859 -0.6074952 0.7802261 0.7018229 0.398763
-35.91591 0.6295586 -4.201173 -0.4924892 -0.754651 0.4335394 0.7011719 0.3876953
-29.34472 -0.9646873 -6.55148 -0.02238903 -0.9996212 -0.01600499 0.6936849 0.3935547
-32.67203 1.704206 -1.304314 -0.2496282 -0.6360941 0.7301165 0.7011719 0.3925781
-35.25319 6.826075 -0.9178452 -0.6120574 -0.04304295 0.7896411 0.7086589 0.3919271
-38.61077 5.143201 -4.784795 -0.8794655 -0.1846458 0.4386871 0.7086589 0.3867188
-30.3082 8.81387 1.996716 -0.5242333 -0.005952726 0.8515539 0.7086589 0.3974609
-26.31075 10.59878 5.361484 -0.4827912 0.01065273 0.8756708 0.7086589 0.4026693
-23.59331 3.228401 -10.05676 -0.1662055 -0.5198847 -0.8379115 0.6806641 0.3997396
-36.72889 0.4938202 -6.610858 -0.5994356 -0.7667542 -0.2297065 0.6979167 0.3860677
-38.8242 4.6916 -6.983429 -0.8808973 -0.3234446 -0.3455481 0.6962891 0.3808594
-30.84683 6.082478 -12.57121 -0.119562 -0.2069559 -0.9710171 0.6861979 0.3860677
-29.52788 0.1040306 -11.44621 0.01503432 -0.6942542 -0.7195728 0.6901042 0.3909505
-25.20875 8.023474 -11.09206 -0.236907 -0.2368361 -0.9422228 0.6806641 0.391276
-18.26698 25.11564 -4.660166 -0.3207059 0.946914 -0.022397 0.7252604 0.4147135
-22.48882 22.71182 -7.730224 -0.5523946 0.7953106 -0.2496826 0.7275391 0.4098307
-27.74154 19.55561 0.7761497 -0.8375239 0.415244 0.3551425 0.7180989 0.4046224
-22.88481 21.00159 2.997425 -0.5955195 0.6128579 0.5193861 0.7177734 0.4091797
-27.02674 16.16278 -11.32406 -0.5402851 0.5270232 -0.656002 0.7304688 0.4000651
-31.21722 16.17802 -7.613595 -0.4200551 0.907338 -0.01707397 0.7236328 0.3971354
-27.58093 17.42924 -6.168891 -0.6490862 0.7577047 -0.06760768 0.7242839 0.4013672
-12.61158 23.95351 5.007265 0.1064978 0.7705036 0.6284763 0.7158203 0.4189453
-20.1939 22.45743 5.28792 -0.4172125 0.6595891 0.6252007 0.7167969 0.4114583
-6.391751 24.48777 -0.9376178 0.5472745 0.7741289 0.3181434 0.7184245 0.4267578
-11.65519 26.69211 -4.22687 0.02534082 0.9993641 0.02508344 0.7236328 0.4215495
-15.50387 22.44168 -15.98357 -0.2530756 0.7911237 -0.5568447 0.7363281 0.4169922
-5.679538 21.49703 -16.51301 0.4802188 0.5501165 -0.6831996 0.7350261 0.4277344
-14.09069 18.25477 -20.28466 -0.1539117 0.3342081 -0.9298474 0.7408854 0.4179688
-8.128859 25.03277 -11.91131 0.1740255 0.9318563 -0.3183694 0.7301432 0.4251302
-3.125937 23.1295 -9.818119 0.701034 0.6980436 -0.1458987 0.7272136 0.4306641
-22.58499 18.20437 -14.76063 -0.6195371 0.3995929 -0.6756473 0.7347005 0.4072266
-26.59099 14.42082 2.435789 -0.6768959 0.3649018 0.6392642 0.7135417 0.4026693
-30.23442 13.32763 -0.4716148 -0.5218974 0.6439837 0.559382 0.7151693 0.398763
-38.79977 10.30813 -5.908856 -0.8566803 0.467588 0.2178541 0.7158203 0.3876953
-35.77041 12.10273 -3.13905 -0.6170905 0.5971148 0.5124972 0.7158203 0.3925781
-33.89808 14.31687 -9.247958 -0.5492525 0.7685733 -0.32805 0.7233073 0.3935547
-26.49819 12.97753 -11.77689 -0.3378153 0.05605859 -0.9395415 0.7363281 0.3997396
-39.32979 9.222772 -8.150955 -0.8908287 0.2111944 -0.4022701 0.7190755 0.3860677
-33.02387 11.83697 -13.51644 -0.2892087 0.3268102 -0.8997519 0.726888 0.3909505
11.24847 4.665821 28.6782 0.9832284 0.1800942 -0.02877669 0.6728516 0.366862
6.474802 -1.822491 29.52329 0.03680403 -0.987525 0.1531005 0.671875 0.360026
5.78792 0.4170885 25.56312 -0.03475756 -0.9303044 -0.3651379 0.6761068 0.3619792
8.415448 5.013731 25.18822 0.822917 0.4150686 -0.3879764 0.6761068 0.367513
-0.003194809 -1.024023 -12.18547 0.2124148 -0.9542028 -0.2106586 0.7099609 0.3583984
2.952163 4.645527 -12.68499 0.9143435 0.1164432 -0.3878361 0.7102864 0.3632812
1.777784 4.936743 -8.279922 0.9564881 0.2500206 0.1504001 0.7070312 0.3655599
-0.34025 1.149671 -8.611221 0.2288847 -0.9167452 0.3273989 0.7070312 0.3606771
-1.579874 9.637982 -11.13937 -0.05336029 0.9949978 -0.08445168 0.7125651 0.3684896
-1.133547 6.244675 -7.163693 -0.1788716 0.8791175 0.4417661 0.7073568 0.3691406
-6.126783 3.842791 -9.180193 -0.9599105 -0.09694383 0.2630093 0.7096354 0.3733724
-3.074219 4.074269 -15.65231 -0.3689093 -0.006018656 -0.9294459 0.7154948 0.3746745
-3.17752 3.339717 -7.213605 -0.7728026 -0.31484 0.5510463 0.7073568 0.3733724
5.907287 5.933972 25.58561 -0.3041194 0.9405389 -0.1513208 0.6764323 0.3704427
6.488187 7.819235 29.62526 -0.117596 0.9736888 0.1951957 0.6715495 0.3707682
4.117252 3.141009 25.4926 -0.9989487 0.02140068 -0.04053954 0.6770833 0.3740234
2.703459 2.858262 30.00129 -0.9564279 -0.02967408 0.2904567 0.6735026 0.375
7.415784 3.369161 33.52692 0.1515267 0.001361431 0.9884523 0.6686198 0.3759766
11.73821 9.625221 1.063432 -0.227324 0.1427885 -0.963294 0.6744792 0.3440755
14.50084 3.523947 5.617823 0.3136722 -0.9474503 -0.06283062 0.6731771 0.3375651
10.38865 5.072982 6.981948 -0.1866376 -0.9775653 0.09763463 0.6774089 0.3395182
8.777524 9.456452 4.459438 -0.5890802 0.3176012 -0.7430438 0.6774089 0.3447266
-24.98109 -2.627004 19.24006 -0.07493605 -0.9821362 -0.1726066 0.7115886 0.3359375
-26.95545 2.781876 16.41634 -0.5527236 0.02077918 -0.8331056 0.7115886 0.3411458
-22.53295 3.85739 16.80794 -0.06111961 0.2431003 -0.9680737 0.7083333 0.3427734
-21.83443 0.1350641 18.95133 0.4375763 -0.8537311 -0.2822591 0.7083333 0.3385417
-25.54834 8.099461 20.61113 -0.2455592 0.9670485 0.06721475 0.7138672 0.3457031
-21.17963 5.424126 19.48122 0.3063771 0.9467018 0.09944282 0.7086589 0.3466797
-21.86435 2.864455 24.74875 0.436067 -0.02154901 0.8996562 0.7109375 0.3505859
-28.70352 1.893576 22.86644 -0.8372871 -0.1537475 0.5247018 0.7167969 0.3522135
-20.37406 2.616402 21.5028 0.7212583 -0.1925188 0.6653744 0.7086589 0.3505859
9.432057 10.5063 6.860487 -0.2580733 0.9095429 0.3257758 0.6777344 0.3476562
12.92317 13.03622 5.586929 0.04033967 0.9958228 0.08191293 0.6728516 0.3479818
10.13296 7.793839 8.639481 0.1277972 0.04426469 0.9908121 0.6783854 0.351237
14.79657 8.329053 9.248867 0.4504102 0.04928809 0.8914602 0.6748047 0.3525391
17.32132 9.293015 3.995913 0.9324977 0.1658073 -0.3208675 0.6699219 0.3531901
35.26653 4.30143 -19.41359 0.8394936 -0.3605943 -0.4064754 0.7991536 0.3583984
18.19944 1.23311 -24.90422 -0.2851647 -0.5410586 -0.7911617 0.7809245 0.3610026
18.59772 5.701023 -24.03433 -0.3302865 0.6580866 -0.6766335 0.7828776 0.3652344
34.49164 8.154263 -18.11284 0.6639127 0.732718 -0.1494808 0.8001302 0.3623047
27.53439 2.452022 -5.166041 0.2251116 -0.5241834 0.8213139 0.7994792 0.3808594
27.37122 6.395405 -5.664577 0.1349966 0.6204157 0.7725674 0.7998047 0.3769531
13.62707 4.332517 -14.86173 -0.8047196 0.5311455 0.2651615 0.7828776 0.375651
13.06479 0.423358 -15.63421 -0.7829048 -0.612829 0.1072416 0.78125 0.3792318
28.26468 2.497391 -4.463581 -0.8170666 -0.5348355 0.215298 0.8274739 0.3486328
35.66966 1.308631 -0.3140717 -0.4445697 -0.6344881 0.6322837 0.8190104 0.3470052
36.86838 4.91157 -0.8577032 0.1346073 0.9194741 0.369389 0.8196614 0.3434245
28.79042 6.770706 -5.190592 -0.515602 0.8544934 -0.06321124 0.8287761 0.344401
30.30555 3.374682 -7.600543 -0.06677278 -0.1972376 -0.9780791 0.828125 0.3398438
37.4825 2.23971 -3.656157 0.4013902 -0.2097239 -0.8915727 0.819987 0.3395182
41.92487 -0.9209881 1.799059 -0.06891438 -0.7745718 0.6287204 0.8131511 0.336263
43.37923 -0.1215534 -0.7846394 0.6459218 -0.3666715 -0.6695798 0.8128255 0.3391927
44.37329 1.001217 1.921068 0.8254664 0.2211527 0.5193233 0.8111979 0.3417969
23.88107 1.281967 -4.710497 0.7942716 -0.2072243 -0.571131 0.8196614 0.3561198
26.90696 -0.9786692 1.389984 0.8783656 -0.3502244 -0.3252952 0.8264974 0.3561198
23.97055 -1.846208 3.303823 -0.451056 -0.6341868 0.6279774 0.8268229 0.3597005
19.12497 0.1892843 -1.754983 -0.7447986 -0.5002766 0.4415862 0.8193359 0.3613281
27.13765 -0.8684912 4.48749 0.6011207 -0.06120145 0.7968113 0.8294271 0.3574219
21.23616 4.657992 -3.166661 -0.001514379 0.9836227 0.1802338 0.8186849 0.3522135
15.75116 3.717995 -11.91272 -0.3362209 0.7765683 -0.5328202 0.8089193 0.3528646
14.69407 0.9054604 -10.72382 -0.8762593 -0.4782896 -0.05838392 0.8092448 0.3496094
32.1138 3.917764 -11.25007 -0.1541162 -0.3206611 -0.934572 0.8121745 0.3655599
39.97727 2.847516 -6.822056 0.409019 -0.329773 -0.8508544 0.8212891 0.3658854
38.3442 2.342863 -3.673483 -0.445958 -0.5295812 0.7215713 0.8216146 0.3623047
30.3362 3.54126 -7.722653 -0.8266799 -0.4548762 0.3311918 0.8128255 0.3613281
44.45788 -0.1411438 -1.240388 -0.1282915 -0.7054245 0.697078 0.8284505 0.3632812
45.60717 0.202219 -3.355305 0.5856905 -0.5219002 -0.6201507 0.8284505 0.3658854
46.69659 1.372395 -1.24699 0.8480353 0.2089757 0.4869961 0.8297526 0.3681641
39.61123 5.473152 -4.832434 0.2718846 0.9386368 0.2122259 0.8212891 0.3691406
31.13527 8.060379 -9.146361 -0.4299731 0.888898 -0.158062 0.8118489 0.3701172
33.80718 4.506759 -14.54254 -0.1968883 -0.2922677 -0.9358497 0.8020833 0.3391927
33.21177 8.25264 -12.731 -0.4121703 0.9042608 -0.1114817 0.7978516 0.3391927
41.12765 5.999121 -8.94055 0.2328598 0.9529445 0.1940957 0.8001302 0.3479818
41.35584 3.106025 -10.89722 0.3374133 -0.3701801 -0.8655166 0.8033854 0.3473307
39.68907 2.796967 -8.071865 -0.502273 -0.5315444 0.6820429 0.8063151 0.3466797
32.41922 3.925163 -11.77391 -0.8147715 -0.4943901 0.3028629 0.8053386 0.3388672
47.02243 0.3402023 -7.36891 0.5663766 -0.6401529 -0.5190587 0.8046875 0.3544922
45.80986 0.3563614 -5.243822 -0.1457528 -0.6458998 0.7493795 0.8069661 0.3538412
48.229 2.2178 -5.25412 0.8304653 0.2975953 0.4709187 0.8020833 0.3561198
16.95726 1.098958 -12.56158 0.2514916 -0.4171648 -0.8733416 0.8092448 0.3561198
35.35752 4.292994 -17.85197 -0.1968884 -0.2922689 -0.9358492 0.8291016 0.3746745
34.80378 7.776672 -16.16723 -0.412172 0.9042599 -0.1114818 0.8300781 0.3785807
42.16558 5.680914 -12.64211 0.2328622 0.9529443 0.1940939 0.8219401 0.3795573
42.37775 2.990341 -14.46182 0.337415 -0.3701795 -0.8655162 0.8212891 0.3763021
40.82768 2.702894 -11.83423 -0.5022724 -0.5315456 0.6820423 0.820638 0.3733724
34.06671 3.752113 -15.27713 -0.8147712 -0.49439 0.3028636 0.828125 0.3720703
47.64769 0.4181213 -11.18049 0.5663765 -0.640155 -0.5190563 0.8147786 0.3772787
46.51999 0.4331703 -9.204172 -0.1457601 -0.6458955 0.7493818 0.8144531 0.3753255
48.76981 2.164272 -9.213734 0.8304673 0.2975873 0.4709202 0.8141276 0.3802083
-23.59331 3.228401 -10.05676 -0.1662055 -0.5198847 -0.8379115 0.6845703 0.3958333
-25.20875 8.023474 -11.09206 -0.236907 -0.2368361 -0.9422228 0.6748047 0.398112
-36.72889 0.4938202 -6.610858 -0.5994356 -0.7667542 -0.2297065 0.7024739 0.3847656
-38.8242 4.6916 -6.983429 -0.8808973 -0.3234446 -0.3455481 0.7086589 0.3844401
1.057289 16.34182 -8.304487 0.9589159 0.2708113 -0.0845068 0.7259114 0.4388021
-2.665349 13.79604 -16.44473 0.7076132 0.0871119 -0.7012097 0.7399089 0.4339193
-20.84109 8.45895 -15.9989 -0.5288863 -0.2978214 -0.7947212 0.7454427 0.4052734
-11.31566 10.43378 -20.89153 0.03884915 -0.1624024 -0.9859596 0.7483724 0.4199219
-30.84683 6.082478 -12.57121 -0.119562 -0.2069559 -0.9710171 0.7311198 0.3860677
-38.8242 4.6916 -6.983429 -0.8808973 -0.3234446 -0.3455481 0.7207031 0.3808594
-25.20875 8.023474 -11.09206 -0.236907 -0.2368361 -0.9422228 0.7363281 0.391276
-26.49819 12.97753 -11.77689 -0.3378153 0.05605859 -0.9395415 0.7324219 0.3958333
-25.20875 8.023474 -11.09206 -0.236907 -0.2368361 -0.9422228 0.7421875 0.398112
-39.32979 9.222772 -8.150955 -0.8908287 0.2111944 -0.4022701 0.7145182 0.3847656
-0.003194809 -1.024023 -12.18547 0.2124148 -0.9542028 -0.2106586 0.711263 0.3798828
-3.074219 4.074269 -15.65231 -0.3689093 -0.006018656 -0.9294459 0.7158203 0.3616537
-0.34025 1.149671 -8.611221 0.2288847 -0.9167452 0.3273989 0.7080078 0.3772787
5.78792 0.4170885 25.56312 -0.03475756 -0.9303044 -0.3651379 0.6770833 0.3769531
6.474802 -1.822491 29.52329 0.03680403 -0.987525 0.1531005 0.6738281 0.3798828
7.415784 3.369161 33.52692 0.1515267 0.001361431 0.9884523 0.6679688 0.3658854
-24.98109 -2.627004 19.24006 -0.07493605 -0.9821362 -0.1726066 0.7125651 0.3574219
-28.70352 1.893576 22.86644 -0.8372871 -0.1537475 0.5247018 0.7171224 0.3395182
-21.83443 0.1350641 18.95133 0.4375763 -0.8537311 -0.2822591 0.7093099 0.3544922
10.38865 5.072982 6.981948 -0.1866376 -0.9775653 0.09763463 0.6783854 0.3544922
14.50084 3.523947 5.617823 0.3136722 -0.9474503 -0.06283062 0.6751302 0.3570963
17.32132 9.293015 3.995913 0.9324977 0.1658073 -0.3208675 0.6692708 0.343099
27.53439 2.452022 -5.166041 0.2251116 -0.5241834 0.8213139 0.7936198 0.343099
13.06479 0.423358 -15.63421 -0.7829048 -0.612829 0.1072416 0.7773438 0.351237
18.19944 1.23311 -24.90422 -0.2851647 -0.5410586 -0.7911617 0.7783203 0.3652344
13.06479 0.423358 -15.63421 -0.7829048 -0.612829 0.1072416 0.7789714 0.375651
27.53439 2.452022 -5.166041 0.2251116 -0.5241834 0.8213139 0.8033854 0.3776042
35.26653 4.30143 -19.41359 0.8394936 -0.3605943 -0.4064754 0.8040364 0.3613281
35.66966 1.308631 -0.3140717 -0.4445697 -0.6344881 0.6322837 0.819987 0.335612
28.26468 2.497391 -4.463581 -0.8170666 -0.5348355 0.215298 0.8284505 0.3359375
41.92487 -0.9209881 1.799059 -0.06891438 -0.7745718 0.6287204 0.8121745 0.3450521
41.92487 -0.9209881 1.799059 -0.06891438 -0.7745718 0.6287204 0.8098958 0.3391927
27.13765 -0.8684912 4.48749 0.6011207 -0.06120145 0.7968113 0.8291016 0.3535156
19.12497 0.1892843 -1.754983 -0.7447986 -0.5002766 0.4415862 0.8196614 0.3479818
23.97055 -1.846208 3.303823 -0.451056 -0.6341868 0.6279774 0.8271484 0.3502604
38.3442 2.342863 -3.673483 -0.445958 -0.5295812 0.7215713 0.8222656 0.3723958
44.45788 -0.1411438 -1.240388 -0.1282915 -0.7054245 0.697078 0.8291016 0.3707682
46.69659 1.372395 -1.24699 0.8480353 0.2089757 0.4869961 0.8307292 0.3649088
48.229 2.2178 -5.25412 0.8304653 0.2975953 0.4709187 0.8066406 0.3567708
32.41922 3.925163 -11.77391 -0.8147715 -0.4943901 0.3028629 0.7936198 0.3411458
39.68907 2.796967 -8.071865 -0.502273 -0.5315444 0.6820429 0.7965495 0.3489583
45.80986 0.3563614 -5.243822 -0.1457528 -0.6458998 0.7493795 0.7991536 0.3557943
30.3362 3.54126 -7.722653 -0.8266799 -0.4548762 0.3311918 0.8134766 0.3746745
14.69407 0.9054604 -10.72382 -0.8762593 -0.4782896 -0.05838392 0.8095703 0.3590495
33.21177 8.25264 -12.731 -0.4121703 0.9042608 -0.1114817 0.8027344 0.3349609
15.75116 3.717995 -11.91272 -0.3362209 0.7765683 -0.5328202 0.8066406 0.3574219
48.76981 2.164272 -9.213734 0.8304673 0.2975873 0.4709202 0.8121745 0.3766276
34.06671 3.752113 -15.27713 -0.8147712 -0.49439 0.3028636 0.8297526 0.3828125
40.82768 2.702894 -11.83423 -0.5022724 -0.5315456 0.6820423 0.8219401 0.3828125
46.51999 0.4331703 -9.204172 -0.1457601 -0.6458955 0.7493818 0.8154297 0.3828125
34.80378 7.776672 -16.16723 -0.412172 0.9042599 -0.1114818 0.8323568 0.3727213
31.13527 8.060379 -9.146361 -0.4299731 0.888898 -0.158062 0.8082682 0.3626302
28.79042 6.770706 -5.190592 -0.515602 0.8544934 -0.06321124 0.8320312 0.3382162
3 0 1 2 
3 2 3 0 
3 4 5 6 
3 7 8 9 
3 9 10 7 
3 10 9 11 
3 11 12 10 
3 9 8 0 
3 0 13 9 
3 0 8 1 
3 14 0 3 
3 15 16 14 
3 14 17 15 
3 18 12 11 
3 11 19 18 
3 16 19 11 
3 11 13 16 
3 11 9 13 
3 20 18 19 
3 19 15 20 
3 21 22 17 
3 17 23 21 
3 15 17 22 
3 22 20 15 
3 13 0 14 
3 14 16 13 
3 19 16 15 
3 14 3 23 
3 3 5 23 
3 8 7 24 
3 24 1 8 
3 5 3 2 
3 25 26 5 
3 5 2 25 
3 27 28 29 
3 27 29 30 
3 30 31 27 
3 6 28 4 
3 29 26 32 
3 32 30 29 
3 26 29 6 
3 6 5 26 
3 29 28 6 
3 23 17 14 
3 33 32 25 
3 24 25 1 
3 2 1 25 
3 23 34 21 
3 35 36 37 
3 37 38 35 
3 39 154 38 
3 38 37 39 
3 21 34 155 
3 27 35 38 
3 38 28 27 
3 28 38 154 
3 154 4 28 
3 156 27 31 
3 31 157 156 
3 25 24 33 
3 32 26 25 
3 4 23 5 
3 23 4 34 
3 40 41 42 
3 42 43 40 
3 44 45 46 
3 7 10 47 
3 47 48 7 
3 10 12 49 
3 49 47 10 
3 47 50 40 
3 40 48 47 
3 40 43 48 
3 51 41 40 
3 52 53 51 
3 51 54 52 
3 158 55 49 
3 49 12 158 
3 54 50 49 
3 49 55 54 
3 49 50 47 
3 159 52 55 
3 55 158 159 
3 160 56 53 
3 53 161 160 
3 52 159 161 
3 161 53 52 
3 50 54 51 
3 51 40 50 
3 55 52 54 
3 51 56 41 
3 41 56 46 
3 48 43 24 
3 24 7 48 
3 46 42 41 
3 57 46 58 
3 46 57 42 
3 59 60 61 
3 59 31 30 
3 30 60 59 
3 45 44 61 
3 60 30 32 
3 32 58 60 
3 58 46 45 
3 45 60 58 
3 60 45 61 
3 56 51 53 
3 33 57 32 
3 24 43 57 
3 42 57 43 
3 56 160 62 
3 63 64 162 
3 162 163 63 
3 164 162 64 
3 64 165 164 
3 160 166 62 
3 59 61 64 
3 64 63 59 
3 61 44 165 
3 165 64 61 
3 167 157 31 
3 31 59 167 
3 57 33 24 
3 32 57 58 
3 44 46 56 
3 56 62 44 
3 65 66 67 
3 67 68 65 
3 69 70 71 
3 71 72 69 
3 73 74 71 
3 71 70 73 
3 168 75 76 
3 74 73 75 
3 75 77 74 
3 169 70 69 
3 78 79 65 
3 65 68 78 
3 78 74 77 
3 77 80 78 
3 77 170 171 
3 171 80 77 
3 70 169 73 
3 170 77 75 
3 75 168 170 
3 73 76 75 
3 81 79 78 
3 78 80 81 
3 81 80 171 
3 171 172 81 
3 79 81 82 
3 66 65 173 
3 81 172 82 
3 65 79 173 
3 72 71 68 
3 68 67 72 
3 68 71 74 
3 74 78 68 
3 83 84 85 
3 85 86 83 
3 87 88 89 
3 89 90 87 
3 91 92 89 
3 89 88 91 
3 174 93 94 
3 92 91 93 
3 93 95 92 
3 175 88 87 
3 96 97 83 
3 83 86 96 
3 96 92 95 
3 95 98 96 
3 95 176 177 
3 177 98 95 
3 88 175 91 
3 176 95 93 
3 93 174 176 
3 91 94 93 
3 99 97 96 
3 96 98 99 
3 99 98 177 
3 177 178 99 
3 97 99 100 
3 84 83 179 
3 99 178 100 
3 83 97 179 
3 90 89 86 
3 86 85 90 
3 86 89 92 
3 92 96 86 
3 101 102 103 
3 103 104 101 
3 105 106 107 
3 107 108 105 
3 104 103 107 
3 107 106 104 
3 101 180 181 
3 181 102 101 
3 107 103 182 
3 182 183 107 
3 104 106 184 
3 184 185 104 
3 109 110 111 
3 111 112 109 
3 113 114 186 
3 186 187 113 
3 115 186 114 
3 114 116 115 
3 110 188 117 
3 117 111 110 
3 117 189 116 
3 111 114 113 
3 113 112 111 
3 116 114 111 
3 111 117 116 
3 118 119 120 
3 120 121 118 
3 120 119 122 
3 123 190 119 
3 119 118 123 
3 123 191 192 
3 192 190 123 
3 191 123 124 
3 124 125 191 
3 126 127 128 
3 128 129 126 
3 130 128 127 
3 127 131 130 
3 193 194 132 
3 132 133 193 
3 195 130 131 
3 133 127 126 
3 126 134 133 
3 131 127 133 
3 133 132 131 
3 135 136 137 
3 137 138 135 
3 135 138 139 
3 139 140 135 
3 141 142 139 
3 139 138 141 
3 138 137 143 
3 143 141 138 
3 142 141 196 
3 137 136 197 
3 197 198 137 
3 199 143 137 
3 137 198 199 
3 134 200 193 
3 193 133 134 
3 201 144 118 
3 118 121 201 
3 123 118 144 
3 144 124 123 
3 135 140 202 
3 203 144 201 
3 145 146 147 
3 147 148 145 
3 145 148 149 
3 149 150 145 
3 151 152 149 
3 149 148 151 
3 148 147 153 
3 153 151 148 
3 152 151 204 
3 147 146 205 
3 205 206 147 
3 207 153 147 
3 147 206 207 
3 145 150 208 
3 129 209 126 
3 210 113 187 
