ply
format ascii 1.0
comment VCGLIB generated
comment TextureFile ../textures/cemetery_halloween_atlas.tga
element vertex 285
property float x
property float y
property float z
property float nx
property float ny
property float nz
property float texture_u
property float texture_v
element face 442
property list uchar int vertex_indices
end_header
19.67941 17.11341 2.435622 0.7729335 0.2256368 -0.5930109 0.6917318 0.4147135
21.96852 20.90872 11.22449 0.8682538 0.4945996 0.03881625 0.6992188 0.4091797
25.12134 16.92545 13.41673 0.9543607 0.2033702 0.2187148 0.6988932 0.4046224
21.72175 12.23285 4.679838 0.8700135 -0.1010135 -0.482569 0.6897786 0.4098307
21.78247 5.285074 9.982952 0.6857064 -0.5517785 -0.4747075 0.6865234 0.4000651
23.32003 10.10174 11.69246 0.9454656 0.01521512 -0.3253665 0.6927083 0.4013672
25.60756 7.249826 13.56573 0.8360013 0.1850956 -0.5165671 0.6933594 0.3971354
14.55174 24.89837 17.57978 0.3520019 0.786998 0.5066841 0.7086589 0.4108073
20.65176 24.28478 10.00989 0.7509845 0.6598325 -0.02536459 0.7001953 0.4114583
15.03618 26.93422 5.399654 0.3688971 0.8654883 -0.3388878 0.7011719 0.4189453
8.624261 28.77959 11.83854 -0.06260131 0.9935517 0.09453066 0.7086589 0.4202474
9.621679 23.83648 -0.5501814 -0.02452219 0.7309496 -0.6819907 0.6985677 0.4267578
2.372886 24.35425 4.395743 -0.4739389 0.7942351 -0.3802269 0.7086589 0.4329427
14.9795 20.11817 -1.472184 0.5128451 0.3937382 -0.7628632 0.6933594 0.4215495
15.05663 7.052147 -2.081575 0.5919073 -0.27948 -0.7560005 0.6806641 0.4169922
6.232245 9.289689 -5.930442 -0.16424 -0.2508143 -0.9540008 0.6819661 0.4277344
10.5333 13.85883 -5.382546 0.3251905 0.113635 -0.9387962 0.6868489 0.4251302
11.30516 2.188638 -1.534352 0.2363028 -0.7426795 -0.6265686 0.6761068 0.4179688
-1.561259 16.7111 -1.07968 -0.670488 0.3217336 -0.6685307 0.6910807 0.4388021
5.463568 16.55555 -5.140588 -0.230294 0.3433923 -0.9105199 0.6897786 0.4306641
-0.4046888 7.480872 -1.339841 -0.603898 -0.3646848 -0.7087399 0.6770833 0.4339193
12.10662 0.2931166 10.94202 0.2260934 -0.9703864 0.08504128 0.671875 0.4052734
4.754039 -0.3309765 2.934426 -0.1949943 -0.9129839 -0.3583818 0.6686198 0.4199219
18.86212 4.387637 4.847448 0.683119 -0.6400108 -0.3517595 0.6822917 0.4072266
16.73523 21.33014 19.34626 0.4836574 0.6172125 0.6205839 0.7086589 0.406901
21.54417 16.87028 17.61734 0.8139963 0.4843638 0.320627 0.7034505 0.4026693
23.80954 12.7891 18.68257 0.8258502 0.5638876 0.001518225 0.7018229 0.398763
29.00315 4.258568 22.19006 0.9878448 0.0959091 0.1223281 0.7011719 0.3876953
26.75036 4.305557 15.39529 0.8471054 -0.1785977 -0.5005149 0.6936849 0.3935547
27.61838 8.283851 20.79404 0.877523 0.4761269 0.05706699 0.7011719 0.3925781
24.54263 8.47416 25.64676 0.5536341 0.4880255 0.6747743 0.7086589 0.3919271
26.1793 3.424227 26.58388 0.676634 0.04532837 0.734923 0.7086589 0.3867188
21.65724 13.29094 23.32896 0.5041265 0.5831376 0.63703 0.7086589 0.3974609
19.49703 18.13541 21.79543 0.4798915 0.623214 0.6175017 0.7086589 0.4026693
19.60568 3.89159 11.97042 0.2424079 -0.9094905 -0.3377358 0.6806641 0.3997396
28.69961 1.729973 22.19408 0.8324237 -0.5526545 0.04054401 0.6979167 0.3860677
25.9498 1.262722 25.98495 0.5436463 -0.6943937 0.4714511 0.6962891 0.3808594
19.53761 -0.6645212 18.77622 -0.08407223 -0.9652066 -0.247605 0.6861979 0.3860677
24.36486 -0.07495117 14.89071 0.3487069 -0.7608999 -0.5472065 0.6901042 0.3909505
15.93288 3.089518 15.51181 0.001126055 -0.9871858 -0.1595715 0.6806641 0.391276
0.5761394 14.2193 20.20202 -0.6663843 0.00755776 0.7455702 0.7252604 0.4147135
3.449342 9.464621 21.67352 -0.5109059 -0.3102438 0.8017007 0.7275391 0.4098307
11.10219 14.80166 26.45485 0.126163 0.07788544 0.9889473 0.7180989 0.4046224
8.490169 18.86687 23.75965 -0.09270574 0.3490049 0.9325241 0.7177734 0.4091797
9.785817 3.467721 21.14012 -0.4198597 -0.7192891 0.553481 0.7304688 0.4000651
12.77318 5.305545 25.50199 -0.5883065 -0.03070936 0.8080547 0.7236328 0.3971354
10.60564 8.175638 23.51713 -0.3791606 -0.1854857 0.9065497 0.7242839 0.4013672
2.195825 24.98903 17.34147 -0.4947083 0.7346492 0.4642783 0.7158203 0.4189453
6.829792 22.19086 22.86462 -0.1754923 0.5194652 0.8362765 0.7167969 0.4114583
-2.847419 21.94754 11.04636 -0.7877935 0.6153091 0.02785794 0.7184245 0.4267578
-3.477183 17.32203 15.69288 -0.8452662 0.1879632 0.500195 0.7236328 0.4215495
-1.984881 4.470422 13.76736 -0.7351394 -0.4805479 0.4781671 0.7363281 0.4169922
-5.612025 7.495426 5.085007 -0.8899167 -0.360759 -0.2791079 0.7350261 0.4277344
-0.4422645 0.4090462 9.391029 -0.5121596 -0.8560727 0.06951363 0.7408854 0.4179688
-6.061068 11.34485 10.05055 -0.9624978 -0.08146959 0.2587678 0.7301432 0.4251302
-5.954443 14.82587 5.478436 -0.9385262 0.2360897 -0.2518533 0.7272136 0.4306641
5.043582 2.294241 17.69898 -0.2844155 -0.7865995 0.5480595 0.7347005 0.4072266
15.46213 15.94908 23.27386 0.1898256 0.3898056 0.9011204 0.7135417 0.4026693
17.03218 11.76255 24.98574 -0.1380402 0.417849 0.8979684 0.7151693 0.398763
21.54873 3.129433 29.1229 0.04647201 -0.04671619 0.9978266 0.7158203 0.3876953
19.60944 7.070701 28.24258 -0.07229771 0.3322228 0.9404261 0.7158203 0.3925781
14.98048 2.522563 26.34156 -0.5147727 -0.3849438 0.7660466 0.7233073 0.3935547
12.09691 2.754222 18.9538 -0.201186 -0.9766919 0.07481432 0.7363281 0.3997396
21.9766 0.7116594 28.4467 0.07920541 -0.6667594 0.7410523 0.7190755 0.3860677
15.32815 -1.443826 23.29509 -0.4377208 -0.880043 0.1841871 0.726888 0.3909505
-5.141251 15.65684 10.18395 0.9888116 0.1196545 0.08907594 0.6917318 0.4733073
-9.005571 20.10935 18.06625 0.6601844 0.4402587 0.6085465 0.6992188 0.4674479
-8.634041 16.15873 21.92206 0.5689719 0.1623762 0.8061669 0.6988932 0.4632162
-5.712054 10.88968 13.34242 0.9486918 -0.2006423 0.2443901 0.6897786 0.468099
-10.0235 4.481214 17.43403 0.7595243 -0.6361355 0.1358476 0.6865234 0.4583333
-9.530416 9.33053 19.60838 0.9100183 -0.07514774 0.4077003 0.6927083 0.4599609
-9.447979 6.528633 22.61136 0.9784998 0.08257779 0.188995 0.6933594 0.4557292
-18.26523 25.13889 17.53894 1.633489e-05 0.8073425 0.5900832 0.7086589 0.4690755
-8.769506 23.43265 16.19361 0.6364981 0.6057994 0.477365 0.7001953 0.4697266
-9.443876 25.98619 8.924965 0.593305 0.8047824 -0.01773288 0.7011719 0.4772135
-18.26523 28.82968 9.199948 1.645939e-05 0.9999998 0.0007495802 0.7086589 0.4785156
-9.698931 22.69092 0.9632168 0.5243714 0.6636938 -0.5334278 0.6985677 0.4847005
-18.26523 24.12783 -0.3891726 1.104334e-05 0.7833059 -0.6216365 0.7086589 0.4912109
-5.585459 18.57165 4.044299 0.9330226 0.2871279 -0.2168557 0.6933594 0.4798177
-6.557684 5.527494 3.987628 0.9116813 -0.3861068 -0.1405659 0.6806641 0.4752604
-10.12819 7.945915 -4.905786 0.4985361 -0.3285046 -0.8022135 0.6819661 0.4860026
-6.864867 12.26567 -1.686033 0.8846421 0.00413494 -0.4662525 0.6868489 0.4833984
-10.19472 0.9835062 1.950266 0.5141855 -0.8117143 -0.2770076 0.6761068 0.476237
-18.26523 16.26752 -6.876925 3.467574e-07 0.2991511 -0.9542058 0.6910807 0.4970703
-10.42103 15.28781 -5.040641 0.4865562 0.2701374 -0.8308362 0.6897786 0.4889323
-18.26523 6.999179 -6.040015 -1.287884e-05 -0.3908361 -0.9204603 0.6770833 0.4921875
-18.26523 0.2222929 11.65503 -1.775299e-05 -0.9704251 0.2414027 0.671875 0.4635417
-18.26523 -0.6863241 0.8039503 -1.940639e-05 -0.9284898 -0.3713578 0.6686198 0.4785156
-8.771866 3.291186 11.7135 0.6646924 -0.7120806 0.226109 0.6822917 0.4654948
-18.26523 21.62181 20.41131 1.821921e-05 0.641044 0.7675042 0.7086589 0.4654948
-14.08684 16.72455 22.5475 0.4288198 0.4600029 0.777503 0.7034505 0.4609375
-13.60915 12.62675 24.97699 0.6622093 0.5082726 0.5505797 0.7018229 0.4570312
-13.14401 4.152905 31.30342 0.6467322 0.04443324 0.7614219 0.7011719 0.4462891
-10.17929 3.703127 24.80309 0.9356105 -0.2779689 0.2176378 0.6936849 0.4518229
-12.76306 8.1085 29.2352 0.6525403 0.4230353 0.6286751 0.7011719 0.4508463
-18.26524 8.94787 30.67285 2.161462e-05 0.5133642 0.8581709 0.7086589 0.4501953
-18.26523 3.915179 32.60437 1.146461e-05 0.07140306 0.9974476 0.7086589 0.444987
-18.26523 13.69795 26.8866 2.616382e-05 0.607442 0.794364 0.7086589 0.4557292
-18.26523 18.50349 24.16742 2.55973e-05 0.6469551 0.7625282 0.7086589 0.4609375
-13.10668 3.420911 17.43435 0.3047334 -0.9506894 -0.05768258 0.6806641 0.4580078
-13.64649 1.660109 31.16402 0.5174544 -0.5978361 0.612236 0.6979167 0.4443359
-18.26523 1.725764 32.0659 -1.418299e-05 -0.6799324 0.7332748 0.6962891 0.4391276
-18.26523 -0.4618959 22.47369 -2.971281e-05 -0.9769662 -0.2133943 0.6861979 0.4443359
-12.05698 -0.5460548 22.91821 0.5402666 -0.8294536 -0.1418407 0.6901042 0.4492188
-18.26523 3.188715 17.5324 -3.248257e-05 -0.9959076 -0.09037782 0.6806641 0.4495443
-31.38922 15.65717 10.18405 -0.9888116 0.1196543 0.08907607 0.7252604 0.4733073
-30.81841 10.89002 13.34252 -0.9486919 -0.2006424 0.2443899 0.7275391 0.468099
-27.89643 16.15906 21.92216 -0.5689722 0.162376 0.8061667 0.7180989 0.4632162
-27.5249 20.10969 18.06636 -0.6601771 0.4402656 0.6085495 0.7177734 0.4674479
-26.50697 4.48155 17.43414 -0.7595239 -0.6361359 0.1358476 0.7304688 0.4583333
-27.08249 6.528972 22.61146 -0.9784998 0.08257734 0.1889953 0.7236328 0.4557292
-27.00006 9.330869 19.60848 -0.9100184 -0.07514739 0.4077002 0.7242839 0.4599609
-27.08659 25.98653 8.925067 -0.5932904 0.8047933 -0.01773025 0.7158203 0.4772135
-27.76096 23.43299 16.19371 -0.6364853 0.6058089 0.47737 0.7167969 0.4697266
-26.83154 22.69126 0.9633188 -0.5243614 0.6637005 -0.5334292 0.7184245 0.4847005
-30.94501 18.57199 4.044402 -0.9330227 0.2871278 -0.2168554 0.7236328 0.4798177
-29.97278 5.527833 3.98773 -0.9116813 -0.3861069 -0.1405659 0.7363281 0.4752604
-26.40228 7.946252 -4.905684 -0.498547 -0.3284978 -0.8022095 0.7350261 0.4860026
-26.33575 0.9838448 1.950369 -0.514204 -0.8117036 -0.2770048 0.7408854 0.476237
-29.66561 12.266 -1.685933 -0.884642 0.00413468 -0.4662525 0.7301432 0.4833984
-26.10944 15.28815 -5.040542 -0.4865563 0.2701435 -0.8308342 0.7272136 0.4889323
-27.7586 3.291523 11.7136 -0.6647005 -0.7120728 0.2261098 0.7347005 0.4654948
-22.44364 16.72489 22.54761 -0.4287948 0.4600164 0.7775089 0.7135417 0.4609375
-22.92132 12.62708 24.97709 -0.6621903 0.5082798 0.5505959 0.7151693 0.4570312
-23.38645 4.15324 31.30352 -0.6467217 0.04444204 0.7614303 0.7158203 0.4462891
-23.7674 8.108835 29.23531 -0.6525234 0.4230447 0.6286862 0.7158203 0.4508463
-26.35118 3.703465 24.8032 -0.9356105 -0.2779691 0.2176381 0.7233073 0.4518229
-23.42379 3.421249 17.43446 -0.3047655 -0.9506792 -0.0576808 0.7363281 0.4580078
-22.88398 1.660446 31.16412 -0.5174723 -0.5978154 0.6122411 0.7190755 0.4443359
-24.47349 -0.5457163 22.91832 -0.5402892 -0.8294398 -0.1418353 0.726888 0.4492188
-4.785895 15.66191 -32.04183 0.2480123 0.1418096 -0.9583215 0.773763 0.4733073
1.890577 20.71554 -26.86746 0.6728532 0.500808 -0.5444814 0.7815755 0.4674479
6.081946 17.11652 -26.5638 0.8751713 0.2395638 -0.4203385 0.7809245 0.4632162
-1.370505 11.17535 -30.93123 0.4213604 -0.1645444 -0.8918411 0.7718099 0.468099
2.456319 5.077204 -25.97479 0.3201058 -0.6105601 -0.7243954 0.7688802 0.4583333
4.252132 10.10216 -26.08281 0.5639498 -0.02609525 -0.8253967 0.7750651 0.4599609
7.4567 7.569921 -25.64253 0.3474868 0.1132944 -0.9308154 0.7757161 0.4557292
-0.6669101 25.54053 -17.84004 0.5085455 0.8549183 0.102451 0.7910156 0.4690755
-0.1954079 23.86903 -27.42513 0.5256311 0.6541002 -0.5439346 0.7825521 0.4697266
-7.665598 25.77878 -28.02319 0.0150961 0.8091777 -0.5873702 0.7835286 0.4772135
-9.169634 28.50154 -19.28809 -0.08641726 0.996259 0.0001144302 0.7910156 0.4785156
-15.23347 21.80882 -29.15455 -0.4904596 0.6233197 -0.6090336 0.7809245 0.4847005
-18.16735 22.99454 -20.95323 -0.6781303 0.7269695 -0.1079566 0.7910156 0.4912109
-11.14015 18.03193 -32.6705 -0.07637195 0.2815435 -0.9565044 0.7753906 0.4798177
-10.22706 5.017837 -31.7229 0.05345713 -0.3829044 -0.92224 0.7630208 0.4752604
-19.78047 6.609681 -29.75097 -0.6721482 -0.3885646 -0.6302653 0.7643229 0.4860026
-16.43367 11.23874 -32.4056 -0.3047497 -0.02251104 -0.9521665 0.7688802 0.4833984
-12.45896 0.2612238 -28.4949 -0.1120682 -0.8246195 -0.5544758 0.7584636 0.476237
-23.84715 14.60728 -22.07982 -0.9622061 0.2161119 -0.1656962 0.7734375 0.4970703
-20.60331 13.90764 -29.48599 -0.754476 0.2051619 -0.6234376 0.7721354 0.4889323
-22.21831 5.446044 -21.93449 -0.8689658 -0.4683534 -0.1598237 0.7591146 0.4921875
-4.267758 0.2137346 -18.86178 0.3214054 -0.9460127 0.04193647 0.7539062 0.4635417
-14.83413 -1.622785 -20.74606 -0.2834048 -0.9568311 -0.0644669 0.7503255 0.4785156
-2.835636 3.419647 -28.20078 0.3988717 -0.6799034 -0.6153314 0.7643229 0.4654948
2.457593 22.28338 -17.34126 0.6971004 0.7044808 0.1332583 0.7910156 0.4654948
5.702962 17.65136 -21.08523 0.7968659 0.531477 -0.2872926 0.7854818 0.4609375
8.526212 13.7849 -21.13379 0.6104071 0.5636178 -0.5565414 0.7841797 0.4570312
15.55183 5.893344 -20.49328 0.8550049 0.1194058 -0.5046869 0.7835286 0.4462891
9.726678 4.932218 -24.54174 0.3995915 -0.2440707 -0.883604 0.7760417 0.4518229
13.24393 9.662134 -21.22759 0.69278 0.4852613 -0.5334579 0.7835286 0.4508463
13.62938 10.53843 -15.55937 0.7971787 0.5850689 0.1489984 0.7910156 0.4501953
15.96294 5.690678 -15.22396 0.9723349 0.1567442 0.1731938 0.7910156 0.444987
9.500852 14.94546 -16.21684 0.7263817 0.6733123 0.1379143 0.7910156 0.4557292
6.414339 19.49932 -16.68902 0.6917049 0.7099423 0.1323868 0.7910156 0.4609375
2.015691 3.974303 -22.93839 0.07898286 -0.9474108 -0.3101201 0.7626953 0.4580078
15.5454 3.390467 -20.02265 0.7422585 -0.5351806 -0.4032792 0.7802734 0.4443359
15.62549 3.463377 -15.31747 0.7786447 -0.6144067 0.1273459 0.7783203 0.4391276
6.405626 0.4607286 -16.98314 -0.1242099 -0.9915649 -0.03702681 0.7682292 0.4443359
7.923013 0.5090055 -23.01989 0.02659634 -0.8302945 -0.55669 0.7721354 0.4492188
1.239756 3.673332 -17.84118 -0.001873315 -0.9998756 -0.01566259 0.7630208 0.4495443
-9.326399 15.265 -6.192609 -0.09409175 0.1118793 0.9892572 0.8076172 0.4733073
-5.713522 10.79572 -6.206275 0.09313636 -0.1932606 0.9767169 0.8095703 0.468099
2.749863 16.82534 -7.594029 0.6783213 0.2223415 0.7003174 0.8004557 0.4632162
-1.312966 20.4356 -8.629468 0.4444495 0.4808311 0.7558215 0.7998047 0.4674479
-0.3950453 4.828078 -9.741721 0.05732898 -0.63355 0.7715749 0.8125 0.4583333
4.40622 7.303371 -8.275912 0.008950394 0.08367577 0.9964529 0.8059896 0.4557292
1.230172 9.838105 -8.878554 0.2491065 -0.0536417 0.9669895 0.8063151 0.4599609
-10.71749 25.51211 -10.64848 -0.1901685 0.7912297 0.5811985 0.7981771 0.4772135
-3.480622 23.58195 -8.722171 0.3054252 0.6348436 0.7097106 0.7991536 0.4697266
-18.19713 21.54986 -12.28221 -0.6718794 0.6074538 0.4237665 0.8004557 0.4847005
-15.52696 17.64846 -7.696204 -0.3991743 0.2533011 0.8811915 0.8059896 0.4798177
-14.27751 4.6638 -8.663505 -0.2619618 -0.4105007 0.8734215 0.8183594 0.4752604
-22.59561 6.363723 -13.72409 -0.844628 -0.4036479 0.3516704 0.8170573 0.4860026
-15.25109 0.01728153 -12.59907 -0.2899649 -0.8401728 0.4582903 0.8229167 0.476237
-20.37784 10.894 -9.951241 -0.6108143 -0.04928895 0.7902382 0.8125 0.4833984
-23.31714 13.67054 -14.0359 -0.9228111 0.1904398 0.3348918 0.8092448 0.4889323
-6.120034 3.132634 -9.502467 0.1689035 -0.700016 0.6938655 0.8170573 0.4654948
4.257409 17.52522 -12.85538 0.6485137 0.5185114 0.5572934 0.7958984 0.4609375
6.915393 13.6443 -11.96307 0.3813174 0.5435819 0.7477404 0.7972005 0.4570312
13.78009 5.738672 -10.40643 0.6312611 0.09983885 0.7691175 0.7981771 0.4462891
11.34039 9.495932 -10.39041 0.46703 0.4655204 0.7517805 0.7978516 0.4508463
6.929212 4.687804 -8.61552 0.07589315 -0.2723909 0.959189 0.8053386 0.4518229
0.2310304 3.818501 -12.77801 -0.02645208 -0.9566249 0.2901192 0.8186849 0.4580078
13.9475 3.251003 -10.92548 0.5632321 -0.550824 0.6159242 0.8011068 0.4443359
5.775181 0.3214302 -10.79199 -0.1603224 -0.8466347 0.5074511 0.8092448 0.4492188
35.32397 4.665874 12.60517 0.9832284 0.180094 -0.02877769 0.6728516 0.366862
30.55034 -1.82243 13.45025 0.03680679 -0.9875253 0.1530985 0.671875 0.360026
29.86345 0.4171476 9.490108 -0.03475874 -0.9303038 -0.3651394 0.6761068 0.3619792
32.49097 5.013775 9.115186 0.8229196 0.415065 -0.3879748 0.6761068 0.367513
24.07234 -1.023969 -28.25851 0.2124137 -0.9542027 -0.2106599 0.7099609 0.3583984
27.0277 4.645575 -28.75801 0.9143444 0.1164416 -0.3878348 0.7102864 0.3632812
25.85332 4.936792 -24.35294 0.956488 0.2500212 0.1504 0.7070312 0.3655599
23.73529 1.149716 -24.68426 0.2288843 -0.9167455 0.3273985 0.7070312 0.3606771
22.49567 9.63804 -27.21241 -0.05335835 0.9949978 -0.08445315 0.7125651 0.3684896
22.942 6.244715 -23.23672 -0.1788698 0.8791186 0.4417649 0.7073568 0.3691406
17.94875 3.842856 -25.25323 -0.9599109 -0.09694172 0.2630086 0.7096354 0.3733724
21.00133 4.074332 -31.72533 -0.3689073 -0.006017852 -0.9294468 0.7154948 0.3746745
20.898 3.339779 -23.28665 -0.7728027 -0.3148371 0.5510477 0.7073568 0.3733724
29.98282 5.934023 9.512587 -0.3041188 0.9405392 -0.1513208 0.6764323 0.3704427
30.56373 7.819283 13.55223 -0.1175933 0.973689 0.1951965 0.6715495 0.3707682
28.19279 3.141072 9.419579 -0.9989486 0.02140238 -0.04054028 0.6770833 0.3740234
26.77899 2.858311 13.92826 -0.9564281 -0.02967549 0.2904559 0.6735026 0.375
31.49132 3.369223 17.45389 0.1515277 0.001361678 0.9884521 0.6686198 0.3759766
35.81372 9.625289 -15.0096 -0.2273268 0.1427895 -0.9632931 0.6744792 0.3440755
38.57637 3.523997 -10.45521 0.3136683 -0.9474515 -0.06283186 0.6731771 0.3375651
34.4642 5.073037 -9.091084 -0.1866373 -0.9775652 0.09763691 0.6774089 0.3395182
32.85306 9.456499 -11.6136 -0.589084 0.3175945 -0.7430436 0.6774089 0.3447266
-0.9055519 -2.626951 3.167017 -0.07493722 -0.982136 -0.1726075 0.7115886 0.3359375
-2.879903 2.781939 0.3433065 -0.552724 0.02078079 -0.8331053 0.7115886 0.3411458
1.542598 3.857449 0.7348995 -0.06111972 0.2431004 -0.9680737 0.7083333 0.3427734
2.241122 0.1351223 2.878299 0.4375776 -0.8537315 -0.282256 0.7083333 0.3385417
-1.472794 8.099522 4.538102 -0.2455583 0.9670487 0.06721602 0.7138672 0.3457031
2.895908 5.424176 3.408175 0.3063782 0.9467015 0.09944224 0.7086589 0.3466797
2.211191 2.864509 8.675718 0.4360667 -0.02154933 0.8996564 0.7109375 0.3505859
-4.627985 1.893634 6.793387 -0.8372886 -0.1537473 0.5246996 0.7167969 0.3522135
3.701488 2.616466 5.429753 0.7212594 -0.1925137 0.6653746 0.7086589 0.3505859
33.50758 10.50636 -9.212554 -0.2580746 0.9095438 0.3257725 0.6777344 0.3476562
36.9987 13.03628 -10.48611 0.04033865 0.9958229 0.0819122 0.6728516 0.3479818
34.2085 7.793901 -7.433545 0.1277978 0.04426721 0.9908119 0.6783854 0.351237
38.87214 8.329122 -6.824172 0.4504128 0.04928946 0.8914588 0.6748047 0.3525391
41.39687 9.293076 -12.07711 0.9324976 0.1658076 -0.3208676 0.6699219 0.3531901
19.60568 3.89159 11.97042 0.2424079 -0.9094905 -0.3377358 0.6845703 0.3958333
15.93288 3.089518 15.51181 0.001126055 -0.9871858 -0.1595715 0.6748047 0.398112
28.69961 1.729973 22.19408 0.8324237 -0.5526545 0.04054401 0.7024739 0.3847656
25.9498 1.262722 25.98495 0.5436463 -0.6943937 0.4714511 0.7086589 0.3844401
-1.561259 16.7111 -1.07968 -0.670488 0.3217336 -0.6685307 0.7259114 0.4388021
-0.4046888 7.480872 -1.339841 -0.603898 -0.3646848 -0.7087399 0.7399089 0.4339193
12.10662 0.2931166 10.94202 0.2260934 -0.9703864 0.08504128 0.7454427 0.4052734
4.754039 -0.3309765 2.934426 -0.1949943 -0.9129839 -0.3583818 0.7483724 0.4199219
19.53761 -0.6645212 18.77622 -0.08407223 -0.9652066 -0.247605 0.7311198 0.3860677
25.9498 1.262722 25.98495 0.5436463 -0.6943937 0.4714511 0.7207031 0.3808594
15.93288 3.089518 15.51181 0.001126055 -0.9871858 -0.1595715 0.7363281 0.391276
12.09691 2.754222 18.9538 -0.201186 -0.9766919 0.07481432 0.7324219 0.3958333
15.93288 3.089518 15.51181 0.001126055 -0.9871858 -0.1595715 0.7421875 0.398112
21.9766 0.7116594 28.4467 0.07920541 -0.6667594 0.7410523 0.7145182 0.3847656
-13.10668 3.420911 17.43435 0.3047334 -0.9506894 -0.05768258 0.6845703 0.4544271
-18.26523 3.188715 17.5324 -3.248257e-05 -0.9959076 -0.09037782 0.6748047 0.4563802
-13.64649 1.660109 31.16402 0.5174544 -0.5978361 0.612236 0.7024739 0.4430338
-18.26523 1.725764 32.0659 -1.418299e-05 -0.6799324 0.7332748 0.7086589 0.4427083
-18.26523 16.26752 -6.876925 3.467574e-07 0.2991511 -0.9542058 0.7259114 0.4970703
-18.26523 6.999179 -6.040015 -1.287884e-05 -0.3908361 -0.9204603 0.7399089 0.4921875
-18.26523 0.2222929 11.65503 -1.775299e-05 -0.9704251 0.2414027 0.7454427 0.4635417
-18.26523 -0.6863241 0.8039503 -1.940639e-05 -0.9284898 -0.3713578 0.7483724 0.4785156
-18.26523 -0.4618959 22.47369 -2.971281e-05 -0.9769662 -0.2133943 0.7311198 0.4443359
-18.26523 1.725764 32.0659 -1.418299e-05 -0.6799324 0.7332748 0.7207031 0.4391276
-18.26523 3.188715 17.5324 -3.248257e-05 -0.9959076 -0.09037782 0.7363281 0.4495443
-23.42379 3.421249 17.43446 -0.3047655 -0.9506792 -0.0576808 0.7324219 0.4544271
-18.26523 3.188715 17.5324 -3.248257e-05 -0.9959076 -0.09037782 0.7421875 0.4563802
-22.88398 1.660446 31.16412 -0.5174723 -0.5978154 0.6122411 0.7145182 0.4430338
2.015691 3.974303 -22.93839 0.07898286 -0.9474108 -0.3101201 0.7669271 0.4544271
1.239756 3.673332 -17.84118 -0.001873315 -0.9998756 -0.01566259 0.7568359 0.4563802
15.5454 3.390467 -20.02265 0.7422585 -0.5351806 -0.4032792 0.7848307 0.4430338
15.62549 3.463377 -15.31747 0.7786447 -0.6144067 0.1273459 0.7910156 0.4427083
-23.84715 14.60728 -22.07982 -0.9622061 0.2161119 -0.1656962 0.8079427 0.4970703
-22.21831 5.446044 -21.93449 -0.8689658 -0.4683534 -0.1598237 0.8222656 0.4921875
-4.267758 0.2137346 -18.86178 0.3214054 -0.9460127 0.04193647 0.8274739 0.4635417
-14.83413 -1.622785 -20.74606 -0.2834048 -0.9568311 -0.0644669 0.8307292 0.4785156
6.405626 0.4607286 -16.98314 -0.1242099 -0.9915649 -0.03702681 0.8131511 0.4443359
15.62549 3.463377 -15.31747 0.7786447 -0.6144067 0.1273459 0.8030599 0.4391276
1.239756 3.673332 -17.84118 -0.001873315 -0.9998756 -0.01566259 0.8186849 0.4495443
0.2310304 3.818501 -12.77801 -0.02645208 -0.9566249 0.2901192 0.8144531 0.4544271
1.239756 3.673332 -17.84118 -0.001873315 -0.9998756 -0.01566259 0.8245443 0.4563802
13.9475 3.251003 -10.92548 0.5632321 -0.550824 0.6159242 0.796875 0.4430338
24.07234 -1.023969 -28.25851 0.2124137 -0.9542027 -0.2106599 0.711263 0.3798828
21.00133 4.074332 -31.72533 -0.3689073 -0.006017852 -0.9294468 0.7158203 0.3616537
23.73529 1.149716 -24.68426 0.2288843 -0.9167455 0.3273985 0.7080078 0.3772787
29.86345 0.4171476 9.490108 -0.03475874 -0.9303038 -0.3651394 0.6770833 0.3769531
30.55034 -1.82243 13.45025 0.03680679 -0.9875253 0.1530985 0.6738281 0.3798828
31.49132 3.369223 17.45389 0.1515277 0.001361678 0.9884521 0.6679688 0.3658854
-0.9055519 -2.626951 3.167017 -0.07493722 -0.982136 -0.1726075 0.7125651 0.3574219
-4.627985 1.893634 6.793387 -0.8372886 -0.1537473 0.5246996 0.7171224 0.3395182
2.241122 0.1351223 2.878299 0.4375776 -0.8537315 -0.282256 0.7093099 0.3544922
34.4642 5.073037 -9.091084 -0.1866373 -0.9775652 0.09763691 0.6783854 0.3544922
38.57637 3.523997 -10.45521 0.3136683 -0.9474515 -0.06283186 0.6751302 0.3570963
41.39687 9.293076 -12.07711 0.9324976 0.1658076 -0.3208676 0.6692708 0.343099
3 0 1 2 
3 2 3 0 
3 4 5 6 
3 7 8 9 
3 9 10 7 
3 10 9 11 
3 11 12 10 
3 9 8 0 
3 0 13 9 
3 0 8 1 
3 14 0 3 
3 15 16 14 
3 14 17 15 
3 18 12 11 
3 11 19 18 
3 16 19 11 
3 11 13 16 
3 11 9 13 
3 20 18 19 
3 19 15 20 
3 21 22 17 
3 17 23 21 
3 15 17 22 
3 22 20 15 
3 13 0 14 
3 14 16 13 
3 19 16 15 
3 14 3 23 
3 3 5 23 
3 8 7 24 
3 24 1 8 
3 5 3 2 
3 25 26 5 
3 5 2 25 
3 27 28 29 
3 27 29 30 
3 30 31 27 
3 6 28 4 
3 29 26 32 
3 32 30 29 
3 26 29 6 
3 6 5 26 
3 29 28 6 
3 23 17 14 
3 33 32 25 
3 24 25 1 
3 2 1 25 
3 23 34 21 
3 35 36 37 
3 37 38 35 
3 39 231 38 
3 38 37 39 
3 21 34 232 
3 27 35 38 
3 38 28 27 
3 28 38 231 
3 231 4 28 
3 233 27 31 
3 31 234 233 
3 25 24 33 
3 32 26 25 
3 4 23 5 
3 23 4 34 
3 40 41 42 
3 42 43 40 
3 44 45 46 
3 7 10 47 
3 47 48 7 
3 10 12 49 
3 49 47 10 
3 47 50 40 
3 40 48 47 
3 40 43 48 
3 51 41 40 
3 52 53 51 
3 51 54 52 
3 235 55 49 
3 49 12 235 
3 54 50 49 
3 49 55 54 
3 49 50 47 
3 236 52 55 
3 55 235 236 
3 237 56 53 
3 53 238 237 
3 52 236 238 
3 238 53 52 
3 50 54 51 
3 51 40 50 
3 55 52 54 
3 51 56 41 
3 41 56 46 
3 48 43 24 
3 24 7 48 
3 46 42 41 
3 57 46 58 
3 46 57 42 
3 59 60 61 
3 59 31 30 
3 30 60 59 
3 45 44 61 
3 60 30 32 
3 32 58 60 
3 58 46 45 
3 45 60 58 
3 60 45 61 
3 56 51 53 
3 33 57 32 
3 24 43 57 
3 42 57 43 
3 56 237 62 
3 63 64 239 
3 239 240 63 
3 241 239 64 
3 64 242 241 
3 237 243 62 
3 59 61 64 
3 64 63 59 
3 61 44 242 
3 242 64 61 
3 244 234 31 
3 31 59 244 
3 57 33 24 
3 32 57 58 
3 44 46 56 
3 56 62 44 
3 65 66 67 
3 67 68 65 
3 69 70 71 
3 72 73 74 
3 74 75 72 
3 75 74 76 
3 76 77 75 
3 74 73 65 
3 65 78 74 
3 65 73 66 
3 79 65 68 
3 80 81 79 
3 79 82 80 
3 83 77 76 
3 76 84 83 
3 81 84 76 
3 76 78 81 
3 76 74 78 
3 85 83 84 
3 84 80 85 
3 86 87 82 
3 82 88 86 
3 80 82 87 
3 87 85 80 
3 78 65 79 
3 79 81 78 
3 84 81 80 
3 79 68 88 
3 68 70 88 
3 73 72 89 
3 89 66 73 
3 70 68 67 
3 90 91 70 
3 70 67 90 
3 92 93 94 
3 92 94 95 
3 95 96 92 
3 71 93 69 
3 94 91 97 
3 97 95 94 
3 91 94 71 
3 71 70 91 
3 94 93 71 
3 88 82 79 
3 98 97 90 
3 89 90 66 
3 67 66 90 
3 88 99 86 
3 100 101 102 
3 102 103 100 
3 104 245 103 
3 103 102 104 
3 86 99 246 
3 92 100 103 
3 103 93 92 
3 93 103 245 
3 245 69 93 
3 247 92 96 
3 96 248 247 
3 90 89 98 
3 97 91 90 
3 69 88 70 
3 88 69 99 
3 105 106 107 
3 107 108 105 
3 109 110 111 
3 72 75 112 
3 112 113 72 
3 75 77 114 
3 114 112 75 
3 112 115 105 
3 105 113 112 
3 105 108 113 
3 116 106 105 
3 117 118 116 
3 116 119 117 
3 249 120 114 
3 114 77 249 
3 119 115 114 
3 114 120 119 
3 114 115 112 
3 250 117 120 
3 120 249 250 
3 251 121 118 
3 118 252 251 
3 117 250 252 
3 252 118 117 
3 115 119 116 
3 116 105 115 
3 120 117 119 
3 116 121 106 
3 106 121 111 
3 113 108 89 
3 89 72 113 
3 111 107 106 
3 122 111 123 
3 111 122 107 
3 124 125 126 
3 124 96 95 
3 95 125 124 
3 110 109 126 
3 125 95 97 
3 97 123 125 
3 123 111 110 
3 110 125 123 
3 125 110 126 
3 121 116 118 
3 98 122 97 
3 89 108 122 
3 107 122 108 
3 121 251 127 
3 128 129 253 
3 253 254 128 
3 255 253 129 
3 129 256 255 
3 251 257 127 
3 124 126 129 
3 129 128 124 
3 126 109 256 
3 256 129 126 
3 258 248 96 
3 96 124 258 
3 122 98 89 
3 97 122 123 
3 109 111 121 
3 121 127 109 
3 130 131 132 
3 132 133 130 
3 134 135 136 
3 137 138 139 
3 139 140 137 
3 140 139 141 
3 141 142 140 
3 139 138 130 
3 130 143 139 
3 130 138 131 
3 144 130 133 
3 145 146 144 
3 144 147 145 
3 148 142 141 
3 141 149 148 
3 146 149 141 
3 141 143 146 
3 141 139 143 
3 150 148 149 
3 149 145 150 
3 151 152 147 
3 147 153 151 
3 145 147 152 
3 152 150 145 
3 143 130 144 
3 144 146 143 
3 149 146 145 
3 144 133 153 
3 133 135 153 
3 138 137 154 
3 154 131 138 
3 135 133 132 
3 155 156 135 
3 135 132 155 
3 157 158 159 
3 157 159 160 
3 160 161 157 
3 136 158 134 
3 159 156 162 
3 162 160 159 
3 156 159 136 
3 136 135 156 
3 159 158 136 
3 153 147 144 
3 163 162 155 
3 154 155 131 
3 132 131 155 
3 153 164 151 
3 165 166 167 
3 167 168 165 
3 169 259 168 
3 168 167 169 
3 151 164 260 
3 157 165 168 
3 168 158 157 
3 158 168 259 
3 259 134 158 
3 261 157 161 
3 161 262 261 
3 155 154 163 
3 162 156 155 
3 134 153 135 
3 153 134 164 
3 170 171 172 
3 172 173 170 
3 174 175 176 
3 137 140 177 
3 177 178 137 
3 140 142 179 
3 179 177 140 
3 177 180 170 
3 170 178 177 
3 170 173 178 
3 181 171 170 
3 182 183 181 
3 181 184 182 
3 263 185 179 
3 179 142 263 
3 184 180 179 
3 179 185 184 
3 179 180 177 
3 264 182 185 
3 185 263 264 
3 265 186 183 
3 183 266 265 
3 182 264 266 
3 266 183 182 
3 180 184 181 
3 181 170 180 
3 185 182 184 
3 181 186 171 
3 171 186 176 
3 178 173 154 
3 154 137 178 
3 176 172 171 
3 187 176 188 
3 176 187 172 
3 189 190 191 
3 189 161 160 
3 160 190 189 
3 175 174 191 
3 190 160 162 
3 162 188 190 
3 188 176 175 
3 175 190 188 
3 190 175 191 
3 186 181 183 
3 163 187 162 
3 154 173 187 
3 172 187 173 
3 186 265 192 
3 193 194 267 
3 267 268 193 
3 269 267 194 
3 194 270 269 
3 265 271 192 
3 189 191 194 
3 194 193 189 
3 191 174 270 
3 270 194 191 
3 272 262 161 
3 161 189 272 
3 187 163 154 
3 162 187 188 
3 174 176 186 
3 186 192 174 
3 195 196 197 
3 197 198 195 
3 199 200 201 
3 201 202 199 
3 203 204 201 
3 201 200 203 
3 273 205 206 
3 204 203 205 
3 205 207 204 
3 274 200 199 
3 208 209 195 
3 195 198 208 
3 208 204 207 
3 207 210 208 
3 207 275 276 
3 276 210 207 
3 200 274 203 
3 275 207 205 
3 205 273 275 
3 203 206 205 
3 211 209 208 
3 208 210 211 
3 211 210 276 
3 276 277 211 
3 209 211 212 
3 196 195 278 
3 211 277 212 
3 195 209 278 
3 202 201 198 
3 198 197 202 
3 198 201 204 
3 204 208 198 
3 213 214 215 
3 215 216 213 
3 217 218 219 
3 219 220 217 
3 221 222 219 
3 219 218 221 
3 279 223 224 
3 222 221 223 
3 223 225 222 
3 280 218 217 
3 226 227 213 
3 213 216 226 
3 226 222 225 
3 225 228 226 
3 225 281 282 
3 282 228 225 
3 218 280 221 
3 281 225 223 
3 223 279 281 
3 221 224 223 
3 229 227 226 
3 226 228 229 
3 229 228 282 
3 282 283 229 
3 227 229 230 
3 214 213 284 
3 229 283 230 
3 213 227 284 
3 220 219 216 
3 216 215 220 
3 216 219 222 
3 222 226 216 
