ply
format ascii 1.0
comment VCGLIB generated
comment TextureFile cemetery_halloween_atlas.png
element vertex 10
property float x
property float y
property float z
property float nx
property float ny
property float nz
property float texture_u
property float texture_v
element face 8
property list uchar int vertex_indices
end_header
-50 -50 0.9999978 -2.980232e-10 -4.380941e-08 1 0.08491842 0.1677074
0 -4.371139e-08 1 0 -4.351139e-08 1 0.1254276 0.2082166
-50 50 1.000002 -2.980232e-10 -4.321337e-08 1 0.08491842 0.2487258
50 -50 0.9999978 2.980232e-10 -4.380941e-08 1 0.1659368 0.1677074
50 50 1.000002 2.980232e-10 -4.321337e-08 1 0.1659368 0.2487258
-50 50 2.185569e-06 0 4.371139e-08 -1 0.08491842 0.2487258
0 0 0 0 4.371139e-08 -1 0.1254276 0.2082166
-50 -50 -2.185569e-06 0 4.371139e-08 -1 0.08491842 0.1677074
50 -50 -2.185569e-06 0 4.371139e-08 -1 0.1659368 0.1677074
50 50 2.185569e-06 0 4.371139e-08 -1 0.1659368 0.2487258
3 0 1 2 
3 0 3 1 
3 3 4 1 
3 1 4 2 
3 5 6 7 
3 6 8 7 
3 6 9 8 
3 5 9 6 
