ply
format ascii 1.0
comment VCGLIB generated
comment TextureFile cemetery_halloween_atlas.png
element vertex 10
property float x
property float y
property float z
property float nx
property float ny
property float nz
property float texture_u
property float texture_v
element face 8
property list uchar int vertex_indices
end_header
-50.10088 50.10088 0.9897724 -0.1007837 0.1007837 0.9897906 0.08458527 0.3320983
0 -4.892459e-07 11.19264 0 -4.64857e-08 1 0.1250944 0.2915891
50.10088 50.10088 0.9897724 0.1007837 0.1007837 0.9897906 0.1656036 0.3320983
-50.10088 -50.10088 0.9897679 -0.1007837 -0.1007838 0.9897906 0.08458527 0.25108
50.10088 -50.10088 0.9897679 0.1007837 -0.1007838 0.9897906 0.1656036 0.25108
50 50 2.185569e-06 -0.1008837 -0.1008837 -0.9897702 0.1656036 0.3320983
0 -4.455345e-07 10.19264 0 4.035361e-08 -1 0.1250944 0.2915891
-50 50 2.185569e-06 0.1008837 -0.1008837 -0.9897702 0.08458527 0.3320983
-50 -50 -2.185569e-06 0.1008837 0.1008838 -0.9897702 0.08458527 0.25108
50 -50 -2.185569e-06 -0.1008837 0.1008838 -0.9897702 0.1656036 0.25108
3 0 1 2 
3 0 3 1 
3 3 4 1 
3 1 4 2 
3 5 6 7 
3 6 8 7 
3 6 9 8 
3 5 9 6 
