ply
format ascii 1.0
comment VCGLIB generated
comment TextureFile cemetery_halloween_atlas.png
element vertex 10
property float x
property float y
property float z
property float nx
property float ny
property float nz
property float texture_u
property float texture_v
element face 8
property list uchar int vertex_indices
end_header
-50.12154 -50.12154 0.9851146 -0.1213977 -0.1213978 0.9851524 0.001246513 0.1681531
-7.821185e-09 -5.830141e-07 13.33781 0 -3.484982e-08 1 0.04175568 0.2086623
-50.12154 50.12154 0.985119 -0.1213977 0.1213977 0.9851524 0.001246513 0.2491715
50.12154 -50.12154 0.9851146 0.1213977 -0.1213978 0.9851524 0.08226486 0.1681531
50.12154 50.12154 0.985119 0.1213977 0.1213977 0.9851524 0.08226486 0.2491715
-50 50 2.185569e-06 0.1215418 -0.1215418 -0.9851169 0.001246513 0.2491715
0 -5.393027e-07 12.33781 0 2.987473e-08 -1 0.04175568 0.2086623
-50 -50 -2.185569e-06 0.1215418 0.1215418 -0.9851168 0.001246513 0.1681531
50 -50 -2.185569e-06 -0.1215418 0.1215418 -0.9851168 0.08226486 0.1681531
50 50 2.185569e-06 -0.1215418 -0.1215418 -0.9851169 0.08226486 0.2491715
3 0 1 2 
3 0 3 1 
3 3 4 1 
3 1 4 2 
3 5 6 7 
3 6 8 7 
3 6 9 8 
3 5 9 6 
