ply
format ascii 1.0
comment VCGLIB generated
comment TextureFile cemetery_halloween_atlas.png
element vertex 10
property float x
property float y
property float z
property float nx
property float ny
property float nz
property float texture_u
property float texture_v
element face 8
property list uchar int vertex_indices
end_header
-50.10221 50.10221 0.9895008 -0.1021047 0.1021047 0.9895197 0.001246513 0.3320983
0 -4.990705e-07 11.3292 0 -5.142365e-08 1 0.04175568 0.2915891
50.10221 50.10221 0.9895008 0.1021047 0.1021047 0.9895197 0.08226486 0.3320983
-50.10221 -50.10221 0.9894964 -0.1021047 -0.1021048 0.9895197 0.001246513 0.25108
50.10221 -50.10221 0.9894964 0.1021047 -0.1021048 0.9895197 0.08226486 0.25108
50 50 2.185569e-06 -0.1022073 -0.1022073 -0.9894986 0.08226486 0.3320983
0 -4.515039e-07 10.3292 -4.908635e-09 4.037966e-08 -1 0.04175568 0.2915891
-50 50 2.185569e-06 0.1022073 -0.1022073 -0.9894986 0.001246513 0.3320983
-50 -50 -2.185569e-06 0.1022073 0.1022074 -0.9894986 0.001246513 0.25108
50 -50 -2.185569e-06 -0.1022073 0.1022074 -0.9894986 0.08226486 0.25108
3 0 1 2 
3 0 3 1 
3 3 4 1 
3 1 4 2 
3 5 6 7 
3 6 8 7 
3 6 9 8 
3 5 9 6 
