ply
format ascii 1.0
comment VCGLIB generated
comment TextureFile table_A_d.png
element vertex 162
property float x
property float y
property float z
property float nx
property float ny
property float nz
property float texture_u
property float texture_v
element face 132
property list uchar int vertex_indices
end_header
0 38.33063 -16.75 -7.217438e-09 0.6657189 -0.7462027 0.926896 0.7605356
0 33.66938 -16.75 7.217439e-09 -0.6657189 -0.7462027 0.9084538 0.7605481
-6.409947 33.66938 -15.47498 -0.2855594 -0.6657189 -0.6894013 0.908438 0.7346701
-6.409947 38.33063 -15.47498 -0.2855594 0.6657189 -0.6894013 0.92688 0.7346606
-11.84404 33.66938 -11.84404 -0.5276449 -0.6657189 -0.5276449 0.9084275 0.7087983
-11.84404 38.33063 -11.84404 -0.527645 0.6657189 -0.527645 0.9268693 0.7087902
-15.47498 33.66938 -6.409947 -0.6894013 -0.665719 -0.2855594 0.9084167 0.6829306
-15.47498 38.33063 -6.409947 -0.6894013 0.665719 -0.2855594 0.9268591 0.6829212
-16.75 33.66938 0 -0.7462027 -0.6657189 -7.217438e-09 0.9084038 0.6570649
-16.75 38.33063 0 -0.7462026 0.6657189 5.413078e-09 0.9268459 0.6570555
-15.47498 33.66938 6.409947 -0.6894013 -0.665719 0.2855594 0.9083899 0.6312026
-15.47498 38.33063 6.409947 -0.6894013 0.6657189 0.2855594 0.926832 0.6311939
-11.84404 33.66938 11.84404 -0.5276449 -0.6657189 0.5276449 0.9083765 0.605345
-11.84404 38.33063 11.84404 -0.5276449 0.6657189 0.527645 0.9268188 0.6053345
-6.409947 33.66938 15.47498 -0.2855594 -0.6657189 0.6894013 0.9083613 0.5794886
-6.409947 38.33063 15.47498 -0.2855594 0.6657189 0.6894013 0.9268034 0.5794781
0 33.66938 16.75 -7.217438e-09 -0.6657189 0.7462027 0.9083472 0.5536319
0 38.33063 16.75 5.413078e-09 0.6657189 0.7462027 0.9267893 0.5536214
6.409947 33.66938 15.47498 0.2855594 -0.6657189 0.6894013 0.9084094 0.9416484
6.409947 38.33063 15.47498 0.2855594 0.6657189 0.6894013 0.9268507 0.9416815
11.84404 33.66938 11.84404 0.527645 -0.6657189 0.527645 0.9084548 0.9157861
11.84404 38.33063 11.84404 0.5276449 0.6657189 0.5276449 0.9268962 0.915814
15.47498 33.66938 6.409947 0.6894013 -0.6657189 0.2855594 0.9084904 0.8899223
15.47498 38.33063 6.409947 0.6894013 0.665719 0.2855594 0.9269323 0.8899428
16.75 33.66938 0 0.7462026 -0.6657189 7.217438e-09 0.9085087 0.8640536
16.75 38.33063 0 0.7462027 0.6657189 -5.413078e-09 0.9269512 0.8640606
15.47498 33.66938 -6.409947 0.6894013 -0.665719 -0.2855594 0.9085081 0.8381815
15.47498 38.33063 -6.409947 0.6894013 0.665719 -0.2855594 0.9269501 0.838179
11.84404 33.66938 -11.84404 0.527645 -0.6657189 -0.527645 0.9084957 0.8123053
11.84404 38.33063 -11.84404 0.5276449 0.6657189 -0.5276449 0.9269383 0.8122941
6.409947 33.66938 -15.47498 0.2855594 -0.6657189 -0.6894013 0.9084743 0.7864265
6.409947 38.33063 -15.47498 0.2855594 0.6657189 -0.6894013 0.9269167 0.7864124
12.3 -2.431869e-06 -5.699998 0.5994244 -0.5643743 0.5676022 0.4260377 0.02611864
5.699998 -2.431869e-06 -5.699998 -0.571908 -0.5880839 0.5719078 0.3999194 0.02611795
5.699998 -2.431869e-06 -12.3 -0.5676022 -0.5643743 -0.5994242 0.3999195 0
12.3 -2.431869e-06 -12.3 0.5941767 -0.5421329 -0.5941769 0.4260378 3.874302e-07
10 34.2 -5.000001 0.6863509 0.03128632 0.7265973 0.7993249 0.3863921
5.000001 34.2 -5.000001 -0.7068107 -0.02893365 0.7068108 0.8189838 0.3841471
5.000001 34.2 -10 -0.7265972 0.03128633 -0.6863511 0.7598404 0.3863909
10 34.2 -10 0.7039303 0.09468072 -0.7039301 0.7795827 0.387716
-5.699998 -1.788139e-06 -12.3 0.567602 -0.5643743 -0.5994244 0.5616184 0.6214119
-5.699998 -1.788139e-06 -5.699998 0.5719075 -0.5880839 0.5719083 0.5616184 0.64753
-12.3 -1.788139e-06 -5.700004 -0.5994248 -0.5643743 0.5676016 0.5355002 0.64753
-12.3 -1.788139e-06 -12.3 -0.5941766 -0.5421329 -0.594177 0.5355002 0.6214119
-4.999995 34.2 -10 0.7265977 0.03128631 -0.6863505 0.8332197 0.849625
-5.000001 34.2 -5.000001 0.7068104 -0.02893376 0.7068111 0.8528783 0.8473799
-10 34.2 -5.000001 -0.6863515 0.03128625 0.7265968 0.7937356 0.8496251
-9.999996 34.2 -10 -0.7039297 0.09468072 -0.7039307 0.8134776 0.8509498
-5.700004 -1.788139e-06 12.3 0.5676016 -0.5643743 0.5994248 0.3469489 0.8283044
-12.3 -1.788139e-06 12.3 -0.594177 -0.5421329 0.5941766 0.3208306 0.8283044
-12.3 -1.788139e-06 5.699998 -0.5994244 -0.5643743 -0.567602 0.3208307 0.8021862
-5.699998 -1.788139e-06 5.699998 0.5719083 -0.5880839 -0.5719075 0.3469489 0.8021863
-10 34.2 4.999995 -0.6863505 0.03128631 -0.7265977 0.6581535 0.9846549
-5.000001 34.2 5.000001 0.7068111 -0.02893376 -0.7068104 0.6384947 0.9869
-5.000001 34.2 10 0.7265968 0.03128625 0.6863515 0.6976374 0.9846551
-10 34.2 9.999996 -0.7039307 0.09468072 0.7039297 0.6778954 0.9833303
5.699998 -1.788139e-06 12.3 -0.567602 -0.5643743 0.5994244 0.6258873 0.218191
5.699998 -1.788139e-06 5.699998 -0.5719075 -0.5880839 -0.5719083 0.6258873 0.1920727
12.3 -1.788139e-06 5.700004 0.5994248 -0.5643743 -0.5676016 0.6520056 0.1920727
12.3 -1.788139e-06 12.3 0.5941766 -0.5421329 0.594177 0.6520056 0.218191
4.999995 34.2 10 -0.7265977 0.03128631 0.6863505 0.8954228 0.5214195
5.000001 34.2 5.000001 -0.7068104 -0.02893376 -0.7068111 0.8757643 0.5236647
10 34.2 5.000001 0.6863515 0.03128625 -0.7265968 0.9349067 0.5214195
9.999996 34.2 10 0.7039297 0.09468072 0.7039307 0.9151647 0.5200949
-5.775222 17.2875 -9.821248 0 -0.7071068 -0.7071068 0.1941241 0.9264686
5.775222 17.2875 -9.821248 0 -0.7071067 -0.7071068 0.1941241 0.9721773
5.775222 17.2875 -7.578749 0 -0.7071068 0.7071068 0.1852499 0.9721773
-5.775222 17.2875 -7.578749 0 -0.7071067 0.7071068 0.1852498 0.9264686
-5.775222 19.7125 -9.821248 0 0.7071068 -0.7071068 0.2037206 0.9264686
5.775222 19.7125 -9.821248 0 0.7071068 -0.7071068 0.2037207 0.9721773
5.775222 19.7125 -7.578749 0 0.7071068 0.7071068 0.2125948 0.9721773
-5.775222 19.7125 -7.578749 0 0.7071068 0.7071068 0.2125948 0.9264686
-5.775222 17.2875 9.821248 0 -0.7071068 0.7071068 0.07773626 0.9264686
-5.775222 17.2875 7.578749 0 -0.7071067 -0.7071068 0.08661053 0.9264686
5.775222 17.2875 7.578749 0 -0.7071068 -0.7071068 0.08661056 0.9721771
5.775222 17.2875 9.821248 0 -0.7071067 0.7071068 0.07773629 0.9721771
-5.775222 19.7125 9.821248 0 0.7071068 0.7071068 0.06813979 0.9264686
5.775222 19.7125 9.821248 0 0.7071068 0.7071068 0.06813982 0.972177
5.775222 19.7125 7.578749 0 0.7071068 -0.7071068 0.05926558 0.9721774
-5.775222 19.7125 7.578749 0 0.7071068 -0.7071068 0.05926549 0.9264686
-9.821248 17.2875 5.775222 -0.7071068 -0.7071068 0 0.2811074 0.9721771
-9.821248 17.2875 -5.775222 -0.7071068 -0.7071067 0 0.2811071 0.9264686
-7.578749 17.2875 -5.775222 0.7071068 -0.7071068 0 0.2899813 0.9264686
-7.578749 17.2875 5.775222 0.7071068 -0.7071067 0 0.2899817 0.9721771
-9.821248 19.7125 5.775222 -0.7071068 0.7071068 0 0.2715108 0.9721779
-9.821248 19.7125 -5.775222 -0.7071068 0.7071068 0 0.2715108 0.9264688
-7.578749 19.7125 -5.775222 0.7071068 0.7071068 0 0.2626365 0.9264688
-7.578749 19.7125 5.775222 0.7071068 0.7071068 0 0.2626367 0.972178
9.821248 17.2875 5.775222 0.7071068 -0.7071068 0 0.1263338 0.9721771
7.578749 17.2875 5.775222 -0.7071068 -0.7071067 0 0.1174596 0.972177
7.578749 17.2875 -5.775222 -0.7071068 -0.7071068 0 0.1174594 0.9264686
9.821248 17.2875 -5.775222 0.7071068 -0.7071067 0 0.1263337 0.9264686
9.821248 19.7125 5.775222 0.7071068 0.7071068 0 0.1359303 0.9721771
9.821248 19.7125 -5.775222 0.7071068 0.7071068 0 0.1359302 0.9264686
7.578749 19.7125 -5.775222 -0.7071068 0.7071068 0 0.1448044 0.9264686
7.578749 19.7125 5.775222 -0.7071068 0.7071068 0 0.1448047 0.9721771
0 38.33063 16.75 5.413078e-09 0.6657189 0.7462027 0.9267985 0.9675407
0 33.66938 16.75 -7.217438e-09 -0.6657189 0.7462027 0.9083558 0.9675053
5.699998 -2.431869e-06 -5.699998 -0.571908 -0.5880839 0.5719078 0.8315905 0.5189561
12.3 -2.431869e-06 -5.699998 0.5994244 -0.5643743 0.5676022 0.8056408 0.5219192
5.699998 -2.431869e-06 -12.3 -0.5676022 -0.5643743 -0.5994242 0.7535225 0.5219173
5.699998 -2.431869e-06 -5.699998 -0.571908 -0.5880839 0.5719078 0.7275729 0.5189535
5.000001 34.2 -5.000001 -0.7068107 -0.02893365 0.7068108 0.7401816 0.3841455
12.3 -2.431869e-06 -12.3 0.5941767 -0.5421329 -0.5941769 0.7795817 0.5236669
-5.699998 -1.788139e-06 -5.699998 0.5719075 -0.5880839 0.5719083 0.8654864 0.9821886
-5.699998 -1.788139e-06 -12.3 0.567602 -0.5643743 -0.5994244 0.8395368 0.985152
-12.3 -1.788139e-06 -5.700004 -0.5994248 -0.5643743 0.5676016 0.7874176 0.9851516
-5.699998 -1.788139e-06 -5.699998 0.5719075 -0.5880839 0.5719083 0.7614681 0.9821878
-5.000001 34.2 -5.000001 0.7068104 -0.02893376 0.7068111 0.7740768 0.8473798
-12.3 -1.788139e-06 -12.3 -0.5941766 -0.5421329 -0.594177 0.8134772 0.9869003
-5.699998 -1.788139e-06 5.699998 0.5719083 -0.5880839 -0.5719075 0.6258873 0.8520917
-12.3 -1.788139e-06 5.699998 -0.5994244 -0.5643743 -0.567602 0.6518369 0.8491281
-5.700004 -1.788139e-06 12.3 0.5676016 -0.5643743 0.5994248 0.7039562 0.8491287
-5.699998 -1.788139e-06 5.699998 0.5719083 -0.5880839 -0.5719075 0.7299058 0.8520926
-5.000001 34.2 5.000001 0.7068111 -0.02893376 -0.7068104 0.7172962 0.9869006
-12.3 -1.788139e-06 12.3 -0.594177 -0.5421329 0.5941766 0.6778966 0.8473798
5.699998 -1.788139e-06 5.699998 -0.5719075 -0.5880839 -0.5719083 0.8631537 0.3888564
5.699998 -1.788139e-06 12.3 -0.567602 -0.5643743 0.5994244 0.8891045 0.385893
12.3 -1.788139e-06 5.700004 0.5994248 -0.5643743 -0.5676016 0.9412241 0.385894
5.699998 -1.788139e-06 5.699998 -0.5719075 -0.5880839 -0.5719083 0.9671736 0.3888575
5.000001 34.2 5.000001 -0.7068104 -0.02893376 -0.7068111 0.9545653 0.5236647
12.3 -1.788139e-06 12.3 0.5941766 -0.5421329 0.594177 0.9151647 0.3841455
-5.775222 17.2875 -7.578749 0 -0.7071067 0.7071068 0.2221913 0.9264686
5.775222 17.2875 -7.578749 0 -0.7071068 0.7071068 0.2221912 0.9721773
5.775222 17.2875 7.578749 0 -0.7071068 -0.7071068 0.04966906 0.9721774
-5.775222 17.2875 7.578749 0 -0.7071067 -0.7071068 0.04966906 0.9264686
-7.578749 17.2875 5.775222 0.7071068 -0.7071067 0 0.2530402 0.972178
-7.578749 17.2875 -5.775222 0.7071068 -0.7071068 0 0.2530402 0.926469
7.578749 17.2875 -5.775222 -0.7071068 -0.7071068 0 0.1544009 0.9264686
7.578749 17.2875 5.775222 -0.7071068 -0.7071067 0 0.1544012 0.9721771
-16.75 38.33063 0 -0.7462026 0.6657189 5.413078e-09 0.5448872 0.8687093
-15.47498 38.33063 6.409947 -0.6894013 0.6657189 0.2855594 0.5701851 0.8740864
15.47498 38.33063 6.409947 0.6894013 0.665719 0.2855594 0.5685818 0.9965539
16.75 38.33063 0 0.7462027 0.6657189 -5.413078e-09 0.5431519 1.001267
-11.84404 38.33063 11.84404 -0.5276449 0.6657189 0.527645 0.5914996 0.8887351
11.84404 38.33063 11.84404 0.5276449 0.6657189 0.5276449 0.5902723 0.9824677
-6.409947 38.33063 15.47498 -0.2855594 0.6657189 0.6894013 0.6055856 0.9104255
6.409947 38.33063 15.47498 0.2855594 0.6657189 0.6894013 0.6049213 0.9611533
0 38.33063 16.75 5.413078e-09 0.6657189 0.7462027 0.6102987 0.9358553
15.47498 38.33063 -6.409947 0.6894013 0.665719 -0.2855594 0.5178543 0.9958901
-15.47498 38.33063 -6.409947 -0.6894013 0.665719 -0.2855594 0.5194571 0.8734224
11.84404 38.33063 -11.84404 0.5276449 0.6657189 -0.5276449 0.4965394 0.9812412
-11.84404 38.33063 -11.84404 -0.527645 0.6657189 -0.527645 0.4977663 0.8875086
0 38.33063 -16.75 -7.217438e-09 0.6657189 -0.7462027 0.4777398 0.9341211
-6.409947 38.33063 -15.47498 -0.2855594 0.6657189 -0.6894013 0.4831173 0.9088231
6.409947 38.33063 -15.47498 0.2855594 0.6657189 -0.6894013 0.482453 0.959551
16.75 33.66938 0 0.7462026 -0.6657189 7.217438e-09 0.3861302 1.001272
-16.75 33.66938 0 -0.7462027 -0.6657189 -7.217438e-09 0.3855528 0.8687041
-15.47498 33.66938 -6.409947 -0.6894013 -0.665719 -0.2855594 0.4109406 0.8736389
15.47498 33.66938 -6.409947 0.6894013 -0.665719 -0.2855594 0.4114743 0.996116
-11.84404 33.66938 -11.84404 -0.5276449 -0.6657189 -0.5276449 0.4325072 0.8879135
11.84404 33.66938 -11.84404 0.527645 -0.6657189 -0.527645 0.432916 0.9816534
0 33.66938 -16.75 7.217439e-09 -0.6657189 -0.7462027 0.4521259 0.9346984
6.409947 33.66938 -15.47498 0.2855594 -0.6657189 -0.6894013 0.4471908 0.9600865
-6.409947 33.66938 -15.47498 -0.2855594 -0.6657189 -0.6894013 0.4469697 0.9093547
15.47498 33.66938 6.409947 0.6894013 -0.6657189 0.2855594 0.3607424 0.9963373
-15.47498 33.66938 6.409947 -0.6894013 -0.665719 0.2855594 0.3602087 0.8738605
11.84404 33.66938 11.84404 0.527645 -0.6657189 0.527645 0.3391756 0.9820625
-11.84404 33.66938 11.84404 -0.5276449 -0.6657189 0.5276449 0.3387671 0.8883229
6.409947 33.66938 15.47498 0.2855594 -0.6657189 0.6894013 0.3247132 0.9606211
-6.409947 33.66938 15.47498 -0.2855594 -0.6657189 0.6894013 0.3244921 0.9098896
0 33.66938 16.75 -7.217438e-09 -0.6657189 0.7462027 0.3195571 0.9352773
3 0 1 2 
3 0 2 3 
3 3 2 4 
3 3 4 5 
3 5 4 6 
3 5 6 7 
3 7 6 8 
3 7 8 9 
3 9 8 10 
3 9 10 11 
3 11 10 12 
3 11 12 13 
3 13 12 14 
3 13 14 15 
3 15 14 16 
3 15 16 17 
3 96 97 18 
3 96 18 19 
3 19 18 20 
3 19 20 21 
3 21 20 22 
3 21 22 23 
3 23 22 24 
3 23 24 25 
3 25 24 26 
3 25 26 27 
3 27 26 28 
3 27 28 29 
3 29 28 30 
3 29 30 31 
3 31 30 1 
3 31 1 0 
3 32 33 34 
3 32 34 35 
3 98 99 36 
3 98 36 37 
3 100 101 102 
3 100 102 38 
3 103 100 38 
3 103 38 39 
3 99 103 39 
3 99 39 36 
3 40 41 42 
3 40 42 43 
3 104 105 44 
3 104 44 45 
3 106 107 108 
3 106 108 46 
3 109 106 46 
3 109 46 47 
3 105 109 47 
3 105 47 44 
3 48 49 50 
3 48 50 51 
3 110 111 52 
3 110 52 53 
3 112 113 114 
3 112 114 54 
3 115 112 54 
3 115 54 55 
3 111 115 55 
3 111 55 52 
3 56 57 58 
3 56 58 59 
3 116 117 60 
3 116 60 61 
3 118 119 120 
3 118 120 62 
3 121 118 62 
3 121 62 63 
3 117 121 63 
3 117 63 60 
3 64 65 66 
3 64 66 67 
3 68 69 65 
3 68 65 64 
3 70 71 122 
3 70 122 123 
3 68 71 70 
3 68 70 69 
3 72 73 74 
3 72 74 75 
3 76 72 75 
3 76 75 77 
3 78 124 125 
3 78 125 79 
3 76 77 78 
3 76 78 79 
3 80 81 82 
3 80 82 83 
3 84 85 81 
3 84 81 80 
3 86 87 126 
3 86 126 127 
3 84 87 86 
3 84 86 85 
3 88 89 90 
3 88 90 91 
3 92 88 91 
3 92 91 93 
3 94 128 129 
3 94 129 95 
3 92 93 94 
3 92 94 95 
3 130 131 132 
3 130 132 133 
3 131 134 135 
3 131 135 132 
3 134 136 137 
3 134 137 135 
3 136 138 137 
3 130 133 139 
3 130 139 140 
3 140 139 141 
3 140 141 142 
3 143 144 145 
3 142 141 145 
3 142 145 144 
3 146 147 148 
3 146 148 149 
3 149 148 150 
3 149 150 151 
3 152 153 154 
3 151 150 154 
3 151 154 153 
3 146 155 156 
3 146 156 147 
3 155 157 158 
3 155 158 156 
3 157 159 160 
3 157 160 158 
3 159 161 160 
