ply
format ascii 1.0
comment VCGLIB generated
comment TextureFile table_A_d.png
element vertex 72
property float x
property float y
property float z
property float nx
property float ny
property float nz
property float texture_u
property float texture_v
element face 64
property list uchar int vertex_indices
end_header
-50 64.85001 -34.5 -0.5773503 -0.5773503 -0.5773503 0.2888273 0.4971482
50 64.85001 -34.5 0.5773503 -0.5773503 -0.5773503 0.288828 0.8928807
50 64.85001 34.5 0.5773503 -0.5773503 0.5773503 0.01577386 0.8928587
-50 64.85001 34.5 -0.5773503 -0.5773503 0.5773503 0.01577386 0.4971295
-50 74.75 -34.5 -0.5773503 0.5773503 -0.5773503 0.05495164 0.03917775
50 74.75 -34.5 0.5773503 0.5773503 -0.5773503 0.0549511 0.4349084
50 74.75 34.5 0.5773503 0.5773503 0.5773503 0.3280044 0.4349083
-50 74.75 34.5 -0.5773503 0.5773503 0.5773503 0.328005 0.03917724
-39.75 0 31 -0.5733772 -0.5564069 0.6013734 0.6694956 0.3922568
-39.75 0 10.33333 -0.5794223 -0.5874048 -0.5650005 0.6959304 0.3188912
-32.25 0 10.33333 0.5794224 -0.5874048 -0.5650004 0.7239043 0.3282298
-32.25 0 31 0.5733772 -0.5564069 0.6013735 0.6972523 0.4029006
-39.75 0 -10.33333 -0.5794224 -0.5874048 0.5650004 0.6928512 0.102454
-39.75 0 -31 -0.5733772 -0.5564069 -0.6013735 0.668946 0.02790108
-32.25 0 -31 0.5733772 -0.5564069 -0.6013734 0.6968356 0.01828733
-32.25 0 -10.33333 0.5794223 -0.5874048 0.5650005 0.7213121 0.09390143
-32.25 43.83335 8.628333 0.8999459 -0.3142342 -0.3022489 0.8956938 0.1093277
-32.25 65.75 25.885 0.7239497 0.05350521 0.6877747 0.9639833 0.02259678
-32.25 65.75 -25.885 0.7239497 0.05350521 -0.6877748 0.7591141 0.02259707
-32.25 43.83335 -8.628333 0.8999459 -0.3142341 0.3022488 0.8274039 0.1093279
-39.75 65.75 25.885 -0.7239497 0.05350521 0.6877748 0.4332445 0.3020507
-39.75 43.83335 8.628333 -0.8999459 -0.3142342 -0.3022488 0.5292729 0.2503824
-39.75 65.75 -25.885 -0.7239497 0.05350521 -0.6877747 0.4331842 0.1132295
-39.75 43.83335 -8.628333 -0.8999459 -0.3142342 0.3022489 0.525256 0.1653599
32.25 0 31 -0.5733772 -0.5564069 0.6013734 0.5952683 0.4363821
32.25 0 10.33333 -0.5794223 -0.5874048 -0.5650005 0.6196305 0.5120263
39.75 0 10.33333 0.5794224 -0.5874048 -0.5650004 0.5911577 0.5205331
39.75 0 31 0.5733772 -0.5564069 0.6013735 0.5673645 0.4459553
32.25 0 -10.33333 -0.5794224 -0.5874048 0.5650004 0.6222541 0.7458094
32.25 0 -31 -0.5733772 -0.5564069 -0.6013735 0.5956945 0.8205131
39.75 0 -31 0.5733772 -0.5564069 -0.6013734 0.5679236 0.8099052
39.75 0 -10.33333 0.5794223 -0.5874048 0.5650005 0.5942687 0.7365052
39.75 43.83335 8.628333 0.8999459 -0.3142342 -0.3022489 0.4234721 0.5831841
39.75 65.75 25.885 0.7239497 0.05350521 0.6877747 0.3314136 0.5309796
39.75 65.75 -25.885 0.7239497 0.05350521 -0.6877748 0.3315284 0.719937
39.75 43.83335 -8.628333 0.8999459 -0.3142341 0.3022488 0.4275202 0.6681997
32.25 65.75 25.885 -0.7239497 0.05350521 0.6877748 0.321153 0.503203
32.25 43.83335 8.628333 -0.8999459 -0.3142342 -0.3022488 0.7939271 0.7271261
32.25 65.75 -25.885 -0.7239497 0.05350521 -0.6877747 0.3208306 0.7475239
32.25 43.83335 -8.628333 -0.8999459 -0.3142342 0.3022489 0.7256457 0.7271237
50 64.85001 -34.5 0.5773503 -0.5773503 -0.5773503 0.01577386 0.4349083
-50 64.85001 -34.5 -0.5773503 -0.5773503 -0.5773503 0.01577443 0.03917766
50 64.85001 34.5 0.5773503 -0.5773503 0.5773503 0.3280044 0.4740856
50 64.85001 -34.5 0.5773503 -0.5773503 -0.5773503 0.05495119 0.4740856
-50 64.85001 34.5 -0.5773503 -0.5773503 0.5773503 0.3671822 0.03917709
50 64.85001 34.5 0.5773503 -0.5773503 0.5773503 0.3671833 0.4349067
-50 64.85001 -34.5 -0.5773503 -0.5773503 -0.5773503 0.05495164 5.066395e-07
-50 64.85001 34.5 -0.5773503 -0.5773503 0.5773503 0.3280049 0
-32.25 0 31 0.5733772 -0.5564069 0.6013735 0.9842261 0.2827894
-32.25 0 10.33333 0.5794224 -0.5874048 -0.5650004 0.9024418 0.2827897
-32.25 0 -31 0.5733772 -0.5564069 -0.6013734 0.7388713 0.2827891
-32.25 0 -10.33333 0.5794223 -0.5874048 0.5650005 0.8206556 0.2827896
-32.25 0 31 0.5733772 -0.5564069 0.6013735 0.659105 0.4199847
-32.25 65.75 25.885 0.7239497 0.05350521 0.6877747 0.4225162 0.3296258
-32.25 0 -31 0.5733772 -0.5564069 -0.6013734 0.659105 0
-32.25 65.75 -25.885 0.7239497 0.05350521 -0.6877748 0.4228827 0.08546448
-32.25 43.83335 8.628333 0.8999459 -0.3142342 -0.3022489 0.5554969 0.2310506
-32.25 0 10.33333 0.5794224 -0.5874048 -0.5650004 0.7074147 0.2916613
-32.25 43.83335 -8.628333 0.8999459 -0.3142341 0.3022488 0.5468777 0.186175
-32.25 0 -10.33333 0.5794223 -0.5874048 0.5650005 0.7037022 0.1284227
32.25 0 31 -0.5733772 -0.5564069 0.6013734 0.55756 0.4180407
32.25 0 31 -0.5733772 -0.5564069 0.6013734 0.8823816 0.5536214
32.25 65.75 25.885 -0.7239497 0.05350521 0.6877748 0.8622404 0.8138431
32.25 0 10.33333 -0.5794223 -0.5874048 -0.5650005 0.800596 0.5536603
32.25 0 -31 -0.5733772 -0.5564069 -0.6013735 0.5575599 0.8376461
32.25 65.75 -25.885 -0.7239497 0.05350521 -0.6877747 0.6573346 0.8138482
32.25 0 -31 -0.5733772 -0.5564069 -0.6013735 0.6371858 0.5536214
32.25 0 -10.33333 -0.5794224 -0.5874048 0.5650004 0.7189773 0.5536583
32.25 43.83335 8.628333 -0.8999459 -0.3142342 -0.3022488 0.445085 0.6040159
32.25 0 10.33333 -0.5794223 -0.5874048 -0.5650005 0.6019732 0.5465122
32.25 43.83335 -8.628333 -0.8999459 -0.3142342 0.3022489 0.4537337 0.6488476
32.25 0 -10.33333 -0.5794224 -0.5874048 0.5650004 0.6057181 0.7092606
3 0 1 2 
3 0 2 3 
3 4 5 40 
3 4 40 41 
3 5 6 42 
3 5 42 43 
3 6 7 44 
3 6 44 45 
3 7 4 46 
3 7 46 47 
3 4 7 6 
3 4 6 5 
3 8 9 10 
3 8 10 11 
3 12 13 14 
3 12 14 15 
3 48 49 16 
3 48 16 17 
3 50 18 19 
3 50 19 51 
3 8 52 53 
3 8 53 20 
3 8 20 21 
3 8 21 9 
3 54 13 22 
3 54 22 55 
3 13 12 23 
3 13 23 22 
3 21 56 57 
3 21 57 9 
3 23 58 56 
3 23 56 21 
3 12 59 58 
3 12 58 23 
3 18 17 16 
3 18 16 19 
3 20 22 23 
3 20 23 21 
3 24 25 26 
3 24 26 27 
3 28 29 30 
3 28 30 31 
3 27 26 32 
3 27 32 33 
3 30 34 35 
3 30 35 31 
3 60 27 33 
3 60 33 36 
3 61 62 37 
3 61 37 63 
3 30 64 38 
3 30 38 34 
3 62 65 39 
3 62 39 37 
3 66 67 39 
3 66 39 65 
3 68 32 26 
3 68 26 69 
3 70 35 32 
3 70 32 68 
3 71 31 35 
3 71 35 70 
3 34 33 32 
3 34 32 35 
