ply
format ascii 1.0
comment VCGLIB generated
comment TextureFile cemetery_halloween_atlas.tga
element vertex 206
property float x
property float y
property float z
property float nx
property float ny
property float nz
property float texture_u
property float texture_v
element face 245
property list uchar int vertex_indices
end_header
103.5874 2.879021 176.1394 0.7169324 -0.0001566044 0.6971427 0.3389481 0.5613036
103.5874 19.03218 176.1394 0.6150109 0.5122836 0.599439 0.3389481 0.5762571
43.01897 19.03218 180.8041 -0.452509 0.4960295 0.7410738 0.3950191 0.5762571
43.26178 2.879023 180.8041 -0.5270193 -0.007921593 0.8498164 0.3947943 0.5613035
75.32388 29.36277 147.0347 0.4217717 0.8064169 0.4144883 0.3651127 0.6048468
39.7535 29.36278 147.0347 -0.04775622 0.5476623 0.8353356 0.3980419 0.6048468
-103.5874 18.15741 -56.45232 -0.7974111 0.5465407 0.2557907 0.4490336 0.6301948
-98.9577 13.48005 -48.32082 -0.8199489 0.4524945 0.3506175 0.4565613 0.6308089
-75.32388 29.36277 -48.2655 -0.9983802 -0.01017092 0.05597699 0.4566123 0.658667
-0.477417 29.36278 147.0347 0.2457804 0.4261108 0.8706444 0.6070789 0.379666
-0.8796309 48.57509 146.591 0.139991 0.3889352 0.9105668 0.6073929 0.3945898
-5.965397 43.96179 153.5191 0.3196499 0.3822753 0.8670003 0.6098223 0.3910063
-5.435235 32.86889 153.7753 0.3425881 -0.3931373 0.853274 0.6109257 0.3823895
-82.04609 44.67912 -67.40096 -0.821874 0.4173527 -0.3877369 0.3999218 0.3475467
-75.0966 48.57508 0.4327583 -0.98493 0.1704084 0.02956121 0.4507979 0.351221
-75.0966 48.57508 -70.35872 -0.9318674 0.3232912 -0.1646391 0.3957364 0.351221
-57.31823 165.4217 111.8871 -0.6559777 -0.5726106 0.4917422 0.6522337 0.4953776
57.31821 165.4217 111.887 0.6559781 -0.5726101 0.4917423 0.5611829 0.4953776
67.03048 177.3122 130.8457 0.5685665 -0.6562337 0.4960742 0.5546507 0.5127575
-67.03049 177.3122 130.8457 -0.5685666 -0.6562335 0.4960743 0.6587657 0.5127574
-57.31821 165.4217 -111.887 -0.6559781 -0.57261 -0.4917423 0.3615945 0.4451212
-67.03048 177.3122 -130.8457 -0.5685666 -0.6562335 -0.4960742 0.3488435 0.4570442
71.90203 193.8885 140.3551 0.6439602 0.2666705 0.717079 0.5508676 0.5275989
-71.90204 193.8885 140.3552 -0.6439599 0.2666705 0.7170793 0.6625494 0.5275989
-71.90203 193.8885 -140.3551 -0.6439601 0.2666701 -0.7170792 0.3414581 0.4704616
33.6909 214.8217 85.84618 0.5738588 0.6802006 0.4560847 0.580543 0.5729464
-33.6909 214.8217 85.84619 -0.5738584 0.680201 0.4560847 0.6328733 0.5729464
-33.6909 214.8217 -85.84619 -0.5738586 0.6802007 -0.4560847 0.3837907 0.504298
34.72301 224.8217 88.47607 0.6461995 0.3566237 0.674719 0.5797415 0.5809766
-34.72301 224.8217 88.47609 -0.6461995 0.3566235 0.6747191 0.633675 0.5809766
-34.72301 224.8217 -88.47609 -0.6461993 0.3566238 -0.6747191 0.3817483 0.5121047
-4.802443e-06 242.4553 63.61027 0 0.982582 0.1858297 0.6067082 0.6046508
4.802443e-06 242.4553 -63.61029 9.429597e-08 0.982582 -0.1858299 0.4010598 0.5421298
-59.92089 81.54 116.9675 -0.6351984 0.6007652 0.4853908 0.6522337 0.4301139
59.92088 81.53999 116.9675 0.6351982 0.6007654 0.4853908 0.5611829 0.4301139
-59.92088 81.53999 -116.9675 -0.6351982 0.6007652 -0.4853909 0.3615945 0.3799456
-69.72016 68.72342 136.0961 -0.5301113 0.6537225 0.5400268 0.6608548 0.4122323
69.72015 68.7234 136.096 0.5788869 0.6315455 0.515791 0.5525621 0.4122323
-69.72016 68.72342 71.99898 -0.8591989 0.5069464 -0.06915655 0.5063773 0.3674161
75.0966 48.57508 146.591 0.6722511 0.2421429 0.6996037 0.5482985 0.3945898
44.45817 2.879015 -173.053 -0.3821067 0.09175629 -0.9195517 0.4760006 0.5613034
-39.75835 2.879018 -176.1394 0.4466639 0.1216858 -0.8863882 0.3980376 0.5613035
-38.63018 15.81135 -172.6561 0.5408775 0.5348124 -0.6491743 0.399082 0.5762571
44.19992 15.81135 -171.2035 -0.4908098 0.5252225 -0.6951598 0.4757616 0.5762571
109.1427 2.879018 61.24331 0.9252036 0.02352301 -0.3787414 0.4546848 0.6158552
97.48528 2.879018 50.01332 0.9841736 -0.00415156 0.1771585 0.4574942 0.6158552
97.48528 16.95295 50.34313 0.7667602 0.6075262 0.2073421 0.4571889 0.6308089
109.1427 19.03217 62.82853 0.8028048 0.5326573 -0.2679191 0.4479278 0.6308089
0.889366 29.36276 -147.0347 0.06992202 0.4604816 -0.8849111 0.4356669 0.6048468
47.06124 29.36276 -147.0347 -0.03373393 0.5529318 -0.8325434 0.4784105 0.6048468
75.32389 29.36276 48.06916 0.7939278 0.6073527 0.028308 0.4567941 0.658667
75.32391 29.36276 -147.0347 0.4153128 0.8044782 -0.424653 0.6651189 0.379666
75.09663 48.57507 -146.591 0.6817091 0.2288058 -0.6949249 0.6651189 0.3945898
75.0966 48.57508 70.35513 0.9926714 -0.0009788916 0.1208407 0.3957392 0.351221
57.31824 165.4217 -111.887 0.6559772 -0.5726108 -0.4917426 0.6522337 0.4953776
-35.85474 177.3121 -130.8457 0.009246718 -0.6596965 -0.7514753 0.5788625 0.5127575
67.03053 177.3121 -130.8457 0.5685667 -0.6562334 -0.4960743 0.6587657 0.5127574
-32.2672 191.2419 -135.0388 -0.02026418 -0.1222256 -0.9922955 0.5816489 0.5275989
-15.11626 193.8885 -140.3551 -0.06219061 0.3318136 -0.9412928 0.5949688 0.5275989
71.90207 193.8885 -140.3551 0.6439601 0.2666704 -0.7170791 0.5594641 0.4704617
33.69091 214.8217 -85.8462 0.5738584 0.6802008 -0.4560848 0.5171309 0.504298
34.72303 224.8217 -88.4761 0.6461997 0.3566234 -0.674719 0.633675 0.5809766
59.92091 81.53999 -116.9676 0.6351982 0.6007653 -0.4853908 0.6522337 0.4301139
69.72018 68.7234 -136.0961 0.5923494 0.6365287 -0.4939164 0.6608548 0.4122323
0.1743965 68.7234 -136.0961 -0.1095781 0.7585912 -0.6422867 0.6068439 0.4122323
-69.72015 68.72341 -136.0961 -0.5788869 0.6315456 -0.5157909 0.5525621 0.4122323
69.72017 68.7234 -1.142029 0.8127939 0.5659207 -0.1382026 0.4513482 0.3674161
2.591995 65.98912 -142.7028 -0.4063307 0.5658404 -0.7174399 0.6094992 0.4084135
75.09661 48.57508 -1.181927 0.9893057 -0.01310781 -0.1452668 0.4513806 0.351221
111.2099 2.879017 -15.50724 0.8305884 0.01541851 -0.5566733 0.5156498 0.6158552
111.2099 23.33511 -14.85898 0.6590922 0.5706354 -0.4898702 0.5150497 0.6308089
111.2099 23.33511 42.02938 0.7092041 0.575282 0.4075294 0.4623856 0.6308089
111.2099 2.879018 43.64031 0.8429634 0.0162798 0.5377246 0.4608943 0.6158552
75.32391 29.36277 -14.12761 0.7993212 0.5984375 -0.05438935 0.5143724 0.658667
108.6057 2.879015 -93.18226 0.8783678 -0.01816673 0.4776401 0.587557 0.6158552
103.5874 2.879013 -176.1394 0.6913483 -3.158243e-08 -0.7225218 0.6643541 0.6158552
103.5874 19.03216 -176.1394 0.5948638 0.5100651 -0.6212655 0.6643541 0.6308089
108.6057 19.03217 -92.57343 0.7802622 0.4927614 0.3851977 0.5869934 0.6308089
75.32391 29.36277 -85.23657 0.8335135 0.5515575 0.03224317 0.5802011 0.658667
103.5874 15.95557 -18.44225 0.5858703 0.4075212 -0.7004873 0.5183669 0.6308089
103.5874 2.879016 -18.77517 0.8209364 0.01527249 -0.5708154 0.518675 0.6158552
99.30658 15.95557 -85.67067 0.7639822 0.4305447 0.4805855 0.5806032 0.6308089
99.30658 2.879015 -88.19993 0.8641373 -0.04438746 0.501295 0.5829446 0.6158552
-103.5874 2.879027 89.18188 -0.9046506 -0.0481111 -0.4234297 0.5838537 0.6158551
-109.613 2.879026 93.8443 -0.9243113 -0.00809542 -0.3815535 0.5881699 0.6158551
-109.0251 19.24706 92.20163 -0.8177224 0.5129794 -0.2611172 0.5866492 0.6313884
-103.5874 19.03218 84.1801 -0.770427 0.6080652 -0.1915697 0.5792233 0.6308089
-75.32389 29.36277 85.53724 -0.8068264 0.5907395 -0.007615956 0.5804795 0.658667
-75.32388 29.36277 -147.0347 -0.5462142 0.6802219 -0.4888232 0.3651773 0.658667
-103.5874 19.03217 -176.1394 -0.626779 0.5102938 -0.5888535 0.338234 0.6308089
-75.32388 29.36277 -70.52081 -0.823872 0.566776 -6.007363e-08 0.4360096 0.658667
-75.32388 29.36277 -69.96255 -0.8721696 0.4109903 -0.2653435 0.4365264 0.658667
-103.5874 2.87902 -176.1394 -0.7293996 -2.990243e-08 -0.6840879 0.338234 0.6158552
-103.5874 2.879024 -52.18237 -0.9251468 0.1021765 0.3656 0.4529865 0.6158551
-103.5874 13.48005 13.32501 -0.7785143 0.375093 -0.5032105 0.5136296 0.6308089
-75.32389 29.36278 14.04074 -0.8391587 0.5434453 -0.02190862 0.514292 0.658667
-98.9577 2.879023 -46.1003 -0.9716025 0.06139946 0.2285142 0.458617 0.6158551
-103.5874 2.879025 15.07187 -0.8601261 -0.02373606 -0.5095289 0.5152467 0.6158551
-109.842 18.04055 19.2737 -0.7830305 0.5119181 -0.3532749 0.5191365 0.6298909
-109.842 2.879026 19.04068 -0.8961135 0.009433751 -0.4437247 0.5189208 0.6158551
-103.5874 2.879029 176.1394 -0.6807998 -3.461007e-08 0.7324696 0.6643541 0.6158552
-103.5874 19.03218 176.1394 -0.586444 0.510035 0.6292439 0.6643541 0.6308089
-75.32389 29.36278 147.0347 -0.4396569 0.7891998 0.4287955 0.6374104 0.658667
-44.26875 2.879019 -179.9465 0.3006701 -0.01819009 -0.9535547 0.3938621 0.5613035
-43.31002 19.03217 -179.9465 0.3911989 0.5215441 -0.758258 0.3947497 0.5762571
-39.81227 29.36276 -147.0347 0.03964787 0.4065949 -0.9127479 0.3979875 0.6048468
49.0331 19.03217 -177.0304 -0.3763934 0.5308803 -0.7592722 0.4802359 0.5762571
49.0304 2.879015 -177.0304 -0.3427424 5.753329e-05 -0.9394295 0.4802333 0.5613034
-3.449585 46.11412 -152.7753 0.3344812 0.3717964 -0.8659617 0.6040251 0.3911413
-81.01265 45.59643 -152.215 -0.7020923 0.2890245 -0.6507928 0.5482985 0.3907391
-75.0966 48.57508 -146.591 -0.3594306 0.8511289 -0.3826085 0.5482985 0.3945898
0.302494 48.57507 -146.591 0.1325954 0.3626644 -0.9224386 0.606944 0.3945898
-82.18525 32.91531 -68.50201 -0.7716632 -0.3944702 -0.4989279 0.3991589 0.33841
-75.09661 48.57508 71.58707 -0.9909757 0.1338047 0.007967921 0.5061415 0.351221
-81.26368 56.33835 83.62863 -0.989148 0.04970122 -0.1382611 0.5144503 0.3545865
-75.09092 48.59641 71.69597 -0.9938547 0.06248138 -0.0913722 0.5062261 0.3512381
-75.09661 48.57509 146.591 -0.6771845 0.2402218 0.695496 0.5644794 0.351221
0.4738541 14.67353 170.9378 0.4612195 0.4229754 0.7799798 0.4344051 0.5762571
38.71266 14.67352 170.9378 -0.646359 0.3779583 0.6628481 0.3990057 0.5762571
0.3568497 2.879025 170.9378 0.3801157 -0.003771999 0.9249313 0.4345133 0.5613035
39.39271 2.879023 170.9378 -0.5680391 -0.0174933 0.8228157 0.3983761 0.5613035
-5.53456 19.03218 176.1394 0.3413483 0.5340231 0.7734991 0.4399673 0.5762571
-4.949518 2.879025 176.1394 0.3770157 0.00251438 0.9262035 0.4394257 0.5613035
69.72016 68.72341 71.05139 0.8275494 0.548013 0.1218355 0.3952811 0.3674161
76.41381 66.16342 2.627247 0.7273988 0.561269 -0.3948013 0.44842 0.3644263
79.84351 53.3106 3.140841 0.919544 -0.1918587 -0.3429708 0.4480219 0.3540953
76.64349 65.30268 66.26331 0.7692226 0.5342315 0.3505615 0.3989809 0.3637344
79.28117 55.41793 66.21707 0.9260237 -0.06854317 0.37119 0.3989768 0.3557891
57.66982 154.0895 6.915888 0.9974576 0.03228679 0.06352943 0.4449563 0.4363161
57.50558 159.3827 17.98183 0.9493808 -0.310533 0.04738515 0.4364697 0.4404289
57.88651 147.1054 26.80993 0.9372804 0.3442936 -0.05447355 0.4298145 0.4308895
57.68803 153.502 38.35996 0.9980154 0.02616907 -0.05727587 0.4205671 0.4358597
49.53691 152.9802 21.687 0.9975753 0.05504799 0.04258266 0.433208 0.4357537
-42.11523 195.8702 -135.1948 0.1139412 0.8633037 -0.4916546 0.5740007 0.5318919
-46.0008 193.8885 -140.3551 0.1218342 0.3312612 -0.9356402 0.5709831 0.5275989
-23.51152 195.6013 -135.8951 -0.1358834 0.7661163 -0.6281732 0.5884488 0.5313093
-57.31823 165.4217 111.8871 -0.6559777 -0.5726106 0.4917422 0.5393281 0.4451212
-67.03049 177.3122 130.8457 -0.5685666 -0.6562335 0.4960743 0.5520787 0.4570442
-71.90204 193.8885 140.3552 -0.6439599 0.2666705 0.7170793 0.5594641 0.4704617
-33.6909 214.8217 85.84619 -0.5738584 0.680201 0.4560847 0.5171309 0.504298
-34.72301 224.8217 88.47609 -0.6461995 0.3566235 0.6747191 0.5191733 0.5121049
-4.802443e-06 242.4553 63.61027 0 0.982582 0.1858297 0.4998621 0.5421298
-59.92089 81.54 116.9675 -0.6351984 0.6007652 0.4853908 0.5393281 0.3799456
-69.72016 68.72342 136.0961 -0.5301113 0.6537225 0.5400268 0.5561565 0.3674161
47.06124 29.36276 -147.0347 -0.03373393 0.5529318 -0.8325434 0.6432025 0.379666
75.32388 29.36277 147.0347 0.4217717 0.8064169 0.4144883 0.3364431 0.3362991
75.32389 29.36276 48.06916 0.7939278 0.6073527 0.028308 0.413186 0.3362991
75.0966 48.57508 146.591 0.6722511 0.2421429 0.6996037 0.3364431 0.351221
57.31821 165.4217 111.887 0.6559781 -0.5726101 0.4917423 0.3615945 0.4451212
57.31824 165.4217 -111.887 0.6559772 -0.5726108 -0.4917426 0.5393281 0.4451212
67.03053 177.3121 -130.8457 0.5685667 -0.6562334 -0.4960743 0.5520787 0.4570442
67.03048 177.3122 130.8457 0.5685665 -0.6562337 0.4960742 0.3488435 0.4570442
71.90203 193.8885 140.3551 0.6439602 0.2666705 0.717079 0.3414581 0.4704616
33.6909 214.8217 85.84618 0.5738588 0.6802006 0.4560847 0.3837907 0.504298
33.69091 214.8217 -85.8462 0.5738584 0.6802008 -0.4560848 0.6328733 0.5729464
-33.6909 214.8217 -85.84619 -0.5738586 0.6802007 -0.4560847 0.580543 0.5729464
-34.72301 224.8217 -88.47609 -0.6461993 0.3566238 -0.6747191 0.5797415 0.5809766
34.72303 224.8217 -88.4761 0.6461997 0.3566234 -0.674719 0.5191733 0.5121049
34.72301 224.8217 88.47607 0.6461995 0.3566237 0.674719 0.3817483 0.5121047
4.802443e-06 242.4553 -63.61029 9.429597e-08 0.982582 -0.1858299 0.6067082 0.6046508
4.802443e-06 242.4553 -63.61029 9.429597e-08 0.982582 -0.1858299 0.4998621 0.5421298
-4.802443e-06 242.4553 63.61027 0 0.982582 0.1858297 0.4010598 0.5421298
-57.31821 165.4217 -111.887 -0.6559781 -0.57261 -0.4917423 0.5611829 0.4953776
-59.92088 81.53999 -116.9675 -0.6351982 0.6007652 -0.4853909 0.5611829 0.4301139
69.72018 68.7234 -136.0961 0.5923494 0.6365287 -0.4939164 0.5561565 0.3674161
59.92091 81.53999 -116.9676 0.6351982 0.6007653 -0.4853908 0.5393281 0.3799456
75.09663 48.57507 -146.591 0.6817091 0.2288058 -0.6949249 0.5644794 0.351221
75.32391 29.36276 -147.0347 0.4153128 0.8044782 -0.424653 0.6374104 0.658667
75.32388 29.36277 147.0347 0.4217717 0.8064169 0.4144883 0.3651773 0.658667
103.5874 19.03218 176.1394 0.6150109 0.5122836 0.599439 0.338234 0.6308089
103.5874 2.879021 176.1394 0.7169324 -0.0001566044 0.6971427 0.338234 0.6158552
-103.5874 2.87902 -176.1394 -0.7293996 -2.990243e-08 -0.6840879 0.3389481 0.5613036
-103.5874 19.03217 -176.1394 -0.626779 0.5102938 -0.5888535 0.3389481 0.5762571
-75.32388 29.36277 -147.0347 -0.5462142 0.6802219 -0.4888232 0.3651127 0.6048468
75.32391 29.36276 -147.0347 0.4153128 0.8044782 -0.424653 0.5045746 0.6048468
103.5874 19.03216 -176.1394 0.5948638 0.5100651 -0.6212655 0.5307393 0.576257
103.5874 2.879013 -176.1394 0.6913483 -3.158243e-08 -0.7225218 0.5307393 0.5613034
0.889366 29.36276 -147.0347 0.06992202 0.4604816 -0.8849111 0.6073983 0.379666
-39.81227 29.36276 -147.0347 0.03964787 0.4065949 -0.9127479 0.5758361 0.379666
-75.32388 29.36277 -147.0347 -0.5462142 0.6802219 -0.4888232 0.5482985 0.379666
-81.01265 45.59643 -152.215 -0.7020923 0.2890245 -0.6507928 0.3364431 0.3473709
-75.32388 29.36277 -147.0347 -0.5462142 0.6802219 -0.4888232 0.3364431 0.3362991
-75.32388 29.36277 -70.52081 -0.823872 0.566776 -6.007363e-08 0.3957758 0.3362991
-75.32389 29.36278 14.04074 -0.8391587 0.5434453 -0.02190862 0.4613492 0.3362991
-75.32388 29.36277 -48.2655 -0.9983802 -0.01017092 0.05597699 0.4130337 0.3362991
-75.32388 29.36277 -69.96255 -0.8721696 0.4109903 -0.2653435 0.3962087 0.3362991
-75.32389 29.36277 85.53724 -0.8068264 0.5907395 -0.007615956 0.5167912 0.3362991
-75.0966 48.57508 -146.591 -0.3594306 0.8511289 -0.3826085 0.3364431 0.351221
-69.72015 68.72341 -136.0961 -0.5788869 0.6315456 -0.5157909 0.344766 0.3674161
39.7535 29.36278 147.0347 -0.04775622 0.5476623 0.8353356 0.5758817 0.379666
-75.09661 48.57509 146.591 -0.6771845 0.2402218 0.695496 0.6651189 0.3945898
-75.32389 29.36278 147.0347 -0.4396569 0.7891998 0.4287955 0.5644794 0.3362991
-75.32389 29.36278 147.0347 -0.4396569 0.7891998 0.4287955 0.6651189 0.379666
-0.477417 29.36278 147.0347 0.2457804 0.4261108 0.8706444 0.4352856 0.6048468
-103.5874 19.03218 176.1394 -0.586444 0.510035 0.6292439 0.5307393 0.576257
-103.5874 2.879029 176.1394 -0.6807998 -3.461007e-08 0.7324696 0.5307393 0.5613034
-75.32389 29.36278 147.0347 -0.4396569 0.7891998 0.4287955 0.5045746 0.6048468
75.32388 29.36277 147.0347 0.4217717 0.8064169 0.4144883 0.5482985 0.379666
75.32391 29.36277 -85.23657 0.8335135 0.5515575 0.03224317 0.516558 0.3362991
75.32391 29.36276 -147.0347 0.4153128 0.8044782 -0.424653 0.5644794 0.3362991
69.72015 68.7234 136.096 0.5788869 0.6315455 0.515791 0.344766 0.3674161
75.32391 29.36277 -14.12761 0.7993212 0.5984375 -0.05438935 0.4614165 0.3362991
59.92088 81.53999 116.9675 0.6351982 0.6007654 0.4853908 0.3615945 0.3799456
-71.90203 193.8885 -140.3551 -0.6439601 0.2666701 -0.7170792 0.5508676 0.5275989
71.90207 193.8885 -140.3551 0.6439601 0.2666704 -0.7170791 0.6625494 0.5275989
-67.03048 177.3122 -130.8457 -0.5685666 -0.6562335 -0.4960742 0.5546507 0.5127575
3 0 1 2 
3 2 3 0 
3 2 1 4 
3 4 5 2 
3 6 7 8 
3 9 10 11 
3 11 12 9 
3 13 14 15 
3 16 17 18 
3 18 19 16 
3 20 136 137 
3 137 21 20 
3 19 18 22 
3 22 23 19 
3 21 137 138 
3 138 24 21 
3 23 22 25 
3 25 26 23 
3 24 138 139 
3 139 27 24 
3 26 25 28 
3 28 29 26 
3 27 139 140 
3 140 30 27 
3 29 28 31 
3 30 140 141 
3 141 32 30 
3 17 16 33 
3 33 34 17 
3 136 20 35 
3 35 142 136 
3 34 33 36 
3 36 37 34 
3 143 142 38 
3 39 37 10 
3 40 41 42 
3 42 43 40 
3 44 45 46 
3 46 47 44 
3 43 48 49 
3 47 46 50 
3 51 144 52 
3 145 146 53 
3 53 147 145 
3 54 55 56 
3 148 149 150 
3 150 151 148 
3 55 57 58 
3 151 150 59 
3 59 152 151 
3 152 59 60 
3 60 153 152 
3 154 155 156 
3 156 61 154 
3 153 60 157 
3 157 158 153 
3 61 156 159 
3 158 157 160 
3 160 161 158 
3 162 54 62 
3 62 163 162 
3 163 62 63 
3 163 63 64 
3 65 163 64 
3 164 165 66 
3 67 64 63 
3 164 66 68 
3 68 166 164 
3 69 70 71 
3 71 72 69 
3 71 70 73 
3 73 50 71 
3 74 75 76 
3 76 77 74 
3 77 76 167 
3 167 78 77 
3 73 70 79 
3 79 70 69 
3 69 80 79 
3 78 73 79 
3 79 81 78 
3 81 79 80 
3 80 82 81 
3 78 81 77 
3 77 81 82 
3 82 74 77 
3 168 169 47 
3 47 50 168 
3 47 169 170 
3 170 44 47 
3 50 46 71 
3 46 45 72 
3 72 71 46 
3 83 84 85 
3 85 86 83 
3 86 85 87 
3 88 89 6 
3 90 88 6 
3 91 90 6 
3 8 91 6 
3 92 93 6 
3 6 89 92 
3 8 7 94 
3 94 95 8 
3 94 7 96 
3 96 97 94 
3 95 94 98 
3 98 94 97 
3 97 99 98 
3 87 95 98 
3 98 86 87 
3 86 98 99 
3 99 83 86 
3 84 100 101 
3 101 85 84 
3 85 101 102 
3 102 87 85 
3 93 96 6 
3 6 96 7 
3 103 171 172 
3 172 104 103 
3 104 172 173 
3 173 105 104 
3 105 42 104 
3 104 42 41 
3 41 103 104 
3 174 175 106 
3 106 49 174 
3 175 176 107 
3 107 106 175 
3 40 43 106 
3 106 107 40 
3 106 43 49 
3 108 109 110 
3 110 111 108 
3 108 111 177 
3 108 177 178 
3 108 178 179 
3 108 179 109 
3 15 180 181 
3 181 182 15 
3 14 13 112 
3 112 183 14 
3 184 183 112 
3 112 185 184 
3 15 182 185 
3 15 185 112 
3 13 15 112 
3 183 186 113 
3 113 14 183 
3 15 187 180 
3 111 110 65 
3 65 64 111 
3 64 67 111 
3 67 63 52 
3 52 111 67 
3 144 177 111 
3 111 52 144 
3 43 42 48 
3 42 105 48 
3 188 187 15 
3 114 143 38 
3 114 38 115 
3 38 14 113 
3 113 115 38 
3 114 115 116 
3 186 116 115 
3 186 115 113 
3 114 116 143 
3 142 35 188 
3 188 38 142 
3 38 188 15 
3 15 14 38 
3 9 189 39 
3 39 10 9 
3 10 190 11 
3 186 191 116 
3 190 192 12 
3 12 11 190 
3 192 9 12 
3 193 117 118 
3 118 5 193 
3 118 117 119 
3 119 120 118 
3 5 118 2 
3 2 118 120 
3 120 3 2 
3 193 121 117 
3 121 194 195 
3 195 122 121 
3 196 194 121 
3 121 193 196 
3 122 119 117 
3 117 121 122 
3 189 197 39 
3 36 190 10 
3 37 36 10 
3 198 199 166 
3 200 147 53 
3 53 123 200 
3 66 124 125 
3 125 68 66 
3 126 127 125 
3 125 124 126 
3 126 123 53 
3 53 127 126 
3 68 125 127 
3 127 53 68 
3 66 123 126 
3 126 124 66 
3 198 166 68 
3 68 201 198 
3 146 201 68 
3 68 53 146 
3 202 123 66 
3 66 165 202 
3 202 200 123 
3 128 149 129 
3 130 202 165 
3 165 128 130 
3 131 148 202 
3 202 130 131 
3 128 165 149 
3 149 148 129 
3 129 132 128 
3 129 131 132 
3 148 131 129 
3 131 130 132 
3 132 130 128 
3 203 155 133 
3 133 134 203 
3 133 57 134 
3 58 204 56 
3 56 55 58 
3 55 205 203 
3 203 134 55 
3 54 162 55 
3 162 205 55 
3 155 154 204 
3 204 58 135 
3 155 204 135 
3 155 135 133 
3 55 134 57 
3 135 58 57 
3 133 135 57 
