ply
format ascii 1.0
comment VCGLIB generated
comment TextureFile torch_A_d.png
element vertex 344
property float x
property float y
property float z
property float nx
property float ny
property float nz
property float texture_u
property float texture_v
element face 426
property list uchar int vertex_indices
end_header
4.328324 3.772384 17.3 0.7462026 0.6657189 -1.15479e-07 0.6407592 0.9004322
4.328324 2.6548 17.3 0.7462026 -0.6657189 -1.371314e-07 0.662671 0.9004805
3.99885 2.6548 15.64362 0.6894013 -0.6657189 -0.2855594 0.6625977 0.9335911
3.99885 3.772384 15.64362 0.6894013 0.665719 -0.2855594 0.6406876 0.9335429
3.060587 2.6548 14.23941 0.5276449 -0.6657189 -0.527645 0.6625252 0.9666994
3.060587 3.772384 14.23941 0.5276449 0.6657188 -0.527645 0.6406155 0.966651
1.656378 2.6548 13.30115 0.4918711 -0.8300247 -0.2629106 0.662452 0.9998085
1.656378 3.772384 13.30115 0.491871 0.8300247 -0.2629106 0.6405421 0.99976
-1.656378 3.772384 13.30115 -0.4918711 0.8300247 -0.2629106 0.6415473 0.5361915
-1.656378 2.6548 13.30115 -0.491871 -0.8300247 -0.2629106 0.6634579 0.5362383
-3.060587 2.6548 14.23941 -0.5276449 -0.6657188 -0.527645 0.6633874 0.5693488
-3.060587 3.772384 14.23941 -0.5276449 0.6657189 -0.527645 0.641476 0.5693016
-3.99885 2.6548 15.64362 -0.6894013 -0.665719 -0.2855594 0.6633161 0.6024611
-3.99885 3.772384 15.64362 -0.6894013 0.6657189 -0.2855594 0.6414042 0.6024139
-4.328324 2.6548 17.3 -0.7462026 -0.6657189 -1.15479e-07 0.6632447 0.6355723
-4.328324 3.772384 17.3 -0.7462026 0.6657189 -1.371314e-07 0.6413332 0.6355253
-3.99885 2.6548 18.95638 -0.6894013 -0.6657189 0.2855594 0.6631735 0.6686833
-3.99885 3.772384 18.95638 -0.6894013 0.6657189 0.2855595 0.6412624 0.6686364
-3.060587 2.6548 20.36059 -0.5276448 -0.6657189 0.5276452 0.6631038 0.7017938
-3.060587 3.772384 20.36059 -0.5276448 0.6657189 0.5276452 0.641192 0.7017469
-1.656378 2.6548 21.29885 -0.2855594 -0.6657191 0.6894012 0.6630331 0.7349067
-1.656378 3.772384 21.29885 -0.2855593 0.6657191 0.6894011 0.6411203 0.7348596
0 2.6548 21.62832 0 -0.6657188 0.7462028 0.6629627 0.7680204
0 3.772384 21.62832 -3.60872e-09 0.6657187 0.7462028 0.6410493 0.7679732
1.656378 2.6548 21.29885 0.2855594 -0.6657191 0.6894011 0.6628913 0.8011355
1.656378 3.772384 21.29885 0.2855594 0.6657191 0.6894011 0.6409771 0.8010877
3.060587 2.6548 20.36059 0.5276447 -0.6657189 0.5276452 0.6628181 0.8342515
3.060587 3.772384 20.36059 0.5276447 0.6657189 0.5276452 0.640904 0.8342035
3.99885 2.6548 18.95638 0.6894013 -0.6657189 0.2855595 0.6627453 0.8673669
3.99885 3.772384 18.95638 0.6894013 0.6657189 0.2855595 0.6408318 0.8673186
3.056871 2.6548 18.5662 -0.6071194 -0.7537673 -0.2514771 0.2772977 0.4544734
3.308733 2.6548 17.3 -0.6571413 -0.7537674 -6.356017e-09 0.2723471 0.4792742
2.339627 2.6548 19.63963 -0.4646687 -0.7537675 -0.4646692 0.2913502 0.433458
1.266197 2.6548 20.35687 -0.2514777 -0.753767 -0.6071197 0.3123678 0.419423
0 2.6548 20.60873 0 -0.753768 -0.6571407 0.3371525 0.4144992
-1.266197 2.6548 20.35687 0.2514777 -0.7537669 -0.6071198 0.3619356 0.4194345
-2.339627 2.6548 19.63963 0.4646687 -0.7537676 -0.4646692 0.3829494 0.4334804
-3.056871 2.6548 18.5662 0.6071195 -0.7537673 -0.2514772 0.3969974 0.4545015
-3.308733 2.6548 17.3 0.6571413 -0.7537674 6.356017e-09 0.4019422 0.4793073
-3.056871 2.6548 16.0338 0.6071193 -0.7537674 0.2514773 0.3970311 0.5041264
-2.339627 2.6548 14.96037 0.4646692 -0.7537673 0.4646692 0.3829972 0.5251826
-1.266197 2.6548 14.24313 0.2514774 -0.7537675 0.6071193 0.3619668 0.5392585
2.339627 2.6548 14.96037 -0.4646692 -0.7537673 0.4646692 0.291293 0.5251538
1.266197 2.6548 14.24313 -0.2514773 -0.7537675 0.6071192 0.3123224 0.5392358
3.056871 2.6548 16.0338 -0.6071193 -0.7537674 0.2514773 0.2772577 0.504095
3.056871 3.772384 16.0338 -0.6071193 0.7537674 0.2514773 0.4213803 0.8730254
3.308733 3.772384 17.3 -0.6571413 0.7537674 6.356017e-09 0.4165453 0.8978673
2.339627 3.772384 14.96037 -0.4646692 0.7537673 0.4646692 0.4353528 0.8519254
1.266197 3.772384 14.24313 -0.2514774 0.7537675 0.6071193 0.4563372 0.8377783
-2.339627 3.772384 14.96037 0.4646692 0.7537673 0.4646692 0.5270984 0.8515442
-1.266197 3.772384 14.24313 0.2514773 0.7537675 0.6071192 0.5059899 0.8375716
-3.056871 3.772384 16.0338 0.6071193 0.7537674 0.2514773 0.5412536 0.8725312
-3.308733 3.772384 17.3 0.6571413 0.7537674 -6.356017e-09 0.5462984 0.8973372
-3.056871 3.772384 18.5662 0.6071194 0.7537673 -0.2514771 0.5414631 0.9221852
-2.339627 3.772384 19.63963 0.4646687 0.7537676 -0.4646692 0.527486 0.943291
-1.266197 3.772384 20.35687 0.2514777 0.753767 -0.6071197 0.5064951 0.9574409
0 3.772384 20.60873 0 0.753768 -0.6571407 0.4816864 0.962478
1.266197 3.772384 20.35687 -0.2514777 0.7537669 -0.6071198 0.4568383 0.9576383
2.339627 3.772384 19.63963 -0.4646687 0.7537676 -0.4646692 0.4357331 0.9436605
3.056871 3.772384 18.5662 -0.6071196 0.7537673 -0.2514772 0.4215848 0.9226719
0 2.6548 13.99127 6.356018e-09 -0.7537674 0.6571413 0.6135381 0.7903706
0 3.772384 13.99127 -3.178009e-09 0.7537674 0.6571413 0.5923707 0.7900503
1.656378 2.6548 0 0.7071068 -0.7071068 0 0.3045278 0.8185531
1.656378 3.772384 0 0.7071069 0.7071066 0 0.2826105 0.8185424
-1.656378 3.772384 0 -0.7071068 0.7071068 0 0.391414 0.8185936
-1.656378 2.6548 0 -0.7071069 -0.7071066 0 0.3694966 0.8185828
-1.704577 -27.2175 1.853851 -0.5907269 0.7837099 -0.1919388 0.6289161 0.4632109
-1.704577 -28.3425 1.853851 -0.6626617 -0.6610842 -0.3519192 0.6064285 0.4732298
-2.758064 -28.3425 3.303851 -0.835204 -0.4783203 -0.2713742 0.5886776 0.4368331
-2.758064 -27.2175 3.303851 -0.7278091 0.6437169 -0.2364795 0.6104648 0.4342305
-2.758064 -28.3425 5.096149 -0.835204 -0.4783203 0.2713742 0.5910127 0.3913186
-2.758064 -27.2175 5.096149 -0.7278091 0.6437169 0.2364795 0.6108999 0.4002447
-1.704577 -28.3425 6.546149 -0.5161846 -0.4783203 0.7104669 0.6195958 0.3540637
-1.704577 -27.2175 6.546149 -0.4498109 0.6437169 0.6191114 0.6307389 0.372764
0 -28.3425 7.1 0 -0.4783203 0.8781855 0.6648184 0.3405299
0 -27.2175 7.1 3.816587e-09 0.6437168 0.7652639 0.6628789 0.3621996
1.704577 -28.3425 6.546149 0.5161846 -0.4783203 0.7104669 0.7093136 0.3562057
1.704577 -27.2175 6.546149 0.4498108 0.6437169 0.6191114 0.6950732 0.3726101
2.758064 -28.3425 5.096149 0.835204 -0.4783203 0.2713742 0.7359551 0.3946827
2.758064 -27.2175 5.096149 0.7278091 0.6437168 0.2364795 0.7150249 0.400025
2.758064 -28.3425 3.303851 0.835204 -0.4783203 -0.2713743 0.735943 0.4397046
2.758064 -27.2175 3.303851 0.7278091 0.6437168 -0.2364795 0.7153959 0.4341621
1.704577 -28.3425 1.853851 0.6626617 -0.6610842 -0.3519192 0.7173405 0.4725135
1.704577 -27.2175 1.853851 0.5907269 0.7837099 -0.1919388 0.6966945 0.4630793
0 -28.3425 1.3 1.210798e-09 -0.9814736 -0.1915976 0.5123532 0.5078945
1.116209 -28.8625 2.66367 0.1651353 -0.9597239 -0.2272893 0.4907074 0.4790427
0 -28.8625 2.300992 0 -0.9597239 -0.280945 0.5123488 0.486041
1.806064 -28.8625 3.613174 0.2671945 -0.9597239 -0.08681677 0.4772464 0.4606094
1.806064 -28.8625 4.786826 0.2671945 -0.9597239 0.08681679 0.477251 0.437773
1.116209 -28.8625 5.73633 0.1651353 -0.9597239 0.2272892 0.4906249 0.4192389
0 -28.8625 6.099008 0 -0.9597239 0.2809449 0.5123742 0.4120936
-1.116209 -28.8625 5.73633 -0.1651353 -0.9597239 0.2272892 0.5341221 0.4192457
-1.806064 -28.8625 4.786826 -0.2671945 -0.9597239 0.08681679 0.5475206 0.4377877
-1.806064 -28.8625 3.613174 -0.2671945 -0.9597239 -0.08681677 0.5474257 0.4606255
-1.116209 -28.8625 2.66367 -0.1651353 -0.9597239 -0.2272893 0.5339909 0.4790487
1.704577 -27.2175 0 0.7071068 0.7071068 0 0.6964489 0.4994701
-1.704577 -27.2175 0 -0.7071068 0.7071068 0 0.6292332 0.4994701
-1.704577 -28.3425 0 -0.7071068 -0.7071068 0 0.5458798 0.5334495
1.704577 -28.3425 0 0.7071068 -0.7071068 0 0.4788287 0.5334501
0 17.67153 22.74832 1.430853e-07 -0.0665702 -0.9977818 0.5233706 0.1776927
-0.7959816 17.60461 22.89182 -0.3591277 -0.08051081 -0.9298093 0.5242474 0.199671
-1.045697 18.29442 22.54829 -0.3613836 -0.132135 -0.9230072 0.5085626 0.2005204
0 18.38233 22.35978 0.01868008 -0.08766448 -0.9959749 0.5076813 0.1789818
-1.470782 17.41406 23.30046 -0.6442567 -0.1012612 -0.7580762 0.5244231 0.2215618
-1.932196 18.1891 23.15275 -0.64593 -0.1391509 -0.7506075 0.5065544 0.2222012
-1.921669 17.12888 23.91204 -0.8562019 -0.2179338 -0.4684264 0.5250509 0.242667
-2.524536 17.81445 23.95619 -0.8343297 -0.2884485 -0.4697781 0.5073204 0.2436466
-2.08 16.79248 24.63344 -0.9380204 -0.314108 -0.1464718 0.5256122 0.2636489
-2.732538 17.54653 24.98506 -0.9170901 -0.3691236 -0.1506437 0.504861 0.2651545
-1.921669 16.45609 25.35485 -0.868475 -0.4710317 0.1545326 0.5272003 0.2835155
-2.524536 17.1046 25.93278 -0.8619404 -0.4910943 0.1260366 0.5060993 0.2861376
-1.470782 16.1709 25.96642 -0.6442566 -0.6458085 0.409713 0.5286764 0.3031788
-1.932196 16.55594 26.65508 -0.6462049 -0.6686174 0.3679267 0.5117009 0.3062896
-0.7959816 15.98035 26.37506 -0.33746 -0.7232867 0.6024758 0.5319474 0.3214482
-1.045697 16.3056 27.19192 -0.3169316 -0.7647546 0.5609855 0.5147189 0.3267092
0 15.91344 26.51856 9.844891e-09 -0.725343 0.6883876 0.5369948 0.3376293
0 16.3337 27.43453 0.01337367 -0.7591009 0.6508356 0.518014 0.347517
0.7959816 15.98035 26.37506 0.3420007 -0.7054051 0.6208376 0.5215761 0.03428059
1.045697 16.42161 27.24602 0.3283912 -0.7297533 0.5996827 0.502333 0.029964
1.470782 16.1709 25.96642 0.6442566 -0.6458085 0.409713 0.5204875 0.05234409
1.932196 16.55594 26.65508 0.6214466 -0.6786765 0.3914106 0.5028862 0.05100099
1.921669 16.45609 25.35485 0.8334158 -0.5328068 0.1467479 0.5203865 0.07203415
2.524536 16.93059 25.85164 0.8223286 -0.551412 0.1404296 0.5026164 0.07181758
2.08 16.79248 24.63344 0.8918857 -0.4098874 -0.191134 0.5207983 0.09249441
2.732538 17.28551 24.86334 0.8783907 -0.4376872 -0.1919887 0.5042984 0.09300637
1.921669 17.12888 23.91204 0.8233861 -0.2516585 -0.508629 0.5212774 0.1137365
2.524536 17.72744 23.91562 0.8009855 -0.2885338 -0.5245669 0.5047754 0.1142725
1.470782 17.41406 23.30046 0.6442561 -0.1012609 -0.7580768 0.5215428 0.1351855
1.932196 18.1891 23.15275 0.6257497 -0.132679 -0.768657 0.5036687 0.135735
0.7959816 17.60461 22.89182 0.3650692 -0.03709071 -0.9302413 0.5222737 0.1563548
1.045697 18.43943 22.61591 0.3718301 -0.04834899 -0.9270409 0.5044522 0.1573022
-2.125416 19.74502 23.66509 -0.704459 0.2193557 -0.6749968 0.4743454 0.2239301
-1.150267 20.02039 23.07457 -0.3832155 0.314916 -0.8683167 0.4734529 0.2020119
0 23.07715 24.21735 -7.00577e-05 0.422489 -0.9063681 0.4095055 0.182192
-1.160724 22.97957 24.42661 -0.3826841 0.3904485 -0.8373189 0.4103271 0.2046195
-1.150267 25.91743 25.8244 -0.3850465 0.4727953 -0.7925931 0.347149 0.2068203
0 26.18814 25.69818 -0.01218101 0.5194762 -0.8543981 0.3423467 0.1844109
0 20.11708 22.8672 -4.279526e-08 0.3494212 -0.9369658 0.4727512 0.1800199
-2.125416 25.64206 26.41493 -0.7038373 0.3838027 -0.5977529 0.3479746 0.2292581
-1.932196 26.88965 27.20989 -0.5812451 0.7357718 -0.3475544 0.3177142 0.2302494
-1.045697 27.13999 26.67304 -0.322658 0.8167949 -0.4782655 0.318632 0.2077038
-2.77699 19.3329 24.54888 -0.9212754 0.07886223 -0.3808312 0.4752633 0.2458688
1.150267 26.09144 25.90555 0.3853553 0.4765789 -0.7901734 0.3419546 0.161907
1.160724 22.97957 24.42661 0.3827488 0.3903075 -0.837355 0.4088385 0.1597587
1.150267 20.02039 23.07457 0.383167 0.312515 -0.8692051 0.4719194 0.1581231
-2.77699 25.22994 27.29872 -0.9192997 0.2429412 -0.309625 0.3492277 0.2517023
-2.524536 26.66001 28.08095 -0.7514738 0.653719 -0.08909832 0.3180926 0.2528836
-3.005792 18.84678 25.59138 -0.9952998 -0.08776809 -0.04092665 0.4763862 0.2678096
2.125416 25.64206 26.41493 0.7083961 0.369796 -0.6011871 0.3451476 0.1393542
2.144738 22.7017 25.0225 0.7071766 0.299064 -0.6406732 0.4083337 0.1372743
2.125416 19.74502 23.66509 0.7044587 0.2193558 -0.674997 0.4713575 0.1361936
-3.005792 24.74382 28.34121 -0.9962412 0.07847371 0.03668078 0.3503413 0.27417
-2.732538 26.21808 29.02867 -0.8515089 0.4830782 0.2038826 0.3172571 0.2750058
-2.77699 18.36065 26.63387 -0.920952 -0.2447207 0.3032477 0.4778829 0.2898155
2.802235 22.14083 25.8467 0.9238325 0.161138 -0.3472292 0.4109735 0.1146294
2.77699 25.22994 27.29872 0.9207286 0.2359671 -0.3107708 0.3449093 0.1169414
2.77699 19.3329 24.54888 0.9201584 0.08594559 -0.3819972 0.4708929 0.1142249
-2.77699 24.2577 29.38371 -0.9211245 -0.08509221 0.379854 0.3515744 0.2966588
-2.524536 25.86316 30.01696 -0.7811657 0.3714571 0.5017967 0.3184599 0.2969834
-2.125416 17.94854 27.51766 -0.7044136 -0.3760194 0.6020058 0.4800655 0.3119071
3.005792 24.74382 28.34121 0.9964903 0.07542823 0.03630044 0.3443231 0.09438539
3.033117 21.65029 26.89867 0.9999998 -0.0006901332 -0.0001874032 0.4105803 0.09194299
3.005792 18.84678 25.59138 0.9966207 -0.07447318 -0.03465444 0.4706529 0.0921741
-2.125416 23.84558 30.26749 -0.704725 -0.2235041 0.6733562 0.3523796 0.3192553
-1.932196 25.48851 30.82041 -0.5771475 0.2380766 0.781166 0.3175848 0.3185477
-1.150267 17.67317 28.10818 -0.3795069 -0.4692345 0.7973666 0.4829049 0.334323
2.77699 24.2577 29.38371 0.9204489 -0.08280884 0.3819902 0.3441177 0.07186225
2.802235 21.30475 28.01827 0.9239173 -0.161433 0.3468664 0.407286 0.06916223
2.77699 18.36065 26.63387 0.9200631 -0.2386791 0.3106706 0.4705291 0.07005559
-1.150267 23.57021 30.85802 -0.3801598 -0.3121221 0.8706654 0.3528371 0.3419452
-1.045697 25.15117 31.31668 -0.2999541 0.1464292 0.9426485 0.3207058 0.3396926
0 17.57648 28.31555 -7.168551e-05 -0.5052099 0.8629966 0.4865906 0.3566402
2.144738 20.88889 28.91009 0.7071064 -0.2988365 0.6408567 0.4071424 0.0462373
2.125416 23.84558 30.26749 0.7044588 -0.2193552 0.6749971 0.3431664 0.04925301
2.125416 17.94854 27.51766 0.7044585 -0.376079 0.6019159 0.4710304 0.0477354
0 23.47352 31.06538 -7.836528e-08 -0.3426739 0.9394544 0.3522605 0.3648645
0 25.06326 31.50519 0.0001108897 0.1395889 0.9902096 0.3184146 0.3605483
1.150267 17.67317 28.10818 0.3793802 -0.4716953 0.7959738 0.47235 0.0253638
1.150267 23.57021 30.85802 0.3812505 -0.3106244 0.8707241 0.3420913 0.02670607
1.160724 20.61102 29.50598 0.3826836 -0.3904485 0.8373191 0.4070266 0.02301762
1.045697 25.15117 31.31668 0.3202593 0.1688121 0.9321676 0.3103981 0.03109942
0 20.51345 29.71523 -0.0001281921 -0.4229276 0.9061635 0.4068713 0
1.932196 25.4015 30.77983 0.5929414 0.2429035 0.7677359 0.3103627 0.05251801
-1.160724 20.78504 29.58712 -0.3826834 -0.3893617 0.8378251 0.4140354 0.3411979
2.524536 25.77615 29.97639 0.7743329 0.3368038 0.5356974 0.3124092 0.07396386
-2.144738 20.88889 28.91009 -0.7070159 -0.2991839 0.6407945 0.4162964 0.317932
2.732538 26.29059 29.06248 0.8394719 0.4841462 0.2467579 0.3101395 0.09582492
-2.802235 21.30475 28.01827 -0.9239284 -0.1619883 0.3465778 0.4148839 0.2949974
2.524536 26.73252 28.11476 0.7661559 0.638363 -0.07414772 0.3120103 0.1176919
-3.033117 21.96931 27.04743 -0.9999996 0.0007005797 0.0005039462 0.409858 0.2724001
1.932196 27.03466 27.27751 0.5901245 0.7369059 -0.3297313 0.3118832 0.1401152
-2.802235 22.45985 25.99546 -0.9238762 0.16247 -0.3464913 0.4086101 0.2497595
1.045697 27.28499 26.74066 0.2783878 0.8406228 -0.4646004 0.3145693 0.1624955
-2.144738 22.7017 25.0225 -0.7070916 0.2985461 -0.6410083 0.4112402 0.2270708
0 27.22789 26.48453 -0.04079825 0.8389961 -0.5426059 0.3160345 0.1853493
-0.9707161 -26.30005 3.467997 -0.6258162 -0.1574219 -0.7639192 0.04731745 1.846734e-08
0 -26.13012 3.103586 -1.287261e-07 -0.04786786 -0.9988537 0.06936551 0.0008856572
0 -26.87259 3.63576 -4.738098e-07 -0.7301828 -0.6832519 0.06205282 0.0169735
-0.4077907 -26.94398 3.788846 -0.2196595 -0.7686354 -0.6007906 0.05359034 0.0165264
-1.3728 -26.71029 4.347764 -0.885039 -0.4219018 -0.1967359 0.03113974 0.01502079
-0.5767032 -27.11632 4.15843 -0.3106483 -0.8614679 -0.4017098 0.04729966 0.02219898
-0.9707161 -27.12053 5.227532 -0.6258164 -0.6863846 0.3704458 0.03043102 0.0371305
-0.4077907 -27.28866 4.528014 -0.2196617 -0.9543008 -0.2026294 0.04686892 0.03063785
0 -27.29046 5.591944 -1.158534e-07 -0.7959349 0.6053823 0.04587785 0.05304507
0 -27.36005 4.681101 -5.468987e-07 -0.9927537 -0.1201673 0.05253337 0.03685747
0.9707161 -27.12053 5.227532 0.6258165 -0.6863844 0.3704458 0.06647611 0.05393258
0.4077907 -27.28866 4.528014 0.219662 -0.9543006 -0.20263 0.06085292 0.03728078
1.3728 -26.71029 4.347764 0.885039 -0.4219017 -0.1967357 0.0831449 0.03927713
0.5767032 -27.11632 4.15843 0.3106481 -0.8614681 -0.4017094 0.06719445 0.03173008
0.9707161 -26.30005 3.467997 0.6258163 -0.1574217 -0.7639192 0.08427686 0.01717272
0.4077907 -26.94398 3.788846 0.2196592 -0.7686357 -0.6007903 0.06770328 0.02327971
-0.9039286 27.30107 28.51904 -0.2126181 0.9708225 0.1108939 0.2848138 0.2434366
-1.277631 27.04831 29.39399 -0.2926474 0.8984125 0.3274333 0.284042 0.2634265
-0.9059762 26.73235 30.23762 -0.1697482 0.7949086 0.5824997 0.2843972 0.3073697
-0.006780174 26.47203 30.52813 0.04016691 0.688705 0.7239283 0.2859878 0.348915
0.8920607 26.63076 30.19131 0.2092418 0.7461064 0.6320943 0.2768206 0.04417603
1.263966 27.1009 29.41805 0.2760745 0.8626609 0.4237913 0.277172 0.08485527
0.8916062 27.4314 28.58108 0.1496537 0.9741155 0.1694192 0.278458 0.1287859
-0.008981694 27.45914 28.18365 -0.07125922 0.9968094 0.03596286 0.2821554 0.1745482
3.99885 2.6548 18.95638 0.6894013 -0.6657189 0.2855595 0.2588536 0.4468184
4.328324 2.6548 17.3 0.7462026 -0.6657189 -1.371314e-07 0.252373 0.4792555
3.060587 2.6548 20.36059 0.5276447 -0.6657189 0.5276452 0.277241 0.4193376
1.656378 2.6548 21.29885 0.2855594 -0.6657191 0.6894011 0.3047358 0.400981
0 2.6548 21.62832 0 -0.6657188 0.7462028 0.3371568 0.3945421
-1.656378 2.6548 21.29885 -0.2855594 -0.6657191 0.6894012 0.3695763 0.4009967
-3.060587 2.6548 20.36059 -0.5276448 -0.6657189 0.5276452 0.397065 0.4193625
-3.99885 2.6548 18.95638 -0.6894013 -0.6657189 0.2855594 0.4154433 0.446855
-4.328324 2.6548 17.3 -0.7462026 -0.6657189 -1.15479e-07 0.4219182 0.4792897
-3.99885 2.6548 15.64362 -0.6894013 -0.665719 -0.2855594 0.415499 0.5117525
-3.060587 2.6548 14.23941 -0.5276449 -0.6657188 -0.527645 0.3971442 0.5393011
-1.656378 2.6548 13.30115 -0.491871 -0.8300247 -0.2629106 0.3696252 0.5577263
3.060587 2.6548 14.23941 0.5276449 -0.6657189 -0.527645 0.2771428 0.5392725
1.656378 2.6548 13.30115 0.4918711 -0.8300247 -0.2629106 0.3046562 0.5577006
3.99885 2.6548 15.64362 0.6894013 -0.6657189 -0.2855594 0.2587842 0.5117212
3.99885 3.772384 15.64362 0.6894013 0.665719 -0.2855594 0.4028835 0.8654526
4.328324 3.772384 17.3 0.7462026 0.6657189 -1.15479e-07 0.3965573 0.8979485
3.060587 3.772384 14.23941 0.5276449 0.6657188 -0.527645 0.4211615 0.8378513
1.656378 3.772384 13.30115 0.491871 0.8300247 -0.2629106 0.448611 0.8193438
-3.060587 3.772384 14.23941 -0.5276449 0.6657189 -0.527645 0.5411736 0.8373463
-1.656378 3.772384 13.30115 -0.4918711 0.8300247 -0.2629106 0.5135609 0.8190688
-3.99885 3.772384 15.64362 -0.6894013 0.6657189 -0.2855594 0.5596911 0.8648003
-4.328324 3.772384 17.3 -0.7462026 0.6657189 -1.371314e-07 0.5662916 0.8972527
-3.99885 3.772384 18.95638 -0.6894013 0.6657189 0.2855595 0.5599657 0.9297593
-3.060587 3.772384 20.36059 -0.5276448 0.6657189 0.5276452 0.541681 0.9573702
-1.656378 3.772384 21.29885 -0.2855593 0.6657191 0.6894011 0.5142208 0.975881
0 3.772384 21.62832 -3.60872e-09 0.6657187 0.7462028 0.4817661 0.982471
1.656378 3.772384 21.29885 0.2855594 0.6657191 0.6894011 0.4492612 0.9761395
3.060587 3.772384 20.36059 0.5276447 0.6657189 0.5276452 0.4216548 0.9578536
3.99885 3.772384 18.95638 0.6894013 0.6657189 0.2855595 0.4031473 0.930397
2.339627 2.6548 19.63963 -0.4646687 -0.7537675 -0.4646692 0.6135455 0.9475886
1.266197 2.6548 20.35687 -0.2514777 -0.753767 -0.6071197 0.6135469 0.9737924
1.266197 3.772384 20.35687 -0.2514777 0.7537669 -0.6071198 0.5923774 0.9734737
2.339627 3.772384 19.63963 -0.4646687 0.7537676 -0.4646692 0.5923758 0.9472696
3.056871 2.6548 18.5662 -0.6071194 -0.7537673 -0.2514771 0.6135443 0.9213841
3.056871 3.772384 18.5662 -0.6071196 0.7537673 -0.2514772 0.5923744 0.9210654
3.308733 2.6548 17.3 -0.6571413 -0.7537674 -6.356017e-09 0.6135429 0.8951796
3.308733 3.772384 17.3 -0.6571413 0.7537674 6.356017e-09 0.5923733 0.894861
3.056871 2.6548 16.0338 -0.6071193 -0.7537674 0.2514773 0.6135409 0.8689761
3.056871 3.772384 16.0338 -0.6071193 0.7537674 0.2514773 0.5923719 0.8686572
2.339627 2.6548 14.96037 -0.4646692 -0.7537673 0.4646692 0.6135393 0.8427733
2.339627 3.772384 14.96037 -0.4646692 0.7537673 0.4646692 0.5923709 0.8424541
1.266197 2.6548 14.24313 -0.2514773 -0.7537675 0.6071192 0.6135384 0.8165717
1.266197 3.772384 14.24313 -0.2514774 0.7537675 0.6071193 0.5923705 0.8162519
-1.266197 2.6548 14.24313 0.2514774 -0.7537675 0.6071193 0.6135386 0.7641698
-1.266197 3.772384 14.24313 0.2514773 0.7537675 0.6071192 0.5923716 0.7638493
-2.339627 2.6548 14.96037 0.4646692 -0.7537673 0.4646692 0.613539 0.7379694
-2.339627 3.772384 14.96037 0.4646692 0.7537673 0.4646692 0.5923724 0.7376485
-3.056871 2.6548 16.0338 0.6071193 -0.7537674 0.2514773 0.6135397 0.7117693
-3.056871 3.772384 16.0338 0.6071193 0.7537674 0.2514773 0.5923734 0.7114484
-3.308733 2.6548 17.3 0.6571413 -0.7537674 6.356017e-09 0.6135409 0.6855697
-3.308733 3.772384 17.3 0.6571413 0.7537674 -6.356017e-09 0.5923745 0.6852487
-3.056871 2.6548 18.5662 0.6071195 -0.7537673 -0.2514772 0.6135422 0.65937
-3.056871 3.772384 18.5662 0.6071194 0.7537673 -0.2514771 0.5923755 0.6590487
-2.339627 2.6548 19.63963 0.4646687 -0.7537676 -0.4646692 0.6135441 0.6331698
-2.339627 3.772384 19.63963 0.4646687 0.7537676 -0.4646692 0.5923771 0.6328479
-1.266197 2.6548 20.35687 0.2514777 -0.7537669 -0.6071198 0.6135465 0.6069685
-1.266197 3.772384 20.35687 0.2514777 0.753767 -0.6071197 0.592379 0.6066464
0 2.6548 20.60873 0 -0.753768 -0.6571407 0.6135488 0.5807673
0 3.772384 20.60873 0 0.753768 -0.6571407 0.5923813 0.5804451
0 2.6548 20.60873 0 -0.753768 -0.6571407 0.6135488 0.999996
0 3.772384 20.60873 0 0.753768 -0.6571407 0.592379 0.9996776
1.656378 3.772384 13.30115 0.491871 0.8300247 -0.2629106 0.282739 0.5576898
-1.656378 3.772384 13.30115 -0.4918711 0.8300247 -0.2629106 0.3915428 0.5577372
0 3.772384 13.99127 -3.178009e-09 0.7537674 0.6571413 0.4811428 0.8327374
0 2.6548 13.99127 6.356018e-09 -0.7537674 0.6571413 0.3371466 0.5441827
-1.656378 3.772384 0 -0.7071068 0.7071068 0 0.5124535 0.5582817
1.656378 3.772384 0 0.7071069 0.7071066 0 0.4475025 0.5585577
1.704577 -28.3425 1.853851 0.6626617 -0.6610842 -0.3519192 0.4781816 0.4971104
2.758064 -28.3425 3.303851 0.835204 -0.4783203 -0.2713743 0.4563035 0.4676836
2.758064 -28.3425 5.096149 0.835204 -0.4783203 0.2713742 0.4560449 0.4309486
1.704577 -28.3425 6.546149 0.5161846 -0.4783203 0.7104669 0.4776911 0.4013413
0 -28.3425 7.1 0 -0.4783203 0.8781855 0.5123734 0.3901573
-1.704577 -28.3425 6.546149 -0.5161846 -0.4783203 0.7104669 0.5470443 0.4013447
-2.758064 -28.3425 5.096149 -0.835204 -0.4783203 0.2713742 0.5685087 0.4308972
-2.758064 -28.3425 3.303851 -0.835204 -0.4783203 -0.2713742 0.5685878 0.4676281
-1.704577 -28.3425 1.853851 -0.6626617 -0.6610842 -0.3519192 0.5465286 0.4971104
-1.704577 -27.2175 1.853851 -0.5907269 0.7837099 -0.1919388 0.5685811 0.4975036
-1.704577 -27.2175 0 -0.7071068 0.7071068 0 0.5679325 0.5338427
1.704577 -27.2175 1.853851 0.5907269 0.7837099 -0.1919388 0.456129 0.497503
1.704577 -27.2175 0 0.7071068 0.7071068 0 0.4567761 0.5338427
0 15.91344 26.51856 9.844891e-09 -0.725343 0.6883876 0.5253215 0.01827005
0 16.3337 27.43453 0.01337367 -0.7591009 0.6508356 0.5064656 0.009777753
0 17.57648 28.31555 -7.168551e-05 -0.5052099 0.8629966 0.474549 0.002414154
0 25.06326 31.50519 0.0001108897 0.1395889 0.9902096 0.3064352 0.01079951
0 23.47352 31.06538 -7.836528e-08 -0.3426739 0.9394544 0.3398694 0.003706248
0 20.51345 29.71523 -0.0001281921 -0.4229276 0.9061635 0.4193817 0.3641155
-1.277631 27.04831 29.39399 -0.2926474 0.8984125 0.3274333 0.2844981 0.2876303
-0.9059762 26.73235 30.23762 -0.1697482 0.7949086 0.5824997 0.2850117 0.329347
-0.006780174 26.47203 30.52813 0.04016691 0.688705 0.7239283 0.2749714 0.02497416
0.8920607 26.63076 30.19131 0.2092418 0.7461064 0.6320943 0.2777658 0.06510767
1.263966 27.1009 29.41805 0.2760745 0.8626609 0.4237913 0.2774959 0.1090185
0.8916062 27.4314 28.58108 0.1496537 0.9741155 0.1694192 0.2797596 0.1546558
-0.008981694 27.45914 28.18365 -0.07125922 0.9968094 0.03596286 0.283759 0.1991804
-0.9039286 27.30107 28.51904 -0.2126181 0.9708225 0.1108939 0.284513 0.2187972
-0.9039286 27.30107 28.51904 -0.2126181 0.9708225 0.1108939 0.2288025 0.02974183
0.8916062 27.4314 28.58108 0.1496537 0.9741155 0.1694192 0.2456 0.06081545
-0.008981694 27.45914 28.18365 -0.07125922 0.9968094 0.03596286 0.2306055 0.04864988
-1.277631 27.04831 29.39399 -0.2926474 0.8984125 0.3274333 0.2411514 0.0149163
1.263966 27.1009 29.41805 0.2760745 0.8626609 0.4237913 0.2646021 0.05894392
-0.9059762 26.73235 30.23762 -0.1697482 0.7949086 0.5824997 0.2601112 0.01290388
2.08 16.79248 24.63344 0.8918857 -0.4098874 -0.191134 0.06355959 0.9961675
1.921669 16.45609 25.35485 0.8334158 -0.5328068 0.1467479 0.04766466 0.9957249
1.3728 -26.71029 4.347764 0.885039 -0.4219017 -0.1967357 0.0870528 0.0545729
1.470782 16.1709 25.96642 0.6442566 -0.6458085 0.409713 0.03177274 0.9951841
1.921669 17.12888 23.91204 0.8233861 -0.2516585 -0.508629 0.07945674 0.9965179
1.470782 17.41406 23.30046 0.6442561 -0.1012609 -0.7580768 0.09535585 0.9967693
0.9707161 -26.30005 3.467997 0.6258163 -0.1574217 -0.7639192 0.1076356 0.05496899
0.7959816 17.60461 22.89182 0.3650692 -0.03709071 -0.9302413 0.1112561 0.9969305
0 17.67153 22.74832 1.430853e-07 -0.0665702 -0.9977818 0.127157 0.9969937
0 -26.13012 3.103586 -1.287261e-07 -0.04786786 -0.9988537 0.1282213 0.055117
-0.7959816 17.60461 22.89182 -0.3591277 -0.08051081 -0.9298093 0.1430579 0.9969665
-1.470782 17.41406 23.30046 -0.6442567 -0.1012612 -0.7580762 0.1589585 0.9968403
-0.9707161 -26.30005 3.467997 -0.6258162 -0.1574219 -0.7639192 0.148807 0.05501901
-1.921669 17.12888 23.91204 -0.8562019 -0.2179338 -0.4684264 0.1748581 0.9966241
-2.08 16.79248 24.63344 -0.9380204 -0.314108 -0.1464718 0.1907561 0.9963092
-1.3728 -26.71029 4.347764 -0.885039 -0.4219018 -0.1967359 0.1693903 0.05467836
-1.921669 16.45609 25.35485 -0.868475 -0.4710317 0.1545326 0.206652 0.9959018
-1.470782 16.1709 25.96642 -0.6442566 -0.6458085 0.409713 0.222545 0.9953964
-0.9707161 -27.12053 5.227532 -0.6258164 -0.6863846 0.3704458 0.189968 0.05409052
-0.7959816 15.98035 26.37506 -0.33746 -0.7232867 0.6024758 0.238435 0.9948009
0 15.91344 26.51856 9.844891e-09 -0.725343 0.6883876 0.2543209 0.9941067
0 -27.29046 5.591944 -1.158534e-07 -0.7959349 0.6053823 0.2105373 0.05325757
0.7959816 15.98035 26.37506 0.3420007 -0.7054051 0.6208376 0.01588425 0.9945534
0 15.91344 26.51856 9.844891e-09 -0.725343 0.6883876 0 0.9938247
3 0 1 2 
3 0 2 3 
3 3 2 4 
3 3 4 5 
3 5 4 6 
3 5 6 7 
3 8 9 10 
3 8 10 11 
3 11 10 12 
3 11 12 13 
3 13 12 14 
3 13 14 15 
3 15 14 16 
3 15 16 17 
3 17 16 18 
3 17 18 19 
3 19 18 20 
3 19 20 21 
3 21 20 22 
3 21 22 23 
3 23 22 24 
3 23 24 25 
3 25 24 26 
3 25 26 27 
3 27 26 28 
3 27 28 29 
3 29 28 1 
3 29 1 0 
3 219 30 31 
3 219 31 220 
3 219 221 32 
3 219 32 30 
3 222 33 32 
3 222 32 221 
3 222 223 34 
3 222 34 33 
3 224 35 34 
3 224 34 223 
3 224 225 36 
3 224 36 35 
3 226 37 36 
3 226 36 225 
3 226 227 38 
3 226 38 37 
3 228 39 38 
3 228 38 227 
3 228 229 40 
3 228 40 39 
3 229 230 41 
3 229 41 40 
3 231 42 43 
3 231 43 232 
3 233 44 42 
3 233 42 231 
3 233 220 31 
3 233 31 44 
3 234 45 46 
3 234 46 235 
3 234 236 47 
3 234 47 45 
3 236 237 48 
3 236 48 47 
3 238 49 50 
3 238 50 239 
3 240 51 49 
3 240 49 238 
3 240 241 52 
3 240 52 51 
3 242 53 52 
3 242 52 241 
3 242 243 54 
3 242 54 53 
3 244 55 54 
3 244 54 243 
3 244 245 56 
3 244 56 55 
3 246 57 56 
3 246 56 245 
3 246 247 58 
3 246 58 57 
3 248 59 58 
3 248 58 247 
3 248 235 46 
3 248 46 59 
3 249 250 251 
3 249 251 252 
3 253 249 252 
3 253 252 254 
3 255 253 254 
3 255 254 256 
3 257 255 256 
3 257 256 258 
3 259 257 258 
3 259 258 260 
3 261 259 260 
3 261 260 262 
3 60 261 262 
3 60 262 61 
3 263 60 61 
3 263 61 264 
3 265 263 264 
3 265 264 266 
3 267 265 266 
3 267 266 268 
3 269 267 268 
3 269 268 270 
3 271 269 270 
3 271 270 272 
3 273 271 272 
3 273 272 274 
3 275 273 274 
3 275 274 276 
3 277 275 276 
3 277 276 278 
3 250 279 280 
3 250 280 251 
3 281 232 62 
3 281 62 63 
3 230 282 64 
3 230 64 65 
3 239 50 283 
3 237 283 48 
3 232 43 284 
3 230 284 41 
3 62 232 284 
3 65 284 230 
3 65 62 284 
3 285 239 283 
3 286 283 237 
3 286 285 283 
3 66 67 68 
3 66 68 69 
3 69 68 70 
3 69 70 71 
3 71 70 72 
3 71 72 73 
3 73 72 74 
3 73 74 75 
3 75 74 76 
3 75 76 77 
3 77 76 78 
3 77 78 79 
3 79 78 80 
3 79 80 81 
3 81 80 82 
3 81 82 83 
3 84 287 85 
3 84 85 86 
3 287 288 87 
3 287 87 85 
3 288 289 88 
3 288 88 87 
3 290 89 88 
3 290 88 289 
3 291 90 89 
3 291 89 290 
3 291 292 91 
3 291 91 90 
3 292 293 92 
3 292 92 91 
3 293 294 93 
3 293 93 92 
3 295 94 93 
3 295 93 294 
3 84 86 94 
3 84 94 295 
3 66 83 95 
3 66 95 96 
3 295 296 297 
3 295 297 97 
3 298 287 98 
3 298 98 299 
3 287 84 98 
3 84 97 98 
3 84 295 97 
3 69 81 83 
3 69 83 66 
3 69 71 79 
3 69 79 81 
3 71 73 77 
3 71 77 79 
3 73 75 77 
3 91 94 86 
3 91 86 90 
3 91 92 93 
3 91 93 94 
3 86 85 89 
3 86 89 90 
3 85 87 88 
3 85 88 89 
3 99 100 101 
3 99 101 102 
3 100 103 104 
3 100 104 101 
3 103 105 106 
3 103 106 104 
3 105 107 108 
3 105 108 106 
3 107 109 110 
3 107 110 108 
3 109 111 112 
3 109 112 110 
3 111 113 114 
3 111 114 112 
3 113 115 116 
3 113 116 114 
3 300 117 118 
3 300 118 301 
3 117 119 120 
3 117 120 118 
3 119 121 122 
3 119 122 120 
3 121 123 124 
3 121 124 122 
3 123 125 126 
3 123 126 124 
3 125 127 128 
3 125 128 126 
3 127 129 130 
3 127 130 128 
3 129 99 102 
3 129 102 130 
3 104 131 132 
3 104 132 101 
3 133 134 135 
3 133 135 136 
3 133 137 132 
3 133 132 134 
3 138 139 140 
3 138 140 135 
3 106 141 131 
3 106 131 104 
3 133 136 142 
3 133 142 143 
3 143 144 137 
3 143 137 133 
3 145 146 139 
3 145 139 138 
3 108 147 141 
3 108 141 106 
3 143 142 148 
3 143 148 149 
3 149 150 144 
3 149 144 143 
3 151 152 146 
3 151 146 145 
3 110 153 147 
3 110 147 108 
3 154 149 148 
3 154 148 155 
3 149 154 156 
3 149 156 150 
3 157 158 152 
3 157 152 151 
3 112 159 153 
3 112 153 110 
3 154 155 160 
3 154 160 161 
3 154 161 162 
3 154 162 156 
3 163 164 158 
3 163 158 157 
3 114 165 159 
3 114 159 112 
3 161 160 166 
3 161 166 167 
3 167 168 162 
3 167 162 161 
3 169 170 164 
3 169 164 163 
3 116 171 165 
3 116 165 114 
3 172 167 166 
3 172 166 173 
3 172 174 168 
3 172 168 167 
3 175 176 170 
3 175 170 169 
3 118 177 302 
3 118 302 301 
3 172 173 178 
3 172 178 179 
3 172 179 177 
3 172 177 174 
3 178 180 303 
3 178 303 304 
3 120 174 177 
3 120 177 118 
3 181 179 178 
3 181 178 304 
3 181 302 177 
3 181 177 179 
3 173 182 180 
3 173 180 178 
3 122 168 174 
3 122 174 120 
3 305 175 169 
3 305 169 183 
3 183 165 171 
3 183 171 305 
3 166 184 182 
3 166 182 173 
3 124 162 168 
3 124 168 122 
3 185 183 169 
3 185 169 163 
3 183 185 159 
3 183 159 165 
3 160 186 184 
3 160 184 166 
3 126 156 162 
3 126 162 124 
3 185 163 157 
3 185 157 187 
3 187 153 159 
3 187 159 185 
3 155 188 186 
3 155 186 160 
3 128 150 156 
3 128 156 126 
3 187 157 151 
3 187 151 189 
3 189 147 153 
3 189 153 187 
3 148 190 188 
3 148 188 155 
3 130 144 150 
3 130 150 128 
3 191 189 151 
3 191 151 145 
3 189 191 141 
3 189 141 147 
3 142 192 190 
3 142 190 148 
3 102 137 144 
3 102 144 130 
3 191 145 138 
3 191 138 193 
3 141 191 193 
3 141 193 131 
3 136 194 192 
3 136 192 142 
3 101 132 137 
3 101 137 102 
3 193 138 135 
3 193 135 134 
3 134 132 131 
3 134 131 193 
3 135 140 194 
3 135 194 136 
3 195 196 197 
3 195 197 198 
3 199 195 198 
3 199 198 200 
3 201 199 200 
3 201 200 202 
3 203 201 202 
3 203 202 204 
3 205 203 204 
3 205 204 206 
3 207 205 206 
3 207 206 208 
3 209 207 208 
3 209 208 210 
3 196 209 210 
3 196 210 197 
3 139 146 211 
3 146 212 211 
3 146 152 212 
3 152 158 306 
3 158 213 306 
3 158 164 213 
3 164 170 307 
3 170 214 307 
3 170 176 214 
3 303 180 308 
3 180 215 308 
3 180 182 215 
3 309 182 184 
3 186 216 184 
3 216 309 184 
3 186 188 310 
3 188 217 310 
3 188 190 217 
3 190 192 311 
3 192 218 311 
3 192 194 218 
3 312 194 140 
3 139 313 140 
3 313 312 140 
3 314 315 316 
3 314 317 318 
3 314 318 315 
3 317 319 215 
3 317 215 318 
3 319 308 215 
3 320 321 322 
3 321 205 322 
3 321 323 205 
3 324 320 322 
3 325 324 326 
3 324 322 326 
3 327 325 326 
3 328 327 329 
3 327 326 329 
3 330 328 329 
3 331 330 332 
3 330 329 332 
3 333 331 332 
3 334 333 335 
3 333 332 335 
3 336 334 335 
3 337 336 338 
3 336 335 338 
3 339 337 338 
3 340 339 341 
3 339 338 341 
3 342 343 203 
3 323 342 205 
3 342 203 205 
3 197 210 206 
3 197 206 204 
3 210 208 206 
3 197 204 202 
3 197 202 198 
3 202 200 198 
