ply
format ascii 1.0
comment VCGLIB generated
comment TextureFile torch_A_d.png
element vertex 164
property float x
property float y
property float z
property float nx
property float ny
property float nz
property float texture_u
property float texture_v
element face 236
property list uchar int vertex_indices
end_header
0 18.52911 -2.08 0 -0.4820137 -0.8761637 0.5233706 0.1776927
-0.7959816 18.52911 -1.921669 -0.3591267 -0.465922 -0.8086684 0.5242474 0.199671
-1.045697 19.00911 -2.524536 -0.3613837 -0.5098345 -0.780686 0.5085626 0.2005204
0 19.00911 -2.732538 0.01867997 -0.5003684 -0.8656111 0.5076813 0.1789818
-1.470782 18.52911 -1.470782 -0.6442565 -0.4121494 -0.6442565 0.5244231 0.2215618
-1.932196 19.16911 -1.932196 -0.6459298 -0.4433334 -0.6214743 0.5065544 0.2222012
-1.921669 18.52911 -0.7959816 -0.8562021 -0.3954806 -0.3324351 0.5250509 0.242667
-2.524536 19.16911 -1.045697 -0.8343297 -0.4599596 -0.3038603 0.5073204 0.2436466
-2.08 18.52911 0 -0.9380203 -0.3465802 9.799952e-09 0.5256122 0.2636489
-2.732538 19.36111 0 -0.91709 -0.3982047 0.01946929 0.504861 0.2651545
-1.921669 18.52911 0.7959816 -0.868475 -0.3615915 0.3391206 0.5272003 0.2835155
-2.524536 19.36111 1.045697 -0.8619405 -0.3918166 0.3217738 0.5060993 0.2861376
-1.470782 18.52911 1.470782 -0.6442565 -0.4121494 0.6442565 0.5286764 0.3031788
-1.932196 19.16911 1.932196 -0.6462052 -0.4504808 0.6160243 0.5117009 0.3062896
-0.7959816 18.52911 1.921669 -0.3374608 -0.400903 0.8517025 0.5319474 0.3214482
-1.045697 19.16911 2.524536 -0.3169319 -0.4560202 0.8316247 0.5147189 0.3267092
0 18.52911 2.08 0 -0.3664593 0.9304341 0.5369948 0.3376293
0 19.29711 2.732538 0.01337388 -0.4129239 0.9106674 0.518014 0.347517
0.7959816 18.52911 1.921669 0.3420015 -0.3769363 0.8607869 0.5215761 0.03428059
1.045697 19.29711 2.524536 0.3283917 -0.4079436 0.8519043 0.502333 0.029964
1.470782 18.52911 1.470782 0.6442565 -0.4121494 0.6442565 0.5204875 0.05234409
1.932196 19.16911 1.932196 0.6214467 -0.4496727 0.6415594 0.5028862 0.05100099
1.921669 18.52911 0.7959816 0.8334156 -0.4208691 0.3581727 0.5203865 0.07203415
2.524536 19.16911 1.045697 0.8223285 -0.4404011 0.3603092 0.5026164 0.07181758
2.08 18.52911 0 0.8918857 -0.4522609 -1.01029e-08 0.5207983 0.09249441
2.732538 19.07311 0 0.8783906 -0.4778177 0.01097373 0.5042984 0.09300637
1.921669 18.52911 -0.7959816 0.823387 -0.4430346 -0.3546185 0.5212774 0.1137365
2.524536 19.07311 -1.045697 0.8009858 -0.4831912 -0.3534798 0.5047754 0.1142725
1.470782 18.52911 -1.470782 0.6442565 -0.4121494 -0.6442565 0.5215428 0.1351855
1.932196 19.16911 -1.932196 0.6257503 -0.445096 -0.6405671 0.5036687 0.135735
0.7959816 18.52911 -1.921669 0.3650679 -0.4267531 -0.82741 0.5222737 0.1563548
1.045697 19.16911 -2.524536 0.3718298 -0.4356028 -0.8197517 0.5044522 0.1573022
-2.125416 20.79578 -2.125416 -0.7044588 -0.08646258 -0.7044587 0.4743454 0.2239301
-1.150267 20.79578 -2.77699 -0.3832155 -0.08155581 -0.9200514 0.4734529 0.2020119
0 24.04911 -3.033117 -7.003832e-05 -0.0001426782 -1 0.4095055 0.182192
-1.160724 24.04911 -2.802235 -0.3826834 4.538743e-09 -0.9238796 0.4103271 0.2046195
-1.150267 27.30244 -2.77699 -0.3850463 0.09353421 -0.9181452 0.347149 0.2068203
0 27.49445 -3.005792 -0.01218046 0.1097209 -0.9938878 0.3423467 0.1844109
0 20.79578 -3.005792 8.559054e-09 -0.07929593 -0.9968511 0.4727512 0.1800199
-2.125416 27.30244 -2.125416 -0.7038373 0.09522243 -0.7039502 0.3479746 0.2292581
-1.932196 28.76911 -1.932196 -0.5812445 0.5199528 -0.6259425 0.3177142 0.2302494
-1.045697 28.76911 -2.524536 -0.3226576 0.5381448 -0.7786478 0.318632 0.2077038
-2.77699 20.79578 -1.150267 -0.9212754 -0.08947267 -0.378479 0.4752633 0.2458688
1.150267 27.49445 -2.77699 0.385355 0.09798544 -0.9175513 0.3419546 0.161907
1.160724 24.04911 -2.802235 0.382748 -0.0001426875 -0.9238528 0.4088385 0.1597587
1.150267 20.79578 -2.77699 0.3831667 -0.08410728 -0.9198419 0.4719194 0.1581231
-2.77699 27.30244 -1.150267 -0.9192997 0.08932623 -0.3832869 0.3492277 0.2517023
-2.524536 28.92911 -1.045697 -0.7514735 0.5548168 -0.3570237 0.3180926 0.2528836
-3.005792 20.79578 0 -0.9952998 -0.09684145 1.472655e-08 0.4763862 0.2678096
2.125416 27.30244 -2.125416 0.708396 0.0810762 -0.7011431 0.3451476 0.1393542
2.144738 24.04911 -2.144738 0.7071767 0.0002841011 -0.7070368 0.4083337 0.1372743
2.125416 20.79578 -2.125416 0.7044588 -0.08646261 -0.7044588 0.4713575 0.1361936
-3.005792 27.30244 0 -0.9962412 0.08662328 8.008203e-05 0.3503413 0.27417
-2.732538 28.92911 0 -0.8515087 0.5239823 -0.01937671 0.3172571 0.2750058
-2.77699 20.79578 1.150267 -0.920952 -0.09363411 0.3782592 0.4778829 0.2898155
2.802235 23.88911 -1.160724 0.9238328 -0.0007046758 -0.3827958 0.4109735 0.1146294
2.77699 27.30244 -1.150267 0.9207285 0.08252118 -0.3813781 0.3449093 0.1169414
2.77699 20.79578 -1.150267 0.9201584 -0.0835459 -0.3825294 0.4708929 0.1142249
-2.77699 27.30244 1.150267 -0.9211245 0.08341327 0.3802261 0.3515744 0.2966588
-2.524536 29.02511 1.045697 -0.7811656 0.5487228 0.2977979 0.3184599 0.2969834
-2.125416 20.79578 2.125416 -0.7044138 -0.0863707 0.7045149 0.4800655 0.3119071
3.005792 27.30244 0 0.9964903 0.08370226 0.001022366 0.3443231 0.09438539
3.033117 23.88911 0 0.9999998 -0.0007046644 0.000121753 0.4105803 0.09194299
3.005792 20.79578 0 0.9966207 -0.08214131 6.597849e-05 0.4706529 0.0921741
-2.125416 27.30244 2.125416 -0.704725 0.08200868 0.704725 0.3523796 0.3192553
-1.932196 29.02511 1.932196 -0.5771471 0.5459056 0.6073618 0.3175848 0.3185477
-1.150267 20.79578 2.77699 -0.3795069 -0.08828921 0.9209666 0.4829049 0.334323
2.77699 27.30244 1.150267 0.920449 0.08638546 0.3811973 0.3441177 0.07186225
2.802235 24.04911 1.160724 0.9239174 0.0002841216 0.382592 0.407286 0.06916223
2.77699 20.79578 1.150267 0.9200631 -0.0850215 0.3824332 0.4705291 0.07005559
-1.150267 27.30244 2.77699 -0.3801596 0.08508025 0.9209995 0.3528371 0.3419452
-1.045697 28.92911 2.524536 -0.2999536 0.53109 0.7924464 0.3207058 0.3396926
0 20.79578 3.005792 -7.155309e-05 -0.09315728 0.9956514 0.4865906 0.3566402
2.144738 24.04911 2.144738 0.7071068 -5.143909e-09 0.7071068 0.4071424 0.0462373
2.125416 27.30244 2.125416 0.7044588 0.08646259 0.7044588 0.3431664 0.04925301
2.125416 20.79578 2.125416 0.7044588 -0.08646259 0.7044588 0.4710304 0.0477354
0 27.30244 3.005792 -9.795659e-09 0.08646256 0.9962551 0.3522605 0.3648645
0 28.92911 2.732538 0.0001109894 0.5449907 0.8384421 0.3184146 0.3605483
1.150267 20.79578 2.77699 0.3793802 -0.09110793 0.9207443 0.47235 0.0253638
1.150267 27.30244 2.77699 0.3812503 0.08646256 0.9204198 0.3420913 0.02670607
1.160724 24.04911 2.802235 0.3826834 -4.841326e-09 0.9238796 0.4070266 0.02301762
1.045697 28.92911 2.524536 0.3202591 0.5469463 0.773488 0.3103981 0.03109942
0 24.04911 3.033117 -0.0001276691 -0.0003410894 1 0.4068713 0
1.932196 28.92911 1.932196 0.5929411 0.5446041 0.5931503 0.3103627 0.05251801
-1.160724 24.24111 2.802235 -0.3826831 0.001199074 0.9238789 0.4140354 0.3411979
2.524536 28.92911 1.045697 0.7743327 0.531643 0.3431685 0.3124092 0.07396386
-2.144738 24.04911 2.144738 -0.7070165 -0.0003410715 0.707197 0.4162964 0.317932
2.732538 29.00911 0 0.8394717 0.5430701 0.01902967 0.3101395 0.09582492
-2.802235 24.04911 1.160724 -0.9239284 -0.0003410825 0.3825653 0.4148839 0.2949974
2.524536 29.00911 -1.045697 0.7661561 0.5472169 -0.3369843 0.3120103 0.1176919
-3.033117 24.24111 0 -0.9999997 0.0008479499 0.0001610515 0.409858 0.2724001
1.932196 28.92911 -1.932196 0.5901246 0.528513 -0.610268 0.3118832 0.1401152
-2.802235 24.24111 -1.160724 -0.9238765 0.0008143472 -0.38269 0.4086101 0.2497595
1.045697 28.92911 -2.524536 0.2783865 0.5655149 -0.7763337 0.3145693 0.1624955
-2.144738 24.04911 -2.144738 -0.7070915 -0.0003271569 -0.707122 0.4112402 0.2270708
0 28.76911 -2.732538 -0.04079836 0.5310725 -0.8463436 0.3160345 0.1853493
-0.9707161 -29.47088 -0.9707161 -0.6258166 -0.4655183 -0.6258166 0.04731745 1.846734e-08
0 -29.47088 -1.3728 -1.287263e-08 -0.4655177 -0.8850387 0.06936551 0.0008856572
0 -29.91889 -0.5767032 5.040535e-09 -0.9505252 -0.3106475 0.06205282 0.0169735
-0.4077907 -29.91889 -0.4077907 -0.219661 -0.9505252 -0.2196609 0.05359034 0.0165264
-1.3728 -29.47088 0 -0.8850387 -0.4655177 1.287263e-08 0.03113974 0.01502079
-0.5767032 -29.91889 0 -0.3106476 -0.9505252 0 0.04729966 0.02219898
-0.9707161 -29.47088 0.9707161 -0.6258166 -0.4655183 0.6258166 0.03043102 0.0371305
-0.4077907 -29.91889 0.4077907 -0.2196609 -0.9505252 0.219661 0.04686892 0.03063785
0 -29.47088 1.3728 1.287263e-08 -0.4655177 0.8850387 0.04587785 0.05304507
0 -29.91889 0.5767032 -5.040536e-09 -0.9505252 0.3106476 0.05253337 0.03685747
0.9707161 -29.47088 0.9707161 0.6258166 -0.4655183 0.6258166 0.06647611 0.05393258
0.4077907 -29.91889 0.4077907 0.219661 -0.9505252 0.2196609 0.06085292 0.03728078
1.3728 -29.47088 0 0.8850387 -0.4655177 -1.287263e-08 0.0831449 0.03927713
0.5767032 -29.91889 0 0.3106476 -0.9505252 0 0.06719445 0.03173008
0.9707161 -29.47088 -0.9707161 0.6258166 -0.4655183 -0.6258166 0.08427686 0.01717272
0.4077907 -29.91889 -0.4077907 0.2196609 -0.9505252 -0.219661 0.06770328 0.02327971
-0.9039286 29.69526 -0.919569 -0.2126181 0.92673 -0.3097823 0.2848138 0.2434366
-1.277631 29.83595 -0.01977725 -0.2926474 0.9526176 -0.08292942 0.284042 0.2634265
-0.9059762 29.90612 0.8783439 -0.1697483 0.966607 0.1919802 0.2843972 0.3073697
-0.006780174 29.79296 1.251653 0.04016676 0.930124 0.3650423 0.2859878 0.348915
0.8920607 29.79448 0.879307 0.2092416 0.9433365 0.2575542 0.2768206 0.04417603
1.263966 29.89378 -0.02019263 0.2760743 0.9609383 0.01950998 0.277172 0.08485527
0.8916062 29.8396 -0.9184229 0.1496534 0.9544483 -0.2581323 0.278458 0.1287859
-0.008981694 29.69677 -1.290338 -0.07125982 0.9186141 -0.3886774 0.2821554 0.1745482
0 18.52911 2.08 0 -0.3664593 0.9304341 0.5253215 0.01827005
0 19.29711 2.732538 0.01337388 -0.4129239 0.9106674 0.5064656 0.009777753
0 20.79578 3.005792 -7.155309e-05 -0.09315728 0.9956514 0.474549 0.002414154
0 28.92911 2.732538 0.0001109894 0.5449907 0.8384421 0.3064352 0.01079951
0 27.30244 3.005792 -9.795659e-09 0.08646256 0.9962551 0.3398694 0.003706248
0 24.04911 3.033117 -0.0001276691 -0.0003410894 1 0.4193817 0.3641155
-1.277631 29.83595 -0.01977725 -0.2926474 0.9526176 -0.08292942 0.2844981 0.2876303
-0.9059762 29.90612 0.8783439 -0.1697483 0.966607 0.1919802 0.2850117 0.329347
-0.006780174 29.79296 1.251653 0.04016676 0.930124 0.3650423 0.2749714 0.02497416
0.8920607 29.79448 0.879307 0.2092416 0.9433365 0.2575542 0.2777658 0.06510767
1.263966 29.89378 -0.02019263 0.2760743 0.9609383 0.01950998 0.2774959 0.1090185
0.8916062 29.8396 -0.9184229 0.1496534 0.9544483 -0.2581323 0.2797596 0.1546558
-0.008981694 29.69677 -1.290338 -0.07125982 0.9186141 -0.3886774 0.283759 0.1991804
-0.9039286 29.69526 -0.919569 -0.2126181 0.92673 -0.3097823 0.284513 0.2187972
-0.9039286 29.69526 -0.919569 -0.2126181 0.92673 -0.3097823 0.2288025 0.02974183
0.8916062 29.8396 -0.9184229 0.1496534 0.9544483 -0.2581323 0.2456 0.06081545
-0.008981694 29.69677 -1.290338 -0.07125982 0.9186141 -0.3886774 0.2306055 0.04864988
-1.277631 29.83595 -0.01977725 -0.2926474 0.9526176 -0.08292942 0.2411514 0.0149163
1.263966 29.89378 -0.02019263 0.2760743 0.9609383 0.01950998 0.2646021 0.05894392
-0.9059762 29.90612 0.8783439 -0.1697483 0.966607 0.1919802 0.2601112 0.01290388
2.08 18.52911 0 0.8918857 -0.4522609 -1.01029e-08 0.06355959 0.9961675
1.921669 18.52911 0.7959816 0.8334156 -0.4208691 0.3581727 0.04766466 0.9957249
1.3728 -29.47088 0 0.8850387 -0.4655177 -1.287263e-08 0.0870528 0.0545729
1.470782 18.52911 1.470782 0.6442565 -0.4121494 0.6442565 0.03177274 0.9951841
1.921669 18.52911 -0.7959816 0.823387 -0.4430346 -0.3546185 0.07945674 0.9965179
1.470782 18.52911 -1.470782 0.6442565 -0.4121494 -0.6442565 0.09535585 0.9967693
0.9707161 -29.47088 -0.9707161 0.6258166 -0.4655183 -0.6258166 0.1076356 0.05496899
0.7959816 18.52911 -1.921669 0.3650679 -0.4267531 -0.82741 0.1112561 0.9969305
0 18.52911 -2.08 0 -0.4820137 -0.8761637 0.127157 0.9969937
0 -29.47088 -1.3728 -1.287263e-08 -0.4655177 -0.8850387 0.1282213 0.055117
-0.7959816 18.52911 -1.921669 -0.3591267 -0.465922 -0.8086684 0.1430579 0.9969665
-1.470782 18.52911 -1.470782 -0.6442565 -0.4121494 -0.6442565 0.1589585 0.9968403
-0.9707161 -29.47088 -0.9707161 -0.6258166 -0.4655183 -0.6258166 0.148807 0.05501901
-1.921669 18.52911 -0.7959816 -0.8562021 -0.3954806 -0.3324351 0.1748581 0.9966241
-2.08 18.52911 0 -0.9380203 -0.3465802 9.799952e-09 0.1907561 0.9963092
-1.3728 -29.47088 0 -0.8850387 -0.4655177 1.287263e-08 0.1693903 0.05467836
-1.921669 18.52911 0.7959816 -0.868475 -0.3615915 0.3391206 0.206652 0.9959018
-1.470782 18.52911 1.470782 -0.6442565 -0.4121494 0.6442565 0.222545 0.9953964
-0.9707161 -29.47088 0.9707161 -0.6258166 -0.4655183 0.6258166 0.189968 0.05409052
-0.7959816 18.52911 1.921669 -0.3374608 -0.400903 0.8517025 0.238435 0.9948009
0 18.52911 2.08 0 -0.3664593 0.9304341 0.2543209 0.9941067
0 -29.47088 1.3728 1.287263e-08 -0.4655177 0.8850387 0.2105373 0.05325757
0.7959816 18.52911 1.921669 0.3420015 -0.3769363 0.8607869 0.01588425 0.9945534
0 18.52911 2.08 0 -0.3664593 0.9304341 0 0.9938247
3 0 1 2 
3 0 2 3 
3 1 4 5 
3 1 5 2 
3 4 6 7 
3 4 7 5 
3 6 8 9 
3 6 9 7 
3 8 10 11 
3 8 11 9 
3 10 12 13 
3 10 13 11 
3 12 14 15 
3 12 15 13 
3 14 16 17 
3 14 17 15 
3 120 18 19 
3 120 19 121 
3 18 20 21 
3 18 21 19 
3 20 22 23 
3 20 23 21 
3 22 24 25 
3 22 25 23 
3 24 26 27 
3 24 27 25 
3 26 28 29 
3 26 29 27 
3 28 30 31 
3 28 31 29 
3 30 0 3 
3 30 3 31 
3 5 32 33 
3 5 33 2 
3 34 35 36 
3 34 36 37 
3 34 38 33 
3 34 33 35 
3 39 40 41 
3 39 41 36 
3 7 42 32 
3 7 32 5 
3 34 37 43 
3 34 43 44 
3 44 45 38 
3 44 38 34 
3 46 47 40 
3 46 40 39 
3 9 48 42 
3 9 42 7 
3 44 43 49 
3 44 49 50 
3 50 51 45 
3 50 45 44 
3 52 53 47 
3 52 47 46 
3 11 54 48 
3 11 48 9 
3 55 50 49 
3 55 49 56 
3 50 55 57 
3 50 57 51 
3 58 59 53 
3 58 53 52 
3 13 60 54 
3 13 54 11 
3 55 56 61 
3 55 61 62 
3 55 62 63 
3 55 63 57 
3 64 65 59 
3 64 59 58 
3 15 66 60 
3 15 60 13 
3 62 61 67 
3 62 67 68 
3 68 69 63 
3 68 63 62 
3 70 71 65 
3 70 65 64 
3 17 72 66 
3 17 66 15 
3 73 68 67 
3 73 67 74 
3 73 75 69 
3 73 69 68 
3 76 77 71 
3 76 71 70 
3 19 78 122 
3 19 122 121 
3 73 74 79 
3 73 79 80 
3 73 80 78 
3 73 78 75 
3 79 81 123 
3 79 123 124 
3 21 75 78 
3 21 78 19 
3 82 80 79 
3 82 79 124 
3 82 122 78 
3 82 78 80 
3 74 83 81 
3 74 81 79 
3 23 69 75 
3 23 75 21 
3 125 76 70 
3 125 70 84 
3 84 66 72 
3 84 72 125 
3 67 85 83 
3 67 83 74 
3 25 63 69 
3 25 69 23 
3 86 84 70 
3 86 70 64 
3 84 86 60 
3 84 60 66 
3 61 87 85 
3 61 85 67 
3 27 57 63 
3 27 63 25 
3 86 64 58 
3 86 58 88 
3 88 54 60 
3 88 60 86 
3 56 89 87 
3 56 87 61 
3 29 51 57 
3 29 57 27 
3 88 58 52 
3 88 52 90 
3 90 48 54 
3 90 54 88 
3 49 91 89 
3 49 89 56 
3 31 45 51 
3 31 51 29 
3 92 90 52 
3 92 52 46 
3 90 92 42 
3 90 42 48 
3 43 93 91 
3 43 91 49 
3 3 38 45 
3 3 45 31 
3 92 46 39 
3 92 39 94 
3 42 92 94 
3 42 94 32 
3 37 95 93 
3 37 93 43 
3 2 33 38 
3 2 38 3 
3 94 39 36 
3 94 36 35 
3 35 33 32 
3 35 32 94 
3 36 41 95 
3 36 95 37 
3 96 97 98 
3 96 98 99 
3 100 96 99 
3 100 99 101 
3 102 100 101 
3 102 101 103 
3 104 102 103 
3 104 103 105 
3 106 104 105 
3 106 105 107 
3 108 106 107 
3 108 107 109 
3 110 108 109 
3 110 109 111 
3 97 110 111 
3 97 111 98 
3 40 47 112 
3 47 113 112 
3 47 53 113 
3 53 59 126 
3 59 114 126 
3 59 65 114 
3 65 71 127 
3 71 115 127 
3 71 77 115 
3 123 81 128 
3 81 116 128 
3 81 83 116 
3 129 83 85 
3 87 117 85 
3 117 129 85 
3 87 89 130 
3 89 118 130 
3 89 91 118 
3 91 93 131 
3 93 119 131 
3 93 95 119 
3 132 95 41 
3 40 133 41 
3 133 132 41 
3 134 135 136 
3 134 137 138 
3 134 138 135 
3 137 139 116 
3 137 116 138 
3 139 128 116 
3 140 141 142 
3 141 106 142 
3 141 143 106 
3 144 140 142 
3 145 144 146 
3 144 142 146 
3 147 145 146 
3 148 147 149 
3 147 146 149 
3 150 148 149 
3 151 150 152 
3 150 149 152 
3 153 151 152 
3 154 153 155 
3 153 152 155 
3 156 154 155 
3 157 156 158 
3 156 155 158 
3 159 157 158 
3 160 159 161 
3 159 158 161 
3 162 163 104 
3 143 162 106 
3 162 104 106 
3 98 111 107 
3 98 107 105 
3 111 109 107 
3 98 105 103 
3 98 103 99 
3 103 101 99 
