ply
format ascii 1.0
comment VCGLIB generated
comment TextureFile dummy.png
element vertex 12
property float x
property float y
property float z
property float nx
property float ny
property float nz
property float texture_u
property float texture_v
element face 8
property list uchar int vertex_indices
end_header
100 24.75 -5.00001 -6.371611e-08 0.6846977 -0.7288272 3.159046e-06 0.1225532
100 0 -5.00001 -8.742278e-08 0 -1 0 0
-100 0 -4.99999 -8.742278e-08 0 -1 0.9999866 2.074242e-05
-100 24.75 -4.99999 -6.371613e-08 0.6846973 -0.7288276 0.9999835 0.1225681
100 25 -1.00001 -6.371614e-08 0.6846973 -0.7288275 2.741814e-06 0.1421612
-100 25 -0.9999914 -6.371611e-08 0.6846977 -0.7288272 0.999985 0.1421751
-100 200 -0.9999914 -8.742278e-08 0 -1 1 1
100 200 -1.00001 -8.742278e-08 0 -1 3.278255e-07 1
100 300 -1.00001 -8.742278e-08 0 -1 0 1
-100 300 -0.9999914 -8.742278e-08 0 -1 1 1
-100 200 -0.9999914 -8.742278e-08 0 -1 1 0.5075
100 200 -1.00001 -8.742278e-08 0 -1 0 0.5075
3 0 1 2 
3 0 2 3 
3 4 0 3 
3 4 3 5 
3 6 7 4 
3 6 4 5 
3 9 8 11 
3 9 11 10 
