ply
format ascii 1.0
comment VCGLIB generated
comment TextureFile wall_A_d.png
element vertex 24
property float x
property float y
property float z
property float nx
property float ny
property float nz
property float texture_u
property float texture_v
element face 16
property list uchar int vertex_indices
end_header
-100 24.75 14 0 1.567737 1.66878 3.159046e-06 0.1225532
-100 0 14 0 0 1.570796 0 0
100 0 14 0 0 1.570796 0.9999866 2.074242e-05
100 24.75 14 0 1.567736 1.66878 0.9999835 0.1225681
-100 25 10 0 1.567736 1.66878 2.741814e-06 0.1421612
100 25 10 0 1.567737 1.66878 0.999985 0.1421751
100 200 10 0 0 3.141593 1 1
-100 200 10 0 0 3.141593 3.278255e-07 1
-100 300 10 0 0 1.570796 1 1
100 300 10 0 0 1.570796 0 1
100 24.75 -14.00001 -1.432325e-07 1.567737 -1.66878 3.159046e-06 0.1225532
100 0 -14.00001 -1.348225e-07 0 -1.570796 0 0
-100 0 -13.99999 -1.348225e-07 0 -1.570796 0.9999866 2.074242e-05
-100 24.75 -13.99999 -1.432325e-07 1.567736 -1.66878 0.9999835 0.1225681
100 25 -10.00001 -1.432325e-07 1.567736 -1.66878 2.741814e-06 0.1421612
-100 25 -9.999991 -1.432325e-07 1.567737 -1.66878 0.999985 0.1421751
-100 200 -9.999991 -2.696451e-07 0 -3.141593 1 1
100 200 -10.00001 -2.696451e-07 0 -3.141593 3.278255e-07 1
100 300 -10.00001 -1.348225e-07 0 -1.570796 0 1
-100 300 -9.999991 -1.348225e-07 0 -1.570796 1 1
-100 200 10 -8.742278e-08 0 -1 1 0.5075
100 200 10 -8.742278e-08 0 -1 0 0.5075
-100 200 -10 -1.348225e-07 0 -1.570796 1 0.5075
100 200 -10 -1.348225e-07 0 -1.570796 0 0.5075
3 0 1 2 
3 0 2 3 
3 4 0 3 
3 4 3 5 
3 6 7 4 
3 6 4 5 
3 9 8 20
3 9 20 21
3 10 11 12 
3 10 12 13 
3 14 10 13 
3 14 13 15 
3 16 17 14 
3 16 14 15 
3 19 18 23
3 19 23 22 
