ply
format ascii 1.0
comment VCGLIB generated
comment TextureFile wall_A_d.png
element vertex 140
property float x
property float y
property float z
property float nx
property float ny
property float nz
property float texture_u
property float texture_v
element face 116
property list uchar int vertex_indices
end_header
100 24.75 14 0 0.6846977 0.7288272 0.9999835 0.1225681
60 24.75 14 0 0.6846977 0.7288272 0.7999875 0.1225652
60 0 14 0 0 1 0.7999893 1.659393e-05
100 0 14 0 0 1 0.9999866 2.074242e-05
-60 24.75 14 0 0.6846977 0.7288272 0.1999992 0.1225562
-100 24.75 14 0 0.6846977 0.7288272 3.159046e-06 0.1225532
-100 0 14 0 0 1 0 0
-60 0 14 0 0 1 0.1999973 4.148483e-06
100 25 10 0 0.6846977 0.7288272 0.999985 0.1421751
60 25 10 0 0.6846977 0.7288272 0.7999886 0.1421724
-60 25 10 0 0.6846977 0.7288272 0.1999992 0.142164
-100 25 10 0 0.6846977 0.7288272 2.741814e-06 0.1421612
-100 24.75 -14 0 0.6846977 -0.7288272 0.9999835 0.1225681
-60 24.75 -14 0 0.6846977 -0.7288272 0.7999875 0.1225652
-60 0 -14 0 0 -1 0.7999893 1.659393e-05
-100 0 -14 0 0 -1 0.9999866 2.074242e-05
60 24.75 -14 0 0.6846977 -0.7288272 0.1999992 0.1225562
100 24.75 -14 0 0.6846977 -0.7288272 3.159046e-06 0.1225532
100 0 -14 0 0 -1 0 0
60 0 -14 0 0 -1 0.1999973 4.148483e-06
-100 25 -10 0 0.6846977 -0.7288272 0.999985 0.1421751
-60 25 -10 0 0.6846977 -0.7288272 0.7999886 0.1421724
60 25 -10 0 0.6846977 -0.7288272 0.1999992 0.142164
100 25 -10 0 0.6846977 -0.7288272 2.741814e-06 0.1421612
-60 225 10 0 0 1 0.2 0.6249999
60 225 10 0 0 1 0.8 0.6249999
100 300 10 0 0 1 1 1
-100 300 10 0 0 1 0 1
50 190 15 -0.7071068 0 0.7071068 0.6970571 0.9999756
50 190 0 -1 0 0 0.6260886 1.000003
50 -1.490116e-06 0 -1 0 0 0.626089 0.1420121
50 -1.251698e-06 15 -0.7071071 0 0.7071065 0.6970592 0.1420119
-50 190 0 1 0 0 0.6260886 1.000003
-50 190 15 0.7071069 0 0.7071066 0.6970571 0.9999756
-50 -1.072884e-06 15 0.7071069 0 0.7071066 0.6970592 0.1420119
-50 -1.311302e-06 0 1 0 0 0.626089 0.1420121
50 190 -15 -0.7071069 0 -0.7071066 0.6970571 0.9999756
50 -1.490116e-06 -15 -0.7071069 0 -0.7071066 0.6970592 0.1420119
-50 190 -15 0.7071068 0 -0.7071067 0.6970571 0.9999756
-50 -1.311302e-06 -15 0.7071071 0 -0.7071065 0.6970592 0.1420119
60 190 15 0.7071069 0 0.7071066 0.7443696 0.999957
60 -1.192093e-07 15 0.7071065 0 0.7071071 0.7443732 0.1420117
-60 190 15 -0.7071067 0 0.7071069 0.7443696 0.999957
-60 2.384186e-07 15 -0.7071071 0 0.7071066 0.7443732 0.1420117
60 190 -15 0.7071067 0 -0.7071069 0.7443696 0.999957
60 -5.960464e-07 -15 0.7071071 0 -0.7071066 0.7443732 0.1420117
-60 190 -15 -0.7071069 0 -0.7071066 0.7443696 0.999957
-60 -2.384186e-07 -15 -0.7071065 0 -0.7071071 0.7443732 0.1420117
60 190 7.5 1 0 0 0.7798552 0.9999573
60 -1.192093e-07 7.5 1 0 0 0.7798588 0.1420119
-60 190 7.5 -1 0 0 0.7798552 0.9999573
-60 2.384186e-07 7.5 -1 0 0 0.7798588 0.1420119
60 190 -7.5 1 0 0 0.7798552 0.9999573
60 -5.960464e-07 -7.5 1 0 0 0.7798588 0.1420119
-60 190 -7.5 -1 0 0 0.7798552 0.9999573
-60 -2.384186e-07 -7.5 -1 0 0 0.7798588 0.1420119
-60 225 -15 -0.5773503 0.5773501 -0.5773504 0.2457487 0.960484
-60 225 -7.5 -0.7071068 0.7071068 0 0.2063351 0.9604946
60 225 -7.5 0.7071069 0.7071067 0 0.2061435 0.3293227
60 225 -15 0.5773503 0.5773503 -0.5773503 0.2455573 0.3293083
-60 225 15 -0.5773503 0.5773501 0.5773504 0.2457487 0.960484
60 225 15 0.5773503 0.5773503 0.5773503 0.2455573 0.3293083
60 225 7.5 0.7071069 0.7071067 0 0.2061435 0.3293227
-60 225 7.5 -0.7071068 0.7071068 0 0.2063351 0.9604946
-60 225 -10 0 0 -1 0.2 0.6249999
-100 300 -10 0 0 -1 0 1
100 300 -10 0 0 -1 1 1
60 225 -10 0 0 -1 0.8 0.6249999
100 200 10 0 0 1 1 1
60 200 10 0 0 1 0.8000001 0.9999984
-60 200 10 0 0 1 0.2000003 0.9999936
-100 200 10 0 0 1 3.278255e-07 0.999992
-100 200 -10 0 0 -1 1 1
-60 200 -10 0 0 -1 0.8000001 0.9999984
60 200 -10 0 0 -1 0.2000003 0.9999936
100 200 -10 0 0 -1 3.278255e-07 0.999992
-60 215 -7.5 -1 0 0 0.2983457 0.9998438
-60 215 -15 -0.7071068 0 -0.7071068 0.2983063 0.960431
-50 215 -15 0.3015113 -0.3015113 -0.904534 0.2982717 0.9078761
50 215 -15 -0.3015113 -0.3015113 -0.9045341 0.2981217 0.3819237
60 215 -15 0.7071068 0 -0.7071068 0.2981153 0.3293382
60 215 -7.5 1 0 0 0.2981304 0.2899219
-60 215 7.5 -1 0 0 0.2983457 0.9998438
-60 215 15 -0.7071068 0 0.7071068 0.2983063 0.960431
-50 215 15 0.3015113 -0.3015113 0.904534 0.2982717 0.9078761
50 215 15 -0.3015113 -0.3015113 0.9045341 0.2981217 0.3819237
60 215 15 0.7071068 0 0.7071068 0.2981153 0.3293382
60 215 7.5 1 0 0 0.2981304 0.2899219
-50 215 0 0.7071068 -0.7071068 0 0.3770781 0.9079155
50 215 0 -0.7071068 -0.7071068 0 0.3769369 0.3819225
-50 -7.599988 13 0 0 1 0.2457327 0.907886
50 -7.599988 13 0 0 1 0.2455732 0.3819063
50 2.400002 13 0 0.7071068 0.7071068 0.3086304 0.3819236
-50 2.400002 13 0 0.7071068 0.7071068 0.3087792 0.9078814
-50 -7.599988 -13 0 0 -1 0.2457327 0.907886
-50 2.400002 -13 0 0.7071068 -0.7071068 0.2982717 0.9078761
50 2.400002 -13 0 0.7071068 -0.7071068 0.2981217 0.3819237
50 -7.599988 -13 0 0 -1 0.2455732 0.3819063
-50 2.400002 -6.123228e-16 0 1 0 0.3770781 0.9079155
50 2.400002 -6.123228e-16 0 1 0 0.3769369 0.3819225
60 200 10 0 0 1 0.8 0.5082
100 200 10 0 0 1 1 0.5082
-100 200 10 0 0 1 0 0.5082
-60 200 10 0 0 1 0.2 0.5082
-60 225 -7.5 -0.7071068 0.7071068 0 0.2457919 0.9998976
60 225 -7.5 0.7071069 0.7071067 0 0.2455753 0.2898974
-60 225 7.5 -0.7071068 0.7071068 0 0.2457919 0.9998976
60 225 7.5 0.7071069 0.7071067 0 0.2455753 0.2898974
-60 215 -15 -0.7071068 0 -0.7071068 0.7443711 0.6322662
-60 190 -15 -0.7071069 0 -0.7071066 0.7443717 0.5097026
-60 190 -7.5 -1 0 0 0.7798572 0.5097027
-60 215 -7.5 -1 0 0 0.7798567 0.6322664
60 190 -15 0.7071067 0 -0.7071069 0.7443717 0.5097026
60 215 -15 0.7071068 0 -0.7071068 0.7443711 0.6322662
60 215 -7.5 1 0 0 0.7798567 0.6322664
60 190 -7.5 1 0 0 0.7798572 0.5097027
-60 190 15 -0.7071067 0 0.7071069 0.7443717 0.5097026
-60 215 15 -0.7071068 0 0.7071068 0.7443711 0.6322662
-60 215 7.5 -1 0 0 0.7798567 0.6322664
-60 190 7.5 -1 0 0 0.7798572 0.5097027
60 215 15 0.7071068 0 0.7071068 0.7443711 0.6322662
60 190 15 0.7071069 0 0.7071066 0.7443717 0.5097026
60 190 7.5 1 0 0 0.7798572 0.5097027
60 215 7.5 1 0 0 0.7798567 0.6322664
-50 215 -15 0.3015113 -0.3015113 -0.904534 0.697058 0.6322768
-50 190 -15 0.7071068 0 -0.7071067 0.6970583 0.5097106
50 190 -15 -0.7071069 0 -0.7071066 0.6970583 0.5097106
50 215 -15 -0.3015113 -0.3015113 -0.9045341 0.697058 0.6322768
-50 190 15 0.7071069 0 0.7071066 0.6970583 0.5097106
-50 215 15 0.3015113 -0.3015113 0.904534 0.697058 0.6322768
50 215 15 -0.3015113 -0.3015113 0.9045341 0.697058 0.6322768
50 190 15 -0.7071068 0 0.7071068 0.6970583 0.5097106
-50 215 0 0.7071068 -0.7071068 0 0.6260887 0.6322929
-50 190 0 1 0 0 0.6260889 0.5097227
50 190 0 -1 0 0 0.6260889 0.5097227
50 215 0 -0.7071068 -0.7071068 0 0.6260887 0.6322929
100 200 -10 0 0 -1 1 0.5082
60 200 -10 0 0 -1 0.8 0.5082
-60 200 -10 0 0 -1 0.2 0.5082
-100 200 -10 0 0 -1 0 0.5082
3 0 1 2 
3 0 2 3 
3 4 5 6 
3 4 6 7 
3 8 9 1 
3 8 1 0 
3 10 11 5 
3 10 5 4 
3 12 13 14 
3 12 14 15 
3 16 17 18 
3 16 18 19 
3 20 21 13 
3 20 13 12 
3 22 23 17 
3 22 17 16 
3 24 25 26 
3 24 26 27 
3 28 29 30 
3 28 30 31 
3 32 33 34 
3 32 34 35 
3 29 36 37 
3 29 37 30 
3 38 32 35 
3 38 35 39 
3 40 28 31 
3 40 31 41 
3 33 42 43 
3 33 43 34 
3 36 44 45 
3 36 45 37 
3 46 38 39 
3 46 39 47 
3 48 40 41 
3 48 41 49 
3 42 50 51 
3 42 51 43 
3 44 52 53 
3 44 53 45 
3 54 46 47 
3 54 47 55 
3 56 57 58 
3 56 58 59 
3 60 61 62 
3 60 62 63 
3 64 65 66 
3 64 66 67 
3 68 69 9 
3 68 9 8 
3 70 71 11 
3 70 11 10 
3 72 73 21 
3 72 21 20 
3 74 75 23 
3 74 23 22 
3 26 25 100 
3 26 100 101 
3 27 102 103 
3 27 103 24 
3 76 104 56 
3 76 56 77 
3 77 56 78 
3 56 59 79 
3 56 79 78 
3 80 79 59 
3 81 80 59 
3 81 59 105 
3 82 83 60 
3 82 60 106 
3 83 84 60 
3 60 84 85 
3 60 85 61 
3 86 61 85 
3 87 107 61 
3 87 61 86 
3 88 78 79 
3 88 79 89 
3 88 89 85 
3 88 85 84 
3 108 109 110 
3 108 110 111 
3 112 113 114 
3 112 114 115 
3 116 117 118 
3 116 118 119 
3 120 121 122 
3 120 122 123 
3 124 125 109 
3 124 109 108 
3 126 127 113 
3 126 113 112 
3 117 116 128 
3 117 128 129 
3 121 120 130 
3 121 130 131 
3 132 133 125 
3 132 125 124 
3 134 135 127 
3 134 127 126 
3 129 128 133 
3 129 133 132 
3 131 130 135 
3 131 135 134 
3 66 136 137 
3 66 137 67 
3 65 64 138 
3 65 138 139 
3 90 91 92 
3 90 92 93 
3 94 95 96 
3 94 96 97 
3 98 93 92 
3 98 92 99 
3 98 99 96 
3 98 96 95 
