ply
format ascii 1.0
comment VCGLIB generated
element vertex 14
property float x
property float y
property float z
element face 12
property list uchar int vertex_indices
end_header
-0.5 -0.5 0.5 
-0.5 0.5 0.5 
-0.5 0.5 -0.5 
-0.5 -0.5 -0.5 
0.5 0.5 -0.5 
0.5 -0.5 -0.5 
0.5 0.5 0.5 
0.5 -0.5 0.5 
-0.5 0.5 0.5 
-0.5 -0.5 0.5 
-0.5 -0.5 -0.5 
-0.5 -0.5 0.5 
-0.5 0.5 -0.5 
-0.5 0.5 0.5 
3 0 1 2 
3 0 2 3 
3 3 2 4 
3 3 4 5 
3 5 4 6 
3 5 6 7 
3 7 6 8 
3 7 8 9 
3 10 5 7 
3 10 7 11 
3 4 12 13 
3 4 13 6 
